<?xml version="1.0" encoding="UTF-8" standalone="no"?>
<!-- Created with Inkscape (http://www.inkscape.org/) -->

<svg
   width="650mm"
   height="240mm"
   viewBox="0 0 650 240"
   version="1.1"
   id="svg1"
   xml:space="preserve"
   inkscape:version="1.3.2 (1:1.3.2+202311252150+091e20ef0f)"
   sodipodi:docname="earth.svg"
   xmlns:inkscape="http://www.inkscape.org/namespaces/inkscape"
   xmlns:sodipodi="http://sodipodi.sourceforge.net/DTD/sodipodi-0.dtd"
   xmlns="http://www.w3.org/2000/svg"
   xmlns:svg="http://www.w3.org/2000/svg"><sodipodi:namedview
     id="namedview1"
     pagecolor="#ffffff"
     bordercolor="#666666"
     borderopacity="1.0"
     inkscape:showpageshadow="2"
     inkscape:pageopacity="0.0"
     inkscape:pagecheckerboard="0"
     inkscape:deskcolor="#d1d1d1"
     inkscape:document-units="mm"
     inkscape:zoom="0.38394123"
     inkscape:cx="972.80514"
     inkscape:cy="503.98339"
     inkscape:window-width="2560"
     inkscape:window-height="1412"
     inkscape:window-x="0"
     inkscape:window-y="0"
     inkscape:window-maximized="1"
     inkscape:current-layer="layer2"
     showgrid="false" /><defs
     id="defs1"><filter
       inkscape:collect="always"
       style="color-interpolation-filters:sRGB"
       id="filter27"
       x="-0.025495008"
       y="-0.025495008"
       width="1.05099"
       height="1.05099"><feGaussianBlur
         inkscape:collect="always"
         stdDeviation="4.9522401"
         id="feGaussianBlur27" /></filter></defs><g
     inkscape:groupmode="layer"
     id="layer2"
     inkscape:label="Layer 2"
     style="display:inline"
     transform="matrix(0.95649392,0,0,0.95649392,183.07804,42.093344)"><circle
       style="opacity:1;fill:#000000;fill-opacity:0.399518;stroke:#000000;stroke-width:1.09396;stroke-linejoin:round;stroke-dasharray:none;stroke-opacity:0.301217"
       id="path1"
       cx="88.825676"
       cy="238.69154"
       r="253.65269" /></g><g
     inkscape:groupmode="layer"
     id="g27"
     inkscape:label="Layer 2 copy"
     style="display:inline"
     transform="translate(179.96762,32.93634)"><circle
       style="opacity:1;mix-blend-mode:normal;fill:#000000;fill-opacity:0.402578;stroke:#000000;stroke-width:0.950508;stroke-linejoin:round;stroke-dasharray:none;stroke-opacity:0;filter:url(#filter27)"
       id="circle27"
       cx="214.65802"
       cy="222.64708"
       r="242.41275"
       transform="matrix(1.0520695,0,0,1.0520695,-137.76347,3.2235614)" /></g><g
     inkscape:groupmode="layer"
     id="layer5"
     inkscape:label="Layer 5" /><g
     inkscape:label="WireframeSphere"
     transform="matrix(9.1772548,-0.6386133,0.6386133,9.1772548,267.15613,270.9164)"
     id="g208"
     style="opacity:0.525815;stroke-width:0.0543511;stroke-dasharray:none"><g
       inkscape:label="Lines of Longitude"
       id="g190"
       style="stroke-width:0.0543511;stroke-dasharray:none"><path
         sodipodi:cx="0"
         sodipodi:cy="0"
         sodipodi:rx="1.7353343"
         sodipodi:ry="26.458334"
         sodipodi:type="arc"
         sodipodi:arc-type="arc"
         sodipodi:start="1.5707963"
         sodipodi:end="4.712389"
         sodipodi:open="true"
         d="m 0,26.458334 a 1.7353343,26.458334 0 0 1 -1.5028436,-13.229167 1.7353343,26.458334 0 0 1 0,-26.458334 A 1.7353343,26.458334 0 0 1 0,-26.458334"
         style="fill:none;stroke:#000000;stroke-width:0.0543511;stroke-dasharray:none"
         transform="rotate(1.37005)"
         id="path179" /><path
         sodipodi:cx="0"
         sodipodi:cy="0"
         sodipodi:rx="8.0955038"
         sodipodi:ry="26.458334"
         sodipodi:type="arc"
         sodipodi:arc-type="arc"
         sodipodi:start="1.5707963"
         sodipodi:end="4.712389"
         sodipodi:open="true"
         d="m 0,26.458334 a 8.0955038,26.458334 0 0 1 -7.0109119,-13.229167 8.0955038,26.458334 0 0 1 0,-26.458334 A 8.0955038,26.458334 0 0 1 0,-26.458334"
         style="fill:none;stroke:#000000;stroke-width:0.0543511;stroke-dasharray:none"
         transform="rotate(6.71661)"
         id="path180" /><path
         sodipodi:cx="0"
         sodipodi:cy="0"
         sodipodi:rx="13.904046"
         sodipodi:ry="26.458334"
         sodipodi:type="arc"
         sodipodi:arc-type="arc"
         sodipodi:start="1.5707963"
         sodipodi:end="4.712389"
         sodipodi:open="true"
         d="m 0,26.458334 a 13.904046,26.458334 0 0 1 -12.041257,-13.229167 13.904046,26.458334 0 0 1 0,-26.458334 A 13.904046,26.458334 0 0 1 0,-26.458334"
         style="fill:none;stroke:#000000;stroke-width:0.0543511;stroke-dasharray:none"
         transform="rotate(12.9906)"
         id="path181" /><path
         sodipodi:cx="0"
         sodipodi:cy="0"
         sodipodi:rx="18.765118"
         sodipodi:ry="26.458334"
         sodipodi:type="arc"
         sodipodi:arc-type="arc"
         sodipodi:start="1.5707963"
         sodipodi:end="4.712389"
         sodipodi:open="true"
         d="m 0,26.458334 a 18.765118,26.458334 0 0 1 -16.251068,-13.229167 18.765118,26.458334 0 0 1 -1e-6,-26.458334 A 18.765118,26.458334 0 0 1 0,-26.458334"
         style="fill:none;stroke:#000000;stroke-width:0.0543511;stroke-dasharray:none"
         transform="rotate(21.4771)"
         id="path182" /><path
         sodipodi:cx="0"
         sodipodi:cy="0"
         sodipodi:rx="22.347446"
         sodipodi:ry="26.458334"
         sodipodi:type="arc"
         sodipodi:arc-type="arc"
         sodipodi:start="1.5707963"
         sodipodi:end="4.712389"
         sodipodi:open="true"
         d="m 0,26.458334 a 22.347446,26.458334 0 0 1 -19.353456,-13.229167 22.347446,26.458334 0 0 1 0,-26.458334 A 22.347446,26.458334 0 0 1 0,-26.458334"
         style="fill:none;stroke:#000000;stroke-width:0.0543511;stroke-dasharray:none"
         transform="rotate(35.0399)"
         id="path183" /><path
         sodipodi:cx="0"
         sodipodi:cy="0"
         sodipodi:rx="24.406902"
         sodipodi:ry="26.458334"
         sodipodi:type="arc"
         sodipodi:arc-type="arc"
         sodipodi:start="1.5707963"
         sodipodi:end="4.712389"
         sodipodi:open="true"
         d="m 0,26.458334 a 24.406902,26.458334 0 0 1 -21.136997,-13.229167 24.406902,26.458334 0 0 1 0,-26.458334 A 24.406902,26.458334 0 0 1 0,-26.458334"
         style="fill:none;stroke:#000000;stroke-width:0.0543511;stroke-dasharray:none"
         transform="rotate(60.3891)"
         id="path184" /><path
         sodipodi:cx="0"
         sodipodi:cy="0"
         sodipodi:rx="24.803137"
         sodipodi:ry="26.458334"
         sodipodi:type="arc"
         sodipodi:arc-type="arc"
         sodipodi:start="4.712389"
         sodipodi:end="1.5707963"
         sodipodi:open="true"
         d="M 0,-26.458334 A 24.803137,26.458334 0 0 1 24.803137,0 24.803137,26.458334 0 0 1 0,26.458334"
         style="fill:none;stroke:#000000;stroke-width:0.0543511;stroke-dasharray:none"
         transform="rotate(-78.445)"
         id="path185" /><path
         sodipodi:cx="0"
         sodipodi:cy="0"
         sodipodi:rx="23.509146"
         sodipodi:ry="26.458334"
         sodipodi:type="arc"
         sodipodi:arc-type="arc"
         sodipodi:start="4.712389"
         sodipodi:end="1.5707963"
         sodipodi:open="true"
         d="M 0,-26.458334 A 23.509146,26.458334 0 0 1 23.509146,0 23.509146,26.458334 0 0 1 0,26.458334"
         style="fill:none;stroke:#000000;stroke-width:0.0543511;stroke-dasharray:none"
         transform="rotate(-44.8074)"
         id="path186" /><path
         sodipodi:cx="0"
         sodipodi:cy="0"
         sodipodi:rx="20.613113"
         sodipodi:ry="26.458334"
         sodipodi:type="arc"
         sodipodi:arc-type="arc"
         sodipodi:start="4.712389"
         sodipodi:end="1.5707963"
         sodipodi:open="true"
         d="M 0,-26.458334 A 20.613113,26.458334 0 0 1 20.613113,0 20.613113,26.458334 0 0 1 0,26.458334"
         style="fill:none;stroke:#000000;stroke-width:0.0543511;stroke-dasharray:none"
         transform="rotate(-26.888)"
         id="path187" /><path
         sodipodi:cx="0"
         sodipodi:cy="0"
         sodipodi:rx="16.312399"
         sodipodi:ry="26.458334"
         sodipodi:type="arc"
         sodipodi:arc-type="arc"
         sodipodi:start="4.712389"
         sodipodi:end="1.5707963"
         sodipodi:open="true"
         d="M 0,-26.458334 A 16.312399,26.458334 0 0 1 16.312399,0 16.312399,26.458334 0 0 1 0,26.458334"
         style="fill:none;stroke:#000000;stroke-width:0.0543511;stroke-dasharray:none"
         transform="rotate(-16.5579)"
         id="path188" /><path
         sodipodi:cx="0"
         sodipodi:cy="0"
         sodipodi:rx="10.90009"
         sodipodi:ry="26.458334"
         sodipodi:type="arc"
         sodipodi:arc-type="arc"
         sodipodi:start="4.712389"
         sodipodi:end="1.5707963"
         sodipodi:open="true"
         d="M 0,-26.458334 A 10.90009,26.458334 0 0 1 10.90009,0 10.90009,26.458334 0 0 1 0,26.458334"
         style="fill:none;stroke:#000000;stroke-width:0.0543511;stroke-dasharray:none"
         transform="rotate(-9.47056)"
         id="path189" /><path
         sodipodi:cx="0"
         sodipodi:cy="0"
         sodipodi:rx="4.7450271"
         sodipodi:ry="26.458334"
         sodipodi:type="arc"
         sodipodi:arc-type="arc"
         sodipodi:start="4.712389"
         sodipodi:end="1.5707963"
         sodipodi:open="true"
         d="M 0,-26.458334 A 4.7450271,26.458334 0 0 1 4.7450271,0 4.7450271,26.458334 0 0 1 0,26.458334"
         style="fill:none;stroke:#000000;stroke-width:0.0543511;stroke-dasharray:none"
         transform="rotate(-3.80354)"
         id="path190" /></g><g
       inkscape:label="Lines of Latitude"
       id="g207"
       style="stroke-width:0.0543511;stroke-dasharray:none"><path
         sodipodi:cx="0"
         sodipodi:cy="22.152828"
         sodipodi:rx="12.011832"
         sodipodi:ry="4.1092887"
         sodipodi:type="arc"
         sodipodi:arc-type="arc"
         sodipodi:start="0.79566881"
         sodipodi:end="2.3459238"
         sodipodi:open="true"
         d="m 8.4059663,25.088224 a 12.011832,4.1092887 0 0 1 -16.8119323,0"
         style="fill:none;stroke:#000000;stroke-width:0.0543511;stroke-dasharray:none"
         id="path191" /><path
         sodipodi:cx="0"
         sodipodi:cy="20.114347"
         sodipodi:rx="15.551818"
         sodipodi:ry="5.320035"
         sodipodi:type="arc"
         sodipodi:arc-type="arc"
         sodipodi:start="0.52471001"
         sodipodi:end="2.6168826"
         sodipodi:open="true"
         d="M 13.45962,22.779483 A 15.551818,5.320035 0 0 1 0,25.434382 15.551818,5.320035 0 0 1 -13.45962,22.779483"
         style="fill:none;stroke:#000000;stroke-width:0.0543511;stroke-dasharray:none"
         id="path192" /><path
         sodipodi:cx="0"
         sodipodi:cy="17.580584"
         sodipodi:rx="18.708866"
         sodipodi:ry="6.3998094"
         sodipodi:type="arc"
         sodipodi:arc-type="arc"
         sodipodi:start="0.37252697"
         sodipodi:end="2.7690657"
         sodipodi:open="true"
         d="M 17.425636,19.909924 A 18.708866,6.3998094 0 0 1 0,23.980393 18.708866,6.3998094 0 0 1 -17.425636,19.909924"
         style="fill:none;stroke:#000000;stroke-width:0.0543511;stroke-dasharray:none"
         id="path193" /><path
         sodipodi:cx="0"
         sodipodi:cy="14.613929"
         sodipodi:rx="21.405241"
         sodipodi:ry="7.3220239"
         sodipodi:type="arc"
         sodipodi:arc-type="arc"
         sodipodi:start="0.26762305"
         sodipodi:end="2.8739696"
         sodipodi:open="true"
         d="M 20.643261,16.550164 A 21.405241,7.3220239 0 0 1 0,21.935953 21.405241,7.3220239 0 0 1 -20.643261,16.550164"
         style="fill:none;stroke:#000000;stroke-width:0.0543511;stroke-dasharray:none"
         id="path194" /><path
         sodipodi:cx="0"
         sodipodi:cy="11.28743"
         sodipodi:rx="23.574547"
         sodipodi:ry="8.0639706"
         sodipodi:type="arc"
         sodipodi:arc-type="arc"
         sodipodi:start="0.18653192"
         sodipodi:end="2.9550607"
         sodipodi:open="true"
         d="M 23.165606,12.78291 A 23.574547,8.0639706 0 0 1 0,19.3514 23.574547,8.0639706 0 0 1 -23.165606,12.78291"
         style="fill:none;stroke:#000000;stroke-width:0.0543511;stroke-dasharray:none"
         id="path195" /><path
         sodipodi:cx="0"
         sodipodi:cy="7.6829972"
         sodipodi:rx="25.16337"
         sodipodi:ry="8.6073799"
         sodipodi:type="arc"
         sodipodi:arc-type="arc"
         sodipodi:start="0.11853851"
         sodipodi:end="3.0230541"
         sodipodi:open="true"
         d="M 24.986787,8.7009154 A 25.16337,8.6073799 0 0 1 0,16.290377 25.16337,8.6073799 0 0 1 -24.986787,8.7009158"
         style="fill:none;stroke:#000000;stroke-width:0.0543511;stroke-dasharray:none"
         id="path196" /><path
         sodipodi:cx="0"
         sodipodi:cy="3.8893833"
         sodipodi:rx="26.132587"
         sodipodi:ry="8.9388714"
         sodipodi:type="arc"
         sodipodi:arc-type="arc"
         sodipodi:start="0.057679199"
         sodipodi:end="3.0839135"
         sodipodi:open="true"
         d="M 26.089129,4.4046844 A 26.132587,8.9388714 0 0 1 0,12.828255 26.132587,8.9388714 0 0 1 -26.089129,4.404684"
         style="fill:none;stroke:#000000;stroke-width:0.0543511;stroke-dasharray:none"
         id="path197" /><path
         sodipodi:cx="0"
         sodipodi:cy="1.5224013e-15"
         sodipodi:rx="26.458334"
         sodipodi:ry="9.0502834"
         sodipodi:type="arc"
         sodipodi:arc-type="arc"
         sodipodi:start="0"
         sodipodi:end="3.1415927"
         sodipodi:open="true"
         d="m 26.458334,0 a 26.458334,9.0502834 0 0 1 -13.229167,7.8377754 26.458334,9.0502834 0 0 1 -26.458335,-2e-7 A 26.458334,9.0502834 0 0 1 -26.458334,0"
         style="fill:none;stroke:#000000;stroke-width:0.0543511;stroke-dasharray:none"
         id="path198" /><path
         sodipodi:cx="0"
         sodipodi:cy="-3.8893833"
         sodipodi:rx="26.132587"
         sodipodi:ry="8.9388714"
         sodipodi:type="arc"
         sodipodi:arc-type="arc"
         sodipodi:start="6.2255061"
         sodipodi:end="3.1992719"
         sodipodi:open="true"
         d="m 26.089129,-4.4046845 a 26.132587,8.9388714 0 0 1 -12.590155,8.1692343 26.132587,8.9388714 0 0 1 -26.997949,-2e-7 26.132587,8.9388714 0 0 1 -12.590154,-8.1692344"
         style="fill:none;stroke:#000000;stroke-width:0.0543511;stroke-dasharray:none"
         id="path199" /><path
         sodipodi:cx="0"
         sodipodi:cy="-7.6829972"
         sodipodi:rx="25.16337"
         sodipodi:ry="8.6073799"
         sodipodi:type="arc"
         sodipodi:arc-type="arc"
         sodipodi:start="6.1646468"
         sodipodi:end="3.2601312"
         sodipodi:open="true"
         d="m 24.986787,-8.7009154 a 25.16337,8.6073799 0 0 1 -11.554078,8.29630291 25.16337,8.6073799 0 0 1 -26.865419,-1.8e-7 25.16337,8.6073799 0 0 1 -11.554077,-8.29630313"
         style="fill:none;stroke:#000000;stroke-width:0.0543511;stroke-dasharray:none"
         id="path200" /><path
         sodipodi:cx="0"
         sodipodi:cy="-11.28743"
         sodipodi:rx="23.574547"
         sodipodi:ry="8.0639706"
         sodipodi:type="arc"
         sodipodi:arc-type="arc"
         sodipodi:start="6.0966534"
         sodipodi:end="3.3281246"
         sodipodi:open="true"
         d="m 23.165606,-12.78291 a 23.574547,8.0639706 0 0 1 -10.132507,8.2150521 23.574547,8.0639706 0 0 1 -26.066199,-1e-7 23.574547,8.0639706 0 0 1 -10.132506,-8.215052"
         style="fill:none;stroke:#000000;stroke-width:0.0543511;stroke-dasharray:none"
         id="path201" /><path
         sodipodi:cx="0"
         sodipodi:cy="-14.613929"
         sodipodi:rx="21.405241"
         sodipodi:ry="7.3220239"
         sodipodi:type="arc"
         sodipodi:arc-type="arc"
         sodipodi:start="6.0155623"
         sodipodi:end="3.4092157"
         sodipodi:open="true"
         d="m 20.643261,-16.550163 a 21.405241,7.3220239 0 0 1 -8.331705,7.9259212 21.405241,7.3220239 0 0 1 -24.623113,-10e-8 21.405241,7.3220239 0 0 1 -8.331704,-7.9259221"
         style="fill:none;stroke:#000000;stroke-width:0.0543511;stroke-dasharray:none"
         id="path202" /><path
         sodipodi:cx="0"
         sodipodi:cy="-17.580584"
         sodipodi:rx="18.708866"
         sodipodi:ry="6.3998094"
         sodipodi:type="arc"
         sodipodi:arc-type="arc"
         sodipodi:start="5.9106583"
         sodipodi:end="3.5141196"
         sodipodi:open="true"
         d="m 17.425636,-19.909924 a 18.708866,6.3998094 0 0 1 -6.136459,7.432732 18.708866,6.3998094 0 0 1 -22.578353,0 18.708866,6.3998094 0 0 1 -6.13646,-7.432732"
         style="fill:none;stroke:#000000;stroke-width:0.0543511;stroke-dasharray:none"
         id="path203" /><path
         sodipodi:cx="0"
         sodipodi:cy="-20.114347"
         sodipodi:rx="15.551818"
         sodipodi:ry="5.320035"
         sodipodi:type="arc"
         sodipodi:arc-type="arc"
         sodipodi:start="5.7584753"
         sodipodi:end="3.6663027"
         sodipodi:open="true"
         d="m 13.45962,-22.779483 a 15.551818,5.320035 0 0 1 -3.458692,6.739252 15.551818,5.320035 0 0 1 -20.001856,0 15.551818,5.320035 0 0 1 -3.458692,-6.739252"
         style="fill:none;stroke:#000000;stroke-width:0.0543511;stroke-dasharray:none"
         id="path204" /><path
         sodipodi:cx="0"
         sodipodi:cy="-22.152828"
         sodipodi:rx="12.011832"
         sodipodi:ry="4.1092887"
         sodipodi:type="arc"
         sodipodi:arc-type="arc"
         sodipodi:start="5.4875165"
         sodipodi:end="3.9372615"
         sodipodi:open="true"
         d="M 8.4059664,-25.088224 A 12.011832,4.1092887 0 0 1 11.120945,-20.599788 12.011832,4.1092887 0 0 1 0,-18.04354 a 12.011832,4.1092887 0 0 1 -11.120945,-2.556248 12.011832,4.1092887 0 0 1 2.714979,-4.488436"
         style="fill:none;stroke:#000000;stroke-width:0.0543511;stroke-dasharray:none"
         id="path205" /><ellipse
         style="fill:none;stroke:#000000;stroke-width:0.0543511;stroke-dasharray:none"
         id="path206"
         cx="0"
         cy="-23.645834"
         rx="8.176075"
         ry="2.7973821" /><ellipse
         style="fill:none;stroke:#000000;stroke-width:0.0543511;stroke-dasharray:none"
         id="path207"
         cx="0"
         cy="-24.556599"
         rx="4.1389952"
         ry="1.4166198" /></g><circle
       style="fill:none;stroke:#000000;stroke-width:0.0543511;stroke-dasharray:none"
       id="path208"
       cx="0"
       cy="0"
       r="26.458334" /></g><g
     inkscape:groupmode="layer"
     id="layer4"
     inkscape:label="Layer 3"
     style="display:inline"
     transform="translate(179.96762,32.93634)"><path
       style="fill:none;stroke:#000000;stroke-width:1.3;stroke-linecap:round;stroke-linejoin:round;stroke-dasharray:none;stroke-opacity:0.501992"
       d="m 94.586678,164.2861 c 0,0 -53.74962,-40.86593 -137.647813,-59.04866 -30.68239,-6.649586 -49.2779,-4.07109 -66.007235,3.33511"
       id="path2"
       sodipodi:nodetypes="csc" /><path
       style="fill:none;stroke:#000000;stroke-width:1.3;stroke-linecap:round;stroke-linejoin:round;stroke-dasharray:none;stroke-opacity:0.501992"
       d="m 71.195268,119.74865 c 0,0 -24.29048,-4.81996 -108.188673,-23.002676 -30.68238,-6.649558 -55.24287,3.351926 -71.972205,10.758136"
       id="path2-6"
       sodipodi:nodetypes="csc" /><path
       style="fill:none;stroke:#000000;stroke-width:1.3;stroke-linecap:round;stroke-linejoin:round;stroke-dasharray:none;stroke-opacity:0.501992"
       d="m 114.01221,116.43966 c 0,0 -71.971052,-25.930754 -132.829133,-29.908133 -31.327792,-2.047429 -67.093482,5.819446 -90.682657,20.544103"
       id="path2-2"
       sodipodi:nodetypes="csc" /><path
       style="fill:none;stroke:#000000;stroke-width:1.3;stroke-linecap:round;stroke-linejoin:round;stroke-dasharray:none;stroke-opacity:0.501992"
       d="m 81.070848,145.43343 c 0,0 -45.95076,-22.58006 -102.544936,-45.30955 -17.032097,-6.840437 -37.833977,-20.568592 -72.756557,-12.431282"
       id="path2-2-3"
       sodipodi:nodetypes="csc" /><path
       style="fill:none;stroke:#000000;stroke-width:1.3;stroke-linecap:round;stroke-linejoin:round;stroke-dasharray:none;stroke-opacity:0.501992"
       d="m 72.174068,117.28116 c 0,0 -22.31276,-12.88487 -78.9069902,-35.61426 C -23.764966,74.826464 -124.66523,50.620781 -115.54475,93.476878"
       id="path2-2-3-2"
       sodipodi:nodetypes="csc" /><path
       style="fill:none;stroke:#000000;stroke-width:1.3;stroke-linecap:round;stroke-linejoin:round;stroke-dasharray:none;stroke-opacity:0.501992"
       d="M 228.07965,181.96716 C 209.37394,152.0244 126.80693,55.821145 69.113378,28.138766 -8.8472722,-9.2681266 -70.589645,-13.377982 -60.868485,79.246764"
       id="path2-2-3-2-7"
       sodipodi:nodetypes="csc" /><path
       style="fill:none;stroke:#000000;stroke-width:1.3;stroke-linecap:round;stroke-linejoin:round;stroke-dasharray:none;stroke-opacity:0.501992"
       d="M 115.0749,114.49903 C 82.963418,80.544776 31.465438,51.516823 1.2365278,37.994189 -87.488605,-1.6962578 -83.865555,40.937215 -78.989345,77.773959"
       id="path2-2-3-2-7-2"
       sodipodi:nodetypes="csc" /><path
       style="fill:none;stroke:#000000;stroke-width:1.3;stroke-linecap:round;stroke-linejoin:round;stroke-dasharray:none;stroke-opacity:0.501992"
       d="M 82.908508,144.52779 C 70.900938,132.30804 45.803308,104.29112 24.417628,86.819479 -47.491215,28.071505 -97.749005,13.432602 -62.057055,79.333751"
       id="path2-2-3-2-7-2-9"
       sodipodi:nodetypes="csc" /><path
       style="fill:none;stroke:#000000;stroke-width:1.3;stroke-linecap:round;stroke-linejoin:round;stroke-dasharray:none;stroke-opacity:0.501992"
       d="m 119.80668,114.16177 c 24.31492,-44.374523 37.38035,-60.84681 67.65799,-86.661905 23.39572,-19.9474874 29.02173,3.900403 19.39995,38.82483"
       id="path4"
       sodipodi:nodetypes="csc" /><path
       style="fill:none;stroke:#000000;stroke-width:1.3;stroke-linecap:round;stroke-linejoin:round;stroke-dasharray:none;stroke-opacity:0.501992"
       d="m 77.342038,116.3231 c 22.62407,-45.891524 48.655412,-70.294992 78.933052,-96.110091 23.39572,-19.94747909 56.04347,-37.980212 58.5796,7.241984"
       id="path4-7"
       sodipodi:nodetypes="csc" /><path
       style="fill:none;stroke:#000000;stroke-width:1.3;stroke-linecap:round;stroke-linejoin:round;stroke-dasharray:none;stroke-opacity:0.501992"
       d="m 154.78998,106.70068 c 20.87617,-24.00862 39.71453,-42.361486 68.15839,-60.217261 36.19181,-22.719594 34.23109,-5.530326 13.49464,29.33208"
       id="path4-7-5"
       sodipodi:nodetypes="csc" /><path
       style="fill:none;stroke:#000000;stroke-width:1.3;stroke-linecap:round;stroke-linejoin:round;stroke-dasharray:none;stroke-opacity:0.501992"
       d="m 101.30068,162.88027 c 61.68673,-46.63065 115.30908,-71.133144 154.65766,-84.704227 16.48359,-5.685089 62.17402,-25.903995 2.89269,34.966167"
       id="path4-7-5-7"
       sodipodi:nodetypes="csc" /><path
       style="fill:none;stroke:#000000;stroke-width:1.3;stroke-linecap:round;stroke-linejoin:round;stroke-dasharray:none;stroke-opacity:0.501992"
       d="M 86.746508,144.74833 C 107.94167,97.600089 135.03076,71.146831 162.90843,42.75687 211.11651,-6.3370991 233.7539,2.108194 207.67965,66.744814"
       id="path4-7-9"
       sodipodi:nodetypes="csc" /><path
       style="fill:none;stroke:#000000;stroke-width:1.3;stroke-linecap:round;stroke-linejoin:round;stroke-dasharray:none;stroke-opacity:0.501992"
       d="m 96.058878,162.66867 -8.43356,-11.04793"
       id="path5" /><path
       style="fill:none;stroke:#000000;stroke-width:1.3;stroke-linecap:round;stroke-linejoin:round;stroke-dasharray:none;stroke-opacity:0.501992"
       d="m 76.248698,124.74971 8.16307,19.02466"
       id="path6"
       sodipodi:nodetypes="cc" /><path
       style="fill:none;stroke:#000000;stroke-width:1.3;stroke-linecap:round;stroke-linejoin:round;stroke-dasharray:none;stroke-opacity:0.501992"
       d="m 80.122498,118.99084 33.244522,-0.9476"
       id="path7" /><path
       style="fill:none;stroke:#000000;stroke-width:1.3;stroke-linecap:round;stroke-linejoin:round;stroke-dasharray:none;stroke-opacity:0.501992"
       d="m 120.5675,120.13297 33.69613,27.29114"
       id="path8"
       sodipodi:nodetypes="cc" /><path
       style="fill:none;stroke:#000000;stroke-width:1.3;stroke-linecap:round;stroke-linejoin:round;stroke-dasharray:none;stroke-opacity:0.501992"
       d="m 153.32531,152.01263 -50.45879,12.68764"
       id="path9" /><path
       style="fill:none;stroke:#000000;stroke-width:1.3;stroke-linecap:round;stroke-linejoin:round;stroke-dasharray:none;stroke-opacity:0.501992"
       d="M 89.324288,146.60496 115.18345,120.83853"
       id="path10" /><path
       style="fill:none;stroke:#000000;stroke-width:1.3;stroke-linecap:round;stroke-linejoin:round;stroke-dasharray:none;stroke-opacity:0.501992"
       d="M 116.78905,121.63901 99.573658,162.26958"
       id="path11"
       sodipodi:nodetypes="cc" /><path
       style="fill:none;stroke:#000000;stroke-width:1.3;stroke-linecap:round;stroke-linejoin:round;stroke-dasharray:none;stroke-opacity:0.501992"
       d="M 79.426548,121.94381 153.1969,148.82922"
       id="path12"
       sodipodi:nodetypes="cc" /><path
       style="fill:none;stroke:#000000;stroke-width:1.3;stroke-linecap:round;stroke-linejoin:round;stroke-dasharray:none;stroke-opacity:0.501992"
       d="m 160.97384,152.67025 64.84914,31.0448"
       id="path13"
       sodipodi:nodetypes="cc" /><path
       style="fill:none;stroke:#000000;stroke-width:1.3;stroke-linecap:round;stroke-linejoin:round;stroke-dasharray:none;stroke-opacity:0.501992"
       d="M 101.81375,168.20646 225.8966,184.94832"
       id="path14"
       sodipodi:nodetypes="cc" /><path
       style="fill:none;stroke:#000000;stroke-width:1.3;stroke-linecap:round;stroke-linejoin:round;stroke-dasharray:none;stroke-opacity:0.501992"
       d="m 152.23344,112.93569 4.47772,33.28264"
       id="path15"
       sodipodi:nodetypes="cc" /><path
       style="fill:none;stroke:#000000;stroke-width:1.3;stroke-linecap:round;stroke-linejoin:round;stroke-dasharray:none;stroke-opacity:0.501992"
       d="m 147.85959,110.56839 -26.28975,6.11618"
       id="path16"
       sodipodi:nodetypes="cc" /><path
       style="fill:none;stroke:#000000;stroke-width:1.3;stroke-linecap:round;stroke-linejoin:round;stroke-dasharray:none;stroke-opacity:0.501992"
       d="m 150.17196,113.18591 -48.77482,49.12756"
       id="path17" /><path
       style="fill:none;stroke:#000000;stroke-width:1.3;stroke-linecap:round;stroke-linejoin:round;stroke-dasharray:none;stroke-opacity:0.501992"
       d="m 94.301288,167.4064 c -63.93968,6.35792 -161.828943,18.62598 -214.231308,16.34918 -52.4024,-2.27681 -51.3241,-18.41074 -23.68027,-31.04013"
       id="path23"
       sodipodi:nodetypes="czc" /><path
       style="fill:none;stroke:#000000;stroke-width:1.3;stroke-linecap:round;stroke-linejoin:round;stroke-dasharray:none;stroke-opacity:0.501992"
       d="m 234.10092,184.71229 c 19.87887,-4.21598 49.61764,-9.81569 74.22743,-17.5815 28.69674,-9.05548 43.92434,-14.83592 9.40284,-21.65839"
       id="path24"
       sodipodi:nodetypes="csc" /></g><g
     inkscape:groupmode="layer"
     id="layer3"
     inkscape:label="Layer 4"
     style="display:inline"
     transform="translate(179.96762,32.93634)"><circle
       style="display:inline;fill:#000000;fill-opacity:1;stroke:#000000;stroke-width:2;stroke-linejoin:round;stroke-dasharray:none"
       id="path3"
       cx="75.207733"
       cy="120.08696"
       r="4.1167135" /><circle
       style="display:inline;fill:#000000;fill-opacity:1;stroke:#000000;stroke-width:2;stroke-linejoin:round;stroke-dasharray:none"
       id="path3-5"
       cx="117.5032"
       cy="118.047"
       r="4.1167135" /><circle
       style="display:inline;fill:#000000;fill-opacity:1;stroke:#000000;stroke-width:2;stroke-linejoin:round;stroke-dasharray:none"
       id="path3-5-9"
       cx="-60.969337"
       cy="81.303108"
       r="2.1481774" /><circle
       style="display:inline;fill:#000000;fill-opacity:1;stroke:#000000;stroke-width:2;stroke-linejoin:round;stroke-dasharray:none"
       id="path3-5-9-4"
       cx="206.26311"
       cy="68.697311"
       r="2.1481774" /><circle
       style="display:inline;fill:#000000;fill-opacity:1;stroke:#000000;stroke-width:2;stroke-linejoin:round;stroke-dasharray:none"
       id="path3-5-9-4-6"
       cx="234.69926"
       cy="77.62635"
       r="2.1481774" /><circle
       style="display:inline;fill:#000000;fill-opacity:1;stroke:#000000;stroke-width:2;stroke-linejoin:round;stroke-dasharray:none"
       id="path3-5-9-4-6-3"
       cx="256.83014"
       cy="114.87112"
       r="2.1481774" /><circle
       style="display:inline;fill:#000000;fill-opacity:1;stroke:#000000;stroke-width:2;stroke-linejoin:round;stroke-dasharray:none"
       id="path3-5-9-2"
       cx="-78.949898"
       cy="79.925339"
       r="2.1481774" /><circle
       style="display:inline;fill:#000000;fill-opacity:1;stroke:#000000;stroke-width:2;stroke-linejoin:round;stroke-dasharray:none"
       id="path3-5-9-2-2"
       cx="-96.49929"
       cy="88.382317"
       r="2.1481774" /><circle
       style="display:inline;fill:#000000;fill-opacity:1;stroke:#000000;stroke-width:2;stroke-linejoin:round;stroke-dasharray:none"
       id="path3-5-9-2-7"
       cx="-111.50381"
       cy="108.6562"
       r="2.1481774" /><circle
       style="display:inline;fill:#000000;fill-opacity:1;stroke:#000000;stroke-width:2;stroke-linejoin:round;stroke-dasharray:none"
       id="path3-5-2"
       cx="157.1042"
       cy="150.43666"
       r="4.1167135" /><circle
       style="display:inline;fill:#000000;fill-opacity:1;stroke:#000000;stroke-width:2;stroke-linejoin:round;stroke-dasharray:none"
       id="path3-5-2-0"
       cx="151.55794"
       cy="109.79245"
       r="4.1167135" /><circle
       style="display:inline;fill:#000000;fill-opacity:1;stroke:#000000;stroke-width:2;stroke-linejoin:round;stroke-dasharray:none"
       id="path3-5-2-9"
       cx="229.90355"
       cy="185.82565"
       r="4.1167135" /><circle
       style="display:inline;fill:#000000;fill-opacity:1;stroke:#000000;stroke-width:2;stroke-linejoin:round;stroke-dasharray:none"
       id="path3-5-2-7"
       cx="98.348358"
       cy="165.89412"
       r="4.1167135" /><circle
       style="display:inline;fill:#000000;fill-opacity:1;stroke:#000000;stroke-width:2;stroke-linejoin:round;stroke-dasharray:none"
       id="path3-5-2-7-6"
       cx="84.84433"
       cy="148.02069"
       r="4.1167135" /></g></svg>
