<svg width="650mm" height="240mm" viewBox="0 0 650 240" xmlns="http://www.w3.org/2000/svg"><defs><filter id="a" x="-.025" y="-.025" width="1.05" height="1.05" color-interpolation-filters="sRGB"><feGaussianBlur stdDeviation="4.952"/></filter></defs><circle cx="88.8" cy="239" r="254" fill-opacity=".4" stroke="#000" stroke-linejoin="round" stroke-opacity=".301" stroke-width="1.09" transform="matrix(.956 0 0 .956 183 42.1)"/><circle transform="matrix(1.05 0 0 1.05 42 36.12)" cx="215" cy="223" r="242" fill-opacity=".403" filter="url(#a)" style="mix-blend-mode:normal"/><g transform="matrix(9.18 -.639 .639 9.18 267 271)" fill="none" opacity=".526" stroke="#000" stroke-width=".054"><path d="M-.634 26.492A1.74 26.5 1.37 0 1-1.818 13.26a1.74 26.5 1.37 0 1 .634-26.492 1.74 26.5 1.37 0 1 1.815-13.16"/><path d="M-3.101 26.318a8.1 26.5 6.72 0 1-5.417-13.93 8.1 26.5 6.72 0 1 3.1-26.318A8.1 26.5 6.72 0 1 3.09-26.219"/><path d="M-5.961 25.82a13.9 26.5 13 0 1-8.723-15.56 13.9 26.5 13 0 1 5.96-25.821A13.9 26.5 13 0 1 5.94-25.723"/><path d="M-9.712 24.656A18.8 26.5 21.5 0 1-20.04 6.401a18.8 26.5 21.5 0 1 9.712-24.656 18.8 26.5 21.5 0 1 20.004-6.308"/><path d="M-15.2 21.708a22.3 26.5 35 0 1-8.32-21.94A22.3 26.5 35 0 1-8.32-21.94a22.3 26.5 35 0 1 23.462.314"/><path d="M-23.042 13.09a24.4 26.5 60.4 0 1 1.056-24.867 24.4 26.5 60.4 0 1 23.041-13.09 24.4 26.5 60.4 0 1 21.9 11.827"/><path d="M-25.959-5.329A26.5 24.8 11.6 0 1 4.987-24.293 26.5 24.8 11.6 0 1 25.959 5.329"/><path d="M-18.673-18.804a26.5 23.5 45.2 0 1 35.348 2.245 26.5 23.5 45.2 0 1 1.998 35.363"/><path d="M-11.99-23.633A26.5 20.6 63.1 0 1 18.371-9.32a26.5 20.6 63.1 0 1-6.381 32.953"/><path d="M-7.57-25.396a26.5 16.3 73.4 0 1 23.19 20.74 26.5 16.3 73.4 0 1-8.05 30.052"/><path d="M-4.36-26.139A10.9 26.5-9.47 0 1 10.75-1.793a10.9 26.5-9.47 0 1-6.39 27.932"/><path d="M-1.756-26.442A4.75 26.5-3.8 0 1 4.74-.315a4.75 26.5-3.8 0 1-2.984 26.757"/><path d="M8.41 25.1a12 4.11 0 0 1-16.8 0"/><path d="M13.5 22.8A15.6 5.32 0 0 1 0 25.45a15.6 5.32 0 0 1-13.5-2.65"/><path d="M17.4 19.9A18.7 6.4 0 0 1 0 23.97a18.7 6.4 0 0 1-17.4-4.07"/><path d="M20.6 16.6A21.4 7.32 0 0 1 0 21.99a21.4 7.32 0 0 1-20.6-5.39"/><path d="M23.2 12.8A23.6 8.06 0 0 1 0 19.37a23.6 8.06 0 0 1-23.2-6.57"/><path d="M25 8.7a25.2 8.61 0 0 1-25 7.59A25.2 8.61 0 0 1-25 8.7"/><path d="M26.1 4.4A26.1 8.94 0 0 1 0 12.82 26.1 8.94 0 0 1-26.1 4.4"/><path d="M26.5 0a26.5 9.05 0 0 1-13.2 7.84 26.5 9.05 0 0 1-26.5 0A26.5 9.05 0 0 1-26.4 0"/><path d="M26.1-4.4a26.1 8.94 0 0 1-12.6 8.17 26.1 8.94 0 0 1-27 0A26.1 8.94 0 0 1-26.1-4.4"/><path d="M25-8.7A25.2 8.61 0 0 1 13.4-.4a25.2 8.61 0 0 1-26.9 0 25.2 8.61 0 0 1-11.6-8.3"/><path d="M23.2-12.8a23.6 8.06 0 0 1-10.1 8.22 23.6 8.06 0 0 1-26.1 0 23.6 8.06 0 0 1-10.1-8.22"/><path d="M20.6-16.6a21.4 7.32 0 0 1-8.33 7.93 21.4 7.32 0 0 1-24.6 0 21.4 7.32 0 0 1-8.33-7.93"/><path d="M17.4-19.9a18.7 6.4 0 0 1-6.14 7.43 18.7 6.4 0 0 1-22.6 0 18.7 6.4 0 0 1-6.14-7.43"/><path d="M13.5-22.8a15.6 5.32 0 0 1-3.46 6.74 15.6 5.32 0 0 1-20 0 15.6 5.32 0 0 1-3.46-6.74"/><path d="M8.41-25.1a12 4.11 0 0 1 2.71 4.49 12 4.11 0 0 1-11.1 2.56 12 4.11 0 0 1-11.1-2.56 12 4.11 0 0 1 2.71-4.49"/><ellipse cy="-23.6" rx="8.18" ry="2.8"/><ellipse cy="-24.6" rx="4.14" ry="1.42"/><circle r="26.5"/></g><g stroke="#000" stroke-linejoin="round"><g fill="none" stroke-linecap="round" stroke-opacity=".502" stroke-width="1.3"><path d="M274.6 196.9s-53.7-40.9-138-59c-30.7-6.65-49.3-4.07-66 3.34"/><path d="M251.2 152.9s-24.3-4.82-108-23c-30.7-6.65-55.2 3.35-72 10.8"/><path d="M294 148.9S222 123 161 119c-31.3-2.05-67.1 5.82-90.7 20.5"/><path d="M261.1 177.9s-46-22.6-103-45.3c-17-6.84-37.8-20.6-72.8-12.4"/><path d="M252.2 149.9s-22.3-12.9-78.9-35.6c-17-6.84-118-31-109 11.8"/><path d="M408 214.9c-18.7-29.9-101-126-159-154-78-37.4-140-41.5-130 51.1"/><path d="M295 146.9c-32.1-34-83.6-63-114-76.5-88.7-39.7-85.1 2.94-80.2 39.8"/><path d="M262.9 177.9c-12-12.2-37.1-40.2-58.5-57.7-71.9-58.7-122-73.4-86.5-7.49M300 146.9c24.3-44.4 37.4-60.8 67.7-86.7 23.4-19.9 29 3.9 19.4 38.8"/><path d="M257.3 148.9c22.6-45.9 48.7-70.3 78.9-96.1 23.4-19.9 56-38 58.6 7.24M335 139.9c20.9-24 39.7-42.4 68.2-60.2 36.2-22.7 34.2-5.53 13.5 29.3M281 195.9c61.7-46.6 115-71.1 155-84.7 16.5-5.69 62.2-25.9 2.89 35"/><path d="M266.7 177.9c21.2-47.1 48.3-73.6 76.2-102 48.2-49.1 70.8-40.6 44.8 24M276.1 195.9l-8.43-11M256.2 157.9l8.16 19M260.1 151.9l33.2-.948M301 152.9l33.7 27.3M333 184.9l-50.5 12.7M269.3 179.9l25.9-25.8M297 154.9l-17.2 40.6M259.4 154.9l73.8 26.9M341 185.9l64.8 31M282 200.9l124 16.7M332 145.9l4.48 33.3M328 143.9l-26.3 6.12M330 145.9 281.2 195M274.3 199.9c-63.9 6.36-162 18.6-214 16.3-52.4-2.28-51.3-18.4-23.7-31M414 217.9c19.9-4.22 49.6-9.82 74.2-17.6 28.7-9.06 43.9-14.8 9.4-21.7"/></g><g stroke-width="2" transform="translate(180 32.9)"><circle cx="75.2" cy="120" r="4.12"/><circle cx="118" cy="118" r="4.12"/><circle cx="-61" cy="81.3" r="2.15"/><circle cx="206" cy="68.7" r="2.15"/><circle cx="235" cy="77.6" r="2.15"/><circle cx="257" cy="115" r="2.15"/><circle cx="-78.9" cy="79.9" r="2.15"/><circle cx="-96.5" cy="88.4" r="2.15"/><circle cx="-112" cy="109" r="2.15"/><circle cx="157" cy="150" r="4.12"/><circle cx="152" cy="110" r="4.12"/><circle cx="230" cy="186" r="4.12"/><circle cx="98.3" cy="166" r="4.12"/><circle cx="84.8" cy="148" r="4.12"/></g></g></svg>