<?xml version="1.0" encoding="UTF-8" standalone="no"?>
<svg
   width="400mm"
   height="300mm"
   version="1.1"
   viewBox="0 0 400 300"
   id="svg105"
   sodipodi:docname="eq.svg"
   inkscape:version="1.3.2 (1:1.3.2+202311252150+091e20ef0f)"
   xmlns:inkscape="http://www.inkscape.org/namespaces/inkscape"
   xmlns:sodipodi="http://sodipodi.sourceforge.net/DTD/sodipodi-0.dtd"
   xmlns="http://www.w3.org/2000/svg"
   xmlns:svg="http://www.w3.org/2000/svg">
  <defs
     id="defs105" />
  <sodipodi:namedview
     id="namedview105"
     pagecolor="#ffffff"
     bordercolor="#666666"
     borderopacity="1.0"
     inkscape:showpageshadow="2"
     inkscape:pageopacity="0.0"
     inkscape:pagecheckerboard="0"
     inkscape:deskcolor="#d1d1d1"
     inkscape:document-units="mm"
     inkscape:zoom="0.64505417"
     inkscape:cx="757.30074"
     inkscape:cy="946.43214"
     inkscape:window-width="2560"
     inkscape:window-height="1412"
     inkscape:window-x="0"
     inkscape:window-y="0"
     inkscape:window-maximized="1"
     inkscape:current-layer="svg105" />
  <path
     d="m 70.996767,266.16026 c 0,-0.54085 -0.375664,-0.95647 -0.956472,-0.95647 -0.748665,0 -1.457352,0.7087 -1.457352,1.41473 0,0.50088 0.375655,0.95647 0.999096,0.95647 0.62344,0 1.414728,-0.62344 1.414728,-1.41473 z m -1.998208,9.99103 c 0.290408,-0.74867 0.290408,-0.83126 0.58348,-1.53996 0.208076,-0.54084 0.333031,-0.91651 0.333031,-1.41472 0,-1.16696 -0.831248,-2.1634 -2.163384,-2.1634 -2.499085,0 -3.490194,3.8632 -3.490194,4.07634 0,0.29041 0.249909,0.29041 0.290405,0.29041 0.290406,0 0.290406,-0.0831 0.415626,-0.50089 0.748661,-2.49908 1.790391,-3.27705 2.717562,-3.27705 0.208077,0 0.666064,0 0.666064,0.83125 0,0.58348 -0.208077,1.12432 -0.290409,1.41473 -0.208077,0.66607 -1.414725,3.75662 -1.833016,4.90227 -0.290405,0.66606 -0.623439,1.53994 -0.623439,2.12342 0,1.24954 0.916509,2.16338 2.163392,2.16338 2.499088,0 3.490196,-3.83654 3.490196,-4.07633 0,-0.29041 -0.24991,-0.29041 -0.333031,-0.29041 -0.24992,0 -0.24992,0.0831 -0.375664,0.50088 -0.500879,1.66518 -1.374768,3.27706 -2.717562,3.27706 -0.458256,0 -0.666068,-0.2499 -0.666068,-0.87388 0,-0.66607 0.166516,-1.04173 0.791292,-2.66427 z"
     id="path1"
     style="stroke-width:2.66427" />
  <path
     d="m 79.575716,268.15847 h 5.115403 c 0.458256,0 0.748665,0 0.748665,-0.33304 0,-0.33303 -0.290409,-0.33303 -0.791287,-0.33303 h -4.902262 c 0.166511,-0.66606 0.166511,-0.7087 0.333031,-1.37477 0.124956,-0.50088 0.375664,-1.41473 0.375664,-1.45735 0,-0.24991 -0.16652,-0.33303 -0.375664,-0.33303 -0.500878,0 -2.62164,0.20807 -3.250414,0.2904 -0.208076,0 -0.500879,0.0416 -0.500879,0.54085 0,0.29041 0.249911,0.29041 0.623441,0.29041 1.289504,0 1.332136,0.16651 1.332136,0.45825 0,0.16651 -0.249911,1.04173 -0.375664,1.58258 h -1.49732 c -0.500888,0 -0.791288,0 -0.791288,0.33303 0,0.33303 0.208076,0.33303 0.708695,0.33303 h 1.414729 l -3.383626,13.5345 c -0.124955,0.41563 -0.124955,0.45826 -0.124955,0.62344 0,0.58348 0.458256,0.74867 0.791297,0.74867 0.500888,0 0.87388,-0.37567 0.956472,-0.7087 0.04159,-0.12495 0.333032,-1.33213 0.500888,-1.99821 l 0.623441,-2.37386 c 0.08309,-0.37566 0.333031,-1.41473 0.415624,-1.79039 0.124946,-0.41563 0.333032,-1.24955 0.333032,-1.33214 0.24991,-0.45825 1.665167,-3.25041 4.316119,-3.25041 1.166951,0 1.414729,0.95647 1.414729,1.83302 0,1.66517 -1.206912,4.87561 -1.7078,6.12782 -0.124955,0.41563 -0.2904,0.7913 -0.2904,1.28951 0,1.37476 0.999095,2.20602 2.206016,2.20602 2.539048,0 3.463555,-3.91648 3.463555,-4.07634 0,-0.2904 -0.208085,-0.2904 -0.290408,-0.2904 -0.290418,0 -0.290418,0.0831 -0.415625,0.50088 -0.748664,2.71756 -1.955576,3.27705 -2.664272,3.27705 -0.500887,0 -0.666081,-0.33303 -0.666081,-0.87388 0,-0.66607 0.290418,-1.41472 0.458256,-1.87298 0.415624,-1.16695 1.622545,-4.31612 1.622545,-5.83476 0,-1.95557 -1.206921,-2.87741 -3.037274,-2.87741 -0.831248,0 -2.413832,0.16652 -3.943118,1.99821 z"
     id="path2"
     style="stroke-width:2.66427" />
  <path
     d="m 102.78151,265.81391 c -0.24991,-1.0817 -1.08169,-2.16339 -2.824117,-2.16339 -2.621635,0 -4.742396,1.91561 -5.40846,3.6234 -0.124955,0.29041 -0.375664,1.04174 -0.375664,1.7904 0,1.28951 0.999105,3.41027 3.863193,3.41027 4.822318,0 6.793878,-5.99462 6.793878,-8.6056 0,-3.19713 -2.0808,-5.00883 -4.58255,-5.00883 -3.037252,0 -3.863171,2.41383 -3.863171,2.95734 0,0.16651 0.124946,0.66607 0.748659,0.66607 0.666067,0 1.041714,-0.54085 1.041714,-0.99911 0,-0.50088 -0.375647,-0.66606 -0.708687,-0.70869 0.916507,-1.41473 2.456448,-1.41473 2.744185,-1.41473 1.41473,0 3.03727,0.87388 3.03727,3.54348 0,0.79129 -0.0831,1.45736 -0.41563,2.90406 z m -4.715748,6.07454 c -2.080785,0 -2.331233,-1.58258 -2.331233,-2.16339 0,-0.7087 0.500888,-2.53905 0.708704,-2.98399 0.333032,-0.87388 1.457349,-2.58168 3.570097,-2.58168 1.79039,0 2.37387,1.41473 2.37387,2.53906 0,1.24954 -1.20692,5.19532 -4.316108,5.19532 z"
     id="path3"
     style="stroke-width:2.66427" />
  <path
     style="color:#000000;fill:#000000;stroke-width:0.896379;stroke-miterlimit:10;-inkscape-stroke:none"
     d="m 90.370739,275.56884 v 1.06095 h 20.487151 v -1.06095 z"
     id="path4" />
  <path
     d="m 100.11724,285.52952 c -0.249907,-1.0817 -1.081694,-2.16339 -2.824102,-2.16339 -2.621652,0 -4.742413,1.91561 -5.408477,3.6234 -0.124955,0.29041 -0.375664,1.04174 -0.375664,1.7904 0,1.28951 0.999105,3.41027 3.863198,3.41027 4.822315,0 6.793875,-5.99462 6.793875,-8.6056 0,-3.19713 -2.0808,-5.00883 -4.582535,-5.00883 -3.037264,0 -3.863188,2.41383 -3.863188,2.95734 0,0.16651 0.124946,0.66607 0.748656,0.66607 0.666072,0 1.041727,-0.54085 1.041727,-0.99911 0,-0.50088 -0.375655,-0.66606 -0.708695,-0.70869 0.916511,-1.41473 2.456463,-1.41473 2.7442,-1.41473 1.414721,0 3.037255,0.87388 3.037255,3.54348 0,0.79129 -0.0831,1.45735 -0.41563,2.90406 z m -4.715743,6.07454 c -2.080792,0 -2.33124,-1.58258 -2.33124,-2.1634 0,-0.70869 0.500888,-2.53904 0.708704,-2.98398 0.333032,-0.87388 1.457351,-2.58168 3.570117,-2.58168 1.790378,0 2.373855,1.41473 2.373855,2.53906 0,1.24954 -1.206914,5.19532 -4.316102,5.19532 z"
     id="path5"
     style="stroke-width:2.66427" />
  <path
     d="m 108.26992,284.49045 h 1.87298 c 0.37566,0 0.58347,0 0.58347,-0.41563 0,-0.24991 -0.20807,-0.24991 -0.54085,-0.24991 h -1.74776 l 0.66607,-2.74419 c 0.0416,-0.0831 0.0831,-0.20809 0.0831,-0.24991 0,-0.37567 -0.29041,-0.62344 -0.66607,-0.62344 -0.45825,0 -0.7087,0.33303 -0.87388,0.79128 -0.12496,0.50089 0.12495,-0.41562 -0.70869,2.82414 h -1.87298 c -0.33303,0 -0.58347,0 -0.58347,0.41562 0,0.24991 0.20807,0.24991 0.54085,0.24991 h 1.74776 l -1.0817,4.3694 c -0.12496,0.45826 -0.2904,1.12433 -0.2904,1.37477 0,1.0817 0.95647,1.74776 1.9982,1.74776 2.0808,0 3.25041,-2.58168 3.25041,-2.82412 0,-0.24246 -0.24991,-0.24991 -0.29041,-0.24991 -0.24991,0 -0.24991,0.0416 -0.41562,0.37566 -0.50089,1.16695 -1.45737,2.20602 -2.45647,2.20602 -0.41563,0 -0.66607,-0.24991 -0.66607,-0.91652 0,-0.16652 0.0831,-0.58347 0.12496,-0.74865 z"
     id="path6"
     style="stroke-width:2.66427" />
  <path
     d="m 125.6676,266.71976 c 0,-0.91651 0,-1.28951 2.53905,-1.28951 h 0.87389 V 264.599 c -0.95648,0.0831 -3.41026,0.0831 -4.50262,0.0831 -1.09236,0 -3.54348,0 -4.50262,-0.0831 v 0.83125 h 0.87387 c 2.4991,0 2.4991,0.33303 2.4991,1.28951 v 11.77608 c -3.46356,-0.9165 -3.57013,-5.03547 -3.57013,-6.7406 -0.0416,-3.19714 -1.20691,-3.70335 -2.37386,-3.70335 h -0.99911 c -0.37566,0 -0.66606,0 -0.66606,0.29041 0,0.12496 0.0831,0.24991 0.24991,0.29041 0.87388,0.0831 1.53994,0.45826 1.58257,3.57013 0,0.62343 0.0831,2.71755 1.33214,4.50262 1.04173,1.45735 2.66428,2.20601 4.44933,2.45645 v 1.49732 c 0,0.87388 0,1.24955 -2.49909,1.24955 h -0.87388 v 0.83124 c 0.95647,-0.0831 3.38362,-0.0831 4.50263,-0.0831 1.08169,0 3.54347,0 4.50262,0.0831 v -0.83124 h -0.87389 c -2.53905,0 -2.53905,-0.33304 -2.53905,-1.24955 v -1.49732 c 1.91562,-0.24991 3.54348,-1.04173 4.58254,-2.41383 1.37477,-1.87299 1.41473,-3.99641 1.41473,-5.16869 0,-0.41563 0.0416,-2.79749 1.45737,-2.95734 0.1665,-0.0416 0.33303,-0.0831 0.33303,-0.29041 0,-0.2904 -0.20808,-0.2904 -0.62345,-0.2904 h -0.9991 c -1.04172,0 -2.33121,0.16651 -2.37386,4.04969 -0.0416,2.90405 -0.9165,5.70155 -3.78325,6.4209 z"
     id="path7"
     style="stroke-width:2.66427" />
  <path
     d="m 144.45072,289.12629 c 0,-0.0831 0,-0.12496 -0.45825,-0.58347 -3.27706,-3.33035 -4.15627,-8.36582 -4.15627,-12.44216 0,-4.60919 0.9991,-9.24502 4.28948,-12.52208 0.33303,-0.33303 0.33303,-0.37566 0.33303,-0.45825 0,-0.20808 -0.0831,-0.2904 -0.2499,-0.2904 -0.29041,0 -2.66428,1.83301 -4.23619,5.19532 -1.33214,2.90406 -1.66517,5.8614 -1.66517,8.07275 0,2.0808 0.29041,5.27525 1.74776,8.31253 1.62254,3.25041 3.86319,5.00883 4.15627,5.00883 0.16651,0 0.2499,-0.0831 0.2499,-0.29041 z"
     id="path8"
     style="stroke-width:2.66427" />
  <path
     d="m 149.05991,273.80673 v -2.98399 l -4.42269,0.20808 v 1.24954 c 1.62254,0 1.83302,0 1.83302,1.04173 v 8.20596 h -1.83302 v 1.24954 c 0.9165,-0.0416 2.12343,-0.0831 3.33034,-0.0831 0.9991,0 2.71756,0 3.67669,0.0831 v -1.24954 h -2.2886 v -4.66247 c 0,-1.83303 0.62344,-5.08877 3.27705,-5.08877 0,0.0416 -0.50089,0.45826 -0.50089,1.20692 0,1.08169 0.87388,1.62254 1.62255,1.62254 0.79128,0 1.62254,-0.54085 1.62254,-1.62254 0,-1.41472 -1.41473,-2.16339 -2.82412,-2.16339 -1.83302,0 -2.90405,1.33214 -3.49021,2.98398 z"
     id="path9"
     style="stroke-width:2.66427" />
  <path
     d="m 162.38127,282.71711 c 0,-1.74776 -0.66607,-2.79748 -1.7078,-2.79748 -0.87388,0 -1.41473,0.66606 -1.41473,1.41473 0,0.70869 0.54085,1.41473 1.41473,1.41473 0.29041,0 0.66607,-0.12496 0.91651,-0.33304 0.0831,-0.0831 0.12496,-0.0831 0.12496,-0.0831 0.0416,0 0.0416,0 0.0416,0.37566 0,1.99821 -0.9165,3.57013 -1.79039,4.44934 -0.2904,0.2904 -0.2904,0.33303 -0.2904,0.41563 0,0.20807 0.12495,0.2904 0.24991,0.2904 0.2904,0 2.45646,-2.04083 2.45646,-5.16869 z"
     id="path10"
     style="stroke-width:2.66427" />
  <path
     d="m 175.75591,272.15488 h 2.49909 c 0.54085,0 0.83126,0 0.83126,-0.54085 0,-0.29041 -0.29041,-0.29041 -0.74867,-0.29041 h -2.33123 c 0.95647,-3.78327 1.08169,-4.28948 1.08169,-4.44933 0,-0.45825 -0.33303,-0.7087 -0.79129,-0.7087 -0.0831,0 -0.83124,0 -1.04173,0.95648 l -1.04173,4.20955 h -2.49909 c -0.54084,0 -0.79128,0 -0.79128,0.50088 0,0.33303 0.20808,0.33303 0.74866,0.33303 h 2.33124 c -1.91562,7.53989 -2.04084,7.99281 -2.04084,8.44575 0,1.45735 0.9991,2.45645 2.45646,2.45645 2.71755,0 4.20955,-3.86319 4.20955,-4.07634 0,-0.2904 -0.20808,-0.2904 -0.29041,-0.2904 -0.24991,0 -0.2904,0.0831 -0.41562,0.37567 -1.12432,2.79748 -2.53905,3.41026 -3.46356,3.41026 -0.54085,0 -0.83125,-0.33303 -0.83125,-1.20691 0,-0.66607 0.0831,-0.83126 0.16652,-1.28951 z"
     id="path11"
     style="stroke-width:2.66427" />
  <path
     d="m 185.96008,276.098 c 0,-2.04083 -0.29041,-5.24862 -1.74776,-8.28589 -1.58259,-3.25041 -3.8632,-5.00883 -4.12963,-5.00883 -0.16651,0 -0.2904,0.12495 -0.2904,0.29041 0,0.0831 0,0.12495 0.50088,0.62344 2.62165,2.62164 4.12962,6.82053 4.12962,12.36221 0,4.58255 -0.95647,9.24503 -4.23619,12.57537 -0.37567,0.33303 -0.37567,0.37566 -0.37567,0.45826 0,0.16652 0.12496,0.29041 0.29041,0.29041 0.24991,0 2.66428,-1.83303 4.20955,-5.19534 1.37477,-2.90405 1.66517,-5.86139 1.66517,-8.12603 z"
     id="path12"
     style="stroke-width:2.66427" />
  <path
     d="m 215.1605,274.04651 c 0.41562,0 0.91652,0 0.91652,-0.50089 0,-0.54084 -0.50089,-0.54084 -0.8739,-0.54084 h -15.9057 c -0.37566,0 -0.87388,0 -0.87388,0.54084 0,0.50089 0.50089,0.50089 0.87388,0.50089 z m 0.0416,5.16868 c 0.37567,0 0.87388,0 0.87388,-0.54084 0,-0.50089 -0.50089,-0.50089 -0.91651,-0.50089 h -15.85242 c -0.37566,0 -0.87388,0 -0.87388,0.50089 0,0.54084 0.50089,0.54084 0.87388,0.54084 z"
     id="path13"
     style="stroke-width:2.66427" />
  <path
     d="m 238.23309,257.3948 -3.57012,3.62341 0.45825,0.45826 3.1172,-2.71756 3.03728,2.71756 0.45826,-0.45826 z"
     id="path14"
     style="stroke-width:2.66427" />
  <path
     d="m 243.85471,266.63983 c 0.24991,-0.95647 0.2904,-1.20692 2.20602,-1.20692 0.70869,0 0.91651,0 0.91651,-0.54084 0,-0.2904 -0.29041,-0.2904 -0.37566,-0.2904 -0.74867,0 -2.66428,0.0831 -3.41026,0.0831 -0.74601,0 -2.62165,-0.0831 -3.41029,-0.0831 -0.20806,0 -0.50088,0 -0.50088,0.54084 0,0.2904 0.24991,0.2904 0.74866,0.2904 0.0416,0 0.54085,0 0.9991,0.0416 0.50089,0.0831 0.7087,0.0831 0.7087,0.45825 0,0.0831 0,0.12496 -0.0831,0.50088 l -1.58259,6.44754 h -8.12603 l 1.58258,-6.2344 c 0.20809,-0.95647 0.29041,-1.20691 2.20602,-1.20691 0.7087,0 0.91651,0 0.91651,-0.54085 0,-0.2904 -0.29039,-0.2904 -0.37566,-0.2904 -0.74865,0 -2.66428,0.0831 -3.41026,0.0831 -0.746,0 -2.62164,-0.0831 -3.41027,-0.0831 -0.20807,0 -0.50089,0 -0.50089,0.54084 0,0.29041 0.24991,0.29041 0.74867,0.29041 0.0416,0 0.54085,0 0.9991,0.0416 0.45826,0.0831 0.7087,0.0831 0.7087,0.45826 0,0.0831 0,0.16651 -0.0831,0.50088 l -3.57011,14.2272 c -0.2499,1.04173 -0.2904,1.24954 -2.41383,1.24954 -0.45825,0 -0.70869,0 -0.70869,0.54085 0,0.29041 0.33303,0.29041 0.37565,0.29041 0.74867,0 2.62165,-0.0831 3.38363,-0.0831 0.54085,0 1.12433,0.0416 1.7078,0.0416 0.58348,0 1.16695,0.0416 1.7078,0.0416 0.20808,0 0.54085,0 0.54085,-0.54085 0,-0.29041 -0.24991,-0.29041 -0.74866,-0.29041 -0.9991,0 -1.7078,0 -1.7078,-0.45825 0,-0.16651 0.0416,-0.2904 0.0416,-0.45826 l 1.83303,-7.27346 h 8.07274 c -1.08169,4.42269 -1.7078,6.95375 -1.83302,7.32675 -0.24991,0.87388 -0.74866,0.87388 -2.41383,0.87388 -0.37566,0 -0.62344,0 -0.62344,0.54085 0,0.2904 0.33304,0.2904 0.37566,0.2904 0.74866,0 2.62165,-0.0831 3.38362,-0.0831 0.54085,0 1.12433,0.0416 1.7078,0.0416 0.58348,0 1.16696,0.0416 1.7078,0.0416 0.20809,0 0.54085,0 0.54085,-0.54084 0,-0.29041 -0.24991,-0.29041 -0.74865,-0.29041 -0.95649,0 -1.7078,0 -1.7078,-0.45825 0,-0.16653 0.0416,-0.29041 0.0831,-0.45826 z"
     id="path15"
     style="stroke-width:2.66427" />
  <path
     d="m 258.88121,266.71976 c 0,-0.91651 0,-1.28951 2.53904,-1.28951 h 0.87388 V 264.599 c -0.95647,0.0831 -3.41026,0.0831 -4.50262,0.0831 -1.09235,0 -3.54348,0 -4.50262,-0.0831 v 0.83125 h 0.87388 c 2.49909,0 2.49909,0.33303 2.49909,1.28951 v 11.77608 c -3.46355,-0.9165 -3.57012,-5.03547 -3.57012,-6.7406 -0.0416,-3.19714 -1.20692,-3.70335 -2.37387,-3.70335 h -0.9991 c -0.37567,0 -0.66607,0 -0.66607,0.29041 0,0.12496 0.0831,0.24991 0.24991,0.29041 0.87389,0.0831 1.53995,0.45826 1.58258,3.57013 0,0.62343 0.0831,2.71755 1.33214,4.50262 1.04172,1.45735 2.66427,2.20601 4.44933,2.45645 v 1.49732 c 0,0.87388 0,1.24955 -2.49909,1.24955 h -0.87388 v 0.83124 c 0.95647,-0.0831 3.38362,-0.0831 4.50262,-0.0831 1.0817,0 3.54349,0 4.50262,0.0831 v -0.83124 h -0.87388 c -2.53905,0 -2.53905,-0.33304 -2.53905,-1.24955 v -1.49732 c 1.91561,-0.24991 3.54348,-1.04173 4.58254,-2.41383 1.37477,-1.87299 1.41473,-3.99641 1.41473,-5.16869 0,-0.41563 0.0416,-2.79749 1.45736,-2.95734 0.16651,-0.0416 0.33303,-0.0831 0.33303,-0.29041 0,-0.2904 -0.20807,-0.2904 -0.62344,-0.2904 h -0.9991 c -1.04173,0 -2.33123,0.16651 -2.37386,4.04969 -0.0416,2.90405 -0.91652,5.70155 -3.78327,6.4209 z"
     id="path16"
     style="stroke-width:2.66427" />
  <path
     d="m 277.66432,289.12629 c 0,-0.0831 0,-0.12496 -0.45825,-0.58347 -3.27706,-3.33035 -4.15627,-8.36582 -4.15627,-12.44216 0,-4.60919 0.9991,-9.24502 4.28948,-12.52208 0.33303,-0.33303 0.33303,-0.37566 0.33303,-0.45825 0,-0.20808 -0.0831,-0.2904 -0.2499,-0.2904 -0.29041,0 -2.66428,1.83301 -4.2362,5.19532 -1.33214,2.90406 -1.66517,5.8614 -1.66517,8.07275 0,2.0808 0.29041,5.27525 1.74776,8.31253 1.62255,3.25041 3.8632,5.00883 4.15627,5.00883 0.16652,0 0.24991,-0.0831 0.24991,-0.29041 z"
     id="path17"
     style="stroke-width:2.66427" />
  <path
     d="m 284.93778,273.80673 v -2.98399 l -4.42268,0.20808 v 1.24954 c 1.62253,0 1.83302,0 1.83302,1.04173 v 8.20596 h -1.83302 v 1.24954 c 0.91651,-0.0416 2.12343,-0.0831 3.33034,-0.0831 0.9991,0 2.71756,0 3.6767,0.0831 v -1.24954 h -2.28861 v -4.66247 c 0,-1.83303 0.62344,-5.08877 3.27705,-5.08877 0,0.0416 -0.50088,0.45826 -0.50088,1.20692 0,1.08169 0.87388,1.62254 1.62255,1.62254 0.79129,0 1.62254,-0.54085 1.62254,-1.62254 0,-1.41472 -1.41472,-2.16339 -2.82413,-2.16339 -1.83301,0 -2.90405,1.33214 -3.4902,2.98398 z"
     id="path18"
     style="stroke-width:2.66427" />
  <path
     d="m 298.25914,282.71711 c 0,-1.74776 -0.66607,-2.79748 -1.7078,-2.79748 -0.87387,0 -1.41471,0.66606 -1.41471,1.41473 0,0.70869 0.54084,1.41473 1.41471,1.41473 0.29042,0 0.66608,-0.12496 0.91653,-0.33304 0.0831,-0.0831 0.12495,-0.0831 0.12495,-0.0831 0.0416,0 0.0416,0 0.0416,0.37566 0,1.99821 -0.9165,3.57013 -1.7904,4.44934 -0.29039,0.2904 -0.29039,0.33303 -0.29039,0.41563 0,0.20807 0.12496,0.2904 0.24991,0.2904 0.29039,0 2.45645,-2.04083 2.45645,-5.16869 z"
     id="path19"
     style="stroke-width:2.66427" />
  <path
     d="m 308.96951,272.15488 h 2.49909 c 0.54085,0 0.83126,0 0.83126,-0.54085 0,-0.29041 -0.29041,-0.29041 -0.74867,-0.29041 h -2.33123 c 0.95647,-3.78327 1.08169,-4.28948 1.08169,-4.44933 0,-0.45825 -0.33303,-0.7087 -0.79129,-0.7087 -0.0831,0 -0.83125,0 -1.04173,0.95648 l -1.04173,4.20955 h -2.49909 c -0.54084,0 -0.79129,0 -0.79129,0.50088 0,0.33303 0.20809,0.33303 0.74867,0.33303 h 2.33124 c -1.91562,7.53989 -2.04084,7.99281 -2.04084,8.44575 0,1.45735 0.9991,2.45645 2.45646,2.45645 2.71756,0 4.20955,-3.86319 4.20955,-4.07634 0,-0.2904 -0.20807,-0.2904 -0.29041,-0.2904 -0.24991,0 -0.2904,0.0831 -0.41562,0.37567 -1.12432,2.79748 -2.53905,3.41026 -3.46356,3.41026 -0.54085,0 -0.83125,-0.33303 -0.83125,-1.20691 0,-0.66607 0.0831,-0.83126 0.16652,-1.28951 z"
     id="path20"
     style="stroke-width:2.66427" />
  <path
     d="m 321.83795,276.098 c 0,-2.04083 -0.29041,-5.24862 -1.74776,-8.28589 -1.58258,-3.25041 -3.86319,-5.00883 -4.12963,-5.00883 -0.16651,0 -0.29039,0.12495 -0.29039,0.29041 0,0.0831 0,0.12495 0.50089,0.62344 2.62165,2.62164 4.12962,6.82053 4.12962,12.36221 0,4.58255 -0.95647,9.24503 -4.23619,12.57537 -0.37566,0.33303 -0.37566,0.37566 -0.37566,0.45826 0,0.16652 0.12496,0.29041 0.29041,0.29041 0.2499,0 2.66428,-1.83303 4.20955,-5.19534 1.37476,-2.90405 1.66517,-5.86139 1.66517,-8.12603 z"
     id="path21"
     style="stroke-width:2.66427" />
  <path
     d="m 79.074912,193.93299 c 0.07287,-0.21907 0.219068,-0.50913 0.219068,-0.65861 0,0 0,-0.50914 -0.583871,-0.50914 -0.438137,0 -0.509136,0.29194 -0.583871,0.58387 -3.064154,6.86633 -4.764385,9.99588 -12.705028,9.99588 h -6.772901 -1.022941 c -0.509135,-0.0729 -0.658607,-0.14574 -0.658607,-0.50914 0,-0.14573 0,-0.21906 0.219069,-1.02294 l 3.213624,-12.75173 h 4.596231 c 3.942296,0 3.942296,1.02294 3.942296,2.19067 0,0.29193 0,0.87815 -0.291936,2.26076 -0.07288,0.21906 -0.145734,0.3648 -0.145734,0.50913 0,0.21907 0.145734,0.50914 0.58387,0.50914 0.364803,0 0.509136,-0.21908 0.728671,-0.94821 l 2.625083,-10.88335 c 0,-0.29194 -0.219068,-0.50913 -0.58387,-0.50913 -0.364802,0 -0.509135,0.29193 -0.583871,0.8034 -1.022941,3.57796 -1.826347,4.67097 -6.118966,4.67097 h -4.381366 l 2.774554,-11.25703 c 0.438137,-1.67688 0.509135,-1.82635 2.555018,-1.82635 h 6.586063 c 5.605159,0 7.099868,1.31255 7.099868,5.18477 0,1.093 0,1.16774 -0.219068,2.48028 0,0.21907 -0.07287,0.58388 -0.07287,0.8034 0,0.21954 0.145734,0.58388 0.583871,0.58388 0.509136,0 0.58387,-0.29193 0.658606,-1.16775 L 81.68411,174.385 c 0.145735,-1.24248 -0.07287,-1.24248 -1.242478,-1.24248 H 56.853257 c -0.878141,0 -1.387277,0 -1.387277,0.94821 0,0.50914 0.438137,0.50914 1.312542,0.50914 1.751612,0 3.064153,0 3.064153,0.8034 0,0.21906 0,0.29194 -0.291935,1.16774 L 53.431774,201.187 c -0.438137,1.82635 -0.509136,2.19068 -4.231895,2.19068 -0.803406,0 -1.312541,0 -1.312541,0.87815 0,0.58387 0.438136,0.58387 1.312541,0.58387 h 24.148896 c 1.093005,0 1.167741,-0.0729 1.45734,-0.80341 z"
     id="path24"
     style="stroke-width:4.67096" />
  <path
     d="m 129.8951,189.54227 c 0.72867,0 1.60682,0 1.60682,-0.87813 0,-0.94821 -0.87815,-0.94821 -1.53208,-0.94821 H 102.0841 c -0.65861,0 -1.53208,0 -1.53208,0.94821 0,0.87813 0.87814,0.87813 1.53208,0.87813 z m 0.0729,9.06169 c 0.65861,0 1.53208,0 1.53208,-0.94821 0,-0.87814 -0.87814,-0.87814 -1.60681,-0.87814 h -27.79236 c -0.65861,0 -1.53208,0 -1.53208,0.87814 0,0.94821 0.87815,0.94821 1.53208,0.94821 z"
     id="path25"
     style="stroke-width:4.67096" />
  <path
     d="m 148.74246,202.04178 c -0.14574,0.72868 -0.43814,1.82635 -0.43814,2.04588 0,0.80341 0.6586,1.24249 1.38727,1.24249 0.58387,0 1.38729,-0.36481 1.75161,-1.31255 0,-0.0729 0.58387,-2.26074 0.87814,-3.42848 l 1.02295,-4.16184 c 0.21906,-1.093 0.50913,-2.11594 0.80341,-3.13888 0.14573,-0.8034 0.50912,-2.19069 0.58387,-2.33549 0.6586,-1.45734 3.13888,-5.69857 7.56696,-5.69857 2.11594,0 2.48029,1.75161 2.48029,3.28368 0,1.16775 -0.29195,2.48029 -0.65861,3.86756 l -1.31255,5.41833 -0.9482,3.50322 c -0.14574,0.9482 -0.58387,2.55502 -0.58387,2.77455 0,0.80341 0.65861,1.24248 1.31254,1.24248 1.45734,0 1.75162,-1.16774 2.11595,-2.62508 0.65861,-2.62509 2.41022,-9.43535 2.77455,-11.25702 0.14574,-0.58388 2.62508,-6.2124 7.75381,-6.2124 1.97114,0 2.48028,1.60682 2.48028,3.28369 0,2.62508 -1.97116,7.94065 -2.91935,10.41625 -0.36481,1.09301 -0.58387,1.60681 -0.58387,2.55502 0,2.19069 1.60681,3.79283 3.79282,3.79283 4.38136,0 6.11896,-6.7729 6.11896,-7.14658 0,-0.50913 -0.43814,-0.50913 -0.58387,-0.50913 -0.43814,0 -0.43814,0.14573 -0.65861,0.87814 -0.72866,2.48027 -2.19068,5.74529 -4.76438,5.74529 -0.8034,0 -1.16773,-0.43814 -1.16773,-1.53209 0,-1.16773 0.43813,-2.26074 0.87813,-3.28368 0.87814,-2.48028 2.84462,-7.56696 2.84462,-10.27612 0,-2.99409 -1.89641,-4.95123 -5.41832,-4.95123 -3.42849,0 -5.83871,2.04588 -7.56696,4.52617 0,-0.58388 -0.14574,-2.19069 -1.45735,-3.28369 -1.16774,-1.02294 -2.62508,-1.24248 -3.79283,-1.24248 -4.23189,0 -6.49264,2.9941 -7.2867,4.0871 -0.21907,-2.69982 -2.19068,-4.0871 -4.30663,-4.0871 -2.11595,0 -2.99409,1.82635 -3.42848,2.62508 -0.80341,1.67688 -1.38729,4.38137 -1.38729,4.52617 0,0.50914 0.43814,0.50914 0.50913,0.50914 0.50914,0 0.50914,-0.0729 0.80341,-1.09301 0.80341,-3.28369 1.75162,-5.55846 3.4285,-5.55846 0.72866,0 1.38727,0.36481 1.38727,2.11596 0,1.02295 -0.14573,1.53207 -0.72867,3.94229 z"
     id="path26"
     style="stroke-width:4.67096" />
  <path
     d="m 205.14436,187.16008 c -0.8034,0 -1.38727,0 -2.04587,0.58387 -0.80342,0.72868 -0.87814,1.53209 -0.87814,1.82636 0,1.16774 0.87814,1.67688 1.7516,1.67688 1.31255,0 2.55503,-1.16775 2.55503,-2.9941 0,-2.26074 -2.19069,-4.01235 -5.46503,-4.01235 -6.2591,0 -12.47149,6.63277 -12.47149,13.21882 0,4.23191 2.69982,7.89394 7.56697,7.89394 6.63278,0 10.50967,-4.95121 10.50967,-5.46503 0,-0.29194 -0.21907,-0.6586 -0.50914,-0.6586 -0.29006,0 -0.36479,0.14573 -0.6586,0.50913 -3.64803,4.59623 -8.78141,4.59623 -9.24851,4.59623 -2.91936,0 -4.2319,-2.26074 -4.2319,-5.09135 0,-1.89642 0.9482,-6.44593 2.55501,-9.24852 1.45736,-2.69982 4.01237,-4.67096 6.58607,-4.67096 1.53208,0 3.35843,0.58387 4.01237,1.89641 z"
     id="path27"
     style="stroke-width:4.67096" />
  <path
     d="m 221.81971,181.60164 h -1.093 c -0.0729,0.72867 -0.43814,2.62508 -0.87813,2.91935 -0.21908,0.21907 -2.69983,0.21907 -3.21363,0.21907 h -5.97884 c 3.42848,-2.99409 4.59623,-3.94229 6.49264,-5.46504 2.41022,-1.8964 4.67096,-3.94228 4.67096,-7.00644 0,-3.94229 -3.42849,-6.35251 -7.56695,-6.35251 -4.01236,0 -6.77291,2.84462 -6.77291,5.8387 0,1.60681 1.38728,1.82635 1.75161,1.82635 0.72867,0 1.67689,-0.58387 1.67689,-1.75161 0,-0.58387 -0.21908,-1.75161 -1.89643,-1.75161 1.02294,-2.26076 3.21363,-2.99409 4.7644,-2.99409 3.28368,0 4.95122,2.55502 4.95122,5.18477 0,2.84462 -2.04589,5.04464 -3.06416,6.21239 l -7.80051,7.80051 c -0.3648,0.29193 -0.3648,0.3648 -0.3648,1.24247 h 13.45238 z"
     id="path28"
     style="stroke-width:4.67096" />
  <path
     d="m 147.91738,150.55064 c -0.23247,1.02391 -0.32445,1.20846 -1.62815,1.20846 -0.32445,0 -0.65185,0 -0.65185,0.55958 0,0.23247 0.1396,0.37206 0.37206,0.37206 0.79175,0 1.6728,-0.0929 2.46455,-0.0929 1.02391,0 2.0002,0.0929 2.97649,0.0929 0.1396,0 0.51196,0 0.51196,-0.60422 0,-0.32445 -0.2792,-0.32445 -0.6965,-0.32445 -1.48825,0 -1.48825,-0.18603 -1.48825,-0.46433 0,-0.37206 1.25608,-5.20887 1.44062,-5.95299 0.37207,0.88401 1.20846,1.90793 2.74433,1.90793 3.45274,0 7.17336,-4.31592 7.17336,-8.69137 0,-2.79196 -1.72041,-4.73264 -3.95874,-4.73264 -1.48825,0 -2.92887,1.06856 -3.89921,2.23238 -0.2792,-1.62814 -1.58053,-2.23238 -2.65206,-2.23238 -1.39599,0 -1.95259,1.16382 -2.18476,1.6728 -0.55958,1.02391 -0.92866,2.79195 -0.92866,2.88422 0,0.32444 0.27919,0.32444 0.32443,0.32444 0.32445,0 0.32445,-0.0464 0.51196,-0.6965 0.51195,-2.09248 1.11617,-3.54203 2.18475,-3.54203 0.51196,0 0.92866,0.23246 0.92866,1.34835 0,0.6965 -0.0929,1.02391 -0.23245,1.53588 z m 5.20886,-12.88823 c 0.18603,-0.79175 1.02391,-1.62815 1.53588,-2.09248 1.06856,-0.88402 1.90793,-1.11619 2.41691,-1.11619 1.16382,0 1.90793,1.02391 1.90793,2.79195 0,1.76805 -0.97628,5.14934 -1.53587,6.28041 -1.02391,2.09248 -2.41691,3.0658 -3.54203,3.0658 -1.95259,0 -2.32464,-2.46454 -2.32464,-2.65206 0,-0.0464 0,-0.0929 0.0929,-0.46434 z"
     id="path32"
     style="stroke-width:2.9765" />
  <path
     d="m 180.11416,130.04257 c 1.44062,-2.32465 2.6967,-2.41692 3.78014,-2.46455 0.37207,-0.0464 0.41969,-0.51195 0.41969,-0.55958 0,-0.23246 -0.18602,-0.37206 -0.41969,-0.37206 -0.74412,0 -1.62814,0.0929 -2.41691,0.0929 -0.9763,0 -2.00021,-0.0929 -2.92888,-0.0929 -0.18602,0 -0.55958,0 -0.55958,0.55958 0,0.32445 0.23247,0.37206 0.46433,0.37206 0.79175,0.0464 1.34836,0.37207 1.34836,0.9763 0,0.46434 -0.41969,1.11618 -0.41969,1.11618 l -9.10808,14.52532 -2.04783,-15.71591 c 0,-0.51197 0.69649,-0.88403 2.04783,-0.88403 0.41968,0 0.74412,0 0.74412,-0.60422 0,-0.23247 -0.23246,-0.32445 -0.37206,-0.32445 -1.20846,0 -2.46454,0.0929 -3.72062,0.0929 h -1.62815 c -0.51196,0 -1.06856,-0.0929 -1.58052,-0.0929 -0.23248,0 -0.55959,0 -0.55959,0.55959 0,0.37207 0.23248,0.37207 0.74414,0.37207 1.62814,0 1.67278,0.27919 1.76803,1.02391 l 2.32465,18.2757 c 0.0929,0.60422 0.23247,0.6965 0.60423,0.6965 0.46432,0 0.60423,-0.1396 0.83639,-0.51196 z"
     id="path33"
     style="stroke-width:2.9765" />
  <path
     d="m 214.8499,137.18616 c 0.46433,0 1.02391,0 1.02391,-0.55958 0,-0.60422 -0.55958,-0.60422 -0.97628,-0.60422 h -17.7697 c -0.41969,0 -0.97629,0 -0.97629,0.60422 0,0.55958 0.55958,0.55958 0.97629,0.55958 z m 0.0464,5.77441 c 0.41968,0 0.97629,0 0.97629,-0.60423 0,-0.55958 -0.55958,-0.55958 -1.02391,-0.55958 h -17.71017 c -0.41968,0 -0.97629,0 -0.97629,0.55958 0,0.60423 0.55958,0.60423 0.97629,0.60423 z"
     id="path34"
     style="stroke-width:2.9765" />
  <path
     d="m 226.86007,145.15127 c -0.0929,0.46434 -0.2792,1.16381 -0.2792,1.30371 0,0.51196 0.41969,0.79175 0.88402,0.79175 0.37207,0 0.88402,-0.23246 1.11619,-0.8364 0,-0.0464 0.37206,-1.44062 0.55958,-2.18475 l 0.65185,-2.65206 c 0.1396,-0.6965 0.32445,-1.34835 0.51196,-2.0002 0.0929,-0.51197 0.32444,-1.39598 0.37206,-1.48825 0.41968,-0.92867 2.00021,-3.63133 4.82193,-3.63133 1.34837,0 1.58053,1.11619 1.58053,2.09248 0,1.81269 -1.44063,5.62558 -1.90794,6.87571 -0.27919,0.6965 -0.32445,1.06856 -0.32445,1.39598 0,1.39597 1.06856,2.41692 2.46455,2.41692 2.79196,0 3.86946,-4.31593 3.86946,-4.55405 0,-0.32444 -0.23248,-0.32444 -0.32445,-0.32444 -0.32445,0 -0.32445,0.0929 -0.46434,0.55958 -0.60423,2.00021 -1.58052,3.6611 -3.03602,3.6611 -0.51197,0 -0.6965,-0.2792 -0.6965,-0.9763 0,-0.74412 0.23247,-1.44062 0.51195,-2.09248 0.55958,-1.58051 1.81269,-4.82192 1.81269,-6.54829 0,-1.95258 -1.25608,-3.15508 -3.39321,-3.15508 -2.69671,0 -4.13733,1.90792 -4.64334,2.60443 -0.1396,-1.67279 -1.34835,-2.60443 -2.74433,-2.60443 -1.34835,0 -1.90792,1.1638 -2.18475,1.67278 -0.51196,1.02392 -0.88402,2.79196 -0.88402,2.88423 0,0.32444 0.27919,0.32444 0.32445,0.32444 0.32443,0 0.32443,-0.0464 0.51195,-0.6965 0.51197,-2.09248 1.11619,-3.54203 2.18476,-3.54203 0.55958,0 0.88402,0.37206 0.88402,1.34835 0,0.65185 -0.0929,0.97629 -0.46434,2.51216 z"
     id="path35"
     style="stroke-width:2.9765" />
  <path
     d="m 253.21696,128.70314 c 0.18603,-0.6965 0.2792,-0.97629 0.8364,-1.06856 0.2792,-0.0464 1.20846,-0.0464 1.81269,-0.0464 2.09247,0 5.38747,0 5.38747,2.92888 0,1.02391 -0.46434,3.06579 -1.62815,4.22662 -0.79176,0.74413 -2.32465,1.72042 -5.03028,1.72042 h -3.30391 z m 4.28616,8.12584 c 3.03603,-0.65185 6.51853,-2.74433 6.51853,-5.71488 0,-2.55681 -2.65206,-4.46474 -6.54829,-4.46474 h -8.42349 c -0.60423,0 -0.88402,0 -0.88402,0.60423 0,0.32443 0.27919,0.32443 0.83639,0.32443 0.0464,0 0.60424,0 1.11619,0.0464 0.55958,0.0929 0.79175,0.0929 0.79175,0.51196 0,0.0929 0,0.18603 -0.0929,0.55958 l -3.98851,15.8945 c -0.2792,1.16382 -0.32444,1.39598 -2.69671,1.39598 -0.51196,0 -0.79175,0 -0.79175,0.60424 0,0.32443 0.37206,0.32443 0.41968,0.32443 0.83641,0 2.92888,-0.0929 3.72063,-0.0929 0.8364,0 2.9765,0.0929 3.80992,0.0929 0.23246,0 0.55958,0 0.55958,-0.60423 0,-0.32444 -0.23247,-0.32444 -0.83641,-0.32444 -1.06856,0 -1.90794,0 -1.90794,-0.51195 0,-0.18603 0.0464,-0.32445 0.0929,-0.51196 l 1.95258,-7.85796 h 3.54203 c 2.69671,0 3.21463,1.6728 3.21463,2.69671 0,0.41969 -0.23247,1.34835 -0.41969,2.04783 -0.18604,0.8364 -0.46434,1.90794 -0.46434,2.51217 0,3.21462 3.5718,3.21462 3.95876,3.21462 2.51215,0 3.57179,-2.9765 3.57179,-3.39322 0,-0.37206 -0.32443,-0.37206 -0.37206,-0.37206 -0.2792,0 -0.32444,0.18603 -0.37206,0.41969 -0.74413,2.18475 -2.04783,2.6967 -2.69672,2.6967 -0.97628,0 -1.20845,-0.65185 -1.20845,-1.81268 0,-0.92867 0.18603,-2.41692 0.32443,-3.39321 0.0464,-0.41968 0.0929,-0.97629 0.0929,-1.39598 0,-2.28 -2.0002,-3.21462 -2.79196,-3.4825 z"
     id="path36"
     style="stroke-width:2.9765" />
  <path
     d="m 278.57674,128.9115 c 0.23246,-0.8364 0.32443,-1.02391 0.69648,-1.11619 0.27921,-0.0464 1.25608,-0.0464 1.86032,-0.0464 3.03603,0 4.31592,0.0929 4.31592,2.41692 0,0.46433 -0.0929,1.62815 -0.23245,2.37227 0,0.1396 -0.0929,0.46433 -0.0929,0.55958 0,0.18603 0.0929,0.41969 0.37205,0.41969 0.32444,0 0.37207,-0.23247 0.46434,-0.69651 l 0.79174,-5.14934 c 0.0464,-0.13959 0.0464,-0.41968 0.0464,-0.51195 0,-0.32445 -0.2792,-0.32445 -0.79175,-0.32445 h -16.46004 c -0.6965,0 -0.74413,0.0464 -0.97629,0.60424 l -1.76804,5.20887 c 0,0.0464 -0.18602,0.46434 -0.18602,0.55958 0,0.13959 0.18602,0.32444 0.37205,0.32444 0.2792,0 0.32443,-0.18604 0.51195,-0.65185 1.58053,-4.61358 2.37227,-5.11958 6.75667,-5.11958 h 1.16379 c 0.8364,0 0.8364,0.0929 0.8364,0.37206 0,0.1396 -0.0929,0.51196 -0.13959,0.60423 l -3.95873,15.86474 c -0.2792,1.06856 -0.37207,1.39598 -3.54204,1.39598 -1.06856,0 -1.25608,0 -1.25608,0.55958 0,0.37206 0.32443,0.37206 0.51195,0.37206 0.79175,0 1.62814,-0.0464 2.41692,-0.0464 0.83639,0 1.72042,-0.0464 2.55681,-0.0464 0.8364,0 1.62814,0.0464 2.46454,0.0464 0.8364,0 1.72042,0.0464 2.55681,0.0464 0.2792,0 0.65186,0 0.65186,-0.60423 0,-0.32444 -0.23247,-0.32444 -1.02392,-0.32444 -0.6965,0 -1.11618,0 -1.86031,-0.0464 -0.88403,-0.0929 -1.1162,-0.18603 -1.1162,-0.65185 0,-0.0464 0,-0.18603 0.1396,-0.60423 z"
     id="path37"
     style="stroke-width:2.9765" />
  <path
     d="m 102.65588,104.13348 c -0.049,0.24531 -0.1475,0.61485 -0.1475,0.68876 0,0.27047 0.22172,0.41828 0.46704,0.41828 0.19657,0 0.46703,-0.12281 0.58969,-0.44187 0.0246,-0.049 0.54095,-2.1858 0.61485,-2.48457 0.12282,-0.51579 0.4183,-1.60397 0.49062,-2.04427 0.0737,-0.19657 0.51579,-0.934073 0.88376,-1.276887 0.12282,-0.09828 0.58969,-0.515789 1.25329,-0.515789 0.41829,0 0.63844,0.196572 0.66361,0.196572 -0.46703,0.07374 -0.81142,0.441871 -0.81142,0.860153 0,0.245324 0.1714,0.540951 0.58969,0.540951 0.41828,0 0.86016,-0.367969 0.86016,-0.934071 0,-0.540941 -0.49062,-1.007983 -1.30204,-1.007983 -1.00797,0 -1.69831,0.761096 -1.99709,1.204543 -0.1475,-0.712348 -0.71234,-1.204543 -1.44985,-1.204543 -0.71236,0 -1.00799,0.614849 -1.15423,0.88375 -0.27047,0.540954 -0.46704,1.475034 -0.46704,1.523774 0,0.1714 0.1475,0.1714 0.17141,0.1714 0.17139,0 0.17139,-0.0245 0.27047,-0.36797 0.27047,-1.105466 0.58969,-1.871292 1.15422,-1.871292 0.24532,0 0.46704,0.122811 0.46704,0.712355 0,0.344379 -0.049,0.515777 -0.24531,1.327207 z"
     id="path41"
     style="stroke-width:1.57252" />
  <path
     d="m 114.36325,97.252142 h -0.36796 c -0.0245,0.245318 -0.1475,0.883761 -0.29564,0.982822 -0.0737,0.07374 -0.9089,0.07374 -1.08189,0.07374 h -2.01281 c 1.15422,-1.007974 1.54735,-1.3272 2.1858,-1.839842 0.81141,-0.638442 1.57251,-1.327201 1.57251,-2.358768 0,-1.327201 -1.15423,-2.138624 -2.54747,-2.138624 -1.3508,0 -2.28015,0.95766 -2.28015,1.965644 0,0.540952 0.46703,0.614851 0.58969,0.614851 0.24531,0 0.56453,-0.196553 0.56453,-0.589688 0,-0.196563 -0.0737,-0.589698 -0.63844,-0.589698 0.34439,-0.761096 1.0819,-1.007974 1.60396,-1.007974 1.10549,0 1.66687,0.860159 1.66687,1.745489 0,0.957659 -0.68876,1.698311 -1.03157,2.091446 l -2.62611,2.626091 c -0.1228,0.09828 -0.1228,0.122822 -0.1228,0.418301 h 4.52884 z"
     id="path42"
     style="stroke-width:1.57252" />
  <path
     d="m 127.82398,94.704675 c 0.0246,-0.04903 0.0737,-0.147503 0.0737,-0.221725 0,-0.09829 -0.0245,-0.12281 -0.36797,-0.12281 h -10.83462 c -0.34438,0 -0.36797,0.02452 -0.36797,0.12281 0,0.07374 0.049,0.17141 0.0737,0.221725 l 5.28366,10.583025 c 0.12281,0.19656 0.1714,0.29564 0.41828,0.29564 0.27048,0 0.31922,-0.0983 0.44188,-0.29564 z m -9.5609,0.786259 h 8.60166 l -4.27723,8.617386 z"
     id="path43"
     style="stroke-width:1.57252" />
  <path
     d="m 133.70517,97.252142 h -0.36796 c -0.0245,0.245318 -0.1475,0.883761 -0.29562,0.982822 -0.0737,0.07374 -0.90892,0.07374 -1.08189,0.07374 h -2.01283 c 1.15422,-1.007974 1.54736,-1.3272 2.1858,-1.839842 0.81141,-0.638442 1.5725,-1.327201 1.5725,-2.358768 0,-1.327201 -1.15422,-2.138624 -2.54745,-2.138624 -1.35079,0 -2.28015,0.95766 -2.28015,1.965644 0,0.540952 0.46704,0.614851 0.58969,0.614851 0.24531,0 0.56452,-0.196553 0.56452,-0.589688 0,-0.196563 -0.0737,-0.589698 -0.63843,-0.589698 0.34438,-0.761096 1.08188,-1.007974 1.60397,-1.007974 1.10548,0 1.66686,0.860159 1.66686,1.745489 0,0.957659 -0.68876,1.698311 -1.03156,2.091446 l -2.62611,2.626091 c -0.12281,0.09828 -0.12281,0.122822 -0.12281,0.418301 h 4.52883 z"
     id="path44"
     style="stroke-width:1.57252" />
  <path
     d="m 145.38895,96.151393 0.22174,-0.221735 c 0.46702,-0.467024 0.98282,-1.007975 2.04425,-1.081883 0.17142,-0.02452 0.31923,-0.02452 0.31923,-0.295634 0,-0.12281 -0.0737,-0.196562 -0.19657,-0.196562 -0.41827,0 -0.86016,0.04903 -1.27688,0.04903 -0.54095,0 -1.08188,-0.04903 -1.5725,-0.04903 -0.0983,0 -0.29564,0 -0.29564,0.295633 0,0.1714 0.1475,0.196563 0.22173,0.196563 0.12281,0 0.56453,0.02452 0.56453,0.367972 0,0.270462 -0.36797,0.663595 -0.41828,0.737504 l -3.63253,4.198609 -1.71402,-4.670368 c -0.0983,-0.221716 -0.0983,-0.245309 -0.0983,-0.270461 0,-0.367973 0.7611,-0.367973 0.93408,-0.367973 0.19658,0 0.36797,0 0.36797,-0.319217 0,-0.17141 -0.19656,-0.17141 -0.24531,-0.17141 -0.44187,0 -1.52377,0.04903 -1.96565,0.04903 -0.39312,0 -1.37595,-0.04903 -1.76121,-0.04903 -0.0737,0 -0.29563,0 -0.29563,0.319217 0,0.17141 0.1714,0.17141 0.36796,0.17141 0.93407,0 1.00799,0.147502 1.15422,0.540942 l 1.91849,5.15786 c 0.0245,0.049 0.0737,0.22172 0.0737,0.2453 0,0.049 -0.63844,2.57893 -0.71236,2.87771 -0.19656,0.86017 -0.22172,0.90891 -1.47502,0.90891 -0.29563,0 -0.41828,0 -0.41828,0.31922 0,0.17141 0.1714,0.17141 0.22172,0.17141 0.41828,0 1.52376,-0.049 1.96566,-0.049 0.44186,0 1.5725,0.049 2.0128,0.049 0.0983,0 0.29564,0 0.29564,-0.31923 0,-0.1714 -0.1475,-0.1714 -0.44188,-0.1714 -0.0245,0 -0.31921,0 -0.58971,-0.0246 -0.34436,-0.0245 -0.44185,-0.0737 -0.44185,-0.24532 0,-0.1228 0.1475,-0.66359 0.2217,-0.98281 l 0.56454,-2.21725 c 0.0737,-0.31923 0.0983,-0.34438 0.22174,-0.49062 z"
     id="path45"
     style="stroke-width:1.57252" />
  <path
     d="m 153.37733,98.365483 c -0.0737,0.221734 -0.1714,0.589696 -0.1714,0.638442 0,0.245305 0.19656,0.344383 0.36796,0.344383 0.22172,0 0.39314,-0.12281 0.44189,-0.221723 0.0487,-0.09891 0.14749,-0.467038 0.19656,-0.688763 0.049,-0.196563 0.17139,-0.712352 0.24531,-0.982822 0.049,-0.245318 0.12281,-0.490626 0.1714,-0.737514 0.12282,-0.467034 0.12282,-0.490617 0.34439,-0.834995 0.34438,-0.540952 0.90889,-1.154233 1.74548,-1.154233 0.61486,0 0.66361,0.490627 0.66361,0.761098 0,0.663595 -0.46705,1.87129 -0.66361,2.327321 -0.0983,0.319226 -0.1475,0.418287 -0.1475,0.589687 0,0.589697 0.46705,0.934091 1.03158,0.934091 1.10547,0 1.5725,-1.498616 1.5725,-1.666878 0,-0.147502 -0.12282,-0.147502 -0.17141,-0.147502 -0.1475,0 -0.1475,0.07374 -0.19655,0.196571 -0.24531,0.883752 -0.73751,1.327202 -1.15423,1.327202 -0.2453,0 -0.29563,-0.147503 -0.29563,-0.393135 0,-0.245632 0.0737,-0.393125 0.27047,-0.883752 0.12282,-0.344379 0.56454,-1.498601 0.56454,-2.107165 0,-0.17141 0,-0.638443 -0.39313,-0.95766 -0.19656,-0.12282 -0.51579,-0.295642 -1.03158,-0.295642 -0.98281,0 -1.5725,0.663605 -1.93418,1.105485 -0.0737,-0.934075 -0.86017,-1.105485 -1.42471,-1.105485 -0.90891,0 -1.52376,0.564545 -1.83982,1.007984 -0.0737,-0.761088 -0.71236,-1.007984 -1.1794,-1.007984 -0.46704,0 -0.71235,0.344388 -0.86017,0.589696 -0.24531,0.418288 -0.39313,1.031569 -0.39313,1.105487 0,0.12281 0.1475,0.12281 0.19656,0.12281 0.1475,0 0.1475,-0.02452 0.22174,-0.319225 0.1714,-0.638444 0.39312,-1.179385 0.81141,-1.179385 0.29564,0 0.36797,0.245308 0.36797,0.540941 0,0.196563 -0.0983,0.61485 -0.19657,0.908914 -0.0737,0.295633 -0.1714,0.737514 -0.22172,0.982822 l -0.36797,1.40111 c -0.0245,0.147502 -0.0983,0.418286 -0.0983,0.44188 0,0.245312 0.19657,0.344379 0.36798,0.344379 0.19654,0 0.36795,-0.12281 0.44186,-0.221723 0.049,-0.09828 0.12282,-0.467035 0.19657,-0.68876 0.049,-0.196563 0.17141,-0.712351 0.22172,-0.982831 0.0737,-0.245309 0.1475,-0.490617 0.19657,-0.737505 0.12281,-0.44187 0.14749,-0.540941 0.46704,-0.982821 0.29563,-0.441871 0.8114,-1.007975 1.65113,-1.007975 0.61486,0 0.63844,0.564534 0.63844,0.761097 0,0.270461 -0.0246,0.418287 -0.19656,1.031559 z"
     id="path46"
     style="stroke-width:1.57252" />
  <path
     d="m 148.56543,102.20556 c 0,-0.0245 0.049,-0.17139 0.049,-0.17139 0,-0.0737 -0.049,-0.1714 -0.19656,-0.1714 -0.22173,0 -1.13063,0.0983 -1.40112,0.12281 -0.0737,0 -0.22173,0.0245 -0.22173,0.24531 0,0.1475 0.14751,0.1475 0.27047,0.1475 0.54095,0 0.54095,0.0983 0.54095,0.17141 0,0.0732 -0.0246,0.1475 -0.049,0.24531 l -1.37596,5.40945 c -0.0245,0.1228 -0.0245,0.2453 -0.0245,0.34437 0,0.71235 0.61484,1.03157 1.13063,1.03157 0.27048,0 0.61486,-0.0737 0.88376,-0.56453 0.2453,-0.41829 0.39312,-1.05674 0.39312,-1.10548 0,-0.1475 -0.14749,-0.1475 -0.1714,-0.1475 -0.17141,0 -0.19656,0.0737 -0.22172,0.27046 -0.1475,0.54095 -0.36797,1.2533 -0.83501,1.2533 -0.29563,0 -0.36798,-0.27046 -0.36798,-0.54094 0,-0.12282 0.0245,-0.31921 0.0737,-0.44187 z"
     id="path47"
     style="stroke-width:1.57252" />
  <path
     d="m 166.38202,108.82584 c 0,-0.049 0,-0.0737 -0.27046,-0.34437 -1.9342,-1.96564 -2.45312,-4.93768 -2.45312,-7.34363 0,-2.720454 0.58968,-5.456638 2.53174,-7.390825 0.19656,-0.196563 0.19656,-0.221724 0.19656,-0.27048 0,-0.122801 -0.049,-0.171401 -0.14749,-0.171401 -0.17142,0 -1.57253,1.081894 -2.50031,3.066404 -0.78624,1.71404 -0.98282,3.459532 -0.98282,4.764732 0,1.22813 0.1714,3.11356 1.03157,4.90623 0.95766,1.91847 2.28014,2.95632 2.45312,2.95632 0.0983,0 0.1475,-0.049 0.1475,-0.17139 z"
     id="path48"
     style="stroke-width:1.57252" />
  <path
     d="m 173.03376,97.236423 c 0,-1.031568 -0.27047,-3.223654 -1.87129,-3.223654 -2.18579,0 -4.59174,4.418768 -4.59174,8.004101 0,1.47502 0.44187,3.22365 1.87129,3.22365 2.21724,0 4.59174,-4.49738 4.59174,-8.004097 z m -4.8119,2.13862 c 0.27048,-0.98282 0.5897,-2.232974 1.22814,-3.365182 0.41829,-0.761097 0.98283,-1.651143 1.69831,-1.651143 0.76111,0 0.86017,1.007984 0.86017,1.887019 0,0.786259 -0.12281,1.572519 -0.49063,3.113579 z m 3.14503,0.515777 c -0.1714,0.71236 -0.49062,2.04428 -1.10547,3.1765 -0.54095,1.08189 -1.13063,1.83984 -1.82412,1.83984 -0.51578,0 -0.83501,-0.46704 -0.83501,-1.91848 0,-0.66359 0.0983,-1.57251 0.49063,-3.09786 z"
     id="path49"
     style="stroke-width:1.57252" />
  <path
     d="m 176.96505,105.04302 c 0,-1.03156 -0.39314,-1.65115 -1.00798,-1.65115 -0.51579,0 -0.83501,0.39315 -0.83501,0.83502 0,0.41828 0.31922,0.83499 0.83501,0.83499 0.17141,0 0.39313,-0.0737 0.54095,-0.19656 0.049,-0.049 0.0737,-0.049 0.0737,-0.049 0.0245,0 0.0245,0 0.0245,0.22171 0,1.17937 -0.54093,2.10716 -1.05672,2.6261 -0.17139,0.17141 -0.17139,0.19656 -0.17139,0.2453 0,0.12282 0.0737,0.17141 0.14749,0.17141 0.1714,0 1.44986,-1.20455 1.44986,-3.05068 z"
     id="path50"
     style="stroke-width:1.57252" />
  <path
     d="m 184.29297,107.72509 c -0.049,0.22172 -0.0737,0.24531 -0.0737,0.31922 0,0.34438 0.29566,0.44188 0.46704,0.44188 0.0737,0 0.41829,-0.049 0.56454,-0.41829 0.049,-0.12281 0.12281,-0.63845 0.56453,-2.84624 0.12282,0 0.24532,0.0245 0.51579,0.0245 2.61037,0 5.01633,-2.45311 5.01633,-4.93769 0,-1.228139 -0.61486,-2.17007 -1.79267,-2.17007 -2.26441,0 -3.22366,3.05068 -4.15144,6.10135 -1.69832,-0.31922 -2.57892,-1.17938 -2.57892,-2.31159 0,-0.44188 0.36797,-2.170069 1.30203,-3.239385 0.1475,-0.147503 0.1475,-0.1714 0.1475,-0.221725 0,-0.0504 -0.049,-0.147492 -0.19656,-0.147492 -0.44187,0 -1.65113,2.280132 -1.65113,3.789752 0,1.47502 1.03157,2.61038 2.70472,3.00351 z m 2.18579,-3.39661 c -0.1475,0 -0.17139,0 -0.29563,-0.0246 -0.19655,0 -0.19655,0 -0.19655,-0.049 0,-0.0245 0.27046,-1.47501 0.29562,-1.69831 0.49063,-2.01281 1.71405,-3.506719 3.11358,-3.506719 1.08189,0 1.49861,0.835005 1.49861,1.603969 0,1.76122 -2.01281,3.67969 -4.41877,3.67969 z"
     id="path51"
     style="stroke-width:1.57252" />
  <path
     d="m 195.59935,101.13627 c 0,-1.20455 -0.17141,-3.097858 -1.03157,-4.890533 -0.93408,-1.918468 -2.28014,-2.956332 -2.43741,-2.956332 -0.0983,0 -0.1714,0.07374 -0.1714,0.17141 0,0.04903 0,0.07374 0.29564,0.367973 1.54735,1.547348 2.43739,4.025632 2.43739,7.296472 0,2.70472 -0.56454,5.45662 -2.50028,7.42226 -0.22174,0.19657 -0.22174,0.22172 -0.22174,0.27046 0,0.0983 0.0737,0.17141 0.17141,0.17141 0.1475,0 1.57252,-1.08189 2.48457,-3.06639 0.81142,-1.71404 0.98282,-3.45954 0.98282,-4.79617 z"
     id="path52"
     style="stroke-width:1.57252" />
  <path
     d="m 212.83409,99.925419 c 0.24532,0 0.54094,0 0.54094,-0.295627 0,-0.319217 -0.29562,-0.319217 -0.51577,-0.319217 h -9.38791 c -0.22172,0 -0.51579,0 -0.51579,0.319217 0,0.295627 0.29564,0.295627 0.51579,0.295627 z m 0.0246,3.050681 c 0.22173,0 0.5158,0 0.5158,-0.31922 0,-0.29563 -0.29564,-0.29563 -0.54095,-0.29563 h -9.35646 c -0.22173,0 -0.51578,0 -0.51578,0.29563 0,0.31922 0.29563,0.31922 0.51578,0.31922 z"
     id="path53"
     style="stroke-width:1.57252" />
  <path
     d="m 228.11893,101.45077 c 0.27049,0 0.56454,0 0.56454,-0.31922 0,-0.29564 -0.29564,-0.29564 -0.56454,-0.29564 h -8.47585 c -0.27047,0 -0.54095,0 -0.54095,0.29564 0,0.31922 0.27048,0.31922 0.54095,0.31922 z"
     id="path54"
     style="stroke-width:1.57252" />
  <path
     d="m 234.44045,94.358718 c 0,0 0,-0.1714 -0.22171,-0.1714 -0.34439,0 -1.49863,0.12281 -1.91847,0.1714 -0.12282,0 -0.29566,0.02452 -0.29566,0.319225 0,0.1714 0.17142,0.1714 0.39315,0.1714 0.7611,0 0.78624,0.147513 0.78624,0.270471 l -0.049,0.319227 -1.99709,7.831139 c -0.049,0.1714 -0.0737,0.27045 -0.0737,0.51577 0,0.90891 0.68877,1.44985 1.42467,1.44985 0.5158,0 0.90893,-0.31921 1.1794,-0.88374 0.27047,-0.58969 0.46703,-1.49861 0.46703,-1.52377 0,-0.17141 -0.1475,-0.17141 -0.19656,-0.17141 -0.14749,0 -0.17138,0.0737 -0.19655,0.29563 -0.27048,1.00799 -0.56454,1.93421 -1.20454,1.93421 -0.46704,0 -0.46704,-0.49064 -0.46704,-0.71236 0,-0.39313 0.0245,-0.46703 0.0983,-0.76109 z"
     id="path55"
     style="stroke-width:1.57252" />
  <path
     d="m 240.29019,108.82584 c 0,-0.049 0,-0.0737 -0.27047,-0.34437 -1.93418,-1.96564 -2.45312,-4.93768 -2.45312,-7.34363 0,-2.720454 0.58969,-5.456638 2.53176,-7.390825 0.19655,-0.196563 0.19655,-0.221724 0.19655,-0.27048 0,-0.122801 -0.049,-0.171401 -0.14751,-0.171401 -0.17138,0 -1.5725,1.081894 -2.50028,3.066404 -0.78625,1.71404 -0.98281,3.459532 -0.98281,4.764732 0,1.22813 0.17138,3.11356 1.03155,4.90623 0.95767,1.91847 2.28016,2.95632 2.45314,2.95632 0.0983,0 0.1475,-0.049 0.1475,-0.17139 z"
     id="path56"
     style="stroke-width:1.57252" />
  <path
     d="m 245.44805,94.358718 c 0,0 0,-0.1714 -0.22174,-0.1714 -0.34438,0 -1.4986,0.12281 -1.91845,0.1714 -0.12282,0 -0.29564,0.02452 -0.29564,0.319225 0,0.1714 0.1714,0.1714 0.39313,0.1714 0.7611,0 0.78626,0.147513 0.78626,0.270471 l -0.049,0.319227 -1.9971,7.831139 c -0.049,0.1714 -0.0737,0.27045 -0.0737,0.51577 0,0.90891 0.68876,1.44985 1.4247,1.44985 0.51578,0 0.90892,-0.31921 1.17939,-0.88374 0.27046,-0.58969 0.46703,-1.49861 0.46703,-1.52377 0,-0.17141 -0.14751,-0.17141 -0.19658,-0.17141 -0.14749,0 -0.17139,0.0737 -0.19656,0.29563 -0.27045,1.00799 -0.56453,1.93421 -1.20454,1.93421 -0.46704,0 -0.46704,-0.49064 -0.46704,-0.71236 0,-0.39313 0.0245,-0.46703 0.0983,-0.76109 z"
     id="path57"
     style="stroke-width:1.57252" />
  <path
     d="m 257.24191,101.45077 h 4.37157 c 0.22174,0 0.51579,0 0.51579,-0.31922 0,-0.29564 -0.29562,-0.29564 -0.51579,-0.29564 h -4.37157 v -4.403044 c 0,-0.221716 0,-0.51579 -0.31923,-0.51579 -0.31919,0 -0.31919,0.295644 -0.31919,0.51579 v 4.403044 h -4.37161 c -0.22172,0 -0.51578,0 -0.51578,0.29564 0,0.31922 0.29564,0.31922 0.51578,0.31922 h 4.37161 v 4.40304 c 0,0.22172 0,0.51577 0.31921,0.51577 0.31922,0 0.31922,-0.29562 0.31922,-0.51577 z"
     id="path58"
     style="stroke-width:1.57252" />
  <path
     d="m 271.17437,95.034904 c 0,-0.393125 0,-0.418288 -0.36796,-0.418288 -0.98282,1.007975 -2.35877,1.007975 -2.84624,1.007975 v 0.490627 c 0.31921,0 1.22813,0 2.04427,-0.418288 v 8.1299 c 0,0.56454 -0.049,0.73751 -1.44988,0.73751 h -0.4906 v 0.49063 c 0.54093,-0.049 1.88701,-0.049 2.53174,-0.049 0.61486,0 1.99709,0 2.53174,0.049 v -0.49063 h -0.49061 c -1.42471,0 -1.44988,-0.17139 -1.44988,-0.73751 z"
     id="path59"
     style="stroke-width:1.57252" />
  <path
     d="m 278.9426,101.13627 c 0,-1.20455 -0.17141,-3.097858 -1.03156,-4.890533 -0.93406,-1.918468 -2.28015,-2.956332 -2.43738,-2.956332 -0.0983,0 -0.1714,0.07374 -0.1714,0.17141 0,0.04903 0,0.07374 0.2956,0.367973 1.54738,1.547348 2.43742,4.025632 2.43742,7.296472 0,2.70472 -0.56454,5.45662 -2.5003,7.42226 -0.22172,0.19657 -0.22172,0.22172 -0.22172,0.27046 0,0.0983 0.0737,0.17141 0.1714,0.17141 0.1475,0 1.57252,-1.08189 2.48456,-3.06639 0.81144,-1.71404 0.98284,-3.45954 0.98284,-4.79617 z"
     id="path60"
     style="stroke-width:1.57252" />
  <path
     d="m 288.48776,96.151393 0.22173,-0.221735 c 0.46703,-0.467024 0.98282,-1.007975 2.04427,-1.081883 0.1714,-0.02452 0.31922,-0.02452 0.31922,-0.295634 0,-0.12281 -0.0737,-0.196562 -0.19657,-0.196562 -0.41828,0 -0.86017,0.04903 -1.27688,0.04903 -0.54095,0 -1.08189,-0.04903 -1.5725,-0.04903 -0.0983,0 -0.29564,0 -0.29564,0.295633 0,0.1714 0.1475,0.196563 0.22172,0.196563 0.12282,0 0.56453,0.02452 0.56453,0.367972 0,0.270462 -0.36797,0.663595 -0.41829,0.737504 l -3.63252,4.198609 -1.71403,-4.670368 c -0.0983,-0.221716 -0.0983,-0.245309 -0.0983,-0.270461 0,-0.367973 0.76111,-0.367973 0.93409,-0.367973 0.19656,0 0.36796,0 0.36796,-0.319217 0,-0.17141 -0.19656,-0.17141 -0.24531,-0.17141 -0.44187,0 -1.52376,0.04903 -1.96564,0.04903 -0.39314,0 -1.37595,-0.04903 -1.76122,-0.04903 -0.0737,0 -0.29563,0 -0.29563,0.319217 0,0.17141 0.17141,0.17141 0.36797,0.17141 0.93407,0 1.00799,0.147502 1.15422,0.540942 l 1.91847,5.15786 c 0.0246,0.049 0.0737,0.22172 0.0737,0.2453 0,0.049 -0.63844,2.57893 -0.71234,2.87771 -0.19656,0.86017 -0.22172,0.90891 -1.47502,0.90891 -0.29563,0 -0.41828,0 -0.41828,0.31922 0,0.17141 0.17139,0.17141 0.22171,0.17141 0.41829,0 1.52377,-0.049 1.96566,-0.049 0.44186,0 1.5725,0.049 2.0128,0.049 0.0983,0 0.29564,0 0.29564,-0.31923 0,-0.1714 -0.1475,-0.1714 -0.44188,-0.1714 -0.0245,0 -0.31921,0 -0.58969,-0.0246 -0.34438,-0.0245 -0.44187,-0.0737 -0.44187,-0.24532 0,-0.1228 0.1475,-0.66359 0.22171,-0.98281 l 0.56454,-2.21725 c 0.0737,-0.31923 0.0983,-0.34438 0.22173,-0.49062 z"
     id="path61"
     style="stroke-width:1.57252" />
  <path
     d="m 296.47614,98.365483 c -0.0737,0.221734 -0.17141,0.589696 -0.17141,0.638442 0,0.245305 0.19656,0.344383 0.36797,0.344383 0.22174,0 0.39314,-0.12281 0.44189,-0.221723 0.0487,-0.09891 0.1475,-0.467038 0.19656,-0.688763 0.049,-0.196563 0.1714,-0.712352 0.24532,-0.982822 0.049,-0.245318 0.12281,-0.490626 0.17139,-0.737514 0.12282,-0.467034 0.12282,-0.490617 0.34438,-0.834995 0.34438,-0.540952 0.9089,-1.154233 1.7455,-1.154233 0.61485,0 0.6636,0.490627 0.6636,0.761098 0,0.663595 -0.46705,1.87129 -0.6636,2.327321 -0.0983,0.319226 -0.1475,0.418287 -0.1475,0.589687 0,0.589697 0.46704,0.934091 1.03157,0.934091 1.10548,0 1.57251,-1.498616 1.57251,-1.666878 0,-0.147502 -0.12282,-0.147502 -0.17141,-0.147502 -0.1475,0 -0.1475,0.07374 -0.19656,0.196571 -0.24531,0.883752 -0.73751,1.327202 -1.15422,1.327202 -0.24531,0 -0.29562,-0.147503 -0.29562,-0.393135 0,-0.245632 0.0737,-0.393125 0.27045,-0.883752 0.12282,-0.344379 0.56454,-1.498601 0.56454,-2.107165 0,-0.17141 0,-0.638443 -0.39313,-0.95766 -0.19656,-0.12282 -0.51578,-0.295642 -1.03157,-0.295642 -0.98282,0 -1.57251,0.663605 -1.93418,1.105485 -0.0737,-0.934075 -0.86018,-1.105485 -1.42472,-1.105485 -0.9089,0 -1.52375,0.564545 -1.83982,1.007984 -0.0737,-0.761088 -0.71236,-1.007984 -1.1794,-1.007984 -0.46703,0 -0.71235,0.344388 -0.86016,0.589696 -0.24531,0.418288 -0.39314,1.031569 -0.39314,1.105487 0,0.12281 0.1475,0.12281 0.19657,0.12281 0.14751,0 0.14751,-0.02452 0.22174,-0.319225 0.17139,-0.638444 0.39312,-1.179385 0.8114,-1.179385 0.29564,0 0.36798,0.245308 0.36798,0.540941 0,0.196563 -0.0983,0.61485 -0.19657,0.908914 -0.0737,0.295633 -0.17141,0.737514 -0.22172,0.982822 l -0.36797,1.40111 c -0.0246,0.147502 -0.0983,0.418286 -0.0983,0.44188 0,0.245312 0.19656,0.344379 0.36798,0.344379 0.19655,0 0.36795,-0.12281 0.44186,-0.221723 0.049,-0.09828 0.12282,-0.467035 0.19656,-0.68876 0.049,-0.196563 0.17141,-0.712351 0.22173,-0.982831 0.0737,-0.245309 0.14751,-0.490617 0.19656,-0.737505 0.12281,-0.44187 0.14751,-0.540941 0.46704,-0.982821 0.29564,-0.441871 0.81141,-1.007975 1.65114,-1.007975 0.61485,0 0.63844,0.564534 0.63844,0.761097 0,0.270461 -0.0246,0.418287 -0.19657,1.031559 z"
     id="path62"
     style="stroke-width:1.57252" />
  <path
     d="m 291.66424,102.20556 c 0,-0.0245 0.049,-0.17139 0.049,-0.17139 0,-0.0737 -0.049,-0.1714 -0.19656,-0.1714 -0.22172,0 -1.13064,0.0983 -1.40111,0.12281 -0.0737,0 -0.22172,0.0245 -0.22172,0.24531 0,0.1475 0.1475,0.1475 0.27048,0.1475 0.54094,0 0.54094,0.0983 0.54094,0.17141 0,0.0732 -0.0245,0.1475 -0.049,0.24531 l -1.37596,5.40945 c -0.0246,0.1228 -0.0246,0.2453 -0.0246,0.34437 0,0.71235 0.61485,1.03157 1.13064,1.03157 0.27047,0 0.61485,-0.0737 0.88375,-0.56453 0.2453,-0.41829 0.39313,-1.05674 0.39313,-1.10548 0,-0.1475 -0.1475,-0.1475 -0.17141,-0.1475 -0.17141,0 -0.19656,0.0737 -0.22172,0.27046 -0.1475,0.54095 -0.36796,1.2533 -0.835,1.2533 -0.29564,0 -0.36797,-0.27046 -0.36797,-0.54094 0,-0.12282 0.0245,-0.31921 0.0737,-0.44187 z"
     id="path63"
     style="stroke-width:1.57252" />
  <path
     d="m 309.48083,108.82584 c 0,-0.049 0,-0.0737 -0.27047,-0.34437 -1.93419,-1.96564 -2.45312,-4.93768 -2.45312,-7.34363 0,-2.720454 0.58968,-5.456638 2.53175,-7.390825 0.19656,-0.196563 0.19656,-0.221724 0.19656,-0.27048 0,-0.122801 -0.049,-0.171401 -0.1475,-0.171401 -0.1714,0 -1.57252,1.081894 -2.50031,3.066404 -0.78624,1.71404 -0.98281,3.459532 -0.98281,4.764732 0,1.22813 0.1714,3.11356 1.03156,4.90623 0.95767,1.91847 2.28016,2.95632 2.45312,2.95632 0.0983,0 0.1475,-0.049 0.1475,-0.17139 z"
     id="path64"
     style="stroke-width:1.57252" />
  <path
     d="m 317.70508,97.236423 c 0,-1.031568 -0.27047,-3.223654 -1.87129,-3.223654 -2.18579,0 -4.59174,4.418768 -4.59174,8.004101 0,1.47502 0.44188,3.22365 1.87129,3.22365 2.21725,0 4.59174,-4.49738 4.59174,-8.004097 z m -4.8119,2.13862 c 0.2705,-0.98282 0.58969,-2.232974 1.22815,-3.365182 0.41828,-0.761097 0.98283,-1.651143 1.69833,-1.651143 0.76109,0 0.86016,1.007984 0.86016,1.887019 0,0.786259 -0.12282,1.572519 -0.49062,3.113579 z m 3.14504,0.515777 c -0.1714,0.71236 -0.49062,2.04428 -1.10547,3.1765 -0.54095,1.08189 -1.13064,1.83984 -1.82413,1.83984 -0.51577,0 -0.835,-0.46704 -0.835,-1.91848 0,-0.66359 0.0983,-1.57251 0.49064,-3.09786 z"
     id="path65"
     style="stroke-width:1.57252" />
  <path
     d="m 321.63637,105.04302 c 0,-1.03156 -0.39313,-1.65115 -1.00797,-1.65115 -0.5158,0 -0.83501,0.39315 -0.83501,0.83502 0,0.41828 0.31921,0.83499 0.83501,0.83499 0.17141,0 0.39312,-0.0737 0.54094,-0.19656 0.049,-0.049 0.0737,-0.049 0.0737,-0.049 0.0245,0 0.0245,0 0.0245,0.22171 0,1.17937 -0.54093,2.10716 -1.05673,2.6261 -0.17141,0.17141 -0.17141,0.19656 -0.17141,0.2453 0,0.12282 0.0737,0.17141 0.14752,0.17141 0.17139,0 1.44985,-1.20455 1.44985,-3.05068 z"
     id="path66"
     style="stroke-width:1.57252" />
  <path
     d="m 327.39178,107.72509 c -0.049,0.22172 -0.0737,0.24531 -0.0737,0.31922 0,0.34438 0.29564,0.44188 0.46703,0.44188 0.0737,0 0.4183,-0.049 0.56455,-0.41829 0.049,-0.12281 0.1228,-0.63845 0.56453,-2.84624 0.12281,0 0.24532,0.0245 0.51579,0.0245 2.61036,0 5.01632,-2.45311 5.01632,-4.93769 0,-1.228139 -0.61484,-2.17007 -1.79267,-2.17007 -2.26441,0 -3.22365,3.05068 -4.15144,6.10135 -1.69832,-0.31922 -2.57892,-1.17938 -2.57892,-2.31159 0,-0.44188 0.36797,-2.170069 1.30204,-3.239385 0.14752,-0.147503 0.14752,-0.1714 0.14752,-0.221725 0,-0.0504 -0.049,-0.147492 -0.19659,-0.147492 -0.44186,0 -1.65112,2.280132 -1.65112,3.789752 0,1.47502 1.03156,2.61038 2.70471,3.00351 z m 2.18578,-3.39661 c -0.14749,0 -0.17139,0 -0.29562,-0.0246 -0.19658,0 -0.19658,0 -0.19658,-0.049 0,-0.0245 0.2705,-1.47501 0.29564,-1.69831 0.49063,-2.01281 1.71404,-3.506719 3.11358,-3.506719 1.08189,0 1.49862,0.835005 1.49862,1.603969 0,1.76122 -2.01282,3.67969 -4.41877,3.67969 z"
     id="path67"
     style="stroke-width:1.57252" />
  <path
     d="m 340.27066,101.13627 c 0,-1.20455 -0.17138,-3.097858 -1.03157,-4.890533 -0.93406,-1.918468 -2.28014,-2.956332 -2.43739,-2.956332 -0.0983,0 -0.1714,0.07374 -0.1714,0.17141 0,0.04903 0,0.07374 0.29564,0.367973 1.54735,1.547348 2.43738,4.025632 2.43738,7.296472 0,2.70472 -0.56453,5.45662 -2.5003,7.42226 -0.22171,0.19657 -0.22171,0.22172 -0.22171,0.27046 0,0.0983 0.0737,0.17141 0.1714,0.17141 0.1475,0 1.5725,-1.08189 2.48457,-3.06639 0.81142,-1.71404 0.98282,-3.45954 0.98282,-4.79617 z"
     id="path68"
     style="stroke-width:1.57252" />
  <path
     d="m 46.021386,50.411031 c 0.436278,-1.636914 0.928399,-3.382025 1.25299,-5.060821 0.436277,-2.345429 0.656162,-4.641994 0.656162,-5.060821 0,-1.961504 -1.909152,-1.961504 -2.289586,-1.961504 -2.67351,0 -5.025919,0.980752 -6.666323,2.125545 -2.834059,1.90915 -3.769439,4.188265 -3.769439,4.432581 0,0.244315 0.272587,0.218138 0.380434,0.218138 0.272587,0 1.909152,-0.436277 2.617666,-1.745111 0.9284,-1.74511 1.961505,-3.109787 5.060821,-3.109787 1.472874,0 1.689267,0.980752 1.689267,1.528717 0,0.05445 -0.108894,1.689268 -0.544474,4.083559 -0.163691,0.980752 -0.272587,1.58107 -0.980752,4.57219 h -1.25299 c -0.980752,0.05445 -2.561823,1.144793 -2.561823,1.689268 0,0.218138 0,0.218138 0.764359,0.218138 h 2.509469 c -0.708514,2.453627 -1.689267,5.793768 -3.273828,10.051838 -0.327382,0.816712 -0.327382,0.872555 -0.327382,0.928399 0,0.218139 0.272586,0.218139 0.327382,0.218139 0.492121,0 1.581071,-0.436278 2.289586,-1.144793 0.163691,-0.218139 0.218139,-0.272586 0.380434,-0.600317 1.200636,-3.109788 2.237232,-6.212595 3.162141,-9.423598 h 7.852997 c 0.380435,0 1.036596,0 1.581071,-0.327383 -0.380434,1.472873 -1.800954,7.154954 -1.800954,9.877327 0,1.036595 0.600318,1.90915 2.073192,1.90915 4.641994,0 7.189856,-2.889903 7.189856,-3.978852 0,-0.218139 -0.163692,-0.272586 -0.327383,-0.272586 -0.272587,0 -2.125545,0.492121 -2.67351,1.853307 -0.108895,0.272586 -0.163691,0.272586 -0.816711,0.380434 -0.380435,0.108895 -1.036596,0.108895 -1.08895,0.108895 -0.600318,0 -1.417029,-0.380434 -1.417029,-1.472873 0,-0.436278 0.218139,-2.345429 0.327382,-3.109788 0.600318,-3.874145 2.289585,-10.400859 5.305137,-18.323662 0.108894,-0.272586 0.108894,-0.327383 0.108894,-0.380434 0,-0.272586 -0.218138,-0.272586 -0.327382,-0.272586 -0.544474,0 -1.528717,0.492121 -2.181388,1.088949 -0.05445,0.05445 -0.272587,0.218139 -0.380435,0.544474 -1.41703,3.434378 -2.509469,6.910638 -3.560025,10.470664 z"
     id="path72"
     style="stroke-width:3.49022" />
  <path
     d="m 97.118224,50.655347 c 0.544477,0 1.200643,0 1.200643,-0.656162 0,-0.708515 -0.656166,-0.708515 -1.144794,-0.708515 H 76.33745 c -0.492121,0 -1.144793,0 -1.144793,0.708515 0,0.656162 0.656162,0.656162 1.144793,0.656162 z m 0.05443,6.771029 c 0.492121,0 1.144794,0 1.144794,-0.708515 0,-0.656161 -0.656166,-0.656161 -1.200643,-0.656161 H 76.350014 c -0.492121,0 -1.144793,0 -1.144793,0.656161 0,0.708515 0.656162,0.708515 1.144793,0.708515 z"
     id="path73"
     style="stroke-width:3.49022" />
  <path
     d="m 113.21862,66.326441 c -0.27259,1.200636 -0.38044,1.41703 -1.90915,1.41703 -0.38044,0 -0.76436,0 -0.76436,0.656161 0,0.272587 0.16369,0.436278 0.43628,0.436278 0.92839,0 1.96151,-0.108895 2.8899,-0.108895 1.20064,0 2.34543,0.108895 3.49022,0.108895 0.16369,0 0.60032,0 0.60032,-0.708515 0,-0.380434 -0.32739,-0.380434 -0.81672,-0.380434 -1.74511,0 -1.74511,-0.218139 -1.74511,-0.544475 0,-0.436277 1.47288,-6.107887 1.68927,-6.980443 0.43628,1.036596 1.41703,2.237232 3.21799,2.237232 4.04865,0 8.41143,-5.060821 8.41143,-10.191446 0,-3.273828 -2.01735,-5.549452 -4.642,-5.549452 -1.74511,0 -3.43437,1.252989 -4.57219,2.617666 -0.32738,-1.909151 -1.8533,-2.617666 -3.10978,-2.617666 -1.63691,0 -2.28958,1.364676 -2.56182,1.961504 -0.65616,1.200637 -1.08895,3.273828 -1.08895,3.382025 0,0.380434 0.32738,0.380434 0.38043,0.380434 0.38044,0 0.38044,-0.05445 0.60032,-0.816712 0.60032,-2.453626 1.30884,-4.153363 2.56183,-4.153363 0.60031,0 1.08894,0.272586 1.08894,1.58107 0,0.816711 -0.10889,1.200636 -0.27258,1.800955 z m 6.10789,-15.112659 c 0.21814,-0.928399 1.20063,-1.909151 1.80095,-2.453625 1.25299,-1.036596 2.23724,-1.308834 2.83406,-1.308834 1.36468,0 2.23723,1.200637 2.23723,3.273828 0,2.073191 -1.14479,6.038083 -1.80095,7.364367 -1.20063,2.453626 -2.83406,3.594928 -4.15336,3.594928 -2.28959,0 -2.72587,-2.889903 -2.72587,-3.109787 0,-0.05444 0,-0.108895 0.1089,-0.544475 z"
     id="path74"
     style="stroke-width:3.49022" />
  <path
     d="m 137.01146,52.086337 c 0,-0.380434 -0.32738,-0.928399 -0.98076,-0.928399 -0.65336,0 -1.36467,0.656162 -1.36467,1.364677 0,0.380434 0.27259,0.928399 0.98075,0.928399 0.65617,0 1.36468,-0.708515 1.36468,-1.364677 z m -4.95612,12.390286 c -0.10889,0.327383 -0.21813,0.600318 -0.21813,1.036596 0,1.144792 0.92839,2.017348 2.28958,2.017348 2.40127,0 3.49022,-3.326181 3.49022,-3.699635 0,-0.327382 -0.32738,-0.327382 -0.38043,-0.327382 -0.32738,0 -0.38043,0.163691 -0.49212,0.436277 -0.54448,1.961505 -1.58108,2.945747 -2.56182,2.945747 -0.49212,0 -0.60032,-0.327383 -0.60032,-0.872556 0,-0.545172 0.16369,-0.980752 0.38043,-1.528716 0.27258,-0.656162 0.54448,-1.308833 0.76436,-1.961505 0.21813,-0.600318 1.14479,-2.781706 1.20064,-3.109787 0.10889,-0.218138 0.16368,-0.492121 0.16368,-0.764359 0,-1.144792 -0.98074,-2.073191 -2.28958,-2.073191 -2.45363,0 -3.56003,3.326181 -3.56003,3.769439 0,0.272587 0.32739,0.272587 0.43628,0.272587 0.32738,0 0.32738,-0.108895 0.43628,-0.380434 0.60032,-2.073192 1.68927,-2.945748 2.56182,-2.945748 0.38043,0 0.60032,0.163692 0.60032,0.816713 0,0.600318 -0.10889,0.928398 -0.70851,2.453625 z"
     id="path75"
     style="stroke-width:3.49022" />
  <path
     d="m 153.20608,40.638411 c 0,-0.928399 -0.76435,-1.853307 -1.80095,-1.853307 -1.20064,0 -1.90915,0.980752 -1.90915,1.853307 0,0.928399 0.81672,1.853308 1.8533,1.853308 1.20065,0 1.85331,-0.980752 1.85331,-1.853308 z"
     id="path76"
     style="stroke-width:3.49022" />
  <path
     d="m 155.26532,47.060419 c 0,-0.163692 -0.1089,-0.327383 -0.32738,-0.327383 -0.38044,0 -1.80096,1.364676 -2.34543,2.401272 -0.76437,-1.909151 -2.12555,-2.453625 -3.27383,-2.453625 -4.08356,0 -8.34163,5.130625 -8.34163,10.191446 0,3.382024 2.01734,5.549452 4.57219,5.549452 1.47288,0 2.83405,-0.816712 4.08356,-2.073192 -0.32739,1.200637 -1.47288,5.898475 -1.58107,6.212594 -0.27259,0.980753 -0.54448,1.088949 -2.50948,1.144793 -0.43627,0 -0.76435,0 -0.76435,0.708515 0,0 0,0.380434 0.43628,0.380434 1.08894,0 2.34543,-0.108894 3.49022,-0.108894 1.14479,0 2.40127,0.108894 3.59493,0.108894 0.16369,0 0.60031,0 0.60031,-0.708514 0,-0.380435 -0.32738,-0.380435 -0.9284,-0.380435 -1.63691,0 -1.63691,-0.218139 -1.63691,-0.544475 0,-0.272585 0.0544,-0.492121 0.1089,-0.764358 z m -9.59812,14.624027 c -2.12554,0 -2.23723,-2.67351 -2.23723,-3.273828 0,-1.689266 0.98076,-5.444745 1.58108,-6.910638 1.08895,-2.561822 2.8899,-4.048657 4.29297,-4.048657 2.28958,0 2.7817,2.83406 2.7817,3.053944 0,0.219884 -1.90914,7.852999 -2.01734,7.957705 -0.54448,0.980752 -2.50948,3.217984 -4.43259,3.217984 z"
     id="path77"
     style="stroke-width:3.49022" />
  <path
     d="m 164.93323,33.937186 c 0,-0.380434 -0.32738,-0.928399 -0.98075,-0.928399 -0.65337,0 -1.36468,0.656162 -1.36468,1.364677 0,0.380434 0.27259,0.928399 0.98075,0.928399 0.65617,0 1.36468,-0.708515 1.36468,-1.364677 z m -4.95612,12.390286 c -0.10889,0.327383 -0.21813,0.600318 -0.21813,1.036596 0,1.144792 0.92839,2.017348 2.28958,2.017348 2.40128,0 3.49022,-3.326181 3.49022,-3.699634 0,-0.327383 -0.32738,-0.327383 -0.38043,-0.327383 -0.32738,0 -0.38043,0.163691 -0.49212,0.436277 -0.54448,1.961504 -1.58108,2.945746 -2.56182,2.945746 -0.49212,0 -0.60032,-0.327382 -0.60032,-0.872555 0,-0.545172 0.16369,-0.980752 0.38043,-1.528716 0.27259,-0.656162 0.54448,-1.308834 0.76436,-1.961505 0.21813,-0.600318 1.14479,-2.781706 1.20064,-3.109787 0.10889,-0.218139 0.16368,-0.492122 0.16368,-0.764359 0,-1.144792 -0.98074,-2.073191 -2.28957,-2.073191 -2.45364,0 -3.56004,3.326181 -3.56004,3.769439 0,0.272587 0.32739,0.272587 0.43628,0.272587 0.32738,0 0.32738,-0.108896 0.43628,-0.380435 0.60032,-2.073192 1.68927,-2.945747 2.56182,-2.945747 0.38043,0 0.60032,0.163691 0.60032,0.816712 0,0.600318 -0.10889,0.928399 -0.70851,2.453626 z"
     id="path78"
     style="stroke-width:3.49022" />
  <path
     d="m 197.35739,54.040861 c 0.60032,0 1.25298,0 1.25298,-0.708514 0,-0.656162 -0.65616,-0.656162 -1.25298,-0.656162 H 178.5451 c -0.60032,0 -1.20065,0 -1.20065,0.656162 0,0.708514 0.60033,0.708514 1.20065,0.708514 z"
     id="path79"
     style="stroke-width:3.49022" />
  <path
     d="m 215.64615,58.850387 c 1.8533,-2.945748 2.45362,-5.165528 2.8899,-7.050248 1.25299,-4.816505 2.56182,-8.934966 4.7467,-11.343219 0.38044,-0.436278 0.65616,-0.764359 1.80096,-0.764359 2.40126,0 2.45362,2.401273 2.45362,2.889904 0,0.600318 -0.16369,1.088949 -0.16369,1.252989 0,0.272586 0.21814,0.272586 0.21814,0.272586 0.60031,0 1.52871,-0.380434 2.40127,-1.036596 0.60032,-0.492121 0.9284,-0.816711 0.9284,-2.237232 0,-1.90915 -0.98075,-3.32618 -2.94575,-3.32618 -1.08894,0 -4.15336,0.272586 -7.57377,3.699634 -2.78171,2.889904 -4.43259,9.14438 -5.06083,11.727144 -0.60032,2.453626 -0.87255,3.490222 -1.9615,5.619257 -0.21814,0.380434 -1.1448,1.909151 -1.63692,2.401272 -0.9284,0.872556 -1.25299,1.472873 -1.25299,1.636914 0,0.05445 0.0544,0.218138 0.32738,0.218138 0.1089,0 0.81672,-0.163691 1.74511,-0.708514 0.60033,-0.380435 0.65617,-0.436278 1.47288,-1.25299 1.74511,0 2.94574,0.327383 5.13063,0.980752 1.80095,0.436278 3.56002,0.980752 5.34003,0.980752 2.83407,0 5.65416,-2.125544 6.77103,-3.664732 0.70852,-0.928399 0.9284,-1.800954 0.9284,-1.909151 0,-0.272586 -0.21814,-0.272586 -0.27258,-0.272586 -0.54448,0 -1.36468,0.436278 -1.96151,0.816712 -0.9284,0.600318 -0.98075,0.816711 -1.20063,1.417029 -0.1637,0.544475 -0.38043,0.816713 -0.54448,1.036596 -0.27258,0.380435 -0.32738,0.380435 -0.81671,0.380435 -1.68927,0 -3.43438,-0.492122 -5.72396,-1.144793 -0.98076,-0.272586 -2.8899,-0.816712 -4.642,-0.816712 -0.43627,0 -0.9284,0.05445 -1.36467,0.163692 z"
     id="path80"
     style="stroke-width:3.49022" />
  <path
     d="m 226.27649,222.04354 c -0.20392,-0.88269 -0.88268,-1.76536 -2.30453,-1.76536 -2.13929,0 -3.86986,1.56316 -4.41338,2.95675 -0.10197,0.23697 -0.30654,0.85007 -0.30654,1.46099 0,1.05225 0.81528,2.78282 3.15242,2.78282 3.93508,0 5.54391,-4.89169 5.54391,-7.02229 0,-2.6089 -1.69796,-4.08727 -3.73943,-4.08727 -2.47845,0 -3.15242,1.96973 -3.15242,2.41323 0,0.13588 0.10196,0.54352 0.61092,0.54352 0.54352,0 0.85007,-0.44134 0.85007,-0.81528 0,-0.40873 -0.30655,-0.54352 -0.57831,-0.57831 0.74788,-1.15444 2.0045,-1.15444 2.2393,-1.15444 1.15444,0 2.47846,0.7131 2.47846,2.89153 0,0.6457 -0.0678,1.18923 -0.33917,2.36976 z m -3.84812,4.9569 c -1.69796,0 -1.90232,-1.2914 -1.90232,-1.76535 0,-0.57831 0.40872,-2.07191 0.5783,-2.43497 0.27176,-0.7131 1.18922,-2.10669 2.91327,-2.10669 1.46098,0 1.93711,1.15444 1.93711,2.0719 0,1.01965 -0.98486,4.23946 -3.52201,4.23946 z"
     id="path84"
     style="stroke-width:2.17408" />
  <path
     d="m 231.75517,225.6786 c 0.81529,-1.08704 1.12183,-2.21756 1.25663,-2.84805 0.40872,-1.46098 1.12182,-3.91335 2.34801,-5.06561 0.20392,-0.20393 0.50873,-0.23697 0.78049,-0.23697 0.74789,0 1.22184,0.54352 1.22184,1.2914 0,0.23698 -0.0678,0.40873 -0.0678,0.44134 0,0.10196 0.0678,0.13588 0.1698,0.13588 0.13588,0 0.54352,-0.10197 0.95225,-0.40873 0.33915,-0.23697 0.50872,-0.40873 0.50872,-0.98486 0,-0.6457 -0.40872,-1.49576 -1.52837,-1.49576 -1.29141,0 -2.7176,0.85006 -3.5655,1.83492 -1.39359,1.56317 -2.0045,3.84813 -2.41323,5.47869 -0.44133,1.69796 -1.32401,2.65238 -1.39358,2.76108 -0.13588,0.10197 -0.7131,0.61092 -0.7131,0.81528 0,0.10196 0.13588,0.10196 0.1698,0.10196 0.10196,0 0.67831,-0.0678 1.42619,-0.85006 0.7805,0 1.39359,0.13588 2.67412,0.44134 0.85007,0.20393 1.69796,0.40872 2.58716,0.40872 1.01965,0 1.90232,-0.50873 2.36975,-0.88267 1.08704,-0.81528 1.15444,-1.52838 1.15444,-1.56317 0,-0.0678 -0.0339,-0.13588 -0.1698,-0.13588 -0.20393,0 -1.18923,0.37395 -1.39358,0.95225 -0.20394,0.61092 -0.37394,0.61092 -0.74789,0.61092 -0.81528,0 -1.93711,-0.27176 -2.41323,-0.37394 -0.88268,-0.23698 -1.76536,-0.44134 -2.65238,-0.44134 -0.1698,0 -0.37394,0 -0.5783,0.0339 z"
     id="path85"
     style="stroke-width:2.17408" />
  <path
     style="color:#000000;fill:#000000;stroke-width:0.517552;stroke-miterlimit:10;-inkscape-stroke:none"
     d="m 218.31967,230.00381 v 0.86528 h 22.1759 v -0.86528 z"
     id="path87" />
  <path
     d="m 228.01575,238.13175 c -0.20392,-0.88269 -0.88266,-1.76535 -2.30451,-1.76535 -2.1393,0 -3.86987,1.56315 -4.41339,2.95674 -0.10197,0.23698 -0.30655,0.85007 -0.30655,1.46099 0,1.05225 0.81528,2.78283 3.15242,2.78283 3.93509,0 5.54391,-4.8917 5.54391,-7.02229 0,-2.60891 -1.69796,-4.08729 -3.73943,-4.08729 -2.47845,0 -3.15241,1.96973 -3.15241,2.41324 0,0.13588 0.10196,0.54352 0.61092,0.54352 0.54351,0 0.85006,-0.44134 0.85006,-0.81529 0,-0.40872 -0.30655,-0.54352 -0.57831,-0.5783 0.74789,-1.15444 2.00451,-1.15444 2.23931,-1.15444 1.15444,0 2.47845,0.7131 2.47845,2.89153 0,0.64571 -0.0678,1.18924 -0.33915,2.36976 z m -3.84811,4.95691 c -1.69796,0 -1.90233,-1.29141 -1.90233,-1.76536 0,-0.57831 0.40873,-2.0719 0.57831,-2.43497 0.27176,-0.7131 1.18922,-2.10669 2.91327,-2.10669 1.46098,0 1.93711,1.15444 1.93711,2.0719 0,1.01965 -0.98486,4.23947 -3.52202,4.23947 z"
     id="path88"
     style="stroke-width:2.17408" />
  <path
     d="m 237.99479,237.00122 c 0,-0.0678 0.0339,-0.13588 0.0339,-0.20392 0,-0.10197 -0.0678,-0.23698 -0.20393,-0.23698 -0.1361,0 -0.78049,0.50874 -1.08704,1.01965 -0.13588,-0.30655 -0.6457,-1.01965 -1.63056,-1.01965 -1.93711,0 -3.91335,2.13929 -3.91335,4.30469 0,1.49576 0.98486,2.52193 2.30453,2.52193 0.85006,0 1.56316,-0.54352 1.90232,-0.81528 -0.0339,0.0339 -0.50874,1.9371 -0.54352,2.21756 -0.23698,0.85007 -0.23698,0.85007 -1.18923,0.85007 -0.16979,0 -0.37394,0 -0.37394,0.33915 0,0.10197 0.0678,0.23698 0.20394,0.23698 0.50873,0 1.08703,-0.0678 1.59577,-0.0678 0.50873,0 1.15443,0.0678 1.63056,0.0678 0.13588,0 0.27176,-0.0678 0.27176,-0.33916 0,-0.23697 -0.20393,-0.23697 -0.37394,-0.23697 -0.33916,0 -0.74788,0 -0.74788,-0.1698 0,-0.0339 0,-0.0678 0.0678,-0.33916 z m -2.28278,4.34816 c -0.10197,0.23698 -0.10197,0.27176 -0.27176,0.50875 -0.61092,0.71309 -1.32402,1.12182 -1.90232,1.12182 -0.57831,0 -1.12183,-0.40873 -1.12183,-1.46098 0,-0.81528 0.44134,-2.47845 0.81529,-3.08721 0.67831,-1.22182 1.46097,-1.42619 1.86753,-1.42619 1.05225,0 1.3588,1.15444 1.3588,1.32402 0,0.0678 -0.0339,0.1698 -0.0339,0.20393 z"
     id="path89"
     style="stroke-width:2.17408" />
  <path
     d="m 262.80107,230.8703 c 0.37394,0 0.7805,0 0.7805,-0.44134 0,-0.40872 -0.40873,-0.40872 -0.7805,-0.40872 h -11.7183 c -0.37394,0 -0.74788,0 -0.74788,0.40872 0,0.44134 0.37394,0.44134 0.74788,0.44134 z"
     id="path90"
     style="stroke-width:2.17408" />
  <path
     d="m 283.28092,217.13011 c 0,-0.0339 0.0339,-0.23697 0.0339,-0.23697 0,-0.10196 -0.0339,-0.23699 -0.23698,-0.23699 -0.30654,0 -1.56316,0.13589 -1.93711,0.1698 -0.10196,0 -0.33915,0.034 -0.33915,0.33916 0,0.20393 0.23697,0.20393 0.40873,0.20393 0.7131,0 0.7131,0.13588 0.7131,0.23698 0,0.10109 0,0.20392 -0.034,0.33916 l -0.88268,3.45679 c -0.30653,-0.50874 -0.81528,-0.91747 -1.56316,-0.91747 -1.93711,0 -3.91335,2.13929 -3.91335,4.30468 0,1.49577 0.98486,2.52193 2.30453,2.52193 0.81528,0 1.52838,-0.44133 2.13929,-1.05225 0.27177,0.91747 1.15444,1.05225 1.56317,1.05225 0.54352,0 0.91747,-0.30654 1.18923,-0.78049 0.33915,-0.61091 0.54351,-1.46098 0.54351,-1.52838 0,-0.20393 -0.20393,-0.20393 -0.23697,-0.20393 -0.23698,0 -0.23698,0.0678 -0.33915,0.47613 -0.20394,0.74788 -0.47614,1.63056 -1.12183,1.63056 -0.37395,0 -0.50874,-0.33916 -0.50874,-0.74789 0,-0.27176 0.034,-0.40872 0.10197,-0.61091 z m -3.21764,8.1528 c -0.10196,0.44134 -0.44134,0.74789 -0.78049,1.01965 -0.13588,0.13588 -0.74789,0.61092 -1.39359,0.61092 -0.57831,0 -1.12183,-0.40873 -1.12183,-1.46098 0,-0.81529 0.44134,-2.47845 0.81528,-3.08721 0.67831,-1.22182 1.46099,-1.42619 1.86754,-1.42619 1.05226,0 1.3588,1.15443 1.3588,1.32402 0,0.0339 -0.0338,0.16979 -0.0338,0.20393 z"
     id="path91"
     style="stroke-width:2.17408" />
  <path
     style="color:#000000;fill:#000000;stroke-width:0.517552;stroke-miterlimit:10;-inkscape-stroke:none"
     d="m 272.45746,230.00381 v 0.86528 h 15.56599 v -0.86528 z"
     id="path92" />
  <path
     d="m 281.10684,233.21832 c 0,-0.034 0.0338,-0.23698 0.0338,-0.23698 0,-0.10196 -0.0338,-0.23698 -0.23697,-0.23698 -0.30655,0 -1.56316,0.13589 -1.9371,0.1698 -0.10197,0 -0.33916,0.0339 -0.33916,0.33915 0,0.20394 0.23697,0.20394 0.40873,0.20394 0.71309,0 0.71309,0.13588 0.71309,0.23697 0,0.1011 0,0.20393 -0.0339,0.33916 l -0.88267,3.45679 c -0.30654,-0.50873 -0.81528,-0.91745 -1.56316,-0.91745 -1.93711,0 -3.91335,2.13929 -3.91335,4.30467 0,1.49577 0.98486,2.52193 2.30453,2.52193 0.81528,0 1.52837,-0.44133 2.13929,-1.05224 0.27176,0.91746 1.15444,1.05224 1.56316,1.05224 0.54353,0 0.91747,-0.30653 1.18923,-0.78048 0.33916,-0.61092 0.54352,-1.46099 0.54352,-1.52838 0,-0.20394 -0.20393,-0.20394 -0.23697,-0.20394 -0.23698,0 -0.23698,0.0678 -0.33916,0.47613 -0.20394,0.74788 -0.47613,1.63056 -1.12183,1.63056 -0.37394,0 -0.50874,-0.33916 -0.50874,-0.74789 0,-0.27176 0.0339,-0.40872 0.10197,-0.6109 z m -3.21764,8.15281 c -0.10197,0.44134 -0.44134,0.74788 -0.7805,1.01964 -0.13588,0.13588 -0.74788,0.61092 -1.39358,0.61092 -0.57832,0 -1.12183,-0.40873 -1.12183,-1.46098 0,-0.81529 0.44134,-2.47845 0.81528,-3.0872 0.67832,-1.22183 1.46098,-1.4262 1.86753,-1.4262 1.05226,0 1.35881,1.15444 1.35881,1.32402 0,0.0339 -0.0339,0.16979 -0.0339,0.20393 z"
     id="path93"
     style="stroke-width:2.17408" />
  <path
     d="m 284.88974,237.28386 h 1.52838 c 0.30654,0 0.47613,0 0.47613,-0.33916 0,-0.20393 -0.16981,-0.20393 -0.44134,-0.20393 h -1.4262 l 0.54352,-2.23932 c 0.0339,-0.0678 0.0678,-0.16979 0.0678,-0.20392 0,-0.30655 -0.23697,-0.50874 -0.54352,-0.50874 -0.37393,0 -0.57831,0.27176 -0.7131,0.64571 -0.10196,0.40872 0.10196,-0.33916 -0.57831,2.30453 h -1.52837 c -0.27176,0 -0.47612,0 -0.47612,0.33916 0,0.20392 0.16979,0.20392 0.44134,0.20392 h 1.42619 l -0.88267,3.5655 c -0.10197,0.37394 -0.23698,0.91747 -0.23698,1.12182 0,0.88268 0.7805,1.4262 1.63056,1.4262 1.69796,0 2.65238,-2.10669 2.65238,-2.30453 0,-0.19783 -0.20393,-0.20392 -0.23697,-0.20392 -0.20393,0 -0.20393,0.0339 -0.33916,0.30655 -0.40873,0.95224 -1.18922,1.80013 -2.00451,1.80013 -0.33915,0 -0.54352,-0.20393 -0.54352,-0.74788 0,-0.13588 0.0678,-0.47612 0.10197,-0.61092 z"
     id="path94"
     style="stroke-width:2.17408" />
  <path
     d="m 299.97787,222.04354 c -0.20393,-0.88269 -0.88268,-1.76536 -2.30453,-1.76536 -2.1393,0 -3.86987,1.56316 -4.41338,2.95675 -0.10196,0.23697 -0.30655,0.85007 -0.30655,1.46099 0,1.05225 0.81529,2.78282 3.15242,2.78282 3.93509,0 5.54391,-4.89169 5.54391,-7.02229 0,-2.6089 -1.69796,-4.08727 -3.73942,-4.08727 -2.47845,0 -3.15242,1.96973 -3.15242,2.41323 0,0.13588 0.10196,0.54352 0.61091,0.54352 0.54353,0 0.85007,-0.44134 0.85007,-0.81528 0,-0.40873 -0.30654,-0.54352 -0.5783,-0.57831 0.74788,-1.15444 2.0045,-1.15444 2.2393,-1.15444 1.15444,0 2.47845,0.7131 2.47845,2.89153 0,0.6457 -0.0678,1.18923 -0.33915,2.36976 z m -3.84813,4.9569 c -1.69795,0 -1.90231,-1.2914 -1.90231,-1.76535 0,-0.57831 0.40872,-2.07191 0.5783,-2.43497 0.27176,-0.7131 1.18922,-2.10669 2.91327,-2.10669 1.46099,0 1.93711,1.15444 1.93711,2.0719 0,1.01965 -0.98486,4.23946 -3.52202,4.23946 z"
     id="path95"
     style="stroke-width:2.17408" />
  <path
     d="m 306.10878,225.6786 c 0.81528,-1.08704 1.12183,-2.21756 1.25662,-2.84805 0.40873,-1.46098 1.12183,-3.91335 2.34801,-5.06561 0.20393,-0.20393 0.50873,-0.23697 0.78049,-0.23697 0.74789,0 1.22184,0.54352 1.22184,1.2914 0,0.23698 -0.0678,0.40873 -0.0678,0.44134 0,0.10196 0.0678,0.13588 0.16979,0.13588 0.13588,0 0.54352,-0.10197 0.95225,-0.40873 0.33915,-0.23697 0.50873,-0.40873 0.50873,-0.98486 0,-0.6457 -0.40873,-1.49576 -1.52838,-1.49576 -1.2914,0 -2.7176,0.85006 -3.56549,1.83492 -1.39359,1.56317 -2.00451,3.84813 -2.41323,5.47869 -0.44134,1.69796 -1.32402,2.65238 -1.39358,2.76108 -0.13589,0.10197 -0.7131,0.61092 -0.7131,0.81528 0,0.10196 0.13587,0.10196 0.16978,0.10196 0.10198,0 0.67832,-0.0678 1.4262,-0.85006 0.7805,0 1.39359,0.13588 2.67412,0.44134 0.85007,0.20393 1.69796,0.40872 2.58717,0.40872 1.01964,0 1.90231,-0.50873 2.36975,-0.88267 1.08704,-0.81528 1.15443,-1.52838 1.15443,-1.56317 0,-0.0678 -0.0339,-0.13588 -0.16979,-0.13588 -0.20394,0 -1.18923,0.37395 -1.39359,0.95225 -0.20393,0.61092 -0.37394,0.61092 -0.74789,0.61092 -0.81527,0 -1.93711,-0.27176 -2.41322,-0.37394 -0.88268,-0.23698 -1.76536,-0.44134 -2.65239,-0.44134 -0.1698,0 -0.37393,0 -0.57831,0.0339 z"
     id="path96"
     style="stroke-width:2.17408" />
  <path
     style="color:#000000;fill:#000000;stroke-width:0.517552;stroke-miterlimit:10;-inkscape-stroke:none"
     d="m 292.02135,230.00381 v 0.86528 h 22.17589 v -0.86528 z"
     id="path97" />
  <path
     d="m 302.15195,238.13175 c -0.20392,-0.88269 -0.88267,-1.76535 -2.30452,-1.76535 -2.1393,0 -3.86987,1.56315 -4.41339,2.95674 -0.10197,0.23698 -0.30655,0.85007 -0.30655,1.46099 0,1.05225 0.81528,2.78283 3.15243,2.78283 3.93508,0 5.5439,-4.8917 5.5439,-7.02229 0,-2.60891 -1.69796,-4.08729 -3.73942,-4.08729 -2.47845,0 -3.15242,1.96973 -3.15242,2.41324 0,0.13588 0.10197,0.54352 0.61092,0.54352 0.54352,0 0.85007,-0.44134 0.85007,-0.81529 0,-0.40872 -0.30655,-0.54352 -0.57831,-0.5783 0.74789,-1.15444 2.0045,-1.15444 2.23931,-1.15444 1.15444,0 2.47844,0.7131 2.47844,2.89153 0,0.64571 -0.0678,1.18924 -0.33914,2.36976 z m -3.84812,4.95691 c -1.69796,0 -1.90233,-1.29141 -1.90233,-1.76536 0,-0.57831 0.40873,-2.0719 0.57831,-2.43497 0.27176,-0.7131 1.18923,-2.10669 2.91327,-2.10669 1.46099,0 1.93711,1.15444 1.93711,2.0719 0,1.01965 -0.98486,4.23947 -3.52202,4.23947 z"
     id="path98"
     style="stroke-width:2.17408" />
  <path
     d="m 310.54391,233.91402 c 0,-0.47612 -0.37395,-0.88267 -0.85006,-0.88267 -0.50874,0 -0.88268,0.44134 -0.88268,0.88267 0,0.47612 0.40873,0.88267 0.88268,0.88267 0.50872,0 0.85006,-0.44134 0.85006,-0.88267 z"
     id="path99"
     style="stroke-width:2.17408" />
  <path
     d="m 312.78321,237.00122 c 0,-0.0678 0.0339,-0.13588 0.0339,-0.20392 0,-0.10197 -0.0678,-0.23698 -0.20394,-0.23698 -0.13609,0 -0.78049,0.50874 -1.08704,1.01965 -0.13587,-0.30655 -0.6457,-1.01965 -1.63055,-1.01965 -1.93711,0 -3.91335,2.13929 -3.91335,4.30469 0,1.49576 0.98485,2.52193 2.30453,2.52193 0.85005,0 1.56315,-0.54352 1.90231,-0.81528 -0.0339,0.0339 -0.50873,1.9371 -0.54352,2.21756 -0.23698,0.85007 -0.23698,0.85007 -1.18922,0.85007 -0.16979,0 -0.37394,0 -0.37394,0.33915 0,0.10197 0.0678,0.23698 0.20393,0.23698 0.50873,0 1.08704,-0.0678 1.59577,-0.0678 0.50874,0 1.15444,0.0678 1.63057,0.0678 0.13588,0 0.27175,-0.0678 0.27175,-0.33916 0,-0.23697 -0.20393,-0.23697 -0.37394,-0.23697 -0.33916,0 -0.74788,0 -0.74788,-0.1698 0,-0.0339 0,-0.0678 0.0678,-0.33916 z m -2.28278,4.34816 c -0.10197,0.23698 -0.10197,0.27176 -0.27176,0.50875 -0.61092,0.71309 -1.32402,1.12182 -1.90233,1.12182 -0.5783,0 -1.12182,-0.40873 -1.12182,-1.46098 0,-0.81528 0.44133,-2.47845 0.81528,-3.08721 0.67831,-1.22182 1.46098,-1.42619 1.86753,-1.42619 1.05226,0 1.35881,1.15444 1.35881,1.32402 0,0.0678 -0.0339,0.1698 -0.0339,0.20393 z"
     id="path100"
     style="stroke-width:2.17408" />
  <path
     d="m 339.50268,228.76145 c 0.33916,0 0.74789,0 0.74789,-0.40873 0,-0.44134 -0.40873,-0.44134 -0.7131,-0.44134 H 326.5582 c -0.30655,0 -0.7131,0 -0.7131,0.44134 0,0.40873 0.40873,0.40873 0.7131,0.40873 z m 0.034,4.21772 c 0.30654,0 0.7131,0 0.7131,-0.44134 0,-0.40873 -0.40873,-0.40873 -0.74789,-0.40873 h -12.93584 c -0.30655,0 -0.7131,0 -0.7131,0.40873 0,0.44134 0.40873,0.44134 0.7131,0.44134 z"
     id="path101"
     style="stroke-width:2.17408" />
  <path
     d="m 356.33008,228.93538 c 0,-1.73275 -0.10197,-3.4568 -0.85008,-5.06561 -0.98485,-2.10669 -2.78282,-2.43498 -3.67419,-2.43498 -1.32402,0 -2.89153,0.5783 -3.80464,2.58715 -0.67832,1.49578 -0.7805,3.19591 -0.7805,4.93517 0,1.63057 0.0678,3.5655 0.98486,5.23954 0.91746,1.73275 2.52193,2.17409 3.5655,2.17409 1.15443,0 2.8263,-0.44134 3.76115,-2.52195 0.67832,-1.49576 0.7805,-3.19589 0.7805,-4.89168 z m -4.54384,6.93532 c -0.85006,0 -2.13929,-0.54353 -2.52194,-2.6089 -0.23697,-1.29141 -0.23697,-3.30461 -0.23697,-4.58732 0,-1.39358 0,-2.8263 0.1698,-3.97856 0.40873,-2.58716 2.03929,-2.78283 2.58715,-2.78283 0.7131,0 2.1393,0.40873 2.54368,2.54368 0.23697,1.22183 0.23697,2.84804 0.23697,4.21771 0,1.63057 0,3.0872 -0.23697,4.47862 -0.33916,2.07189 -1.56316,2.7176 -2.54368,2.7176 z"
     id="path102"
     style="stroke-width:2.17408" />
</svg>
