<svg width="400mm" height="300mm" viewBox="0 0 400 300" xmlns="http://www.w3.org/2000/svg"><path d="M84.755 262.456c-.636-2.857-4.244 1.428-1.175 1.386.623-.153 1.172-.723 1.175-1.386zm-1.998 9.991c1.729-2.024.744-6.44-2.497-4.76-.962.543-3.082 3.617-1.68 3.915.042-1.456 2.484-5.257 3.53-2.853-.452 2.771-1.938 5.263-2.69 7.956-.556 3.705 4.772 3.02 5.15-.033.844-.772.1-2.721-.36-.874.12 1.818-3.68 4.632-3.2 1.384.53-1.594 1.173-3.154 1.747-4.735zM93.334 264.454c1.886-.025 3.78.052 5.662-.041.535-1.028-1.529-.493-2.199-.625h-3.292c.293-1.358 1.623-3.986-.994-3.073-1.087-.368-3.807.894-1.374 1.037 1.682-.106.744 2.758-.709 2.034-1.914-.028-.453 1.016.649.666.887-.1-.08 1.25-.026 1.801-1.01 4.12-2.098 8.23-3.059 12.357 1.256 2.154 2.297-1.194 2.375-2.438.562-1.812.76-3.756 1.51-5.487.773-1.822 4.368-4.27 5.41-1.604.293 2.844-1.456 5.366-1.941 8.074.249 3.67 5.156 2.037 5.378-.854.835-1.112-.45-1.934-.56-.321.107 1.66-3.39 4.34-3.137 1.409.625-2.711 2.377-5.327 1.91-8.19-.705-2.403-4.058-2.287-5.713-.973-.885.802-1.363 1.423-.866.006l.976-3.778zM116.54 262.11c-.648-2.9-4.464-2.508-6.262-.992-2.09 1.37-3.349 4.772-1.244 6.682 2.466 2.08 6.301.582 7.754-2.015 1.668-2.686 2.826-6.688.448-9.324-1.99-2.233-6.61-1.562-7.093 1.652.972 1.9 2.398-.86 1.26-1.29 1.414-1.91 4.979-1.408 5.444 1.059.325 1.375.11 2.951-.307 4.228zm-4.716 6.074c-3.065.065-2.487-3.699-1.46-5.509.82-1.9 3.736-3.146 5.266-1.372 1.215 2.02-.025 4.644-1.613 6.098-.612.502-1.401.805-2.193.783z" style="fill:#fafafa;fill-opacity:.28169653;stroke-width:2.66427"/><path style="color:#000;fill:#fafafa;fill-opacity:.28169653;stroke-width:.896379;stroke-miterlimit:10;-inkscape-stroke:none" d="M104.13 271.865c-.285 1.05.318 1.214 1.237 1.06h19.25c.283-1.05-.32-1.213-1.239-1.06H104.13z"/><path d="M113.876 281.825c-.648-2.9-4.464-2.507-6.262-.992-2.09 1.371-3.349 4.772-1.244 6.682 2.465 2.08 6.3.583 7.753-2.015 1.67-2.685 2.827-6.687.448-9.323-1.99-2.233-6.61-1.562-7.092 1.652.972 1.9 2.398-.86 1.26-1.29 1.414-1.91 4.979-1.408 5.444 1.059.325 1.375.11 2.951-.307 4.227zm-4.716 6.075c-3.065.064-2.487-3.7-1.46-5.51.819-1.899 3.735-3.146 5.266-1.371 1.215 2.019-.025 4.643-1.613 6.098-.612.501-1.401.805-2.193.783zM122.028 280.786c.79-.15 2.076.366 2.457-.415-.425-.606-1.866.04-2.26-.37.203-1.044.616-2.092.67-3.13-2.183-1.502-1.236 3.215-2.693 3.248-.712-.239-2.992.313-1.297.665.563.144 2.042-.428 1.475.601-.402 1.715-.895 3.414-1.223 5.143.343 2.78 4.217 1.786 4.914-.314.928-1.855-.913-.413-1.106.575-1.343 2.05-3.132.397-2.084-1.391l1.147-4.612zM139.426 263.016c-.163-1.919 2.538-.948 3.413-1.414-.009-1.548-2.868-.185-4.035-.624-1.485.351-4.31-.684-4.97.412.375.965 2.82-.35 3.334 1.02.089 4.123.014 8.255.039 12.382-2.92-.715-3.676-4.146-3.57-6.74.204-1.84-.8-4.162-2.993-3.704-2.484.103 1.03.88.644 2.292.17 2.464.156 5.278 2.119 7.108.772 1.565 3.809.852 3.804 2.453.471 1.75-1.273 2.278-2.746 2.004-1.498-.01-.125 1.444.923.768 2.485-.019 4.973-.066 7.456.063.408-1.48-1.546-.532-2.342-.898-1.526.005-.967-1.706-1.071-2.68 2.847-.215 5.403-2.385 5.805-5.261.5-1.786-.498-4.722 1.878-5.362-.1-.899-2.788-.622-3.245.292-1.153 2.268-.185 5.036-1.48 7.29-.274 1.094-3.406 3.661-2.951 1.276l-.012-10.677zM158.21 285.422c-1.928-2.038-3.394-4.569-3.983-7.348-1.125-5.384-.974-11.448 2.04-16.222.472-.712 3.187-3.59.906-2.199-4.916 4.4-5.982 11.755-4.484 17.917.818 3.16 2.53 6.303 5.28 8.145.083.12.394-.266.24-.293z" style="fill:#fafafa;fill-opacity:.28169653;stroke-width:2.66427"/><path d="M162.818 270.103v-2.984l-4.422.208c-.666 1.84 1.457.733 1.82 1.947.029 2.85.004 5.7.013 8.55-.592.184-2.004-.452-1.833.495-.131 1.78 3.054.12 4.191.673 1.216-.161 3.356.756 2.816-1.168h-2.289c.121-2.636-.381-5.387.643-7.894.31-1.382 3.444-2.892 2.133-.65.001 2.797 4.53 1.424 3.002-.935-1.41-2.044-4.838-1.385-5.688.866-.15.288-.275.588-.386.892zM176.14 279.013c.69-2.134-2.74-4.15-3.123-1.383-.23 1.956 2.346.878 2.498 1.374.45 1.988-1.782 3.817-1.83 5.156 1.614-1.095 2.445-3.315 2.455-5.147zM189.514 268.45c1.038-.031 2.09.072 3.118-.067.684-1.219-1.438-.624-2.145-.764-1.615-.063.487-2.997.325-4.218-.239-2.04-2.229-.209-2.066 1.098l-.774 3.128c-1.032.03-2.076-.067-3.098.063-.65 1.233 1.451.63 2.165.771 1.61.007-.414 2.84-.295 4.005-.322 2.166-2.283 5.363.434 6.719 2.515.861 4.534-1.769 5.208-3.898-1.237-.429-1.536 3.177-3.396 3.356-2.19.739-1.62-2.072-1.197-3.317l1.721-6.875zM199.719 272.394c.022-4.902-1.655-10.165-5.689-13.213-1.212.417 1.64 2.045 1.773 3.09 2.734 4.82 2.85 10.743 1.715 16.046-.613 2.683-2.048 5.145-3.949 7.092 1.519.32 2.947-2.408 3.886-3.717 1.622-2.797 2.322-6.146 2.263-9.298zM228.919 270.342c2.109-.43-.27-1.402-1.32-1.041-4.946.006-9.892-.012-14.838.008-1.597.972.924 1.176 1.78 1.033h14.378zm.042 5.169c2.068-.527-.381-1.365-1.405-1.042-4.928.005-9.857-.01-14.786.008-1.595.941.924 1.192 1.781 1.034h14.41zM251.992 253.69l-3.57 3.624c.516.974 1.11-.29 1.67-.6l1.905-1.66 3.037 2.718c.987-.528-.328-1.076-.66-1.615l-2.382-2.466zM257.613 262.936c-.281-2.006 4.062-.507 2.747-2.039-2.377.313-5.048-.301-7.272.229.058 1.25 3.477-.014 2.176 2.205l-1.435 5.846h-8.126c.64-2.34 1.11-4.744 1.867-7.037.532-.717 3.738-.004 2.463-1.236-2.377.313-5.048-.301-7.273.229.055 1.245 3.475-.005 2.174 2.204-1.208 4.752-2.357 9.52-3.603 14.261-.35 1.134-3.842.056-2.563 1.446 2.388-.3 5.039.29 7.285-.228-.076-1.212-3.466-.018-2.179-2.24l1.652-6.553h8.073c-.724 2.597-1.128 5.32-2.082 7.832-.567.693-3.65-.077-2.413 1.2 2.388-.3 5.04.29 7.285-.228-.092-1.212-3.457-.024-2.14-2.24l3.364-13.651zM272.64 263.016c-.163-1.919 2.538-.948 3.413-1.414-.01-1.548-2.868-.185-4.035-.624-1.485.351-4.31-.684-4.97.412.374.965 2.82-.35 3.333 1.02.09 4.123.015 8.255.04 12.382-2.921-.715-3.676-4.146-3.57-6.74.203-1.84-.8-4.162-2.994-3.704-2.483.103 1.03.88.644 2.292.17 2.464.157 5.278 2.12 7.108.772 1.565 3.808.852 3.804 2.453.47 1.75-1.274 2.278-2.747 2.004-1.497-.01-.124 1.444.924.768 2.485-.019 4.973-.066 7.455.063.408-1.48-1.546-.532-2.341-.898-1.526.005-.968-1.706-1.072-2.68 2.847-.215 5.403-2.385 5.806-5.261.5-1.786-.499-4.722 1.878-5.362-.1-.899-2.788-.622-3.246.292-1.152 2.268-.185 5.036-1.479 7.29-.275 1.094-3.406 3.661-2.952 1.276l-.011-10.677zM291.423 285.422c-1.927-2.038-3.394-4.569-3.983-7.348-1.125-5.384-.973-11.448 2.04-16.222.473-.712 3.188-3.59.906-2.199-4.915 4.4-5.981 11.755-4.484 17.917.818 3.16 2.53 6.303 5.281 8.145.083.12.394-.266.24-.293zM298.696 270.103v-2.984l-4.422.208c-.666 1.84 1.457.733 1.82 1.947.028 2.85.004 5.7.013 8.55-.592.184-2.004-.452-1.833.495-.131 1.78 3.054.12 4.19.673 1.217-.161 3.356.756 2.817-1.168h-2.29c.122-2.636-.38-5.387.644-7.894.31-1.382 3.444-2.892 2.133-.65.001 2.797 4.53 1.424 3.002-.935-1.41-2.044-4.838-1.385-5.688.866-.15.288-.275.588-.386.892zM312.018 279.013c.69-2.134-2.74-4.15-3.123-1.383-.23 1.956 2.345.878 2.498 1.374.45 1.988-1.782 3.817-1.831 5.156 1.615-1.095 2.446-3.315 2.456-5.147zM322.728 268.45c1.038-.031 2.09.072 3.117-.067.685-1.219-1.437-.624-2.145-.764-1.614-.063.488-2.997.326-4.218-.24-2.04-2.229-.209-2.067 1.098l-.774 3.128c-1.031.03-2.075-.067-3.097.063-.651 1.233 1.45.63 2.165.771 1.61.007-.415 2.84-.296 4.005-.322 2.166-2.283 5.363.435 6.719 2.514.861 4.533-1.769 5.208-3.898-1.237-.429-1.536 3.177-3.396 3.356-2.19.739-1.62-2.072-1.198-3.317l1.722-6.875zM335.596 272.394c.023-4.902-1.654-10.165-5.688-13.213-1.212.417 1.64 2.045 1.773 3.09 2.734 4.82 2.85 10.743 1.714 16.046-.612 2.683-2.047 5.145-3.948 7.092 1.519.32 2.947-2.408 3.886-3.717 1.622-2.797 2.321-6.146 2.263-9.298z" style="fill:#fafafa;fill-opacity:.28169653;stroke-width:2.66427"/><path d="M92.97 170.758c.766-1.839-1.508-1.062-1.395.363-1.562 3.49-3.47 7.534-7.506 8.606-3.596.97-7.357.49-11.036.607-.83-.103-1.84.254-2.523-.292.258-2.07.965-4.1 1.422-6.153l2.038-8.088c2.568.106 5.204-.287 7.708.392 2.598.797-.795 4.797 1.369 5.127.809-1.176.84-2.741 1.268-4.102l1.903-7.89c-1.544-1.595-1.372 2.64-2.463 3.403-1.711 2.14-4.668 1.553-7.092 1.65h-2.316c1.054-4.151 1.99-8.336 3.124-12.464.69-1.33 2.447-.709 3.684-.848 3.274.108 6.622-.324 9.822.525 2.238.568 2.893 3.093 2.716 5.123.19 1.01-1.143 4.162.798 3.302.498-3.166.79-6.378 1.171-9.567.019-1.421-1.888-.661-2.812-.846-7.695.01-15.39-.02-23.085.015-1.992.682.237 2.032 1.47 1.473 2.212-.485 2.403 1.335 1.659 2.855-2.088 8.36-4.138 16.731-6.251 25.085-.854 2.236-3.821.648-5.309 1.71-.46 1.644 1.77.976 2.753 1.11 7.906-.015 15.813.031 23.717-.023 1.038-.37 1.083-1.77 1.608-2.65l3.559-8.423zM144.675 166.29c2.334.504 1.745-2.615-.301-1.857-9.507.01-19.014-.02-28.52.015-2.16.407-.343 2.514 1.156 1.843h27.665zm.075 9.22c2.346.382 1.554-2.669-.454-1.858-9.475.009-18.95-.018-28.425.014-2.162.356-.335 2.524 1.156 1.844h27.723zM163.85 179.008c-1.11 1.66.058 4.554 2.178 2.856 1.053-1.393 1.057-3.314 1.614-4.946.82-3.166 1.447-6.396 2.45-9.502 1.508-3.065 4.628-5.945 8.277-5.408 2.245.665 1.896 3.612 1.555 5.393-.871 3.77-1.827 7.524-2.796 11.269-1.09 1.654-.275 4.924 2.044 3.244 1.213-1.941 1.295-4.374 2.008-6.526.756-2.63 1.17-5.372 2.069-7.948 1.508-3.14 4.812-6.171 8.53-5.354 1.952.91 1.64 3.516 1.29 5.265-.68 3.606-2.335 6.929-3.267 10.454-.557 2.613 2.032 5.108 4.622 4.438 3.185-.827 4.703-4.266 5.421-7.194-1.57-1.585-1.533 2.655-2.562 3.57-.567 1.7-4.046 4.127-4.72 1.479-.063-2.509 1.439-4.694 2.064-7.064.855-2.938 2.362-6.107 1.35-9.19-1.296-3.255-5.586-3.54-8.4-2.295-1.85.811-3.316 2.296-4.455 3.934.126-2.823-2.703-4.817-5.341-4.605-3.004-.068-5.77 1.726-7.414 4.158.052-3.041-3.78-5.34-6.315-3.527-1.92 1.64-2.415 4.301-2.966 6.645 1.51 1.587 1.515-2.387 2.163-3.386.022-2.274 4.027-4.402 4.064-1.029-.096 2.857-1.144 5.58-1.74 8.362l-1.722 6.907zM221.234 163.867c-2.092-.52-4.168 2.602-2.147 3.932 2.176 1.045 4.143-1.658 3.452-3.656-.947-3.077-4.8-3.668-7.538-3.013-5.993 1.483-10.706 7.414-10.6 13.618-.02 3.76 2.918 7.397 6.788 7.586 4.33.343 8.812-1.643 11.412-5.128.265-2.354-1.78.336-2.456 1.002-2.42 2.125-5.757 3.443-8.997 3.029-2.954-.6-3.63-4.148-3.132-6.683.734-4.319 2.082-9.209 6.056-11.646 2.173-1.365 5.707-1.316 7.191 1.02zM238.2 158.212c-2.15-.664-.65 2.941-2.537 3.099-2.936.175-5.88.06-8.82.094 2.955-2.739 6.27-5.065 9.186-7.842 2.35-2.17 3.008-6.125.845-8.654-3.152-3.693-10.187-3.676-12.631.811-1.129 1.52-.817 4.94 1.729 4.22 1.875-.613 1.232-3.784-.803-3.452 1.455-3.637 7.322-4.202 9.172-.616 1.742 3.065.038 6.653-2.199 8.93-2.758 2.815-5.559 5.592-8.356 8.368-.82 1.45.864 1.017 1.732 1.067h11.798l.884-6.025z" style="fill:#fafafa;fill-opacity:.28169653;stroke-width:4.75226"/><path d="M178.175 118.06c.387 1.807-3.264.655-1.908 2.14 1.924-.334 4.139.334 5.893-.255.24-1.435-3.21.022-1.926-2.12.463-1.364.797-4.439 1.403-4.636 1.118 2.252 4.133 1.753 5.777.438 3.053-2.23 5.073-6.675 3.317-10.281-1.067-2.218-4.174-2.606-5.928-.994-.842.635-1.356 1.774-1.649.182-1.998-2.866-5.239.02-5.238 2.677-.325 2.225 1.223-.1 1.097-1.125.02-2.009 3.24-3.025 2.69-.295-1.078 4.774-2.366 9.51-3.528 14.268zm5.209-12.889c.71-1.879 3.518-4.38 5.343-2.475 1.19 2.243.046 4.87-.542 7.13-.648 1.93-2.027 4.375-4.366 4.247-1.62-.351-2.326-2.377-1.705-3.81l1.27-5.092zM210.372 97.551c.606-2.053 3.086-2.037 4.2-3.024-1.512-.809-3.922.011-5.766-.372-1.974 1.067 2.515.895 1.043 2.64-3.06 4.996-6.219 9.936-9.318 14.91l-2.048-15.716c.087-1.38 3.778-.356 2.42-1.813-2.37.054-4.747.177-7.114.01-1.369 1.651 2.965.17 2.2 2.437.792 6.048 1.494 12.11 2.344 18.148.948 1.062 1.669-.735 2.148-1.438l9.89-15.781zM245.107 104.695c2.162-.255.113-1.601-1.066-1.164-5.662.006-11.324-.012-16.985.01-1.757 1.003.868 1.336 1.815 1.154h16.236zm.047 5.774c2.133-.365-.013-1.568-1.162-1.163-5.642.006-11.284-.012-16.926.009-1.755.967.869 1.353 1.816 1.155h16.272zM257.118 112.66c-1.381 2.183 2.004 2.842 1.93.428.746-2.625 1.177-5.355 2.098-7.917.952-1.97 3.93-4.393 5.906-2.528.783 2.166-.382 4.422-.974 6.504-1.012 1.833-1.774 5.238 1.233 5.585 2.385.12 4.08-2.786 4-4.826-1.382.666-1.206 3.93-3.43 4.16-2.269-.637.153-3.819.367-5.36.629-2.092 1.933-5.03-.132-6.74-2.316-1.517-5.515-.252-6.911 1.952.062-2.195-3.134-3.634-4.472-1.684-.49.878-2.176 3.822-.71 3.857.144-1.484 1.867-5.926 3.259-3.124-.13 2.444-1.02 4.784-1.533 7.173l-.632 2.52zM283.474 96.212c1.024-2.12 4.6-.932 6.522-.594 2.251.997 1.56 3.923.632 5.628-1.461 2.593-4.714 2.832-7.385 2.727-.583-.147-2.09.43-1.545-.6l1.776-7.161zm4.287 8.126c2.71-.637 5.876-2.178 6.478-5.169.437-2.901-2.589-4.722-5.108-4.924-3.4-.175-6.812-.057-10.217-.077-1.867 1.715 3.592.003 2.07 2.397-1.376 5.412-2.685 10.844-4.103 16.243-.392 1.267-4.292.062-2.864 1.616 2.572-.112 5.145-.072 7.716-.009 1.533-1.796-3.565.018-2.187-2.304l1.863-7.497c1.827.105 3.751-.294 5.482.42 2.14 1.203.914 3.837.553 5.668-.823 2.18 1.01 4.447 3.287 4.362 1.92.498 4.658-2.195 3.709-3.744-.672 1.205-2.195 4.265-4.04 2.645-.952-2.638 1.198-5.702-.495-8.164-.538-.7-1.322-1.172-2.144-1.463zM308.834 96.42c.546-2.16 3.64-.826 5.257-1.01 2.405.476 1.505 3.488 1.29 5.197.804 1.218.966-1.092 1.063-1.746.162-1.46.581-2.924.56-4.38-1.512-.287-3.14-.068-4.701-.137-4.304.01-8.609-.02-12.912.016-.828.451-.8 1.656-1.2 2.464-.438 1.298-.885 2.593-1.317 3.893 1.483.648 1.304-3.114 2.56-3.975 1.526-1.85 4.114-1.396 6.244-1.472 1.599-.167.322 1.688.308 2.538-1.228 4.889-2.428 9.785-3.672 14.67-.564 2.122-4.809-.13-4.51 1.914 3.507.01 7.029-.069 10.541.037 1.64-2.09-4.464.352-3.429-2.222l3.918-15.787z" style="fill:#fafafa;fill-opacity:.28169653;stroke-width:2.9765"/><path d="M29.617 50.411c.948-3.416 1.811-6.91 1.888-10.467-.828-2.69-4.475-1.429-6.405-.83-2.655 1.093-5.242 3.018-6.299 5.772 1.964.721 3.17-1.962 4.19-3.278 1.3-1.267 4.463-2.259 5.501-.3.011 3.082-.796 6.127-1.468 9.126-1.44-.14-3.161.289-3.815 1.689.614.46 1.782.107 2.622.218 1.469.036-.534 2.68-.462 3.732-.744 2.444-1.63 4.846-2.487 7.248 1.943.68 3.412-1.83 3.762-3.568a113.413 113.413 0 0 0 2.397-7.382c2.86-.025 5.725.05 8.582-.041 1.712-.718-.157 2.384-.038 3.463-.388 2.255-1.123 4.567-.794 6.863 1.284 2.155 4.414.947 6.271.202 1.052-.553 3.48-2.138 2.548-3.28-2.25.09-2.774 3.41-5.291 2.165-1.6-1.807-.032-4.678.076-6.855 1.178-5.55 3.017-10.934 4.96-16.254-1.89-.817-3.416 1.911-3.775 3.621-1.007 2.698-1.86 5.45-2.674 8.21l-9.289-.054zM80.714 50.655c2.327-.041.588-1.908-.81-1.364-6.786.007-13.572-.015-20.357.01-1.983.858.546 1.663 1.624 1.354h19.543zm.054 6.771c2.308-.172.441-1.888-.922-1.364-6.762.006-13.525-.014-20.287.01-1.98.808.547 1.681 1.625 1.354h19.584zM96.814 66.326c.479 2.04-3.85.883-2.237 2.51 2.256-.391 4.853.392 6.91-.299.44-1.723-3.42.15-2.354-2.066.48-2.092 1.028-4.168 1.552-6.249.763 2.252 3.575 2.755 5.498 1.736 4.261-2.019 7.111-7.3 5.775-11.938-.722-2.69-4.095-4.238-6.502-2.678-1.296.333-2.424 3.155-2.803.78-1.092-1.885-4.331-1.907-5.103.302-.33.982-2.098 3.959-.47 3.896.546-1.64 1.23-6.027 3.705-4.342.554 1.983-.491 3.936-.84 5.878l-3.13 12.47zm6.108-15.112c.817-1.956 2.866-3.912 5.123-3.707 2.32.9 1.808 3.897 1.41 5.843-.706 3.018-1.54 6.63-4.578 8.118-1.961.946-3.8-1.147-3.75-3.023.584-2.414 1.2-4.82 1.795-7.231zM120.607 52.086c-.705-2.782-4.098 1.424-1.117 1.333.583-.164 1.094-.711 1.117-1.333zm-4.956 12.39c-1.355 2.87 3.268 4.212 4.488 1.67.744-.47 1.629-3.613.201-2.206.135 1.59-3.201 4.541-3.133 1.681.653-2.376 1.94-4.57 2.48-6.972-.379-3.352-5.033-2.062-5.518.625-1.042 1.294.77 1.939.788.241.18-2.03 3.998-3.304 2.694-.242-.651 1.74-1.334 3.469-2 5.204zM136.802 40.638c.018-3.152-5.127-1.612-3.397.995.955 1.558 3.437.826 3.397-.995zM138.861 47.06c-1.375-1.287-2.619 3.835-3.345.886-1.679-2.16-4.921-1.181-6.695.342-3.261 2.663-5.378 7.542-3.593 11.603 1.096 2.622 4.695 3.298 6.796 1.495.728-.52 1.57-1.61.946-.045-.542 1.926-.867 3.926-1.553 5.805-.591.916-4.108.1-2.607 1.649 2.487-.39 5.325.38 7.615-.3.243-1.625-3.722.047-2.296-2.458l4.732-18.977zm-9.598 14.624c-2.534-.19-2.44-3.5-1.992-5.33.683-3.17 1.412-6.937 4.52-8.63 2.138-1.18 4.44 1.546 3.714 3.588-.645 2.448-1.109 4.971-1.96 7.349-.976 1.429-2.564 2.939-4.282 3.023zM148.529 33.937c-.705-2.782-4.099 1.424-1.118 1.333.584-.164 1.095-.711 1.118-1.333zm-4.956 12.39c-1.356 2.87 3.268 4.212 4.488 1.67.744-.47 1.628-3.613.201-2.206.135 1.59-3.201 4.541-3.133 1.681.652-2.376 1.939-4.57 2.48-6.972-.379-3.352-5.033-2.062-5.518.625-1.042 1.294.77 1.939.788.241.18-2.03 3.998-3.304 2.694-.242-.651 1.74-1.335 3.469-2 5.203zM180.953 54.04c2.537-.175.44-1.886-.99-1.364-6.088.007-12.176-.013-18.263.01-2.005.833.587 1.673 1.679 1.355h17.574zM199.242 58.85c2.922-4.294 3.105-9.682 5.203-14.335.925-1.753 1.714-4.298 3.844-4.807 2.582-.477 3.144 2.563 2.79 4.366 1.968-.002 4.04-1.796 3.392-3.93-.094-2.227-2.582-3.109-4.45-2.468-4.157.932-7.433 4.309-8.86 8.248-1.707 3.686-2.085 7.806-3.652 11.531-.515 2.063-2.92 3.56-3.263 5.329 2.14-.035 3.215-2.823 5.49-1.747 3.505.642 7.132 2.61 10.716 1.33 2.32-.926 4.65-2.626 5.349-5.13-1.754-.722-3.506 1.66-4.153 3.217-2.25.482-4.578-.59-6.776-1.097-1.814-.456-3.783-1.001-5.63-.507z" style="fill:#fafafa;fill-opacity:.28169653;stroke-width:3.49022"/><path d="M206.627 214.756c-.665-2.626-4.234-1.935-5.647-.357-1.571 1.315-2.003 4.244.008 5.359 2.456 1.324 5.345-.497 6.327-2.848 1.14-2.226 1.68-5.58-.675-7.223-1.77-1.302-5.09-.484-5.209 1.95.582 1.298 2.316-.765.859-.992 1.358-2.266 5.16-.895 4.718 1.737-.008.794-.132 1.664-.38 2.374zm-3.848 4.957c-2.99-.11-1.839-4.178-.412-5.521 1.507-1.749 4.774-.348 3.83 2.056-.387 1.626-1.536 3.495-3.418 3.465zM212.106 218.391c1.755-2.425 1.42-5.97 3.774-8.037 1.294-.66 1.956.924 1.935 1.755 2.817-.317.886-4.165-1.296-2.662-3.187 1.138-4.182 4.739-4.934 7.688.039 1.144-2.17 2.556-1.593 3.054 1.685-1.597 3.86-.166 5.867-.013 1.398.647 4.906-1.665 3.74-2.479-1.168.793-1.807 2.162-3.522 1.285-1.292-.282-2.706-.72-3.971-.591z" style="fill:#fafafa;fill-opacity:.28169653;stroke-width:2.17408"/><path style="color:#000;fill:#fafafa;fill-opacity:.28169653;stroke-width:.517552;stroke-miterlimit:10;-inkscape-stroke:none" d="M198.67 222.716c-.356 1.14.716.852 1.486.865h20.69c.356-1.14-.716-.851-1.485-.865h-20.69z"/><path d="M208.366 230.844c-.665-2.626-4.234-1.935-5.646-.356-1.572 1.314-2.004 4.243.008 5.358 2.456 1.325 5.345-.497 6.326-2.848 1.14-2.226 1.68-5.58-.675-7.223-1.77-1.301-5.09-.483-5.209 1.95.582 1.298 2.316-.764.86-.992 1.357-2.265 5.16-.895 4.717 1.737-.008.794-.132 1.664-.38 2.374zm-3.848 4.957c-2.99-.11-1.838-4.178-.412-5.521 1.507-1.748 4.774-.348 3.831 2.056-.387 1.627-1.537 3.495-3.419 3.465zM218.345 229.714c-.174-1.407-1.383 1.647-1.754-.046-2.24-1.33-4.825 1.291-5.024 3.504-.786 2.914 3.383 3.204 4.09 2.433-.327 1.249-.309 3.05-1.978 2.89.367.754 3.032.537 3.668.094-1.278-.06-1.11-.998-.721-2.067l1.72-6.808zm-2.282 4.348c-.558 2.124-4.153 2.013-3.221-.571-.165-1.906 2.458-5.461 3.902-2.727.049 1.092-.486 2.21-.681 3.298zM243.152 223.583c1.885-.49-.484-1.114-1.362-.85-3.622.032-7.256-.067-10.87.05-.706 1.176 1.406.709 2.123.8h10.109zM263.632 209.842c.036-1.267-4.247.22-1.447.32.148.887-.38 1.857-.527 2.775-.044 2.316-1.51-.693-2.944.472-2.296.84-3.995 4.39-1.838 6.21 1.623 1.658 3.254-1.631 4.179.222 1.341 1.263 3.336-2.087 2.108-2.245.092 2.124-2.55 2.58-1.526.182l1.995-7.936zm-3.218 8.153c-.539 2.121-4.162 2.017-3.221-.57-.165-1.907 2.458-5.462 3.902-2.728.05 1.092-.486 2.21-.681 3.298z" style="fill:#fafafa;fill-opacity:.28169653;stroke-width:2.17408"/><path style="color:#000;fill:#fafafa;fill-opacity:.28169653;stroke-width:.517552;stroke-miterlimit:10;-inkscape-stroke:none" d="M252.808 222.716c-.356 1.14.716.852 1.486.865h14.08c.356-1.14-.716-.851-1.486-.865h-14.08z"/><path d="M261.457 225.93c.036-1.267-4.246.22-1.446.32.148.887-.38 1.857-.527 2.775-.044 2.317-1.51-.693-2.944.472-2.296.84-3.995 4.39-1.838 6.211 1.623 1.657 3.254-1.632 4.179.222 1.34 1.262 3.336-2.088 2.108-2.246.092 2.125-2.55 2.58-1.526.183l1.994-7.936zm-3.217 8.153c-.539 2.122-4.162 2.017-3.221-.57-.165-1.906 2.458-5.462 3.902-2.728.049 1.092-.486 2.21-.681 3.298zM265.24 229.996c.56.09 2.804 0 1.564-.543-.766 0-1.844.248-1.222-.842.206-.726.842-2.602-.583-1.927-.744 1.053-.238 3.313-2.083 2.767-1.689.204.133.778.913.543.356.32-.287 1.42-.318 2.043-.141 1.212-1.173 2.665-.117 3.689 1.408 1.27 4.012-.81 3.55-2.126-.336 1.403-3.558 3.38-2.726.507l1.022-4.11zM280.329 214.756c-.666-2.626-4.235-1.935-5.647-.357-1.572 1.315-2.004 4.244.008 5.359 2.456 1.324 5.345-.497 6.327-2.848 1.14-2.226 1.678-5.58-.676-7.223-1.77-1.302-5.09-.484-5.208 1.95.58 1.298 2.316-.765.858-.992 1.358-2.266 5.161-.895 4.718 1.737-.008.794-.132 1.664-.38 2.374zm-3.849 4.957c-2.99-.11-1.838-4.178-.412-5.521 1.507-1.749 4.774-.348 3.831 2.056-.387 1.626-1.537 3.495-3.419 3.465zM286.46 218.391c1.755-2.425 1.419-5.969 3.774-8.037 1.294-.66 1.956.924 1.934 1.755 2.817-.317.886-4.165-1.295-2.662-3.188 1.138-4.183 4.739-4.934 7.688.038 1.144-2.17 2.556-1.593 3.054 1.685-1.597 3.86-.166 5.867-.013 1.398.647 4.906-1.665 3.74-2.479-1.169.793-1.807 2.162-3.523 1.285-1.291-.282-2.705-.72-3.97-.591z" style="fill:#fafafa;fill-opacity:.28169653;stroke-width:2.17408"/><path style="color:#000;fill:#fafafa;fill-opacity:.28169653;stroke-width:.517552;stroke-miterlimit:10;-inkscape-stroke:none" d="M272.372 222.716c-.356 1.14.716.852 1.486.865h20.69c.356-1.14-.716-.851-1.486-.865h-20.69z"/><path d="M282.503 230.844c-.665-2.626-4.235-1.935-5.647-.356-1.572 1.314-2.004 4.243.008 5.358 2.456 1.325 5.345-.497 6.327-2.848 1.14-2.226 1.679-5.58-.676-7.223-1.77-1.301-5.09-.483-5.208 1.95.581 1.298 2.316-.764.858-.992 1.359-2.265 5.161-.895 4.718 1.737-.008.794-.131 1.664-.38 2.374zm-3.849 4.957c-2.99-.11-1.838-4.178-.412-5.521 1.507-1.748 4.774-.348 3.831 2.056-.387 1.627-1.537 3.495-3.419 3.465zM290.895 226.626c-.631-2.52-3.068 1.223-.503.807a.9.9 0 0 0 .503-.807zM293.134 229.714c-.174-1.407-1.384 1.647-1.754-.046-2.24-1.33-4.825 1.291-5.024 3.504-.786 2.914 3.382 3.204 4.09 2.433-.327 1.249-.31 3.05-1.978 2.89.366.754 3.032.537 3.667.094-1.278-.06-1.11-.998-.72-2.067l1.719-6.808zm-2.283 4.348c-.558 2.124-4.153 2.013-3.221-.571-.165-1.906 2.459-5.461 3.902-2.727.05 1.092-.486 2.21-.68 3.298zM319.853 221.474c1.857-.5-.594-1.1-1.45-.85-3.988.035-7.984-.072-11.966.055-.718 1.182 1.48.694 2.205.795h11.211zm.034 4.218c1.825-.648-.697-1.05-1.52-.85-3.973.033-7.953-.067-11.922.05-.715 1.172 1.477.707 2.205.8h11.237zM336.68 221.648c.014-2.594-.285-5.974-2.977-7.19-2.262-1.03-4.987.496-5.58 2.846-.765 2.679-.747 5.607-.108 8.31.495 2.43 3.162 4.196 5.558 3.22 2.833-1.082 3.075-4.614 3.108-7.186zm-4.543 6.935c-2.446-.135-2.724-3.005-2.73-4.906.073-2.59-.395-5.349.64-7.795 1.138-2.291 4.582-1.076 4.632 1.287.357 2.876.34 5.82 0 8.696-.16 1.315-1.07 2.749-2.542 2.718z" style="fill:#fafafa;fill-opacity:.28169653;stroke-width:2.17408"/></svg>