<?xml version="1.0" encoding="UTF-8" standalone="no"?>
<!-- Uploaded to: SVG Repo, www.svgrepo.com, Generator: SVG Repo Mixer Tools -->

<svg
   fill="#000000"
   height="800"
   width="912"
   version="1.1"
   id="Layer_1"
   viewBox="0 0 552.9 485"
   xml:space="preserve"
   sodipodi:docname="icon-experience.svg"
   inkscape:version="1.3.2 (1:1.3.2+202311252150+091e20ef0f)"
   xmlns:inkscape="http://www.inkscape.org/namespaces/inkscape"
   xmlns:sodipodi="http://sodipodi.sourceforge.net/DTD/sodipodi-0.dtd"
   xmlns="http://www.w3.org/2000/svg"
   xmlns:svg="http://www.w3.org/2000/svg"><defs
   id="defs6" /><sodipodi:namedview
   id="namedview6"
   pagecolor="#ffffff"
   bordercolor="#666666"
   borderopacity="1.0"
   inkscape:showpageshadow="2"
   inkscape:pageopacity="0.0"
   inkscape:pagecheckerboard="0"
   inkscape:deskcolor="#d1d1d1"
   showgrid="true"
   inkscape:zoom="0.761875"
   inkscape:cx="30.844955"
   inkscape:cy="352.42002"
   inkscape:window-width="2560"
   inkscape:window-height="1412"
   inkscape:window-x="0"
   inkscape:window-y="0"
   inkscape:window-maximized="1"
   inkscape:current-layer="g6"><inkscape:grid
     id="grid6"
     units="px"
     originx="-15.951"
     originy="0"
     spacingx="0.60625"
     spacingy="0.60625"
     empcolor="#0099e5"
     empopacity="0.30196078"
     color="#0099e5"
     opacity="0.14901961"
     empspacing="5"
     dotted="false"
     gridanglex="30"
     gridanglez="30"
     visible="true" /></sodipodi:namedview>
<g
   id="g6"
   transform="translate(-15.951)">
	<path
   d="M 15.951,319.573 H 34.549 V 485 H 173.19 V 319.573 h 18.599 V 121.03 H 15.951 Z M 41.101,146.18 h 50.193 v 98.392 h 25.15 V 146.18 h 50.194 V 294.422 H 148.039 V 459.85 H 59.699 V 294.423 H 41.101 Z"
   id="path1"
   sodipodi:nodetypes="cccccccccccccccccccccc" />
	
	<path
   d="m 443.06349,133.5635 c 27.516,0 49.901,-22.386 49.901,-49.901001 10e-4,-27.516 -22.385,-49.902 -49.901,-49.902 -27.516,0 -49.901,22.386 -49.901,49.902 0,27.515001 22.386,49.901001 49.901,49.901001 z m 0,-69.803001 c 10.974,0 19.901,8.928 19.901,19.902 0,10.974 -8.928,19.901001 -19.901,19.901001 -10.973,0 -19.901,-8.928001 -19.901,-19.901001 0,-10.974 8.928,-19.902 19.901,-19.902 z"
   id="path3" />
	<path
   d="m 467.31349,329.61149 c -27.516,0 -49.901,22.386 -49.901,49.901 0,27.516 22.386,49.902 49.901,49.902 27.515,0 49.901,-22.386 49.901,-49.902 0.001,-27.515 -22.385,-49.901 -49.901,-49.901 z m 0,69.803 c -10.974,0 -19.901,-8.928 -19.901,-19.902 0,-10.974 8.928,-19.901 19.901,-19.901 10.973,0 19.901,8.928 19.901,19.901 10e-4,10.974 -8.927,19.902 -19.901,19.902 z"
   id="path4" />
	
	<path
   d="m 517.7375,162.349 c -27.516,0 -49.901,22.386 -49.901,49.902 0,27.516 22.386,49.901 49.901,49.901 27.515,0 49.901,-22.386 49.901,-49.901 10e-4,-27.516 -22.385,-49.902 -49.901,-49.902 z m 0,69.803 c -10.974,0 -19.901,-8.928 -19.901,-19.901 0,-10.974 8.928,-19.902 19.901,-19.902 10.973,0 19.901,8.928 19.901,19.902 10e-4,10.973 -8.927,19.901 -19.901,19.901 z"
   id="path6" />
	
<path
   id="path7"
   style="color:#000000;fill:#000000;stroke-linecap:round;stroke-linejoin:round;-inkscape-stroke:none"
   d="m 341.71091,72.751184 c -14.1458,0 -27.98821,3.572559 -38.42109,12.962146 -10.43287,9.389586 -16.14141,24.01914 -16.14141,41.60035 v 84.875 c 0,8.08333 -4.41434,17.58016 -11.60282,24.76863 -7.18847,7.18847 -16.68887,11.60637 -24.77218,11.60637 h -18.1875 c -6.62961,0.0937 -11.95476,5.49474 -11.95476,12.125 0,6.63026 5.32515,12.03126 11.95476,12.125 h 18.1875 6.27564 18.1875 c 8.08331,0 17.5837,4.41434 24.77218,11.60282 7.18847,7.18848 11.60282,16.68886 11.60282,24.77218 v 27.8875 c 0,17.58122 5.70617,32.20722 16.13903,41.59681 10.43287,9.38958 24.27766,12.96569 38.42347,12.96569 h 18.1875 c 6.69645,0 12.125,-5.42855 12.125,-12.125 0,-6.69645 -5.42855,-12.125 -12.125,-12.125 h -18.1875 c -10.10415,0 -17.4782,-2.48997 -22.20154,-6.74097 -4.72335,-4.25102 -8.11096,-10.8403 -8.11096,-23.57153 v -27.8875 c 0,-13.59096 -5.45863,-26.17286 -13.72943,-36.375 h 11.09248 c 11.78816,0 21.82613,-4.67943 28.27824,-11.13155 6.45213,-6.45212 9.84683,-13.75905 12.87808,-19.82153 3.03125,-6.0625 5.69907,-10.88061 8.34067,-13.52222 2.64162,-2.64161 4.72871,-4.0247 11.12801,-4.0247 h 42.4375 c 6.69645,0 12.125,-5.42855 12.125,-12.125 0,-6.69645 -5.42855,-12.125 -12.125,-12.125 h -42.4375 c -11.78817,0 -21.82495,4.67588 -28.27707,11.12801 -6.45212,6.45212 -9.8492,13.76023 -12.88044,19.82271 -3.03125,6.0625 -5.6967,10.87943 -8.33831,13.52104 -2.64161,2.6416 -4.72989,4.02824 -11.12918,4.02824 h -35.83151 c 8.33641,-10.22736 14.00532,-22.72015 14.00532,-36.375 v -84.875 c 0,-12.73122 3.3888,-19.32406 8.11215,-23.57507 4.72334,-4.25101 12.0962,-6.737426 22.20035,-6.737426 h 18.1875 c 6.69645,0 12.125,-5.428547 12.125,-12.125 0,-6.696453 -5.42855,-12.125 -12.125,-12.125 z"
   sodipodi:nodetypes="sssssscscccssssssssssssscssssssssssssscssssssss" /><circle
   style="opacity:1;fill:none;fill-opacity:1;stroke:#000000;stroke-width:24.25;stroke-linecap:round;stroke-linejoin:round;stroke-dasharray:none;stroke-opacity:1"
   id="path8"
   cx="103.14207"
   cy="56.987511"
   r="36.295425" /></g>
</svg>
