<?xml version="1.0" encoding="UTF-8"?>
<svg fill="none" version="1.1" viewBox="0 0 64 64" xmlns="http://www.w3.org/2000/svg">
<path d="m32 5.09c-14.9 0-26.9 12.3-26.9 27.6 0 12.2 7.7 22.5 18.4 26.2 1.35 0.241 1.85-0.586 1.85-1.31 0-0.655-0.0336-2.83-0.0336-5.14-6.76 1.28-8.51-1.69-9.05-3.24-0.303-0.793-1.61-3.24-2.76-3.9-0.942-0.517-2.29-1.79-0.0336-1.83 2.12-0.0345 3.63 2 4.14 2.83 2.42 4.17 6.29 3 7.84 2.28 0.235-1.79 0.942-3 1.72-3.69-5.99-0.69-12.2-3.07-12.2-13.6 0-3 1.04-5.48 2.76-7.41-0.269-0.69-1.21-3.52 0.269-7.31 0 0 2.25-0.724 7.4 2.83 2.15-0.621 4.44-0.931 6.73-0.931 2.29 0 4.57 0.31 6.73 0.931 5.15-3.59 7.4-2.83 7.4-2.83 1.48 3.79 0.538 6.62 0.269 7.31 1.72 1.93 2.76 4.38 2.76 7.41 0 10.6-6.29 12.9-12.3 13.6 0.975 0.862 1.82 2.52 1.82 5.1 0 3.69-0.0336 6.66-0.0336 7.59 0 0.724 0.504 1.59 1.85 1.31 10.6-3.66 18.3-14 18.3-26.2 0-15.2-12-27.6-26.9-27.6z" clip-rule="evenodd" fill="#1b1f23" fill-rule="evenodd" stroke-width="3.41"/>
</svg>
