<?xml version="1.0" encoding="UTF-8" standalone="no"?>
<!-- Uploaded to: SVG Repo, www.svgrepo.com, Generator: SVG Repo Mixer Tools -->

<svg
   fill="#000000"
   height="773.45685"
   width="800"
   version="1.1"
   id="Layer_1"
   viewBox="0 0 485 468.90821"
   xml:space="preserve"
   sodipodi:docname="icon-team.svg"
   inkscape:version="1.3.2 (1:1.3.2+202311252150+091e20ef0f)"
   xmlns:inkscape="http://www.inkscape.org/namespaces/inkscape"
   xmlns:sodipodi="http://sodipodi.sourceforge.net/DTD/sodipodi-0.dtd"
   xmlns="http://www.w3.org/2000/svg"
   xmlns:svg="http://www.w3.org/2000/svg"><defs
   id="defs6" /><sodipodi:namedview
   id="namedview6"
   pagecolor="#ffffff"
   bordercolor="#666666"
   borderopacity="1.0"
   inkscape:showpageshadow="2"
   inkscape:pageopacity="0.0"
   inkscape:pagecheckerboard="0"
   inkscape:deskcolor="#d1d1d1"
   inkscape:zoom="0.3809375"
   inkscape:cx="-972.60049"
   inkscape:cy="505.33224"
   inkscape:window-width="2560"
   inkscape:window-height="1412"
   inkscape:window-x="0"
   inkscape:window-y="0"
   inkscape:window-maximized="1"
   inkscape:current-layer="g6" />
<g
   id="g6"
   transform="translate(0,-16.091797)">
	
	
	
	
	
	
	
<path
   style="color:#000000;fill:#000000;stroke-linecap:round;stroke-linejoin:round;-inkscape-stroke:none"
   d="m 242.5,16.091797 c -25.91023,0 -47.14258,21.232349 -47.14258,47.142578 0,25.910229 21.23235,47.142575 47.14258,47.142575 25.91023,0 47.14258,-21.232346 47.14258,-47.142575 0,-25.910229 -21.23235,-47.142578 -47.14258,-47.142578 z m 0,21.21875 c 14.44275,0 25.92383,11.481078 25.92383,25.923828 0,14.44275 -11.48108,25.921875 -25.92383,25.921875 -14.44275,0 -25.92383,-11.479125 -25.92383,-25.921875 0,-14.44275 11.48108,-25.923828 25.92383,-25.923828 z"
   id="path7" /><path
   style="color:#000000;fill:#000000;-inkscape-stroke:none"
   d="m 242.83203,123.34375 c -24.47806,0 -44.57822,11.8314 -58.04883,27.11328 -13.4706,15.28189 -21.08398,33.85218 -21.08398,50.81445 v 10.60938 h 10.60937 146.99219 v -10.60938 c 0,-18.07264 -7.24284,-37.0548 -20.625,-52.06445 -13.38215,-15.00965 -33.44313,-25.86328 -57.84375,-25.86328 z m 0,21.21875 c 18.25482,0 32.12224,7.67999 42.00586,18.76562 7.13703,8.00502 11.8213,17.87405 13.92578,27.33204 H 186.66211 c 2.31303,-8.54073 6.96738,-18.15127 14.03906,-26.17383 10.2395,-11.61633 24.40215,-19.92383 42.13086,-19.92383 z"
   id="path8" /><path
   style="color:#000000;fill:#000000;stroke-linecap:round;stroke-linejoin:round;-inkscape-stroke:none"
   d="m 406.19922,289.21094 c -25.91023,0 -47.14258,21.23235 -47.14258,47.14258 0,25.91022 21.23235,47.14257 47.14258,47.14257 25.91023,0 47.14258,-21.23235 47.14258,-47.14257 0,-25.91023 -21.23235,-47.14258 -47.14258,-47.14258 z m 0,21.21875 c 14.44275,0 25.92383,11.48108 25.92383,25.92383 0,14.44275 -11.48108,25.92382 -25.92383,25.92382 -14.44275,0 -25.92383,-11.48107 -25.92383,-25.92382 0,-14.44275 11.48108,-25.92383 25.92383,-25.92383 z"
   id="path7-3" /><path
   style="color:#000000;fill:#000000;-inkscape-stroke:none"
   d="m 406.53125,396.46484 c -24.47806,0 -44.57823,11.82945 -58.04883,27.11133 -13.4706,15.28189 -21.08398,33.85218 -21.08398,50.81445 V 485 H 338.00781 485 v -10.60938 c 0,-18.07264 -7.24284,-37.0548 -20.625,-52.06445 -13.38216,-15.00965 -33.44313,-25.86133 -57.84375,-25.86133 z m 0,21.21875 c 18.25482,0 32.12224,7.67805 42.00586,18.76368 7.13708,8.00506 11.82132,17.87594 13.92578,27.33398 H 350.36133 c 2.31303,-8.54073 6.96737,-18.15127 14.03906,-26.17383 10.2395,-11.61632 24.40215,-19.92383 42.13086,-19.92383 z"
   id="path8-6" /><path
   style="color:#000000;fill:#000000;stroke-linecap:round;stroke-linejoin:round;-inkscape-stroke:none"
   d="m 78.800781,289.21094 c -25.910229,0 -47.142578,21.23235 -47.142578,47.14258 0,25.91022 21.232349,47.14257 47.142578,47.14257 25.910229,0 47.142579,-21.23235 47.142579,-47.14257 0,-25.91023 -21.23235,-47.14258 -47.142579,-47.14258 z m 0,21.21875 c 14.44275,0 25.923829,11.48108 25.923829,25.92383 0,14.44275 -11.481079,25.92382 -25.923829,25.92382 -14.44275,0 -25.923828,-11.48107 -25.923828,-25.92382 0,-14.44275 11.481078,-25.92383 25.923828,-25.92383 z"
   id="path7-3-7" /><path
   style="color:#000000;fill:#000000;-inkscape-stroke:none"
   d="m 79.132812,396.46484 c -24.478061,0 -44.578225,11.82945 -58.048828,27.11133 C 7.6133819,438.85806 0,457.42835 0,474.39062 V 485 H 10.609375 157.60156 v -10.60938 c 0,-18.07264 -7.24089,-37.0548 -20.62304,-52.06445 -13.38216,-15.00965 -33.44509,-25.86133 -57.845708,-25.86133 z m 0,21.21875 c 18.254816,0 32.122248,7.67805 42.005858,18.76368 7.13708,8.00506 11.82133,17.87594 13.92578,27.33398 H 22.962891 c 2.313031,-8.54073 6.967375,-18.15127 14.039062,-26.17383 10.239501,-11.61632 24.402153,-19.92383 42.130859,-19.92383 z"
   id="path8-6-5" /><path
   style="color:#000000;fill:#000000;stroke-linecap:round;-inkscape-stroke:none"
   d="m 242.5,250.69141 a 12.125,12.125 0 0 0 -12.125,12.125 v 70.58984 l -60.32813,34.02344 a 12.125,12.125 0 0 0 -4.60351,16.51758 12.125,12.125 0 0 0 16.51758,4.60351 L 242.5,354.41016 l 60.53906,34.14062 a 12.125,12.125 0 0 0 16.51758,-4.60351 12.125,12.125 0 0 0 -4.60352,-16.51758 L 254.625,333.40625 v -70.58984 a 12.125,12.125 0 0 0 -12.125,-12.125 z"
   id="path11" /></g>
</svg>
