<?xml version="1.0" encoding="UTF-8" standalone="no"?>
<svg
   width="64"
   height="64"
   viewBox="0 0 64 64"
   fill="none"
   version="1.1"
   id="svg1"
   sodipodi:docname="icons-github.svg"
   inkscape:version="1.3.2 (1:1.3.2+202311252150+091e20ef0f)"
   xmlns:inkscape="http://www.inkscape.org/namespaces/inkscape"
   xmlns:sodipodi="http://sodipodi.sourceforge.net/DTD/sodipodi-0.dtd"
   xmlns="http://www.w3.org/2000/svg"
   xmlns:svg="http://www.w3.org/2000/svg">
  <defs
     id="defs1" />
  <sodipodi:namedview
     id="namedview1"
     pagecolor="#ffffff"
     bordercolor="#666666"
     borderopacity="1.0"
     inkscape:showpageshadow="2"
     inkscape:pageopacity="0.0"
     inkscape:pagecheckerboard="0"
     inkscape:deskcolor="#d1d1d1"
     inkscape:zoom="9.5234375"
     inkscape:cx="52.292043"
     inkscape:cy="26.986054"
     inkscape:window-width="1466"
     inkscape:window-height="1033"
     inkscape:window-x="846"
     inkscape:window-y="211"
     inkscape:window-maximized="0"
     inkscape:current-layer="svg1" />
  <path
     fill-rule="evenodd"
     clip-rule="evenodd"
     d="m 31.999999,5.0946646 c -14.865198,0 -26.905335,12.3446784 -26.905335,27.5858744 0,12.20675 7.701652,22.516971 18.396522,26.172099 1.345267,0.241376 1.849743,-0.5862 1.849743,-1.310329 0,-0.655164 -0.03363,-2.827552 -0.03363,-5.137869 -6.759965,1.275846 -8.508812,-1.689635 -9.046919,-3.241341 -0.302685,-0.793093 -1.614321,-3.241341 -2.757797,-3.896504 -0.941686,-0.517235 -2.286954,-1.793082 -0.03363,-1.827565 2.118796,-0.03448 3.632221,1.999976 4.136696,2.827553 2.42148,4.172364 6.289122,2.999963 7.836179,2.275834 0.235422,-1.793083 0.941687,-2.999963 1.715215,-3.68961 -5.986445,-0.689646 -12.241936,-3.068929 -12.241936,-13.620526 0,-2.999963 1.042582,-5.482693 2.757797,-7.413704 -0.269053,-0.689647 -1.21074,-3.517199 0.269053,-7.310256 0,0 2.253322,-0.72413 7.398968,2.827552 2.152426,-0.620683 4.43938,-0.931024 6.726334,-0.931024 2.286952,0 4.573906,0.310341 6.726334,0.931024 5.145645,-3.586164 7.398967,-2.827552 7.398967,-2.827552 1.479793,3.793057 0.538106,6.620609 0.269053,7.310256 1.715215,1.931011 2.757796,4.379257 2.757796,7.413704 0,10.586079 -6.289121,12.93088 -12.275559,13.620526 0.975319,0.862058 1.816111,2.517211 1.816111,5.103387 0,3.68961 -0.03363,6.655092 -0.03363,7.586115 0,0.724129 0.504475,1.586188 1.849742,1.310329 10.627609,-3.655128 18.329263,-13.999831 18.329263,-26.172099 0,-15.241196 -12.040139,-27.5858744 -26.905337,-27.5858744 z"
     fill="#1b1f23"
     id="path1-5"
     style="stroke-width:3.40543" />
</svg>
