<?xml version="1.0" encoding="UTF-8"?>
<svg width="944" height="786" fill="#000000" version="1.1" viewBox="0 0 572 476" xmlns="http://www.w3.org/2000/svg">
<g transform="translate(-16 -8.57)">
<path d="m16 320h18.6v165h139v-165h18.6v-199h-176zm25.2-173h50.2v98.4h25.2v-98.4h50.2v148h-18.6v165h-88.3v-165h-18.6z"/>
<path d="m443 134c27.5 0 49.9-22.4 49.9-49.9 1e-3 -27.5-22.4-49.9-49.9-49.9s-49.9 22.4-49.9 49.9c0 27.5 22.4 49.9 49.9 49.9zm0-69.8c11 0 19.9 8.93 19.9 19.9s-8.93 19.9-19.9 19.9-19.9-8.93-19.9-19.9c0-11 8.93-19.9 19.9-19.9z"/>
<path d="m467 330c-27.5 0-49.9 22.4-49.9 49.9 0 27.5 22.4 49.9 49.9 49.9s49.9-22.4 49.9-49.9c1e-3 -27.5-22.4-49.9-49.9-49.9zm0 69.8c-11 0-19.9-8.93-19.9-19.9s8.93-19.9 19.9-19.9 19.9 8.93 19.9 19.9c1e-3 11-8.93 19.9-19.9 19.9z"/>
<path d="m538 162c-27.5 0-49.9 22.4-49.9 49.9s22.4 49.9 49.9 49.9 49.9-22.4 49.9-49.9c1e-3 -27.5-22.4-49.9-49.9-49.9zm0 69.8c-11 0-19.9-8.93-19.9-19.9 0-11 8.93-19.9 19.9-19.9s19.9 8.93 19.9 19.9c1e-3 11-8.93 19.9-19.9 19.9z"/>
<path d="m342 72.8c-14.1 0-28 3.57-38.4 13-10.4 9.39-16.1 24-16.1 41.6v84.9c0 8.08-4.41 17.6-11.6 24.8-7.19 7.19-16.7 11.6-24.8 11.6h-18.2c-6.63 0.0937-12 5.49-12 12.1s5.33 12 12 12.1h42.7c8.08 0 17.6 4.41 24.8 11.6 7.19 7.19 11.6 16.7 11.6 24.8v27.9c0 17.6 5.71 32.2 16.1 41.6 10.4 9.39 24.3 13 38.4 13h18.2c6.7 0 12.1-5.43 12.1-12.1s-5.43-12.1-12.1-12.1h-18.2c-10.1 0-17.5-2.49-22.2-6.74-4.72-4.25-8.11-10.8-8.11-23.6v-27.9c0-13.6-5.46-26.2-13.7-36.4h34.1c11.8 0 21.8-4.68 28.3-11.1 6.45-6.45 9.85-13.8 12.9-19.8 3.03-6.06 5.7-10.9 8.34-13.5 2.64-2.64 4.73-4.02 11.1-4.02h42.4c6.7 0 12.1-5.43 12.1-12.1s-5.43-12.1-12.1-12.1h-42.4c-11.8 0-21.8 4.68-28.3 11.1-6.45 6.45-9.85 13.8-12.9 19.8-3.03 6.06-5.7 10.9-8.34 13.5-2.64 2.64-4.73 4.03-11.1 4.03h-58.9c8.34-10.2 14-22.7 14-36.4v-84.9c0-12.7 3.39-19.3 8.11-23.6 4.72-4.25 12.1-6.74 22.2-6.74h18.2c6.7 0 12.1-5.43 12.1-12.1s-5.43-12.1-12.1-12.1z" color="#000000" fill="#000" stroke-linecap="round" stroke-linejoin="round" style="-inkscape-stroke:none"/>
<circle cx="103" cy="57" r="36.3" fill="none" stroke="#000" stroke-linecap="round" stroke-linejoin="round" stroke-width="24.2"/>
</g>
</svg>
