<?xml version="1.0" encoding="UTF-8"?>
<svg width="800px" height="800px" fill="#000000" version="1.1" viewBox="0 0 1024 1024" xmlns="http://www.w3.org/2000/svg">
<path transform="rotate(44.4)" d="m603-555c-8.73-13.9-36.7 8.91-36.7 8.91-102 85.6-183 181-175 295 4.76 71.4 35.4 124 72.6 163 32.5 33.2 69.1 55.7 99.2 73.6l-0.0371 549 0.113 1.24c2.98 32.1 18.4 61.5 44.3 80.5 25.9 19 60.3 27.9 101 28.3 43.5 0.456 82.2-6.78 113-24.1 30.6-17.4 52.8-47.7 55-84.1l0.0469-0.791v-0.793l0.039-544c121-47.7 198-160 187-283-4.15-48.4-30.4-94.7-62.3-137-31.8-41.8-70.1-78.9-103-105 0 0-30.4-25.7-38.7-14-8.23 11.6-20 237-20 237h-218s-10.3-230-19-244zm-43.2 86.8 11.3 211h319l14.6-199c18.7 18.2 37.5 38.7 53.9 60.2 28.5 37.4 48.8 77.7 51.5 109 8.87 103-56.9 197-169 234l-18.5 6.05-0.043 581c-1.18 18-9.12 29.5-27.8 40-18.8 10.6-48.9 17.5-85.8 17.2-33.5-0.351-56.3-7.81-70.2-17.9-13.6-9.97-20.5-22.2-22.4-41.2l0.041-576-13.1-7.83c-32.6-19.5-70.9-41.7-101-72.9-30.5-31.2-53.5-70.2-57.4-129-4.92-73.7 41.4-144 115-214z" color="#000000" fill="#000" stroke-linecap="round" style="-inkscape-stroke:none"/>
</svg>
