<?xml version="1.0" encoding="UTF-8"?>
<svg width="800" height="773" fill="#000000" version="1.1" viewBox="0 0 485 469" xmlns="http://www.w3.org/2000/svg">
<g transform="translate(0 -16.1)" fill="#000">
<path d="m242 16.1c-25.9 0-47.1 21.2-47.1 47.1s21.2 47.1 47.1 47.1 47.1-21.2 47.1-47.1-21.2-47.1-47.1-47.1zm0 21.2c14.4 0 25.9 11.5 25.9 25.9s-11.5 25.9-25.9 25.9-25.9-11.5-25.9-25.9 11.5-25.9 25.9-25.9z" color="#000000" stroke-linecap="round" stroke-linejoin="round" style="-inkscape-stroke:none"/>
<path d="m243 123c-24.5 0-44.6 11.8-58 27.1-13.5 15.3-21.1 33.9-21.1 50.8v10.6h158v-10.6c0-18.1-7.24-37.1-20.6-52.1-13.4-15-33.4-25.9-57.8-25.9zm0 21.2c18.3 0 32.1 7.68 42 18.8 7.14 8.01 11.8 17.9 13.9 27.3h-112c2.31-8.54 6.97-18.2 14-26.2 10.2-11.6 24.4-19.9 42.1-19.9z" color="#000000" style="-inkscape-stroke:none"/>
<path d="m406 289c-25.9 0-47.1 21.2-47.1 47.1 0 25.9 21.2 47.1 47.1 47.1s47.1-21.2 47.1-47.1c0-25.9-21.2-47.1-47.1-47.1zm0 21.2c14.4 0 25.9 11.5 25.9 25.9s-11.5 25.9-25.9 25.9-25.9-11.5-25.9-25.9 11.5-25.9 25.9-25.9z" color="#000000" stroke-linecap="round" stroke-linejoin="round" style="-inkscape-stroke:none"/>
<path d="m407 396c-24.5 0-44.6 11.8-58 27.1-13.5 15.3-21.1 33.9-21.1 50.8v10.6h158v-10.6c0-18.1-7.24-37.1-20.6-52.1s-33.4-25.9-57.8-25.9zm0 21.2c18.3 0 32.1 7.68 42 18.8 7.14 8.01 11.8 17.9 13.9 27.3h-112c2.31-8.54 6.97-18.2 14-26.2 10.2-11.6 24.4-19.9 42.1-19.9z" color="#000000" style="-inkscape-stroke:none"/>
<path d="m78.8 289c-25.9 0-47.1 21.2-47.1 47.1 0 25.9 21.2 47.1 47.1 47.1s47.1-21.2 47.1-47.1c0-25.9-21.2-47.1-47.1-47.1zm0 21.2c14.4 0 25.9 11.5 25.9 25.9s-11.5 25.9-25.9 25.9-25.9-11.5-25.9-25.9 11.5-25.9 25.9-25.9z" color="#000000" stroke-linecap="round" stroke-linejoin="round" style="-inkscape-stroke:none"/>
<path d="m79.1 396c-24.5 0-44.6 11.8-58 27.1-13.5 15.3-21.1 33.9-21.1 50.8v10.6h158v-10.6c0-18.1-7.24-37.1-20.6-52.1-13.4-15-33.4-25.9-57.8-25.9zm0 21.2c18.3 0 32.1 7.68 42 18.8 7.14 8.01 11.8 17.9 13.9 27.3h-112c2.31-8.54 6.97-18.2 14-26.2 10.2-11.6 24.4-19.9 42.1-19.9z" color="#000000" style="-inkscape-stroke:none"/>
<path d="m242 251a12.1 12.1 0 0 0-12.1 12.1v70.6l-60.3 34a12.1 12.1 0 0 0-4.6 16.5 12.1 12.1 0 0 0 16.5 4.6l60.5-34.1 60.5 34.1a12.1 12.1 0 0 0 16.5-4.6 12.1 12.1 0 0 0-4.6-16.5l-60.3-34v-70.6a12.1 12.1 0 0 0-12.1-12.1z" color="#000000" stroke-linecap="round" style="-inkscape-stroke:none"/>
</g>
</svg>
