<?xml version="1.0" encoding="UTF-8" standalone="no"?>
<!-- Created with Inkscape (http://www.inkscape.org/) -->

<svg
   width="800"
   height="300"
   viewBox="0 0 211.66666 79.375"
   version="1.1"
   id="svg1"
   inkscape:version="1.3.2 (1:1.3.2+202311252150+091e20ef0f)"
   sodipodi:docname="LLP.svg"
   xmlns:inkscape="http://www.inkscape.org/namespaces/inkscape"
   xmlns:sodipodi="http://sodipodi.sourceforge.net/DTD/sodipodi-0.dtd"
   xmlns="http://www.w3.org/2000/svg"
   xmlns:svg="http://www.w3.org/2000/svg">
  <sodipodi:namedview
     id="namedview1"
     pagecolor="#ffffff"
     bordercolor="#000000"
     borderopacity="0.25"
     inkscape:showpageshadow="2"
     inkscape:pageopacity="0.0"
     inkscape:pagecheckerboard="0"
     inkscape:deskcolor="#d1d1d1"
     inkscape:document-units="mm"
     inkscape:zoom="6.8188088"
     inkscape:cx="686.26356"
     inkscape:cy="200.54823"
     inkscape:window-width="1920"
     inkscape:window-height="1043"
     inkscape:window-x="0"
     inkscape:window-y="0"
     inkscape:window-maximized="1"
     inkscape:current-layer="layer3" />
  <defs
     id="defs1">
    <marker
       style="overflow:visible"
       id="marker188"
       refX="0"
       refY="0"
       orient="auto-start-reverse"
       inkscape:stockid="Triangle arrow"
       markerWidth="1"
       markerHeight="1"
       viewBox="0 0 1 1"
       inkscape:isstock="true"
       inkscape:collect="always"
       preserveAspectRatio="xMidYMid">
      <path
         transform="scale(0.5)"
         style="fill:context-stroke;fill-rule:evenodd;stroke:context-stroke;stroke-width:1pt"
         d="M 5.77,0 -2.88,5 V -5 Z"
         id="path188" />
    </marker>
    <marker
       style="overflow:visible"
       id="Triangle"
       refX="0"
       refY="0"
       orient="auto-start-reverse"
       inkscape:stockid="Triangle arrow"
       markerWidth="1"
       markerHeight="1"
       viewBox="0 0 1 1"
       inkscape:isstock="true"
       inkscape:collect="always"
       preserveAspectRatio="xMidYMid">
      <path
         transform="scale(0.5)"
         style="fill:context-stroke;fill-rule:evenodd;stroke:context-stroke;stroke-width:1pt"
         d="M 5.77,0 -2.88,5 V -5 Z"
         id="path135" />
    </marker>
  </defs>
  <g
     inkscape:label="det"
     inkscape:groupmode="layer"
     id="layer1"
     style="display:inline"
     sodipodi:insensitive="true">
    <g
       inkscape:label="GridPolar:R10:A1"
       transform="translate(183.88362,46.796146)"
       id="g178"
       style="stroke:#324a99;stroke-opacity:1">
      <g
         id="g188"
         style="stroke:#b2b2b2;stroke-width:0.396875;stroke-dasharray:none;stroke-opacity:0.5">
        <g
           inkscape:label="GridPolar:R5:A1"
           transform="translate(10.587369,-5.423958)"
           id="g54"
           style="fill:none;stroke:#b2b2b2;stroke-width:0.396875;stroke-dasharray:none;stroke-opacity:0.5">
          <circle
             cx="-10.455077"
             cy="5.4239578"
             r="2.6458333"
             style="fill:none;stroke:#b2b2b2;stroke-width:0.396875;stroke-dasharray:none;stroke-opacity:0.5"
             inkscape:label="MajorDivCircle1:R2.6458333333333335"
             id="circle46" />
          <circle
             cx="-10.455077"
             cy="5.4239578"
             r="5.2916665"
             style="fill:none;stroke:#b2b2b2;stroke-width:0.396875;stroke-dasharray:none;stroke-opacity:0.5"
             inkscape:label="MajorDivCircle2:R5.291666666666667"
             id="circle47" />
          <circle
             cx="-10.455077"
             cy="5.4239578"
             r="7.9375"
             style="fill:none;stroke:#b2b2b2;stroke-width:0.396875;stroke-dasharray:none;stroke-opacity:0.5"
             inkscape:label="MajorDivCircle3:R7.9375"
             id="circle48" />
          <circle
             cx="-10.455077"
             cy="5.4239578"
             r="10.583333"
             style="fill:none;stroke:#b2b2b2;stroke-width:0.396875;stroke-dasharray:none;stroke-opacity:0.5"
             inkscape:label="MajorDivCircle4:R10.583333333333334"
             id="circle49" />
          <circle
             cx="-10.455077"
             cy="5.4239578"
             r="13.229167"
             style="fill:none;stroke:#b2b2b2;stroke-width:0.396875;stroke-dasharray:none;stroke-opacity:0.5"
             inkscape:label="MajorDivCircle5:R13.229166666666668"
             id="circle50" />
        </g>
        <circle
           cx="0"
           cy="0"
           r="21.166666"
           style="fill:none;stroke:#b2b2b2;stroke-width:0.396875;stroke-dasharray:none;stroke-opacity:0.5"
           inkscape:label="MajorDivCircle5:R21.166666666666668"
           id="circle169" />
        <circle
           cx="0"
           cy="0"
           r="25.4"
           style="fill:none;stroke:#b2b2b2;stroke-width:0.396875;stroke-dasharray:none;stroke-opacity:0.5"
           inkscape:label="MajorDivCircle6:R25.4"
           id="circle170" />
        <circle
           cx="0"
           cy="0"
           r="29.633333"
           style="fill:none;stroke:#b2b2b2;stroke-width:0.396875;stroke-dasharray:none;stroke-opacity:0.5"
           inkscape:label="MajorDivCircle7:R29.633333333333333"
           id="circle171" />
        <circle
           cx="0"
           cy="0"
           r="33.866665"
           style="fill:none;stroke:#b2b2b2;stroke-width:0.396875;stroke-dasharray:none;stroke-opacity:0.5"
           inkscape:label="MajorDivCircle8:R33.86666666666667"
           id="circle172" />
        <circle
           cx="0"
           cy="0"
           r="38.099998"
           style="fill:none;stroke:#b2b2b2;stroke-width:0.396875;stroke-dasharray:none;stroke-opacity:0.5"
           inkscape:label="MajorDivCircle9:R38.1"
           id="circle173" />
        <circle
           cx="0"
           cy="0"
           r="42.333332"
           style="fill:none;stroke:#b2b2b2;stroke-width:0.396875;stroke-dasharray:none;stroke-opacity:0.5"
           inkscape:label="MajorDivCircle10:R42.333333333333336"
           id="circle174" />
      </g>
      <path
         id="path179"
         style="fill:#000000;fill-opacity:0.5;stroke:#b3b3b3;stroke-width:0.0804193;stroke-linecap:round;stroke-linejoin:round;stroke-opacity:0.198886"
         inkscape:transform-center-x="2.1764627e-06"
         d="m -33.747062,-70.664546 -30.793168,26.407291 -13.463998,38.265703 7.47244,39.870781 26.406782,30.793262 L -5.8592077,78.136998 34.011572,70.664558 64.80474,44.257267 78.269243,5.9914706 70.796803,-33.87931 44.389516,-64.67248 6.1237178,-78.136985 Z m 10.565357,22.036672 27.4373821,-5.142216 26.3322079,9.265733 18.172251,21.190403 5.142121,27.4368751 -9.265638,26.3327139 -21.189896,18.172157 -27.4373821,5.142216 -26.3327139,-9.265639 -18.172253,-21.190402 -5.142121,-27.4368752 9.26564,-26.3327148 z"
         inkscape:transform-center-y="4.7827534e-05" />
      <g
         id="g189"
         style="stroke:#ffffff;stroke-opacity:0.604357">
        <path
           sodipodi:type="star"
           style="fill:none;fill-opacity:0.5;stroke:#ffffff;stroke-width:2.94331;stroke-linecap:round;stroke-linejoin:round;stroke-dasharray:none;stroke-opacity:0.604357"
           id="path179-9"
           inkscape:flatsided="true"
           sodipodi:sides="12"
           sodipodi:cx="606.49231"
           sodipodi:cy="170.5"
           sodipodi:r1="354.85028"
           sodipodi:r2="177.42514"
           sodipodi:arg1="0.78539816"
           sodipodi:arg2="1.0471976"
           inkscape:rounded="0"
           inkscape:randomized="0"
           d="m 857.40935,421.41704 -159.07503,91.84201 -183.68402,0 -159.07503,-91.84201 -91.84201,-159.07503 0,-183.68402 91.84201,-159.075029 159.07503,-91.842011 183.68402,0 159.07503,91.842009 91.84201,159.075029 0,183.684022 z"
           transform="matrix(0.17670968,-0.0331183,0.0331183,0.17670968,-112.68744,-10.043007)"
           inkscape:transform-center-x="-5.1894857e-06" />
        <path
           sodipodi:type="star"
           style="fill:none;fill-opacity:0.5;stroke:#ffffff;stroke-width:2.64679;stroke-linecap:round;stroke-linejoin:round;stroke-dasharray:none;stroke-opacity:0.604357"
           id="path179-9-6-0"
           inkscape:flatsided="true"
           sodipodi:sides="12"
           sodipodi:cx="606.49231"
           sodipodi:cy="170.5"
           sodipodi:r1="354.85028"
           sodipodi:r2="177.42514"
           sodipodi:arg1="0.78539816"
           sodipodi:arg2="1.0471976"
           inkscape:rounded="0"
           inkscape:randomized="0"
           d="m 857.40935,421.41704 -159.07503,91.84201 -183.68402,0 -159.07503,-91.84201 -91.84201,-159.07503 0,-183.68402 91.84201,-159.075029 159.07503,-91.842011 183.68402,0 159.07503,91.842009 91.84201,159.075029 0,183.684022 z"
           transform="matrix(0.19650651,-0.03682855,0.03682855,0.19650651,-125.32666,-11.168127)"
           inkscape:transform-center-x="-7.9633565e-06" />
      </g>
      <path
         id="path180"
         style="fill:#b3b3b3;fill-opacity:0.303108;stroke:none;stroke-width:0.51617;stroke-linecap:round;stroke-linejoin:round;stroke-dasharray:none;stroke-opacity:0.395445"
         d="M 0.13225461,-93.799212 A 93.799221,93.799221 0 0 0 -93.666958,3.3742688e-7 93.799221,93.799221 0 0 0 0.13225461,93.799213 93.799221,93.799221 0 0 0 93.931467,3.3742688e-7 93.799221,93.799221 0 0 0 0.13225461,-93.799212 Z m 0,6.091205 A 87.707842,87.707842 0 0 1 87.840262,3.3742688e-7 87.707842,87.707842 0 0 1 0.13225461,87.708008 87.707842,87.707842 0 0 1 -87.575753,3.3742688e-7 87.707842,87.707842 0 0 1 0.13225461,-87.708007 Z" />
      <path
         id="path181"
         style="fill:#808080;fill-opacity:0.300573;stroke:none;stroke-width:0.140009;stroke-linecap:round;stroke-linejoin:round;stroke-dasharray:none;stroke-opacity:0.395445"
         d="m -65.808006,-137.53477 -59.933184,51.395918 -26.20526,74.476923 14.54392,77.602197 51.395926,59.933182 74.476925,26.20526 L 66.072517,137.53479 126.0057,86.138864 152.21146,11.661848 137.66704,-65.940256 86.271112,-125.87344 11.79419,-152.0787 Z m 16.105248,33.59144 58.648621,-10.99171 56.286842,19.804717 38.842885,45.295316 L 115.06731,8.813611 95.262585,65.100456 49.967269,103.94334 -8.6813522,114.93506 -64.967687,95.130242 -103.81108,49.835018 -114.80279,-8.8136001 -94.997568,-65.100537 Z"
         inkscape:transform-center-x="2.0306897e-06"
         inkscape:transform-center-y="4.5141817e-05" />
    </g>
  </g>
  <g
     inkscape:groupmode="layer"
     id="layer2"
     inkscape:label="particle"
     style="display:inline"
     sodipodi:insensitive="true">
    <path
       style="display:inline;fill:none;fill-opacity:0.5;stroke:#e5e5e5;stroke-width:1.05833;stroke-linecap:butt;stroke-linejoin:round;stroke-dasharray:1.05833, 1.05833;stroke-dashoffset:0;stroke-opacity:0.7"
       d="m 184.24351,46.877511 -31.41369,6.807135"
       id="path182"
       sodipodi:nodetypes="cc" />
    <path
       style="display:inline;fill:none;fill-opacity:0.5;stroke:#e5e5e5;stroke-width:1.05833;stroke-linecap:round;stroke-linejoin:round;stroke-dasharray:none;stroke-opacity:0.7;marker-end:url(#marker188)"
       d="m 184.01172,46.470896 c 0,0 -21.28033,-17.83261 -49.13303,-16.964016 -27.8528,0.868593 -32.66784,8.695463 -81.474871,-3.104987"
       id="path183"
       sodipodi:nodetypes="csc" />
    <path
       style="fill:none;fill-opacity:1;stroke:#e5e5e5;stroke-width:0.661458;stroke-linecap:round;stroke-linejoin:round;stroke-dasharray:none;stroke-opacity:0.8"
       d="m 151.70171,53.262069 -2.55291,-0.489146 -4.16768,-0.328938 m 5.68649,1.766982 -3.15802,0.09258 -2.28877,0.06711 m 5.91017,-1.217931 -4.29725,-0.82338 -3.29389,-1.53464 -3.70365,-1.725545 -3.77007,-1.193982 m 10.76761,4.454167 -2.89188,-0.228252 -3.39027,-0.649591 -2.99364,-0.573601 m 9.27579,1.451444 -2.75028,-0.526974 -2.72254,-0.521652 -1.7158,-0.799403 -2.88029,-1.341926 -3.1038,-0.982984 m 7.69989,3.124313 -2.62981,-0.207561 -4.59393,-0.880222 -3.55221,-0.68062 m 10.77595,1.768407 -3.57847,-0.282428 -2.90188,-0.22904 -2.77318,-0.878267 -1.83758,-0.581966 -3.23575,-0.619985 m 7.84651,2.080218 -2.87004,0.08414 -3.78336,-0.29861 -2.04288,-0.161232 m 24.84428,3.766914 -3.22379,0.451096 -4.17161,-0.329257 -4.77517,-0.376891 -3.42436,0.100393 m 12.37114,0.605747 -3.3276,0.866222 -3.54523,0.496067 -3.95449,0.553335 m 10.82732,-1.915624 -2.55182,0.07481 -3.65324,0.107106 -2.8236,-0.541019 -2.98839,-0.572594 -2.84252,-0.224346 m 8.65451,1.337958 -3.62759,0.507586 -4.23466,0.124152 -3.69165,0.10823 m 11.5539,-0.739968 -2.79,0.0818 -3.17157,0.09298 -2.89604,-0.554906 -2.37541,-0.455139 -3.68089,-0.290522 m 8.95234,1.300565 -3.58582,0.501749 -3.40845,0.09993 -2.6988,0.07912 m 23.91455,-1.797079 -2.67282,0.07836 -2.41031,-0.461833 -4.27872,-0.819818 -3.92067,-0.309444 m 10.6097,1.591099 -3.55563,0.497532 -4.56081,0.133711 -3.292,0.09651 m 11.40844,-0.727757 -2.55737,0.07498 -3.05369,0.08953 -2.80879,-0.538178 -2.93496,-0.562353 -2.76039,-0.21787 m 8.50414,1.318397 -3.35686,0.469716 -3.32204,0.0974 -3.45677,0.101344 m 10.13567,-0.668456 -2.22733,-0.426765 -3.80458,-0.728978 -1.95829,-0.912377 -1.49539,-0.69671 -3.20436,-1.014824 m 6.65804,2.623911 -3.8816,-0.306357 -2.42734,-0.465097 -2.6651,-0.510647 m 8.97404,1.282103 -3.14597,-0.602791 -3.67863,-0.704848 -3.10502,-1.446643 -2.08338,-0.97065 -3.00422,-0.951438 m 8.19262,3.368731 -3.74121,-0.295273 -3.71518,-0.711854 -2.61878,-0.501776 m 10.07517,1.508904 -3.7893,-0.299069 -2.81041,-0.221822 -1.83871,-0.582321 -3.5954,-1.138658 -3.44863,-0.660772 m 8.88274,2.381751 -4.0918,0.119962 -2.54639,-0.200971 -4.18698,-0.330464 m 30.28139,3.395749 -2.61347,0.365687 -3.87108,0.541667 -3.17354,-0.25048 -4.31659,-0.340694 -3.20347,0.09392 m 10.6936,0.497254 -1.66581,0.43364 -3.82297,0.53493 -3.40302,0.476168 m 8.8918,-1.444738 -3.04686,0.08933 -4.42259,0.12966 -3.6079,-0.691299 -3.98007,-0.762603 -3.70543,-0.292459 m 11.29342,1.746359 -3.64587,0.510144 -4.36958,0.128106 -3.77761,0.110751 m 11.79306,-0.749001 -3.09028,0.0906 -4.07791,0.119554 -3.61873,-0.693363 -3.50716,-0.671988 -2.44032,-0.19261 m 9.56621,1.557962 -3.49801,0.489455 -4.21781,0.123658 -3.08475,0.09044 m 31.92274,-2.040046 -4.48291,-0.858947 -3.40308,-0.652049 -3.40693,-1.58731 -2.19477,-1.022547 -2.97362,-0.941746 m 8.57532,3.551602 -2.67595,-0.211199 -4.4489,-0.85243 -3.47247,-0.665345 m 10.59732,1.728979 -2.39138,-0.458206 -3.89221,-0.745762 -2.0095,-0.936246 -3.39876,-1.583496 -4.0201,-1.273169 m 9.42836,3.792911 -3.11592,-0.245929 -2.80017,-0.53653 -2.67879,-0.513268 m 8.59488,1.295731 -3.23041,-1.505066 -2.2105,-1.02989 -2.07016,-1.950846 -1.07851,-1.016342 -1.79859,-1.186841 m 4.94726,4.154029 -3.52327,-1.115813 -2.97467,-1.385904 -1.97308,-0.919259 m 8.47102,3.420977 -3.15854,-1.471566 -2.44087,-1.137207 -1.51454,-1.427241 -2.18431,-2.058405 -2.11001,-1.39234 m 5.80886,4.877986 -3.21603,-1.018516 -2.86211,-1.333451 -3.18361,-1.48326 m 9.26175,3.835227 -3.24856,-1.028811 -3.16319,-1.001782 -2.20927,-1.457833 -3.08383,-2.034935 -2.74002,-1.276582 m 8.03312,4.76935 -2.86654,-0.549245 -2.86958,-0.90879 -2.31935,-0.734532 m 25.50754,9.366889 -4.26178,-0.336372 -2.90383,-0.229178 -4.11348,-1.302738 -3.35007,-1.060963 -3.54564,-0.679356 m 11.00919,3.043057 -4.52281,0.132599 -2.92622,-0.230963 -5.29207,-0.417678 m 12.7411,0.516039 -3.68984,-0.707001 -2.35297,-0.450833 -3.28529,-1.530619 -3.30122,-1.53804 -2.68147,-0.849214 m 9.26798,3.917871 -1.52647,-0.120479 -3.34544,-0.641009 -3.58612,-0.687115 m 8.45803,1.448603 -3.6377,-0.697003 -2.32512,-0.445506 -3.37212,-1.571066 -2.40526,-1.120618 -3.429254,-1.086043 m 9.206634,3.777727 -3.60801,-0.284758 -3.468,-0.664487 -3.577154,-0.685406 m 29.824404,4.500547 -3.91131,-0.749437 -2.76363,-0.529525 -2.85541,-1.330344 -3.17719,-1.480256 -2.39912,-0.759795 m 8.43172,3.570395 -2.71698,-0.214444 -4.54961,-0.871725 -3.65899,-0.701082 m 10.92558,1.787231 -3.6308,-0.695683 -2.88322,-0.552439 -3.04401,-1.418208 -2.72535,-1.269748 -4.04608,-1.281375 m 9.81544,3.969332 -4.0291,-0.318 -4.37508,-0.838291 -4.03532,-0.773183 m 12.4395,1.929473 -2.9635,-1.380688 -2.71504,-1.264947 -2.06263,-1.94373 -1.96515,-1.851874 -2.43357,-1.605847 m 6.46135,5.40145 -2.69124,-0.852308 -2.92791,-1.364118 -3.386854,-1.57794 m 9.006004,3.794366 -2.47927,-1.155095 -3.10792,-1.44799 -3.326294,-3.134544 -1.40865,-1.327464 -3.376601,-2.22812 m 8.111545,6.690129 -4.090064,-1.295309 -2.16223,-1.007388 -2.721118,-1.267779 m 8.973412,3.570476 -3.015474,-0.954992 -1.98827,-0.629677 -1.79334,-1.183382 -2.552755,-1.68449 -3.578108,-1.667057 m 7.924203,4.534928 -3.602858,-0.690326 -3.293955,-1.043203 -3.07287,-0.973174 m 26.239157,9.540092 -2.02755,-0.160026 -3.24985,-0.256503 -4.00576,-1.268619 -3.66367,-1.160272 -3.566264,-0.683313 m 11.235694,3.112204 -3.44007,0.100853 -4.02525,-0.317689 -2.562684,-0.202265 m 10.028004,0.419104 -2.8527,-0.54659 -4.53592,-0.869104 -2.330404,-1.085733 -3.199637,-1.490717 -2.821625,-0.893611 m 8.351676,3.470061 -3.288024,-0.259506 -3.272931,-0.627113 -3.317472,-0.635653 m 9.878427,1.522268 -3.017324,-0.578132 -2.766427,-0.530054 -1.995048,-0.929504 -2.178128,-1.014798 -2.47921,-0.785168 m 6.652386,2.72947 -4.177886,-0.329751 -3.46039,-0.663028 -2.85694,-0.547406 m 28.944977,4.48059 -2.91156,-0.229794 -2.61759,-0.206595 -3.78302,-1.198068 -2.412,-0.763878 -2.807364,-0.537902 m 9.002384,2.499848 -3.73962,0.109637 -4.30218,-0.339552 -3.702064,-0.29219 m 11.743854,0.522109 -2.82201,-0.222722 -2.18367,-0.172344 -3.48388,-1.103346 -2.393084,-0.757879 -2.595604,-0.497344 m 8.472568,2.358557 -3.898244,0.114287 -3.45232,-0.272482 -2.613265,-0.206259 m 9.963829,0.364447 -3.42354,-1.084238 -3.250304,-1.029361 -2.035191,-1.342972 -1.738521,-1.14721 -1.499341,-0.698545 m 5.273053,3.188727 -2.610998,-0.500284 -2.225318,-0.704752 -2.813027,-0.89089 m 7.649343,2.095926 -3.262765,-1.033318 -2.089658,-0.661793 -2.50614,-1.653739 -2.61475,-1.725415 -3.58205,-1.668892 m 8.70294,5.048046 -3.38335,-0.648273 -2.50865,-0.794493 -3.04457,-0.964205 m 8.93657,2.406971 -3.26236,-0.625089 -2.82475,-0.541235 -2.85318,-1.329308 -3.34575,-1.5588 -2.69903,-0.854783 m 8.89796,3.742891 -2.92564,-0.230912 -3.82876,-0.733612 -3.74587,-0.71773 m 28.613647,6.65729 -3.767204,0.110445 -2.97228,0.08714 -3.701012,-0.709137 -3.176181,-0.608581 -3.66181,-0.28901 m 10.539003,1.606733 -3.059385,0.42808 -2.708488,0.07941 -3.89374,0.114156 m 9.661613,-0.621644 -3.816522,-0.301227 -2.311141,-0.182412 -3.17736,-1.006268 -3.76178,-1.191364 -1.74415,-0.334188 m 8.68329,2.53182 -3.94767,0.115738 -3.85325,-0.304118 -3.0604,-0.241547 m 10.86132,0.429927 -3.5511,-0.28027 -2.89002,-0.22811 -3.17962,-1.006983 -3.72948,-1.181131 -3.62797,-0.695136 m 10.53707,2.88325 -2.877,0.08435 -3.63436,-0.286846 -4.03299,-0.318309 m 67.745997,7.388755 -3.7101,0.519142 -2.79858,0.391591 -2.88391,-0.227617 -4.1244,-0.325533 -4.51229,0.13229 m 11.52061,0.42086 -3.71701,0.967595 -3.69466,0.516976 -4.01353,0.561593 m 11.4252,-2.046164 -2.99967,0.419724 -3.13054,0.438047 -3.53168,-0.278744 -3.88155,-0.306364 -3.42337,0.100366 m 10.8366,0.48474 -2.46002,0.640383 -2.86479,0.400853 -3.94699,0.552289 m 9.2718,-1.593525 -3.83257,-0.302484 -3.54483,-0.279786 -3.76444,-1.192196 -3.48614,-1.104061 -3.55677,-0.68149 m 10.80735,2.977747 -3.04755,0.08935 -3.06517,-0.241923 -2.44797,-0.193212 m 8.56069,0.345788 -3.08525,-0.243506 -2.38596,-0.18831 -2.54645,-0.806455 -2.3712,-0.750954 -2.6084,-0.499782 m 7.52605,2.057191 -3.72061,0.109079 -3.86625,-0.305148 -4.27344,-0.337285 m 11.8603,0.533355 -3.00056,0.08797 -4.17046,0.122268 -3.69462,-0.707915 -3.18261,-0.609794 -4.269034,-0.336944 m 11.146264,1.654653 -2.58834,0.362167 -3.42712,0.100475 -4.960584,0.145431 m 30.995674,0.195783 -2.09735,0.545973 -3.8514,1.002579 -2.92821,0.08585 -3.1603,0.09265 -2.48412,0.347592 m 8.57263,-0.526092 -2.53663,1.016431 -3.40667,0.886807 -1.59366,0.414851 m 7.53696,-2.318089 -2.83664,0.396919 -3.73483,0.522593 -4.88353,-0.385434 -4.90684,-0.387275 -3.5582,0.104318 m 13.34857,0.668398 -2.94159,0.765741 -3.00076,0.419881 -3.18712,0.445956 m 9.12947,-1.631578 -2.4261,0.339473 -3.29274,0.460736 -3.81168,-0.300843 -3.51182,-0.277176 -2.51311,0.07368 m 9.83661,0.504337 -2.1826,0.568161 -2.66156,0.372416 -3.36706,0.471137 m 26.45028,-4.679987 -2.11865,0.06212 -3.55372,0.104188 -3.72265,-0.71328 -2.83878,-0.543926 -4.58145,-0.36159 m 11.14288,1.618787 -3.42002,0.478546 -4.16685,0.122163 -3.03363,0.08894 m 10.6205,-0.689648 -3.28732,0.09638 -2.92443,0.08574 -3.08582,-0.591259 -2.99658,-0.574157 -3.2733,-0.258343 m 9.3557,1.423759 -3.90621,0.546574 -3.40455,0.09981 -3.0229,0.08863 m 10.33366,-0.735034 -4.73951,-0.908114 -2.3601,-0.452197 -2.81936,-1.313557 -2.13045,-0.992578 -3.87434,-1.226994 m 8.82415,3.533129 -3.59394,-0.283662 -3.6971,-0.708381 -4.237234,-0.811877 m 11.528274,1.803917 -3.28698,-0.629803 -1.99892,-0.383002 -2.64447,-1.232067 -1.97218,-0.918847 -4.219351,-1.336252 m 8.836001,3.487166 -3.6349,-0.286893 -3.129084,-0.599543 -3.597688,-0.689338 m 10.361672,1.575774 -3.10522,-0.24508 -4.483964,-0.353906 -4.063912,-1.287038 -3.440231,-1.089523 -4.70811,-0.902104 m 12.212253,3.278665 -3.816432,0.11189 -2.956621,-0.233357 -3.23038,-0.254955 m 29.978127,3.348531 -2.4859,0.347838 -2.457,0.343795 -4.48367,-0.353875 -3.83175,-0.302424 -2.09906,0.06155 m 10.41448,0.594763 -3.34677,0.871213 -2.68893,0.376248 -3.116,0.436005 m 9.1517,-1.683466 -2.60877,0.07648 -2.96873,0.08704 -2.69032,-0.515477 -3.03615,-0.581743 -3.008224,-0.23742 m 8.734694,1.334642 -3.39634,0.475232 -4.486014,0.131518 -3.638124,0.106662 m 11.520478,-0.713412 -2.57024,0.07535 -3.94295,0.115597 -3.089654,-0.591988 -3.546292,-0.679495 -3.829581,-0.302252 m 10.465527,1.573733 -3.019924,0.42256 -3.144045,0.09218 -2.341648,0.06865 m 25.539207,-1.629491 -2.77847,0.08146 -3.38883,0.09935 -2.35886,-0.451976 -3.39256,-0.650026 -4.15142,-0.327654 m 9.90284,1.429655 -2.66885,0.373439 -2.39643,0.07026 -1.6213,0.04753 m 6.68658,-0.491228 -3.75723,0.110153 -2.96233,0.08685 -3.86514,-0.740576 -3.717804,-0.712347 -5.249843,-0.41435 m 12.832787,1.867276 -2.62771,0.367684 -4.179694,0.122536 -3.031988,0.08889 m 9.839392,-0.579112 -3.17123,-0.60762 -4.437164,-0.850182 -2.726575,-1.270321 -2.952508,-1.375585 -3.376,-1.06918 m 9.055083,3.715086 -4.482986,-0.353828 -3.748457,-0.718224 -3.3009,-0.632476 m 11.532343,1.704529 -2.512848,-0.481474 -3.596755,-0.689164 -1.33074,-0.619993 -3.12264,-1.454853 -2.88756,-0.914488 m 7.34094,2.989334 -3.57081,-0.281826 -2.25341,-0.431775 -2.82065,-0.540442 m 8.64487,1.254043 -3.56816,-0.281618 -4.43628,-0.35013 -1.94685,-0.616573 -3.45386,-1.093837 -4.12234,-0.789866 m 9.52305,2.500275 -2.88797,0.08467 -2.76561,-0.218289 -2.90115,-0.228979 m 30.277167,3.622793 -4.177084,0.584476 -2.89502,0.405085 -3.275695,-0.258535 -4.156288,-0.328041 -3.45129,0.101184 m 10.883273,0.485396 -3.284995,0.855135 -4.078308,0.570658 -4.286,0.599722 m 11.649303,-2.025515 -2.752248,0.08069 -3.574735,0.104803 -2.3817,-0.456346 -2.6481,-0.507388 -3.05728,-0.241306 m 8.08708,1.205042 -4.15444,0.581311 -3.37674,0.099 -1.98066,0.05807 m 9.51184,-0.738378 -4.31675,0.126557 -2.96656,0.08697 -2.64373,-0.506552 -2.33256,-0.446931 -3.78411,-0.298672 m 8.7604,1.252153 -2.07125,0.289822 -2.00099,0.05866 -3.18625,0.09341"
       id="path184"
       sodipodi:nodetypes="ccccccccccccccccccccccccccccccccccccccccccccccccccccccccccccccccccccccccccccccccccccccccccccccccccccccccccccccccccccccccccccccccccccccccccccccccccccccccccccccccccccccccccccccccccccccccccccccccccccccccccccccccccccccccccccccccccccccccccccccccccccccccccccccccccccccccccccccccccccccccccccccccccccccccccccccccccccccccccccccccccccccccccccccccccccccccccccccccccccccccccccccccccccccccccccccccccccccccccccccccccccccccccccccccccccccccccccccccccccccccccccccccccccccccccccccccccccccccccccccccccccccccccccccccccccccccccccccccccccccccccccccccccccccccccccccccccccccccccccccccccccccccccccccccccccccccccccccccccccccccccccccccccccccccccccccc" />
    <path
       style="fill:none;fill-opacity:0.5;stroke:#e5e5e5;stroke-width:1.05833;stroke-linecap:round;stroke-linejoin:round;stroke-dasharray:1.05833, 4.23333;stroke-dashoffset:0;stroke-opacity:0.7;marker-end:url(#Triangle)"
       d="M 151.93228,53.306782 119.25754,67.517626"
       id="path187"
       sodipodi:nodetypes="cc" />
  </g>
  <g
     inkscape:groupmode="layer"
     id="layer3"
     inkscape:label="col">
    <path
       style="fill:none;fill-opacity:1;stroke:#ffffff;stroke-width:0.316583;stroke-linecap:round;stroke-linejoin:miter;stroke-dasharray:none;stroke-opacity:0.39509812"
       d="m 184.4189,46.989368 v -9.881119 3.410059 m 0,6.47106 0.5896,4.058292 -0.57644,-3.967643 m -0.012,-0.09065 -3.13994,7.923361 -3.03812,7.666461 m 6.17806,-15.589822 7.70965,-0.960505 5.84267,-0.727908 m -13.55232,1.688413 v -11.050442 0.483129 m 0,10.567313 -3.66687,0.04094 -10.69442,0.119438 m 14.36129,-0.160383 1.35058,-3.669493 1.38764,-3.770215 m -2.73822,7.439708 -0.2864,-0.40958 7.10358,10.158917 m -6.81718,-9.749337 -0.11175,0.450916 -1.35457,5.468899 m 1.46625,-5.919815 4.89643,-4.322027 2.93811,-2.593442 m -7.83454,6.915469 -7.49336,-3.716902 -3.46805,-1.720251 m 10.96141,5.437153 0.36009,1.240881 0.44836,1.545155 m -0.80845,-2.786036 -0.70179,2.833363 -0.12588,0.508673 m 0.82779,-3.342036 -1.88061,-0.959935 -6.42014,-3.277076 m 8.30075,4.237011 -11.91402,-2.913888 -4.50818,-1.102593 m 16.4222,4.016481 8.83041,2.186367 6.96557,1.724639 m -15.79598,-3.911006 -4.76311,7.220595 -4.49813,6.818889 m 9.26124,-14.039484 -9.88846,3.420452 -4.54902,1.573524 m 14.43748,-4.993976 -7.8013,-3.278876 -10.86612,-4.567012 m 18.66742,7.845888 2.34016,3.208462 0.61468,0.842768 m -2.95484,-4.05123 2.35451,-3.569315 2.00671,-3.042043 m -4.36122,6.611358 -15.2712,-8.221257 1.98363,1.067896 m 13.28757,7.153361 -11.88908,5.754057 -10.30074,4.985335 m 22.18982,-10.739392 -0.57486,0.769945 -3.64096,4.876656 m 4.21582,-5.646601 6.19239,-4.992437 1.39396,-1.123846 m -7.58635,6.116283 0.2887,0.160048 0.13473,0.07462 m -0.42333,-0.234664 11.27028,-6.11379 7.58049,-4.112184 m -18.85077,10.225974 10.38738,-1.666947 5.37627,-0.862772 m -15.76365,2.529719 6.01499,-4.849413 2.77576,-2.237885 m -8.79075,7.087298 -0.67628,-3.893424 -1.51142,-8.701158 m 2.1877,12.594582 8.17346,-2.714763 -2.31081,0.767526 m -5.86265,1.947237 2.01685,-1.174818 8.69408,-5.064308"
       id="path189" />
    <path
       style="fill:none;fill-opacity:1;stroke:#ffffff;stroke-width:0.633165;stroke-linecap:round;stroke-linejoin:miter;stroke-dasharray:none;stroke-opacity:0.39509812"
       d="m 184.41114,47.098755 3.93817,-14.697458 4.75414,-17.742705 m -8.69231,32.440163 -0.60001,-1.386595 11.60235,26.81313 m -11.00234,-25.426535 -14.88001,19.89959 -10.63162,14.218036 m 25.51163,-34.117626 -18.00624,1.92683 -13.18325,1.410733 m 31.18949,-3.337563 2.72707,-10.177545 4.74719,-17.716846 m -7.47426,27.894391 -13.12599,-5.517268 5.27817,2.218583 m 7.84782,3.298685 5.9529,34.147529 4.06431,23.313956 m -10.01721,-57.461485 3.17402,12.174331 5.01883,19.250213 m -8.19285,-31.424544 -1.9939,-12.147627 -3.70219,-22.555387 m 5.69609,34.703014 17.92215,-5.561666 -3.31016,1.027218 m -14.61199,4.534448 -0.59781,-2.901099 -0.0168,-0.07835 m 0.61396,2.979455 -12.93021,1.507399 -13.72985,1.600634 m 26.66006,-3.108033 -2.35683,-14.358685 -1.86887,-11.385927 m 4.2257,25.744612 -8.36651,8.176136 2.94268,-2.87573 m 5.42383,-5.300406 10.2743,3.151785 27.9527,8.574883 m -38.227,-11.72667 -0.2003,-4.331693 -0.81113,-17.5417 m 1.01146,21.873395 0.61825,18.693265 0.40679,12.29866 m -1.02504,-30.991925 -5.00211,-12.325793 -2.01326,-4.960964 m 7.01537,17.286757 -0.409,-0.153156 -5.55318,-2.079234 m 5.96218,2.232373 -6.56784,1.130245 -10.75138,1.850199 m 17.31922,-2.980444 0.12516,3.783921 0.21585,6.528115 m -0.34106,-10.312033 2.46132,-1.736339 -11.29539,7.96821 m 8.83407,-6.231871 10.56146,28.452882 5.27168,14.202055 m -15.83314,-42.65494 11.24241,1.864447 -16.34112,-2.710019 m 5.09871,0.845572 -5.00849,-4.96221 -6.59563,-6.534699 m 11.60412,11.496909 0.32058,-0.293983 1.36799,-1.254576 m -1.68855,1.548564 -26.32456,-19.000216 -7.61492,-5.496218 m 33.93948,24.496434 -1.43316,-2.83841 11.62176,23.017419 m -10.1886,-20.179009 -10.104,-10.010662 -15.45935,-15.316542 m 25.56335,25.327204 -10.60245,11.584573 -10.06588,10.998292 m 20.66833,-22.582865 15.77153,-6.704604 17.0168,-7.233986 m -32.78833,13.93859 -14.02908,-4.842447 -0.24225,-0.08349"
       id="path190" />
  </g>
</svg>
