<?xml version="1.0" encoding="UTF-8"?>
<svg width="1800mm" height="500mm" preserveAspectRatio="none" version="1.1" viewBox="0 0 1800 500" xmlns="http://www.w3.org/2000/svg" xmlns:xlink="http://www.w3.org/1999/xlink">
<defs>
<linearGradient id="a" x1="-.204" x2="1731" y1="250" y2="250" gradientUnits="userSpaceOnUse">
<stop stop-opacity="0" offset=".0108"/>
<stop offset=".112"/>
</linearGradient>
</defs>
<path d="m1427 500 258-0.047c4.02-8.76 8.64-17.5 13.4-26.3 4.73-8.77 9.55-17.5 13.9-26.3 0.957-1.91 1.79-3.82 2.7-5.74-6.59-6.87-13.2-13.7-19.6-20.6-8.15-8.77-15.9-17.5-22.9-26.3-6.99-8.77-13.2-17.5-18.2-26.3-5.06-8.77-8.97-17.5-11.5-26.3-2.55-8.77-3.74-17.5-3.5-26.3 0.244-8.77 1.91-17.5 4.92-26.3 3.01-8.77 7.35-17.5 12.8-26.3 5.23-8.44 11.5-16.9 18.4-25.3-0.102-0.357-0.226-0.714-0.324-1.07-2.42-8.77-3.84-17.5-4.13-26.3-0.287-8.77 0.573-17.5 2.48-26.3 1.91-8.77 4.86-17.5 8.54-26.3 3.68-8.77 8.08-17.5 12.7-26.3 4.64-8.77 9.52-17.5 14.1-26.3 4.58-8.77 8.86-17.5 12.4-26.3 3.51-8.77 6.25-17.5 7.93-26.3 1.67-8.77 2.27-17.5 1.73-26.3-0.476-7.76-1.89-15.5-4.02-23.3-0.666-0.947-1.37-1.89-2.03-2.84l-1725-0.206 0.204 500z" fill="url(#a)"/>
<path d="m1725 0.15c6.08 8.77 12.6 17.5 19.1 26.3s12.9 17.5 18.9 26.3c5.93 8.77 11.3 17.5 15.8 26.3 4.48 8.77 8.02 17.5 10.4 26.3 2.36 8.77 3.52 17.5 3.4 26.3-0.117 8.77-1.52 17.5-4.09 26.3-2.57 8.77-6.32 17.5-11 26.3-4.64 8.77-10.2 17.5-16.2 26.3s-12.5 17.5-19 26.3-13 17.5-19 26.3c-5.99 8.77-11.5 17.5-16.1 26.3-4.6 8.77-8.28 17.5-10.8 26.3-2.51 8.77-3.84 17.5-3.89 26.3-0.05 8.77 1.18 17.5 3.6 26.3 2.42 8.77 6.02 17.5 10.5 26.3 4.52 8.77 9.97 17.5 15.9 26.3 5.95 8.77 12.4 17.5 18.9 26.3 6.49 8.77 13 17.5 19.1 26.3 6.05 8.77 11.6 17.5 16.4 26.3h-350v-500z" fill-opacity=".201" title="0.5*sin(3.7*t+0.2)  t"/>
<path d="m1759 0.212c6.74 8.77 12.6 17.5 17.3 26.3 4.7 8.77 8.2 17.5 10.3 26.3 2.13 8.77 2.87 17.5 2.18 26.3-0.682 8.77-2.79 17.5-6.21 26.3-3.41 8.77-8.14 17.5-13.9 26.3-5.76 8.77-12.6 17.5-20 26.3-7.46 8.77-15.6 17.5-23.9 26.3-8.33 8.77-16.9 17.5-25.1 26.3-8.25 8.77-16.2 17.5-23.5 26.3-7.25 8.77-13.8 17.5-19.2 26.3-5.44 8.77-9.77 17.5-12.8 26.3-3.01 8.77-4.68 17.5-4.92 26.3-0.242 8.77 0.949 17.5 3.5 26.3 2.55 8.77 6.47 17.5 11.5 26.3 5.05 8.77 11.3 17.5 18.2 26.3 6.99 8.77 14.8 17.5 22.9 26.3 8.14 8.77 16.6 17.5 25 26.3 8.38 8.77 16.6 17.5 24.3 26.3 7.68 8.77 14.8 17.5 20.9 26.3l-339 0.062v-500z" fill-opacity=".497" title="0.5*sin(3*t+0.2*t+0.7)  t"/>
<path d="m1726 0c2.63 8.77 4.31 17.5 4.85 26.3 0.538 8.77-0.058 17.5-1.73 26.3-1.67 8.77-4.41 17.5-7.93 26.3-3.51 8.77-7.79 17.5-12.4 26.3-4.58 8.77-9.46 17.5-14.1 26.3-4.64 8.78-9.04 17.6-12.7 26.3-3.68 8.78-6.64 17.5-8.54 26.3-1.91 8.77-2.77 17.5-2.48 26.3 0.287 8.78 1.71 17.6 4.13 26.3 2.42 8.78 5.82 17.5 9.83 26.3 4.02 8.77 8.64 17.5 13.4 26.3 4.73 8.77 9.56 17.5 14 26.3 4.4 8.78 8.37 17.5 11.5 26.3 3.1 8.77 5.34 17.5 6.47 26.3 1.12 8.77 1.14 17.5 0.034 26.3-1.1 8.78-3.32 17.5-6.41 26.3s-7.04 17.5-11.4 26.3c-4.39 8.77-9.22 17.5-13.9 26.3-4.73 8.78-9.36 17.5-13.4 26.3h-258v-500z" fill-opacity=".3" title="0.5*sin(4*t+0.5*t+0.8)  t"/>
</svg>
