<?xml version="1.0" encoding="UTF-8" standalone="no"?>
<svg
   width="1800mm"
   height="500mm"
   preserveAspectRatio="none"
   version="1.1"
   viewBox="0 0 1800 500"
   id="svg5"
   sodipodi:docname="separator_mask_opt2.svg"
   inkscape:version="1.3.2 (1:1.3.2+202311252150+091e20ef0f)"
   xmlns:inkscape="http://www.inkscape.org/namespaces/inkscape"
   xmlns:sodipodi="http://sodipodi.sourceforge.net/DTD/sodipodi-0.dtd"
   xmlns="http://www.w3.org/2000/svg"
   xmlns:svg="http://www.w3.org/2000/svg">
  <sodipodi:namedview
     id="namedview5"
     pagecolor="#ffffff"
     bordercolor="#000000"
     borderopacity="0.25"
     inkscape:showpageshadow="2"
     inkscape:pageopacity="0.0"
     inkscape:pagecheckerboard="0"
     inkscape:deskcolor="#d1d1d1"
     inkscape:document-units="mm"
     inkscape:zoom="0.27689123"
     inkscape:cx="6399.6249"
     inkscape:cy="695.21884"
     inkscape:window-width="1920"
     inkscape:window-height="1043"
     inkscape:window-x="0"
     inkscape:window-y="0"
     inkscape:window-maximized="1"
     inkscape:current-layer="layer4"
     showgrid="true">
    <inkscape:grid
       id="grid5"
       units="mm"
       originx="0"
       originy="0"
       spacingx="5.0000001"
       spacingy="5.0000001"
       empcolor="#0099e5"
       empopacity="0.30196078"
       color="#0099e5"
       opacity="0.14901961"
       empspacing="5"
       dotted="false"
       gridanglex="30"
       gridanglez="30"
       visible="true" />
  </sodipodi:namedview>
  <defs
     id="defs2">
    <linearGradient
       id="a"
       x1="-.204"
       x2="1731"
       y1="250"
       y2="250"
       gradientUnits="userSpaceOnUse"
       gradientTransform="matrix(1.0297881,0,0,1,0.2102,-0.09715)">
      <stop
         stop-opacity="0"
         offset=".0108"
         id="stop1" />
      <stop
         offset=".112"
         id="stop2" />
    </linearGradient>
  </defs>
  <g
     inkscape:groupmode="layer"
     id="layer4"
     inkscape:label="Layer 3">
    <path
       style="fill:#000000;fill-opacity:0.30280283;stroke:none;stroke-width:0.667684;stroke-linecap:round;stroke-linejoin:round;stroke-dasharray:none;stroke-opacity:1"
       d="m 1675.9143,511.55536 c 2.0093,-6.07152 3.1908,-12.2282 3.6086,-18.46367 0.4177,-6.23536 0.076,-12.54902 -0.7986,-18.91753 -0.875,-6.36865 -2.2742,-12.79082 -3.8592,-19.23297 -1.5802,-6.44161 -3.3414,-12.901 -4.9022,-19.3406 -1.5605,-6.43871 -2.9106,-12.85666 -3.7269,-19.21871 -0.8163,-6.36293 -1.089,-12.66897 -0.6222,-18.89976 0.4666,-6.22988 1.6826,-12.3835 3.6626,-18.45838 1.9797,-6.07401 4.7284,-12.06972 8.0842,-18.00198 3.3608,-5.93266 7.3239,-11.80237 11.5858,-17.6422 4.2616,-5.83896 8.8174,-11.64851 13.2751,-17.46818 4.4528,-5.81927 8.8028,-11.65002 12.6679,-17.52982 3.8652,-5.8807 7.2356,-11.81146 9.8277,-17.8233 2.5919,-6.01095 4.4004,-12.10352 5.3078,-18.2889 0.9075,-6.18446 0.8993,-12.46416 0.063,-18.82824 -0.8359,-6.36495 -2.5041,-12.81476 -4.7601,-19.326 -2.2512,-6.50984 -5.0799,-13.0801 -8.1096,-19.67014 -3.0297,-6.59094 -6.2503,-13.20156 -9.2556,-19.78909 -3,-6.5879 -5.7753,-13.15171 -7.9626,-19.65589 -2.1826,-6.50278 -3.7724,-12.9454 -4.5497,-19.30342 -0.7771,-6.35891 -0.7364,-12.63359 0.1514,-18.82008 0.888,-6.18738 2.6229,-12.2866 5.0288,-18.31764 2.4109,-6.0296 5.4877,-11.99151 8.8973,-17.91822 3.4098,-5.927619 7.1477,-11.821359 10.7874,-17.724349 3.6401,-5.90386 7.1721,-11.81798 10.1805,-17.78694 3.0129,-5.96758 5.4874,-11.99153 7.1246,-18.10084 1.637,-6.11022 2.4219,-12.30732 2.2277,-18.60618 -0.1944,-6.29888 -1.3732,-12.69825 -3.4625,-19.1923397 -2.0846,-6.49268 -5.08,-13.08009 -8.7071,-19.7316803 -3.627,-6.65247 -7.8859,-13.36914 -12.3601,-20.10888 l -154.066,-15.87059 -57.8684,540.370059 z"
       title="cos(7*t+0.7)*(1+0.1*t)*0.4-0.5*t*t t"
       id="path5-0-9-2"
       sodipodi:nodetypes="csscsssscsccsssccccsscsccsscccccc" />
  </g>
  <path
     style="fill:none;stroke:#000000;stroke-width:0.630321;stroke-linecap:round;stroke-linejoin:round;stroke-dasharray:none;stroke-opacity:1"
     d="m 1990.6855,375 c 1.3349,-5.74717 1.8641,-11.49425 1.6496,-17.24143 -0.2146,-5.74707 -1.1681,-11.49425 -2.6413,-17.24132 -1.4732,-5.74718 -3.4566,-11.49392 -5.6211,-17.24143 -2.1597,-5.74749 -4.4959,-11.49416 -6.6366,-17.24166 -2.1406,-5.74667 -4.0763,-11.49417 -5.4923,-17.24084 -1.416,-5.7475 -2.3028,-11.49417 -2.4696,-17.24167 -0.1669,-5.74668 0.3957,-11.49419 1.7021,-17.24168 1.3063,-5.74667 3.3611,-11.49417 6.0072,-17.24084 2.6508,-5.7475 5.888,-11.49416 9.4161,-17.24167 3.528,-5.74667 7.3421,-11.49416 11.0609,-17.24167 3.714,-5.74666 7.3279,-11.49416 10.4698,-17.24083 3.1419,-5.7475 5.8022,-11.49417 7.7045,-17.24166 1.9023,-5.74667 3.0417,-11.49419 3.304,-17.24168 0.2622,-5.74667 -0.3671,-11.49417 -1.8022,-17.24084 -1.435,-5.7475 -3.6806,-11.49416 -6.4983,-17.24167 -2.8129,-5.74667 -6.1884,-11.49416 -9.7594,-17.240834 -3.5709,-5.7475 -7.3278,-11.495 -10.875,-17.24167 -3.5423,-5.7475 -6.8654,-11.49416 -9.6163,-17.24165 -2.7462,-5.74667 -4.9154,-11.49418 -6.2933,-17.24084 -1.3779,-5.74751 -1.9596,-11.49501 -1.7164,-17.24168 0.2432,-5.7475 1.3111,-11.49416 3.0322,-17.24167 1.726,-5.74667 4.1003,-11.49416 6.7987,-17.24083 2.6985,-5.747503 5.7164,-11.494983 8.639,-17.241623 2.9226,-5.74748 5.7402,-11.494147 8.0478,-17.241647 2.3123,-5.74666 4.1001,-11.49416 5.0728,-17.24083 0.9726,-5.7475 1.1156,-11.49417 0.3051,-17.24167 -0.8105,-5.7475 -2.5793,-11.49417 -5.2349,-17.24167 -2.6508,-5.74666 -6.1884,-11.494156 -10.341,-17.240826 -4.1526,-5.7475 -8.9203,-11.49416 -13.8977,-17.24166 h 175 V 375 Z"
     title="cos(7*t+0.7)*(1+0.1*t)*0.4-0.5*t*t t"
     id="path5-0" />
  <path
     style="color:#000000;fill:#000000;fill-opacity:0.146271;stroke-width:1.2669;-inkscape-stroke:none"
     d="m 1876.6603,-31.357415 -12.8906,6.177734 c 7.909,6.405597 15.4149,12.758999 21.872,19.0273444 6.457,6.26747098 11.8839,12.4702526 15.8904,18.5624996 v 0.0019 c 4.0142,6.09359 6.643,12.1148 7.8435,18.085937 1.2011,5.973705 0.9966,11.952909 -0.4607,17.994141 -1.4597,6.04758 -4.1722,12.195619 -7.7463,18.425781 v 0.002 0.002 c -3.5704,6.237349 -7.9959,12.57754 -12.6492,18.996094 -4.6561,6.42145 -9.5257,12.922592 -13.9376,19.513674 -4.4132,6.59219 -8.3514,13.25726 -11.2478,20.02148 v 0.002 0.002 c -2.8893,6.76701 -4.7097,13.60138 -5.1254,20.49023 -0.4159,6.88885 0.5806,13.77619 2.9216,20.625 2.3402,6.84541 5.9911,13.60859 10.5519,20.30273 v 0.002 c 4.5673,6.69285 10.0149,13.29309 15.759,19.83008 v 0.002 0.002 c 5.7489,6.53265 11.7748,12.9959 17.4392,19.39063 5.6616,6.39033 10.9517,12.71664 15.3012,18.94922 v 0.002 0.002 c 4.3545,6.22992 7.7718,12.38706 9.9312,18.45313 2.1602,6.06744 3.0923,12.07956 2.7023,18.07422 -0.3907,6.00321 -2.0897,12.04915 -4.972,18.15625 -2.8833,6.11029 -6.9669,12.31661 -11.859,18.59375 -4.8951,6.27978 -10.5944,12.64365 -16.5145,19.06835 -5.9289,6.42702 -12.0709,12.91715 -17.8124,19.47657 -5.7432,6.56251 -11.0661,13.18014 -15.4735,19.88281 v 0.002 0.002 c -4.4013,6.70395 -7.8568,13.466 -10.0693,20.29296 -2.2119,6.82562 -3.1703,13.67223 -2.8871,20.51172 0.2829,6.83541 1.7847,13.61469 4.1442,20.33203 2.3579,6.71185 5.5433,13.33608 9.0221,19.88672 3.4768,6.54737 7.2242,13.00944 10.6429,19.39063 v 0.002 0.002 c 3.4253,6.37945 6.5197,12.6839 8.7902,18.89649 2.2689,6.20787 3.711,12.34554 4.0346,18.41992 0.323,6.07202 -0.4744,12.1231 -2.4828,18.1875 l 15.9314,2.04688 c 2.2699,-6.85473 3.1699,-13.72318 2.8056,-20.57032 -0.3646,-6.8445 -1.9799,-13.62294 -4.4327,-20.33398 -2.4508,-6.70593 -5.7114,-13.31951 -9.2228,-19.85938 v -0.002 c -3.5028,-6.53802 -7.2434,-12.99135 -10.6271,-19.36328 -3.3815,-6.36734 -6.3968,-12.66302 -8.5769,-18.86914 -2.1787,-6.20252 -3.5227,-12.34328 -3.7745,-18.42774 -0.2516,-6.07851 0.5957,-12.14992 2.5707,-18.24414 1.9739,-6.09047 5.1029,-12.24751 9.182,-18.46093 v -0.002 c 4.0879,-6.21667 9.1391,-12.51427 14.7023,-18.87109 5.5653,-6.35807 11.6478,-12.78692 17.6368,-19.2793 v -0.002 -0.002 c 5.9833,-6.49329 11.8668,-13.04732 17.0411,-19.68555 v -0.002 c 5.1771,-6.64271 9.6208,-13.3526 12.8341,-20.16211 v 0 c 3.2146,-6.81091 5.1709,-13.68691 5.6209,-20.60352 0.4503,-6.92335 -0.6363,-13.82912 -3.0753,-20.67969 -2.4394,-6.85239 -6.2189,-13.61216 -10.8936,-20.30078 v -0.004 c -4.6649,-6.68408 -10.193,-13.27635 -15.9752,-19.80274 -5.7788,-6.52384 -11.7956,-12.97915 -17.4141,-19.36328 v -0.004 c -5.6066,-6.38074 -10.8053,-12.69691 -15.0536,-18.92187 v -0.002 c -4.2397,-6.22306 -7.5389,-12.37939 -9.6147,-18.45118 -2.0751,-6.07105 -2.9407,-12.10562 -2.5767,-18.13476 0.3637,-6.02898 1.9636,-12.11089 4.5893,-18.26172 v -0.004 c 2.635,-6.15247 6.3053,-12.40607 10.5393,-18.73046 4.2364,-6.3288 9.0391,-12.745718 13.7496,-19.242189 v -0.002 c 4.7133,-6.501257 9.3191,-13.079212 13.1445,-19.761719 3.8355,-6.686658 6.8531,-13.456973 8.5111,-20.326172 1.6594,-6.878625 1.9138,-13.815572 0.5173,-20.761718 -1.3969,-6.947339 -4.4361,-13.844986 -8.9314,-20.669922 V 8.56445 c -4.4881,-6.8238606 -10.4013,-13.5406966 -17.251,-20.189454 v -0.002 c -6.8513,-6.651054 -14.6254,-13.216648 -22.6681,-19.730468 z"
     id="path5-0-0" />
  <g
     inkscape:groupmode="layer"
     id="layer1"
     inkscape:label="Layer 1">
    <path
       style="fill:#000000;fill-opacity:0.20304446;stroke:none;stroke-width:0.646546;stroke-linecap:round;stroke-linejoin:round;stroke-dasharray:none;stroke-opacity:1"
       d="m 1659.9488,505.25302 c 1.6545,-5.96777 2.5045,-11.97855 2.6119,-18.0292 0.1074,-6.05054 -0.5229,-12.1407 -1.6722,-18.25853 -1.1492,-6.11797 -2.8079,-12.26276 -4.6472,-18.41804 -1.8347,-6.15499 -3.8455,-12.31855 -5.6612,-18.47253 -1.8156,-6.15312 -3.4266,-12.29616 -4.5188,-18.41053 -1.0921,-6.11523 -1.6558,-12.20129 -1.5007,-18.24974 0.155,-6.04756 1.0384,-12.05702 2.6644,-18.02665 1.6258,-5.96878 3.9991,-11.89841 6.9626,-17.79555 2.9683,-5.89776 6.5221,-11.76329 10.3663,-17.61413 3.844,-5.84998 7.9739,-11.68551 12.0084,-17.52617 4.0298,-5.84003 7.9597,-11.68628 11.4183,-17.55691 3.4586,-5.8715 6.4363,-11.76788 8.6573,-17.70565 2.2209,-5.93691 3.6802,-11.9155 4.2637,-17.94099 0.5835,-6.02461 0.2769,-12.09778 -0.8344,-18.21317 -1.1111,-6.11625 -3.0314,-12.27498 -5.523,-18.46517 -2.4869,-6.18907 -5.5354,-12.40908 -8.7791,-18.63868 -3.2437,-6.23047 -6.673,-12.4709 -9.893,-18.69923 -3.2149,-6.22894 -6.2112,-12.44527 -8.6361,-18.6319 -2.4203,-6.18549 -4.2643,-12.341 -5.3185,-18.45333 -1.054,-6.11321 -1.3131,-12.18384 -0.7487,-18.20947 0.5645,-6.0265 1.9523,-12.00802 3.9924,-17.95552 2.0449,-5.94633 4.7371,-11.85888 7.7529,-17.7532 3.0159,-5.89521 6.3508,-11.773284 9.5903,-17.655607 3.2397,-5.883198 6.3745,-11.771169 9.0002,-17.687278 2.6302,-5.914982 4.7369,-11.858885 6.0297,-17.845514 1.2927,-5.987499 1.7571,-12.018498 1.2696,-18.10135 -0.4876,-6.082859 -1.932,-12.216092 -4.2617,-18.397612 -2.325,-6.180386 -5.5354,-12.4090785 -9.3598,-18.6697872 -3.8244,-6.2615757 -8.263,-12.5551678 -12.9108,-18.8608518 l -149.7636,-8.02146 -30.2661,525.38361 z"
       title="cos(7*t+0.7)*(1+0.1*t)*0.4-0.5*t*t t"
       id="path5-0-9"
       sodipodi:nodetypes="csscsssscsccsssccccsscsccsscccccc" />
  </g>
  <g
     inkscape:groupmode="layer"
     id="layer2"
     inkscape:label="Layer 2">
    <path
       id="path2"
       style="fill:url(#a);stroke-width:1.01478"
       d="m 0,0 0.2103,499.99997 1469.5077,-0.0971 170.9245,-0.0305 c 1.2765,-5.63192 1.792,-11.26367 1.5818,-16.89561 -0.2146,-5.74706 -1.1685,-11.49426 -2.6417,-17.24132 -1.4732,-5.74718 -3.4564,-11.49382 -5.6209,-17.24133 -2.1597,-5.74748 -4.4961,-11.49434 -6.6368,-17.24184 -2.1406,-5.74666 -4.0761,-11.49414 -5.4921,-17.24081 -1.416,-5.74749 -2.3029,-11.49434 -2.4697,-17.24184 -0.1669,-5.74667 0.3959,-11.49436 1.7023,-17.24184 1.3063,-5.74666 3.3613,-11.49414 6.0074,-17.24081 2.6508,-5.74749 5.8878,-11.49382 9.4159,-17.24132 3.528,-5.74667 7.342,-11.49434 11.0608,-17.24184 3.714,-5.74666 7.3278,-11.49415 10.4697,-17.24081 3.1419,-5.7475 5.8021,-11.49436 7.7044,-17.24184 1.9023,-5.74667 3.0419,-11.49384 3.3042,-17.24133 0.2622,-5.74666 -0.3674,-11.49414 -1.8025,-17.24081 -1.435,-5.74749 -3.6801,-11.49433 -6.4978,-17.24184 -2.8128,-5.74666 -6.1886,-11.49414 -9.7596,-17.24081 -3.5709,-5.74749 -7.3276,-11.49517 -10.8747,-17.24184 -3.5423,-5.74749 -6.8656,-11.49384 -9.6165,-17.24132 -2.7462,-5.74667 -4.9153,-11.49416 -6.2932,-17.24081 -1.3779,-5.74751 -1.9599,-11.49518 -1.7167,-17.24184 0.2432,-5.7475 1.3113,-11.49434 3.0324,-17.24184 1.726,-5.74667 4.1002,-11.49415 6.7986,-17.24081 2.6985,-5.7475 5.7166,-11.49469 8.6392,-17.24133 2.9226,-5.74747 5.74,-11.49434 8.0476,-17.24183 2.3123,-5.74666 4.0999,-11.49415 5.0726,-17.24081 0.9726,-5.7475 1.1159,-11.49435 0.3054,-17.24184 -0.8105,-5.7475 -2.5793,-11.49384 -5.2349,-17.24133 -2.6508,-5.74666 -6.1883,-11.49415 -10.3409,-17.24081 -4.1526,-5.7475 -8.9205,-11.49435 -13.8979,-17.24184 h 151.505 c 0,-0.004 -0.01,-0.008 -0.01,-0.0124 z" />
  </g>
</svg>
