<?xml version="1.0" encoding="UTF-8"?>
<svg width="400" height="400" preserveAspectRatio="xMidYMid" version="1.0" viewBox="0 0 300 300" xmlns="http://www.w3.org/2000/svg">
<path d="m44.7 0c-2.61 1.15-4.08 3.97-6.84 4.85-1.51 1.83-0.704 5.27-3.38 6.16-3.04 0.621-6.2 0.418-9.21 1.21-1.83-2.53 5.4-1.03 3.18-3.34-3.04-0.701-6.22 0.51-9.24-0.417-2.16-1.05-5.92-2.28-7.1 0.677 0.222 2.8 0.801 5.64-0.0106 8.46-0.366 2.32-1.28 4.72-3.47 5.9-1.66 1.15-4.02 2.48-3.86 4.78 0.882 2.1 4-0.0257 5.05 1.44-2.69-0.785-3.02 2.87-1.43 2.82-2.83-0.143-2.3 3.69 0.405 3.32 2.73 0.229 5.45 0.48 8.18 0.599 2.75 0.124 0.0704 2.47-1.44 1.98-1.32-0.244-4.91 1.47-2.99 2.47 1.47-0.659 4.51 0.931 2.06 2.01-3.07 0.507-3.2 3.53-4.22 5.81-1.41 2.03 0.594 4.28 2.73 3.23 1.86-0.256 3.76 1.71 1.48 2.74-1.16 1.33-5.71 2.54-3.87 4.59 2.52 0.896 5.06-1.18 7.56-0.192-1.05 1.87-3.88 1.14-5.72 1.2-2.56-0.41-2.41 2.58-4.6 2.67-3.21 1.47 0.542 4.46 2.79 3.53 1.9-0.0536 3.89-0.988 5.73-0.23 1.74 2.06-2.31 2.58-2.91 3.36 0.795 0.543 4.26 0.946 2.9 1.87-2.29-0.695-4.3 3.42-0.907 2.42 1.87-0.161 1.97 1.69-1.23e-4 1.41-2.09 0.164-4.05 1.64-1.73 2.92-1.75 1.53-3.1 3.94-5.86 3.64-2.14-0.243-5.08 1.66-2.35 3.2-0.89 0.258-3.25 1.74-1.13 2.08 1.63-0.873 6.22-0.666 5.5 1.77-2.22 1.9-1.52 5.45 0.441 7.27 1.79 2.14 4.61 4.18 4.27 7.31 0.246 2.96-1.64 5.44-3 7.9 0.215 2.46-1.21 4.79-1.07 7.22-1.52 1.78-4.12 0.836-6.15 0.976-1.69-0.908-6.39 0.418-3.26 2.25 1.69 0.643 5.84 1.09 5.06 3.43-1.82 1.21-2.37 4.17-0.103 5.04-0.148 1.42 1.48 3.12 1.95 3.21-1.8 0.535-2.23 2.48-0.576 3.42 0.591 2.48-2.84 5.76 0.36 7.53 2.1 0.311 3.25-3.81 5.34-1.43 1.78 1.83-0.283 4.59-2.53 3.34-2.68-0.426-3.79 2.39-2.5 4.32-0.11 2.81-2.93 4.37-5.19 5.42-1.27 0.043-4.66 1.92-2.19 2.62 1.6-0.856 5.59-1.31 4.12 1.62-1.26 2.04-0.0741 4.6 2.22 4.66 2.05 2.86-1.1 5.39-3.6 6.2-1.65 1.23-2.13 4.81 0.643 4.78 3.5 0.324 1.66 4.96-1.16 4.69-2.12 1.92 1.53 3.05 3.13 2.68 2.14-0.191 3.73 1.9 1.3 2.97-2.17 2.29 1.12 4.72 3.47 4.2 3.2 0.86 1.85 5.13-1.13 4.96-1.86-0.145-4.42 2.52-1.71 3.28 1.5-0.509 5.71-1.19 3.51 1.44-1.58 1.8-3.55 3.34-4.65 5.51 0.625 3.26 4.41 0.64 6.03-0.405 2.8-1.07 5.29 1.43 7.84 2.09 0.0889 1.39-3.04 0.804-3.11 2.76-0.495 1.3-0.6 3.81-2.18 1.75-1.4-2.08-5.25-1.66-5.12 1.09 0.838 1.47 3.62 0.592 2.99 2.6 0.979 1.13 2.18 2.84 0.255 3.6-0.228 1.61-0.726 3.87-2.58 3.45-1.52 2.76-6.32-0.203-4.6-2.76 1.48-1.33 1.6-4.28-1.13-3.69-2.53-0.157-5.53 2.25-4.49 4.93 1.71 2.67-1.19 5.36-0.627 8.06 0.748 2.14 2.48 4.65 0.824 6.79-2.13 2.72 2.07 3.72 3.09 5.41 0.203 2.38-1.09 4.65-0.667 7.08 0.108 2.43 0.662 4.82-1.07 6.81-1.74 2.35 0.607 4.83-1.19 6.95-0.929 1.88 0.768 3.96 2.69 2.7 2.48 0.875-2.16 3.82 0.465 5.13 1.41 0.633 3.5-1.5 4.25 0.659-2.31 1.7 2.63 2.51 3.5 3.88 1.97 0.355 4.83-1.48 5.63 1.48-0.0328 1.23 1.47 3.7 2 1.34 1.01-2.88 4.34 0.154 6.34-0.0371 2.45-0.764 4.86-0.213 7.29 0.299 2.1 0.363 6.16-0.779 5.91 2.6-1.02 1.56-3.48 1.08-5.18 1.22-3.13-0.0765-6.16-1.92-9.3-1-1.37 0.305-1.94 3.53-3.26 1.27-1.51-2.93-3.3 1.03-5.31 1.3-2.36 1.46 1.5 2.91 0.705 4.93 1.28 0.882 3.95-0.301 5.52 0.544 0.919-0.917 1.9-3.96 3.16-1.48 1.82 2.15 4.87 3.12 7.49 3.81 3 0.0489 6.34-1.79 9.05 0.246 1.29 1.16 3.71 1.43 3.72-0.623 2.75-0.825 5.43 1.94 8.11 0.517 2.39-1.56 5.72-1.58 7.76 0.536 2.97 1.39 5.92-1.74 8.9-0.472 2.4 0.749 5 1.76 7.5 0.769 3.22-0.494 6.43 0.727 9.66 0.161 2.36-0.241 4.72 0.096 6.96 0.82 3.87 0.635 7.81 0.146 11.7 0.718 2.62-0.672 4.2 1.77 6.57 1.69 2.24-0.0748 4.61-0.0114 6.56 1.13 1.01 1.62-3.84-0.543-3.75 2 0.859 1.84 3.58 1.55 5.34 1.53 2.44-0.336 4.89-0.241 7.35-0.106 20.7 0.449 41.4 0.0343 62.1-0.909 5.18-0.162 10.4-0.312 15.6 0.18 6.96 0.0257 13.9-0.339 20.9 0.0128 5.5-0.0233 11-0.518 16.5-0.147 4.28-0.0412 8.54-0.585 12.8-0.617 2.99-0.546 5.84-1.88 8.95-1.75 4.29-0.184 8.59 0.149 12.9-0.203 1.97 1.8 3.2-3.14 0.498-1.77-8-0.133-16 0.204-24-0.188 8.06-2.52 16.6-1.37 24.9-1.67 6.13-7e-3 12.3-3e-3 18.4 2e-3 -2.02-2.18-5.14-0.453-7.65-1.08-9.93 0.168-19.9 3e-3 -29.8-0.216-2.2 0.0656-4.37 0.276-6.46-0.523-2.5-0.501-5.09-0.105-7.46 0.721-2.59-0.301-0.108-1.86 1.26-1.13 1.68 0.642 4.2-1.07 1.18-0.838-2.32 0.0539-4.66 0.879-6.97 0.271-2.14-1.97 1.89-2.42 2.94-2.49 2.12-1.63 5.02-0.895 7.35-2.01 2.62-0.505 6.7 0.672 7.77-2.65 0.575-1.97-3.51-2.18-2.88-2.53 2.88-1.05 6.02-0.791 9-1.4 2.33-0.328 4.67-0.758 6.84-1.68 3.43 0.038 6.51-1.55 9.45-3.12 1.54-1.33 4.98-1.3 5.55-3.1-1.12-0.036-4.2 0.0795-2.31-1.68 1.57-1.1 6.93-1.29 4.93-4.14-1.32-0.81-4.02 1.17-4.54-0.235 1.05-0.69 1.96-1.91 0.79-2.73 0.501-2.87 3.63-3.86 5.97-4.89 2.16-0.295 5.02-2.17 3.99-4.64-1.69-1.85 0.851-3.42 1.18-5.18 1.07-1.38-1.08-3.3 1.2-3.85 1.71-2.02-0.97-3.13-2.72-2.61-1.37 0.187-3.05-1.41-0.981-1.95 0.875-2.64-2.82-2.75-3.99-1.56-1.83-1.12 0.859-2.97 2.17-2.27 2.01-0.339 5.87-2.12 5.2-4.01-2.92-0.765-5.85 1.27-8.74 0.4 1.13-1.15 3.35-1.63 5.06-2.12 1.23-0.116 4.22-1.82 1.46-1.86-1.59 0.718-5.73-0.752-2.64-2.01 2.29-0.498 2.04-2.91 1.3-4.32-0.909-0.613-4.86 0.256-3.48-1.4 1.16 0.159 5.23-0.137 2.75-1.64-1.89-0.636-4.53-0.466-5.58-2.44-0.709-2.29 6.04-0.669 3.22-3.07-1.63 0.272-6.3-1.05-3.42-2.73 1.04-0.0463 2.9-1.11 0.865-1.53-2.11-2.24 1.02-4.68 1.34-7.02 0.86-3.14 1.87-6.28 2.55-9.44-0.222-2.81-0.388-5.84-2.12-8.21-1.63-0.836-5.44 0.625-5.73-0.976 1.7-0.223 2.94-3.14 0.277-2.3-0.777-2.33 2.44-1.16 3.05-0.0502 2.86 0.301 0.192-4.05-1.8-3.09-0.698-0.914-0.236-3.02-2.19-2.33-3.01-0.0662-4.32-4.06-1.89-5.85 2-2.22 5.15-2.17 7.81-2.96 1.86-0.631 3.96-2.38 3.27-4.54-0.851-0.618-3.52-1.05-1.05-1.68 0.962-1.06-0.425-2.88 1.1-3.93 1.56-2.27 1.14-6.43-2.3-6.45-2.18 0.183-6.39-0.87-5.14-3.75 2.49-1.98 5.29 1.56 8.12 0.0738 2.34-0.464 2.8-3.14 1.97-5.01-0.763-1.98-1.78-3.87-2.2-5.96-0.325-2.75-3.4-3.77-4.2-5.95 0.896-2.47 1.76-4.84 1.25-7.46-0.68-2.83-3.12-0.524-4.71-0.0306-2.55 0.797-5.2-3e-3 -7.78 0.0552-2.06 0.265-4.48 1.76-6.31 0.0869-1.55-2.02 1.1-3.79 2.41-5.08 1.43-1.8 2.55-3.85 3.79-5.8 1.53-2.35 2.76-5.08 5.07-6.77 2.21-1.85 1.34-4.79 0.589-7 0.482-0.974 2.67-2.83 0.0966-2.61-1.97-0.279-5.49 0.814-6.51-0.915 1.88-1.36 4.11-2.37 5.43-4.42 1.53-1.39 2.49-4.94-0.46-5.19-1.45 0.431-1.95-0.335-0.503-1.13 1.82-0.429 1.97-2.63-0.219-2.43-2.45 0.121-4.85 0.826-7.18-0.219-1.78-0.0264-3.7 0.256-4.22-1.78-1.62-1.12-6.3-0.295-5.23-3.41 1.54-0.7 3.85-1.6 2.04-3.67-0.761-2.1 3.31-1.57 4.72-1.33 1.45-0.0926 5.29 0.721 4.95-1.55-1.37-1.22-3.93-0.825-4.81-2.58 2.81 1.04 5.92 0.596 8.53-0.744 2.44-0.633 5.32 1.13 7.42-0.731-0.746-2.09-4.41-1.63-6.45-2.18-2.81-0.129-5.43-1.2-8.16-1.68-2.79-0.253-5.61-0.242-8.34-0.917-4.06-0.451-8.32-0.16-12.1-2-3.2-1.03-6.68-0.552-9.86-1.65-2.39 1.3-6.23-3.12-2.66-3.95 1.41 0.0916 5.2-0.803 2.93-2.5-2.42-1.17-4.96-2.11-7.56-2.81-2.37-1.88-5.67-1.81-8.14-3.18-2.55-2.04-5.82-2.92-9.05-2.95-4.44-0.439-8.93-0.302-13.4-0.933-2.49-1.13-5.5-2.42-8.12-0.908-1.58 0.471-2.13-2.35-0.191-1.42 4.73 0.563 9.27-1.23 13.9-1.59 3.23-0.371 5.03 2.3 6.72 4.4 2.64 0.654 5.46 0.347 8.16 0.855 3.04 0.0082 6.02-0.988 9.07-0.743 2.09-0.228 6.31-1.59 5.81-3.64-1.66-1.88 2.66-1.96 3.87-1.5 3.07 0.369 6.24 0.771 9.26-0.121 5.86-0.801 11.8-0.0034 17.7-0.955 2.79 0.0634 5.93 1.02 8.39-0.804 1.24-0.555 5.5-1.25 3.78-2.98-2.83-0.684-5.75 0.183-8.61-0.176-6.91-0.078-13.8-0.334-20.7 0.179-1.12 0.174-5.49-0.249-2.49-1.32 4.15-1.57 8.74-0.228 12.9-1.61 3.69-0.447 7.49 0.115 11.1-0.927 4.16-0.523 8.34 0.14 12.5 0.14 1.9 1.46 3.58-2.62 0.67-1.88-3.54 0.0274-7.07 0.372-10.6 0.337-19.8 0.559-39.6 0.304-59.4 0.613-6.55 0.435-13.1-0.0716-19.7 0.0507-4.48 0.642-9.01 0.579-13.5 0.649-6.65 0.436-13.4 1.92-20 0.245-1.99 0.0373-5.98-1.39-4.57-3.92 2.67-0.0785 5.32 1.01 7.98 0.231 3.9-0.655 7.85-1.14 11.8-0.719 3.17 0.262 6.55 0.65 9.5-0.813 2.67-0.76 4.7 1.88 7.29 1.84 2.39-1.01 4.89-1.8 7.51-1.5 3.35-0.379 6.7-1.01 10.1-0.771 6.14-0.0083 12.3-0.681 18.3-1.69 3.25-0.282 6.2 1.58 9.45 1.46 3.16 0.213 6.23-0.672 9.31-1.2 2.78-0.186 5.45 0.878 8.23 0.841-0.263-3-3.94-1.24-5.84-1.38-2.55 0.0244-5.58-0.226-7.21-2.45-2.21-1.92-5.15-0.133-7.14 1.22-3.33 1.61-6.96-0.15-10.2-0.984-4.32-0.813-8.74-0.167-13.1-0.34-19.6 0.175-39.1 1.61-58.7 2.61-2.88 0.761-5.69-0.342-8.43-0.888-1.85 0.562-5.77-0.387-3.85-2.88 0.977-1.17 5.04-0.686 4.13-2.58-2.66-0.891-5.64-0.934-8.24 0.169-1.1 0.229-4.23-0.973-4.1 0.266 2.64 1.86-0.281 5.82-2.88 4.16-1.86-0.0198-5.37-2.89-2.63-4.17 1.39 0.371 3.76-1.6 1.06-1.61-3.48-0.575-7.15 0.416-10.5-0.941-5.07-0.695-10.3-0.738-15.1-2.81-5.04-1.45-10.1-2.97-14.9-4.94-3.98-0.64-6.79 3.45-10.7 3.11-2.91 0.0341-5.81 0.0958-8.7 0.361-3.31 0.0561-6.55-0.826-9.64-1.91-4.44-0.899-9.14-0.944-13.2-3.05-2.29-0.701-4.67-1-7.05-1.23zm30.2 8.44c1.86 2.45-4.8 1.39-1.49 0.341 0.508-0.0318 1.04-0.0855 1.49-0.341zm-0.0947 2.84c1.57-0.455-0.347 1.3 0 0zm47.9 1.72c3.76 0.901-2.35 5.51-1.96 1.79 0.0932-0.927 0.876-2.13 1.96-1.79zm21.8 3.01c0.703 1.52-1.48-0.396 0 0zm22.6 4.61c0.849 1.33-1.35-0.216 0 0zm-2.8 7.09c2.9 0.0354-1 1.33 0 0zm75.8 0.92c2.21-1.43 1.8 3.04-0.184 1.1-1.55-0.126-1.24-1.53 0.184-1.1zm-17.3 0.744c-0.196 1.85-3.29-0.725-0.753-0.0138l0.377 0.0045zm2.88 6.42c2.15-0.751-0.23 1.53 0 0zm-218 22.5c0.222 1.41 1.25-0.78 0 0zm2.86 21c-2.23 1.11 1.85 0.278 0 0zm260 3.09c0.829-0.95 3.14 1.06 0.994 0.329-1.78-1.62-4.37 2.4-5.38 0.847 0.613-1.72 2.96-1.53 4.39-1.18zm-9.74 0.213c2.15 2.44-5.24 1.51-1.9-0.0598 0.634-0.0376 1.26 0.143 1.9 0.0598zm22.2 14.1c1.69 2.24-2.26 6.05-3.56 2.82-1.37-0.464-4.35 1.23-4.29-1.2 2.5-1.05 5.64 0.287 7.84-1.61zm-269 18.3c1.05 1.38-1.53-0.0412 0 0zm257 8.13c-0.16 0.902-0.657-0.575 0 0zm9.92 0.0449c0.842-0.052-0.514 0.488 0 0zm-272 1.11c2.11 0.591-1.5 0.697 0 0zm4.55 0.72c2.18 0.657-1.6 0.682 0 0zm275 1.06c2.39 0.95-2.19 2.3-0.715 0.396 0.186-0.168 0.412-0.464 0.715-0.396zm-274 7.99c1.94 1.39-2.9 0.762-0.186 0.0151zm281 13.8c-0.845 1.62 1.96-0.38 0 0zm-2.83 0.162c-1.31 0.679 1.18 0.743 0 0zm-280 1.43c0.724 0.451-0.77 0.258 0 0zm-3.03 7.41c1.43 1.9-1.85 0.378 0 0zm288 4.71c-1.29 0.745 1.29 0.679 0 0zm-290 0.462c3.33-0.387-1.09 2.46 0 0zm3.54 0.695c1.02 0.88-1.19 0.588 0 0zm1.74 0.338c0.0834 1.11-0.91-0.494 0 0zm-0.937 1.48c2.3 0.378-0.971 1.8 0 0zm285 0.576c-0.273 0.215 0.392 0.0594 0 0zm-9.87 3.28c-0.169 1.55-4.21 3.34-1.02 4.21 1.62-0.909 3.21-2.14 4.79-2.8 0.0227-1.53-2.66-1.78-3.76-1.42zm-0.54 4.49c-0.0432 0.718 0.401-0.472 0 0zm8.78 2c-1.66 0.51 1.3 0.849 0 0zm-2.72 0.245c-1.69 0.6 1.34 1.12 0 0zm-273 40.1c1.98 2.21-3.62 4.09-1.48 0.857 0.339-0.471 0.867-0.867 1.48-0.857zm271 7.49c1.96-0.534-1.31 1.27 0 0zm3.77 10.5c0.234 0.572-0.458-0.267 0 0zm1.51 0.266c0.5 0.192-0.556 0.238 0 0zm-2.98 4e-3c1.14-0.0386-0.629 0.804 0 0zm0.369 19.1c0.447 1.07-1.05-0.23 0 0zm-1.63 2.7c0.621-0.198-0.328 0.471 0 0zm-5.5 4.63c1.28 0.185-0.854 0.864 0 0zm-266 2.39c1.75 0.0469-1.06 1.11 0 0zm264 1.41c0.35 1.31-1.14-0.462 0 0zm-267 0.578c1.16 0.964-1.39 0.36 0 0zm-6.56 1.06c1.81 0.146-0.993 1.15 0 0zm277 0.341c1.72-0.208-0.909 1.19 0 0zm-78.6 4.42c0.338 0.094-0.316 0.118 0 0zm46.6 12.7c0.943-0.0478-0.611 0.582 0 0zm3.38 0.0915c1.08 2.21-4.21 1.01-1.32 0.296 0.436-0.11 0.876-0.201 1.32-0.296zm-76 1.41c2.46-0.236-0.953 1.93-0.367 0.318 0.122-0.106 0.244-0.212 0.367-0.318zm12.1 0.1c1.14 1.79-2.77-0.0376-0.285-1.4e-4 0.095 5e-5 0.19 9e-5 0.285 1.4e-4zm-3.89 0.137c0.809 0.376-0.7 0.273 0 0zm12.2 0.138c1.69 1.29-2 0.285 0 0zm-5.38 0.249c0.485 0.112-0.552 0.253 0 0zm-131 0.021c2.58-0.975 0.6 3.2-0.317 0.859-0.173-0.343-0.255-0.876 0.317-0.859zm-27.2 0.831c0.861 1.44-1.43-0.299 0 0zm1.58 0.0255c1.03 0.753-1.06 0.239 0 0zm30.2 0.0285c0.479 1.35-1.21-0.649 0 0zm112 0.084c1.32 1.12-1.53 0.108 0 0zm-140 0.141c2.69 1.05-3.14 1.33-0.297-0.104 0.0991 0.0345 0.198 0.069 0.297 0.104zm36.6 0.69c3.17-0.35 0.457 4.38-1.34 2.44-1.78 1.63-4.95-2.22-1.71-2.29 1.01-0.0924 2.05 0.081 3.05-0.145zm5.41 0.588c3.03-1.25 0.835 4.4-0.954 1.09-0.252-0.594 0.276-1.34 0.954-1.09zm3.89 0.114c1.77-1.24 1.04 3-9.65e-4 0.653-0.145-0.168-0.219-0.505 9.65e-4 -0.653zm-56.8 0.144c2.72 0.234-1.76 1.53 0 0zm35.7 0.0374c0.772 1.48-1.5-0.442 0 0zm59.8 0.1c1.23 0.526 5.3 2.48 2.45 3.4-3.04-0.37-6.02 0.877-9.02 0.799-3.24-1.49 0.633-4.87 2.93-3.45 1.24 6e-3 2.57-0.0405 3.64-0.747zm62.8 0.189c3.29 1.34 7.21-1.2 10.2 1.12 0.797 1.71 5.39-0.843 3.99 1.98-2.58 1.25-5.44-0.219-8.13 0.364-4.16-0.051-8.37-0.202-12.5 0.707-3.37-0.486-6.97 1.25-10.2-0.424-1.26-0.716-4.14-0.392-4.5-1.43 2.06-1.38 4.88-0.447 7.24-0.849 2.53-0.12 4.98 0.293 7 1.58 2.01 0.351 2.53-2.23 3.31-2.79 1.13 0.111 2.69 1.08 3.47-0.265zm-98.5 0.161c1.38 0.942-1.42 0.593 0 0zm12 0c1.67 1.12 5.14-0.938 5.79 1.43-1.9 0.358-5.07 1.06-5.79-1.43zm-4.57 0.168c1.49 0.197-0.983 0.285 0 0zm114 0.0419c-0.797 1.96 1.67 3.91 2.78 1.7-0.577-2.9 3.68-0.521 5.02-0.0568 0.894 0.441 2.86 0.581 0.82 0.807-4.92 0.194-9.86 0.315-14.8 0.423 0.465-2.89 3.99-2.58 6.18-2.88zm-126 0.29c1.05 0.234-0.604 1.03 0 0zm-32 0.0585c2.22-0.912-0.424 1.63 0 0zm174 0.0434c2.48 0.285-2.13 1.83-0.207 0.0404l0.125-0.0245zm-2.12 0.101c1.83 1.82-3.18 1.45-0.896 0.215l0.437-0.162zm-193 0.0464c1.22 0.217-0.817 0.889 0 0zm78.9 0.186c1.5 1.79-1.93 7e-3 0 0zm20.5 0.125c2.71 0.746-1.85 1.11 0 0zm50.2 0.333c1.6 0.657-1.31 0.679 0 0zm-27.3 0.126c1.52-2.02 4.53 2.31 1.45 1.9-1.11 1-5.76-1.77-1.45-1.9zm-38.5 0.0929c2.07 0.978-1.43 0.85 0 0zm48.1 0.0329c0.737 1.79-3.23 0.836-0.691 0.182l0.329-0.139zm-33.8 0.411c0.238 0.419-0.583-0.253 0 0zm37.9 1.41c-0.546 0.647-0.945-0.278 0 0zm2.35 0.809c1.2-0.163-0.708 0.389 0 0z"/>
</svg>
