<svg width="1200mm" height="80mm" viewBox="0 0 1200 80" xmlns="http://www.w3.org/2000/svg"><path style="fill:#000;fill-opacity:.697216;stroke:none;stroke-width:.976264;stroke-linecap:round;stroke-linejoin:round;stroke-opacity:1" d="M1202.12 52.82c-21.087-2.85-42.184-11.069-63.271-20.906-21.088-9.837-42.175-21.044-63.272-25.95-21.087-4.907-42.174-2.594-63.262 7.643-21.093 10.237-42.183 27.966-63.273 40.594-21.09 12.628-42.18 18.043-63.269 11.727-21.09-6.316-42.18-23.418-63.27-33.103-21.09-9.686-42.18-8.488-63.269 3.689-21.09 12.177-42.18 31.604-63.27 36.105-21.09 4.5-42.179-7.758-63.27-18.747-21.09-10.988-42.179-13.704-63.269-3.872-21.09 9.832-42.18 25.468-63.27 25.282-21.089-.187-42.179-14.156-63.269-17.64-21.09-3.486-41.874 7.739-63.27 13.461C346.357 80 250.443 80 0 80v5h1202.12z"/><path style="fill:#000;fill-opacity:1;stroke:none;stroke-width:.756657;stroke-linecap:round;stroke-linejoin:round;stroke-opacity:1" d="M1202.12 65.67c-21.087-1.712-42.184-6.65-63.271-12.56-21.088-5.908-42.175-12.64-63.272-15.588-21.087-2.947-42.174-1.558-63.262 4.592-21.093 6.15-42.183 16.8-63.273 24.385-21.09 7.586-42.18 10.838-63.269 7.044-21.09-3.794-42.18-14.067-63.27-19.885-21.09-5.818-42.18-5.099-63.269 2.216-21.09 7.315-42.18 18.985-63.27 21.689-21.09 2.703-42.179-4.66-63.27-11.262-21.09-6.6-42.179-8.232-63.269-2.326-21.09 5.906-42.18 15.3-63.27 15.187-21.089-.112-42.179-8.503-63.269-10.597-21.09-2.093-41.874 4.65-63.27 8.087C346.357 81.996 250.443 81.996 0 81.996V85h1202.12z"/></svg>