<?xml version="1.0" encoding="UTF-8"?>
<svg version="1.1" viewBox="0 0 378 378" xmlns="http://www.w3.org/2000/svg">
<defs>
<clipPath id="d">
<path transform="translate(-60.1 -165)" d="m0 283h283v-283h-283z"/>
</clipPath>
<clipPath id="c">
<path transform="translate(-93 -164)" d="m0 283h283v-283h-283z"/>
</clipPath>
<clipPath id="b">
<path transform="translate(-110 -184)" d="m0 283h283v-283h-283z"/>
</clipPath>
<clipPath id="a">
<path transform="translate(-173 -203)" d="m0 283h283v-283h-283z"/>
</clipPath>
<clipPath id="i">
<path transform="translate(-65.5 -96.5)" d="m0 283h283v-283h-283z"/>
</clipPath>
<clipPath id="h">
<path transform="translate(-282 -279)" d="m0 283h283v-283h-283z"/>
</clipPath>
<clipPath id="g">
<path transform="translate(-78.8 -79.6)" d="m0 283h283v-283h-283z"/>
</clipPath>
<clipPath id="f">
<path transform="translate(-218 -87.2)" d="m0 283h283v-283h-283z"/>
</clipPath>
<clipPath id="e">
<path transform="translate(-254 -256)" d="m0 283h283v-283h-283z"/>
</clipPath>
</defs>
<g fill="#2350a9">
<path transform="matrix(1.33 0 0 -1.33 80.2 157)" d="m0 0c-1.4-1.07-6.28-4.1-13.6-4.1-13.3 0-22.3 8.37-22.3 21.1 0 12.7 9.59 21.1 22.6 21.1 5.07 0 10.9-1.56 14.1-2.95-0.677-1.5-1.24-3.48-1.47-4.72l-0.355-0.117c-2.51 2.78-6.54 5.18-12.5 5.18-7.57 0-16.3-6.13-16.3-18.4 0-11.9 8.88-18.2 16.8-18.2 7.13 0 10.6 3.33 13.6 5.92l0.235-0.235z" clip-path="url(#d)"/>
<path transform="matrix(1.33 0 0 -1.33 124 159)" d="m0 0c0 0.896 0.076 1.82 0.14 2.26-4.03-0.37-15.1-0.705-19.4-0.767-0.073 1.08-0.167 13.8-0.061 15.8 1.72 0 10.8-0.118 14.9-0.532-0.116 0.591-0.176 1.46-0.176 2.06s0.06 1.65 0.176 2.24c-3.48-0.295-7.94-0.59-14.9-0.59 0 1.48 0.12 12.2 0.179 14.8 7.67 0 14.6-0.477 18.5-0.767-0.064 0.402-0.14 1.23-0.14 2.04 0 0.804 0.052 1.46 0.14 2.01-2.04-0.137-8.65-0.297-12.2-0.297-3.54 0-9.01 0.119-12.5 0.297 0.235-5.02 0.474-10.2 0.474-15.2v-10.1c0-5.08-0.239-10.2-0.474-15.3 3.6 0.177 9.12 0.295 12.7 0.295 0.168 0 0.345 0 0.522-1e-3 1.23-4e-3 2.8-0.021 4.41-0.05 2.79-0.051 5.74-0.136 7.86-0.244-0.087 0.619-0.14 1.28-0.14 2.17" clip-path="url(#c)"/>
<path transform="matrix(1.33 0 0 -1.33 147 132)" d="m0 0c4.87 0.1 11.3 1.65 11.3 8.38 0 5.87-5.13 7.73-9.15 7.73-2.72 0-4.49-0.177-5.72-0.295-0.177-4.31-0.354-8.27-0.354-12.5v-3.24c0.586-0.08 3.35-0.064 3.95-0.054m-3.95-2.16v-4.69c0-5.07 0.235-10.2 0.474-15.3-1 0.178-2.82 0.196-3.19 0.196s-2.18-0.018-3.19-0.196c0.235 5.08 0.472 10.2 0.472 15.3v10.2c0 5.08-0.237 10.2-0.472 15.3 2.24-0.177 5.08-0.296 7.32-0.296 2.24 0 4.49 0.296 6.73 0.296 6.67 0 12.8-1.97 12.8-9.4 0-7.86-7.83-10.7-12.3-11.3 2.89-3.6 13.2-16.2 16.7-20.1-1.18 0.178-3.16 0.196-3.7 0.196s-2.58-0.018-3.7-0.196c-2.33 3.56-9.8 14.8-14.9 20-0.155 0-3.01-2e-3 -3.01-2e-3" clip-path="url(#b)"/>
<path transform="matrix(1.33 0 0 -1.33 231 108)" d="m0 0c-0.689-0.119-1.54-0.217-2.59-0.217-1.03 0-1.91 0.111-2.52 0.217 0.259-4.84 0.704-13.8 0.704-19.6 0-4.41 0-8.27-0.06-10.5-2.15 2.28-26.8 27.8-29.3 30.5l-1.93 0.019c0.087-3.76 0.196-7.83 0.196-15.3 0-9.52-0.133-19.6-0.618-25.9 0.69 0.12 1.54 0.217 2.59 0.217 1.03 0 1.92-0.109 2.51-0.217-0.258 4.83-0.703 13.8-0.703 19.6 0 4.42 3e-3 8.96 0.062 11.1 2.15-2.28 26.9-28.1 29.3-31.3l1.93-0.019c-0.088 3.76-0.198 7.97-0.198 15.4 0 9.52 0.135 19.6 0.62 25.9" clip-path="url(#a)"/>
<path transform="matrix(1.33 0 0 -1.33 87.3 249)" d="m0 0c-11.6 18.4-14.9 36.1-15.4 49.6h-5.36c0.449-14.8 4.04-30.3 12.1-45.5 1.89-1.53 6.33-3.47 8.66-4.12" clip-path="url(#i)"/>
<path transform="matrix(1.33 0 0 -1.33 376 5.37)" d="m0 0s-133 1.06-176 1.03c-6.65-6e-3 -11.1-0.474-12.6-0.565-52.5-3.4-92-49.5-92.2-99.7-0.05-14.6 3.84-31.1 10.2-53.3 8.34-29.3 18.1-63 18.1-63h5.33l-19.7 66.4 0.147 0.099c14.5-27.9 47.8-50.4 85.7-50.4 20.4 0 39.4 5.72 54.3 16.2l0.129-0.122-87.6-93.2h6.84s61.5 65.4 82.4 87.7c16 17 24.4 28 27.8 33.7 4 6.53 16.7 25.4 16.2 53.1l0.172 0.013 38.4-174h5.51s-32.2 143-38.5 173c-6.15 29.4-13.4 47.6-21.3 58-2.69 1.5-6.89 3.21-8.88 3.67 11.4-14.4 19.9-35.7 19.9-57.1 0-52.3-42.6-94.9-94.9-94.9-52.3 0-94.9 42.6-94.9 94.9 0 52.3 42.7 94.9 94.9 94.9 23.2 0 44.7-8.51 61.2-22.5 3.2-0.441 7.48-1.44 10-2.36l0.019 0.053c-11.9 11.8-26.7 20.7-43.2 25.3v0.136l152-0.949z" clip-path="url(#h)"/>
<path transform="matrix(1.33 0 0 -1.33 105 272)" d="m0 0c-3.39 0.501-7.63 1.7-10.2 2.8 11.4-13 27.1-23.4 42.6-29.2l4.05 4.3c-16.7 5.65-28.9 14.7-36.4 22.1" clip-path="url(#g)"/>
<path transform="matrix(1.33 0 0 -1.33 291 262)" d="m0 0c-16.9-20.7-43.2-34.7-73.5-34.7-6.49 2e-3 -12.8 0.728-18 1.8l-4.34-4.6c8.29-1.92 15.6-2.64 22.7-2.64 31.1 0 57.7 14.5 74.6 33.6l-1.44 6.53" clip-path="url(#f)"/>
<path transform="matrix(1.33 0 0 -1.33 338 37.1)" d="m0 0-9.14-94.4h-0.173c-1.3 17.8-10.2 39.1-21.1 52.5-19 23.3-47 37.4-78.4 37.4-29.9 0-56.6-13.3-74.9-34.1l4.2-3.33c17.3 19.6 42.2 32.2 70.7 32.2 34.8 0 63.1-17.8 79-42.1 14.1-21.6 18.8-49.3 15.6-69.6-1.11-6.86-3.6-20.2-12.7-35.3l1.6-7.03c11.2 17.4 16.9 32.8 21.3 72.4 3.4 30.3 9.25 91.3 9.25 91.3z" clip-path="url(#e)"/>
</g>
</svg>
