<?xml version="1.0" encoding="UTF-8"?>
<svg width="344" height="371" version="1.1" viewBox="0 0 323 348" xmlns="http://www.w3.org/2000/svg">
<path d="m67.5 347c-7.93-1.03-14.8-6.47-17-13.5-1.16-3.66-1.43-7.72-1.27-18.9 0.151-10.5 0.362-12.4 1.74-15.9 2.35-5.95 8.83-10.8 16-11.9 2.77-0.442 7.36-0.234 9.96 0.45a19.8 19.8 0 0 1 12.8 10.5c1.2 2.48 2.5 6.64 2.22 7.09-0.088 0.142-2.16 0.259-4.6 0.259h-4.44l-0.682-1.88c-1.8-4.95-4.9-7.66-9.54-8.32-5.16-0.732-10.3 1.62-12.3 5.66-1.55 3.03-1.66 4.17-1.66 16.2 0 9.83 0.068 11.5 0.537 13.3 0.684 2.67 1.61 4.24 3.52 5.96 2.3 2.07 4.26 2.74 8.09 2.74 2.92 0.01 3.3-0.063 5.1-0.926 3.12-1.49 4.98-3.63 6.3-7.24l0.684-1.88h9.2l-0.187 0.975c-0.42 2.18-1.7 5.59-2.8 7.45-3.29 5.57-8.65 9-15.4 9.88-2.43 0.316-3.48 0.31-6.11-0.031zm53.7 0c-7.03-0.912-13.2-5.08-15.9-10.8-2.22-4.66-2.16-3.91-2.16-27.8v-21.4h8.97l0.094 21.2c0.092 20.9 0.102 21.2 0.745 22.9 1.8 4.75 5.31 7.34 10.4 7.65 6.61 0.413 11.4-2.8 13-8.73 0.33-1.24 0.412-5.68 0.415-22.3l4e-3 -20.8h9.33l-0.104 21.7c-0.094 19.7-0.153 21.8-0.634 23.5-2.43 8.26-9.02 13.7-17.9 14.8-2.81 0.352-3.49 0.352-6.24 0zm39.4-0.478c-0.11-0.109-0.2-13.6-0.2-29.9v-29.7l26.6 0.184 2.4 0.848c3.63 1.28 5.18 2.24 7.66 4.7 3.4 3.39 4.89 6.78 5.7 13 0.432 3.29 0.203 21.8-0.3 24.2-2 9.62-7.51 15-16.8 16.5-2.13 0.336-24.7 0.437-25 0.112zm26-9.18c2.67-1.25 4.2-2.66 5.27-4.83 1.61-3.27 1.86-5.79 1.73-17.3-0.11-9.43-0.16-10.2-0.783-12.1-1.13-3.41-3.43-5.82-6.86-7.17-1.6-0.632-2.3-0.694-9.01-0.803l-7.28-0.119v43.3l7.58-0.098c7.56-0.098 7.58-0.099 9.35-0.93zm21.9 8.86c0.098-0.293 5.01-13.7 10.9-29.8l10.7-29.2 7.51-0.167 10.9 29.6c5.97 16.3 10.9 29.7 10.9 29.9 0 0.124-2.15 0.225-4.77 0.225h-4.77l-0.89-2.48a275 275 0 0 1-2.04-6l-1.15-3.52h-23.5l-0.477 1.28c-0.262 0.701-1.18 3.37-2.05 5.92l-1.57 4.65-4.9 0.082c-4.58 0.077-4.89 0.048-4.72-0.45zm31.5-28.4c-4.22-12.3-5.54-16.2-5.75-16.7-0.154-0.402-1.41 3.03-7.63 20.8l-1.76 5.02h18.2l-3.1-9.08zm10.9-21.2c-2.16-0.651-3.82-2.87-3.82-5.1 0-3.39 3.61-6.13 6.72-5.1 2.39 0.788 3.76 2.65 3.76 5.1 0 0.841-0.197 1.91-0.439 2.38-0.608 1.18-2.07 2.34-3.4 2.71-1.28 0.355-1.7 0.357-2.83 0.017zm3.39-1.37c1.26-0.65 2.07-2.11 2.07-3.74 0-1.62-0.81-3.08-2.07-3.74-2.71-1.4-6.03 0.651-6.03 3.74s3.31 5.14 6.03 3.74zm-3.8-1.14c-0.084-0.22-0.114-1.54-0.066-2.92l0.088-2.52 1.61 0.014c1.22 0.012 1.71 0.152 2.02 0.583 0.555 0.759 0.524 1.64-0.082 2.3-0.463 0.512-0.459 0.619 0.062 1.59 0.307 0.571 0.47 1.13 0.36 1.24-0.386 0.386-1.13-0.17-1.63-1.22-0.69-1.45-1.3-1.38-1.3 0.14 0 0.878-0.123 1.2-0.46 1.2-0.252 0-0.528-0.18-0.612-0.4zm2.72-3.65c0-0.432-0.231-0.627-0.825-0.695-0.715-0.082-0.825 0.01-0.825 0.695s0.11 0.777 0.825 0.695c0.594-0.068 0.825-0.263 0.825-0.695zm61.6-50.6c-1.38-0.854-1.87-1.53-2.31-3.17-1.14-4.24 3.45-7.71 7.66-5.79 1.91 0.868 2.67 2.17 2.67 4.58 0 3.23-1.55 4.81-4.88 4.98-1.7 0.084-2.19-0.01-3.14-0.598zm4.82-1.14c2.03-1.24 2.35-4.25 0.643-5.96-2.37-2.37-6.28-0.642-6.28 2.77-3e-3 3.03 3.06 4.76 5.64 3.19zm-3.93-0.483c-0.116-0.115-0.21-1.4-0.21-2.86v-2.65h1.67c2.24 0 2.83 0.35 2.83 1.69 0 0.82-0.142 1.1-0.608 1.23l-0.608 0.159 0.608 1.03c0.78 1.32 0.766 1.66-0.068 1.54-0.42-0.06-0.902-0.521-1.28-1.22-0.33-0.619-0.693-1.12-0.807-1.12-0.113 0-0.248 0.504-0.3 1.12-0.088 1.07-0.705 1.62-1.23 1.09zm2.96-3.74c0.24-0.386-0.384-0.855-1.15-0.861-0.326-3e-3 -0.525 0.222-0.525 0.595 0 0.436 0.2 0.6 0.733 0.6 0.402 0 0.825-0.15 0.938-0.334zm-319-24.7v-29h17c10.2 0 18.1 0.13 19.7 0.323 11.6 1.38 17.8 6.28 20.5 16.2l0.786 2.87 0.196 38.6h-15.9l-3e-3 -13.4c-3e-3 -13.1-0.252-18.8-0.943-21.6-0.93-3.83-3.16-6.68-6.19-7.89-1.62-0.646-2.2-0.691-10.2-0.789l-8.48-0.104v43.8h-16.5v-29zm70.1 0.368c-5.07-15.7-9.22-28.8-9.22-29 0-0.29 1.95-0.354 8.77-0.293l8.76 0.08 6.45 22.6c3.54 12.4 6.54 22.5 6.66 22.4 0.153-0.164 8.33-27.4 13.4-44.5 0.142-0.484 0.813-0.525 8.57-0.525 6.6 0 8.38 0.08 8.27 0.375-0.075 0.206-4.31 13.2-9.41 28.9l-9.27 28.6h-23.7l-9.22-28.6zm58.6-0.373v-29l16.4 0.16 0.077 28.9 0.076 28.9h-16.5v-29zm26.2 0.099 0.076-28.9 15.8 0.016c13.5 0.013 16.2 0.088 18.7 0.535 7.9 1.38 13 4.28 16.7 9.6 5.97 8.5 6.63 26.1 1.38 36.8-1.76 3.59-6.53 7.68-10.5 9-4.86 1.62-4.8 1.61-24.1 1.74l-18.1 0.118 0.077-28.9zm29.4 15.8c5.36-1.48 8.58-4.65 9.97-9.82 0.237-0.886 0.51-2.96 0.606-4.61 0.414-7.16-2.14-13-6.74-15.6-2.79-1.52-5.53-2-11.5-2h-5.35v32.8l5.62-0.16c3.79-0.108 6.2-0.317 7.37-0.642zm34.2-15.9 0.076-28.9 16.4-0.16v57.9h-16.5l0.077-28.9zm28.8 14.6c3.11-7.88 8.25-20.9 11.4-29l5.77-14.6h10.9c6.94 0 10.9 0.109 11.1 0.3 0.198 0.32 21.8 54.6 22.5 56.5l0.407 1.12h-17.5l-3.33-10-27-0.156-1.76 5.1-1.76 5.1h-16.3l5.66-14.3zm37.5-6.08c0-0.422-9.3-25.9-9.55-26.2-0.167-0.174-3.46 8.3-9.49 24.4l-0.756 2.02h9.9c6.39 0 9.9-0.106 9.9-0.3zm-178-73.9v-8.78h9.08c9.32 0 11.3-0.141 21.4-1.54 24.5-3.39 55.2-12.8 76.4-23.4 7.16-3.58 15.1-8.47 19.7-12.1l1.89-1.49-1.29-1.05c-1.7-1.39-5.23-3.51-13.6-8.16-3.8-2.11-7.96-4.5-9.25-5.3-1.29-0.8-2.45-1.45-2.57-1.45-0.12 0-1.83 1.37-3.8 3.04-29.3 24.9-51.2 35.8-78 39-3.44 0.41-16.4 0.52-18.5 0.156l-1.42-0.243v-12.6l0.917 0.183c4.98 0.996 13.2 0.942 19.5-0.127 16.6-2.84 35.4-13.2 53.9-29.8 4.32-3.86 13.3-12.9 15.8-15.9l1.46-1.72-1.75-2.02c-12.1-14.1-28.8-26.5-44.9-33.4-13.2-5.65-28.4-8.61-40.9-7.98l-3.98 0.203v-20.4h146v154h-146v-8.78zm-2.25-9.43c-32.6-4.23-59.1-23.7-77.6-57-2.1-3.78-6.1-12.3-6.67-14.1-0.165-0.546 0.277-1.07 2.74-3.27 4.21-3.75 10.6-8.85 15.8-12.6 22-15.7 45.6-25.7 65.8-27.6l2.17-0.214v11.1h5.62c8.15 2e-3 13.8 0.945 21.5 3.57 8.64 2.95 17.1 7.75 25.3 14.4 6.03 4.88 14.8 14 14.2 14.8a333 333 0 0 1-2.89 3.58c-14.5 17.9-31.5 30-46 32.8-4.87 0.954-11.2 0.658-16.5-0.774l-1.28-0.343v-42l1.58 0.214c2.71 0.37 5.99 1.34 8.18 2.41 5.1 2.5 8.06 5.89 14.4 16.5 1.28 2.14 2.37 3.94 2.42 4 0.06 0.071 17.4-14.4 19.8-16.5 0.768-0.68-6.1-7.09-11.4-10.6-5.59-3.74-11.4-6.25-17.9-7.7-2.75-0.615-3.88-0.693-10.1-0.693h-6.98v-13.6l-0.975 5e-3c-0.536 3e-3 -2.39 0.206-4.12 0.45-10.1 1.42-18 3.85-27.2 8.4-8.19 4.04-15.6 9.27-22.4 15.8-3.17 3.02-8.06 8.66-8.25 9.5-0.27 1.19 3.65 10.2 7.12 16.4 12.9 23 31.3 37.3 52.7 41l3 0.509 0.082 5.9 0.081 5.9-0.681-0.045a30.9 30.9 0 0 1-1.58-0.162zm-1.5-25.4c-14.2-3.68-25.6-12.5-34.2-26.4-2.12-3.42-5.14-9.67-6.41-13.3l-0.952-2.7 2.2-2.06c5.33-4.98 13.2-10.2 20.5-13.5 6.48-2.96 14.9-5.42 20.8-6.07l1.88-0.209v11.8h-2.96c-7.09 0-14.7 3.5-21.2 9.71l-2.55 2.44 0.812 2.25c3.51 9.73 10.3 19 17.5 23.8 2.1 1.41 7.44 4.11 8.12 4.11 0.241 0 0.34 1.57 0.34 5.4 0 6.25 0.402 5.75-3.75 4.67z" fill="#8ec63f"/>
<path d="m67.5 347c-7.93-1.03-14.8-6.47-17-13.5-1.16-3.66-1.43-7.72-1.27-18.9 0.151-10.5 0.362-12.4 1.74-15.9 2.35-5.95 8.83-10.8 16-11.9 2.77-0.441 7.36-0.234 9.96 0.45a19.8 19.8 0 0 1 12.8 10.5c1.2 2.48 2.5 6.64 2.22 7.09-0.088 0.143-2.16 0.26-4.6 0.26h-4.44l-0.682-1.88c-1.8-4.95-4.9-7.66-9.54-8.32-5.16-0.732-10.3 1.62-12.3 5.66-1.55 3.03-1.66 4.17-1.66 16.2 0 9.83 0.068 11.5 0.537 13.3 0.684 2.67 1.61 4.24 3.52 5.96 2.3 2.07 4.26 2.74 8.09 2.74 2.92 0.01 3.3-0.063 5.1-0.926 3.12-1.49 4.98-3.63 6.3-7.24l0.684-1.88h9.2l-0.187 0.975c-0.42 2.19-1.7 5.59-2.8 7.45-3.29 5.57-8.65 9-15.4 9.88-2.43 0.316-3.48 0.31-6.11-0.031zm53.7 0c-7.03-0.912-13.2-5.08-15.9-10.8-2.22-4.65-2.16-3.91-2.16-27.8v-21.4h8.97l0.094 21.2c0.092 20.9 0.102 21.2 0.745 22.9 1.8 4.75 5.31 7.34 10.4 7.65 6.61 0.413 11.4-2.8 13-8.73 0.33-1.24 0.412-5.68 0.415-22.3l4e-3 -20.8h9.33l-0.104 21.7c-0.094 19.7-0.153 21.8-0.634 23.5-2.43 8.26-9.02 13.7-17.9 14.8-2.81 0.352-3.49 0.352-6.24 0zm39.4-0.478c-0.11-0.109-0.2-13.5-0.2-29.9v-29.7l26.6 0.184 2.4 0.848c3.63 1.28 5.18 2.24 7.66 4.7 3.4 3.39 4.89 6.78 5.7 13 0.432 3.29 0.203 21.8-0.3 24.2-2 9.62-7.51 15-16.8 16.5-2.13 0.336-24.7 0.437-25 0.112zm26-9.18c2.67-1.25 4.2-2.66 5.27-4.83 1.61-3.27 1.86-5.79 1.73-17.3-0.11-9.43-0.16-10.2-0.783-12.1-1.13-3.41-3.43-5.82-6.86-7.17-1.6-0.63-2.3-0.693-9.01-0.802l-7.28-0.118v43.3l7.58-0.098c7.56-0.098 7.58-0.1 9.35-0.931zm21.9 8.87c0.098-0.293 5.01-13.7 10.9-29.8l10.7-29.2 7.51-0.167 10.9 29.6c5.97 16.3 10.9 29.7 10.9 29.9 0 0.124-2.15 0.225-4.77 0.225h-4.77l-0.89-2.48a276 276 0 0 1-2.04-6l-1.15-3.52h-23.5l-0.477 1.28c-0.262 0.701-1.18 3.37-2.05 5.92l-1.57 4.65-4.9 0.082c-4.58 0.077-4.89 0.048-4.72-0.45zm31.5-28.4c-4.22-12.3-5.54-16.2-5.75-16.7-0.154-0.402-1.41 3.03-7.63 20.8l-1.76 5.02h18.2zm10.9-21.2c-2.16-0.652-3.82-2.87-3.82-5.1 0-3.39 3.61-6.13 6.72-5.1 2.39 0.788 3.76 2.65 3.76 5.1 0 0.842-0.197 1.91-0.439 2.38-0.608 1.18-2.07 2.34-3.4 2.71-1.28 0.355-1.7 0.357-2.83 0.017zm3.39-1.37c1.26-0.652 2.07-2.11 2.07-3.74 0-1.62-0.81-3.08-2.07-3.74-2.71-1.4-6.03 0.65-6.03 3.74s3.31 5.14 6.03 3.74zm-3.8-1.14c-0.084-0.22-0.114-1.54-0.066-2.92l0.088-2.52 1.61 0.015c1.22 0.011 1.71 0.151 2.02 0.582 0.555 0.76 0.524 1.64-0.082 2.3-0.463 0.512-0.459 0.62 0.062 1.59 0.307 0.57 0.47 1.13 0.36 1.24-0.386 0.387-1.13-0.17-1.63-1.22-0.69-1.45-1.3-1.38-1.3 0.141 0 0.878-0.123 1.2-0.46 1.2-0.252 0-0.528-0.18-0.612-0.4zm2.72-3.65c0-0.431-0.231-0.626-0.825-0.695-0.715-0.082-0.825 0.01-0.825 0.695s0.11 0.778 0.825 0.695c0.594-0.068 0.825-0.263 0.825-0.695zm61.6-50.6c-1.38-0.854-1.87-1.53-2.31-3.17-1.14-4.24 3.45-7.71 7.66-5.8 1.91 0.869 2.67 2.17 2.67 4.58 0 3.23-1.55 4.81-4.88 4.98-1.7 0.084-2.19-0.011-3.14-0.598zm4.82-1.14c2.03-1.24 2.35-4.25 0.643-5.96-2.37-2.37-6.28-0.642-6.28 2.77-3e-3 3.03 3.06 4.76 5.64 3.19zm-3.93-0.482c-0.116-0.116-0.21-1.4-0.21-2.86v-2.65h1.67c2.24 0 2.83 0.35 2.83 1.69 0 0.82-0.142 1.1-0.608 1.23l-0.608 0.16 0.608 1.03c0.78 1.32 0.766 1.66-0.068 1.54-0.42-0.06-0.902-0.52-1.28-1.22-0.33-0.618-0.693-1.12-0.807-1.12-0.113 0-0.248 0.504-0.3 1.12-0.088 1.07-0.705 1.62-1.23 1.09zm2.96-3.74c0.24-0.387-0.384-0.855-1.15-0.862-0.326-3e-3 -0.525 0.222-0.525 0.595 0 0.436 0.2 0.6 0.733 0.6 0.402 0 0.825-0.15 0.938-0.333zm-319-24.7v-28.9h17c10.2 0 18.1 0.13 19.7 0.323 11.6 1.38 17.8 6.28 20.5 16.2l0.786 2.87 0.196 38.6h-15.9l-3e-3 -13.4c-3e-3 -13.1-0.252-18.8-0.943-21.6-0.93-3.83-3.16-6.68-6.19-7.89-1.62-0.646-2.2-0.69-10.2-0.789l-8.48-0.103v43.8h-16.5v-29zm70.1 0.368c-5.07-15.7-9.22-28.8-9.22-29 0-0.29 1.95-0.354 8.77-0.292l8.76 0.08 6.45 22.6c3.54 12.4 6.54 22.5 6.66 22.4 0.153-0.163 8.33-27.4 13.4-44.5 0.142-0.484 0.813-0.525 8.57-0.525 6.6 0 8.38 0.08 8.27 0.375-0.075 0.207-4.31 13.2-9.41 29l-9.27 28.6h-23.7l-9.22-28.6zm58.6-0.372v-29l16.4 0.16 0.077 28.9 0.076 28.9h-16.5v-29zm26.2 0.098 0.076-28.9 15.8 0.016c13.5 0.013 16.2 0.088 18.7 0.535 7.9 1.38 13 4.29 16.7 9.6 5.97 8.5 6.63 26 1.38 36.8-1.76 3.59-6.53 7.68-10.5 9-4.86 1.62-4.8 1.61-24.1 1.74l-18.1 0.118 0.077-28.9zm29.4 15.8c5.36-1.48 8.58-4.65 9.97-9.82 0.237-0.886 0.51-2.96 0.606-4.61 0.414-7.16-2.14-13-6.74-15.6-2.79-1.52-5.53-2-11.5-2h-5.35v32.8l5.62-0.16c3.79-0.108 6.2-0.317 7.37-0.642zm34.2-15.9 0.076-28.9 16.4-0.16v57.9h-16.5l0.077-28.9zm28.8 14.6c3.11-7.88 8.25-20.9 11.4-29l5.77-14.6h10.9c6.94 0 10.9 0.11 11.1 0.3 0.198 0.321 21.8 54.6 22.5 56.5l0.407 1.12h-17.5l-3.33-10-27-0.156-1.76 5.1-1.76 5.1h-16.3l5.66-14.3zm37.5-6.07c0-0.423-9.3-25.9-9.55-26.2-0.167-0.174-3.46 8.3-9.49 24.4l-0.756 2.02h9.9c6.39 0 9.9-0.106 9.9-0.3z"/>
</svg>
