<?xml version="1.0" encoding="UTF-8"?>
<svg version="1.1" viewBox="0 0 688 107" xmlns="http://www.w3.org/2000/svg">
<g transform="translate(-52.6,-50.4)">
<path d="m131 52.4v78.6h26.2v-78.6h-26.2" fill="#91b1d1"/>
<path d="m105 131h-26.2v-78.6h-26.2v105h78.6v-26.2h-26.2" fill="#64b6e8"/>
<g fill="#0e2b58">
<path d="m131 131h-52.4v-78.6h52.4v78.6"/>
<path d="m215 134c-17.4 0-31.5-14.1-31.5-31.5v-49.8h15.8v49.8c0 8.65 7.04 15.7 15.7 15.7 8.65 0 15.7-7.04 15.7-15.7v-49.8h15.8v49.8c0 17.4-14.1 31.5-31.5 31.5"/>
<path d="m389 131h-49.2v-78.6h15.8v62.9h33.4v15.8"/>
<path d="m425 117c8.17 0 14.9-6.46 14.9-14.7 0-8.17-6.69-14.7-14.9-14.7s-14.9 6.58-14.9 14.7c0 8.28 6.69 14.7 14.9 14.7zm0-44.2c16.7 0 30.3 13.2 30.3 29.5s-13.6 29.5-30.3 29.5-30.3-13.2-30.3-29.5 13.6-29.5 30.3-29.5"/>
<path d="m464 73.4h15.3v30.3c0 8.73 2.27 13.6 10.3 13.6 7.83 0 12.3-4.99 12.3-15.4v-28.5h15.2v57.5h-15.2v-7.37c-4.2 5.56-10.4 8.51-17 8.51-16.8 0-20.9-13.4-20.9-25.7v-32.9"/>
<path d="m525 73.4h15.2l9.25 24.4c3.29 8.85 5.67 17.9 5.67 17.9s2.5-9.07 5.79-17.9l9.17-24.4h15.2l-22.7 57.5h-15l-22.6-57.5"/>
<path d="m618 117c7.94 0 13.4-6.01 13.4-14.7 0-8.73-5.44-14.7-13.4-14.7-8.05 0-13.6 6.01-13.6 14.7 0 8.73 5.56 14.7 13.6 14.7zm-3.63-44.2c6.58 0 12.8 3.06 17 8.62v-8.3h15.2v57.5h-15.2v-7.37c-4.2 5.56-10.4 8.51-17 8.51-15.9 0-26.2-13.2-26.2-29.5s10.3-29.5 26.2-29.5"/>
<path d="m660 73.4h15.2v57.5h-15.2zm7.6-22.9c4.99 0 9.07 4.08 9.07 9.07 0 4.88-4.08 8.96-9.07 8.96-4.88 0-8.96-4.08-8.96-8.96 0-4.99 4.08-9.07 8.96-9.07"/>
<path d="m688 73.4h15.2v8.19c4.2-5.56 10.3-8.51 17.7-8.51 16.2 0 20.2 11 20.2 26.7v31.2h-15.3v-29.5c0-8.73-1.02-13.6-9.76-13.6-7.83 0-12.8 6.01-12.8 14.7v28.4h-15.2v-57.5"/>
<path d="m299 134c-23 0-41.8-18.8-41.8-41.8s18.8-41.8 41.8-41.8c11.2 0 21.7 4.35 29.6 12.2l-11.2 11.2c-4.92-4.92-11.5-7.62-18.4-7.62-14.4 0-26 11.7-26 26 0 14.4 11.7 26 26 26 6.95 0 13.5-2.71 18.4-7.62l11.2 11.2c-7.89 7.9-18.4 12.2-29.6 12.2"/>
</g>
</g>
</svg>
