<svg width="76.8mm" height="234.221" viewBox="0 0 76.8 61.971" xmlns="http://www.w3.org/2000/svg"><defs><clipPath id="a"><path transform="rotate(-90 -124.5 391.5)" d="M20 516h247v306H20z"/></clipPath><clipPath id="b"><path transform="rotate(-90 -124.5 391.5)" d="M20 516h247v306H20z"/></clipPath><clipPath id="c"><path transform="rotate(-90 -124.5 391.5)" d="M20 516h247v306H20z"/></clipPath><clipPath id="d"><path transform="matrix(1 0 0 -1 -278.3 3.846)" d="M0 0h306.14v246.91H0z"/></clipPath><clipPath id="e"><path transform="matrix(1 0 0 -1 -270.37 1.923)" d="M0 0h306.14v246.91H0z"/></clipPath><clipPath id="f"><path transform="matrix(1 0 0 -1 -265.37 3.846)" d="M0 0h306.14v246.91H0z"/></clipPath><clipPath id="g"><path transform="matrix(1 0 0 -1 -259.6 3.846)" d="M0 0h306.14v246.91H0z"/></clipPath><clipPath id="h"><path transform="rotate(-90 -124.5 391.5)" d="M20 516h247v306H20z"/></clipPath><clipPath id="i"><path transform="rotate(-90 -124.5 391.5)" d="M20 516h247v306H20z"/></clipPath><clipPath id="j"><path transform="rotate(-90 -124.5 391.5)" d="M20 516h247v306H20z"/></clipPath><clipPath id="k"><path transform="rotate(-90 -124.5 391.5)" d="M20 516h247v306H20z"/></clipPath><clipPath id="l"><path transform="matrix(1 0 0 -1 -54.613 22.691)" d="M0 0h306.14v246.91H0z"/></clipPath><clipPath id="m"><path transform="matrix(1 0 0 -1 -50.767 22.691)" d="M0 0h306.14v246.91H0z"/></clipPath><clipPath id="n"><path transform="matrix(1 0 0 -1 -39.614 17.692)" d="M0 0h306.14v246.91H0z"/></clipPath><clipPath id="o"><path transform="rotate(-90 -124.5 391.5)" d="M20 516h247v306H20z"/></clipPath><clipPath id="p"><path transform="rotate(-90 -124.5 391.5)" d="M20 516h247v306H20z"/></clipPath><clipPath id="q"><path transform="rotate(-90 -124.5 391.5)" d="M20 516h247v306H20z"/></clipPath><clipPath id="r"><path transform="rotate(-90 -124.5 391.5)" d="M20 516h247v306H20z"/></clipPath><clipPath id="s"><path transform="rotate(-90 -124.5 391.5)" d="M20 516h247v306H20z"/></clipPath><clipPath id="t"><path transform="rotate(-90 -124.5 391.5)" d="M20 516h247v306H20z"/></clipPath><clipPath id="u"><path transform="rotate(-90 -124.5 391.5)" d="M20 516h247v306H20z"/></clipPath><clipPath id="v"><path transform="rotate(-90 -124.5 391.5)" d="M20 516h247v306H20z"/></clipPath><clipPath id="w"><path transform="rotate(-90 -124.5 391.5)" d="M20 516h247v306H20z"/></clipPath><clipPath id="x"><path transform="matrix(1 0 0 -1 -94.227 22.307)" d="M0 0h306.14v246.91H0z"/></clipPath><clipPath id="y"><path transform="matrix(1 0 0 -1 -90.381 22.307)" d="M0 0h306.14v246.91H0z"/></clipPath><clipPath id="z"><path transform="matrix(1 0 0 -1 -79.228 17.692)" d="M0 0h306.14v246.91H0z"/></clipPath><clipPath id="A"><path transform="rotate(-90 -124.5 391.5)" d="M20 516h247v306H20z"/></clipPath><clipPath id="B"><path transform="rotate(-90 -124.5 391.5)" d="M20 516h247v306H20z"/></clipPath><clipPath id="C"><path transform="rotate(-90 -124.5 391.5)" d="M20 516h247v306H20z"/></clipPath><clipPath id="D"><path transform="rotate(-90 -124.5 391.5)" d="M20 516h247v306H20z"/></clipPath><clipPath id="E"><path transform="rotate(-90 -124.5 391.5)" d="M20 516h247v306H20z"/></clipPath><clipPath id="F"><path transform="rotate(-90 -124.5 391.5)" d="M20 516h247v306H20z"/></clipPath><clipPath id="G"><path transform="rotate(-90 -124.5 391.5)" d="M20 516h247v306H20z"/></clipPath><clipPath id="H"><path transform="rotate(-90 -124.5 391.5)" d="M20 516h247v306H20z"/></clipPath><clipPath id="I"><path transform="rotate(-90 -124.5 391.5)" d="M20 516h247v306H20z"/></clipPath><clipPath id="J"><path transform="matrix(1 0 0 -1 -133.84 22.691)" d="M0 0h306.14v246.91H0z"/></clipPath><clipPath id="K"><path transform="matrix(1 0 0 -1 -130 22.691)" d="M0 0h306.14v246.91H0z"/></clipPath><clipPath id="L"><path transform="matrix(1 0 0 -1 -118.84 17.692)" d="M0 0h306.14v246.91H0z"/></clipPath><clipPath id="M"><path transform="rotate(-90 -124.5 391.5)" d="M20 516h247v306H20z"/></clipPath><clipPath id="N"><path transform="rotate(-90 -124.5 391.5)" d="M20 516h247v306H20z"/></clipPath><clipPath id="O"><path transform="rotate(-90 -124.5 391.5)" d="M20 516h247v306H20z"/></clipPath><clipPath id="P"><path transform="rotate(-90 -124.5 391.5)" d="M20 516h247v306H20z"/></clipPath><clipPath id="Q"><path transform="rotate(-90 -124.5 391.5)" d="M20 516h247v306H20z"/></clipPath><clipPath id="R"><path transform="rotate(-90 -124.5 391.5)" d="M20 516h247v306H20z"/></clipPath><clipPath id="S"><path transform="rotate(-90 -124.5 391.5)" d="M20 516h247v306H20z"/></clipPath><clipPath id="T"><path transform="rotate(-90 -124.5 391.5)" d="M20 516h247v306H20z"/></clipPath><clipPath id="U"><path transform="rotate(-90 -124.5 391.5)" d="M20 516h247v306H20z"/></clipPath><clipPath id="V"><path transform="matrix(1 0 0 -1 -173.46 22.307)" d="M0 0h306.14v246.91H0z"/></clipPath><clipPath id="W"><path transform="matrix(1 0 0 -1 -169.61 22.307)" d="M0 0h306.14v246.91H0z"/></clipPath><clipPath id="X"><path transform="matrix(1 0 0 -1 -158.46 17.692)" d="M0 0h306.14v246.91H0z"/></clipPath><clipPath id="Y"><path transform="rotate(-90 -124.5 391.5)" d="M20 516h247v306H20z"/></clipPath><clipPath id="Z"><path transform="rotate(-90 -124.5 391.5)" d="M20 516h247v306H20z"/></clipPath><clipPath id="aa"><path transform="rotate(-90 -124.5 391.5)" d="M20 516h247v306H20z"/></clipPath><clipPath id="ab"><path transform="rotate(-90 -124.5 391.5)" d="M20 516h247v306H20z"/></clipPath><clipPath id="ac"><path transform="rotate(-90 -124.5 391.5)" d="M20 516h247v306H20z"/></clipPath><clipPath id="ad"><path transform="rotate(-90 -124.5 391.5)" d="M20 516h247v306H20z"/></clipPath><clipPath id="ae"><path transform="rotate(-90 -124.5 391.5)" d="M20 516h247v306H20z"/></clipPath><clipPath id="af"><path transform="rotate(-90 -124.5 391.5)" d="M20 516h247v306H20z"/></clipPath><clipPath id="ag"><path transform="rotate(-90 -124.5 391.5)" d="M20 516h247v306H20z"/></clipPath><clipPath id="ah"><path transform="matrix(1 0 0 -1 -213.84 22.307)" d="M0 0h306.14v246.91H0z"/></clipPath><clipPath id="ai"><path transform="matrix(1 0 0 -1 -210.38 22.307)" d="M0 0h306.14v246.91H0z"/></clipPath><clipPath id="aj"><path transform="matrix(1 0 0 -1 -199.22 17.692)" d="M0 0h306.14v246.91H0z"/></clipPath><clipPath id="ak"><path transform="rotate(-90 -124.5 391.5)" d="M20 516h247v306H20z"/></clipPath><clipPath id="al"><path transform="rotate(-90 -124.5 391.5)" d="M20 516h247v306H20z"/></clipPath><clipPath id="am"><path transform="rotate(-90 -124.5 391.5)" d="M20 516h247v306H20z"/></clipPath><clipPath id="an"><path transform="rotate(-90 -124.5 391.5)" d="M20 516h247v306H20z"/></clipPath><clipPath id="ao"><path transform="rotate(-90 -124.5 391.5)" d="M20 516h247v306H20z"/></clipPath><clipPath id="ap"><path transform="rotate(-90 -124.5 391.5)" d="M20 516h247v306H20z"/></clipPath><clipPath id="aq"><path transform="rotate(-90 -124.5 391.5)" d="M20 516h247v306H20z"/></clipPath><clipPath id="ar"><path transform="rotate(-90 -124.5 391.5)" d="M20 516h247v306H20z"/></clipPath><clipPath id="as"><path transform="rotate(-90 -124.5 391.5)" d="M20 516h247v306H20z"/></clipPath><clipPath id="at"><path transform="matrix(1 0 0 -1 -245.86 17.544)" d="M0 0h306.14v246.91H0z"/></clipPath><clipPath id="au"><path transform="rotate(-90 -124.5 391.5)" d="M20 516h247v306H20z"/></clipPath><clipPath id="av"><path transform="rotate(-90 -124.5 391.5)" d="M20 516h247v306H20z"/></clipPath><clipPath id="aw"><path transform="rotate(-90 -124.5 391.5)" d="M20 516h247v306H20z"/></clipPath><clipPath id="ax"><path transform="rotate(-90 -124.5 391.5)" d="M20 516h247v306H20z"/></clipPath><clipPath id="ay"><path transform="rotate(-90 -124.5 391.5)" d="M20 516h247v306H20z"/></clipPath><clipPath id="az"><path transform="rotate(-90 -124.5 391.5)" d="M20 516h247v306H20z"/></clipPath><clipPath id="aA"><path transform="rotate(-90 -124.5 391.5)" d="M20 516h247v306H20z"/></clipPath><clipPath id="aB"><path transform="rotate(-90 -124.5 391.5)" d="M20 516h247v306H20z"/></clipPath><clipPath id="aC"><path transform="rotate(-90 -124.5 391.5)" d="M20 516h247v306H20z"/></clipPath><clipPath id="aD"><path transform="matrix(1 0 0 -1 -281.91 17.544)" d="M0 0h306.14v246.91H0z"/></clipPath><clipPath id="aE"><path transform="rotate(-90 -124.5 391.5)" d="M20 516h247v306H20z"/></clipPath><clipPath id="aF"><path transform="rotate(-90 -124.5 391.5)" d="M20 516h247v306H20z"/></clipPath><clipPath id="aG"><path transform="rotate(-90 -124.5 391.5)" d="M20 516h247v306H20z"/></clipPath><clipPath id="aH"><path transform="rotate(-90 -124.5 391.5)" d="M20 516h247v306H20z"/></clipPath><clipPath id="aI"><path transform="rotate(-90 -124.5 391.5)" d="M20 516h247v306H20z"/></clipPath><clipPath id="aJ"><path transform="rotate(-90 -124.5 391.5)" d="M20 516h247v306H20z"/></clipPath><clipPath id="aK"><path transform="rotate(-90 -124.5 391.5)" d="M20 516h247v306H20z"/></clipPath><clipPath id="aL"><path transform="rotate(-90 -124.5 391.5)" d="M20 516h247v306H20z"/></clipPath><clipPath id="aM"><path transform="rotate(-90 -124.5 391.5)" d="M20 516h247v306H20z"/></clipPath><clipPath id="aN"><path transform="rotate(-90 -124.5 391.5)" d="M20 516h247v306H20z"/></clipPath><clipPath id="aO"><path transform="rotate(-90 -124.5 391.5)" d="M20 516h247v306H20z"/></clipPath><clipPath id="aP"><path transform="rotate(-90 -124.5 391.5)" d="M20 516h247v306H20z"/></clipPath><clipPath id="aQ"><path transform="rotate(-90 -124.5 391.5)" d="M20 516h247v306H20z"/></clipPath><clipPath id="aR"><path transform="rotate(-90 -124.5 391.5)" d="M20 516h247v306H20z"/></clipPath><clipPath id="aS"><path transform="rotate(-90 -124.5 391.5)" d="M20 516h247v306H20z"/></clipPath><clipPath id="aT"><path transform="rotate(-90 -124.5 391.5)" d="M20 516h247v306H20z"/></clipPath><clipPath id="aU"><path transform="rotate(-90 -124.5 391.5)" d="M20 516h247v306H20z"/></clipPath><clipPath id="aV"><path transform="rotate(-90 -124.5 391.5)" d="M20 516h247v306H20z"/></clipPath><clipPath id="aW"><path transform="rotate(-90 -124.5 391.5)" d="M20 516h247v306H20z"/></clipPath><clipPath id="aX"><path transform="rotate(-90 -124.5 391.5)" d="M20 516h247v306H20z"/></clipPath><clipPath id="aY"><path transform="rotate(-90 -124.5 391.5)" d="M20 516h247v306H20z"/></clipPath><clipPath id="aZ"><path transform="rotate(-90 -124.5 391.5)" d="M20 516h247v306H20z"/></clipPath><clipPath id="ba"><path transform="rotate(-90 -124.5 391.5)" d="M20 516h247v306H20z"/></clipPath><clipPath id="bb"><path transform="rotate(-90 -124.5 391.5)" d="M20 516h247v306H20z"/></clipPath><clipPath id="bc"><path transform="rotate(-90 -124.5 391.5)" d="M20 516h247v306H20z"/></clipPath><clipPath id="bd"><path transform="rotate(-90 -124.5 391.5)" d="M20 516h247v306H20z"/></clipPath><clipPath id="be"><path transform="rotate(-90 -124.5 391.5)" d="M20 516h247v306H20z"/></clipPath><clipPath id="bf"><path transform="rotate(-90 -124.5 391.5)" d="M20 516h247v306H20z"/></clipPath><clipPath id="bg"><path transform="rotate(-90 -124.5 391.5)" d="M20 516h247v306H20z"/></clipPath><clipPath id="bh"><path transform="rotate(-90 -124.5 391.5)" d="M20 516h247v306H20z"/></clipPath><clipPath id="bi"><path transform="rotate(-90 -124.5 391.5)" d="M20 516h247v306H20z"/></clipPath><clipPath id="bj"><path transform="rotate(-90 -124.5 391.5)" d="M20 516h247v306H20z"/></clipPath><clipPath id="bk"><path transform="rotate(-90 -124.5 391.5)" d="M20 516h247v306H20z"/></clipPath><clipPath id="bl"><path transform="rotate(-90 -124.5 391.5)" d="M20 516h247v306H20z"/></clipPath><clipPath id="bm"><path transform="rotate(-90 -124.5 391.5)" d="M20 516h247v306H20z"/></clipPath><clipPath id="bn"><path transform="rotate(-90 -124.5 391.5)" d="M20 516h247v306H20z"/></clipPath><clipPath id="bo"><path transform="rotate(-90 -124.5 391.5)" d="M20 516h247v306H20z"/></clipPath><clipPath id="bp"><path transform="rotate(-90 -124.5 391.5)" d="M20 516h247v306H20z"/></clipPath><clipPath id="bq"><path transform="rotate(-90 -124.5 391.5)" d="M20 516h247v306H20z"/></clipPath><clipPath id="br"><path transform="rotate(-90 -124.5 391.5)" d="M20 516h247v306H20z"/></clipPath><clipPath id="bs"><path transform="rotate(-90 -124.5 391.5)" d="M20 516h247v306H20z"/></clipPath><clipPath id="bt"><path transform="rotate(-90 -124.5 391.5)" d="M20 516h247v306H20z"/></clipPath><clipPath id="bu"><path transform="rotate(-90 -124.5 391.5)" d="M20 516h247v306H20z"/></clipPath><clipPath id="bv"><path transform="rotate(-90 -124.5 391.5)" d="M20 516h247v306H20z"/></clipPath><clipPath id="bw"><path transform="rotate(-90 -124.5 391.5)" d="M20 516h247v306H20z"/></clipPath><clipPath id="bx"><path transform="rotate(-90 -124.5 391.5)" d="M20 516h247v306H20z"/></clipPath><clipPath id="by"><path transform="rotate(-90 -124.5 391.5)" d="M20 516h247v306H20z"/></clipPath><clipPath id="bz"><path transform="rotate(-90 -124.5 391.5)" d="M20 516h247v306H20z"/></clipPath><clipPath id="bA"><path transform="rotate(-90 -124.5 391.5)" d="M20 516h247v306H20z"/></clipPath><clipPath id="bB"><path transform="rotate(-90 -124.5 391.5)" d="M20 516h247v306H20z"/></clipPath><clipPath id="bC"><path transform="rotate(-90 -124.5 391.5)" d="M20 516h247v306H20z"/></clipPath><clipPath id="bD"><path transform="rotate(-90 -124.5 391.5)" d="M20 516h247v306H20z"/></clipPath><clipPath id="bE"><path transform="rotate(-90 -124.5 391.5)" d="M20 516h247v306H20z"/></clipPath><clipPath id="bF"><path transform="rotate(-90 -124.5 391.5)" d="M20 516h247v306H20z"/></clipPath><clipPath id="bG"><path transform="rotate(-90 -124.5 391.5)" d="M20 516h247v306H20z"/></clipPath><clipPath id="bH"><path transform="rotate(-90 -124.5 391.5)" d="M20 516h247v306H20z"/></clipPath><clipPath id="bI"><path transform="rotate(-90 -124.5 391.5)" d="M20 516h247v306H20z"/></clipPath><clipPath id="bJ"><path transform="rotate(-90 -124.5 391.5)" d="M20 516h247v306H20z"/></clipPath><clipPath id="bK"><path transform="rotate(-90 -124.5 391.5)" d="M20 516h247v306H20z"/></clipPath><clipPath id="bL"><path transform="rotate(-90 -124.5 391.5)" d="M20 516h247v306H20z"/></clipPath><clipPath id="bM"><path transform="matrix(0 1 1 0 -203.31 -11.538)" d="M0 0h306.14v246.91H0z"/></clipPath><clipPath id="bN"><path transform="matrix(0 1 1 0 -194.99 -13.846)" d="M0 0h306.14v246.91H0z"/></clipPath><clipPath id="bO"><path transform="matrix(0 1 1 0 -195.18 -9.384)" d="M0 0h306.14v246.91H0z"/></clipPath><clipPath id="bP"><path transform="matrix(0 1 1 0 -184.22 -11.538)" d="M0 0h306.14v246.91H0z"/></clipPath><clipPath id="bQ"><path transform="rotate(-90 -124.5 391.5)" d="M20 516h247v306H20z"/></clipPath><clipPath id="bR"><path transform="rotate(-90 -124.5 391.5)" d="M20 516h247v306H20z"/></clipPath><clipPath id="bS"><path transform="rotate(-90 -124.5 391.5)" d="M20 516h247v306H20z"/></clipPath><clipPath id="bT"><path transform="rotate(-90 -124.5 391.5)" d="M20 516h247v306H20z"/></clipPath><clipPath id="bU"><path transform="rotate(-90 -124.5 391.5)" d="M20 516h247v306H20z"/></clipPath><clipPath id="bV"><path transform="rotate(-90 -124.5 391.5)" d="M20 516h247v306H20z"/></clipPath><clipPath id="bW"><path transform="rotate(-90 -124.5 391.5)" d="M20 516h247v306H20z"/></clipPath><clipPath id="bX"><path transform="rotate(-90 -124.5 391.5)" d="M20 516h247v306H20z"/></clipPath><clipPath id="bY"><path transform="rotate(-90 -124.5 391.5)" d="M20 516h247v306H20z"/></clipPath><clipPath id="bZ"><path transform="rotate(-90 -124.5 391.5)" d="M20 516h247v306H20z"/></clipPath><clipPath id="ca"><path transform="rotate(-90 -124.5 391.5)" d="M20 516h247v306H20z"/></clipPath><clipPath id="cb"><path transform="rotate(-90 -124.5 391.5)" d="M20 516h247v306H20z"/></clipPath><clipPath id="cc"><path transform="rotate(-90 -124.5 391.5)" d="M20 516h247v306H20z"/></clipPath><clipPath id="cd"><path transform="rotate(-90 -124.5 391.5)" d="M20 516h247v306H20z"/></clipPath><clipPath id="ce"><path transform="rotate(-90 -124.5 391.5)" d="M20 516h247v306H20z"/></clipPath><clipPath id="cf"><path transform="rotate(-90 -124.5 391.5)" d="M20 516h247v306H20z"/></clipPath><clipPath id="cg"><path transform="rotate(-90 -124.5 391.5)" d="M20 516h247v306H20z"/></clipPath><clipPath id="ch"><path transform="rotate(-90 -124.5 391.5)" d="M20 516h247v306H20z"/></clipPath><clipPath id="ci"><path transform="rotate(-90 -124.5 391.5)" d="M20 516h247v306H20z"/></clipPath><clipPath id="cj"><path transform="rotate(-90 -124.5 391.5)" d="M20 516h247v306H20z"/></clipPath><clipPath id="ck"><path transform="rotate(-90 -124.5 391.5)" d="M20 516h247v306H20z"/></clipPath><clipPath id="cl"><path transform="rotate(-90 -124.5 391.5)" d="M20 516h247v306H20z"/></clipPath><clipPath id="cm"><path transform="rotate(-90 -124.5 391.5)" d="M20 516h247v306H20z"/></clipPath><clipPath id="cn"><path transform="matrix(1 0 0 -1 -31.922 29.614)" d="M0 0h306.14v246.91H0z"/></clipPath><clipPath id="co"><path transform="matrix(1 0 0 -1 -23.076 76.92)" d="M0 0h306.14v246.91H0z"/></clipPath><clipPath id="cp"><path transform="matrix(1 0 0 -1 -33.46 123.84)" d="M0 0h306.14v246.91H0z"/></clipPath><clipPath id="cq"><path transform="matrix(1 0 0 -1 -23.076 171.53)" d="M0 0h306.14v246.91H0z"/></clipPath><clipPath id="cr"><path transform="matrix(1 0 0 -1 -31.922 218.45)" d="M0 0h306.14v246.91H0z"/></clipPath><clipPath id="cs"><path transform="rotate(-90 -124.5 391.5)" d="M20 516h247v306H20z"/></clipPath><clipPath id="ct"><path transform="rotate(-90 -124.5 391.5)" d="M20 516h247v306H20z"/></clipPath><clipPath id="cu"><path transform="rotate(-90 -124.5 391.5)" d="M20 516h247v306H20z"/></clipPath><clipPath id="cv"><path transform="rotate(-90 -124.5 391.5)" d="M20 516h247v306H20z"/></clipPath><clipPath id="cw"><path transform="rotate(-90 -124.5 391.5)" d="M20 516h247v306H20z"/></clipPath><clipPath id="cx"><path transform="rotate(-90 -124.5 391.5)" d="M20 516h247v306H20z"/></clipPath><clipPath id="cy"><path transform="rotate(-90 -124.5 391.5)" d="M20 516h247v306H20z"/></clipPath><clipPath id="cz"><path transform="rotate(-90 -124.5 391.5)" d="M20 516h247v306H20z"/></clipPath><clipPath id="cA"><path transform="rotate(-90 -124.5 391.5)" d="M20 516h247v306H20z"/></clipPath><clipPath id="cB"><path transform="rotate(-90 -124.5 391.5)" d="M20 516h247v306H20z"/></clipPath><clipPath id="cC"><path transform="rotate(-90 -124.5 391.5)" d="M20 516h247v306H20z"/></clipPath><clipPath id="cD"><path transform="rotate(-90 -124.5 391.5)" d="M20 516h247v306H20z"/></clipPath><clipPath id="cE"><path transform="rotate(-90 -124.5 391.5)" d="M20 516h247v306H20z"/></clipPath><clipPath id="cF"><path transform="rotate(-90 -124.5 391.5)" d="M20 516h247v306H20z"/></clipPath><clipPath id="cG"><path transform="rotate(-90 -124.5 391.5)" d="M20 516h247v306H20z"/></clipPath><clipPath id="cH"><path transform="rotate(-90 -124.5 391.5)" d="M20 516h247v306H20z"/></clipPath><clipPath id="cI"><path transform="rotate(-90 -124.5 391.5)" d="M20 516h247v306H20z"/></clipPath><clipPath id="cJ"><path transform="rotate(-90 -124.5 391.5)" d="M20 516h247v306H20z"/></clipPath><clipPath id="cK"><path transform="rotate(-90 -124.5 391.5)" d="M20 516h247v306H20z"/></clipPath><clipPath id="cL"><path transform="rotate(-90 -124.5 391.5)" d="M20 516h247v306H20z"/></clipPath><clipPath id="cM"><path transform="rotate(-90 -124.5 391.5)" d="M20 516h247v306H20z"/></clipPath><clipPath id="cN"><path transform="rotate(-90 -124.5 391.5)" d="M20 516h247v306H20z"/></clipPath><clipPath id="cO"><path transform="rotate(-90 -124.5 391.5)" d="M20 516h247v306H20z"/></clipPath><clipPath id="cP"><path transform="rotate(-90 -124.5 391.5)" d="M20 516h247v306H20z"/></clipPath><clipPath id="cQ"><path transform="rotate(-90 -124.5 391.5)" d="M20 516h247v306H20z"/></clipPath><clipPath id="cR"><path transform="rotate(-90 -124.5 391.5)" d="M20 516h247v306H20z"/></clipPath><clipPath id="cS"><path transform="rotate(-90 -124.5 391.5)" d="M20 516h247v306H20z"/></clipPath><clipPath id="cT"><path transform="rotate(-90 -124.5 391.5)" d="M20 516h247v306H20z"/></clipPath><clipPath id="cU"><path transform="rotate(-90 -124.5 391.5)" d="M20 516h247v306H20z"/></clipPath><clipPath id="cV"><path transform="rotate(-90 -124.5 391.5)" d="M20 516h247v306H20z"/></clipPath><clipPath id="cW"><path transform="matrix(1 0 0 -1 -50.383 215.76)" d="M0 0h306.14v246.91H0z"/></clipPath><clipPath id="cX"><path transform="matrix(1 0 0 -1 -179.22 201.92)" d="M0 0h306.14v246.91H0z"/></clipPath><clipPath id="cY"><path transform="matrix(1 0 0 -1 -171.51 201.92)" d="M0 0h306.14v246.91H0z"/></clipPath><clipPath id="cZ"><path transform="matrix(1 0 0 -1 -166.92 198.07)" d="M0 0h306.14v246.91H0z"/></clipPath><clipPath id="da"><path transform="matrix(1 0 0 -1 -166.53 202.3)" d="M0 0h306.14v246.91H0z"/></clipPath><clipPath id="db"><path transform="matrix(1 0 0 -1 -162.3 200.38)" d="M0 0h306.14v246.91H0z"/></clipPath><clipPath id="dc"><path transform="matrix(1 0 0 -1 -162.11 203.68)" d="M0 0h306.14v246.91H0z"/></clipPath><clipPath id="dd"><path transform="matrix(1 0 0 -1 -154.61 201.92)" d="M0 0h306.14v246.91H0z"/></clipPath><clipPath id="de"><path transform="matrix(1 0 0 -1 -146.92 201.92)" d="M0 0h306.14v246.91H0z"/></clipPath><clipPath id="df"><path transform="matrix(1 0 0 -1 -140.76 200.38)" d="M0 0h306.14v246.91H0z"/></clipPath><clipPath id="dg"><path transform="matrix(1 0 0 -1 -140.57 203.68)" d="M0 0h306.14v246.91H0z"/></clipPath><clipPath id="dh"><path transform="matrix(1 0 0 -1 -128.07 201.92)" d="M0 0h306.14v246.91H0z"/></clipPath><clipPath id="di"><path transform="matrix(1 0 0 -1 -125.76 199.22)" d="M0 0h306.14v246.91H0z"/></clipPath><clipPath id="dj"><path transform="matrix(1 0 0 -1 -125 204.61)" d="M0 0h306.14v246.91H0z"/></clipPath><clipPath id="dk"><path transform="matrix(1 0 0 -1 -119.61 201.92)" d="M0 0h306.14v246.91H0z"/></clipPath><clipPath id="dl"><path transform="matrix(1 0 0 -1 -119.61 205.84)" d="M0 0h306.14v246.91H0z"/></clipPath><clipPath id="dm"><path transform="matrix(1 0 0 -1 -113.07 206.15)" d="M0 0h306.14v246.91H0z"/></clipPath><clipPath id="dn"><path transform="matrix(1 0 0 -1 -112.69 201.92)" d="M0 0h306.14v246.91H0z"/></clipPath><clipPath id="do"><path transform="matrix(1 0 0 -1 -106.92 201.92)" d="M0 0h306.14v246.91H0z"/></clipPath><clipPath id="dp"><path transform="matrix(1 0 0 -1 -96.15 201.92)" d="M0 0h306.14v246.91H0z"/></clipPath><clipPath id="dq"><path transform="matrix(1 0 0 -1 -89.612 201.92)" d="M0 0h306.14v246.91H0z"/></clipPath><clipPath id="dr"><path transform="matrix(1 0 0 -1 -89.419 206.22)" d="M0 0h306.14v246.91H0z"/></clipPath><clipPath id="ds"><path transform="matrix(1 0 0 -1 -84.612 201.92)" d="M0 0h306.14v246.91H0z"/></clipPath><clipPath id="dt"><path transform="matrix(1 0 0 -1 -79.612 201.92)" d="M0 0h306.14v246.91H0z"/></clipPath><clipPath id="du"><path transform="matrix(1 0 0 -1 -79.42 206.22)" d="M0 0h306.14v246.91H0z"/></clipPath><clipPath id="dv"><path transform="matrix(1 0 0 -1 -73.459 201.92)" d="M0 0h306.14v246.91H0z"/></clipPath><clipPath id="dw"><path transform="matrix(1 0 0 -1 -73.266 206.22)" d="M0 0h306.14v246.91H0z"/></clipPath><clipPath id="dx"><path transform="matrix(1 0 0 -1 -62.69 201.92)" d="M0 0h306.14v246.91H0z"/></clipPath><clipPath id="dy"><path transform="matrix(1 0 0 -1 -50.383 201.92)" d="M0 0h306.14v246.91H0z"/></clipPath><clipPath id="dz"><path transform="matrix(1 0 0 -1 -84.612 58.075)" d="M0 0h306.14v246.91H0z"/></clipPath><clipPath id="dA"><path transform="rotate(-90 -124.5 391.5)" d="M20 516h247v306H20z"/></clipPath><clipPath id="dB"><path transform="rotate(-90 -124.5 391.5)" d="M20 516h247v306H20z"/></clipPath><clipPath id="dC"><path transform="rotate(-90 -124.5 391.5)" d="M20 516h247v306H20z"/></clipPath><clipPath id="dD"><path transform="matrix(1 0 0 -1 -84.612 44.614)" d="M0 0h306.14v246.91H0z"/></clipPath><clipPath id="dE"><path transform="rotate(-90 -124.5 391.5)" d="M20 516h247v306H20z"/></clipPath><clipPath id="dF"><path transform="rotate(-90 -124.5 391.5)" d="M20 516h247v306H20z"/></clipPath><clipPath id="dG"><path transform="rotate(-90 -124.5 391.5)" d="M20 516h247v306H20z"/></clipPath><clipPath id="dH"><path transform="matrix(1 0 0 -1 -41.152 236.14)" d="M0 0h306.14v246.91H0z"/></clipPath><clipPath id="dI"><path transform="rotate(-90 -124.5 391.5)" d="M20 516h247v306H20z"/></clipPath><clipPath id="dJ"><path transform="matrix(1 0 0 -1 -68.843 236.14)" d="M0 0h306.14v246.91H0z"/></clipPath><clipPath id="dK"><path transform="rotate(-90 -124.5 391.5)" d="M20 516h247v306H20z"/></clipPath><clipPath id="dL"><path transform="matrix(1 0 0 -1 -252.71 236.14)" d="M0 0h306.14v246.91H0z"/></clipPath><clipPath id="dM"><path transform="matrix(1 0 0 -1 -244.22 241.14)" d="M0 0h306.14v246.91H0z"/></clipPath><clipPath id="dN"><path transform="matrix(1 0 0 -1 -210.38 236.14)" d="M0 0h306.14v246.91H0z"/></clipPath><clipPath id="dO"><path transform="matrix(1 0 0 -1 -50.383 73.074)" d="M0 0h306.14v246.91H0z"/></clipPath></defs><g fill="none" stroke="#000" stroke-miterlimit="10" stroke-width=".5"><path transform="matrix(.25098 0 0 -.25098 0 61.967)" d="M41.329 33.333h254.1v198.76h-254.1z" clip-path="url(#a)"/><path transform="matrix(.25098 0 0 -.25098 0 61.967)" d="M41.329 33.333h254.1v198.76h-254.1z" clip-path="url(#b)"/><path transform="matrix(.25098 0 0 -.25098 0 61.967)" d="M41.329 33.333h254.1" clip-path="url(#c)"/></g><text transform="translate(69.851 61.007) scale(.25098)" clip-path="url(#d)" xml:space="preserve"><tspan x="0 3.9702258 13.901752" y="0" font-family="Helvetica" font-size="11.923">(m)</tspan></text><text transform="translate(67.861 61.487) scale(.25098)" clip-path="url(#e)" xml:space="preserve"><tspan x="0" y="0" font-family="Helvetica" font-size="8.461">0</tspan></text><path transform="translate(66.601 61.007) scale(.25098)" d="M4.727-5.339v.857H2.915c-.132 1.277-.198 2.154-.198 2.635 0 .375.07.651.215.824.14.165.317.247.527.247.164 0 .3-.053.411-.165.12-.107.206-.296.264-.56h.198c-.066.639-.21 1.08-.429 1.318-.21.239-.46.362-.757.362-.31 0-.569-.14-.774-.411-.198-.285-.297-.783-.297-1.5 0-.56.066-1.473.198-2.75h-.544c-.309 0-.556.062-.741.181-.177.111-.354.325-.527.643H.247c.271-.746.519-1.211.74-1.4.232-.186.549-.28.956-.28z" clip-path="url(#f)" aria-label="τ"/><text transform="translate(65.151 61.007) scale(.25098)" clip-path="url(#g)" xml:space="preserve"><tspan x="0" y="0" font-family="Helvetica" font-size="11.923">c</tspan></text><g fill="none" stroke="#000" stroke-miterlimit="10" stroke-width=".5"><path transform="matrix(.25098 0 0 -.25098 0 61.967)" d="M43.12 35.432v-2.099" clip-path="url(#h)"/><path transform="matrix(.25098 0 0 -.25098 0 61.967)" d="M45.422 35.432v-2.099" clip-path="url(#i)"/><path transform="matrix(.25098 0 0 -.25098 0 61.967)" d="M47.453 35.432v-2.099" clip-path="url(#j)"/><path transform="matrix(.25098 0 0 -.25098 0 61.967)" d="M49.27 37.531v-4.197" clip-path="url(#k)"/></g><text transform="translate(13.707 56.277) scale(.25098)" clip-path="url(#l)" xml:space="preserve"><tspan x="0" y="0" font-family="Helvetica" font-size="6.923">5</tspan></text><path transform="translate(12.741 56.277) scale(.25098)" d="M.13-1.944h3.542v.33H.13z" clip-path="url(#m)" aria-label="−"/><text transform="translate(9.942 57.527) scale(.25098)" clip-path="url(#n)" xml:space="preserve"><tspan x="0 5.7736154" y="0" font-family="Helvetica" font-size="10.384">10</tspan></text><g fill="none" stroke="#000" stroke-miterlimit="10" stroke-width=".5"><path transform="matrix(.25098 0 0 -.25098 0 61.967)" d="M61.221 35.432v-2.099" clip-path="url(#o)"/><path transform="matrix(.25098 0 0 -.25098 0 61.967)" d="M68.213 35.432v-2.099" clip-path="url(#p)"/><path transform="matrix(.25098 0 0 -.25098 0 61.967)" d="M73.173 35.432v-2.099" clip-path="url(#q)"/><path transform="matrix(.25098 0 0 -.25098 0 61.967)" d="M77.021 35.432v-2.099" clip-path="url(#r)"/><path transform="matrix(.25098 0 0 -.25098 0 61.967)" d="M80.164 35.432v-2.099" clip-path="url(#s)"/><path transform="matrix(.25098 0 0 -.25098 0 61.967)" d="M82.822 35.432v-2.099" clip-path="url(#t)"/><path transform="matrix(.25098 0 0 -.25098 0 61.967)" d="M85.125 35.432v-2.099" clip-path="url(#u)"/><path transform="matrix(.25098 0 0 -.25098 0 61.967)" d="M87.156 35.432v-2.099" clip-path="url(#v)"/><path transform="matrix(.25098 0 0 -.25098 0 61.967)" d="M88.972 37.531v-4.197" clip-path="url(#w)"/></g><text transform="translate(23.651 56.367) scale(.25098)" clip-path="url(#x)" xml:space="preserve"><tspan x="0" y="0" font-family="Helvetica" font-size="6.923">4</tspan></text><path transform="translate(22.681 56.367) scale(.25098)" d="M.131-1.945h3.542v.329H.13z" clip-path="url(#y)" aria-label="−"/><text transform="translate(19.881 57.527) scale(.25098)" clip-path="url(#z)" xml:space="preserve"><tspan x="0 5.7736154" y="0" font-family="Helvetica" font-size="10.384">10</tspan></text><g fill="none" stroke="#000" stroke-miterlimit="10" stroke-width=".5"><path transform="matrix(.25098 0 0 -.25098 0 61.967)" d="M100.92 35.432v-2.099" clip-path="url(#A)"/><path transform="matrix(.25098 0 0 -.25098 0 61.967)" d="M107.92 35.432v-2.099" clip-path="url(#B)"/><path transform="matrix(.25098 0 0 -.25098 0 61.967)" d="M112.88 35.432v-2.099" clip-path="url(#C)"/><path transform="matrix(.25098 0 0 -.25098 0 61.967)" d="M116.72 35.432v-2.099" clip-path="url(#D)"/><path transform="matrix(.25098 0 0 -.25098 0 61.967)" d="M119.87 35.432v-2.099" clip-path="url(#E)"/><path transform="matrix(.25098 0 0 -.25098 0 61.967)" d="M122.52 35.432v-2.099" clip-path="url(#F)"/><path transform="matrix(.25098 0 0 -.25098 0 61.967)" d="M124.83 35.432v-2.099" clip-path="url(#G)"/><path transform="matrix(.25098 0 0 -.25098 0 61.967)" d="M126.86 35.432v-2.099" clip-path="url(#H)"/><path transform="matrix(.25098 0 0 -.25098 0 61.967)" d="M128.68 37.531v-4.197" clip-path="url(#I)"/></g><text transform="translate(33.591 56.277) scale(.25098)" clip-path="url(#J)" xml:space="preserve"><tspan x="0" y="0" font-family="Helvetica" font-size="6.923">3</tspan></text><path transform="translate(32.621 56.277) scale(.25098)" d="M.132-1.944h3.542v.33H.132z" clip-path="url(#K)" aria-label="−"/><text transform="translate(29.831 57.527) scale(.25098)" clip-path="url(#L)" xml:space="preserve"><tspan x="0 5.7736154" y="0" font-family="Helvetica" font-size="10.384">10</tspan></text><g fill="none" stroke="#000" stroke-miterlimit="10" stroke-width=".5"><path transform="matrix(.25098 0 0 -.25098 0 61.967)" d="M140.63 35.432v-2.099" clip-path="url(#M)"/><path transform="matrix(.25098 0 0 -.25098 0 61.967)" d="M147.62 35.432v-2.099" clip-path="url(#N)"/><path transform="matrix(.25098 0 0 -.25098 0 61.967)" d="M152.58 35.432v-2.099" clip-path="url(#O)"/><path transform="matrix(.25098 0 0 -.25098 0 61.967)" d="M156.43 35.432v-2.099" clip-path="url(#P)"/><path transform="matrix(.25098 0 0 -.25098 0 61.967)" d="M159.57 35.432v-2.099" clip-path="url(#Q)"/><path transform="matrix(.25098 0 0 -.25098 0 61.967)" d="M162.23 35.432v-2.099" clip-path="url(#R)"/><path transform="matrix(.25098 0 0 -.25098 0 61.967)" d="M164.53 35.432v-2.099" clip-path="url(#S)"/><path transform="matrix(.25098 0 0 -.25098 0 61.967)" d="M166.56 35.432v-2.099" clip-path="url(#T)"/><path transform="matrix(.25098 0 0 -.25098 0 61.967)" d="M168.38 37.531v-4.197" clip-path="url(#U)"/></g><text transform="translate(43.531 56.367) scale(.25098)" clip-path="url(#V)" xml:space="preserve"><tspan x="0" y="0" font-family="Helvetica" font-size="6.923">2</tspan></text><path transform="translate(42.571 56.367) scale(.25098)" d="M.133-1.945h3.541v.329H.133z" clip-path="url(#W)" aria-label="−"/><text transform="translate(39.771 57.527) scale(.25098)" clip-path="url(#X)" xml:space="preserve"><tspan x="0 5.7736154" y="0" font-family="Helvetica" font-size="10.384">10</tspan></text><g fill="none" stroke="#000" stroke-miterlimit="10" stroke-width=".5"><path transform="matrix(.25098 0 0 -.25098 0 61.967)" d="M180.33 35.432v-2.099" clip-path="url(#Y)"/><path transform="matrix(.25098 0 0 -.25098 0 61.967)" d="M187.32 35.432v-2.099" clip-path="url(#Z)"/><path transform="matrix(.25098 0 0 -.25098 0 61.967)" d="M192.28 35.432v-2.099" clip-path="url(#aa)"/><path transform="matrix(.25098 0 0 -.25098 0 61.967)" d="M196.13 35.432v-2.099" clip-path="url(#ab)"/><path transform="matrix(.25098 0 0 -.25098 0 61.967)" d="M199.27 35.432v-2.099" clip-path="url(#ac)"/><path transform="matrix(.25098 0 0 -.25098 0 61.967)" d="M201.93 35.432v-2.099" clip-path="url(#ad)"/><path transform="matrix(.25098 0 0 -.25098 0 61.967)" d="M204.23 35.432v-2.099" clip-path="url(#ae)"/><path transform="matrix(.25098 0 0 -.25098 0 61.967)" d="M206.26 35.432v-2.099" clip-path="url(#af)"/><path transform="matrix(.25098 0 0 -.25098 0 61.967)" d="M208.08 37.531v-4.197" clip-path="url(#ag)"/></g><text transform="translate(53.671 56.367) scale(.25098)" clip-path="url(#ah)" xml:space="preserve"><tspan x="0" y="0" font-family="Helvetica" font-size="6.923">1</tspan></text><path transform="translate(52.801 56.367) scale(.25098)" d="M.13-1.945H3.67v.329H.13z" clip-path="url(#ai)" aria-label="−"/><text transform="translate(50.001 57.527) scale(.25098)" clip-path="url(#aj)" xml:space="preserve"><tspan x="0 5.7736154" y="0" font-family="Helvetica" font-size="10.384">10</tspan></text><g fill="none" stroke="#000" stroke-miterlimit="10" stroke-width=".5"><path transform="matrix(.25098 0 0 -.25098 0 61.967)" d="M220.03 35.432v-2.099" clip-path="url(#ak)"/><path transform="matrix(.25098 0 0 -.25098 0 61.967)" d="M227.02 35.432v-2.099" clip-path="url(#al)"/><path transform="matrix(.25098 0 0 -.25098 0 61.967)" d="M231.98 35.432v-2.099" clip-path="url(#am)"/><path transform="matrix(.25098 0 0 -.25098 0 61.967)" d="M235.83 35.432v-2.099" clip-path="url(#an)"/><path transform="matrix(.25098 0 0 -.25098 0 61.967)" d="M238.98 35.432v-2.099" clip-path="url(#ao)"/><path transform="matrix(.25098 0 0 -.25098 0 61.967)" d="M241.63 35.432v-2.099" clip-path="url(#ap)"/><path transform="matrix(.25098 0 0 -.25098 0 61.967)" d="M243.94 35.432v-2.099" clip-path="url(#aq)"/><path transform="matrix(.25098 0 0 -.25098 0 61.967)" d="M245.97 35.432v-2.099" clip-path="url(#ar)"/><path transform="matrix(.25098 0 0 -.25098 0 61.967)" d="M247.78 37.531v-4.197" clip-path="url(#as)"/></g><text transform="translate(61.701 57.567) scale(.25098)" clip-path="url(#at)" xml:space="preserve"><tspan x="0" y="0" font-family="Helvetica" font-size="10.384">1</tspan></text><g fill="none" stroke="#000" stroke-miterlimit="10" stroke-width=".5"><path transform="matrix(.25098 0 0 -.25098 0 61.967)" d="M259.74 35.432v-2.099" clip-path="url(#au)"/><path transform="matrix(.25098 0 0 -.25098 0 61.967)" d="M266.73 35.432v-2.099" clip-path="url(#av)"/><path transform="matrix(.25098 0 0 -.25098 0 61.967)" d="M271.69 35.432v-2.099" clip-path="url(#aw)"/><path transform="matrix(.25098 0 0 -.25098 0 61.967)" d="M275.54 35.432v-2.099" clip-path="url(#ax)"/><path transform="matrix(.25098 0 0 -.25098 0 61.967)" d="M278.68 35.432v-2.099" clip-path="url(#ay)"/><path transform="matrix(.25098 0 0 -.25098 0 61.967)" d="M281.34 35.432v-2.099" clip-path="url(#az)"/><path transform="matrix(.25098 0 0 -.25098 0 61.967)" d="M283.64 35.432v-2.099" clip-path="url(#aA)"/><path transform="matrix(.25098 0 0 -.25098 0 61.967)" d="M285.67 35.432v-2.099" clip-path="url(#aB)"/><path transform="matrix(.25098 0 0 -.25098 0 61.967)" d="M287.49 37.531v-4.197" clip-path="url(#aC)"/></g><text transform="translate(70.751 57.567) scale(.25098)" clip-path="url(#aD)" xml:space="preserve"><tspan x="0 5.7736154" y="0" font-family="Helvetica" font-size="10.384">10</tspan></text><g fill="none" stroke="#000" stroke-miterlimit="10" stroke-width=".5"><path transform="matrix(.25098 0 0 -.25098 0 61.967)" d="M41.329 232.1h254.1" clip-path="url(#aE)"/><path transform="matrix(.25098 0 0 -.25098 0 61.967)" d="M43.12 230v2.099" clip-path="url(#aF)"/><path transform="matrix(.25098 0 0 -.25098 0 61.967)" d="M45.422 230v2.099" clip-path="url(#aG)"/><path transform="matrix(.25098 0 0 -.25098 0 61.967)" d="M47.453 230v2.099" clip-path="url(#aH)"/><path transform="matrix(.25098 0 0 -.25098 0 61.967)" d="M49.27 227.9v4.198" clip-path="url(#aI)"/><path transform="matrix(.25098 0 0 -.25098 0 61.967)" d="M61.221 230v2.099" clip-path="url(#aJ)"/><path transform="matrix(.25098 0 0 -.25098 0 61.967)" d="M68.213 230v2.099" clip-path="url(#aK)"/><path transform="matrix(.25098 0 0 -.25098 0 61.967)" d="M73.173 230v2.099" clip-path="url(#aL)"/><path transform="matrix(.25098 0 0 -.25098 0 61.967)" d="M77.021 230v2.099" clip-path="url(#aM)"/><path transform="matrix(.25098 0 0 -.25098 0 61.967)" d="M80.164 230v2.099" clip-path="url(#aN)"/><path transform="matrix(.25098 0 0 -.25098 0 61.967)" d="M82.822 230v2.099" clip-path="url(#aO)"/><path transform="matrix(.25098 0 0 -.25098 0 61.967)" d="M85.125 230v2.099" clip-path="url(#aP)"/><path transform="matrix(.25098 0 0 -.25098 0 61.967)" d="M87.156 230v2.099" clip-path="url(#aQ)"/><path transform="matrix(.25098 0 0 -.25098 0 61.967)" d="M88.972 227.9v4.198" clip-path="url(#aR)"/><path transform="matrix(.25098 0 0 -.25098 0 61.967)" d="M100.92 230v2.099" clip-path="url(#aS)"/><path transform="matrix(.25098 0 0 -.25098 0 61.967)" d="M107.92 230v2.099" clip-path="url(#aT)"/><path transform="matrix(.25098 0 0 -.25098 0 61.967)" d="M112.88 230v2.099" clip-path="url(#aU)"/><path transform="matrix(.25098 0 0 -.25098 0 61.967)" d="M116.72 230v2.099" clip-path="url(#aV)"/><path transform="matrix(.25098 0 0 -.25098 0 61.967)" d="M119.87 230v2.099" clip-path="url(#aW)"/><path transform="matrix(.25098 0 0 -.25098 0 61.967)" d="M122.52 230v2.099" clip-path="url(#aX)"/><path transform="matrix(.25098 0 0 -.25098 0 61.967)" d="M124.83 230v2.099" clip-path="url(#aY)"/><path transform="matrix(.25098 0 0 -.25098 0 61.967)" d="M126.86 230v2.099" clip-path="url(#aZ)"/><path transform="matrix(.25098 0 0 -.25098 0 61.967)" d="M128.68 227.9v4.198" clip-path="url(#ba)"/><path transform="matrix(.25098 0 0 -.25098 0 61.967)" d="M140.63 230v2.099" clip-path="url(#bb)"/><path transform="matrix(.25098 0 0 -.25098 0 61.967)" d="M147.62 230v2.099" clip-path="url(#bc)"/><path transform="matrix(.25098 0 0 -.25098 0 61.967)" d="M152.58 230v2.099" clip-path="url(#bd)"/><path transform="matrix(.25098 0 0 -.25098 0 61.967)" d="M156.43 230v2.099" clip-path="url(#be)"/><path transform="matrix(.25098 0 0 -.25098 0 61.967)" d="M159.57 230v2.099" clip-path="url(#bf)"/><path transform="matrix(.25098 0 0 -.25098 0 61.967)" d="M162.23 230v2.099" clip-path="url(#bg)"/><path transform="matrix(.25098 0 0 -.25098 0 61.967)" d="M164.53 230v2.099" clip-path="url(#bh)"/><path transform="matrix(.25098 0 0 -.25098 0 61.967)" d="M166.56 230v2.099" clip-path="url(#bi)"/><path transform="matrix(.25098 0 0 -.25098 0 61.967)" d="M168.38 227.9v4.198" clip-path="url(#bj)"/><path transform="matrix(.25098 0 0 -.25098 0 61.967)" d="M180.33 230v2.099" clip-path="url(#bk)"/><path transform="matrix(.25098 0 0 -.25098 0 61.967)" d="M187.32 230v2.099" clip-path="url(#bl)"/><path transform="matrix(.25098 0 0 -.25098 0 61.967)" d="M192.28 230v2.099" clip-path="url(#bm)"/><path transform="matrix(.25098 0 0 -.25098 0 61.967)" d="M196.13 230v2.099" clip-path="url(#bn)"/><path transform="matrix(.25098 0 0 -.25098 0 61.967)" d="M199.27 230v2.099" clip-path="url(#bo)"/><path transform="matrix(.25098 0 0 -.25098 0 61.967)" d="M201.93 230v2.099" clip-path="url(#bp)"/><path transform="matrix(.25098 0 0 -.25098 0 61.967)" d="M204.23 230v2.099" clip-path="url(#bq)"/><path transform="matrix(.25098 0 0 -.25098 0 61.967)" d="M206.26 230v2.099" clip-path="url(#br)"/><path transform="matrix(.25098 0 0 -.25098 0 61.967)" d="M208.08 227.9v4.198" clip-path="url(#bs)"/><path transform="matrix(.25098 0 0 -.25098 0 61.967)" d="M220.03 230v2.099" clip-path="url(#bt)"/><path transform="matrix(.25098 0 0 -.25098 0 61.967)" d="M227.02 230v2.099" clip-path="url(#bu)"/><path transform="matrix(.25098 0 0 -.25098 0 61.967)" d="M231.98 230v2.099" clip-path="url(#bv)"/><path transform="matrix(.25098 0 0 -.25098 0 61.967)" d="M235.83 230v2.099" clip-path="url(#bw)"/><path transform="matrix(.25098 0 0 -.25098 0 61.967)" d="M238.98 230v2.099" clip-path="url(#bx)"/><path transform="matrix(.25098 0 0 -.25098 0 61.967)" d="M241.63 230v2.099" clip-path="url(#by)"/><path transform="matrix(.25098 0 0 -.25098 0 61.967)" d="M243.94 230v2.099" clip-path="url(#bz)"/><path transform="matrix(.25098 0 0 -.25098 0 61.967)" d="M245.97 230v2.099" clip-path="url(#bA)"/><path transform="matrix(.25098 0 0 -.25098 0 61.967)" d="M247.78 227.9v4.198" clip-path="url(#bB)"/><path transform="matrix(.25098 0 0 -.25098 0 61.967)" d="M259.74 230v2.099" clip-path="url(#bC)"/><path transform="matrix(.25098 0 0 -.25098 0 61.967)" d="M266.73 230v2.099" clip-path="url(#bD)"/><path transform="matrix(.25098 0 0 -.25098 0 61.967)" d="M271.69 230v2.099" clip-path="url(#bE)"/><path transform="matrix(.25098 0 0 -.25098 0 61.967)" d="M275.54 230v2.099" clip-path="url(#bF)"/><path transform="matrix(.25098 0 0 -.25098 0 61.967)" d="M278.68 230v2.099" clip-path="url(#bG)"/><path transform="matrix(.25098 0 0 -.25098 0 61.967)" d="M281.34 230v2.099" clip-path="url(#bH)"/><path transform="matrix(.25098 0 0 -.25098 0 61.967)" d="M283.64 230v2.099" clip-path="url(#bI)"/><path transform="matrix(.25098 0 0 -.25098 0 61.967)" d="M285.67 230v2.099" clip-path="url(#bJ)"/><path transform="matrix(.25098 0 0 -.25098 0 61.967)" d="M287.49 227.9v4.198" clip-path="url(#bK)"/><path transform="matrix(.25098 0 0 -.25098 0 61.967)" d="M41.329 33.333v198.77" clip-path="url(#bL)"/></g><text transform="rotate(-90 6.92 4.024) scale(.25098)" clip-path="url(#bM)" xml:space="preserve"><tspan x="0 3.9702258 11.254934 17.8839 25.836275" y="0" font-family="Helvetica" font-size="11.923">(TeV)</tspan></text><text transform="rotate(-90 8.253 4.778) scale(.25098)" clip-path="url(#bN)" xml:space="preserve"><tspan x="0" y="0" font-family="Helvetica" font-size="9.615">g</tspan></text><text transform="rotate(-90 7.669 5.314) scale(.25098)" clip-path="url(#bO)" xml:space="preserve"><tspan x="0" y="0" font-family="Helvetica" font-size="9.615">~</tspan></text><text transform="rotate(-90 9.315 6.419) scale(.25098)" clip-path="url(#bP)" xml:space="preserve"><tspan x="0" y="0" font-family="Helvetica" font-size="11.923">m</tspan></text><g fill="none" stroke="#000" stroke-miterlimit="10" stroke-width=".5"><path transform="matrix(.25098 0 0 -.25098 0 61.967)" d="M45.921 33.333h-4.592" clip-path="url(#bQ)"/><path transform="matrix(.25098 0 0 -.25098 0 61.967)" d="M43.625 42.798h-2.296" clip-path="url(#bR)"/><path transform="matrix(.25098 0 0 -.25098 0 61.967)" d="M43.625 52.263h-2.296" clip-path="url(#bS)"/><path transform="matrix(.25098 0 0 -.25098 0 61.967)" d="M43.625 61.728h-2.296" clip-path="url(#bT)"/><path transform="matrix(.25098 0 0 -.25098 0 61.967)" d="M43.625 71.193h-2.296" clip-path="url(#bU)"/><path transform="matrix(.25098 0 0 -.25098 0 61.967)" d="M45.921 80.658h-4.592" clip-path="url(#bV)"/><path transform="matrix(.25098 0 0 -.25098 0 61.967)" d="M43.625 90.123h-2.296" clip-path="url(#bW)"/><path transform="matrix(.25098 0 0 -.25098 0 61.967)" d="M43.625 99.588h-2.296" clip-path="url(#bX)"/><path transform="matrix(.25098 0 0 -.25098 0 61.967)" d="M43.625 109.05h-2.296" clip-path="url(#bY)"/><path transform="matrix(.25098 0 0 -.25098 0 61.967)" d="M43.625 118.52h-2.296" clip-path="url(#bZ)"/><path transform="matrix(.25098 0 0 -.25098 0 61.967)" d="M45.921 127.98h-4.592" clip-path="url(#ca)"/><path transform="matrix(.25098 0 0 -.25098 0 61.967)" d="M43.625 137.45h-2.296" clip-path="url(#cb)"/><path transform="matrix(.25098 0 0 -.25098 0 61.967)" d="M43.625 146.91h-2.296" clip-path="url(#cc)"/><path transform="matrix(.25098 0 0 -.25098 0 61.967)" d="M43.625 156.38h-2.296" clip-path="url(#cd)"/><path transform="matrix(.25098 0 0 -.25098 0 61.967)" d="M43.625 165.84h-2.296" clip-path="url(#ce)"/><path transform="matrix(.25098 0 0 -.25098 0 61.967)" d="M45.921 175.31h-4.592" clip-path="url(#cf)"/><path transform="matrix(.25098 0 0 -.25098 0 61.967)" d="M43.625 184.77h-2.296" clip-path="url(#cg)"/><path transform="matrix(.25098 0 0 -.25098 0 61.967)" d="M43.625 194.24h-2.296" clip-path="url(#ch)"/><path transform="matrix(.25098 0 0 -.25098 0 61.967)" d="M43.625 203.7h-2.296" clip-path="url(#ci)"/><path transform="matrix(.25098 0 0 -.25098 0 61.967)" d="M43.625 213.17h-2.296" clip-path="url(#cj)"/><path transform="matrix(.25098 0 0 -.25098 0 61.967)" d="M45.921 222.63h-4.592" clip-path="url(#ck)"/><path transform="matrix(.25098 0 0 -.25098 0 61.967)" d="M45.921 222.63h-4.592" clip-path="url(#cl)"/><path transform="matrix(.25098 0 0 -.25098 0 61.967)" d="M43.625 232.1h-2.296" clip-path="url(#cm)"/></g><text transform="translate(8.011 54.537) scale(.25098)" clip-path="url(#cn)" xml:space="preserve"><tspan x="0" y="0" font-family="Helvetica" font-size="10.384">0</tspan></text><text transform="translate(5.791 42.665) scale(.25098)" clip-path="url(#co)" xml:space="preserve"><tspan x="0 5.7736154 8.6604223" y="0" font-family="Helvetica" font-size="10.384">0.5</tspan></text><text transform="translate(8.398 30.889) scale(.25098)" clip-path="url(#cp)" xml:space="preserve"><tspan x="0" y="0" font-family="Helvetica" font-size="10.384">1</tspan></text><text transform="translate(5.791 18.919) scale(.25098)" clip-path="url(#cq)" xml:space="preserve"><tspan x="0 5.7736154 8.6604223" y="0" font-family="Helvetica" font-size="10.384">1.5</tspan></text><text transform="translate(8.011 7.143) scale(.25098)" clip-path="url(#cr)" xml:space="preserve"><tspan x="0" y="0" font-family="Helvetica" font-size="10.384">2</tspan></text><g fill="none" stroke="#000" stroke-miterlimit="10" stroke-width=".5"><path transform="matrix(.25098 0 0 -.25098 0 61.967)" d="M295.43 33.333v198.77" clip-path="url(#cs)"/><path transform="matrix(.25098 0 0 -.25098 0 61.967)" d="M290.84 33.333h4.592" clip-path="url(#ct)"/><path transform="matrix(.25098 0 0 -.25098 0 61.967)" d="M293.13 42.798h2.296" clip-path="url(#cu)"/><path transform="matrix(.25098 0 0 -.25098 0 61.967)" d="M293.13 52.263h2.296" clip-path="url(#cv)"/><path transform="matrix(.25098 0 0 -.25098 0 61.967)" d="M293.13 61.728h2.296" clip-path="url(#cw)"/><path transform="matrix(.25098 0 0 -.25098 0 61.967)" d="M293.13 71.193h2.296" clip-path="url(#cx)"/><path transform="matrix(.25098 0 0 -.25098 0 61.967)" d="M290.84 80.658h4.592" clip-path="url(#cy)"/><path transform="matrix(.25098 0 0 -.25098 0 61.967)" d="M293.13 90.123h2.296" clip-path="url(#cz)"/><path transform="matrix(.25098 0 0 -.25098 0 61.967)" d="M293.13 99.588h2.296" clip-path="url(#cA)"/><path transform="matrix(.25098 0 0 -.25098 0 61.967)" d="M293.13 109.05h2.296" clip-path="url(#cB)"/><path transform="matrix(.25098 0 0 -.25098 0 61.967)" d="M293.13 118.52h2.296" clip-path="url(#cC)"/><path transform="matrix(.25098 0 0 -.25098 0 61.967)" d="M290.84 127.98h4.592" clip-path="url(#cD)"/><path transform="matrix(.25098 0 0 -.25098 0 61.967)" d="M293.13 137.45h2.296" clip-path="url(#cE)"/><path transform="matrix(.25098 0 0 -.25098 0 61.967)" d="M293.13 146.91h2.296" clip-path="url(#cF)"/><path transform="matrix(.25098 0 0 -.25098 0 61.967)" d="M293.13 156.38h2.296" clip-path="url(#cG)"/><path transform="matrix(.25098 0 0 -.25098 0 61.967)" d="M293.13 165.84h2.296" clip-path="url(#cH)"/><path transform="matrix(.25098 0 0 -.25098 0 61.967)" d="M290.84 175.31h4.592" clip-path="url(#cI)"/><path transform="matrix(.25098 0 0 -.25098 0 61.967)" d="M293.13 184.77h2.296" clip-path="url(#cJ)"/><path transform="matrix(.25098 0 0 -.25098 0 61.967)" d="M293.13 194.24h2.296" clip-path="url(#cK)"/><path transform="matrix(.25098 0 0 -.25098 0 61.967)" d="M293.13 203.7h2.296" clip-path="url(#cL)"/><path transform="matrix(.25098 0 0 -.25098 0 61.967)" d="M293.13 213.17h2.296" clip-path="url(#cM)"/><path transform="matrix(.25098 0 0 -.25098 0 61.967)" d="M290.84 222.63h4.592" clip-path="url(#cN)"/><path transform="matrix(.25098 0 0 -.25098 0 61.967)" d="M290.84 222.63h4.592" clip-path="url(#cO)"/><path transform="matrix(.25098 0 0 -.25098 0 61.967)" d="M293.13 232.1h2.296" clip-path="url(#cP)"/></g><path transform="matrix(.25098 0 0 -.25098 0 61.967)" d="m49.27 92.207 4.862 1.82 4.861 2.575 4.862 3.232 4.861 3.79 4.862 4.253 4.861 4.616 4.862 4.882 4.862 5.052 9.723 10.252 4.861 5.058 4.861 4.922 4.862 4.72 4.862 4.452 4.861 4.114 4.862 3.71 4.861 3.245 4.862 2.778 4.861 2.349 4.862 1.958 4.861 1.606 4.862 1.293 4.862 1.019 4.861.783 4.862.584 4.861.409 4.862.237 4.861.07 4.862-.092 4.862-.25 4.861-.402 4.862-.551 4.861-.696 4.862-.846 4.861-1.02 4.862-1.212 4.861-1.433 4.862-1.674 4.862-1.94 4.861-2.227 4.862-2.54 4.861-2.875 4.862-3.237 4.861-3.625 4.862-4.04 4.862-4.48 4.861-4.946 4.862-5.44 4.861-5.961v15.536l-4.86 5.92-4.863 5.299-4.86 4.715-4.863 4.168-4.862 3.658-4.86 3.185-4.863 2.748-4.86 2.349-4.863 1.986-4.86 1.657-4.863 1.363-4.862 1.102-4.86.874-4.863.682-4.86.522-4.863.395-4.86.303-4.863.22-4.86.139-4.863.056-4.862-.028-4.86-.113-4.863-.198-4.86-.284-4.863-.372-4.86-.488-4.863-.66-4.862-.884-4.86-1.168-4.863-1.504-4.86-1.898-4.863-2.347-4.86-2.851-4.863-3.362-4.86-3.81-4.863-4.184-4.862-4.49-4.86-4.725-4.862-4.887-4.862-4.981-4.861-5.002-4.862-4.943-4.862-4.78-4.861-4.507-4.862-4.128-4.861-3.641-4.862-3.044-4.861-2.341-4.862-1.53" clip-path="url(#cQ)" fill="#f2e4d9" fill-rule="evenodd"/><path transform="matrix(.25098 0 0 -.25098 0 61.967)" d="m49.27 100.54 4.862.951 4.861 1.794 4.862 2.535 4.861 3.175 4.862 3.713 4.861 4.151 4.862 4.489 4.862 4.723 4.861 4.861 4.862 4.92 4.861 4.908 4.861 4.826 4.862 4.672 4.862 4.448 4.861 4.154 4.862 3.789 4.861 3.358 4.862 2.921 4.861 2.518 4.862 2.146 4.861 1.808 4.862 1.503 4.862 1.231 4.861.993 4.862.786 4.861.594 4.862.401 4.861.203 4.862.003 4.862-.202 4.861-.408 4.862-.619 4.861-.832 4.862-1.049 4.861-1.266 4.862-1.485 4.861-1.705 4.862-1.926 4.862-2.148 4.861-2.371 4.862-2.596 4.861-2.82 4.862-3.042 4.861-3.259 4.862-3.472 4.862-3.681 4.861-3.888 4.862-4.089 4.861-4.288" clip-path="url(#cR)" fill="none" stroke="#cf6416" stroke-miterlimit="10"/><path transform="matrix(.25098 0 0 -.25098 0 61.967)" d="M46.654 100.54c0 3.487 5.23 3.487 5.23 0s-5.23-3.487-5.23 0zm39.703 26.334c0 3.487 5.23 3.487 5.23 0s-5.23-3.487-5.23 0zm39.703 36.945c0 3.487 5.23 3.487 5.23 0s-5.23-3.487-5.23 0zm39.703 15.725c0 3.487 5.23 3.487 5.23 0s-5.23-3.487-5.23 0zm39.702-.19c0 3.487 5.231 3.487 5.231 0s-5.231-3.487-5.231 0zm39.703-14.399c0 3.487 5.231 3.487 5.231 0s-5.231-3.487-5.231 0zm39.703-28.987c0 3.487 5.231 3.487 5.231 0s-5.231-3.487-5.231 0z" clip-path="url(#cS)" fill="#cf6416"/><g stroke-miterlimit="10"><path transform="matrix(.25098 0 0 -.25098 0 61.967)" d="m49.27 136.79 39.703 2.839 39.703 10.223 39.703-2.651 39.703-10.316 39.702-7.005 39.703-1.325" clip-path="url(#cT)" fill="none" stroke="#b71414" stroke-dasharray="3, 3" stroke-width="1.5"/><path transform="matrix(.25098 0 0 -.25098 0 61.967)" d="M46.193 136.79c0 4.102 6.154 4.102 6.154 0 0-4.103-6.154-4.103-6.154 0zm39.703 2.839c0 4.103 6.154 4.103 6.154 0 0-4.102-6.154-4.102-6.154 0zm39.702 10.223c0 4.102 6.154 4.102 6.154 0 0-4.103-6.154-4.103-6.154 0zm39.703-2.651c0 4.103 6.154 4.103 6.154 0 0-4.102-6.154-4.102-6.154 0zm39.703-10.316c0 4.102 6.154 4.102 6.154 0 0-4.103-6.154-4.103-6.154 0zm39.703-7.005c0 4.103 6.153 4.103 6.153 0 0-4.102-6.153-4.102-6.153 0zm39.702-1.325c0 4.103 6.154 4.103 6.154 0 0-4.102-6.154-4.102-6.154 0z" clip-path="url(#cU)" fill="none" stroke="#b71414" stroke-width=".5"/><path transform="matrix(.25098 0 0 -.25098 0 61.967)" d="M50.513 195.06v27.16z" clip-path="url(#cV)" fill="#f2f2f2" fill-rule="evenodd" stroke="#f2f2f2" stroke-width=".002"/></g><text transform="translate(12.645 7.819) scale(.25098)" clip-path="url(#cW)" xml:space="preserve"><tspan x="0 6.4132051 11.759145 13.893675 16.028206 18.701176 21.374146 27.78735 34.729382 41.142586" y="0" font-family="Helvetica" font-size="9.615">Split SUSY</tspan></text><text transform="translate(44.981 11.294) scale(.25098)" clip-path="url(#cX)" xml:space="preserve"><tspan x="0 5.3459401 10.69188 16.037821 18.710791 26.191259 31.537201" y="0" font-family="Helvetica" font-size="9.615">100 GeV</tspan></text><text transform="translate(43.041 11.294) scale(.25098)" clip-path="url(#cY)" xml:space="preserve"><tspan x="0" y="0" font-family="Helvetica" font-size="9.615">=</tspan></text><text transform="translate(41.891 12.259) scale(.25098)" clip-path="url(#cZ)" xml:space="preserve"><tspan x="0" y="0" font-family="Helvetica" font-size="5">1</tspan></text><text transform="translate(41.791 11.197) scale(.25098)" clip-path="url(#da)" xml:space="preserve"><tspan x="0" y="0" font-family="Helvetica" font-size="5">0</tspan></text><path transform="translate(40.731 11.68) scale(.25098)" d="M3.624-3.443 2.224-.71l.247.955c.098.396.197.634.296.725a.509.509 0 0 0 .379.148.617.617 0 0 0 .445-.164c.12-.1.19-.272.214-.511h.132v.148c0 .317-.095.593-.28.824a.608.608 0 0 1-.495.247.655.655 0 0 1-.378-.115.815.815 0 0 1-.264-.33 3.236 3.236 0 0 1-.23-.593l-.231-.988L1.054 1.58H.395l1.433-2.817-.28-1.12c-.057-.24-.127-.4-.214-.478a.486.486 0 0 0-.346-.115.565.565 0 0 0-.412.164c-.098.112-.16.28-.18.511H.262c.009-.436.1-.766.264-.988a.563.563 0 0 1 .478-.247c.197 0 .35.074.46.214.12.144.207.337.264.576l.28 1.137.94-1.861z" clip-path="url(#db)" aria-label="χ"/><path transform="translate(40.681 10.85) scale(.25098)" d="M3.836-2.554h.198c-.058.408-.181.709-.379.906a.933.933 0 0 1-.675.297c-.132 0-.28-.025-.445-.083a5.13 5.13 0 0 1-.741-.362c-.33-.185-.585-.28-.758-.28a.648.648 0 0 0-.445.181c-.123.111-.197.28-.23.51H.196c.041-.403.165-.707.362-.905.198-.198.416-.297.66-.297.13 0 .283.033.46.1.132.045.396.172.791.378.297.157.535.23.725.23.164 0 .296-.049.395-.147a.905.905 0 0 0 .247-.528z" clip-path="url(#dc)" aria-label="∼"/><text transform="translate(38.801 11.294) scale(.25098)" clip-path="url(#dd)" xml:space="preserve"><tspan x="0" y="0" font-family="Helvetica" font-size="9.615">m</tspan></text><path transform="translate(36.871 11.294) scale(.25098)" d="M.18-2.7h4.925v.461H.18z" clip-path="url(#de)" aria-label="−"/><text transform="translate(35.331 11.68) scale(.25098)" clip-path="url(#df)" xml:space="preserve"><tspan x="0" y="0" font-family="Helvetica" font-size="7.692">g</tspan></text><text transform="translate(35.281 10.85) scale(.25098)" clip-path="url(#dg)" xml:space="preserve"><tspan x="0" y="0" font-family="Helvetica" font-size="7.692">~</tspan></text><text transform="translate(32.141 11.294) scale(.25098)" clip-path="url(#dh)" xml:space="preserve"><tspan x="0 2.6729701 5.3459401" y="0" font-family="Helvetica" font-size="9.615">, m</tspan></text><text transform="translate(31.561 11.969) scale(.25098)" clip-path="url(#di)" xml:space="preserve"><tspan x="0" y="0" font-family="Helvetica" font-size="6.154">1</tspan></text><text transform="translate(31.371 10.618) scale(.25098)" clip-path="url(#dj)" xml:space="preserve"><tspan x="0" y="0" font-family="Helvetica" font-size="6.154">0</tspan></text><path transform="translate(30.021 11.294) scale(.25098)" d="M4.545-4.298 2.783-.888 3.078.314c.132.482.255.783.379.906.12.132.28.198.478.198.238 0 .428-.074.56-.214.14-.132.222-.346.247-.643h.18v.181c0 .396-.123.742-.362 1.038a.74.74 0 0 1-.609.297.811.811 0 0 1-.478-.149 1.023 1.023 0 0 1-.33-.395 5.131 5.131 0 0 1-.28-.758L2.569-.444 1.316 1.994H.493l1.795-3.541-.346-1.4c-.078-.297-.173-.486-.28-.577-.098-.099-.243-.148-.428-.148a.689.689 0 0 0-.51.198c-.132.131-.21.341-.231.625H.328c.008-.547.12-.959.33-1.235a.715.715 0 0 1 .593-.296c.25 0 .448.09.593.263.14.177.247.412.313.708l.345 1.434 1.186-2.323z" clip-path="url(#dk)" aria-label="χ"/><path transform="translate(30.021 10.309) scale(.25098)" d="M4.809-3.196h.23c-.066.507-.222.886-.461 1.137a1.168 1.168 0 0 1-.857.362c-.156 0-.329-.033-.527-.099-.197-.065-.51-.214-.939-.444-.42-.24-.737-.363-.955-.363a.744.744 0 0 0-.543.23C.6-2.227.5-2.012.46-1.73H.246c.053-.502.202-.877.445-1.12.25-.251.53-.379.84-.379.152 0 .346.042.576.116.165.057.494.21.989.46.362.199.663.297.905.297a.64.64 0 0 0 .478-.18c.173-.166.284-.384.33-.66z" clip-path="url(#dl)" aria-label="∼"/><path transform="translate(28.381 10.232) scale(.25098)" d="M.18-2.702h4.925v.46H.18z" clip-path="url(#dm)" aria-label="−"/><text transform="translate(28.281 11.294) scale(.25098)" clip-path="url(#dn)" xml:space="preserve"><tspan x="0" y="0" font-family="Helvetica" font-size="9.615">q</tspan></text><text transform="translate(26.831 11.294) scale(.25098)" clip-path="url(#do)" xml:space="preserve"><tspan x="0" y="0" font-family="Helvetica" font-size="9.615">q</tspan></text><path transform="translate(24.131 11.294) scale(.25098)" d="M7.56-2.107H.346v-.445H7.56c-.453-.515-.766-.91-.939-1.186a7.155 7.155 0 0 1-.527-1.054h.38c.37.453.827.906 1.366 1.367.548.461.98.787 1.302.972v.263c-.42.231-.873.569-1.368 1.005-.494.429-.93.87-1.3 1.318h-.38c.186-.428.37-.782.56-1.07.186-.297.486-.684.906-1.17z" clip-path="url(#dp)" aria-label="→"/><text transform="translate(22.491 11.294) scale(.25098)" clip-path="url(#dq)" xml:space="preserve"><tspan x="0" y="0" font-family="Helvetica" font-size="9.615">g</tspan></text><text transform="translate(22.441 10.213) scale(.25098)" clip-path="url(#dr)" xml:space="preserve"><tspan x="0" y="0" font-family="Helvetica" font-size="9.615">~</tspan></text><text transform="translate(21.231 11.294) scale(.25098)" clip-path="url(#ds)" xml:space="preserve"><tspan x="0 2.6729701" y="0" font-family="Helvetica" font-size="9.615">, </tspan></text><text transform="translate(19.981 11.294) scale(.25098)" clip-path="url(#dt)" xml:space="preserve"><tspan x="0" y="0" font-family="Helvetica" font-size="9.615">g</tspan></text><text transform="translate(19.931 10.213) scale(.25098)" clip-path="url(#du)" xml:space="preserve"><tspan x="0" y="0" font-family="Helvetica" font-size="9.615">~</tspan></text><text transform="translate(18.436 11.294) scale(.25098)" clip-path="url(#dv)" xml:space="preserve"><tspan x="0" y="0" font-family="Helvetica" font-size="9.615">g</tspan></text><text transform="translate(18.388 10.213) scale(.25098)" clip-path="url(#dw)" xml:space="preserve"><tspan x="0" y="0" font-family="Helvetica" font-size="9.615">~</tspan></text><path transform="translate(15.734 11.294) scale(.25098)" d="M7.562-2.107H.347v-.445h7.215c-.453-.515-.766-.91-.939-1.186a7.155 7.155 0 0 1-.527-1.054h.379c.37.453.828.906 1.367 1.367.548.461.98.787 1.301.972v.263c-.42.231-.873.569-1.367 1.005-.494.429-.93.87-1.301 1.318h-.379c.185-.428.37-.782.56-1.07.185-.297.486-.684.906-1.17z" clip-path="url(#dx)" aria-label="→"/><text transform="translate(12.645 11.294) scale(.25098)" clip-path="url(#dy)" xml:space="preserve"><tspan x="0 5.3459401" y="0" font-family="Helvetica" font-size="9.615">pp</tspan></text><text transform="translate(21.231 47.395) scale(.25098)" clip-path="url(#dz)" xml:space="preserve"><tspan x="0 5.3459401 10.69188 17.105085 19.778055 21.912584 27.258526 29.931496 32.604465 35.277435 40.623375 45.969315 51.315254 56.661194" y="0" font-family="Helvetica" font-size="9.615">LLP jet tagger</tspan></text><path transform="matrix(.25098 0 0 -.25098 0 61.967)" d="M55.68 56.358h24.109v9.506H55.68" clip-path="url(#dA)" fill="#f2e4d9" fill-rule="evenodd"/><path transform="matrix(.25098 0 0 -.25098 0 61.967)" d="M55.68 61.111h24.109" clip-path="url(#dB)" fill="none" stroke="#cf6416" stroke-miterlimit="10"/><path transform="matrix(.25098 0 0 -.25098 0 61.967)" d="M65.119 61.111c0 3.487 5.23 3.487 5.23 0s-5.23-3.487-5.23 0z" clip-path="url(#dC)" fill="#cf6416"/><text transform="translate(21.231 50.773) scale(.25098)" clip-path="url(#dD)" xml:space="preserve"><tspan x="0 4.8074999 11.74953 18.162735 24.575939 27.248911 32.594849 37.940788 40.613762 43.815556 49.161495 54.507435 59.853374 65.199318 68.401108 71.074081 76.420021 81.765961" y="0" font-family="Helvetica" font-size="9.615">JHEP 05 (2018) 025</tspan></text><g stroke-miterlimit="10" fill="none" stroke="#b71414"><path transform="matrix(.25098 0 0 -.25098 0 61.967)" d="M55.68 47.531h24.109" clip-path="url(#dE)" stroke-dasharray="3, 3" stroke-width="1.5"/><path transform="matrix(.25098 0 0 -.25098 0 61.967)" d="M64.657 47.531c0 4.102 6.154 4.102 6.154 0s-6.154-4.102-6.154 0z" clip-path="url(#dF)" stroke-width=".5"/></g><text transform="translate(10.328 2.703) scale(.25098)" clip-path="url(#dH)" xml:space="preserve"><tspan x="0 8.0527544 17.343536" y="0" font-family="Helvetica" font-size="11.153" font-weight="700">CMS</tspan></text><text transform="translate(17.278 2.703) scale(.25098)" clip-path="url(#dJ)" xml:space="preserve"><tspan x="0 7.4393177 9.9153728 19.206154 25.407446 27.883499 34.084789 37.185436 39.661491 45.862782" y="0" font-family="Helvetica" font-size="11.153" font-style="oblique">Simulation</tspan></text><text transform="translate(63.421 2.703) scale(.25098)" clip-path="url(#dL)" xml:space="preserve"><tspan x="0 3.7140822 9.9153728 16.116663 19.217308 26.032036 32.233326 39.672646" y="0" font-family="Helvetica" font-size="11.153">(13 TeV)</tspan></text><text transform="translate(61.291 1.448) scale(.25098)" clip-path="url(#dM)" xml:space="preserve"><tspan x="0 2.5614359" y="0" font-family="Helvetica" font-size="7.692">-1</tspan></text><text transform="translate(52.801 2.703) scale(.25098)" clip-path="url(#dN)" xml:space="preserve"><tspan x="0 6.2012906 12.402581 15.503226 21.704515 24.805162 27.905807" y="0" font-family="Helvetica" font-size="11.153">35.9 fb</tspan></text><text transform="translate(12.645 43.63) scale(.25098)" clip-path="url(#dO)" xml:space="preserve"><tspan x="0 5.3459401 10.69188 19.239614 21.912584 28.854614 34.200554 36.873524 42.219463 47.026966 52.372906 57.718845 62.526344 65.199318 70.545258 75.891197 78.564163 80.698692 82.833221 90.842522 92.977051 95.650017" y="0" font-family="Helvetica" font-size="9.615">95% CL expected limits</tspan></text></svg>