<?xml version="1.0" encoding="UTF-8"?>
<svg width="76.8mm" height="234" version="1.1" viewBox="0 0 76.8 62" xmlns="http://www.w3.org/2000/svg">
<defs>
<clipPath id="eh">
<path transform="rotate(-90 -124 392)" d="M20 516h247v306H20z"/>
</clipPath>
<clipPath id="eg">
<path transform="rotate(-90 -124 392)" d="M20 516h247v306H20z"/>
</clipPath>
<clipPath id="ef">
<path transform="rotate(-90 -124 392)" d="M20 516h247v306H20z"/>
</clipPath>
<clipPath id="ee">
<path transform="matrix(1 0 0 -1 -278 3.85)" d="m0 0h306v247h-306z"/>
</clipPath>
<clipPath id="e">
<path transform="matrix(1 0 0 -1 -270 1.92)" d="m0 0h306v247h-306z"/>
</clipPath>
<clipPath id="f">
<path transform="matrix(1 0 0 -1 -265 3.85)" d="m0 0h306v247h-306z"/>
</clipPath>
<clipPath id="g">
<path transform="matrix(1 0 0 -1 -260 3.85)" d="m0 0h306v247h-306z"/>
</clipPath>
<clipPath id="h">
<path transform="rotate(-90 -124 392)" d="M20 516h247v306H20z"/>
</clipPath>
<clipPath id="i">
<path transform="rotate(-90 -124 392)" d="M20 516h247v306H20z"/>
</clipPath>
<clipPath id="j">
<path transform="rotate(-90 -124 392)" d="M20 516h247v306H20z"/>
</clipPath>
<clipPath id="k">
<path transform="rotate(-90 -124 392)" d="M20 516h247v306H20z"/>
</clipPath>
<clipPath id="l">
<path transform="matrix(1 0 0 -1 -54.6 22.7)" d="m0 0h306v247h-306z"/>
</clipPath>
<clipPath id="m">
<path transform="matrix(1 0 0 -1 -50.8 22.7)" d="m0 0h306v247h-306z"/>
</clipPath>
<clipPath id="n">
<path transform="matrix(1 0 0 -1 -39.6 17.7)" d="m0 0h306v247h-306z"/>
</clipPath>
<clipPath id="o">
<path transform="rotate(-90 -124 392)" d="M20 516h247v306H20z"/>
</clipPath>
<clipPath id="p">
<path transform="rotate(-90 -124 392)" d="M20 516h247v306H20z"/>
</clipPath>
<clipPath id="q">
<path transform="rotate(-90 -124 392)" d="M20 516h247v306H20z"/>
</clipPath>
<clipPath id="r">
<path transform="rotate(-90 -124 392)" d="M20 516h247v306H20z"/>
</clipPath>
<clipPath id="s">
<path transform="rotate(-90 -124 392)" d="M20 516h247v306H20z"/>
</clipPath>
<clipPath id="t">
<path transform="rotate(-90 -124 392)" d="M20 516h247v306H20z"/>
</clipPath>
<clipPath id="u">
<path transform="rotate(-90 -124 392)" d="M20 516h247v306H20z"/>
</clipPath>
<clipPath id="v">
<path transform="rotate(-90 -124 392)" d="M20 516h247v306H20z"/>
</clipPath>
<clipPath id="w">
<path transform="rotate(-90 -124 392)" d="M20 516h247v306H20z"/>
</clipPath>
<clipPath id="x">
<path transform="matrix(1 0 0 -1 -94.2 22.3)" d="m0 0h306v247h-306z"/>
</clipPath>
<clipPath id="y">
<path transform="matrix(1 0 0 -1 -90.4 22.3)" d="m0 0h306v247h-306z"/>
</clipPath>
<clipPath id="z">
<path transform="matrix(1 0 0 -1 -79.2 17.7)" d="m0 0h306v247h-306z"/>
</clipPath>
<clipPath id="fh">
<path transform="rotate(-90 -124 392)" d="M20 516h247v306H20z"/>
</clipPath>
<clipPath id="fg">
<path transform="rotate(-90 -124 392)" d="M20 516h247v306H20z"/>
</clipPath>
<clipPath id="ff">
<path transform="rotate(-90 -124 392)" d="M20 516h247v306H20z"/>
</clipPath>
<clipPath id="fe">
<path transform="rotate(-90 -124 392)" d="M20 516h247v306H20z"/>
</clipPath>
<clipPath id="fd">
<path transform="rotate(-90 -124 392)" d="M20 516h247v306H20z"/>
</clipPath>
<clipPath id="fc">
<path transform="rotate(-90 -124 392)" d="M20 516h247v306H20z"/>
</clipPath>
<clipPath id="fb">
<path transform="rotate(-90 -124 392)" d="M20 516h247v306H20z"/>
</clipPath>
<clipPath id="fa">
<path transform="rotate(-90 -124 392)" d="M20 516h247v306H20z"/>
</clipPath>
<clipPath id="ez">
<path transform="rotate(-90 -124 392)" d="M20 516h247v306H20z"/>
</clipPath>
<clipPath id="ey">
<path transform="matrix(1 0 0 -1 -134 22.7)" d="m0 0h306v247h-306z"/>
</clipPath>
<clipPath id="ex">
<path transform="matrix(1 0 0 -1 -130 22.7)" d="m0 0h306v247h-306z"/>
</clipPath>
<clipPath id="ew">
<path transform="matrix(1 0 0 -1 -119 17.7)" d="m0 0h306v247h-306z"/>
</clipPath>
<clipPath id="ev">
<path transform="rotate(-90 -124 392)" d="M20 516h247v306H20z"/>
</clipPath>
<clipPath id="eu">
<path transform="rotate(-90 -124 392)" d="M20 516h247v306H20z"/>
</clipPath>
<clipPath id="et">
<path transform="rotate(-90 -124 392)" d="M20 516h247v306H20z"/>
</clipPath>
<clipPath id="es">
<path transform="rotate(-90 -124 392)" d="M20 516h247v306H20z"/>
</clipPath>
<clipPath id="er">
<path transform="rotate(-90 -124 392)" d="M20 516h247v306H20z"/>
</clipPath>
<clipPath id="eq">
<path transform="rotate(-90 -124 392)" d="M20 516h247v306H20z"/>
</clipPath>
<clipPath id="ep">
<path transform="rotate(-90 -124 392)" d="M20 516h247v306H20z"/>
</clipPath>
<clipPath id="eo">
<path transform="rotate(-90 -124 392)" d="M20 516h247v306H20z"/>
</clipPath>
<clipPath id="en">
<path transform="rotate(-90 -124 392)" d="M20 516h247v306H20z"/>
</clipPath>
<clipPath id="em">
<path transform="matrix(1 0 0 -1 -173 22.3)" d="m0 0h306v247h-306z"/>
</clipPath>
<clipPath id="el">
<path transform="matrix(1 0 0 -1 -170 22.3)" d="m0 0h306v247h-306z"/>
</clipPath>
<clipPath id="ek">
<path transform="matrix(1 0 0 -1 -158 17.7)" d="m0 0h306v247h-306z"/>
</clipPath>
<clipPath id="ej">
<path transform="rotate(-90 -124 392)" d="M20 516h247v306H20z"/>
</clipPath>
<clipPath id="ei">
<path transform="rotate(-90 -124 392)" d="M20 516h247v306H20z"/>
</clipPath>
<clipPath id="aa">
<path transform="rotate(-90 -124 392)" d="M20 516h247v306H20z"/>
</clipPath>
<clipPath id="ab">
<path transform="rotate(-90 -124 392)" d="M20 516h247v306H20z"/>
</clipPath>
<clipPath id="ac">
<path transform="rotate(-90 -124 392)" d="M20 516h247v306H20z"/>
</clipPath>
<clipPath id="ad">
<path transform="rotate(-90 -124 392)" d="M20 516h247v306H20z"/>
</clipPath>
<clipPath id="ae">
<path transform="rotate(-90 -124 392)" d="M20 516h247v306H20z"/>
</clipPath>
<clipPath id="af">
<path transform="rotate(-90 -124 392)" d="M20 516h247v306H20z"/>
</clipPath>
<clipPath id="ag">
<path transform="rotate(-90 -124 392)" d="M20 516h247v306H20z"/>
</clipPath>
<clipPath id="ah">
<path transform="matrix(1 0 0 -1 -214 22.3)" d="m0 0h306v247h-306z"/>
</clipPath>
<clipPath id="ai">
<path transform="matrix(1 0 0 -1 -210 22.3)" d="m0 0h306v247h-306z"/>
</clipPath>
<clipPath id="aj">
<path transform="matrix(1 0 0 -1 -199 17.7)" d="m0 0h306v247h-306z"/>
</clipPath>
<clipPath id="ak">
<path transform="rotate(-90 -124 392)" d="M20 516h247v306H20z"/>
</clipPath>
<clipPath id="al">
<path transform="rotate(-90 -124 392)" d="M20 516h247v306H20z"/>
</clipPath>
<clipPath id="am">
<path transform="rotate(-90 -124 392)" d="M20 516h247v306H20z"/>
</clipPath>
<clipPath id="an">
<path transform="rotate(-90 -124 392)" d="M20 516h247v306H20z"/>
</clipPath>
<clipPath id="ao">
<path transform="rotate(-90 -124 392)" d="M20 516h247v306H20z"/>
</clipPath>
<clipPath id="ap">
<path transform="rotate(-90 -124 392)" d="M20 516h247v306H20z"/>
</clipPath>
<clipPath id="aq">
<path transform="rotate(-90 -124 392)" d="M20 516h247v306H20z"/>
</clipPath>
<clipPath id="ar">
<path transform="rotate(-90 -124 392)" d="M20 516h247v306H20z"/>
</clipPath>
<clipPath id="as">
<path transform="rotate(-90 -124 392)" d="M20 516h247v306H20z"/>
</clipPath>
<clipPath id="at">
<path transform="matrix(1 0 0 -1 -246 17.5)" d="m0 0h306v247h-306z"/>
</clipPath>
<clipPath id="au">
<path transform="rotate(-90 -124 392)" d="M20 516h247v306H20z"/>
</clipPath>
<clipPath id="av">
<path transform="rotate(-90 -124 392)" d="M20 516h247v306H20z"/>
</clipPath>
<clipPath id="aw">
<path transform="rotate(-90 -124 392)" d="M20 516h247v306H20z"/>
</clipPath>
<clipPath id="ax">
<path transform="rotate(-90 -124 392)" d="M20 516h247v306H20z"/>
</clipPath>
<clipPath id="ay">
<path transform="rotate(-90 -124 392)" d="M20 516h247v306H20z"/>
</clipPath>
<clipPath id="az">
<path transform="rotate(-90 -124 392)" d="M20 516h247v306H20z"/>
</clipPath>
<clipPath id="aA">
<path transform="rotate(-90 -124 392)" d="M20 516h247v306H20z"/>
</clipPath>
<clipPath id="aB">
<path transform="rotate(-90 -124 392)" d="M20 516h247v306H20z"/>
</clipPath>
<clipPath id="aC">
<path transform="rotate(-90 -124 392)" d="M20 516h247v306H20z"/>
</clipPath>
<clipPath id="aD">
<path transform="matrix(1 0 0 -1 -282 17.5)" d="m0 0h306v247h-306z"/>
</clipPath>
<clipPath id="aE">
<path transform="rotate(-90 -124 392)" d="M20 516h247v306H20z"/>
</clipPath>
<clipPath id="aF">
<path transform="rotate(-90 -124 392)" d="M20 516h247v306H20z"/>
</clipPath>
<clipPath id="aG">
<path transform="rotate(-90 -124 392)" d="M20 516h247v306H20z"/>
</clipPath>
<clipPath id="aH">
<path transform="rotate(-90 -124 392)" d="M20 516h247v306H20z"/>
</clipPath>
<clipPath id="aI">
<path transform="rotate(-90 -124 392)" d="M20 516h247v306H20z"/>
</clipPath>
<clipPath id="aJ">
<path transform="rotate(-90 -124 392)" d="M20 516h247v306H20z"/>
</clipPath>
<clipPath id="aK">
<path transform="rotate(-90 -124 392)" d="M20 516h247v306H20z"/>
</clipPath>
<clipPath id="aL">
<path transform="rotate(-90 -124 392)" d="M20 516h247v306H20z"/>
</clipPath>
<clipPath id="aM">
<path transform="rotate(-90 -124 392)" d="M20 516h247v306H20z"/>
</clipPath>
<clipPath id="aN">
<path transform="rotate(-90 -124 392)" d="M20 516h247v306H20z"/>
</clipPath>
<clipPath id="aO">
<path transform="rotate(-90 -124 392)" d="M20 516h247v306H20z"/>
</clipPath>
<clipPath id="aP">
<path transform="rotate(-90 -124 392)" d="M20 516h247v306H20z"/>
</clipPath>
<clipPath id="aQ">
<path transform="rotate(-90 -124 392)" d="M20 516h247v306H20z"/>
</clipPath>
<clipPath id="aR">
<path transform="rotate(-90 -124 392)" d="M20 516h247v306H20z"/>
</clipPath>
<clipPath id="aS">
<path transform="rotate(-90 -124 392)" d="M20 516h247v306H20z"/>
</clipPath>
<clipPath id="aT">
<path transform="rotate(-90 -124 392)" d="M20 516h247v306H20z"/>
</clipPath>
<clipPath id="aU">
<path transform="rotate(-90 -124 392)" d="M20 516h247v306H20z"/>
</clipPath>
<clipPath id="aV">
<path transform="rotate(-90 -124 392)" d="M20 516h247v306H20z"/>
</clipPath>
<clipPath id="aW">
<path transform="rotate(-90 -124 392)" d="M20 516h247v306H20z"/>
</clipPath>
<clipPath id="aX">
<path transform="rotate(-90 -124 392)" d="M20 516h247v306H20z"/>
</clipPath>
<clipPath id="aY">
<path transform="rotate(-90 -124 392)" d="M20 516h247v306H20z"/>
</clipPath>
<clipPath id="aZ">
<path transform="rotate(-90 -124 392)" d="M20 516h247v306H20z"/>
</clipPath>
<clipPath id="ba">
<path transform="rotate(-90 -124 392)" d="M20 516h247v306H20z"/>
</clipPath>
<clipPath id="bb">
<path transform="rotate(-90 -124 392)" d="M20 516h247v306H20z"/>
</clipPath>
<clipPath id="bc">
<path transform="rotate(-90 -124 392)" d="M20 516h247v306H20z"/>
</clipPath>
<clipPath id="bd">
<path transform="rotate(-90 -124 392)" d="M20 516h247v306H20z"/>
</clipPath>
<clipPath id="be">
<path transform="rotate(-90 -124 392)" d="M20 516h247v306H20z"/>
</clipPath>
<clipPath id="bf">
<path transform="rotate(-90 -124 392)" d="M20 516h247v306H20z"/>
</clipPath>
<clipPath id="bg">
<path transform="rotate(-90 -124 392)" d="M20 516h247v306H20z"/>
</clipPath>
<clipPath id="bh">
<path transform="rotate(-90 -124 392)" d="M20 516h247v306H20z"/>
</clipPath>
<clipPath id="bi">
<path transform="rotate(-90 -124 392)" d="M20 516h247v306H20z"/>
</clipPath>
<clipPath id="bj">
<path transform="rotate(-90 -124 392)" d="M20 516h247v306H20z"/>
</clipPath>
<clipPath id="bk">
<path transform="rotate(-90 -124 392)" d="M20 516h247v306H20z"/>
</clipPath>
<clipPath id="bl">
<path transform="rotate(-90 -124 392)" d="M20 516h247v306H20z"/>
</clipPath>
<clipPath id="bm">
<path transform="rotate(-90 -124 392)" d="M20 516h247v306H20z"/>
</clipPath>
<clipPath id="bn">
<path transform="rotate(-90 -124 392)" d="M20 516h247v306H20z"/>
</clipPath>
<clipPath id="bo">
<path transform="rotate(-90 -124 392)" d="M20 516h247v306H20z"/>
</clipPath>
<clipPath id="bp">
<path transform="rotate(-90 -124 392)" d="M20 516h247v306H20z"/>
</clipPath>
<clipPath id="bq">
<path transform="rotate(-90 -124 392)" d="M20 516h247v306H20z"/>
</clipPath>
<clipPath id="br">
<path transform="rotate(-90 -124 392)" d="M20 516h247v306H20z"/>
</clipPath>
<clipPath id="bs">
<path transform="rotate(-90 -124 392)" d="M20 516h247v306H20z"/>
</clipPath>
<clipPath id="bt">
<path transform="rotate(-90 -124 392)" d="M20 516h247v306H20z"/>
</clipPath>
<clipPath id="bu">
<path transform="rotate(-90 -124 392)" d="M20 516h247v306H20z"/>
</clipPath>
<clipPath id="bv">
<path transform="rotate(-90 -124 392)" d="M20 516h247v306H20z"/>
</clipPath>
<clipPath id="bw">
<path transform="rotate(-90 -124 392)" d="M20 516h247v306H20z"/>
</clipPath>
<clipPath id="bx">
<path transform="rotate(-90 -124 392)" d="M20 516h247v306H20z"/>
</clipPath>
<clipPath id="by">
<path transform="rotate(-90 -124 392)" d="M20 516h247v306H20z"/>
</clipPath>
<clipPath id="bz">
<path transform="rotate(-90 -124 392)" d="M20 516h247v306H20z"/>
</clipPath>
<clipPath id="bA">
<path transform="rotate(-90 -124 392)" d="M20 516h247v306H20z"/>
</clipPath>
<clipPath id="bB">
<path transform="rotate(-90 -124 392)" d="M20 516h247v306H20z"/>
</clipPath>
<clipPath id="bC">
<path transform="rotate(-90 -124 392)" d="M20 516h247v306H20z"/>
</clipPath>
<clipPath id="bD">
<path transform="rotate(-90 -124 392)" d="M20 516h247v306H20z"/>
</clipPath>
<clipPath id="bE">
<path transform="rotate(-90 -124 392)" d="M20 516h247v306H20z"/>
</clipPath>
<clipPath id="bF">
<path transform="rotate(-90 -124 392)" d="M20 516h247v306H20z"/>
</clipPath>
<clipPath id="bG">
<path transform="rotate(-90 -124 392)" d="M20 516h247v306H20z"/>
</clipPath>
<clipPath id="bH">
<path transform="rotate(-90 -124 392)" d="M20 516h247v306H20z"/>
</clipPath>
<clipPath id="bI">
<path transform="rotate(-90 -124 392)" d="M20 516h247v306H20z"/>
</clipPath>
<clipPath id="bJ">
<path transform="rotate(-90 -124 392)" d="M20 516h247v306H20z"/>
</clipPath>
<clipPath id="bK">
<path transform="rotate(-90 -124 392)" d="M20 516h247v306H20z"/>
</clipPath>
<clipPath id="bL">
<path transform="rotate(-90 -124 392)" d="M20 516h247v306H20z"/>
</clipPath>
<clipPath id="bM">
<path transform="matrix(0 1 1 0 -203 -11.5)" d="m0 0h306v247h-306z"/>
</clipPath>
<clipPath id="bN">
<path transform="matrix(0 1 1 0 -195 -13.8)" d="m0 0h306v247h-306z"/>
</clipPath>
<clipPath id="bO">
<path transform="matrix(0 1 1 0 -195 -9.38)" d="m0 0h306v247h-306z"/>
</clipPath>
<clipPath id="bP">
<path transform="matrix(0 1 1 0 -184 -11.5)" d="m0 0h306v247h-306z"/>
</clipPath>
<clipPath id="bQ">
<path transform="rotate(-90 -124 392)" d="M20 516h247v306H20z"/>
</clipPath>
<clipPath id="bR">
<path transform="rotate(-90 -124 392)" d="M20 516h247v306H20z"/>
</clipPath>
<clipPath id="bS">
<path transform="rotate(-90 -124 392)" d="M20 516h247v306H20z"/>
</clipPath>
<clipPath id="bT">
<path transform="rotate(-90 -124 392)" d="M20 516h247v306H20z"/>
</clipPath>
<clipPath id="bU">
<path transform="rotate(-90 -124 392)" d="M20 516h247v306H20z"/>
</clipPath>
<clipPath id="bV">
<path transform="rotate(-90 -124 392)" d="M20 516h247v306H20z"/>
</clipPath>
<clipPath id="bW">
<path transform="rotate(-90 -124 392)" d="M20 516h247v306H20z"/>
</clipPath>
<clipPath id="bX">
<path transform="rotate(-90 -124 392)" d="M20 516h247v306H20z"/>
</clipPath>
<clipPath id="bY">
<path transform="rotate(-90 -124 392)" d="M20 516h247v306H20z"/>
</clipPath>
<clipPath id="bZ">
<path transform="rotate(-90 -124 392)" d="M20 516h247v306H20z"/>
</clipPath>
<clipPath id="ca">
<path transform="rotate(-90 -124 392)" d="M20 516h247v306H20z"/>
</clipPath>
<clipPath id="cb">
<path transform="rotate(-90 -124 392)" d="M20 516h247v306H20z"/>
</clipPath>
<clipPath id="cc">
<path transform="rotate(-90 -124 392)" d="M20 516h247v306H20z"/>
</clipPath>
<clipPath id="cd">
<path transform="rotate(-90 -124 392)" d="M20 516h247v306H20z"/>
</clipPath>
<clipPath id="ce">
<path transform="rotate(-90 -124 392)" d="M20 516h247v306H20z"/>
</clipPath>
<clipPath id="cf">
<path transform="rotate(-90 -124 392)" d="M20 516h247v306H20z"/>
</clipPath>
<clipPath id="cg">
<path transform="rotate(-90 -124 392)" d="M20 516h247v306H20z"/>
</clipPath>
<clipPath id="ch">
<path transform="rotate(-90 -124 392)" d="M20 516h247v306H20z"/>
</clipPath>
<clipPath id="ci">
<path transform="rotate(-90 -124 392)" d="M20 516h247v306H20z"/>
</clipPath>
<clipPath id="cj">
<path transform="rotate(-90 -124 392)" d="M20 516h247v306H20z"/>
</clipPath>
<clipPath id="ck">
<path transform="rotate(-90 -124 392)" d="M20 516h247v306H20z"/>
</clipPath>
<clipPath id="cl">
<path transform="rotate(-90 -124 392)" d="M20 516h247v306H20z"/>
</clipPath>
<clipPath id="cm">
<path transform="rotate(-90 -124 392)" d="M20 516h247v306H20z"/>
</clipPath>
<clipPath id="cn">
<path transform="matrix(1 0 0 -1 -31.9 29.6)" d="m0 0h306v247h-306z"/>
</clipPath>
<clipPath id="co">
<path transform="matrix(1 0 0 -1 -23.1 76.9)" d="m0 0h306v247h-306z"/>
</clipPath>
<clipPath id="cp">
<path transform="matrix(1 0 0 -1 -33.5 124)" d="m0 0h306v247h-306z"/>
</clipPath>
<clipPath id="cq">
<path transform="matrix(1 0 0 -1 -23.1 172)" d="m0 0h306v247h-306z"/>
</clipPath>
<clipPath id="cr">
<path transform="matrix(1 0 0 -1 -31.9 218)" d="m0 0h306v247h-306z"/>
</clipPath>
<clipPath id="cs">
<path transform="rotate(-90 -124 392)" d="M20 516h247v306H20z"/>
</clipPath>
<clipPath id="ct">
<path transform="rotate(-90 -124 392)" d="M20 516h247v306H20z"/>
</clipPath>
<clipPath id="cu">
<path transform="rotate(-90 -124 392)" d="M20 516h247v306H20z"/>
</clipPath>
<clipPath id="cv">
<path transform="rotate(-90 -124 392)" d="M20 516h247v306H20z"/>
</clipPath>
<clipPath id="cw">
<path transform="rotate(-90 -124 392)" d="M20 516h247v306H20z"/>
</clipPath>
<clipPath id="cx">
<path transform="rotate(-90 -124 392)" d="M20 516h247v306H20z"/>
</clipPath>
<clipPath id="cy">
<path transform="rotate(-90 -124 392)" d="M20 516h247v306H20z"/>
</clipPath>
<clipPath id="cz">
<path transform="rotate(-90 -124 392)" d="M20 516h247v306H20z"/>
</clipPath>
<clipPath id="cA">
<path transform="rotate(-90 -124 392)" d="M20 516h247v306H20z"/>
</clipPath>
<clipPath id="cB">
<path transform="rotate(-90 -124 392)" d="M20 516h247v306H20z"/>
</clipPath>
<clipPath id="cC">
<path transform="rotate(-90 -124 392)" d="M20 516h247v306H20z"/>
</clipPath>
<clipPath id="cD">
<path transform="rotate(-90 -124 392)" d="M20 516h247v306H20z"/>
</clipPath>
<clipPath id="cE">
<path transform="rotate(-90 -124 392)" d="M20 516h247v306H20z"/>
</clipPath>
<clipPath id="cF">
<path transform="rotate(-90 -124 392)" d="M20 516h247v306H20z"/>
</clipPath>
<clipPath id="cG">
<path transform="rotate(-90 -124 392)" d="M20 516h247v306H20z"/>
</clipPath>
<clipPath id="cH">
<path transform="rotate(-90 -124 392)" d="M20 516h247v306H20z"/>
</clipPath>
<clipPath id="cI">
<path transform="rotate(-90 -124 392)" d="M20 516h247v306H20z"/>
</clipPath>
<clipPath id="cJ">
<path transform="rotate(-90 -124 392)" d="M20 516h247v306H20z"/>
</clipPath>
<clipPath id="cK">
<path transform="rotate(-90 -124 392)" d="M20 516h247v306H20z"/>
</clipPath>
<clipPath id="cL">
<path transform="rotate(-90 -124 392)" d="M20 516h247v306H20z"/>
</clipPath>
<clipPath id="cM">
<path transform="rotate(-90 -124 392)" d="M20 516h247v306H20z"/>
</clipPath>
<clipPath id="cN">
<path transform="rotate(-90 -124 392)" d="M20 516h247v306H20z"/>
</clipPath>
<clipPath id="cO">
<path transform="rotate(-90 -124 392)" d="M20 516h247v306H20z"/>
</clipPath>
<clipPath id="cP">
<path transform="rotate(-90 -124 392)" d="M20 516h247v306H20z"/>
</clipPath>
<clipPath id="cQ">
<path transform="rotate(-90 -124 392)" d="M20 516h247v306H20z"/>
</clipPath>
<clipPath id="cR">
<path transform="rotate(-90 -124 392)" d="M20 516h247v306H20z"/>
</clipPath>
<clipPath id="cS">
<path transform="rotate(-90 -124 392)" d="M20 516h247v306H20z"/>
</clipPath>
<clipPath id="cT">
<path transform="rotate(-90 -124 392)" d="M20 516h247v306H20z"/>
</clipPath>
<clipPath id="cU">
<path transform="rotate(-90 -124 392)" d="M20 516h247v306H20z"/>
</clipPath>
<clipPath id="cV">
<path transform="rotate(-90 -124 392)" d="M20 516h247v306H20z"/>
</clipPath>
<clipPath id="cW">
<path transform="matrix(1 0 0 -1 -50.4 216)" d="m0 0h306v247h-306z"/>
</clipPath>
<clipPath id="cX">
<path transform="matrix(1 0 0 -1 -179 202)" d="m0 0h306v247h-306z"/>
</clipPath>
<clipPath id="cY">
<path transform="matrix(1 0 0 -1 -172 202)" d="m0 0h306v247h-306z"/>
</clipPath>
<clipPath id="cZ">
<path transform="matrix(1 0 0 -1 -167 198)" d="m0 0h306v247h-306z"/>
</clipPath>
<clipPath id="da">
<path transform="matrix(1 0 0 -1 -167 202)" d="m0 0h306v247h-306z"/>
</clipPath>
<clipPath id="db">
<path transform="matrix(1 0 0 -1 -162 200)" d="m0 0h306v247h-306z"/>
</clipPath>
<clipPath id="dc">
<path transform="matrix(1 0 0 -1 -162 204)" d="m0 0h306v247h-306z"/>
</clipPath>
<clipPath id="dd">
<path transform="matrix(1 0 0 -1 -155 202)" d="m0 0h306v247h-306z"/>
</clipPath>
<clipPath id="de">
<path transform="matrix(1 0 0 -1 -147 202)" d="m0 0h306v247h-306z"/>
</clipPath>
<clipPath id="df">
<path transform="matrix(1 0 0 -1 -141 200)" d="m0 0h306v247h-306z"/>
</clipPath>
<clipPath id="dg">
<path transform="matrix(1 0 0 -1 -141 204)" d="m0 0h306v247h-306z"/>
</clipPath>
<clipPath id="dh">
<path transform="matrix(1 0 0 -1 -128 202)" d="m0 0h306v247h-306z"/>
</clipPath>
<clipPath id="di">
<path transform="matrix(1 0 0 -1 -126 199)" d="m0 0h306v247h-306z"/>
</clipPath>
<clipPath id="dj">
<path transform="matrix(1 0 0 -1 -125 205)" d="m0 0h306v247h-306z"/>
</clipPath>
<clipPath id="dk">
<path transform="matrix(1 0 0 -1 -120 202)" d="m0 0h306v247h-306z"/>
</clipPath>
<clipPath id="dl">
<path transform="matrix(1 0 0 -1 -120 206)" d="m0 0h306v247h-306z"/>
</clipPath>
<clipPath id="dm">
<path transform="matrix(1 0 0 -1 -113 206)" d="m0 0h306v247h-306z"/>
</clipPath>
<clipPath id="dn">
<path transform="matrix(1 0 0 -1 -113 202)" d="m0 0h306v247h-306z"/>
</clipPath>
<clipPath id="do">
<path transform="matrix(1 0 0 -1 -107 202)" d="m0 0h306v247h-306z"/>
</clipPath>
<clipPath id="dp">
<path transform="matrix(1 0 0 -1 -96.2 202)" d="m0 0h306v247h-306z"/>
</clipPath>
<clipPath id="dq">
<path transform="matrix(1 0 0 -1 -89.6 202)" d="m0 0h306v247h-306z"/>
</clipPath>
<clipPath id="dr">
<path transform="matrix(1 0 0 -1 -89.4 206)" d="m0 0h306v247h-306z"/>
</clipPath>
<clipPath id="ds">
<path transform="matrix(1 0 0 -1 -84.6 202)" d="m0 0h306v247h-306z"/>
</clipPath>
<clipPath id="dt">
<path transform="matrix(1 0 0 -1 -79.6 202)" d="m0 0h306v247h-306z"/>
</clipPath>
<clipPath id="du">
<path transform="matrix(1 0 0 -1 -79.4 206)" d="m0 0h306v247h-306z"/>
</clipPath>
<clipPath id="dv">
<path transform="matrix(1 0 0 -1 -73.5 202)" d="m0 0h306v247h-306z"/>
</clipPath>
<clipPath id="ed">
<path transform="matrix(1 0 0 -1 -73.3 206)" d="m0 0h306v247h-306z"/>
</clipPath>
<clipPath id="ec">
<path transform="matrix(1 0 0 -1 -62.7 202)" d="m0 0h306v247h-306z"/>
</clipPath>
<clipPath id="eb">
<path transform="matrix(1 0 0 -1 -50.4 202)" d="m0 0h306v247h-306z"/>
</clipPath>
<clipPath id="ea">
<path transform="matrix(1 0 0 -1 -84.6 58.1)" d="m0 0h306v247h-306z"/>
</clipPath>
<clipPath id="dA">
<path transform="rotate(-90 -124 392)" d="M20 516h247v306H20z"/>
</clipPath>
<clipPath id="dB">
<path transform="rotate(-90 -124 392)" d="M20 516h247v306H20z"/>
</clipPath>
<clipPath id="dC">
<path transform="rotate(-90 -124 392)" d="M20 516h247v306H20z"/>
</clipPath>
<clipPath id="dD">
<path transform="matrix(1 0 0 -1 -84.6 44.6)" d="m0 0h306v247h-306z"/>
</clipPath>
<clipPath id="dE">
<path transform="rotate(-90 -124 392)" d="M20 516h247v306H20z"/>
</clipPath>
<clipPath id="dF">
<path transform="rotate(-90 -124 392)" d="M20 516h247v306H20z"/>
</clipPath>
<clipPath id="dH">
<path transform="matrix(1 0 0 -1 -41.2 236)" d="m0 0h306v247h-306z"/>
</clipPath>
<clipPath id="dJ">
<path transform="matrix(1 0 0 -1 -68.8 236)" d="m0 0h306v247h-306z"/>
</clipPath>
<clipPath id="dL">
<path transform="matrix(1 0 0 -1 -253 236)" d="m0 0h306v247h-306z"/>
</clipPath>
<clipPath id="dM">
<path transform="matrix(1 0 0 -1 -244 241)" d="m0 0h306v247h-306z"/>
</clipPath>
<clipPath id="dN">
<path transform="matrix(1 0 0 -1 -210 236)" d="m0 0h306v247h-306z"/>
</clipPath>
<clipPath id="dO">
<path transform="matrix(1 0 0 -1 -50.4 73.1)" d="m0 0h306v247h-306z"/>
</clipPath>
</defs>
<g fill="none" stroke="#000" stroke-miterlimit="10" stroke-width=".5">
<path transform="matrix(.251 0 0 -.251 0 62)" d="m41.3 33.3h254v199h-254z" clip-path="url(#eh)"/>
<path transform="matrix(.251 0 0 -.251 0 62)" d="m41.3 33.3h254v199h-254z" clip-path="url(#eg)"/>
<path transform="matrix(.251 0 0 -.251 0 62)" d="m41.3 33.3h254" clip-path="url(#ef)"/>
</g>
<path transform="translate(69.9 61) scale(.251)" d="m3.53-8.69q-0.914 1.78-1.19 2.61-0.413 1.27-0.413 2.95 0 1.69 0.472 3.09 0.291 0.862 1.15 2.48h-0.704q-0.85-1.33-1.05-1.69-0.204-0.367-0.442-0.996-0.326-0.862-0.454-1.84-0.064-0.506-0.064-0.966 0-1.72 0.541-3.07 0.343-0.856 1.43-2.56zm1.21 2.46h1.04v0.885q0.373-0.46 0.675-0.67 0.518-0.355 1.18-0.355 0.745 0 1.2 0.367 0.256 0.21 0.466 0.617 0.349-0.501 0.821-0.739 0.472-0.245 1.06-0.245 1.26 0 1.71 0.908 0.245 0.489 0.245 1.32v4.15h-1.09v-4.33q0-0.623-0.314-0.856-0.309-0.233-0.757-0.233-0.617 0-1.07 0.413-0.442 0.413-0.442 1.38v3.63h-1.07v-4.07q0-0.635-0.151-0.926-0.239-0.437-0.891-0.437-0.594 0-1.08 0.46-0.483 0.46-0.483 1.67v3.31h-1.05zm9.58 8.67q0.926-1.8 1.19-2.63 0.408-1.25 0.408-2.93t-0.472-3.08q-0.291-0.862-1.15-2.48h0.704q0.897 1.43 1.08 1.77 0.192 0.332 0.413 0.92 0.279 0.728 0.396 1.44 0.122 0.71 0.122 1.37 0 1.72-0.547 3.07-0.343 0.867-1.43 2.56z" clip-path="url(#ee)" aria-label="(m)"/>
<path transform="translate(67.9 61.5) scale(.251)" d="m2.29-5.92q1.15 0 1.66 0.946 0.397 0.731 0.397 2 0 1.21-0.359 2-0.521 1.13-1.7 1.13-1.07 0-1.59-0.925-0.434-0.773-0.434-2.07 0-1.01 0.26-1.73 0.487-1.35 1.76-1.35zm-0.00826 5.4q0.578 0 0.921-0.512 0.343-0.512 0.343-1.91 0-1.01-0.248-1.66-0.248-0.653-0.963-0.653-0.657 0-0.963 0.62-0.302 0.616-0.302 1.82 0 0.905 0.194 1.45 0.297 0.839 1.02 0.839z" clip-path="url(#e)" aria-label="0"/>
<path transform="translate(66.6 61) scale(.251)" d="M4.727-5.339v.857H2.915c-.132 1.277-.198 2.154-.198 2.635 0 .375.07.651.215.824.14.165.317.247.527.247.164 0 .3-.053.411-.165.12-.107.206-.296.264-.56h.198c-.066.639-.21 1.08-.429 1.318-.21.239-.46.362-.757.362-.31 0-.569-.14-.774-.411-.198-.285-.297-.783-.297-1.5 0-.56.066-1.473.198-2.75h-.544c-.309 0-.556.062-.741.181-.177.111-.354.325-.527.643H.247c.271-.746.519-1.211.74-1.4.232-.186.549-.28.956-.28z" clip-path="url(#f)" aria-label="τ"/>
<path transform="translate(65.2 61) scale(.251)" d="m3.17-6.42q1.05 0 1.71 0.512 0.664 0.512 0.798 1.76h-1.02q-0.0931-0.576-0.425-0.955-0.332-0.384-1.07-0.384-1 0-1.43 0.978-0.279 0.635-0.279 1.57 0 0.937 0.396 1.58 0.396 0.64 1.25 0.64 0.652 0 1.03-0.396 0.384-0.402 0.53-1.09h1.02q-0.175 1.24-0.873 1.82-0.699 0.571-1.79 0.571-1.22 0-1.95-0.891-0.728-0.897-0.728-2.24 0-1.64 0.798-2.56 0.798-0.914 2.03-0.914z" clip-path="url(#g)" aria-label="c"/>
<g fill="none" stroke="#000" stroke-miterlimit="10" stroke-width=".5">
<path transform="matrix(.251 0 0 -.251 0 62)" d="m43.1 35.4v-2.1" clip-path="url(#h)"/>
<path transform="matrix(.251 0 0 -.251 0 62)" d="m45.4 35.4v-2.1" clip-path="url(#i)"/>
<path transform="matrix(.251 0 0 -.251 0 62)" d="m47.5 35.4v-2.1" clip-path="url(#j)"/>
<path transform="matrix(.251 0 0 -.251 0 62)" d="m49.3 37.5v-4.2" clip-path="url(#k)"/>
</g>
<path transform="translate(13.7 56.3) scale(.251)" d="m0.855-1.23q0.0608 0.521 0.483 0.72 0.216 0.101 0.5 0.101 0.541 0 0.801-0.345 0.26-0.345 0.26-0.764 0-0.507-0.311-0.784-0.308-0.277-0.74-0.277-0.314 0-0.541 0.122-0.223 0.122-0.382 0.338l-0.527-0.0304 0.368-2.61h2.51v0.588h-2.06l-0.206 1.35q0.169-0.128 0.321-0.193 0.27-0.112 0.625-0.112 0.666 0 1.13 0.429 0.463 0.429 0.463 1.09 0 0.686-0.426 1.21-0.423 0.524-1.35 0.524-0.592 0-1.05-0.331-0.453-0.335-0.507-1.02z" clip-path="url(#l)" aria-label="5"/>
<path transform="translate(12.7 56.3) scale(.251)" d="M.13-1.944h3.542v.33H.13z" clip-path="url(#m)" aria-label="−"/>
<path transform="translate(9.94 57.5) scale(.251)" d="m0.994-5.14v-0.7q0.989-0.0963 1.38-0.319 0.39-0.228 0.583-1.07h0.72v7.23h-0.974v-5.14zm7.59-2.12q1.41 0 2.04 1.16 0.487 0.897 0.487 2.46 0 1.48-0.441 2.45-0.639 1.39-2.09 1.39-1.31 0-1.95-1.14-0.532-0.948-0.532-2.55 0-1.24 0.319-2.12 0.598-1.65 2.17-1.65zm-0.0101 6.63q0.71 0 1.13-0.629 0.421-0.629 0.421-2.34 0-1.24-0.304-2.03-0.304-0.801-1.18-0.801-0.806 0-1.18 0.761-0.37 0.755-0.37 2.23 0 1.11 0.238 1.78 0.365 1.03 1.25 1.03z" clip-path="url(#n)" aria-label="10"/>
<g fill="none" stroke="#000" stroke-miterlimit="10" stroke-width=".5">
<path transform="matrix(.251 0 0 -.251 0 62)" d="m61.2 35.4v-2.1" clip-path="url(#o)"/>
<path transform="matrix(.251 0 0 -.251 0 62)" d="m68.2 35.4v-2.1" clip-path="url(#p)"/>
<path transform="matrix(.251 0 0 -.251 0 62)" d="m73.2 35.4v-2.1" clip-path="url(#q)"/>
<path transform="matrix(.251 0 0 -.251 0 62)" d="m77 35.4v-2.1" clip-path="url(#r)"/>
<path transform="matrix(.251 0 0 -.251 0 62)" d="m80.2 35.4v-2.1" clip-path="url(#s)"/>
<path transform="matrix(.251 0 0 -.251 0 62)" d="m82.8 35.4v-2.1" clip-path="url(#t)"/>
<path transform="matrix(.251 0 0 -.251 0 62)" d="m85.1 35.4v-2.1" clip-path="url(#u)"/>
<path transform="matrix(.251 0 0 -.251 0 62)" d="m87.2 35.4v-2.1" clip-path="url(#v)"/>
<path transform="matrix(.251 0 0 -.251 0 62)" d="m89 37.5v-4.2" clip-path="url(#w)"/>
</g>
<path transform="translate(23.7 56.4) scale(.251)" d="m2.29-1.71v-2.19l-1.55 2.19zm0.0101 1.71v-1.18h-2.12v-0.595l2.22-3.08h0.514v3.14h0.713v0.531h-0.713v1.18z" clip-path="url(#x)" aria-label="4"/>
<path transform="translate(22.7 56.4) scale(.251)" d="M.131-1.945h3.542v.329H.13z" clip-path="url(#y)" aria-label="−"/>
<path transform="translate(19.9 57.5) scale(.251)" d="m0.994-5.14v-0.7q0.989-0.0963 1.38-0.319 0.39-0.228 0.583-1.07h0.72v7.23h-0.974v-5.14zm7.59-2.12q1.41 0 2.04 1.16 0.487 0.897 0.487 2.46 0 1.48-0.441 2.45-0.639 1.39-2.09 1.39-1.31 0-1.95-1.14-0.532-0.948-0.532-2.55 0-1.24 0.319-2.12 0.598-1.65 2.17-1.65zm-0.0101 6.63q0.71 0 1.13-0.629 0.421-0.629 0.421-2.34 0-1.24-0.304-2.03-0.304-0.801-1.18-0.801-0.806 0-1.18 0.761-0.37 0.755-0.37 2.23 0 1.11 0.238 1.78 0.365 1.03 1.25 1.03z" clip-path="url(#z)" aria-label="10"/>
<g fill="none" stroke="#000" stroke-miterlimit="10" stroke-width=".5">
<path transform="matrix(.251 0 0 -.251 0 62)" d="m101 35.4v-2.1" clip-path="url(#fh)"/>
<path transform="matrix(.251 0 0 -.251 0 62)" d="m108 35.4v-2.1" clip-path="url(#fg)"/>
<path transform="matrix(.251 0 0 -.251 0 62)" d="m113 35.4v-2.1" clip-path="url(#ff)"/>
<path transform="matrix(.251 0 0 -.251 0 62)" d="m117 35.4v-2.1" clip-path="url(#fe)"/>
<path transform="matrix(.251 0 0 -.251 0 62)" d="m120 35.4v-2.1" clip-path="url(#fd)"/>
<path transform="matrix(.251 0 0 -.251 0 62)" d="m123 35.4v-2.1" clip-path="url(#fc)"/>
<path transform="matrix(.251 0 0 -.251 0 62)" d="m125 35.4v-2.1" clip-path="url(#fb)"/>
<path transform="matrix(.251 0 0 -.251 0 62)" d="m127 35.4v-2.1" clip-path="url(#fa)"/>
<path transform="matrix(.251 0 0 -.251 0 62)" d="m129 37.5v-4.2" clip-path="url(#ez)"/>
</g>
<path transform="translate(33.6 56.3) scale(.251)" d="m1.8 0.132q-0.859 0-1.25-0.47-0.385-0.473-0.385-1.15h0.636q0.0406 0.47 0.176 0.683 0.237 0.382 0.855 0.382 0.48 0 0.771-0.257 0.291-0.257 0.291-0.663 0-0.5-0.308-0.7-0.304-0.199-0.848-0.199-0.0608 0-0.125 0.00338-0.0608 0-0.125 0.00338v-0.537q0.0946 0.0101 0.159 0.0135 0.0642 0.00338 0.139 0.00338 0.341 0 0.561-0.108 0.385-0.189 0.385-0.676 0-0.362-0.257-0.558t-0.598-0.196q-0.608 0-0.842 0.406-0.128 0.223-0.145 0.636h-0.602q0-0.541 0.216-0.919 0.372-0.676 1.31-0.676 0.74 0 1.15 0.331 0.406 0.328 0.406 0.953 0 0.446-0.24 0.723-0.149 0.172-0.385 0.27 0.382 0.105 0.595 0.406 0.216 0.297 0.216 0.73 0 0.693-0.456 1.13t-1.29 0.436z" clip-path="url(#ey)" aria-label="3"/>
<path transform="translate(32.6 56.3) scale(.251)" d="M.132-1.944h3.542v.33H.132z" clip-path="url(#ex)" aria-label="−"/>
<path transform="translate(29.8 57.5) scale(.251)" d="m0.994-5.14v-0.7q0.989-0.0963 1.38-0.319 0.39-0.228 0.583-1.07h0.72v7.23h-0.974v-5.14zm7.59-2.12q1.41 0 2.04 1.16 0.487 0.897 0.487 2.46 0 1.48-0.441 2.45-0.639 1.39-2.09 1.39-1.31 0-1.95-1.14-0.532-0.948-0.532-2.55 0-1.24 0.319-2.12 0.598-1.65 2.17-1.65zm-0.0101 6.63q0.71 0 1.13-0.629 0.421-0.629 0.421-2.34 0-1.24-0.304-2.03-0.304-0.801-1.18-0.801-0.806 0-1.18 0.761-0.37 0.755-0.37 2.23 0 1.11 0.238 1.78 0.365 1.03 1.25 1.03z" clip-path="url(#ew)" aria-label="10"/>
<g fill="none" stroke="#000" stroke-miterlimit="10" stroke-width=".5">
<path transform="matrix(.251 0 0 -.251 0 62)" d="m141 35.4v-2.1" clip-path="url(#ev)"/>
<path transform="matrix(.251 0 0 -.251 0 62)" d="m148 35.4v-2.1" clip-path="url(#eu)"/>
<path transform="matrix(.251 0 0 -.251 0 62)" d="m153 35.4v-2.1" clip-path="url(#et)"/>
<path transform="matrix(.251 0 0 -.251 0 62)" d="m156 35.4v-2.1" clip-path="url(#es)"/>
<path transform="matrix(.251 0 0 -.251 0 62)" d="m160 35.4v-2.1" clip-path="url(#er)"/>
<path transform="matrix(.251 0 0 -.251 0 62)" d="m162 35.4v-2.1" clip-path="url(#eq)"/>
<path transform="matrix(.251 0 0 -.251 0 62)" d="m165 35.4v-2.1" clip-path="url(#ep)"/>
<path transform="matrix(.251 0 0 -.251 0 62)" d="m167 35.4v-2.1" clip-path="url(#eo)"/>
<path transform="matrix(.251 0 0 -.251 0 62)" d="m168 37.5v-4.2" clip-path="url(#en)"/>
</g>
<path transform="translate(43.5 56.4) scale(.251)" d="m0.216 0q0.0338-0.625 0.257-1.09 0.226-0.463 0.879-0.842l0.649-0.375q0.436-0.254 0.612-0.433 0.277-0.281 0.277-0.642 0-0.423-0.254-0.669-0.254-0.25-0.676-0.25-0.625 0-0.865 0.473-0.128 0.254-0.142 0.703h-0.619q0.0101-0.632 0.233-1.03 0.396-0.703 1.4-0.703 0.832 0 1.21 0.45 0.385 0.45 0.385 1 0 0.581-0.409 0.994-0.237 0.24-0.848 0.581l-0.463 0.257q-0.331 0.183-0.521 0.348-0.338 0.294-0.426 0.652h2.64v0.575z" clip-path="url(#em)" aria-label="2"/>
<path transform="translate(42.6 56.4) scale(.251)" d="M.133-1.945h3.541v.329H.133z" clip-path="url(#el)" aria-label="−"/>
<path transform="translate(39.8 57.5) scale(.251)" d="m0.994-5.14v-0.7q0.989-0.0963 1.38-0.319 0.39-0.228 0.583-1.07h0.72v7.23h-0.974v-5.14zm7.59-2.12q1.41 0 2.04 1.16 0.487 0.897 0.487 2.46 0 1.48-0.441 2.45-0.639 1.39-2.09 1.39-1.31 0-1.95-1.14-0.532-0.948-0.532-2.55 0-1.24 0.319-2.12 0.598-1.65 2.17-1.65zm-0.0101 6.63q0.71 0 1.13-0.629 0.421-0.629 0.421-2.34 0-1.24-0.304-2.03-0.304-0.801-1.18-0.801-0.806 0-1.18 0.761-0.37 0.755-0.37 2.23 0 1.11 0.238 1.78 0.365 1.03 1.25 1.03z" clip-path="url(#ek)" aria-label="10"/>
<g fill="none" stroke="#000" stroke-miterlimit="10" stroke-width=".5">
<path transform="matrix(.251 0 0 -.251 0 62)" d="m180 35.4v-2.1" clip-path="url(#ej)"/>
<path transform="matrix(.251 0 0 -.251 0 62)" d="m187 35.4v-2.1" clip-path="url(#ei)"/>
<path transform="matrix(.251 0 0 -.251 0 62)" d="m192 35.4v-2.1" clip-path="url(#aa)"/>
<path transform="matrix(.251 0 0 -.251 0 62)" d="m196 35.4v-2.1" clip-path="url(#ab)"/>
<path transform="matrix(.251 0 0 -.251 0 62)" d="m199 35.4v-2.1" clip-path="url(#ac)"/>
<path transform="matrix(.251 0 0 -.251 0 62)" d="m202 35.4v-2.1" clip-path="url(#ad)"/>
<path transform="matrix(.251 0 0 -.251 0 62)" d="m204 35.4v-2.1" clip-path="url(#ae)"/>
<path transform="matrix(.251 0 0 -.251 0 62)" d="m206 35.4v-2.1" clip-path="url(#af)"/>
<path transform="matrix(.251 0 0 -.251 0 62)" d="m208 37.5v-4.2" clip-path="url(#ag)"/>
</g>
<path transform="translate(53.7 56.4) scale(.251)" d="m0.663-3.43v-0.466q0.659-0.0642 0.919-0.213 0.26-0.152 0.389-0.713h0.48v4.82h-0.649v-3.43z" clip-path="url(#ah)" aria-label="1"/>
<path transform="translate(52.8 56.4) scale(.251)" d="M.13-1.945H3.67v.329H.13z" clip-path="url(#ai)" aria-label="−"/>
<path transform="translate(50 57.5) scale(.251)" d="m0.994-5.14v-0.7q0.989-0.0963 1.38-0.319 0.39-0.228 0.583-1.07h0.72v7.23h-0.974v-5.14zm7.59-2.12q1.41 0 2.04 1.16 0.487 0.897 0.487 2.46 0 1.48-0.441 2.45-0.639 1.39-2.09 1.39-1.31 0-1.95-1.14-0.532-0.948-0.532-2.55 0-1.24 0.319-2.12 0.598-1.65 2.17-1.65zm-0.0101 6.63q0.71 0 1.13-0.629 0.421-0.629 0.421-2.34 0-1.24-0.304-2.03-0.304-0.801-1.18-0.801-0.806 0-1.18 0.761-0.37 0.755-0.37 2.23 0 1.11 0.238 1.78 0.365 1.03 1.25 1.03z" clip-path="url(#aj)" aria-label="10"/>
<g fill="none" stroke="#000" stroke-miterlimit="10" stroke-width=".5">
<path transform="matrix(.251 0 0 -.251 0 62)" d="m220 35.4v-2.1" clip-path="url(#ak)"/>
<path transform="matrix(.251 0 0 -.251 0 62)" d="m227 35.4v-2.1" clip-path="url(#al)"/>
<path transform="matrix(.251 0 0 -.251 0 62)" d="m232 35.4v-2.1" clip-path="url(#am)"/>
<path transform="matrix(.251 0 0 -.251 0 62)" d="m236 35.4v-2.1" clip-path="url(#an)"/>
<path transform="matrix(.251 0 0 -.251 0 62)" d="m239 35.4v-2.1" clip-path="url(#ao)"/>
<path transform="matrix(.251 0 0 -.251 0 62)" d="m242 35.4v-2.1" clip-path="url(#ap)"/>
<path transform="matrix(.251 0 0 -.251 0 62)" d="m244 35.4v-2.1" clip-path="url(#aq)"/>
<path transform="matrix(.251 0 0 -.251 0 62)" d="m246 35.4v-2.1" clip-path="url(#ar)"/>
<path transform="matrix(.251 0 0 -.251 0 62)" d="m248 37.5v-4.2" clip-path="url(#as)"/>
</g>
<path transform="translate(61.7 57.6) scale(.251)" d="m0.994-5.14v-0.7q0.989-0.0963 1.38-0.319 0.39-0.228 0.583-1.07h0.72v7.23h-0.974v-5.14z" clip-path="url(#at)" aria-label="1"/>
<g fill="none" stroke="#000" stroke-miterlimit="10" stroke-width=".5">
<path transform="matrix(.251 0 0 -.251 0 62)" d="m260 35.4v-2.1" clip-path="url(#au)"/>
<path transform="matrix(.251 0 0 -.251 0 62)" d="m267 35.4v-2.1" clip-path="url(#av)"/>
<path transform="matrix(.251 0 0 -.251 0 62)" d="m272 35.4v-2.1" clip-path="url(#aw)"/>
<path transform="matrix(.251 0 0 -.251 0 62)" d="m276 35.4v-2.1" clip-path="url(#ax)"/>
<path transform="matrix(.251 0 0 -.251 0 62)" d="m279 35.4v-2.1" clip-path="url(#ay)"/>
<path transform="matrix(.251 0 0 -.251 0 62)" d="m281 35.4v-2.1" clip-path="url(#az)"/>
<path transform="matrix(.251 0 0 -.251 0 62)" d="m284 35.4v-2.1" clip-path="url(#aA)"/>
<path transform="matrix(.251 0 0 -.251 0 62)" d="m286 35.4v-2.1" clip-path="url(#aB)"/>
<path transform="matrix(.251 0 0 -.251 0 62)" d="m287 37.5v-4.2" clip-path="url(#aC)"/>
</g>
<path transform="translate(70.8 57.6) scale(.251)" d="m0.994-5.14v-0.7q0.989-0.0963 1.38-0.319 0.39-0.228 0.583-1.07h0.72v7.23h-0.974v-5.14zm7.59-2.12q1.41 0 2.04 1.16 0.487 0.897 0.487 2.46 0 1.48-0.441 2.45-0.639 1.39-2.09 1.39-1.31 0-1.95-1.14-0.532-0.948-0.532-2.55 0-1.24 0.319-2.12 0.598-1.65 2.17-1.65zm-0.0101 6.63q0.71 0 1.13-0.629 0.421-0.629 0.421-2.34 0-1.24-0.304-2.03-0.304-0.801-1.18-0.801-0.806 0-1.18 0.761-0.37 0.755-0.37 2.23 0 1.11 0.238 1.78 0.365 1.03 1.25 1.03z" clip-path="url(#aD)" aria-label="10"/>
<g fill="none" stroke="#000" stroke-miterlimit="10" stroke-width=".5">
<path transform="matrix(.251 0 0 -.251 0 62)" d="m41.3 232h254" clip-path="url(#aE)"/>
<path transform="matrix(.251 0 0 -.251 0 62)" d="m43.1 230v2.1" clip-path="url(#aF)"/>
<path transform="matrix(.251 0 0 -.251 0 62)" d="m45.4 230v2.1" clip-path="url(#aG)"/>
<path transform="matrix(.251 0 0 -.251 0 62)" d="m47.5 230v2.1" clip-path="url(#aH)"/>
<path transform="matrix(.251 0 0 -.251 0 62)" d="m49.3 228v4.2" clip-path="url(#aI)"/>
<path transform="matrix(.251 0 0 -.251 0 62)" d="m61.2 230v2.1" clip-path="url(#aJ)"/>
<path transform="matrix(.251 0 0 -.251 0 62)" d="m68.2 230v2.1" clip-path="url(#aK)"/>
<path transform="matrix(.251 0 0 -.251 0 62)" d="m73.2 230v2.1" clip-path="url(#aL)"/>
<path transform="matrix(.251 0 0 -.251 0 62)" d="m77 230v2.1" clip-path="url(#aM)"/>
<path transform="matrix(.251 0 0 -.251 0 62)" d="m80.2 230v2.1" clip-path="url(#aN)"/>
<path transform="matrix(.251 0 0 -.251 0 62)" d="m82.8 230v2.1" clip-path="url(#aO)"/>
<path transform="matrix(.251 0 0 -.251 0 62)" d="m85.1 230v2.1" clip-path="url(#aP)"/>
<path transform="matrix(.251 0 0 -.251 0 62)" d="m87.2 230v2.1" clip-path="url(#aQ)"/>
<path transform="matrix(.251 0 0 -.251 0 62)" d="m89 228v4.2" clip-path="url(#aR)"/>
<path transform="matrix(.251 0 0 -.251 0 62)" d="m101 230v2.1" clip-path="url(#aS)"/>
<path transform="matrix(.251 0 0 -.251 0 62)" d="m108 230v2.1" clip-path="url(#aT)"/>
<path transform="matrix(.251 0 0 -.251 0 62)" d="m113 230v2.1" clip-path="url(#aU)"/>
<path transform="matrix(.251 0 0 -.251 0 62)" d="m117 230v2.1" clip-path="url(#aV)"/>
<path transform="matrix(.251 0 0 -.251 0 62)" d="m120 230v2.1" clip-path="url(#aW)"/>
<path transform="matrix(.251 0 0 -.251 0 62)" d="m123 230v2.1" clip-path="url(#aX)"/>
<path transform="matrix(.251 0 0 -.251 0 62)" d="m125 230v2.1" clip-path="url(#aY)"/>
<path transform="matrix(.251 0 0 -.251 0 62)" d="m127 230v2.1" clip-path="url(#aZ)"/>
<path transform="matrix(.251 0 0 -.251 0 62)" d="m129 228v4.2" clip-path="url(#ba)"/>
<path transform="matrix(.251 0 0 -.251 0 62)" d="m141 230v2.1" clip-path="url(#bb)"/>
<path transform="matrix(.251 0 0 -.251 0 62)" d="m148 230v2.1" clip-path="url(#bc)"/>
<path transform="matrix(.251 0 0 -.251 0 62)" d="m153 230v2.1" clip-path="url(#bd)"/>
<path transform="matrix(.251 0 0 -.251 0 62)" d="m156 230v2.1" clip-path="url(#be)"/>
<path transform="matrix(.251 0 0 -.251 0 62)" d="m160 230v2.1" clip-path="url(#bf)"/>
<path transform="matrix(.251 0 0 -.251 0 62)" d="m162 230v2.1" clip-path="url(#bg)"/>
<path transform="matrix(.251 0 0 -.251 0 62)" d="m165 230v2.1" clip-path="url(#bh)"/>
<path transform="matrix(.251 0 0 -.251 0 62)" d="m167 230v2.1" clip-path="url(#bi)"/>
<path transform="matrix(.251 0 0 -.251 0 62)" d="m168 228v4.2" clip-path="url(#bj)"/>
<path transform="matrix(.251 0 0 -.251 0 62)" d="m180 230v2.1" clip-path="url(#bk)"/>
<path transform="matrix(.251 0 0 -.251 0 62)" d="m187 230v2.1" clip-path="url(#bl)"/>
<path transform="matrix(.251 0 0 -.251 0 62)" d="m192 230v2.1" clip-path="url(#bm)"/>
<path transform="matrix(.251 0 0 -.251 0 62)" d="m196 230v2.1" clip-path="url(#bn)"/>
<path transform="matrix(.251 0 0 -.251 0 62)" d="m199 230v2.1" clip-path="url(#bo)"/>
<path transform="matrix(.251 0 0 -.251 0 62)" d="m202 230v2.1" clip-path="url(#bp)"/>
<path transform="matrix(.251 0 0 -.251 0 62)" d="m204 230v2.1" clip-path="url(#bq)"/>
<path transform="matrix(.251 0 0 -.251 0 62)" d="m206 230v2.1" clip-path="url(#br)"/>
<path transform="matrix(.251 0 0 -.251 0 62)" d="m208 228v4.2" clip-path="url(#bs)"/>
<path transform="matrix(.251 0 0 -.251 0 62)" d="m220 230v2.1" clip-path="url(#bt)"/>
<path transform="matrix(.251 0 0 -.251 0 62)" d="m227 230v2.1" clip-path="url(#bu)"/>
<path transform="matrix(.251 0 0 -.251 0 62)" d="m232 230v2.1" clip-path="url(#bv)"/>
<path transform="matrix(.251 0 0 -.251 0 62)" d="m236 230v2.1" clip-path="url(#bw)"/>
<path transform="matrix(.251 0 0 -.251 0 62)" d="m239 230v2.1" clip-path="url(#bx)"/>
<path transform="matrix(.251 0 0 -.251 0 62)" d="m242 230v2.1" clip-path="url(#by)"/>
<path transform="matrix(.251 0 0 -.251 0 62)" d="m244 230v2.1" clip-path="url(#bz)"/>
<path transform="matrix(.251 0 0 -.251 0 62)" d="m246 230v2.1" clip-path="url(#bA)"/>
<path transform="matrix(.251 0 0 -.251 0 62)" d="m248 228v4.2" clip-path="url(#bB)"/>
<path transform="matrix(.251 0 0 -.251 0 62)" d="m260 230v2.1" clip-path="url(#bC)"/>
<path transform="matrix(.251 0 0 -.251 0 62)" d="m267 230v2.1" clip-path="url(#bD)"/>
<path transform="matrix(.251 0 0 -.251 0 62)" d="m272 230v2.1" clip-path="url(#bE)"/>
<path transform="matrix(.251 0 0 -.251 0 62)" d="m276 230v2.1" clip-path="url(#bF)"/>
<path transform="matrix(.251 0 0 -.251 0 62)" d="m279 230v2.1" clip-path="url(#bG)"/>
<path transform="matrix(.251 0 0 -.251 0 62)" d="m281 230v2.1" clip-path="url(#bH)"/>
<path transform="matrix(.251 0 0 -.251 0 62)" d="m284 230v2.1" clip-path="url(#bI)"/>
<path transform="matrix(.251 0 0 -.251 0 62)" d="m286 230v2.1" clip-path="url(#bJ)"/>
<path transform="matrix(.251 0 0 -.251 0 62)" d="m287 228v4.2" clip-path="url(#bK)"/>
<path transform="matrix(.251 0 0 -.251 0 62)" d="m41.3 33.3v199" clip-path="url(#bL)"/>
</g>
<path transform="rotate(-90 6.92 4.02) scale(.251)" d="m3.53-8.69q-0.914 1.78-1.19 2.61-0.413 1.27-0.413 2.95 0 1.69 0.472 3.09 0.291 0.862 1.15 2.48h-0.704q-0.85-1.33-1.05-1.69-0.204-0.367-0.442-0.996-0.326-0.862-0.454-1.84-0.064-0.506-0.064-0.966 0-1.72 0.541-3.07 0.343-0.856 1.43-2.56zm7.57 0.14v1.02h-2.88v7.53h-1.18v-7.53h-2.88v-1.02zm3.52 2.18q0.664 0 1.29 0.314 0.623 0.309 0.949 0.803 0.314 0.472 0.419 1.1 0.0932 0.431 0.0932 1.37h-4.57q0.0291 0.949 0.448 1.53 0.419 0.571 1.3 0.571 0.821 0 1.31-0.541 0.279-0.314 0.396-0.728h1.03q-0.0408 0.343-0.274 0.768-0.227 0.419-0.512 0.687-0.477 0.466-1.18 0.629-0.378 0.0931-0.856 0.0931-1.16 0-1.97-0.844-0.809-0.85-0.809-2.38 0-1.5 0.815-2.44t2.13-0.937zm1.67 2.76q-0.064-0.681-0.297-1.09-0.431-0.757-1.44-0.757-0.722 0-1.21 0.524-0.489 0.518-0.518 1.32zm-1.77-2.77m4.95-2.17 2.46 7.28 2.43-7.28h1.3l-3.12 8.55h-1.23l-3.11-8.55zm6.78 11q0.926-1.8 1.19-2.63 0.408-1.25 0.408-2.93t-0.472-3.08q-0.291-0.862-1.15-2.48h0.704q0.897 1.43 1.08 1.77 0.192 0.332 0.413 0.92 0.279 0.728 0.396 1.44 0.122 0.71 0.122 1.37 0 1.72-0.547 3.07-0.343 0.867-1.43 2.56z" clip-path="url(#bM)" aria-label="(TeV)"/>
<path transform="rotate(-90 8.25 4.78) scale(.251)" d="m2.39-5.12q0.592 0 1.03 0.291 0.239 0.164 0.488 0.479v-0.634h0.779v4.57q0 0.958-0.282 1.51-0.526 1.02-1.99 1.02-0.812 0-1.37-0.366-0.554-0.362-0.62-1.14h0.859q0.061 0.338 0.244 0.521 0.286 0.282 0.901 0.282 0.972 0 1.27-0.685 0.178-0.404 0.164-1.44-0.254 0.385-0.61 0.573-0.357 0.188-0.944 0.188-0.817 0-1.43-0.577-0.61-0.582-0.61-1.92 0-1.26 0.615-1.97 0.62-0.709 1.49-0.709zm1.52 2.58q0-0.934-0.385-1.38-0.385-0.451-0.981-0.451-0.892 0-1.22 0.836-0.174 0.446-0.174 1.17 0 0.85 0.343 1.3 0.347 0.441 0.93 0.441 0.911 0 1.28-0.822 0.207-0.465 0.207-1.08z" clip-path="url(#bN)" aria-label="g"/>
<path transform="rotate(-90 7.67 5.31) scale(.251)" d="m1.54-3.25q0.136 0 0.286 0.0235 0.268 0.0376 0.516 0.136l1.04 0.408q0.239 0.0939 0.394 0.141 0.249 0.0704 0.437 0.0704 0.343 0 0.582-0.268 0.239-0.272 0.324-0.667h0.545q-0.117 0.667-0.465 1.22-0.343 0.549-1.04 0.549-0.211 0-0.502-0.0845-0.169-0.0516-0.502-0.178l-0.958-0.366q-0.178-0.0704-0.371-0.108-0.188-0.0376-0.31-0.0376-0.394 0-0.62 0.305-0.131 0.178-0.268 0.606h-0.549q0.0798-0.39 0.174-0.662 0.0939-0.277 0.329-0.624 0.197-0.235 0.423-0.347 0.23-0.113 0.535-0.113z" clip-path="url(#bO)" aria-label="~"/>
<path transform="rotate(-90 9.32 6.42) scale(.251)" d="m0.768-6.24h1.04v0.885q0.373-0.46 0.675-0.67 0.518-0.355 1.18-0.355 0.745 0 1.2 0.367 0.256 0.21 0.466 0.617 0.349-0.501 0.821-0.739 0.472-0.245 1.06-0.245 1.26 0 1.71 0.908 0.245 0.489 0.245 1.32v4.15h-1.09v-4.33q0-0.623-0.314-0.856-0.309-0.233-0.757-0.233-0.617 0-1.07 0.413-0.442 0.413-0.442 1.38v3.63h-1.07v-4.07q0-0.635-0.151-0.926-0.239-0.437-0.891-0.437-0.594 0-1.08 0.46-0.483 0.46-0.483 1.67v3.31h-1.05z" clip-path="url(#bP)" aria-label="m"/>
<g fill="none" stroke="#000" stroke-miterlimit="10" stroke-width=".5">
<path transform="matrix(.251 0 0 -.251 0 62)" d="m45.9 33.3h-4.59" clip-path="url(#bQ)"/>
<path transform="matrix(.251 0 0 -.251 0 62)" d="m43.6 42.8h-2.3" clip-path="url(#bR)"/>
<path transform="matrix(.251 0 0 -.251 0 62)" d="m43.6 52.3h-2.3" clip-path="url(#bS)"/>
<path transform="matrix(.251 0 0 -.251 0 62)" d="m43.6 61.7h-2.3" clip-path="url(#bT)"/>
<path transform="matrix(.251 0 0 -.251 0 62)" d="m43.6 71.2h-2.3" clip-path="url(#bU)"/>
<path transform="matrix(.251 0 0 -.251 0 62)" d="m45.9 80.7h-4.59" clip-path="url(#bV)"/>
<path transform="matrix(.251 0 0 -.251 0 62)" d="m43.6 90.1h-2.3" clip-path="url(#bW)"/>
<path transform="matrix(.251 0 0 -.251 0 62)" d="m43.6 99.6h-2.3" clip-path="url(#bX)"/>
<path transform="matrix(.251 0 0 -.251 0 62)" d="m43.6 109h-2.3" clip-path="url(#bY)"/>
<path transform="matrix(.251 0 0 -.251 0 62)" d="m43.6 119h-2.3" clip-path="url(#bZ)"/>
<path transform="matrix(.251 0 0 -.251 0 62)" d="m45.9 128h-4.59" clip-path="url(#ca)"/>
<path transform="matrix(.251 0 0 -.251 0 62)" d="m43.6 137h-2.3" clip-path="url(#cb)"/>
<path transform="matrix(.251 0 0 -.251 0 62)" d="m43.6 147h-2.3" clip-path="url(#cc)"/>
<path transform="matrix(.251 0 0 -.251 0 62)" d="m43.6 156h-2.3" clip-path="url(#cd)"/>
<path transform="matrix(.251 0 0 -.251 0 62)" d="m43.6 166h-2.3" clip-path="url(#ce)"/>
<path transform="matrix(.251 0 0 -.251 0 62)" d="m45.9 175h-4.59" clip-path="url(#cf)"/>
<path transform="matrix(.251 0 0 -.251 0 62)" d="m43.6 185h-2.3" clip-path="url(#cg)"/>
<path transform="matrix(.251 0 0 -.251 0 62)" d="m43.6 194h-2.3" clip-path="url(#ch)"/>
<path transform="matrix(.251 0 0 -.251 0 62)" d="m43.6 204h-2.3" clip-path="url(#ci)"/>
<path transform="matrix(.251 0 0 -.251 0 62)" d="m43.6 213h-2.3" clip-path="url(#cj)"/>
<path transform="matrix(.251 0 0 -.251 0 62)" d="m45.9 223h-4.59" clip-path="url(#ck)"/>
<path transform="matrix(.251 0 0 -.251 0 62)" d="m45.9 223h-4.59" clip-path="url(#cl)"/>
<path transform="matrix(.251 0 0 -.251 0 62)" d="m43.6 232h-2.3" clip-path="url(#cm)"/>
</g>
<path transform="translate(8.01 54.5) scale(.251)" d="m2.81-7.26q1.41 0 2.04 1.16 0.487 0.897 0.487 2.46 0 1.48-0.441 2.45-0.639 1.39-2.09 1.39-1.31 0-1.95-1.14-0.532-0.948-0.532-2.55 0-1.24 0.319-2.12 0.598-1.65 2.17-1.65zm-0.0101 6.63q0.71 0 1.13-0.629 0.421-0.629 0.421-2.34 0-1.24-0.304-2.03-0.304-0.801-1.18-0.801-0.806 0-1.18 0.761-0.37 0.755-0.37 2.23 0 1.11 0.238 1.78 0.365 1.03 1.25 1.03z" clip-path="url(#cn)" aria-label="0"/>
<path transform="translate(5.79 42.7) scale(.251)" d="m2.81-7.26q1.41 0 2.04 1.16 0.487 0.897 0.487 2.46 0 1.48-0.441 2.45-0.639 1.39-2.09 1.39-1.31 0-1.95-1.14-0.532-0.948-0.532-2.55 0-1.24 0.319-2.12 0.598-1.65 2.17-1.65zm-0.0101 6.63q0.71 0 1.13-0.629 0.421-0.629 0.421-2.34 0-1.24-0.304-2.03-0.304-0.801-1.18-0.801-0.806 0-1.18 0.761-0.37 0.755-0.37 2.23 0 1.11 0.238 1.78 0.365 1.03 1.25 1.03zm3.86-0.472h1.06v1.11h-1.06zm3.28-0.745q0.0913 0.781 0.725 1.08 0.324 0.152 0.75 0.152 0.811 0 1.2-0.517 0.39-0.517 0.39-1.15 0-0.761-0.466-1.18-0.461-0.416-1.11-0.416-0.472 0-0.811 0.183-0.335 0.183-0.573 0.507l-0.791-0.0456 0.553-3.91h3.77v0.882h-3.09l-0.309 2.02q0.254-0.193 0.482-0.289 0.406-0.167 0.938-0.167 0.999 0 1.69 0.644t0.695 1.63q0 1.03-0.639 1.82-0.634 0.786-2.03 0.786-0.887 0-1.57-0.497-0.679-0.502-0.761-1.54z" clip-path="url(#co)" aria-label="0.5"/>
<path transform="translate(8.4 30.9) scale(.251)" d="m0.994-5.14v-0.7q0.989-0.0963 1.38-0.319 0.39-0.228 0.583-1.07h0.72v7.23h-0.974v-5.14z" clip-path="url(#cp)" aria-label="1"/>
<path transform="translate(5.79 18.9) scale(.251)" d="m0.994-5.14v-0.7q0.989-0.0963 1.38-0.319 0.39-0.228 0.583-1.07h0.72v7.23h-0.974v-5.14zm5.67 4.04h1.06v1.11h-1.06zm3.28-0.745q0.0913 0.781 0.725 1.08 0.324 0.152 0.75 0.152 0.811 0 1.2-0.517 0.39-0.517 0.39-1.15 0-0.761-0.466-1.18-0.461-0.416-1.11-0.416-0.472 0-0.811 0.183-0.335 0.183-0.573 0.507l-0.791-0.0456 0.553-3.91h3.77v0.882h-3.09l-0.309 2.02q0.254-0.193 0.482-0.289 0.406-0.167 0.938-0.167 0.999 0 1.69 0.644t0.695 1.63q0 1.03-0.639 1.82-0.634 0.786-2.03 0.786-0.887 0-1.57-0.497-0.679-0.502-0.761-1.54z" clip-path="url(#cq)" aria-label="1.5"/>
<path transform="translate(8.01 7.14) scale(.251)" d="m0.324 0q0.0507-0.938 0.385-1.63 0.34-0.695 1.32-1.26l0.973-0.563q0.654-0.38 0.918-0.649 0.416-0.421 0.416-0.963 0-0.634-0.38-1-0.38-0.375-1.01-0.375-0.938 0-1.3 0.71-0.193 0.38-0.213 1.05h-0.928q0.0152-0.948 0.35-1.55 0.593-1.05 2.09-1.05 1.25 0 1.82 0.674 0.578 0.674 0.578 1.5 0 0.872-0.614 1.49-0.355 0.36-1.27 0.872l-0.695 0.385q-0.497 0.274-0.781 0.522-0.507 0.441-0.639 0.979h3.96v0.862z" clip-path="url(#cr)" aria-label="2"/>
<g fill="none" stroke="#000" stroke-miterlimit="10" stroke-width=".5">
<path transform="matrix(.251 0 0 -.251 0 62)" d="m295 33.3v199" clip-path="url(#cs)"/>
<path transform="matrix(.251 0 0 -.251 0 62)" d="m291 33.3h4.59" clip-path="url(#ct)"/>
<path transform="matrix(.251 0 0 -.251 0 62)" d="m293 42.8h2.3" clip-path="url(#cu)"/>
<path transform="matrix(.251 0 0 -.251 0 62)" d="m293 52.3h2.3" clip-path="url(#cv)"/>
<path transform="matrix(.251 0 0 -.251 0 62)" d="m293 61.7h2.3" clip-path="url(#cw)"/>
<path transform="matrix(.251 0 0 -.251 0 62)" d="m293 71.2h2.3" clip-path="url(#cx)"/>
<path transform="matrix(.251 0 0 -.251 0 62)" d="m291 80.7h4.59" clip-path="url(#cy)"/>
<path transform="matrix(.251 0 0 -.251 0 62)" d="m293 90.1h2.3" clip-path="url(#cz)"/>
<path transform="matrix(.251 0 0 -.251 0 62)" d="m293 99.6h2.3" clip-path="url(#cA)"/>
<path transform="matrix(.251 0 0 -.251 0 62)" d="m293 109h2.3" clip-path="url(#cB)"/>
<path transform="matrix(.251 0 0 -.251 0 62)" d="m293 119h2.3" clip-path="url(#cC)"/>
<path transform="matrix(.251 0 0 -.251 0 62)" d="m291 128h4.59" clip-path="url(#cD)"/>
<path transform="matrix(.251 0 0 -.251 0 62)" d="m293 137h2.3" clip-path="url(#cE)"/>
<path transform="matrix(.251 0 0 -.251 0 62)" d="m293 147h2.3" clip-path="url(#cF)"/>
<path transform="matrix(.251 0 0 -.251 0 62)" d="m293 156h2.3" clip-path="url(#cG)"/>
<path transform="matrix(.251 0 0 -.251 0 62)" d="m293 166h2.3" clip-path="url(#cH)"/>
<path transform="matrix(.251 0 0 -.251 0 62)" d="m291 175h4.59" clip-path="url(#cI)"/>
<path transform="matrix(.251 0 0 -.251 0 62)" d="m293 185h2.3" clip-path="url(#cJ)"/>
<path transform="matrix(.251 0 0 -.251 0 62)" d="m293 194h2.3" clip-path="url(#cK)"/>
<path transform="matrix(.251 0 0 -.251 0 62)" d="m293 204h2.3" clip-path="url(#cL)"/>
<path transform="matrix(.251 0 0 -.251 0 62)" d="m293 213h2.3" clip-path="url(#cM)"/>
<path transform="matrix(.251 0 0 -.251 0 62)" d="m291 223h4.59" clip-path="url(#cN)"/>
<path transform="matrix(.251 0 0 -.251 0 62)" d="m291 223h4.59" clip-path="url(#cO)"/>
<path transform="matrix(.251 0 0 -.251 0 62)" d="m293 232h2.3" clip-path="url(#cP)"/>
</g>
<path transform="matrix(.251 0 0 -.251 0 62)" d="m49.3 92.2 4.86 1.82 4.86 2.58 4.86 3.23 4.86 3.79 4.86 4.25 4.86 4.62 4.86 4.88 4.86 5.05 9.72 10.3 4.86 5.06 4.86 4.92 4.86 4.72 4.86 4.45 4.86 4.11 4.86 3.71 4.86 3.24 4.86 2.78 4.86 2.35 4.86 1.96 4.86 1.61 4.86 1.29 4.86 1.02 4.86 0.783 4.86 0.584 4.86 0.409 4.86 0.237 4.86 0.07 4.86-0.092 4.86-0.25 4.86-0.402 4.86-0.551 4.86-0.696 4.86-0.846 4.86-1.02 4.86-1.21 4.86-1.43 4.86-1.67 4.86-1.94 4.86-2.23 4.86-2.54 4.86-2.88 4.86-3.24 4.86-3.62 4.86-4.04 4.86-4.48 4.86-4.95 4.86-5.44 4.86-5.96v15.5l-4.86 5.92-4.86 5.3-4.86 4.72-4.86 4.17-4.86 3.66-4.86 3.18-4.86 2.75-4.86 2.35-4.86 1.99-4.86 1.66-4.86 1.36-4.86 1.1-4.86 0.874-4.86 0.682-4.86 0.522-4.86 0.395-4.86 0.303-4.86 0.22-4.86 0.139-4.86 0.056-4.86-0.028-4.86-0.113-4.86-0.198-4.86-0.284-4.86-0.372-4.86-0.488-4.86-0.66-4.86-0.884-4.86-1.17-4.86-1.5-4.86-1.9-4.86-2.35-4.86-2.85-4.86-3.36-4.86-3.81-4.86-4.18-4.86-4.49-4.86-4.72-4.86-4.89-4.86-4.98-4.86-5-4.86-4.94-4.86-4.78-4.86-4.51-4.86-4.13-4.86-3.64-4.86-3.04-4.86-2.34-4.86-1.53" clip-path="url(#cQ)" fill="#f2e4d9" fill-rule="evenodd"/>
<path transform="matrix(.251 0 0 -.251 0 62)" d="m49.3 101 4.86 0.951 4.86 1.79 4.86 2.54 4.86 3.18 4.86 3.71 4.86 4.15 4.86 4.49 4.86 4.72 4.86 4.86 9.72 9.83 4.86 4.83 4.86 4.67 4.86 4.45 4.86 4.15 4.86 3.79 4.86 3.36 4.86 2.92 4.86 2.52 4.86 2.15 4.86 1.81 4.86 1.5 4.86 1.23 4.86 0.993 4.86 0.786 4.86 0.594 4.86 0.401 4.86 0.203 4.86 3e-3 4.86-0.202 4.86-0.408 4.86-0.619 4.86-0.832 4.86-1.05 4.86-1.27 4.86-1.48 4.86-1.7 4.86-1.93 4.86-2.15 4.86-2.37 4.86-2.6 4.86-2.82 4.86-3.04 4.86-3.26 4.86-3.47 4.86-3.68 4.86-3.89 4.86-4.09 4.86-4.29" clip-path="url(#cR)" fill="none" stroke="#cf6416" stroke-miterlimit="10"/>
<path transform="matrix(.251 0 0 -.251 0 62)" d="m46.7 101c0 3.49 5.23 3.49 5.23 0s-5.23-3.49-5.23 0zm39.7 26.3c0 3.49 5.23 3.49 5.23 0s-5.23-3.49-5.23 0zm39.7 36.9c0 3.49 5.23 3.49 5.23 0s-5.23-3.49-5.23 0zm39.7 15.7c0 3.49 5.23 3.49 5.23 0s-5.23-3.49-5.23 0zm39.7-0.19c0 3.49 5.23 3.49 5.23 0s-5.23-3.49-5.23 0zm39.7-14.4c0 3.49 5.23 3.49 5.23 0s-5.23-3.49-5.23 0zm39.7-29c0 3.49 5.23 3.49 5.23 0s-5.23-3.49-5.23 0z" clip-path="url(#cS)" fill="#cf6416"/>
<g stroke-miterlimit="10">
<path transform="matrix(.251 0 0 -.251 0 62)" d="m49.3 137 39.7 2.84 39.7 10.2 39.7-2.65 39.7-10.3 39.7-7 39.7-1.32" clip-path="url(#cT)" fill="none" stroke="#b71414" stroke-dasharray="3, 3" stroke-width="1.5"/>
<path transform="matrix(.251 0 0 -.251 0 62)" d="m46.2 137c0 4.1 6.15 4.1 6.15 0 0-4.1-6.15-4.1-6.15 0zm39.7 2.84c0 4.1 6.15 4.1 6.15 0 0-4.1-6.15-4.1-6.15 0zm39.7 10.2c0 4.1 6.15 4.1 6.15 0 0-4.1-6.15-4.1-6.15 0zm39.7-2.65c0 4.1 6.15 4.1 6.15 0 0-4.1-6.15-4.1-6.15 0zm39.7-10.3c0 4.1 6.15 4.1 6.15 0 0-4.1-6.15-4.1-6.15 0zm39.7-7c0 4.1 6.15 4.1 6.15 0 0-4.1-6.15-4.1-6.15 0zm39.7-1.32c0 4.1 6.15 4.1 6.15 0 0-4.1-6.15-4.1-6.15 0z" clip-path="url(#cU)" fill="none" stroke="#b71414" stroke-width=".5"/>
<path transform="matrix(.251 0 0 -.251 0 62)" d="m50.5 195v27.2z" clip-path="url(#cV)" fill="#f2f2f2" fill-rule="evenodd" stroke="#f2f2f2" stroke-width=".002"/>
</g>
<path transform="translate(12.6 7.82) scale(.251)" d="m1.34-2.23q0.0329 0.587 0.277 0.953 0.465 0.685 1.64 0.685 0.526 0 0.958-0.15 0.836-0.291 0.836-1.04 0-0.563-0.352-0.803-0.357-0.235-1.12-0.408l-0.934-0.211q-0.915-0.207-1.3-0.455-0.657-0.432-0.657-1.29 0-0.93 0.643-1.53 0.643-0.596 1.82-0.596 1.08 0 1.84 0.526 0.761 0.521 0.761 1.67h-0.878q-0.0704-0.554-0.3-0.85-0.427-0.54-1.45-0.54-0.826 0-1.19 0.347-0.362 0.347-0.362 0.808 0 0.507 0.423 0.742 0.277 0.15 1.25 0.376l0.967 0.221q0.7 0.16 1.08 0.437 0.657 0.484 0.657 1.4 0 1.15-0.836 1.64-0.831 0.493-1.93 0.493-1.29 0-2.01-0.657-0.728-0.653-0.714-1.77zm1.89-4.86m5.92 6.52q0.592 0 0.981-0.493 0.394-0.498 0.394-1.48 0-0.601-0.174-1.03-0.329-0.831-1.2-0.831-0.878 0-1.2 0.878-0.174 0.469-0.174 1.19 0 0.582 0.174 0.991 0.329 0.779 1.2 0.779zm-2.19-4.44h0.822v0.667q0.254-0.343 0.554-0.531 0.427-0.282 1-0.282 0.854 0 1.45 0.657 0.596 0.653 0.596 1.87 0 1.64-0.859 2.35-0.545 0.446-1.27 0.446-0.568 0-0.953-0.249-0.225-0.141-0.502-0.484v2.57h-0.845zm5.44-1.89h0.845v6.9h-0.845zm2.11 1.89h0.859v5h-0.859zm0-1.89h0.859v0.958h-0.859zm2.3 0.465h0.854v1.4h0.803v0.69h-0.803v3.28q0 0.263 0.178 0.352 0.0986 0.0516 0.329 0.0516 0.061 0 0.131 0 0.0704-0.0047 0.164-0.0141v0.667q-0.146 0.0423-0.305 0.061-0.155 0.0188-0.338 0.0188-0.592 0-0.803-0.3-0.211-0.305-0.211-0.789v-3.33h-0.681v-0.69h0.681zm5.9 4.21q0.0329 0.587 0.277 0.953 0.465 0.685 1.64 0.685 0.526 0 0.958-0.15 0.836-0.291 0.836-1.04 0-0.563-0.352-0.803-0.357-0.235-1.12-0.408l-0.934-0.211q-0.915-0.207-1.3-0.455-0.657-0.432-0.657-1.29 0-0.93 0.643-1.53 0.643-0.596 1.82-0.596 1.08 0 1.84 0.526 0.761 0.521 0.761 1.67h-0.878q-0.0704-0.554-0.3-0.85-0.427-0.54-1.45-0.54-0.826 0-1.19 0.347-0.362 0.347-0.362 0.808 0 0.507 0.423 0.742 0.277 0.15 1.25 0.376l0.967 0.221q0.7 0.16 1.08 0.437 0.657 0.484 0.657 1.4 0 1.15-0.836 1.64-0.831 0.493-1.93 0.493-1.29 0-2.01-0.657-0.728-0.653-0.714-1.77zm1.89-4.86m4.93 0.188v4.26q0 0.751 0.282 1.25 0.418 0.751 1.41 0.751 1.19 0 1.62-0.812 0.23-0.441 0.23-1.19v-4.26h0.948v3.87q0 1.27-0.343 1.96-0.629 1.25-2.38 1.25-1.75 0-2.37-1.25-0.343-0.685-0.343-1.96v-3.87zm1.77 0m4.77 4.67q0.0329 0.587 0.277 0.953 0.465 0.685 1.64 0.685 0.526 0 0.958-0.15 0.836-0.291 0.836-1.04 0-0.563-0.352-0.803-0.357-0.235-1.12-0.408l-0.934-0.211q-0.915-0.207-1.3-0.455-0.657-0.432-0.657-1.29 0-0.93 0.643-1.53 0.643-0.596 1.82-0.596 1.08 0 1.84 0.526 0.761 0.521 0.761 1.67h-0.878q-0.0704-0.554-0.3-0.85-0.427-0.54-1.45-0.54-0.826 0-1.19 0.347-0.362 0.347-0.362 0.808 0 0.507 0.423 0.742 0.277 0.15 1.25 0.376l0.967 0.221q0.7 0.16 1.08 0.437 0.657 0.484 0.657 1.4 0 1.15-0.836 1.64-0.831 0.493-1.93 0.493-1.29 0-2.01-0.657-0.728-0.653-0.714-1.77zm1.89-4.86m3.38 0.188h1.09l1.98 3.31 1.98-3.31h1.09l-2.61 4.12v2.78h-0.934v-2.78z" clip-path="url(#cW)" aria-label="Split SUSY"/>
<path transform="translate(45 11.3) scale(.251)" d="m0.92-4.76v-0.648q0.915-0.0892 1.28-0.296 0.362-0.211 0.54-0.991h0.667v6.69h-0.901v-4.76zm7.03-1.96q1.31 0 1.89 1.08 0.451 0.831 0.451 2.28 0 1.37-0.408 2.27-0.592 1.29-1.93 1.29-1.21 0-1.8-1.05-0.493-0.878-0.493-2.36 0-1.15 0.296-1.97 0.554-1.53 2-1.53zm-0.00939 6.14q0.657 0 1.05-0.582 0.39-0.582 0.39-2.17 0-1.15-0.282-1.88-0.282-0.742-1.09-0.742-0.746 0-1.09 0.704-0.343 0.7-0.343 2.07 0 1.03 0.221 1.65 0.338 0.953 1.15 0.953zm5.36-6.14q1.31 0 1.89 1.08 0.451 0.831 0.451 2.28 0 1.37-0.408 2.27-0.592 1.29-1.93 1.29-1.21 0-1.8-1.05-0.493-0.878-0.493-2.36 0-1.15 0.296-1.97 0.554-1.53 2-1.53zm-0.0094 6.14q0.657 0 1.05-0.582 0.39-0.582 0.39-2.17 0-1.15-0.282-1.88-0.282-0.742-1.09-0.742-0.746 0-1.09 0.704-0.343 0.7-0.343 2.07 0 1.03 0.221 1.65 0.338 0.953 1.15 0.953zm9.14-6.49q0.972 0 1.68 0.376 1.03 0.54 1.26 1.89h-0.925q-0.169-0.756-0.7-1.1-0.531-0.347-1.34-0.347-0.958 0-1.62 0.718-0.653 0.718-0.653 2.14 0 1.23 0.54 2 0.54 0.77 1.76 0.77 0.934 0 1.54-0.54 0.615-0.545 0.629-1.76h-2.16v-0.775h3.03v3.69h-0.601l-0.225-0.887q-0.474 0.521-0.84 0.723-0.615 0.347-1.56 0.347-1.23 0-2.11-0.793-0.962-0.995-0.962-2.73 0-1.73 0.939-2.76 0.892-0.977 2.31-0.977zm-0.155-0.00939m6.64 1.94q0.535 0 1.04 0.254 0.502 0.249 0.765 0.648 0.254 0.38 0.338 0.887 0.0751 0.347 0.0751 1.11h-3.69q0.0235 0.765 0.362 1.23 0.338 0.46 1.05 0.46 0.662 0 1.06-0.437 0.225-0.254 0.319-0.587h0.831q-0.0329 0.277-0.221 0.62-0.183 0.338-0.413 0.554-0.385 0.376-0.953 0.507-0.305 0.0751-0.69 0.0751-0.939 0-1.59-0.681-0.653-0.685-0.653-1.92 0-1.21 0.657-1.97t1.72-0.756zm1.35 2.23q-0.0516-0.549-0.239-0.878-0.347-0.61-1.16-0.61-0.582 0-0.977 0.423-0.394 0.418-0.418 1.07zm-1.43-2.23m3.99-1.75 1.98 5.87 1.96-5.87h1.05l-2.52 6.9h-0.991l-2.51-6.9z" clip-path="url(#cX)" aria-label="100 GeV"/>
<path transform="translate(43 11.3) scale(.251)" d="m5.33-3.86v0.789h-4.9v-0.789zm0 2.01v0.803h-4.9v-0.803z" clip-path="url(#cY)" aria-label="="/>
<path transform="translate(41.9 12.3) scale(.251)" d="m0.479-2.48v-0.337q0.476-0.0464 0.664-0.154 0.188-0.11 0.281-0.515h0.347v3.48h-0.469v-2.48z" clip-path="url(#cZ)" aria-label="1"/>
<path transform="translate(41.8 11.2) scale(.251)" d="m1.35-3.5q0.679 0 0.981 0.559 0.234 0.432 0.234 1.18 0 0.713-0.212 1.18-0.308 0.669-1.01 0.669-0.63 0-0.938-0.547-0.256-0.457-0.256-1.23 0-0.596 0.154-1.02 0.288-0.796 1.04-0.796zm-0.00488 3.19q0.342 0 0.544-0.303 0.203-0.303 0.203-1.13 0-0.596-0.146-0.979-0.146-0.386-0.569-0.386-0.388 0-0.569 0.366-0.178 0.364-0.178 1.07 0 0.535 0.115 0.859 0.176 0.496 0.601 0.496z" clip-path="url(#da)" aria-label="0"/>
<path transform="translate(40.7 11.7) scale(.251)" d="M3.624-3.443 2.224-.71l.247.955c.098.396.197.634.296.725a.509.509 0 0 0 .379.148.617.617 0 0 0 .445-.164c.12-.1.19-.272.214-.511h.132v.148c0 .317-.095.593-.28.824a.608.608 0 0 1-.495.247.655.655 0 0 1-.378-.115.815.815 0 0 1-.264-.33 3.236 3.236 0 0 1-.23-.593l-.231-.988L1.054 1.58H.395l1.433-2.817-.28-1.12c-.057-.24-.127-.4-.214-.478a.486.486 0 0 0-.346-.115.565.565 0 0 0-.412.164c-.098.112-.16.28-.18.511H.262c.009-.436.1-.766.264-.988a.563.563 0 0 1 .478-.247c.197 0 .35.074.46.214.12.144.207.337.264.576l.28 1.137.94-1.861z" clip-path="url(#db)" aria-label="χ"/>
<path transform="translate(40.7 10.8) scale(.251)" d="M3.836-2.554h.198c-.058.408-.181.709-.379.906a.933.933 0 0 1-.675.297c-.132 0-.28-.025-.445-.083a5.13 5.13 0 0 1-.741-.362c-.33-.185-.585-.28-.758-.28a.648.648 0 0 0-.445.181c-.123.111-.197.28-.23.51H.196c.041-.403.165-.707.362-.905.198-.198.416-.297.66-.297.13 0 .283.033.46.1.132.045.396.172.791.378.297.157.535.23.725.23.164 0 .296-.049.395-.147a.905.905 0 0 0 .247-.528z" clip-path="url(#dc)" aria-label="∼"/>
<path transform="translate(38.8 11.3) scale(.251)" d="m0.62-5.03h0.836v0.714q0.3-0.371 0.545-0.54 0.418-0.286 0.948-0.286 0.601 0 0.967 0.296 0.207 0.169 0.376 0.498 0.282-0.404 0.662-0.596 0.38-0.197 0.854-0.197 1.01 0 1.38 0.732 0.197 0.394 0.197 1.06v3.35h-0.878v-3.49q0-0.502-0.254-0.69-0.249-0.188-0.61-0.188-0.498 0-0.859 0.333-0.357 0.333-0.357 1.11v2.92h-0.859v-3.28q0-0.512-0.122-0.746-0.192-0.352-0.718-0.352-0.479 0-0.873 0.371-0.39 0.371-0.39 1.34v2.67h-0.845z" clip-path="url(#dd)" aria-label="m"/>
<path transform="translate(36.9 11.3) scale(.251)" d="M.18-2.7h4.925v.461H.18z" clip-path="url(#de)" aria-label="−"/>
<path transform="translate(35.3 11.7) scale(.251)" d="m1.92-4.09q0.473 0 0.826 0.233 0.192 0.131 0.391 0.383v-0.507h0.623v3.66q0 0.766-0.225 1.21-0.421 0.819-1.59 0.819-0.65 0-1.09-0.293-0.443-0.289-0.496-0.909h0.687q0.0488 0.27 0.195 0.417 0.229 0.225 0.721 0.225 0.777 0 1.02-0.548 0.143-0.323 0.131-1.15-0.203 0.308-0.488 0.458-0.285 0.15-0.755 0.15-0.654 0-1.15-0.462-0.488-0.466-0.488-1.54 0-1.01 0.492-1.58 0.496-0.567 1.19-0.567zm1.22 2.07q0-0.747-0.308-1.11-0.308-0.361-0.785-0.361-0.714 0-0.977 0.669-0.139 0.357-0.139 0.935 0 0.68 0.274 1.04 0.278 0.353 0.744 0.353 0.729 0 1.03-0.657 0.165-0.372 0.165-0.868z" clip-path="url(#df)" aria-label="g"/>
<path transform="translate(35.3 10.8) scale(.251)" d="m1.24-2.6q0.109 0 0.229 0.0188 0.214 0.03 0.413 0.109l0.834 0.327q0.192 0.0751 0.315 0.113 0.199 0.0563 0.349 0.0563 0.274 0 0.466-0.214 0.192-0.218 0.259-0.533h0.436q-0.0939 0.533-0.372 0.973-0.274 0.439-0.834 0.439-0.169 0-0.402-0.0676-0.135-0.0413-0.402-0.143l-0.766-0.293q-0.143-0.0563-0.297-0.0864-0.15-0.03-0.248-0.03-0.315 0-0.496 0.244-0.105 0.143-0.214 0.485h-0.439q0.0638-0.312 0.139-0.53 0.0751-0.222 0.263-0.5 0.158-0.188 0.338-0.278 0.184-0.0901 0.428-0.0901z" clip-path="url(#dg)" aria-label="~"/>
<path transform="translate(32.1 11.3) scale(.251)" d="m0.798 0.981q0.324-0.0563 0.455-0.455 0.0704-0.211 0.0704-0.408 0-0.0329-0.00469-0.061-4.4e-6 -0.0235-0.00939-0.0563h-0.512v-1.02h1v0.948q0 0.559-0.225 0.981-0.225 0.423-0.779 0.521zm5.17-6.01h0.836v0.714q0.3-0.371 0.545-0.54 0.418-0.286 0.948-0.286 0.601 0 0.967 0.296 0.207 0.169 0.376 0.498 0.282-0.404 0.662-0.596 0.38-0.197 0.854-0.197 1.01 0 1.38 0.732 0.197 0.394 0.197 1.06v3.35h-0.878v-3.49q0-0.502-0.254-0.69-0.249-0.188-0.61-0.188-0.498 0-0.859 0.333-0.357 0.333-0.357 1.11v2.92h-0.859v-3.28q0-0.512-0.122-0.746-0.192-0.352-0.718-0.352-0.479 0-0.873 0.371-0.39 0.371-0.39 1.34v2.67h-0.845z" clip-path="url(#dh)" aria-label=", m"/>
<path transform="translate(31.6 12) scale(.251)" d="m0.589-3.05v-0.415q0.586-0.0571 0.817-0.189 0.231-0.135 0.346-0.634h0.427v4.28h-0.577v-3.05z" clip-path="url(#di)" aria-label="1"/>
<path transform="translate(31.4 10.6) scale(.251)" d="m1.66-4.3q0.835 0 1.21 0.688 0.288 0.532 0.288 1.46 0 0.877-0.261 1.45-0.379 0.823-1.24 0.823-0.775 0-1.15-0.673-0.316-0.562-0.316-1.51 0-0.733 0.189-1.26 0.355-0.98 1.28-0.98zm-0.00601 3.93q0.421 0 0.67-0.373 0.249-0.373 0.249-1.39 0-0.733-0.18-1.2-0.18-0.475-0.7-0.475-0.478 0-0.7 0.451-0.219 0.448-0.219 1.32 0 0.658 0.141 1.06 0.216 0.61 0.739 0.61z" clip-path="url(#dj)" aria-label="0"/>
<path transform="translate(30 11.3) scale(.251)" d="M4.545-4.298 2.783-.888 3.078.314c.132.482.255.783.379.906.12.132.28.198.478.198.238 0 .428-.074.56-.214.14-.132.222-.346.247-.643h.18v.181c0 .396-.123.742-.362 1.038a.74.74 0 0 1-.609.297.811.811 0 0 1-.478-.149 1.023 1.023 0 0 1-.33-.395 5.131 5.131 0 0 1-.28-.758L2.569-.444 1.316 1.994H.493l1.795-3.541-.346-1.4c-.078-.297-.173-.486-.28-.577-.098-.099-.243-.148-.428-.148a.689.689 0 0 0-.51.198c-.132.131-.21.341-.231.625H.328c.008-.547.12-.959.33-1.235a.715.715 0 0 1 .593-.296c.25 0 .448.09.593.263.14.177.247.412.313.708l.345 1.434 1.186-2.323z" clip-path="url(#dk)" aria-label="χ"/>
<path transform="translate(30 10.3) scale(.251)" d="M4.809-3.196h.23c-.066.507-.222.886-.461 1.137a1.168 1.168 0 0 1-.857.362c-.156 0-.329-.033-.527-.099-.197-.065-.51-.214-.939-.444-.42-.24-.737-.363-.955-.363a.744.744 0 0 0-.543.23C.6-2.227.5-2.012.46-1.73H.246c.053-.502.202-.877.445-1.12.25-.251.53-.379.84-.379.152 0 .346.042.576.116.165.057.494.21.989.46.362.199.663.297.905.297a.64.64 0 0 0 .478-.18c.173-.166.284-.384.33-.66z" clip-path="url(#dl)" aria-label="∼"/>
<path transform="translate(28.4 10.2) scale(.251)" d="M.18-2.702h4.925v.46H.18z" clip-path="url(#dm)" aria-label="−"/>
<path transform="translate(28.3 11.3) scale(.251)" d="m1.16-2.45q0 0.653 0.183 1.09 0.324 0.784 1.16 0.784 0.883 0 1.22-0.826 0.183-0.455 0.183-1.16 0-0.653-0.202-1.09-0.343-0.746-1.21-0.746-0.549 0-0.944 0.479-0.39 0.474-0.39 1.47zm1.25-2.69q0.624 0 1.05 0.315 0.235 0.169 0.451 0.498v-0.7h0.803v7.03h-0.85v-2.58q-0.211 0.338-0.587 0.54-0.371 0.197-0.93 0.197-0.803 0-1.44-0.629-0.634-0.629-0.634-1.92 0-1.21 0.592-1.98 0.596-0.775 1.54-0.775z" clip-path="url(#dn)" aria-label="q"/>
<path transform="translate(26.8 11.3) scale(.251)" d="m1.16-2.45q0 0.653 0.183 1.09 0.324 0.784 1.16 0.784 0.883 0 1.22-0.826 0.183-0.455 0.183-1.16 0-0.653-0.202-1.09-0.343-0.746-1.21-0.746-0.549 0-0.944 0.479-0.39 0.474-0.39 1.47zm1.25-2.69q0.624 0 1.05 0.315 0.235 0.169 0.451 0.498v-0.7h0.803v7.03h-0.85v-2.58q-0.211 0.338-0.587 0.54-0.371 0.197-0.93 0.197-0.803 0-1.44-0.629-0.634-0.629-0.634-1.92 0-1.21 0.592-1.98 0.596-0.775 1.54-0.775z" clip-path="url(#do)" aria-label="q"/>
<path transform="translate(24.1 11.3) scale(.251)" d="M7.56-2.107H.346v-.445H7.56c-.453-.515-.766-.91-.939-1.186a7.155 7.155 0 0 1-.527-1.054h.38c.37.453.827.906 1.366 1.367.548.461.98.787 1.302.972v.263c-.42.231-.873.569-1.368 1.005-.494.429-.93.87-1.3 1.318h-.38c.186-.428.37-.782.56-1.07.186-.297.486-.684.906-1.17z" clip-path="url(#dp)" aria-label="→"/>
<path transform="translate(22.5 11.3) scale(.251)" d="m2.39-5.12q0.592 0 1.03 0.291 0.239 0.164 0.488 0.479v-0.634h0.779v4.57q0 0.958-0.282 1.51-0.526 1.02-1.99 1.02-0.812 0-1.37-0.366-0.554-0.362-0.62-1.14h0.859q0.061 0.338 0.244 0.521 0.286 0.282 0.901 0.282 0.972 0 1.27-0.685 0.178-0.404 0.164-1.44-0.254 0.385-0.61 0.573-0.357 0.188-0.944 0.188-0.817 0-1.43-0.577-0.61-0.582-0.61-1.92 0-1.26 0.615-1.97 0.62-0.709 1.49-0.709zm1.52 2.58q0-0.934-0.385-1.38-0.385-0.451-0.981-0.451-0.892 0-1.22 0.836-0.174 0.446-0.174 1.17 0 0.85 0.343 1.3 0.347 0.441 0.93 0.441 0.911 0 1.28-0.822 0.207-0.465 0.207-1.08z" clip-path="url(#dq)" aria-label="g"/>
<path transform="translate(22.4 10.2) scale(.251)" d="m1.54-3.25q0.136 0 0.286 0.0235 0.268 0.0376 0.516 0.136l1.04 0.408q0.239 0.0939 0.394 0.141 0.249 0.0704 0.437 0.0704 0.343 0 0.582-0.268 0.239-0.272 0.324-0.667h0.545q-0.117 0.667-0.465 1.22-0.343 0.549-1.04 0.549-0.211 0-0.502-0.0845-0.169-0.0516-0.502-0.178l-0.958-0.366q-0.178-0.0704-0.371-0.108-0.188-0.0376-0.31-0.0376-0.394 0-0.62 0.305-0.131 0.178-0.268 0.606h-0.549q0.0798-0.39 0.174-0.662 0.0939-0.277 0.329-0.624 0.197-0.235 0.423-0.347 0.23-0.113 0.535-0.113z" clip-path="url(#dr)" aria-label="~"/>
<path transform="translate(21.2 11.3) scale(.251)" d="m0.798 0.981q0.324-0.0563 0.455-0.455 0.0704-0.211 0.0704-0.408 0-0.0329-0.00469-0.061-4.4e-6 -0.0235-0.00939-0.0563h-0.512v-1.02h1v0.948q0 0.559-0.225 0.981-0.225 0.423-0.779 0.521z" clip-path="url(#ds)" aria-label=", "/>
<path transform="translate(20 11.3) scale(.251)" d="m2.39-5.12q0.592 0 1.03 0.291 0.239 0.164 0.488 0.479v-0.634h0.779v4.57q0 0.958-0.282 1.51-0.526 1.02-1.99 1.02-0.812 0-1.37-0.366-0.554-0.362-0.62-1.14h0.859q0.061 0.338 0.244 0.521 0.286 0.282 0.901 0.282 0.972 0 1.27-0.685 0.178-0.404 0.164-1.44-0.254 0.385-0.61 0.573-0.357 0.188-0.944 0.188-0.817 0-1.43-0.577-0.61-0.582-0.61-1.92 0-1.26 0.615-1.97 0.62-0.709 1.49-0.709zm1.52 2.58q0-0.934-0.385-1.38-0.385-0.451-0.981-0.451-0.892 0-1.22 0.836-0.174 0.446-0.174 1.17 0 0.85 0.343 1.3 0.347 0.441 0.93 0.441 0.911 0 1.28-0.822 0.207-0.465 0.207-1.08z" clip-path="url(#dt)" aria-label="g"/>
<path transform="translate(19.9 10.2) scale(.251)" d="m1.54-3.25q0.136 0 0.286 0.0235 0.268 0.0376 0.516 0.136l1.04 0.408q0.239 0.0939 0.394 0.141 0.249 0.0704 0.437 0.0704 0.343 0 0.582-0.268 0.239-0.272 0.324-0.667h0.545q-0.117 0.667-0.465 1.22-0.343 0.549-1.04 0.549-0.211 0-0.502-0.0845-0.169-0.0516-0.502-0.178l-0.958-0.366q-0.178-0.0704-0.371-0.108-0.188-0.0376-0.31-0.0376-0.394 0-0.62 0.305-0.131 0.178-0.268 0.606h-0.549q0.0798-0.39 0.174-0.662 0.0939-0.277 0.329-0.624 0.197-0.235 0.423-0.347 0.23-0.113 0.535-0.113z" clip-path="url(#du)" aria-label="~"/>
<path transform="translate(18.4 11.3) scale(.251)" d="m2.39-5.12q0.592 0 1.03 0.291 0.239 0.164 0.488 0.479v-0.634h0.779v4.57q0 0.958-0.282 1.51-0.526 1.02-1.99 1.02-0.812 0-1.37-0.366-0.554-0.362-0.62-1.14h0.859q0.061 0.338 0.244 0.521 0.286 0.282 0.901 0.282 0.972 0 1.27-0.685 0.178-0.404 0.164-1.44-0.254 0.385-0.61 0.573-0.357 0.188-0.944 0.188-0.817 0-1.43-0.577-0.61-0.582-0.61-1.92 0-1.26 0.615-1.97 0.62-0.709 1.49-0.709zm1.52 2.58q0-0.934-0.385-1.38-0.385-0.451-0.981-0.451-0.892 0-1.22 0.836-0.174 0.446-0.174 1.17 0 0.85 0.343 1.3 0.347 0.441 0.93 0.441 0.911 0 1.28-0.822 0.207-0.465 0.207-1.08z" clip-path="url(#dv)" aria-label="g"/>
<path transform="translate(18.4 10.2) scale(.251)" d="m1.54-3.25q0.136 0 0.286 0.0235 0.268 0.0376 0.516 0.136l1.04 0.408q0.239 0.0939 0.394 0.141 0.249 0.0704 0.437 0.0704 0.343 0 0.582-0.268 0.239-0.272 0.324-0.667h0.545q-0.117 0.667-0.465 1.22-0.343 0.549-1.04 0.549-0.211 0-0.502-0.0845-0.169-0.0516-0.502-0.178l-0.958-0.366q-0.178-0.0704-0.371-0.108-0.188-0.0376-0.31-0.0376-0.394 0-0.62 0.305-0.131 0.178-0.268 0.606h-0.549q0.0798-0.39 0.174-0.662 0.0939-0.277 0.329-0.624 0.197-0.235 0.423-0.347 0.23-0.113 0.535-0.113z" clip-path="url(#ed)" aria-label="~"/>
<path transform="translate(15.7 11.3) scale(.251)" d="M7.562-2.107H.347v-.445h7.215c-.453-.515-.766-.91-.939-1.186a7.155 7.155 0 0 1-.527-1.054h.379c.37.453.828.906 1.367 1.367.548.461.98.787 1.301.972v.263c-.42.231-.873.569-1.367 1.005-.494.429-.93.87-1.301 1.318h-.379c.185-.428.37-.782.56-1.07.185-.297.486-.684.906-1.17z" clip-path="url(#ec)" aria-label="→"/>
<path transform="translate(12.6 11.3) scale(.251)" d="m2.74-0.568q0.592 0 0.981-0.493 0.394-0.498 0.394-1.48 0-0.601-0.174-1.03-0.329-0.831-1.2-0.831-0.878 0-1.2 0.878-0.174 0.469-0.174 1.19 0 0.582 0.174 0.991 0.329 0.779 1.2 0.779zm-2.19-4.44h0.822v0.667q0.254-0.343 0.554-0.531 0.427-0.282 1-0.282 0.854 0 1.45 0.657 0.596 0.653 0.596 1.87 0 1.64-0.859 2.35-0.545 0.446-1.27 0.446-0.568 0-0.953-0.249-0.225-0.141-0.502-0.484v2.57h-0.845zm7.53 4.44q0.592 0 0.981-0.493 0.394-0.498 0.394-1.48 0-0.601-0.174-1.03-0.329-0.831-1.2-0.831-0.878 0-1.2 0.878-0.174 0.469-0.174 1.19 0 0.582 0.174 0.991 0.329 0.779 1.2 0.779zm-2.19-4.44h0.822v0.667q0.254-0.343 0.554-0.531 0.427-0.282 1-0.282 0.854 0 1.45 0.657 0.596 0.653 0.596 1.87 0 1.64-0.859 2.35-0.545 0.446-1.27 0.446-0.568 0-0.953-0.249-0.225-0.141-0.502-0.484v2.57h-0.845z" clip-path="url(#eb)" aria-label="pp"/>
<path transform="translate(21.2 47.4) scale(.251)" d="m0.732-6.9h0.934v6.08h3.49v0.822h-4.43zm5.35 0h0.934v6.08h3.49v0.822h-4.43zm5.44 0h3.1q0.92 0 1.48 0.521 0.563 0.516 0.563 1.46 0 0.808-0.502 1.41-0.502 0.596-1.54 0.596h-2.17v2.92h-0.934zm4.21 1.98q0-0.761-0.563-1.03-0.31-0.146-0.85-0.146h-1.86v2.39h1.86q0.629 0 1.02-0.268 0.394-0.268 0.394-0.944zm5.52-1h-0.845v-0.977h0.845zm-1.64 7.19q0.568-0.0188 0.681-0.103 0.117-0.0798 0.117-0.512v-5.66h0.845v5.75q0 0.549-0.178 0.822-0.296 0.46-1.12 0.46-0.061 0-0.131-0.00469-0.0657-0.00469-0.211-0.0188zm5.03-6.41q0.535 0 1.04 0.254 0.502 0.249 0.765 0.648 0.254 0.38 0.338 0.887 0.0751 0.347 0.0751 1.11h-3.69q0.0235 0.765 0.362 1.23 0.338 0.46 1.05 0.46 0.662 0 1.06-0.437 0.225-0.254 0.319-0.587h0.831q-0.0329 0.277-0.221 0.62-0.183 0.338-0.413 0.554-0.385 0.376-0.953 0.507-0.305 0.0751-0.69 0.0751-0.939 0-1.59-0.681-0.653-0.685-0.653-1.92 0-1.21 0.657-1.97t1.72-0.756zm1.35 2.23q-0.0516-0.549-0.239-0.878-0.347-0.61-1.16-0.61-0.582 0-0.977 0.423-0.394 0.418-0.418 1.07zm-1.43-2.23m3.5-1.28h0.854v1.4h0.803v0.69h-0.803v3.28q0 0.263 0.178 0.352 0.0986 0.0516 0.329 0.0516 0.061 0 0.131 0 0.0704-0.0047 0.164-0.0141v0.667q-0.146 0.0423-0.305 0.061-0.155 0.0188-0.338 0.0188-0.592 0-0.803-0.3-0.211-0.305-0.211-0.789v-3.33h-0.681v-0.69h0.681zm5.35 0h0.854v1.4h0.803v0.69h-0.803v3.28q0 0.263 0.178 0.352 0.0986 0.0516 0.329 0.0516 0.061 0 0.131 0 0.0704-0.0047 0.164-0.0141v0.667q-0.146 0.0423-0.305 0.061-0.155 0.0188-0.338 0.0188-0.592 0-0.803-0.3-0.211-0.305-0.211-0.789v-3.33h-0.681v-0.69h0.681zm3.15 5.09q0 0.366 0.268 0.577 0.268 0.211 0.634 0.211 0.446 0 0.864-0.207 0.704-0.343 0.704-1.12v-0.681q-0.155 0.0986-0.399 0.164-0.244 0.0657-0.479 0.0939l-0.512 0.0657q-0.46 0.061-0.69 0.192-0.39 0.221-0.39 0.704zm2.05-1.71q0.291-0.0376 0.39-0.244 0.0563-0.113 0.0563-0.324 0-0.432-0.31-0.624-0.305-0.197-0.878-0.197-0.662 0-0.939 0.357-0.155 0.197-0.202 0.587h-0.789q0.0235-0.93 0.601-1.29 0.582-0.366 1.35-0.366 0.887 0 1.44 0.338 0.549 0.338 0.549 1.05v2.9q0 0.131 0.0516 0.211 0.0563 0.0798 0.23 0.0798 0.0563 0 0.127-0.0047 0.0704-0.00939 0.15-0.0235v0.624q-0.197 0.0563-0.3 0.0704t-0.282 0.0141q-0.437 0-0.634-0.31-0.103-0.164-0.146-0.465-0.258 0.338-0.742 0.587-0.484 0.249-1.07 0.249-0.7 0-1.15-0.423-0.441-0.427-0.441-1.07 0-0.7 0.437-1.08 0.437-0.385 1.15-0.474zm-0.7-2.1m5.13 0.0329q0.592 0 1.03 0.291 0.239 0.164 0.488 0.479v-0.634h0.779v4.57q0 0.958-0.282 1.51-0.526 1.02-1.99 1.02-0.812 0-1.37-0.366-0.554-0.362-0.62-1.14h0.859q0.061 0.338 0.244 0.521 0.286 0.282 0.901 0.282 0.972 0 1.27-0.685 0.178-0.404 0.164-1.44-0.254 0.385-0.61 0.573-0.357 0.188-0.944 0.188-0.817 0-1.43-0.577-0.61-0.582-0.61-1.92 0-1.26 0.615-1.97 0.62-0.709 1.49-0.709zm1.52 2.58q0-0.934-0.385-1.38-0.385-0.451-0.981-0.451-0.892 0-1.22 0.836-0.174 0.446-0.174 1.17 0 0.85 0.343 1.3 0.347 0.441 0.93 0.441 0.911 0 1.28-0.822 0.207-0.465 0.207-1.08zm-1.42-2.62m5.25 0.0329q0.592 0 1.03 0.291 0.239 0.164 0.488 0.479v-0.634h0.779v4.57q0 0.958-0.282 1.51-0.526 1.02-1.99 1.02-0.812 0-1.37-0.366-0.554-0.362-0.62-1.14h0.859q0.061 0.338 0.244 0.521 0.286 0.282 0.901 0.282 0.972 0 1.27-0.685 0.178-0.404 0.164-1.44-0.254 0.385-0.61 0.573-0.357 0.188-0.944 0.188-0.817 0-1.43-0.577-0.61-0.582-0.61-1.92 0-1.26 0.615-1.97 0.62-0.709 1.49-0.709zm1.52 2.58q0-0.934-0.385-1.38-0.385-0.451-0.981-0.451-0.892 0-1.22 0.836-0.174 0.446-0.174 1.17 0 0.85 0.343 1.3 0.347 0.441 0.93 0.441 0.911 0 1.28-0.822 0.207-0.465 0.207-1.08zm-1.42-2.62m5.57 0.00939q0.535 0 1.04 0.254 0.502 0.249 0.765 0.648 0.254 0.38 0.338 0.887 0.0751 0.347 0.0751 1.11h-3.69q0.0235 0.765 0.362 1.23 0.338 0.46 1.05 0.46 0.662 0 1.06-0.437 0.225-0.254 0.319-0.587h0.831q-0.0329 0.277-0.221 0.62-0.183 0.338-0.413 0.554-0.385 0.376-0.953 0.507-0.305 0.0751-0.69 0.0751-0.939 0-1.59-0.681-0.653-0.685-0.653-1.92 0-1.21 0.657-1.97t1.72-0.756zm1.35 2.23q-0.0516-0.549-0.239-0.878-0.347-0.61-1.16-0.61-0.582 0-0.977 0.423-0.394 0.418-0.418 1.07zm-1.43-2.23m3.36 0.122h0.803v0.869q0.0986-0.254 0.484-0.615 0.385-0.366 0.887-0.366 0.0235 0 0.0798 0.00469t0.192 0.0188v0.892q-0.0751-0.0141-0.141-0.0188-0.061-0.00469-0.136-0.00469-0.638 0-0.981 0.413-0.343 0.408-0.343 0.944v2.89h-0.845z" clip-path="url(#ea)" aria-label="LLP jet tagger"/>
<path transform="matrix(.251 0 0 -.251 0 62)" d="m55.7 56.4h24.1v9.51h-24.1" clip-path="url(#dA)" fill="#f2e4d9" fill-rule="evenodd"/>
<path transform="matrix(.251 0 0 -.251 0 62)" d="m55.7 61.1h24.1" clip-path="url(#dB)" fill="none" stroke="#cf6416" stroke-miterlimit="10"/>
<path transform="matrix(.251 0 0 -.251 0 62)" d="m65.1 61.1c0 3.49 5.23 3.49 5.23 0s-5.23-3.49-5.23 0z" clip-path="url(#dC)" fill="#cf6416"/>
<path transform="translate(21.2 50.8) scale(.251)" d="m4.12-2.06q0 0.873-0.258 1.36-0.479 0.883-1.82 0.883-0.775 0-1.32-0.418-0.549-0.423-0.549-1.5v-0.493h0.878v0.493q0 0.563 0.249 0.85 0.254 0.282 0.784 0.282 0.746 0 0.977-0.512 0.141-0.315 0.141-1.19v-4.6h0.925zm1.45-4.84h0.944v2.85h3.59v-2.85h0.944v6.9h-0.944v-3.23h-3.59v3.23h-0.944zm7.01 0h5.03v0.845h-4.12v2.09h3.81v0.798h-3.81v2.34h4.19v0.822h-5.1zm2.55 0m3.86 0h3.1q0.92 0 1.48 0.521 0.563 0.516 0.563 1.46 0 0.808-0.502 1.41-0.502 0.596-1.54 0.596h-2.17v2.92h-0.934zm4.21 1.98q0-0.761-0.563-1.03-0.31-0.146-0.85-0.146h-1.86v2.39h1.86q0.629 0 1.02-0.268 0.394-0.268 0.394-0.944zm6.66-1.81q1.31 0 1.89 1.08 0.451 0.831 0.451 2.28 0 1.37-0.408 2.27-0.592 1.29-1.93 1.29-1.21 0-1.8-1.05-0.493-0.878-0.493-2.36 0-1.15 0.296-1.97 0.554-1.53 2-1.53zm-0.0094 6.14q0.657 0 1.05-0.582 0.39-0.582 0.39-2.17 0-1.15-0.282-1.88-0.282-0.742-1.09-0.742-0.746 0-1.09 0.704-0.343 0.7-0.343 2.07 0 1.03 0.221 1.65 0.338 0.953 1.15 0.953zm3.94-1.13q0.0845 0.723 0.671 1 0.3 0.141 0.695 0.141 0.751 0 1.11-0.479 0.362-0.479 0.362-1.06 0-0.704-0.432-1.09-0.427-0.385-1.03-0.385-0.437 0-0.751 0.169-0.31 0.169-0.531 0.469l-0.732-0.0423 0.512-3.62h3.49v0.817h-2.86l-0.286 1.87q0.235-0.178 0.446-0.268 0.376-0.155 0.869-0.155 0.925 0 1.57 0.596 0.643 0.596 0.643 1.51 0 0.953-0.592 1.68-0.587 0.728-1.88 0.728-0.822 0-1.46-0.46-0.629-0.465-0.704-1.42zm9.68-5.3q-0.737 1.43-0.958 2.11-0.333 1.03-0.333 2.38 0 1.36 0.38 2.49 0.235 0.695 0.925 2h-0.568q-0.685-1.07-0.85-1.37t-0.357-0.803q-0.263-0.695-0.366-1.48-0.0516-0.408-0.0516-0.779 0-1.39 0.437-2.47 0.277-0.69 1.15-2.07zm0.657 7.01q0.047-0.869 0.357-1.51 0.315-0.643 1.22-1.17l0.901-0.521q0.606-0.352 0.85-0.601 0.385-0.39 0.385-0.892 0-0.587-0.352-0.93-0.352-0.347-0.939-0.347-0.869 0-1.2 0.657-0.178 0.352-0.197 0.977h-0.859q0.0141-0.878 0.324-1.43 0.549-0.977 1.94-0.977 1.15 0 1.69 0.624 0.535 0.624 0.535 1.39 0 0.808-0.568 1.38-0.329 0.333-1.18 0.808l-0.643 0.357q-0.46 0.254-0.723 0.484-0.469 0.408-0.592 0.906h3.67v0.798zm7.65-6.72q1.31 0 1.89 1.08 0.451 0.831 0.451 2.28 0 1.37-0.408 2.27-0.592 1.29-1.93 1.29-1.21 0-1.8-1.05-0.493-0.878-0.493-2.36 0-1.15 0.296-1.97 0.554-1.53 2-1.53zm-0.0094 6.14q0.657 0 1.05-0.582 0.39-0.582 0.39-2.17 0-1.15-0.282-1.88-0.282-0.742-1.09-0.742-0.746 0-1.09 0.704-0.343 0.7-0.343 2.07 0 1.03 0.221 1.65 0.338 0.953 1.15 0.953zm3.67-4.17v-0.648q0.915-0.0892 1.28-0.296 0.362-0.211 0.54-0.991h0.667v6.69h-0.901v-4.76zm7.04 0.854q0.559 0 0.873-0.31 0.315-0.315 0.315-0.746 0-0.376-0.3-0.69-0.3-0.315-0.915-0.315-0.61 0-0.883 0.315-0.272 0.315-0.272 0.737 0 0.474 0.352 0.742 0.352 0.268 0.831 0.268zm0.0516 3.33q0.587 0 0.972-0.315 0.39-0.319 0.39-0.948 0-0.653-0.399-0.991-0.399-0.338-1.02-0.338-0.606 0-0.991 0.347-0.38 0.343-0.38 0.953 0 0.526 0.347 0.911 0.352 0.38 1.08 0.38zm-1.2-3q-0.352-0.15-0.549-0.352-0.371-0.376-0.371-0.977 0-0.751 0.545-1.29 0.545-0.54 1.54-0.54 0.967 0 1.52 0.512 0.549 0.507 0.549 1.19 0 0.629-0.319 1.02-0.178 0.221-0.554 0.432 0.418 0.192 0.657 0.441 0.446 0.469 0.446 1.22 0 0.887-0.596 1.51-0.596 0.615-1.69 0.615-0.981 0-1.66-0.531-0.676-0.535-0.676-1.55 0-0.596 0.291-1.03 0.291-0.437 0.864-0.667zm4.21 5.54q0.746-1.46 0.962-2.12 0.329-1.01 0.329-2.37 0-1.36-0.38-2.48-0.235-0.695-0.925-2h0.568q0.723 1.15 0.873 1.43 0.155 0.268 0.333 0.742 0.225 0.587 0.319 1.16 0.0986 0.573 0.0986 1.1 0 1.39-0.441 2.48-0.277 0.7-1.15 2.06zm8.14-8.69q1.31 0 1.89 1.08 0.451 0.831 0.451 2.28 0 1.37-0.408 2.27-0.592 1.29-1.93 1.29-1.21 0-1.8-1.05-0.493-0.878-0.493-2.36 0-1.15 0.296-1.97 0.554-1.53 2-1.53zm-0.0094 6.14q0.657 0 1.05-0.582 0.39-0.582 0.39-2.17 0-1.15-0.282-1.88-0.282-0.742-1.09-0.742-0.746 0-1.09 0.704-0.343 0.7-0.343 2.07 0 1.03 0.221 1.65 0.338 0.953 1.15 0.953zm3.05 0.587q0.047-0.869 0.357-1.51 0.315-0.643 1.22-1.17l0.901-0.521q0.606-0.352 0.85-0.601 0.385-0.39 0.385-0.892 0-0.587-0.352-0.93-0.352-0.347-0.939-0.347-0.869 0-1.2 0.657-0.178 0.352-0.197 0.977h-0.859q0.0141-0.878 0.324-1.43 0.549-0.977 1.94-0.977 1.15 0 1.69 0.624 0.535 0.624 0.535 1.39 0 0.808-0.568 1.38-0.329 0.333-1.18 0.808l-0.643 0.357q-0.46 0.254-0.723 0.484-0.469 0.408-0.592 0.906h3.67v0.798zm6.23-1.71q0.0845 0.723 0.671 1 0.3 0.141 0.695 0.141 0.751 0 1.11-0.479 0.362-0.479 0.362-1.06 0-0.704-0.432-1.09-0.427-0.385-1.03-0.385-0.437 0-0.751 0.169-0.31 0.169-0.531 0.469l-0.732-0.0423 0.512-3.62h3.49v0.817h-2.86l-0.286 1.87q0.235-0.178 0.446-0.268 0.376-0.155 0.869-0.155 0.925 0 1.57 0.596 0.643 0.596 0.643 1.51 0 0.953-0.592 1.68-0.587 0.728-1.88 0.728-0.822 0-1.46-0.46-0.629-0.465-0.704-1.42z" clip-path="url(#dD)" aria-label="JHEP 05 (2018) 025"/>
<g fill="none" stroke="#b71414" stroke-miterlimit="10">
<path transform="matrix(.251 0 0 -.251 0 62)" d="m55.7 47.5h24.1" clip-path="url(#dE)" stroke-dasharray="3, 3" stroke-width="1.5"/>
<path transform="matrix(.251 0 0 -.251 0 62)" d="m64.7 47.5c0 4.1 6.15 4.1 6.15 0s-6.15-4.1-6.15 0z" clip-path="url(#dF)" stroke-width=".5"/>
</g>
<path transform="translate(10.3 2.7) scale(.251)" d="m0.501-3.95q0-2.1 1.13-3.24 0.98-0.991 2.49-0.991 2.03 0 2.96 1.33 0.517 0.746 0.555 1.5h-1.68q-0.163-0.577-0.419-0.871-0.457-0.523-1.36-0.523-0.915 0-1.44 0.741-0.528 0.735-0.528 2.09t0.555 2.03q0.561 0.67 1.42 0.67 0.882 0 1.35-0.577 0.256-0.31 0.425-0.931h1.66q-0.218 1.31-1.12 2.13-0.893 0.822-2.29 0.822-1.73 0-2.72-1.11-0.991-1.12-0.991-3.06zm3.57-4.32m10.1 0.245h2.41v8.03h-1.56v-5.43q0-0.234 0.0054-0.653 0.0054-0.425 0.0054-0.653l-1.52 6.74h-1.63l-1.51-6.74q0 0.229 0.0054 0.653 0.0054 0.419 0.0054 0.653v5.43h-1.56v-8.03h2.44l1.46 6.31zm5.18 5.55q0.0762 0.55 0.3 0.822 0.408 0.496 1.4 0.496 0.594 0 0.964-0.131 0.703-0.251 0.703-0.931 0-0.398-0.349-0.615-0.349-0.212-1.09-0.376l-0.85-0.191q-1.25-0.283-1.73-0.615-0.811-0.555-0.811-1.74 0-1.08 0.784-1.79t2.3-0.713q1.27 0 2.16 0.675 0.899 0.67 0.942 1.95h-1.61q-0.0436-0.724-0.632-1.03-0.392-0.201-0.975-0.201-0.648 0-1.03 0.261-0.387 0.261-0.387 0.73 0 0.43 0.381 0.643 0.245 0.142 1.05 0.332l1.38 0.332q0.909 0.218 1.37 0.583 0.719 0.566 0.719 1.64 0 1.1-0.844 1.83-0.839 0.724-2.37 0.724-1.57 0-2.47-0.713-0.899-0.719-0.899-1.97z" clip-path="url(#dH)" aria-label="CMS"/>
<path transform="translate(17.3 2.7) scale(.251)" d="m2.1-2.58q-0.103 0.681 0.0871 1.11 0.37 0.795 1.73 0.795 0.61 0 1.15-0.174 1.04-0.338 1.23-1.21 0.142-0.653-0.212-0.931-0.354-0.272-1.19-0.474l-1.03-0.245q-1.01-0.24-1.39-0.528-0.653-0.501-0.441-1.5 0.229-1.08 1.12-1.77t2.26-0.692q1.26 0 2 0.61 0.752 0.604 0.468 1.94h-1.02q0.0545-0.643-0.136-0.986-0.365-0.626-1.55-0.626-0.958 0-1.46 0.403-0.501 0.403-0.615 0.937-0.125 0.588 0.305 0.86 0.283 0.174 1.36 0.436l1.07 0.256q0.773 0.185 1.14 0.506 0.648 0.561 0.419 1.63-0.283 1.33-1.37 1.9-1.09 0.572-2.37 0.572-1.49 0-2.17-0.762-0.681-0.757-0.392-2.05zm7.29-3.22h0.997l-1.23 5.81h-0.997zm0.468-2.19h0.997l-0.24 1.11h-0.997zm2.01 2.17h0.969l-0.174 0.828q0.441-0.43 0.762-0.626 0.555-0.332 1.17-0.332 0.697 0 1.05 0.343 0.196 0.196 0.31 0.577 0.43-0.468 0.915-0.692 0.49-0.229 1.04-0.229 1.18 0 1.42 0.85 0.131 0.457-0.0327 1.23l-0.822 3.88h-1.02l0.86-4.05q0.12-0.583-0.125-0.801-0.245-0.218-0.664-0.218-0.577 0-1.08 0.387-0.496 0.387-0.686 1.29l-0.719 3.39h-0.997l0.806-3.81q0.125-0.594 0.0436-0.866-0.136-0.408-0.746-0.408-0.555 0-1.11 0.43-0.545 0.43-0.784 1.56l-0.654 3.09h-0.98zm10.3 0-0.822 3.87q-0.0926 0.447-0.0109 0.73 0.147 0.523 0.86 0.523 1.02 0 1.59-0.915 0.305-0.49 0.485-1.35l0.61-2.86h0.98l-1.24 5.83h-0.926l0.191-0.86q-0.261 0.332-0.594 0.561-0.659 0.457-1.46 0.457-1.25 0-1.52-0.833-0.152-0.447 0.0054-1.19l0.844-3.96zm5.71-2.17h0.98l-1.7 8h-0.98zm2.68 7.36q0.517 0 1.06-0.24 0.899-0.398 1.09-1.3l0.163-0.79q-0.201 0.114-0.501 0.191-0.3 0.0762-0.577 0.109l-0.61 0.0762q-0.55 0.0708-0.85 0.223-0.506 0.256-0.626 0.817-0.0926 0.425 0.163 0.67 0.261 0.245 0.686 0.245zm1.94-2.9q0.349-0.0436 0.517-0.283 0.0926-0.131 0.142-0.376 0.109-0.501-0.201-0.724-0.31-0.229-0.975-0.229-0.768 0-1.18 0.414-0.229 0.229-0.376 0.681h-0.915q0.256-1.08 1.02-1.5 0.762-0.425 1.65-0.425 1.03 0 1.58 0.392 0.555 0.392 0.381 1.22l-0.713 3.36q-0.0327 0.152 0.0054 0.245 0.0436 0.0926 0.245 0.0926 0.0654 0 0.147-0.00545 0.0871-0.0109 0.185-0.0272l-0.158 0.724q-0.24 0.0653-0.365 0.0817-0.12 0.0163-0.327 0.0163-0.506 0-0.659-0.359-0.0817-0.191-0.0545-0.539-0.387 0.392-1.01 0.681-0.621 0.289-1.3 0.289-0.811 0-1.23-0.49-0.408-0.496-0.251-1.24 0.174-0.811 0.773-1.26 0.604-0.447 1.45-0.55zm4.11-3.93h0.991l-0.349 1.63h0.931l-0.169 0.801h-0.931l-0.811 3.81q-0.0654 0.305 0.12 0.408 0.103 0.0599 0.37 0.0599 0.0708 0 0.152 0 0.0817-0.00545 0.196-0.0163l-0.163 0.773q-0.18 0.049-0.37 0.0708-0.185 0.0218-0.398 0.0218-0.686 0-0.86-0.349-0.169-0.354-0.049-0.915l0.822-3.86h-0.79l0.169-0.801h0.79zm2.55 1.66h0.997l-1.23 5.81h-0.997zm0.468-2.19h0.997l-0.24 1.11h-0.997zm5.43 4.99q0.174-0.817 0.0218-1.33-0.245-0.806-1.26-0.806-0.899 0-1.45 0.686-0.55 0.686-0.757 1.66-0.196 0.931 0.0762 1.55 0.278 0.621 1.17 0.621 0.975 0 1.49-0.735 0.523-0.741 0.713-1.64zm1.03-0.0272q-0.3 1.41-1.18 2.33-0.882 0.92-2.33 0.92-1.2 0-1.74-0.811-0.534-0.817-0.245-2.19 0.316-1.47 1.25-2.34 0.931-0.871 2.19-0.871 1.13 0 1.74 0.752 0.621 0.752 0.31 2.21zm1.76-2.79h0.931l-0.174 0.828q0.523-0.512 1.03-0.735 0.512-0.223 1.08-0.223 1.24 0 1.49 0.866 0.142 0.474-0.0436 1.36l-0.795 3.74h-0.997l0.779-3.68q0.114-0.534 0.0272-0.86-0.147-0.545-0.833-0.545-0.349 0-0.588 0.0708-0.43 0.12-0.811 0.479-0.305 0.289-0.447 0.599-0.136 0.305-0.256 0.877l-0.648 3.06h-0.98z" clip-path="url(#dJ)" aria-label="Simulation"/>
<path transform="translate(63.4 2.7) scale(.251)" d="m3.3-8.13q-0.855 1.66-1.11 2.45-0.387 1.19-0.387 2.76 0 1.58 0.441 2.89 0.272 0.806 1.07 2.32h-0.659q-0.795-1.24-0.986-1.58-0.191-0.343-0.414-0.931-0.305-0.806-0.425-1.72-0.0599-0.474-0.0599-0.904 0-1.61 0.506-2.87 0.321-0.801 1.34-2.4zm1.48 2.61v-0.752q1.06-0.103 1.48-0.343 0.419-0.245 0.626-1.15h0.773v7.77h-1.05v-5.52zm8.03 5.73q-1.38 0-2.01-0.757-0.621-0.762-0.621-1.85h1.02q0.0654 0.757 0.283 1.1 0.381 0.615 1.38 0.615 0.773 0 1.24-0.414 0.468-0.414 0.468-1.07 0-0.806-0.496-1.13-0.49-0.321-1.37-0.321-0.098 0-0.201 0.00545-0.098 0-0.201 0.00545v-0.866q0.152 0.0163 0.256 0.0218 0.103 0.00545 0.223 0.00545 0.55 0 0.904-0.174 0.621-0.305 0.621-1.09 0-0.583-0.414-0.899-0.414-0.316-0.964-0.316-0.98 0-1.36 0.653-0.207 0.359-0.234 1.02h-0.969q0-0.871 0.349-1.48 0.599-1.09 2.11-1.09 1.19 0 1.85 0.534 0.653 0.528 0.653 1.54 0 0.719-0.387 1.17-0.24 0.278-0.621 0.436 0.615 0.169 0.958 0.653 0.349 0.479 0.349 1.18 0 1.12-0.735 1.82-0.735 0.703-2.09 0.703zm13.1-8.21v0.953h-2.7v7.05h-1.1v-7.05h-2.7v-0.953zm3.29 2.04q0.621 0 1.2 0.294 0.583 0.289 0.888 0.752 0.294 0.441 0.392 1.03 0.0871 0.403 0.0871 1.29h-4.27q0.0272 0.888 0.419 1.43 0.392 0.534 1.21 0.534 0.768 0 1.23-0.506 0.261-0.294 0.37-0.681h0.964q-0.0381 0.321-0.256 0.719-0.212 0.392-0.479 0.643-0.447 0.436-1.11 0.588-0.354 0.0871-0.801 0.0871-1.09 0-1.85-0.79-0.757-0.795-0.757-2.22 0-1.41 0.762-2.28 0.762-0.877 1.99-0.877zm1.56 2.58q-0.0599-0.637-0.278-1.02-0.403-0.708-1.35-0.708-0.675 0-1.13 0.49-0.457 0.485-0.485 1.24zm-1.66-2.59m4.63-2.03 2.3 6.81 2.27-6.81h1.21l-2.92 8h-1.15l-2.91-8zm6.34 10.3q0.866-1.69 1.12-2.46 0.381-1.17 0.381-2.74t-0.441-2.88q-0.272-0.806-1.07-2.32h0.659q0.839 1.34 1.01 1.66 0.18 0.31 0.387 0.86 0.261 0.681 0.37 1.35 0.114 0.664 0.114 1.28 0 1.61-0.512 2.88-0.321 0.811-1.33 2.39z" clip-path="url(#dL)" aria-label="(13 TeV)"/>
<path transform="translate(61.3 1.45) scale(.251)" d="m0.319-2.49h1.89v0.695h-1.89zm2.98-1.32v-0.518q0.732-0.0714 1.02-0.237 0.289-0.169 0.432-0.792h0.533v5.36h-0.721v-3.81z" clip-path="url(#dM)" aria-label="-1"/>
<path transform="translate(52.8 2.7) scale(.251)" d="m2.9 0.212q-1.38 0-2.01-0.757-0.621-0.762-0.621-1.85h1.02q0.0654 0.757 0.283 1.1 0.381 0.615 1.38 0.615 0.773 0 1.24-0.414 0.468-0.414 0.468-1.07 0-0.806-0.496-1.13-0.49-0.321-1.37-0.321-0.098 0-0.201 0.00545-0.098 0-0.201 0.00545v-0.866q0.152 0.0163 0.256 0.0218 0.103 0.00545 0.223 0.00545 0.55 0 0.904-0.174 0.621-0.305 0.621-1.09 0-0.583-0.414-0.899-0.414-0.316-0.964-0.316-0.98 0-1.36 0.653-0.207 0.359-0.234 1.02h-0.969q0-0.871 0.349-1.48 0.599-1.09 2.11-1.09 1.19 0 1.85 0.534 0.653 0.528 0.653 1.54 0 0.719-0.387 1.17-0.24 0.278-0.621 0.436 0.615 0.169 0.958 0.653 0.349 0.479 0.349 1.18 0 1.12-0.735 1.82-0.735 0.702-2.09 0.702zm4.68-2.2q0.098 0.839 0.779 1.16 0.349 0.163 0.806 0.163 0.871 0 1.29-0.555 0.419-0.555 0.419-1.23 0-0.817-0.501-1.26-0.496-0.447-1.19-0.447-0.506 0-0.871 0.196-0.359 0.196-0.615 0.545l-0.85-0.049 0.594-4.2h4.05v0.948h-3.32l-0.332 2.17q0.272-0.207 0.517-0.31 0.436-0.18 1.01-0.18 1.07 0 1.82 0.692 0.746 0.692 0.746 1.75 0 1.11-0.686 1.95-0.681 0.844-2.18 0.844-0.953 0-1.69-0.534-0.73-0.539-0.817-1.65zm5.78 0.801h1.14v1.19h-1.14zm3.63-0.697q0.0436 0.811 0.626 1.12 0.3 0.163 0.675 0.163 0.703 0 1.2-0.583 0.496-0.588 0.703-2.38-0.327 0.517-0.811 0.73-0.479 0.207-1.03 0.207-1.13 0-1.79-0.703-0.653-0.703-0.653-1.81 0-1.06 0.648-1.87t1.91-0.806q1.7 0 2.35 1.54 0.359 0.844 0.359 2.11 0 1.43-0.43 2.54-0.713 1.84-2.42 1.84-1.14 0-1.74-0.599-0.594-0.599-0.594-1.5zm1.49-1.6q0.583 0 1.06-0.381 0.485-0.387 0.485-1.35 0-0.86-0.436-1.28-0.43-0.425-1.1-0.425-0.719 0-1.14 0.485-0.419 0.479-0.419 1.29 0 0.762 0.37 1.21 0.37 0.447 1.18 0.447zm7.3-3.23q0.0218-0.61 0.212-0.893 0.343-0.501 1.32-0.501 0.0926 0 0.191 0.00545 0.098 0.00545 0.223 0.0163v0.893q-0.152-0.0109-0.223-0.0109-0.0654-0.00545-0.125-0.00545-0.447 0-0.534 0.234-0.0871 0.229-0.0871 1.18h0.969v0.773h-0.98v5.03h-0.969v-5.03h-0.811v-0.773h0.811zm2.78-1.31h0.953v2.9q0.321-0.419 0.768-0.637 0.447-0.223 0.969-0.223 1.09 0 1.76 0.752 0.681 0.746 0.681 2.21 0 1.38-0.67 2.3-0.67 0.915-1.86 0.915-0.664 0-1.12-0.321-0.272-0.191-0.583-0.61v0.746h-0.904zm2.55 7.35q0.795 0 1.19-0.632 0.398-0.632 0.398-1.67 0-0.92-0.398-1.52-0.392-0.604-1.16-0.604-0.67 0-1.18 0.496-0.501 0.496-0.501 1.63 0 0.822 0.207 1.33 0.387 0.964 1.44 0.964z" clip-path="url(#dN)" aria-label="35.9 fb"/>
<path transform="translate(12.6 43.6) scale(.251)" d="m1.28-1.62q0.0376 0.7 0.54 0.967 0.258 0.141 0.582 0.141 0.606 0 1.03-0.502 0.427-0.507 0.606-2.05-0.282 0.446-0.7 0.629-0.413 0.178-0.892 0.178-0.972 0-1.54-0.606-0.563-0.606-0.563-1.56 0-0.915 0.559-1.61t1.65-0.695q1.47 0 2.03 1.32 0.31 0.728 0.31 1.82 0 1.23-0.371 2.19-0.615 1.59-2.08 1.59-0.986 0-1.5-0.516-0.512-0.516-0.512-1.3zm1.28-1.38q0.502 0 0.915-0.329 0.418-0.333 0.418-1.16 0-0.742-0.376-1.1-0.371-0.366-0.948-0.366-0.62 0-0.986 0.418-0.362 0.413-0.362 1.11 0 0.657 0.319 1.05 0.319 0.385 1.02 0.385zm3.98 1.29q0.0845 0.723 0.671 1 0.3 0.141 0.695 0.141 0.751 0 1.11-0.479 0.362-0.479 0.362-1.06 0-0.704-0.432-1.09-0.427-0.385-1.03-0.385-0.437 0-0.751 0.169-0.31 0.169-0.531 0.469l-0.732-0.0423 0.512-3.62h3.49v0.817h-2.86l-0.286 1.87q0.235-0.178 0.446-0.268 0.376-0.155 0.869-0.155 0.925 0 1.57 0.596 0.643 0.596 0.643 1.51 0 0.953-0.592 1.68-0.587 0.728-1.88 0.728-0.822 0-1.46-0.46-0.629-0.465-0.704-1.42zm10.7-1.55q0.676 0 1.15 0.479 0.479 0.479 0.479 1.15 0 0.676-0.479 1.15t-1.15 0.479q-0.681 0-1.16-0.479t-0.479-1.15q0-0.676 0.479-1.15 0.479-0.479 1.16-0.479zm-0.681-3.43h0.521l-3.76 6.87h-0.521zm-3.93 2.78q0.404 0 0.685-0.282 0.286-0.286 0.286-0.685 0-0.399-0.286-0.681-0.282-0.286-0.685-0.286-0.399 0-0.685 0.282-0.282 0.282-0.282 0.685 0 0.399 0.282 0.685 0.286 0.282 0.685 0.282zm0-2.61q0.681 0 1.16 0.484 0.479 0.479 0.479 1.15 0 0.676-0.479 1.15-0.479 0.479-1.16 0.479-0.676 0-1.15-0.479-0.479-0.479-0.479-1.15 0-0.676 0.479-1.15 0.479-0.484 1.15-0.484zm4.61 5.85q0.399 0 0.681-0.282 0.286-0.286 0.286-0.685 0-0.399-0.286-0.681-0.282-0.286-0.681-0.286-0.404 0-0.69 0.286-0.282 0.282-0.282 0.681 0 0.399 0.282 0.685 0.286 0.282 0.69 0.282zm8.31-6.42q1.31 0 2.03 0.69 0.723 0.69 0.803 1.57h-0.911q-0.155-0.667-0.62-1.06-0.46-0.39-1.3-0.39-1.02 0-1.65 0.718-0.624 0.714-0.624 2.19 0 1.21 0.563 1.97 0.568 0.751 1.69 0.751 1.03 0 1.57-0.793 0.286-0.418 0.427-1.1h0.911q-0.122 1.09-0.808 1.83-0.822 0.887-2.22 0.887-1.2 0-2.02-0.728-1.08-0.962-1.08-2.97 0-1.53 0.808-2.5 0.873-1.06 2.41-1.06zm-0.188 0m4.22 0.188h0.934v6.08h3.49v0.822h-4.43zm10 1.76q0.535 0 1.04 0.254 0.502 0.249 0.765 0.648 0.254 0.38 0.338 0.887 0.0751 0.347 0.0751 1.11h-3.69q0.0235 0.765 0.362 1.23 0.338 0.46 1.05 0.46 0.662 0 1.06-0.437 0.225-0.254 0.319-0.587h0.831q-0.0329 0.277-0.221 0.62-0.183 0.338-0.413 0.554-0.385 0.376-0.953 0.507-0.305 0.0751-0.69 0.0751-0.939 0-1.59-0.681-0.653-0.685-0.653-1.92 0-1.21 0.657-1.97 0.657-0.756 1.72-0.756zm1.35 2.23q-0.0516-0.549-0.239-0.878-0.347-0.61-1.16-0.61-0.582 0-0.977 0.423-0.394 0.418-0.418 1.07zm-1.43-2.23m2.85 0.122h1.09l1.15 1.77 1.17-1.77 1.03 0.0235-1.69 2.43 1.77 2.58h-1.08l-1.25-1.89-1.21 1.89h-1.07l1.77-2.58zm7.41 4.46q0.592 0 0.981-0.493 0.394-0.498 0.394-1.48 0-0.601-0.174-1.03-0.329-0.831-1.2-0.831-0.878 0-1.2 0.878-0.174 0.469-0.174 1.19 0 0.582 0.174 0.991 0.329 0.779 1.2 0.779zm-2.19-4.44h0.822v0.667q0.254-0.343 0.554-0.531 0.427-0.282 1-0.282 0.854 0 1.45 0.657 0.596 0.653 0.596 1.87 0 1.64-0.859 2.35-0.545 0.446-1.27 0.446-0.568 0-0.953-0.249-0.225-0.141-0.502-0.484v2.57h-0.845zm7.51-0.136q0.535 0 1.04 0.254 0.502 0.249 0.765 0.648 0.254 0.38 0.338 0.887 0.0751 0.347 0.0751 1.11h-3.69q0.0235 0.765 0.362 1.23 0.338 0.46 1.05 0.46 0.662 0 1.06-0.437 0.225-0.254 0.319-0.587h0.831q-0.0329 0.277-0.221 0.62-0.183 0.338-0.413 0.554-0.385 0.376-0.953 0.507-0.305 0.0751-0.69 0.0751-0.939 0-1.59-0.681-0.653-0.685-0.653-1.92 0-1.21 0.657-1.97 0.657-0.756 1.72-0.756zm1.35 2.23q-0.0516-0.549-0.239-0.878-0.347-0.61-1.16-0.61-0.582 0-0.977 0.423-0.394 0.418-0.418 1.07zm-1.43-2.23m5.27-0.0235q0.85 0 1.38 0.413 0.535 0.413 0.643 1.42h-0.822q-0.0751-0.465-0.343-0.77-0.268-0.31-0.859-0.31-0.808 0-1.15 0.789-0.225 0.512-0.225 1.26 0 0.756 0.319 1.27 0.319 0.516 1 0.516 0.526 0 0.831-0.319 0.31-0.324 0.427-0.883h0.822q-0.141 1-0.704 1.46-0.563 0.46-1.44 0.46-0.986 0-1.57-0.718-0.587-0.723-0.587-1.8 0-1.32 0.643-2.06t1.64-0.737zm-0.131 0.0235m3.17-1.28h0.854v1.4h0.803v0.69h-0.803v3.28q0 0.263 0.178 0.352 0.0986 0.0516 0.329 0.0516 0.061 0 0.131 0 0.0704-0.0047 0.164-0.0141v0.667q-0.146 0.0423-0.305 0.061-0.155 0.0188-0.338 0.0188-0.592 0-0.803-0.3-0.211-0.305-0.211-0.789v-3.33h-0.681v-0.69h0.681zm4.6 1.29q0.535 0 1.04 0.254 0.502 0.249 0.765 0.648 0.254 0.38 0.338 0.887 0.0751 0.347 0.0751 1.11h-3.69q0.0235 0.765 0.362 1.23 0.338 0.46 1.05 0.46 0.662 0 1.06-0.437 0.225-0.254 0.319-0.587h0.831q-0.0329 0.277-0.221 0.62-0.183 0.338-0.413 0.554-0.385 0.376-0.953 0.507-0.305 0.0751-0.69 0.0751-0.939 0-1.59-0.681-0.653-0.685-0.653-1.92 0-1.21 0.657-1.97 0.657-0.756 1.72-0.756zm1.35 2.23q-0.0516-0.549-0.239-0.878-0.347-0.61-1.16-0.61-0.582 0-0.977 0.423-0.394 0.418-0.418 1.07zm-1.43-2.23m3.87 2.69q0 0.808 0.343 1.35 0.343 0.545 1.1 0.545 0.587 0 0.962-0.502 0.38-0.507 0.38-1.45 0-0.953-0.39-1.41-0.39-0.46-0.962-0.46-0.638 0-1.04 0.488-0.394 0.488-0.394 1.44zm1.27-2.66q0.577 0 0.967 0.244 0.225 0.141 0.512 0.493v-2.54h0.812v6.92h-0.761v-0.7q-0.296 0.465-0.7 0.671-0.404 0.207-0.925 0.207-0.84 0-1.46-0.704-0.615-0.709-0.615-1.88 0-1.1 0.559-1.9 0.563-0.808 1.61-0.808zm6.23-1.78h0.845v6.9h-0.845zm2.11 1.89h0.859v5h-0.859zm0-1.89h0.859v0.958h-0.859zm2.13 1.87h0.836v0.714q0.3-0.371 0.545-0.54 0.418-0.286 0.948-0.286 0.601 0 0.967 0.296 0.207 0.169 0.376 0.498 0.282-0.404 0.662-0.596 0.38-0.197 0.854-0.197 1.01 0 1.38 0.732 0.197 0.394 0.197 1.06v3.35h-0.878v-3.49q0-0.502-0.254-0.69-0.249-0.188-0.61-0.188-0.498 0-0.859 0.333-0.357 0.333-0.357 1.11v2.92h-0.859v-3.28q0-0.512-0.122-0.746-0.192-0.352-0.718-0.352-0.479 0-0.873 0.371-0.39 0.371-0.39 1.34v2.67h-0.845zm8.01 0.0235h0.859v5h-0.859zm0-1.89h0.859v0.958h-0.859zm2.3 0.465h0.854v1.4h0.803v0.69h-0.803v3.28q0 0.263 0.178 0.352 0.0986 0.0516 0.329 0.0516 0.061 0 0.131 0 0.0704-0.0047 0.164-0.0141v0.667q-0.146 0.0423-0.305 0.061-0.155 0.0188-0.338 0.0188-0.592 0-0.803-0.3-0.211-0.305-0.211-0.789v-3.33h-0.681v-0.69h0.681zm3.01 4.85q0.0376 0.423 0.211 0.648 0.319 0.408 1.11 0.408 0.469 0 0.826-0.202 0.357-0.207 0.357-0.634 0-0.324-0.286-0.493-0.183-0.103-0.723-0.239l-0.671-0.169q-0.643-0.16-0.948-0.357-0.545-0.343-0.545-0.948 0-0.714 0.512-1.15 0.516-0.441 1.38-0.441 1.14 0 1.64 0.667 0.315 0.423 0.305 0.911h-0.798q-0.0235-0.286-0.202-0.521-0.291-0.333-1.01-0.333-0.479 0-0.728 0.183-0.244 0.183-0.244 0.484 0 0.329 0.324 0.526 0.188 0.117 0.554 0.207l0.559 0.136q0.911 0.221 1.22 0.427 0.493 0.324 0.493 1.02 0 0.671-0.512 1.16-0.507 0.488-1.55 0.488-1.12 0-1.59-0.507-0.465-0.512-0.498-1.26z" clip-path="url(#dO)" aria-label="95% CL expected limits"/>
</svg>
