<svg viewBox="0 0 344 296" xmlns="http://www.w3.org/2000/svg"><g fill="none" stroke="#000" stroke-miterlimit="10"><g stroke-width=".876"><path d="M47.88 259.824h289.009V21.089H47.88z" stroke-width=".116508"/><path d="M47.88 259.824h289.009V21.089H47.88z" stroke-width=".116508"/><path d="M47.88 259.824h289.009V21.089H47.88z" stroke-width=".116508"/><path d="M47.88 259.824h289.009V21.089H47.88z" stroke-width=".116508"/></g><path d="M47.88 259.824h289.009" stroke-width=".30191"/></g><path d="m333.431 277.646.078 1.756-1.662-.608-.297.935 1.703.468-1.09 1.383.795.561.981-1.45.967 1.45.794-.56-1.09-1.384 1.688-.468-.296-.935-1.65.608.078-1.756zM337.421 283.485h-1.397l.015 5.772c-.56.81-1.09 1.153-1.742 1.153-.905 0-1.437-.64-1.437-1.742v-5.174h-1.383v7.515c0 .327-.062.716-.171 1.185-.265.965-.281 1.06-.281 1.436 0 .654.327 1.122.78 1.122s.779-.468.779-1.153c0-.343-.047-.546-.313-1.45-.155-.56-.186-.716-.186-1.152v-.188c.67.545 1.028.717 1.556.717.78 0 1.57-.483 2.394-1.45.125.499.204.686.375.92.233.328.655.53 1.107.53.965 0 1.636-.686 1.848-1.889l-.42-.016c-.062.593-.39 1.06-.749 1.06-.466 0-.779-.561-.779-1.423zm-10.427-5.2c-.608 0-1.23.248-1.809.732-1.076.873-1.65 2.554-1.65 4.748 0 2.035.516 3.658 1.45 4.549.608.576 1.344.903 2.009.903.608 0 1.215-.249 1.822-.732 1.044-.857 1.636-2.54 1.636-4.641 0-2.155-.499-3.738-1.437-4.655-.623-.576-1.343-.903-2.021-.903zm1.862 5.865c-.03 1.782-.234 2.793-.686 3.63-.281.485-.78.842-1.17.842-.404 0-.903-.373-1.167-.841-.452-.841-.64-1.85-.67-3.631zm-3.698-.873c.031-1.715.233-2.74.67-3.55.265-.469.779-.859 1.168-.859s.905.39 1.17.858c.436.81.655 1.836.686 3.551zM239.932 277.646v8.007c0 1.542-1.107 2.473-2.953 2.473-.84 0-1.53-.203-2.074-.593-.562-.436-.826-1.028-.826-1.888v-8.007h-1.463v8.007c0 2.327 1.662 3.75 4.362 3.75 2.687 0 4.416-1.463 4.416-3.75v-8.007zm3.75 3.205v8.193h1.327v-4.522c0-1.689.872-2.78 2.207-2.78 1.028 0 1.703.623 1.703 1.623v5.68h1.294v-6.199c0-1.356-1.014-2.234-2.607-2.234-1.216 0-1.995.468-2.713 1.61v-1.37zm11.651 0h-1.356v-1.278c0-.561.311-.842.903-.842.109 0 .157 0 .452.016v-1.076a3.072 3.072 0 0 0-.731-.076c-1.201 0-1.929.684-1.929 1.875v1.383h-1.09v1.06h1.09v7.142h1.31v-7.142h1.357zm4.562-.234c-2.3 0-3.697 1.636-3.697 4.39 0 2.752 1.37 4.402 3.71 4.402 2.301 0 3.711-1.636 3.711-4.336 0-2.833-1.356-4.456-3.724-4.456zm.016 1.2c1.463 0 2.354 1.2 2.354 3.245 0 1.915-.919 3.152-2.354 3.152-1.45 0-2.354-1.215-2.354-3.192 0-1.982.905-3.192 2.354-3.192zm6.81-4.176h-1.326v11.411h1.326zm8.831 0h-1.294v4.242c-.545-.826-1.436-1.262-2.527-1.262-2.128 0-3.525 1.703-3.525 4.323 0 2.78 1.357 4.469 3.565 4.469 1.122 0 1.915-.422 2.62-1.437v1.076h1.153zm-3.604 4.19c1.41 0 2.3 1.247 2.3 3.204 0 1.89-.918 3.153-2.287 3.153-1.436 0-2.394-1.277-2.394-3.18 0-1.914.967-3.178 2.38-3.178zm12.582 3.55c0-1.246-.094-1.995-.328-2.62-.53-1.343-1.782-2.154-3.325-2.154-2.274 0-3.75 1.742-3.75 4.442s1.436 4.349 3.724 4.349c1.888 0 3.178-1.06 3.511-2.846h-1.309c-.359 1.09-1.106 1.649-2.154 1.649-.828 0-1.53-.374-1.969-1.06-.311-.483-.42-.951-.436-1.756zm-5.999-1.06c.11-1.53 1.03-2.513 2.341-2.513 1.278 0 2.274 1.06 2.274 2.42 0 .03 0 .063-.016.093zm14.364-6.69h-1.294v4.243c-.545-.826-1.436-1.262-2.527-1.262-2.128 0-3.524 1.702-3.524 4.322 0 2.78 1.356 4.47 3.564 4.47 1.123 0 1.915-.422 2.62-1.437v1.076h1.153zm-3.604 4.19c1.41 0 2.3 1.247 2.3 3.205 0 1.889-.918 3.152-2.287 3.152-1.436 0-2.394-1.277-2.394-3.178 0-1.916.967-3.18 2.381-3.18zm16.226 1.782c-.063-.81-.233-1.325-.545-1.782-.562-.764-1.556-1.216-2.7-1.216-2.208 0-3.644 1.743-3.644 4.47 0 2.646 1.396 4.322 3.63 4.322 1.969 0 3.192-1.17 3.352-3.18h-1.31c-.218 1.326-.903 1.983-2.008 1.983-1.437 0-2.314-1.184-2.314-3.113 0-2.061.857-3.271 2.274-3.271 1.09 0 1.795.64 1.942 1.795zm4.708-2.992c-2.3 0-3.697 1.635-3.697 4.389 0 2.753 1.37 4.402 3.71 4.402 2.301 0 3.711-1.636 3.711-4.336 0-2.833-1.356-4.455-3.724-4.455zm.016 1.2c1.463 0 2.354 1.2 2.354 3.244 0 1.916-.92 3.153-2.354 3.153-1.45 0-2.354-1.216-2.354-3.192 0-1.982.903-3.192 2.354-3.192zm11.292 1.31c-.015-1.61-1.09-2.514-2.98-2.514-1.901 0-3.151.981-3.151 2.487 0 1.294.654 1.902 2.606 2.367l1.216.297c.904.218 1.262.545 1.262 1.138 0 .778-.763 1.293-1.902 1.293-.702 0-1.294-.202-1.622-.545-.204-.234-.297-.469-.39-1.06h-1.37c.061 1.901 1.121 2.806 3.272 2.806 2.061 0 3.378-1.014 3.378-2.607 0-1.216-.685-1.889-2.327-2.274l-1.247-.297c-1.06-.25-1.516-.592-1.516-1.185 0-.747.67-1.231 1.73-1.231 1.043 0 1.608.452 1.635 1.31z"/><g fill="none" stroke="#000" stroke-miterlimit="10" stroke-width="2.27"><path d="M47.88 252.243v7.461M55.062 255.967v3.737M62.377 255.967v3.737M69.559 255.967v3.737M76.741 252.243v7.461M84.056 255.967v3.737M91.238 255.967v3.737M98.42 255.967v3.737M105.735 252.243v7.461M112.917 255.967v3.737M120.099 255.967v3.737M127.414 255.967v3.737M134.596 252.243v7.461M141.778 255.967v3.737M149.093 255.967v3.737M156.275 255.967v3.737M163.457 252.243v7.461M170.639 255.967v3.737M177.954 255.967v3.737M185.136 255.967v3.737M192.318 252.243v7.461M199.633 255.967v3.737M206.815 255.967v3.737M213.997 255.967v3.737M221.312 252.243v7.461M228.494 255.967v3.737M235.676 255.967v3.737M242.991 255.967v3.737M250.173 252.243v7.461M257.355 255.967v3.737M264.67 255.967v3.737M271.852 255.967v3.737M279.034 252.243v7.461M286.349 255.967v3.737M293.531 255.967v3.737M300.713 255.967v3.737M308.028 252.243v7.461M315.21 255.967v3.737M322.392 255.967v3.737M329.707 255.967v3.737M336.889 252.243v7.461M47.88 252.243v7.461" stroke-width=".30191"/></g><path d="M46.949 268.735h-2.913v.888h2.913zm3.75-2.354v6.171h1.077v-8.672h-.701c-.39 1.344-.624 1.517-2.288 1.73v.764zm19.153 2.354h-2.913v.888h2.913zm3.963-4.841c-.81 0-1.543.358-1.995.95-.561.764-.84 1.915-.84 3.524 0 2.913.965 4.469 2.832 4.469 1.822 0 2.82-1.556 2.82-4.403 0-1.675-.265-2.82-.84-3.604-.453-.608-1.17-.95-1.982-.95zm0 .95c1.154 0 1.729 1.184 1.729 3.51 0 2.448-.561 3.605-1.756 3.605-1.138 0-1.715-1.2-1.715-3.564 0-2.368.576-3.538 1.742-3.538zm5.759 6.437h-1.278v1.278h1.278zm5.839-3.272c.888-.545 1.185-.982 1.185-1.809 0-1.357-1.076-2.3-2.607-2.3-1.53 0-2.607.949-2.607 2.3 0 .81.28 1.246 1.168 1.809-.998.468-1.477 1.185-1.477 2.154 0 1.57 1.201 2.687 2.913 2.687 1.703 0 2.9-1.107 2.9-2.687 0-.965-.483-1.689-1.477-2.154zm-1.423-3.166c.903 0 1.49.547 1.49 1.384 0 .81-.594 1.343-1.49 1.343-.905 0-1.517-.53-1.517-1.357s.608-1.37 1.517-1.37zm0 3.631c1.074 0 1.808.685 1.808 1.703 0 1.03-.733 1.715-1.835 1.715-1.044 0-1.782-.7-1.782-1.715 0-1.014.733-1.703 1.809-1.703zm14.497.265h-2.913v.888h2.913zm3.95-4.841c-.81 0-1.543.358-1.995.95-.562.764-.842 1.915-.842 3.524 0 2.913.967 4.469 2.833 4.469 1.822 0 2.82-1.556 2.82-4.403 0-1.675-.265-2.82-.843-3.604-.452-.608-1.169-.95-1.981-.95zm0 .95c1.153 0 1.729 1.184 1.729 3.51 0 2.448-.562 3.605-1.756 3.605-1.137 0-1.716-1.2-1.716-3.564 0-2.368.578-3.538 1.743-3.538zm5.772 6.437h-1.278v1.278h1.278zm7.142-5.12c-.202-1.424-1.123-2.262-2.447-2.262-.951 0-1.81.467-2.328 1.23-.545.842-.78 1.916-.78 3.485 0 1.45.219 2.38.734 3.152.466.702 1.215 1.076 2.168 1.076 1.649 0 2.832-1.216 2.832-2.913 0-1.622-1.091-2.766-2.646-2.766-.857 0-1.53.328-1.995.967.016-2.102.702-3.285 1.928-3.285.764 0 1.277.484 1.45 1.31zm-2.607 1.968c1.044 0 1.703.732 1.703 1.888 0 1.092-.732 1.889-1.73 1.889s-1.755-.826-1.755-1.942c0-1.075.733-1.822 1.795-1.822zm14.763.623h-2.913v.889h2.913zm3.964-4.84c-.81 0-1.543.357-1.995.949-.56.764-.841 1.915-.841 3.524 0 2.913.966 4.469 2.833 4.469 1.822 0 2.82-1.556 2.82-4.402 0-1.676-.265-2.82-.841-3.605-.452-.607-1.17-.95-1.982-.95zm0 .949c1.154 0 1.729 1.185 1.729 3.51 0 2.448-.562 3.605-1.756 3.605-1.139 0-1.716-1.2-1.716-3.564 0-2.368.576-3.538 1.743-3.538zm5.758 6.437h-1.278v1.278h1.278zm5.054-.794v2.075h1.076v-2.075h1.294v-.967h-1.294v-5.626h-.795l-3.923 5.453v1.139zm0-.967h-2.713l2.713-3.79zm14.231-.78h-2.912v.889h2.912zm3.964-4.84c-.811 0-1.543.357-1.995.949-.561.765-.842 1.915-.842 3.525 0 2.912.967 4.468 2.833 4.468 1.822 0 2.82-1.556 2.82-4.402 0-1.676-.265-2.82-.842-3.604-.453-.608-1.17-.95-1.982-.95zm0 .949c1.153 0 1.729 1.185 1.729 3.511 0 2.447-.561 3.605-1.756 3.605-1.137 0-1.715-1.2-1.715-3.565 0-2.367.577-3.538 1.742-3.538zm5.759 6.437h-1.278v1.278h1.278zm7.235.218h-4.562c.11-.717.499-1.169 1.57-1.795l1.215-.656c1.216-.654 1.835-1.556 1.835-2.62 0-.717-.296-1.383-.81-1.849-.514-.466-1.153-.685-1.968-.685-1.107 0-1.915.39-2.394 1.122-.311.468-.436 1.013-.467 1.888h1.075c.048-.592.11-.935.266-1.215.28-.53.842-.842 1.476-.842.982 0 1.716.686 1.716 1.622 0 .687-.406 1.262-1.17 1.716l-1.122.624c-1.809 1.028-2.34 1.848-2.434 3.75h5.773zm18.753-7.607c-.811 0-1.543.358-1.995.95-.561.764-.842 1.915-.842 3.524 0 2.913.967 4.469 2.833 4.469 1.822 0 2.82-1.556 2.82-4.403 0-1.675-.265-2.82-.842-3.604-.453-.608-1.17-.95-1.982-.95zm0 .95c1.153 0 1.729 1.184 1.729 3.51 0 2.448-.561 3.605-1.756 3.605-1.137 0-1.715-1.2-1.715-3.565 0-2.367.577-3.537 1.742-3.537zm23.674-.95c-.811 0-1.543.358-1.995.95-.561.764-.842 1.915-.842 3.524 0 2.913.967 4.469 2.833 4.469 1.822 0 2.82-1.556 2.82-4.403 0-1.675-.265-2.82-.842-3.604-.453-.608-1.17-.95-1.982-.95zm0 .95c1.153 0 1.729 1.184 1.729 3.51 0 2.448-.561 3.605-1.756 3.605-1.137 0-1.715-1.2-1.715-3.565 0-2.367.577-3.537 1.742-3.537zm5.772 6.437h-1.278v1.278h1.278zm7.235.218h-4.562c.11-.717.5-1.17 1.57-1.796l1.215-.656c1.216-.654 1.836-1.556 1.836-2.62 0-.716-.297-1.383-.81-1.848-.515-.467-1.155-.685-1.969-.685-1.106 0-1.915.39-2.394 1.12-.31.47-.436 1.014-.466 1.89h1.074c.047-.592.11-.935.266-1.216.28-.53.84-.842 1.477-.842.981 0 1.715.686 1.715 1.623 0 .686-.405 1.262-1.169 1.715l-1.122.624c-1.81 1.028-2.341 1.849-2.434 3.75h5.772zm15.96-7.608c-.81 0-1.542.358-1.995.95-.561.764-.842 1.915-.842 3.524 0 2.913.967 4.469 2.833 4.469 1.822 0 2.82-1.556 2.82-4.402 0-1.676-.265-2.82-.84-3.605-.453-.607-1.17-.95-1.982-.95zm0 .95c1.153 0 1.73 1.185 1.73 3.51 0 2.448-.562 3.605-1.756 3.605-1.139 0-1.716-1.2-1.716-3.564 0-2.368.576-3.538 1.742-3.538zm5.76 6.437h-1.279v1.278h1.278zm5.053-.794v2.075h1.076v-2.075h1.293v-.967h-1.293v-5.626h-.795l-3.924 5.453v1.139zm0-.967h-2.713l2.713-3.79zm18.221-5.626c-.811 0-1.543.358-1.995.95-.561.764-.842 1.915-.842 3.524 0 2.913.967 4.469 2.833 4.469 1.822 0 2.82-1.556 2.82-4.402 0-1.676-.265-2.82-.842-3.605-.452-.607-1.17-.95-1.982-.95zm0 .95c1.153 0 1.73 1.185 1.73 3.51 0 2.448-.562 3.605-1.756 3.605-1.138 0-1.716-1.2-1.716-3.564 0-2.368.577-3.538 1.742-3.538zm5.76 6.437h-1.279v1.278h1.278zm7.128-5.12c-.202-1.424-1.123-2.262-2.447-2.262-.951 0-1.81.467-2.328 1.23-.545.843-.78 1.916-.78 3.485 0 1.45.219 2.38.734 3.152.468.703 1.215 1.076 2.168 1.076 1.649 0 2.832-1.215 2.832-2.912 0-1.623-1.091-2.767-2.646-2.767-.858 0-1.53.329-1.995.967.014-2.101.7-3.285 1.928-3.285.764 0 1.278.484 1.45 1.31zm-2.607 1.968c1.044 0 1.703.733 1.703 1.888 0 1.092-.732 1.889-1.73 1.889s-1.755-.826-1.755-1.942c0-1.074.733-1.822 1.795-1.822zm18.354-4.23c-.81 0-1.543.358-1.995.95-.561.765-.842 1.915-.842 3.525 0 2.912.967 4.468 2.833 4.468 1.822 0 2.82-1.556 2.82-4.402 0-1.676-.265-2.82-.84-3.604-.453-.608-1.17-.95-1.983-.95zm0 .95c1.153 0 1.73 1.185 1.73 3.511 0 2.447-.562 3.605-1.757 3.605-1.138 0-1.715-1.2-1.715-3.565 0-2.367.576-3.538 1.742-3.538zm5.759 6.437h-1.278v1.278h1.278zm5.852-3.272c.888-.545 1.184-.981 1.184-1.808 0-1.357-1.075-2.301-2.607-2.301-1.53 0-2.607.95-2.607 2.3 0 .81.28 1.247 1.17 1.81-.998.468-1.477 1.184-1.477 2.154 0 1.57 1.2 2.687 2.913 2.687 1.702 0 2.899-1.107 2.899-2.687 0-.966-.483-1.69-1.476-2.155zm-1.423-3.165c.904 0 1.49.547 1.49 1.383 0 .812-.592 1.344-1.49 1.344-.903 0-1.516-.53-1.516-1.357s.608-1.37 1.516-1.37zm0 3.63c1.076 0 1.809.686 1.809 1.703 0 1.03-.733 1.716-1.836 1.716-1.044 0-1.782-.7-1.782-1.716 0-1.013.733-1.702 1.809-1.702zm24.738-2.087v6.171h1.076v-8.672h-.702c-.389 1.344-.623 1.517-2.288 1.73v.764z"/><g fill="none" stroke="#000" stroke-miterlimit="10" stroke-width="2.27"><path d="M47.88 21.089h289.009M47.88 28.537v-7.461M55.062 24.813v-3.737M62.377 24.813v-3.737M69.559 24.813v-3.737M76.741 28.537v-7.461M84.056 24.813v-3.737M91.238 24.813v-3.737M98.42 24.813v-3.737M105.735 28.537v-7.461M112.917 24.813v-3.737M120.099 24.813v-3.737M127.414 24.813v-3.737M134.596 28.537v-7.461M141.778 24.813v-3.737M149.093 24.813v-3.737M156.275 24.813v-3.737M163.457 28.537v-7.461M170.639 24.813v-3.737M177.954 24.813v-3.737M185.136 24.813v-3.737M192.318 28.537v-7.461M199.633 24.813v-3.737M206.815 24.813v-3.737M213.997 24.813v-3.737M221.312 28.537v-7.461M228.494 24.813v-3.737M235.676 24.813v-3.737M242.991 24.813v-3.737M250.173 28.537v-7.461M257.355 24.813v-3.737M264.67 24.813v-3.737M271.852 24.813v-3.737M279.034 28.537v-7.461M286.349 24.813v-3.737M293.531 24.813v-3.737M300.713 24.813v-3.737M308.028 28.537v-7.461M315.21 24.813v-3.737M322.392 24.813v-3.737M329.707 24.813v-3.737M336.889 28.537v-7.461M47.88 28.537v-7.461M47.88 259.824V21.089" stroke-width=".30191"/></g><path d="M8.978 24.015v1.41l5.772-.016c.81.561 1.153 1.09 1.153 1.742 0 .905-.639 1.437-1.742 1.437H8.987v1.383H16.5c.327 0 .717.06 1.184.17.967.266 1.06.28 1.436.28.655 0 1.123-.327 1.123-.779 0-.45-.468-.778-1.153-.778-.343 0-.545.047-1.45.311-.561.156-.717.187-1.153.187H16.3c.546-.67.717-1.028.717-1.557 0-.779-.482-1.569-1.45-2.394.5-.125.687-.202.921-.373.327-.234.53-.656.53-1.107 0-.967-.686-1.636-1.89-1.862l-.014.422c.592.061 1.059.39 1.059.747 0 .468-.56.78-1.423.78zm-5.2 10.427c0 .608.25 1.232.732 1.809.873 1.076 2.554 1.65 4.748 1.65 2.048 0 3.658-.514 4.549-1.45.576-.608.904-1.344.904-2.009 0-.608-.25-1.215-.733-1.822-.858-1.044-2.54-1.636-4.641-1.636-2.155 0-3.738.499-4.655 1.437-.578.623-.905 1.343-.905 2.021zm5.865-1.862c1.782.032 2.793.234 3.63.686.483.281.842.78.842 1.17 0 .405-.375.904-.842 1.169-.841.452-1.862.638-3.63.67zm-.873 3.698c-1.716-.032-2.74-.234-3.551-.67-.467-.265-.857-.78-.857-1.17s.39-.904.857-1.169c.811-.436 1.835-.654 3.551-.686zM3.099 28.537l1.756-.077-.608 1.662.935.296.468-1.703 1.383 1.09.561-.793-1.45-.983 1.45-.966-.561-.795-1.383 1.09-.468-1.675-.935.296.608 1.65-1.756-.079zM17.9 19.1c-2.06-1.58-4.91-2.56-7.37-2.56-2.48 0-5.33.984-7.39 2.56v.859c2.25-1.39 4.87-2.16 7.39-2.16 2.5 0 5.14.765 7.37 2.16zM2.713 69.368v1.294h4.243c-.827.545-1.264 1.436-1.264 2.527 0 2.128 1.703 3.525 4.323 3.525 2.78 0 4.469-1.357 4.469-3.565 0-1.121-.422-1.915-1.437-2.62h1.075v-1.154zm4.19 3.604c0-1.396 1.247-2.3 3.205-2.3 1.889 0 3.152.918 3.152 2.287 0 1.436-1.278 2.394-3.179 2.394-1.915 0-3.178-.966-3.178-2.38zm-4.19-8.246c2.062 1.556 4.895 2.554 7.355 2.554 2.474 0 5.32-.998 7.368-2.554v-.856c-2.247 1.37-4.867 2.128-7.368 2.128-2.5 0-5.134-.764-7.355-2.128zm5.972-8.884c-.81.062-1.325.234-1.782.545-.764.561-1.216 1.556-1.216 2.7 0 2.208 1.742 3.644 4.469 3.644 2.647 0 4.322-1.396 4.322-3.63 0-1.969-1.169-3.193-3.178-3.352v1.31c1.324.218 1.981.903 1.981 2.008 0 1.437-1.183 2.301-3.112 2.301-2.061 0-3.272-.858-3.272-2.274 0-1.09.639-1.796 1.796-1.942zm-2.993-4.708c0 2.3 1.636 3.697 4.403 3.697 2.753 0 4.402-1.37 4.402-3.71 0-2.302-1.636-3.711-4.336-3.711-2.833 0-4.455 1.356-4.455 3.724zm1.201-.016c0-1.463 1.2-2.354 3.246-2.354 1.915 0 3.152.92 3.152 2.354 0 1.45-1.216 2.354-3.192 2.354s-3.192-.905-3.192-2.354zm1.31-11.292c-1.61.015-2.515 1.09-2.515 2.98 0 1.901.983 3.151 2.5 3.151 1.295 0 1.903-.654 2.368-2.606l.295-1.216c.219-.904.546-1.262 1.139-1.262.78 0 1.293.763 1.293 1.902 0 .7-.202 1.292-.546 1.622-.234.204-.466.297-1.06.39v1.37c1.902-.063 2.807-1.123 2.807-3.272 0-2.061-1.014-3.378-2.607-3.378-1.216 0-1.889.685-2.274 2.327l-.297 1.247c-.249 1.06-.592 1.516-1.185 1.516-.747 0-1.23-.67-1.23-1.73 0-1.043.452-1.609 1.308-1.635zM14.098 88.387v-.763L3.564 80.255v.78zM7.648 91.313H6.29v3.551c0 1.232.14 2.075.452 2.793.686 1.53 1.915 2.38 3.365 2.38 1.013 0 2.062-.389 2.873-1.106.935-.826 1.343-1.715 1.343-2.952 0-1.06-.328-1.982-.967-2.7-.64-.702-1.543-1.123-2.38-1.123-1.186 0-2.355.905-3.326 2.567zm0 4.163c1.41-1.357 1.995-1.65 3.271-1.65 1.636 0 2.727.78 2.727 1.943 0 1.436-1.596 2.62-3.511 2.62-1.49 0-2.5-.967-2.5-2.434zM2.713 100.623v1.294h4.243c-.827.545-1.264 1.436-1.264 2.527 0 2.128 1.703 3.525 4.323 3.525 2.78 0 4.469-1.357 4.469-3.565 0-1.121-.422-1.915-1.437-2.62h1.075v-1.154zm4.19 3.604c0-1.396 1.247-2.3 3.205-2.3 1.889 0 3.152.918 3.152 2.287 0 1.436-1.278 2.394-3.179 2.394-1.915 0-3.178-.966-3.178-2.38zM9.948 117.381l3.445 3.431.593-.607-3.431-3.432 3.431-3.431-.593-.608-3.445 3.431-3.431-3.431-.608.608 3.445 3.431-3.445 3.432.608.607zM7.648 126.824H6.29v3.551c0 1.232.14 2.075.452 2.793.686 1.53 1.915 2.38 3.365 2.38 1.013 0 2.062-.389 2.873-1.106.935-.826 1.343-1.715 1.343-2.94 0-1.06-.328-1.98-.967-2.699-.64-.7-1.543-1.122-2.38-1.122-1.186 0-2.355.904-3.326 2.566zm0 4.163c1.41-1.357 1.995-1.65 3.271-1.65 1.636 0 2.727.78 2.727 1.942 0 1.437-1.596 2.62-3.511 2.62-1.49 0-2.5-.965-2.5-2.433zm6.463 16.226v-.765L3.578 139.08v.78zM6.224 151.429h7.9v-1.37H3.033v.903c1.716.484 1.942.796 2.208 2.926h.982z"/><g fill="none" stroke="#000" stroke-miterlimit="10" stroke-width="2.27"><path d="M56.126 259.824h-8.312M52.003 255.169h-4.15M52.003 250.647h-4.15M52.003 246.125h-4.15M52.003 241.603h-4.15M56.126 237.081h-8.312M52.003 232.426h-4.15M52.003 227.904h-4.15M52.003 223.382h-4.15M52.003 218.86h-4.15M56.126 214.338h-8.312M52.003 209.816h-4.15M52.003 205.161h-4.15M52.003 200.639h-4.15M52.003 196.117h-4.15M56.126 191.595h-8.312M52.003 187.073h-4.15M52.003 182.418h-4.15M52.003 177.896h-4.15M52.003 173.374h-4.15M56.126 168.852h-8.312M52.003 164.33h-4.15M52.003 159.808h-4.15M52.003 155.153h-4.15M52.003 150.631h-4.15M56.126 146.109h-8.312M52.003 141.587h-4.15M52.003 137.065h-4.15M52.003 132.41h-4.15M52.003 127.888h-4.15M56.126 123.366h-8.312M52.003 118.844h-4.15M52.003 114.322h-4.15M52.003 109.8h-4.15M52.003 105.145h-4.15M56.126 100.623h-8.312M52.003 96.101h-4.15M52.003 91.579h-4.15M52.003 87.057h-4.15M52.003 82.402h-4.15M56.126 77.88h-8.312M52.003 73.358h-4.15M52.003 68.836h-4.15M52.003 64.314h-4.15M52.003 59.792h-4.15M56.126 55.137h-8.312M52.003 50.615h-4.15M52.003 46.093h-4.15M52.003 41.571h-4.15M52.003 37.049h-4.15M56.126 32.394h-8.312M56.126 32.394h-8.312M52.003 27.872h-4.15M52.003 23.35h-4.15" stroke-width=".30191"/></g><path d="M41.895 255.568c-.811 0-1.543.36-1.995.95-.561.764-.842 1.916-.842 3.525 0 2.913.966 4.47 2.833 4.47 1.822 0 2.82-1.557 2.82-4.403 0-1.69-.266-2.82-.842-3.604-.452-.608-1.17-.951-1.982-.951zm0 .95c1.153 0 1.729 1.186 1.729 3.512 0 2.447-.561 3.604-1.756 3.604-1.137 0-1.715-1.2-1.715-3.564 0-2.367.577-3.538 1.742-3.538zm-8.02-23.806c-.81 0-1.543.359-1.995.95-.561.764-.842 1.916-.842 3.525 0 2.913.967 4.47 2.833 4.47 1.822 0 2.82-1.557 2.82-4.39 0-1.676-.265-2.82-.84-3.604-.453-.608-1.17-.951-1.983-.951zm0 .95c1.153 0 1.73 1.186 1.73 3.512 0 2.447-.562 3.604-1.756 3.604-1.139 0-1.716-1.2-1.716-3.564 0-2.367.576-3.538 1.742-3.538zm5.759 6.438h-1.278v1.278h1.278zm4.23-4.894v6.17h1.075v-8.67h-.702c-.39 1.343-.622 1.515-2.287 1.728v.764zm-12.276-25.004c-.812 0-1.543.357-1.996.95-.56.764-.841 1.916-.841 3.525 0 2.913.965 4.469 2.833 4.469 1.822 0 2.82-1.556 2.82-4.39 0-1.688-.267-2.819-.843-3.603-.452-.608-1.169-.951-1.981-.951zm0 .95c1.153 0 1.728 1.184 1.728 3.512 0 2.447-.56 3.604-1.755 3.604-1.137 0-1.716-1.2-1.716-3.564 0-2.368.577-3.538 1.742-3.538zm5.758 6.438h-1.278v1.278h1.278zm7.236.22H40.02c.109-.719.498-1.17 1.57-1.796l1.215-.655c1.215-.655 1.835-1.556 1.835-2.62 0-.717-.296-1.383-.811-1.848-.514-.467-1.153-.685-1.969-.685-1.106 0-1.915.39-2.394 1.122-.31.467-.436 1.012-.466 1.889h1.074c.046-.593.11-.937.265-1.217.28-.53.842-.84 1.476-.84.982 0 1.716.684 1.716 1.622 0 .686-.406 1.263-1.17 1.716l-1.122.623c-1.808 1.03-2.34 1.85-2.434 3.751h5.773zM31.96 187.351c-.811 0-1.543.358-1.995.951-.561.764-.842 1.915-.842 3.525 0 2.912.966 4.469 2.833 4.469 1.822 0 2.82-1.557 2.82-4.403 0-1.689-.265-2.82-.842-3.604-.453-.608-1.17-.951-1.982-.951zm0 .951c1.153 0 1.729 1.184 1.729 3.511 0 2.448-.56 3.605-1.756 3.605-1.137 0-1.715-1.201-1.715-3.565 0-2.367.577-3.537 1.742-3.537zm5.772 6.437h-1.278v1.279h1.278zm3.75-2.7h.14l.453-.014c1.185 0 1.795.545 1.795 1.583 0 1.074-.67 1.729-1.795 1.729-1.17 0-1.743-.593-1.823-1.849h-1.074c.046.701.17 1.153.374 1.543.452.842 1.292 1.263 2.5 1.263 1.782 0 2.926-1.06 2.926-2.7 0-1.106-.436-1.715-1.463-2.074.795-.313 1.2-.92 1.2-1.796 0-1.49-.982-2.38-2.632-2.38-1.743 0-2.674.95-2.714 2.806h1.076c.016-.53.063-.826.186-1.09.25-.484.796-.764 1.463-.764.951 0 1.53.561 1.53 1.463 0 .624-.218.983-.7 1.185-.298.109-.671.171-1.437.171zm-9.895-27.264c-.81 0-1.542.359-1.995.95-.56.764-.841 1.916-.841 3.525 0 2.913.965 4.469 2.833 4.469 1.822 0 2.82-1.556 2.82-4.403 0-1.675-.267-2.82-.843-3.604-.452-.608-1.169-.95-1.981-.95zm0 .95c1.154 0 1.73 1.186 1.73 3.512 0 2.447-.562 3.604-1.756 3.604-1.137 0-1.716-1.2-1.716-3.564 0-2.368.577-3.538 1.742-3.538zm5.76 6.438h-1.279v1.278h1.278zm5.04-.796v2.075h1.075v-2.075h1.294v-.965h-1.294v-5.626h-.796l-3.923 5.453v1.137zm0-.965h-2.713l2.713-3.79zm-10.8-28.462c-.81 0-1.542.358-1.995.95-.56.764-.841 1.915-.841 3.524 0 2.913.965 4.469 2.833 4.469 1.822 0 2.82-1.556 2.82-4.39 0-1.675-.267-2.819-.843-3.604-.452-.607-1.169-.95-1.981-.95zm0 .95c1.154 0 1.73 1.184 1.73 3.51 0 2.448-.562 3.605-1.756 3.605-1.137 0-1.716-1.2-1.716-3.565 0-2.367.577-3.537 1.742-3.537zm5.76 6.437h-1.279v1.278h1.278zm6.862-7.382H39.74l-.638 4.722h.982c.498-.608.92-.81 1.582-.81 1.17 0 1.902.795 1.902 2.074 0 1.247-.733 2.009-1.902 2.009-.935 0-1.516-.483-1.782-1.45h-1.076c.156.702.28 1.045.53 1.357.498.67 1.37 1.044 2.354 1.044 1.742 0 2.965-1.278 2.965-3.1 0-1.715-1.137-2.885-2.793-2.885-.623 0-1.106.155-1.609.53l.343-2.434h3.605zM31.574 119.47c-.811 0-1.543.36-1.995.951-.561.763-.842 1.915-.842 3.525 0 2.912.966 4.468 2.833 4.468 1.822 0 2.82-1.556 2.82-4.389 0-1.689-.266-2.82-.842-3.604-.452-.608-1.17-.95-1.982-.95zm0 .951c1.153 0 1.73 1.184 1.73 3.511 0 2.447-.562 3.605-1.756 3.605-1.138 0-1.716-1.201-1.716-3.565s.577-3.538 1.742-3.538zm5.76 6.437h-1.279v1.278h1.278zm7.128-5.134c-.204-1.423-1.123-2.26-2.447-2.26a2.8 2.8 0 0 0-2.328 1.231c-.545.842-.78 1.915-.78 3.485 0 1.45.219 2.38.734 3.152.466.7 1.215 1.076 2.168 1.076 1.649 0 2.832-1.216 2.832-2.913 0-1.623-1.09-2.753-2.646-2.753-.857 0-1.53.327-1.995.965.016-2.1.702-3.285 1.928-3.285.765 0 1.278.483 1.45 1.31zm-2.607 1.969c1.044 0 1.702.733 1.702 1.888 0 1.091-.732 1.889-1.729 1.889s-1.755-.826-1.755-1.942c0-1.076.733-1.822 1.795-1.822zM31.561 96.56c-.811 0-1.543.359-1.995.95-.561.764-.842 1.916-.842 3.525 0 2.913.966 4.47 2.833 4.47 1.822 0 2.82-1.557 2.82-4.39 0-1.689-.266-2.82-.842-3.604-.453-.608-1.17-.951-1.982-.951zm0 .95c1.153 0 1.729 1.186 1.729 3.512 0 2.447-.561 3.604-1.756 3.604-1.137 0-1.715-1.2-1.715-3.564s.577-3.538 1.742-3.538zm5.759 6.438h-1.278v1.278h1.278zm7.408-7.395h-5.799v1.06h4.682c-2.062 2.953-2.9 4.748-3.551 7.608h1.153c.468-2.78 1.556-5.16 3.524-7.767zm-13.18-22.876c-.812 0-1.543.358-1.995.95-.562.765-.842 1.915-.842 3.524 0 2.913.965 4.47 2.833 4.47 1.822 0 2.82-1.557 2.82-4.39 0-1.676-.267-2.82-.843-3.604-.452-.608-1.169-.95-1.981-.95zm0 .95c1.153 0 1.729 1.185 1.729 3.511 0 2.447-.562 3.604-1.756 3.604-1.137 0-1.716-1.2-1.716-3.564 0-2.367.578-3.538 1.743-3.538zm5.758 6.437h-1.278v1.278h1.278zm5.84-3.272c.888-.545 1.184-.981 1.184-1.809 0-1.356-1.076-2.3-2.607-2.3-1.53 0-2.606.95-2.606 2.3 0 .81.28 1.247 1.169 1.81-.998.467-1.477 1.184-1.477 2.154 0 1.57 1.201 2.686 2.913 2.686 1.702 0 2.9-1.106 2.9-2.686 0-.966-.483-1.676-1.477-2.155zm-1.424-3.165c.903 0 1.49.545 1.49 1.383 0 .811-.593 1.343-1.49 1.343-.904 0-1.516-.529-1.516-1.356 0-.828.608-1.37 1.516-1.37zm0 3.63c1.075 0 1.809.686 1.809 1.703 0 1.03-.733 1.716-1.836 1.716-1.044 0-1.782-.701-1.782-1.716s.733-1.702 1.81-1.702zM31.92 51.127c-.811 0-1.543.357-1.995.95-.561.764-.842 1.916-.842 3.525 0 2.913.966 4.469 2.833 4.469 1.822 0 2.82-1.556 2.82-4.389 0-1.69-.265-2.82-.842-3.604-.452-.608-1.17-.951-1.982-.951zm0 .95c1.153 0 1.729 1.184 1.729 3.512 0 2.447-.56 3.604-1.756 3.604-1.137 0-1.715-1.2-1.715-3.564s.577-3.538 1.742-3.538zm5.772 6.438h-1.278v1.278h1.278zm1.716-.702c.202 1.423 1.122 2.26 2.447 2.26.95 0 1.822-.466 2.328-1.23.545-.842.794-1.902.794-3.484 0-1.45-.219-2.368-.732-3.152-.484-.701-1.231-1.075-2.181-1.075-1.65 0-2.833 1.232-2.833 2.926 0 1.61 1.09 2.74 2.66 2.74.81 0 1.423-.297 1.982-.967-.015 2.115-.701 3.285-1.929 3.285-.763 0-1.278-.484-1.45-1.31zm2.633-5.733c.998 0 1.756.826 1.756 1.942 0 1.059-.748 1.822-1.796 1.822-1.044 0-1.702-.717-1.702-1.888 0-1.107.733-1.889 1.729-1.889zm1.516-21.413v6.172h1.075v-8.672h-.7c-.39 1.343-.625 1.516-2.288 1.729v.763z"/><g fill="none" stroke-miterlimit="10"><g stroke="#000" stroke-width="2.27"><path d="M336.889 259.824V21.089M328.51 259.824h8.313M332.766 255.169h4.15M332.766 250.647h4.15M332.766 246.125h4.15M332.766 241.603h4.15M328.51 237.081h8.313M332.766 232.426h4.15M332.766 227.904h4.15M332.766 223.382h4.15M332.766 218.86h4.15M328.51 214.338h8.313M332.766 209.816h4.15M332.766 205.161h4.15M332.766 200.639h4.15M332.766 196.117h4.15M328.51 191.595h8.313M332.766 187.073h4.15M332.766 182.418h4.15M332.766 177.896h4.15M332.766 173.374h4.15M328.51 168.852h8.313M332.766 164.33h4.15M332.766 159.808h4.15M332.766 155.153h4.15M332.766 150.631h4.15M328.51 146.109h8.313M332.766 141.587h4.15M332.766 137.065h4.15M332.766 132.41h4.15M332.766 127.888h4.15M328.51 123.366h8.313M332.766 118.844h4.15M332.766 114.322h4.15M332.766 109.8h4.15M332.766 105.145h4.15M328.51 100.623h8.313M332.766 96.101h4.15M332.766 91.579h4.15M332.766 87.057h4.15M332.766 82.402h4.15M328.51 77.88h8.313M332.766 73.358h4.15M332.766 68.836h4.15M332.766 64.314h4.15M332.766 59.792h4.15M328.51 55.137h8.313M332.766 50.615h4.15M332.766 46.093h4.15M332.766 41.571h4.15M332.766 37.049h4.15M328.51 32.394h8.313M328.51 32.394h8.313M332.766 27.872h4.15M332.766 23.35h4.15" stroke-width=".30191"/></g><path d="M47.88 228.968h48.146v-33.117h48.146v-33.117h48.146V129.75h48.146V96.367h48.146V62.585h48.146" stroke="#039" stroke-width=".9044"/><path d="M47.88 230.564h48.146v-33.383h48.146v-34.048h48.146v-33.649h48.146V95.702h48.146V59.925h48.146" stroke="#f63" stroke-width=".60382"/><path d="M47.88 229.5h48.146v-33.383h48.146v-33.25h48.146V129.75h48.146V95.968h48.146V61.92h48.146" stroke="#666" stroke-dasharray="1.8097443000000002, 1.8097443000000002" stroke-width="1.5029000000000001"/><g stroke="#000"><path d="M71.953 227.239v-68.628" stroke-width=".60382"/><path d="M67.564 182.418h8.672M67.564 203.831h8.672" stroke-width="1.20631"/><path d="M71.953 203.831v-21.413M120.099 193.59v-46.949" stroke-width=".60382"/><path d="M115.843 163.133h8.672M115.843 177.231h8.672" stroke-width="1.20631"/><path d="M120.099 177.231v-14.098M168.245 184.014v-35.378" stroke-width=".60382"/><path d="M163.989 159.675h8.672M163.989 172.842h8.672" stroke-width="1.20631"/><path d="M168.245 172.842v-13.114M216.524 151.961v-31.654" stroke-width=".60382"/><path d="M212.135 130.016h8.672M212.135 142.385h8.672" stroke-width="1.20631"/><path d="M216.524 142.385v-12.356M264.67 138.794v-38.171" stroke-width=".60382"/><path d="M260.281 113.79h8.672M260.281 125.893h8.672" stroke-width="1.20631"/><path d="M264.67 125.893V113.71M312.816 128.819V53.807" stroke-width=".60382"/><path d="M308.427 80.673h8.672M308.427 101.288h8.672" stroke-width="1.20631"/><path d="M312.816 101.288V80.673" stroke-width=".60382"/></g></g><path d="M69.825 193.191c0-2.846 4.27-2.846 4.27 0s-4.27 2.846-4.27 0zm48.146-23.009c0-2.846 4.283-2.846 4.283 0s-4.283 2.846-4.283 0zm48.146-3.977c0-2.86 4.27-2.86 4.27 0 0 2.846-4.27 2.846-4.27 0zm48.146-30.058c0-2.846 4.27-2.846 4.27 0s-4.27 2.846-4.27 0zm48.146-16.359c0-2.846 4.283-2.846 4.283 0s-4.283 2.846-4.283 0zm48.146-28.86c0-2.847 4.283-2.847 4.283 0 0 2.845-4.283 2.845-4.283 0"/><path d="M171.038 24.015h170.506V6.326H171.038z" fill="#fff" fill-rule="evenodd"/><path d="M330.638 16.301c1.325-1.756 2.168-4.19 2.168-6.278 0-2.114-.842-4.535-2.168-6.29h-.731c1.169 1.915 1.822 4.162 1.822 6.29 0 2.115-.655 4.376-1.822 6.278zm-31.521-6.304c.983-.576 1.294-1.059 1.294-1.969 0-1.476-1.153-2.527-2.833-2.527-1.662 0-2.846 1.046-2.846 2.527 0 .889.327 1.37 1.277 1.969-1.075.53-1.61 1.31-1.61 2.354 0 1.742 1.31 2.952 3.18 2.952s3.178-1.2 3.178-2.926c0-1.06-.545-1.835-1.636-2.367zm-1.543-3.445c.998 0 1.636.592 1.636 1.516 0 .889-.656 1.463-1.636 1.463-.997 0-1.649-.577-1.649-1.476 0-.904.654-1.49 1.65-1.49zm0 3.977c1.17 0 1.982.747 1.982 1.848 0 1.123-.81 1.876-2.008 1.876-1.155 0-1.942-.765-1.942-1.876s.794-1.848 1.981-1.848zm12.183-4.176h3.192V5.246h-7.634v1.107h3.205v8.631h1.232zm10.294 5.506c0-1.06-.093-1.703-.28-2.235-.451-1.137-1.53-1.835-2.833-1.835-1.942 0-3.206 1.49-3.206 3.79 0 2.301 1.216 3.724 3.18 3.724 1.608 0 2.712-.92 2.992-2.433h-1.123c-.295.919-.935 1.396-1.822 1.396-.717 0-1.309-.327-1.676-.919-.266-.39-.359-.795-.375-1.49zm-5.134-.905c.094-1.292.873-2.128 1.995-2.128 1.091 0 1.929.903 1.929 2.062v.077zm10.933 4.044 3.378-9.736h-1.324l-2.7 8.246-2.873-8.246h-1.325l3.485 9.736zM293.265 3.732c-1.326 1.756-2.168 4.177-2.168 6.278s.84 4.535 2.168 6.304h.732c-1.17-1.915-1.823-4.163-1.823-6.304 0-2.115.655-4.376 1.823-6.278zM281.561 6.06h-2.181v.654h2.181zm2.82-1.782v4.628h.81V2.403h-.53c-.28.997-.467 1.137-1.715 1.294v.575zM232.085 13.641v1.383h.794v.234c0 .935-.17 1.2-.794 1.216v.515c.935 0 1.397-.608 1.397-1.743v-1.609zm9.709-5.36v6.743h1.17v-9.47h-.764c-.42 1.464-.685 1.663-2.514 1.89v.841zm4.682 4.575c.234 1.556 1.247 2.474 2.7 2.474a3.026 3.026 0 0 0 2.54-1.357c.592-.919.856-2.088.856-3.803 0-1.596-.234-2.607-.795-3.445-.53-.763-1.357-1.185-2.394-1.185-1.796 0-3.086 1.343-3.086 3.192 0 1.756 1.2 3.006 2.9 3.006.904 0 1.556-.327 2.168-1.059-.016 2.328-.764 3.604-2.102 3.604-.826 0-1.41-.53-1.596-1.436zm2.899-6.277c1.09 0 1.915.919 1.915 2.128 0 1.169-.81 1.995-1.968 1.995-1.139 0-1.836-.78-1.836-2.062 0-1.2.796-2.075 1.889-2.075zm6.384 7.062h-1.383v1.383h1.383zm8.113-8.086h-6.344v1.169h5.134c-2.261 3.205-3.179 5.187-3.897 8.312h1.262c.515-3.032 1.716-5.639 3.844-8.485zm7.634 2.473h-1.154V6.936c0-.466.266-.716.765-.716.093 0 .14 0 .39.016v-.92a2.95 2.95 0 0 0-.625-.062c-1.029 0-1.649.576-1.649 1.596v1.185h-.935v.903h.935v6.092h1.121V8.938h1.155zm.992-2.74v9.736h1.013v-.888c.53.811 1.231 1.2 2.207 1.2 1.836 0 3.046-1.515 3.046-3.83 0-2.274-1.138-3.684-2.992-3.684-.951 0-1.636.36-2.168 1.153V5.278zm3.073 3.592c1.231 0 2.048 1.076 2.048 2.74 0 1.595-.826 2.686-2.048 2.686-1.184 0-1.969-1.076-1.969-2.713 0-1.65.78-2.713 1.969-2.713zm-45.087-.841h-1.153V6.124h-1.107v1.915h-.95v.903h.95v5.294c0 .7.484 1.106 1.343 1.106.28 0 .546-.032.92-.094v-.935a2.679 2.679 0 0 1-.546.046c-.467 0-.608-.123-.608-.622V8.935h1.153z"/><path d="M227.164 4.597h3.817" fill="none" stroke="#000" stroke-miterlimit="10" stroke-width=".60382"/><path d="M175.427 11.38h-2.78V8.627h-.936v2.753h-2.753v.935h2.753v2.78h.936v-2.78h2.78zm5.32-3.431v8.006c0 .701-.234.92-.904.92-.047 0-.047 0-.265-.015v.95c.124.031.186.047.374.047 1.247 0 1.902-.515 1.902-1.463V7.95zm1.107-2.74h-1.107v1.41h1.107zm7.78 6.61c0-1.06-.093-1.703-.28-2.235-.453-1.137-1.53-1.835-2.833-1.835-1.942 0-3.22 1.49-3.22 3.79 0 2.301 1.218 3.725 3.18 3.725 1.609 0 2.713-.92 2.992-2.434h-1.122c-.296.919-.935 1.396-1.822 1.396-.717 0-1.31-.327-1.676-.919-.266-.39-.36-.795-.375-1.49zm-5.134-.905c.093-1.292.873-2.128 1.995-2.128 1.09 0 1.929.904 1.929 2.062v.077zm9.097-2.965h-1.153V6.033h-1.108V7.95h-.95v.903h.95v5.293c0 .701.485 1.107 1.344 1.107.28 0 .545-.032.92-.095v-.935a2.679 2.679 0 0 1-.545.047c-.468 0-.608-.124-.608-.623V8.845h1.153zm6.158 1.941c0-1.37-.92-2.154-2.527-2.154-1.636 0-2.7.842-2.7 2.141 0 1.09.562 1.623 2.235 2.022l1.028.25c.78.186 1.09.467 1.09.965 0 .655-.654 1.107-1.635 1.107-.594 0-1.107-.172-1.384-.467-.171-.203-.25-.406-.312-.904h-1.184c.063 1.622.966 2.394 2.793 2.394 1.756 0 2.886-.874 2.886-2.235 0-1.03-.576-1.61-1.968-1.942L197 10.82c-.903-.218-1.293-.515-1.293-.998 0-.64.576-1.06 1.476-1.06.889 0 1.37.39 1.41 1.121zm1.995 3.658v1.383h.796v.234c0 .935-.172 1.2-.796 1.216v.515c.937 0 1.41-.608 1.41-1.743v-1.61zm9.67-5.613h-1.154V6.02h-1.106v1.915h-.951v.903h.95v5.294c0 .7.484 1.106 1.344 1.106.28 0 .545-.032.92-.094v-.935a2.679 2.679 0 0 1-.546.046c-.468 0-.608-.123-.608-.622V8.832h1.153zm11.171 3.432h-2.78V8.614h-.934v2.753h-2.767v.935h2.767v2.78h.935v-2.78h2.78zM162.792 8.321h-1.185v4.921c-.468.67-.935.966-1.49.966-.763 0-1.215-.546-1.215-1.477V8.316h-1.185v6.41c0 .28-.047.608-.14 1.014-.234.826-.25.904-.25 1.215 0 .562.28.966.67.966s.655-.404.655-.998c0-.279-.03-.45-.249-1.23-.141-.468-.156-.608-.156-.983v-.155c.562.468.857.608 1.31.608.67 0 1.356-.405 2.06-1.247.11.437.188.592.312.794.203.28.561.453.95.453.827 0 1.41-.592 1.597-1.623h-.358c-.062.499-.343.904-.64.904-.404 0-.669-.482-.669-1.2zM57.323 8.188c-.077-.888-.249-1.45-.685-2.022-.795-1.044-2.075-1.622-3.618-1.622-2.899 0-4.708 2.075-4.708 5.413 0 3.298 1.796 5.373 4.655 5.373 2.554 0 4.256-1.476 4.39-3.844H55.28c-.125 1.325-.95 2.075-2.274 2.075-1.636 0-2.58-1.324-2.58-3.59s.997-3.618 2.66-3.618c.733 0 1.343.25 1.729.748.234.281.343.546.468 1.091zm3.618-1.216 1.835 8.034h2.115l1.822-8.034v8.034h2.115V4.725h-3.192l-1.81 8.18-1.848-8.18h-3.165v10.28h2.114zm17.29.873c0-.95-.219-1.57-.717-2.128-.701-.764-1.836-1.17-3.325-1.17-2.474 0-3.897 1.154-3.897 3.166 0 1.596.795 2.368 2.9 2.753l1.436.28c1.423.282 1.928.671 1.928 1.49 0 .873-.795 1.384-2.075 1.384-1.45 0-2.247-.608-2.327-1.716h-2.062c.124 2.208 1.636 3.418 4.27 3.418 2.646 0 4.229-1.246 4.229-3.338 0-1.623-.826-2.474-2.726-2.833l-1.623-.313c-1.516-.295-1.955-.591-1.955-1.343 0-.78.7-1.278 1.782-1.278 1.357 0 2.101.576 2.168 1.623z"/><g fill="none" stroke="#000" stroke-miterlimit="10" stroke-width="2.27"><path d="M47.88 259.824h289.009M47.88 252.243v7.461M55.062 255.967v3.737M62.377 255.967v3.737M69.559 255.967v3.737M76.741 252.243v7.461M84.056 255.967v3.737M91.238 255.967v3.737M98.42 255.967v3.737M105.735 252.243v7.461M112.917 255.967v3.737M120.099 255.967v3.737M127.414 255.967v3.737M134.596 252.243v7.461M141.778 255.967v3.737M149.093 255.967v3.737M156.275 255.967v3.737M163.457 252.243v7.461M170.639 255.967v3.737M177.954 255.967v3.737M185.136 255.967v3.737M192.318 252.243v7.461M199.633 255.967v3.737M206.815 255.967v3.737M213.997 255.967v3.737M221.312 252.243v7.461M228.494 255.967v3.737M235.676 255.967v3.737M242.991 255.967v3.737M250.173 252.243v7.461M257.355 255.967v3.737M264.67 255.967v3.737M271.852 255.967v3.737M279.034 252.243v7.461M286.349 255.967v3.737M293.531 255.967v3.737M300.713 255.967v3.737M308.028 252.243v7.461M315.21 255.967v3.737M322.392 255.967v3.737M329.707 255.967v3.737M336.889 252.243v7.461M47.88 252.243v7.461M47.88 21.089h289.009M47.88 28.537v-7.461M55.062 24.813v-3.737M62.377 24.813v-3.737M69.559 24.813v-3.737M76.741 28.537v-7.461M84.056 24.813v-3.737M91.238 24.813v-3.737M98.42 24.813v-3.737M105.735 28.537v-7.461M112.917 24.813v-3.737M120.099 24.813v-3.737M127.414 24.813v-3.737M134.596 28.537v-7.461M141.778 24.813v-3.737M149.093 24.813v-3.737M156.275 24.813v-3.737M163.457 28.537v-7.461M170.639 24.813v-3.737M177.954 24.813v-3.737M185.136 24.813v-3.737M192.318 28.537v-7.461M199.633 24.813v-3.737M206.815 24.813v-3.737M213.997 24.813v-3.737M221.312 28.537v-7.461M228.494 24.813v-3.737M235.676 24.813v-3.737M242.991 24.813v-3.737M250.173 28.537v-7.461M257.355 24.813v-3.737M264.67 24.813v-3.737M271.852 24.813v-3.737M279.034 28.537v-7.461M286.349 24.813v-3.737M293.531 24.813v-3.737M300.713 24.813v-3.737M308.028 28.537v-7.461M315.21 24.813v-3.737M322.392 24.813v-3.737M329.707 24.813v-3.737M336.889 28.537v-7.461M47.88 28.537v-7.461M47.88 259.824V21.089M56.126 259.824h-8.312M52.003 255.169h-4.15M52.003 250.647h-4.15M52.003 246.125h-4.15M52.003 241.603h-4.15M56.126 237.081h-8.312M52.003 232.426h-4.15M52.003 227.904h-4.15M52.003 223.382h-4.15M52.003 218.86h-4.15M56.126 214.338h-8.312M52.003 209.816h-4.15M52.003 205.161h-4.15M52.003 200.639h-4.15M52.003 196.117h-4.15M56.126 191.595h-8.312M52.003 187.073h-4.15M52.003 182.418h-4.15M52.003 177.896h-4.15M52.003 173.374h-4.15M56.126 168.852h-8.312M52.003 164.33h-4.15M52.003 159.808h-4.15M52.003 155.153h-4.15M52.003 150.631h-4.15M56.126 146.109h-8.312M52.003 141.587h-4.15M52.003 137.065h-4.15M52.003 132.41h-4.15M52.003 127.888h-4.15M56.126 123.366h-8.312M52.003 118.844h-4.15M52.003 114.322h-4.15M52.003 109.8h-4.15M52.003 105.145h-4.15M56.126 100.623h-8.312M52.003 96.101h-4.15M52.003 91.579h-4.15M52.003 87.057h-4.15M52.003 82.402h-4.15M56.126 77.88h-8.312M52.003 73.358h-4.15M52.003 68.836h-4.15M52.003 64.314h-4.15M52.003 59.792h-4.15M56.126 55.137h-8.312M52.003 50.615h-4.15M52.003 46.093h-4.15M52.003 41.571h-4.15M52.003 37.049h-4.15M56.126 32.394h-8.312M56.126 32.394h-8.312M52.003 27.872h-4.15M52.003 23.35h-4.15M336.889 259.824V21.089M328.51 259.824h8.313M332.766 255.169h4.15M332.766 250.647h4.15M332.766 246.125h4.15M332.766 241.603h4.15M328.51 237.081h8.313M332.766 232.426h4.15M332.766 227.904h4.15M332.766 223.382h4.15M332.766 218.86h4.15M328.51 214.338h8.313M332.766 209.816h4.15M332.766 205.161h4.15M332.766 200.639h4.15M332.766 196.117h4.15M328.51 191.595h8.313M332.766 187.073h4.15M332.766 182.418h4.15M332.766 177.896h4.15M332.766 173.374h4.15M328.51 168.852h8.313M332.766 164.33h4.15M332.766 159.808h4.15M332.766 155.153h4.15M332.766 150.631h4.15M328.51 146.109h8.313M332.766 141.587h4.15M332.766 137.065h4.15M332.766 132.41h4.15M332.766 127.888h4.15M328.51 123.366h8.313M332.766 118.844h4.15M332.766 114.322h4.15M332.766 109.8h4.15M332.766 105.145h4.15M328.51 100.623h8.313M332.766 96.101h4.15M332.766 91.579h4.15M332.766 87.057h4.15M332.766 82.402h4.15M328.51 77.88h8.313M332.766 73.358h4.15M332.766 68.836h4.15M332.766 64.314h4.15M332.766 59.792h4.15M328.51 55.137h8.313M332.766 50.615h4.15M332.766 46.093h4.15M332.766 41.571h4.15M332.766 37.049h4.15M328.51 32.394h8.313M328.51 32.394h8.313M332.766 27.872h4.15M332.766 23.35h4.15" stroke-width=".30191"/></g><path d="M235.809 35.32c-.202-1.423-1.123-2.261-2.447-2.261-.951 0-1.809.467-2.328 1.23-.545.842-.78 1.915-.78 3.485 0 1.45.219 2.38.734 3.152.467.7 1.215 1.075 2.168 1.075 1.649 0 2.833-1.216 2.833-2.913 0-1.623-1.092-2.753-2.647-2.753-.857 0-1.53.327-1.995.965.016-2.101.702-3.285 1.928-3.285.764 0 1.277.484 1.45 1.31zm-2.607 1.968c1.044 0 1.703.733 1.703 1.889 0 1.092-.733 1.889-1.73 1.889s-1.755-.826-1.755-1.942c0-1.075.733-1.822 1.796-1.822zm-71.155.39h4.256v-1.012h-4.256v-2.833h4.841V32.82h-5.971v8.91h1.122zm12.516-2.248c-.016-1.742-1.2-2.753-3.259-2.753-1.968 0-3.165.998-3.165 2.62 0 1.092.577 1.783 1.742 2.075l2.208.592c1.122.297 1.636.749 1.636 1.436 0 .485-.265.967-.64 1.232-.358.25-.92.39-1.636.39-.967 0-1.623-.234-2.062-.748-.327-.39-.466-.826-.452-1.37h-1.074c0 .828.171 1.357.513 1.836.624.842 1.636 1.278 2.993 1.278 1.075 0 1.928-.249 2.513-.685.608-.468.982-1.264.982-2.048 0-1.09-.685-1.902-1.902-2.235l-2.235-.607c-1.076-.297-1.463-.624-1.463-1.31 0-.904.796-1.517 1.995-1.517 1.424 0 2.195.655 2.208 1.81zm2.008 8.885c1.215-1.596 1.995-3.817 1.995-5.733 0-1.928-.78-4.162-1.995-5.772h-.67c1.075 1.756 1.662 3.804 1.662 5.772 0 1.929-.592 4.004-1.663 5.733zm12.86-5.852h-2.54v-2.54h-.857v2.54h-2.527v.858h2.527v2.527h.858V39.32h2.54zm6.239-.515h2.806c.685 0 1.246-.218 1.716-.638.545-.483.779-1.06.779-1.889 0-1.662-.998-2.62-2.766-2.62h-3.671v8.911h1.137zm0-1.012v-3.112h2.367c1.092 0 1.742.576 1.742 1.556 0 .981-.654 1.556-1.742 1.556zm10.64-1.623-1.756 4.988-1.65-4.988h-1.075l2.154 6.438-.39 1.012c-.155.452-.389.623-.81.623-.155 0-.326-.03-.545-.077v.92c.219.108.42.155.687.155.327 0 .685-.11.95-.311.327-.234.514-.499.702-1.014l2.846-7.74zm4.468 0h-1.044v-1.755h-1.012v1.755h-.874v.826h.874v4.841c0 .656.436 1.014 1.23 1.014.25 0 .485-.03.826-.077v-.858c-.123.03-.295.047-.482.047-.437 0-.562-.126-.562-.576v-4.39h1.044zm1.155-2.513v8.91h1.012v-3.537c0-1.294.686-2.155 1.729-2.155.327 0 .67.11.904.28.297.219.42.516.42.966v4.443h1.014v-4.828c0-1.075-.763-1.756-2.008-1.756-.903 0-1.463.28-2.062 1.076v-3.405zm7.767 2.513h-1.013v6.41l1.013.001zm0-2.513h-1.03v1.294h1.03zm7.408 8.325c-.109.016-.155.016-.218.016-.343 0-.545-.187-.545-.498v-3.75c0-1.138-.826-1.757-2.394-1.757-.935 0-1.703.281-2.128.75-.297.326-.406.7-.438 1.343h1.03c.077-.78.545-1.139 1.49-1.139.918 0 1.436.343 1.436.951v.265c0 .436-.25.608-1.06.717-1.45.171-1.663.234-2.062.39-.747.296-1.122.872-1.122 1.715 0 1.153.81 1.889 2.1 1.889.81 0 1.45-.281 2.169-.935.078.64.39.935 1.06.935.203 0 .359-.031.686-.11zm-1.782-1.423c0 .342-.093.546-.406.826-.42.374-.919.576-1.516.576-.795 0-1.263-.39-1.263-1.028 0-.67.452-1.013 1.542-1.169 1.075-.156 1.293-.202 1.636-.36zM90.73 37.947h2.806c.687 0 1.246-.218 1.716-.639.545-.482.78-1.06.78-1.888 0-1.663-.998-2.62-2.754-2.62h-3.684v8.91h1.139zm0-1.012v-3.113h2.367c1.09 0 1.743.576 1.743 1.557s-.655 1.556-1.743 1.556zm10.653-4.27c-2.553 0-4.282 1.889-4.282 4.682 0 2.78 1.729 4.655 4.296 4.655 1.076 0 2.048-.327 2.753-.935.967-.826 1.542-2.195 1.542-3.658 0-2.872-1.702-4.734-4.322-4.734zm0 .998c1.929 0 3.179 1.463 3.179 3.724 0 2.154-1.294 3.617-3.165 3.617-1.902 0-3.166-1.463-3.166-3.657 0-2.208 1.262-3.67 3.152-3.67zm13.832 8.06 2.261-8.911h-1.262l-1.636 7.248-2.021-7.248h-1.232l-1.982 7.248-1.662-7.248h-1.278l2.287 8.91h1.248l1.995-7.328 2.048 7.329zm9.177-4.057v4.057h1.139v-8.911h-1.139v3.857h-4.575v-3.857h-1.138v8.91h1.153v-4.056zm4.323 0h4.868v-1.012h-4.868v-2.833h5.027v-1.013h-6.158v8.91h6.384v-.997h-5.267zm14.63-.654h-3.711v.997h2.713v.25c0 1.596-1.185 2.74-2.806 2.74-.904 0-1.73-.327-2.248-.904-.592-.639-.95-1.703-.95-2.807 0-2.18 1.247-3.63 3.138-3.63 1.357 0 2.34.7 2.58 1.848h1.153c-.31-1.809-1.675-2.846-3.724-2.846-1.09 0-1.968.28-2.66.857-1.029.857-1.622 2.234-1.622 3.83 0 2.74 1.676 4.642 4.083 4.642 1.216 0 2.181-.453 3.059-1.423l.28 1.183h.717zm7.115-4.203c-1.215 1.61-1.995 3.83-1.995 5.746 0 1.928.78 4.162 1.995 5.745h.67c-1.075-1.742-1.662-3.804-1.662-5.745 0-1.942.592-4.004 1.663-5.746zm6.996.25h-4.469l-.638 4.722h.981c.5-.608.92-.81 1.596-.81 1.17 0 1.902.795 1.902 2.074 0 1.247-.733 2.009-1.902 2.009-.935 0-1.516-.483-1.782-1.45h-1.074c.155.7.28 1.044.529 1.357.499.67 1.37 1.044 2.354 1.044 1.742 0 2.966-1.279 2.966-3.1 0-1.715-1.137-2.885-2.793-2.885-.624 0-1.108.155-1.61.53l.342-2.434h3.605z"/><path d="M65.702 38.113h19.152" fill="none" stroke="#039" stroke-miterlimit="10" stroke-width=".9044"/><path d="M242.592 53.541c.888-.545 1.184-.982 1.184-1.809 0-1.356-1.075-2.314-2.607-2.314-1.53 0-2.607.951-2.607 2.314 0 .81.28 1.246 1.17 1.809-.998.468-1.477 1.185-1.477 2.155 0 1.569 1.2 2.686 2.913 2.686 1.702 0 2.899-1.106 2.899-2.686 0-.966-.483-1.676-1.476-2.155zm-1.423-3.165c.904 0 1.49.545 1.49 1.383 0 .811-.592 1.343-1.49 1.343-.903 0-1.516-.53-1.516-1.356 0-.828.608-1.37 1.516-1.37zm0 3.63c1.076 0 1.809.685 1.809 1.703 0 1.03-.733 1.716-1.836 1.716-1.044 0-1.782-.701-1.782-1.716s.733-1.703 1.809-1.703zm-71.022.031h4.256v-1.013h-4.256V50.19h4.841v-1.014h-5.972v8.911h1.123zm12.515-2.248c-.014-1.742-1.2-2.766-3.258-2.766-1.969 0-3.166.997-3.166 2.62 0 1.092.578 1.782 1.743 2.075l2.207.592c1.123.296 1.636.749 1.636 1.436 0 .484-.264.967-.638 1.232-.36.25-.92.39-1.636.39-.966 0-1.623-.235-2.062-.748-.327-.39-.466-.827-.45-1.37h-1.076c0 .826.171 1.357.514 1.835.624.842 1.636 1.279 2.993 1.279 1.075 0 1.928-.25 2.514-.687.607-.467.982-1.262.982-2.048 0-1.09-.686-1.902-1.901-2.234l-2.235-.608c-1.075-.295-1.463-.623-1.463-1.309 0-.904.794-1.516 1.995-1.516 1.423 0 2.195.656 2.208 1.809zm2.009 8.885c1.215-1.596 1.995-3.817 1.995-5.733 0-1.928-.78-4.162-1.995-5.772H184c1.075 1.756 1.662 3.804 1.662 5.772 0 1.929-.592 4.004-1.663 5.733zm12.847-5.839h-2.54v-2.54h-.857v2.54h-2.527v.857h2.527v2.527h.857v-2.527h2.54zm6.251-.515h2.807c.686 0 1.246-.218 1.715-.638.546-.484.78-1.06.78-1.889 0-1.662-.998-2.62-2.753-2.62h-3.685v8.911h1.139zm0-1.013v-3.112h2.368c1.09 0 1.742.576 1.742 1.556 0 .981-.654 1.556-1.742 1.556zm10.64-1.623-1.755 4.988-1.65-4.988h-1.074l2.154 6.438-.39 1.012c-.155.452-.389.623-.81.623-.156 0-.328-.03-.546-.078v.92c.218.11.422.156.686.156.328 0 .687-.11.951-.311.328-.234.514-.5.701-1.014l2.847-7.74zm4.47 0h-1.045V49.93h-1.013v1.755h-.873v.826h.873v4.841c0 .655.436 1.014 1.231 1.014.249 0 .483-.03.826-.079v-.856c-.125.03-.296.046-.483.046-.436 0-.56-.125-.56-.577V52.51h1.043zm1.152-2.513v8.91h1.014v-3.537c0-1.294.685-2.155 1.729-2.155.327 0 .67.11.903.28.296.219.421.514.421.966v4.443h1.012V53.25c0-1.075-.763-1.756-2.008-1.756-.904 0-1.463.28-2.061 1.076v-3.405zm7.78 2.513h-1.013v6.41h1.014zm0-2.513h-1.029v1.294h1.03zm7.409 8.325c-.11.016-.156.016-.218.016-.343 0-.546-.187-.546-.5v-3.75c0-1.137-.826-1.756-2.394-1.756-.935 0-1.702.28-2.128.749-.296.327-.405.7-.436 1.343h1.028c.079-.78.546-1.137 1.49-1.137.92 0 1.436.343 1.436.951v.265c0 .436-.248.607-1.06.717-1.45.171-1.662.234-2.061.39-.75.296-1.123.872-1.123 1.715 0 1.153.81 1.889 2.102 1.889.81 0 1.45-.281 2.168-.935.077.638.39.935 1.06.935.202 0 .357-.031.684-.11zm-1.782-1.423c0 .343-.093.547-.405.826-.421.375-.92.577-1.516.577-.795 0-1.262-.39-1.262-1.028 0-.67.45-1.013 1.543-1.169 1.074-.155 1.292-.203 1.636-.359zm-138.32 1.423c-.11.016-.156.016-.219.016-.343 0-.545-.187-.545-.5v-3.75c0-1.137-.826-1.756-2.407-1.756-.935 0-1.703.28-2.141.749-.297.327-.406.7-.437 1.343h1.028c.079-.78.546-1.137 1.49-1.137.92 0 1.436.343 1.436.951v.265c0 .436-.248.607-1.06.717-1.45.171-1.662.234-2.061.39-.748.296-1.121.872-1.121 1.715 0 1.153.81 1.889 2.101 1.889.81 0 1.45-.281 2.168-.935.077.638.39.935 1.06.935.202 0 .358-.031.685-.11zm-1.783-1.423c0 .343-.093.547-.404.826-.422.375-.92.577-1.516.577-.795 0-1.262-.39-1.262-1.028 0-.67.45-1.013 1.543-1.169 1.074-.155 1.292-.203 1.635-.359zm7.754 2.009 2.514-7.462v7.462h1.076V49.17h-1.596l-2.58 7.767-2.634-7.767H96.3v8.91h1.076v-7.46l2.527 7.46zm12.542-6.145c-.359-1.968-1.476-2.913-3.431-2.913-1.2 0-2.168.375-2.82 1.108-.811.887-1.247 2.155-1.247 3.605 0 1.463.452 2.726 1.294 3.59.686.717 1.556 1.045 2.726 1.045 2.168 0 3.392-1.17 3.658-3.538h-1.17c-.109.624-.233 1.028-.405 1.383-.374.733-1.122 1.153-2.088 1.153-1.756 0-2.886-1.423-2.886-3.644 0-2.274 1.074-3.698 2.793-3.698.717 0 1.383.22 1.755.562.328.312.514.686.655 1.356zm8.858.016-.265.81c-.296-.701-.81-1.06-1.49-1.06-1.635 0-3.138 1.61-3.138 3.378 0 1.262.856 2.235 1.995 2.235.638 0 1.168-.265 1.729-.873.11.622.577.935 1.343.935.905 0 1.65-.343 2.275-1.076.67-.794 1.06-1.782 1.06-2.726 0-2.474-2.368-4.549-5.2-4.549a6.24 6.24 0 0 0-4.07 1.57c-1.2 1.09-1.929 2.726-1.929 4.335 0 2.713 2.46 4.881 5.546 4.881.904 0 1.889-.171 2.78-.514l-.343-.81c-1.014.28-1.703.39-2.368.39-2.58 0-4.575-1.796-4.575-4.137 0-2.567 2.234-4.788 4.801-4.788 2.341 0 4.296 1.716 4.296 3.75 0 1.437-1.012 2.807-2.035 2.807-.343 0-.623-.234-.623-.53 0-.109.062-.327.156-.607l1.091-3.432zm-1.822.53c.686 0 1.185.514 1.138 1.168-.016.608-.343 1.636-.655 2.088-.342.5-.794.796-1.247.796-.67 0-1.2-.64-1.2-1.437 0-1.37.936-2.62 1.97-2.62zm13.965-3.326h-1.076v7.289l-4.642-7.289h-1.231v8.911h1.076v-7.222l4.601 7.222h1.279zm3.059 0h-1.139v8.911h5.533v-.997h-4.389zm9.416-.14c-2.553 0-4.282 1.888-4.282 4.68 0 2.78 1.729 4.656 4.296 4.656 1.076 0 2.048-.327 2.766-.935.966-.826 1.543-2.195 1.543-3.658 0-2.872-1.703-4.734-4.323-4.734zm0 .997c1.929 0 3.179 1.463 3.179 3.724 0 2.154-1.293 3.617-3.165 3.617-1.902 0-3.166-1.463-3.166-3.657 0-2.208 1.264-3.684 3.152-3.684zm11.04-.857c-1.218 1.61-1.996 3.83-1.996 5.746 0 1.928.778 4.163 1.995 5.746h.67c-1.075-1.743-1.663-3.804-1.663-5.746s.592-4.003 1.662-5.746zm5.173 6.837v2.074h1.076v-2.074h1.293v-.966h-1.293v-5.626h-.795l-3.924 5.453v1.137zm0-.966h-2.713l2.713-3.79z"/><path d="M65.702 54.738h19.152" fill="none" stroke="#666" stroke-dasharray="1.8097443000000002, 1.8097443000000002" stroke-miterlimit="10" stroke-width="1.5029000000000001"/><path d="M201.894 68.437c-.202-1.423-1.123-2.261-2.447-2.261a2.8 2.8 0 0 0-2.328 1.232c-.545.841-.78 1.915-.78 3.484 0 1.45.219 2.38.734 3.152.467.703 1.215 1.076 2.168 1.076 1.649 0 2.833-1.215 2.833-2.912 0-1.623-1.092-2.767-2.647-2.767-.857 0-1.53.327-1.995.967.016-2.101.702-3.285 1.928-3.285.765 0 1.278.483 1.45 1.31zm-2.607 1.968c1.044 0 1.703.733 1.703 1.889 0 1.09-.733 1.889-1.73 1.889s-1.755-.826-1.755-1.942c0-1.075.733-1.822 1.796-1.822zM96.611 68.703c-.358-1.968-1.476-2.913-3.431-2.913-1.2 0-2.168.375-2.82 1.107-.811.888-1.247 2.154-1.247 3.604 0 1.463.452 2.727 1.294 3.591.686.717 1.556 1.044 2.726 1.044 2.168 0 3.392-1.169 3.658-3.538h-1.17c-.109.624-.233 1.028-.405 1.384-.374.732-1.122 1.153-2.088 1.153-1.756 0-2.886-1.423-2.886-3.644 0-2.275 1.074-3.698 2.793-3.698.718 0 1.383.218 1.755.561.328.313.514.687.655 1.357zm4.043-.452c-1.795 0-2.886 1.294-2.886 3.444s1.076 3.432 2.9 3.432c1.795 0 2.9-1.278 2.9-3.378 0-2.208-1.06-3.485-2.914-3.485zm.016.95c1.154 0 1.836.936 1.836 2.528 0 1.516-.718 2.46-1.836 2.46-1.138 0-1.835-.95-1.835-2.5s.701-2.5 1.835-2.5zm4.31-.763v6.41h1.028v-4.016c0-.936.67-1.662 1.49-1.662.764 0 1.184.45 1.184 1.278v4.416h1.029v-4.017c0-.936.67-1.663 1.516-1.663.733 0 1.185.467 1.185 1.279v4.415h1.012v-4.801c0-1.155-.654-1.796-1.849-1.796-.858 0-1.37.265-1.968.982-.374-.685-.889-.982-1.73-.982s-1.409.328-1.968 1.091v-.903zm9.975 9.07h1.028v-3.337c.546.654 1.138.95 1.968.95 1.65 0 2.74-1.324 2.74-3.364 0-2.155-1.044-3.512-2.74-3.512-.872 0-1.57.406-2.035 1.154v-.966h-.95zm2.82-8.285c1.122 0 1.861.982 1.861 2.514 0 1.45-.748 2.447-1.862 2.447-1.076 0-1.795-.982-1.795-2.474 0-1.516.717-2.474 1.795-2.474zm10.054 1.57v4.056h1.137v-8.911h-1.137v3.844h-4.588v-3.844h-1.138v8.91h1.154v-4.056zm4.323 0h4.867v-1.014h-4.867v-2.833h5.04v-1.013h-6.158v8.91h6.384v-.997h-5.266zm8.166.28h2.806c.686 0 1.246-.218 1.716-.638.545-.484.78-1.06.78-1.889 0-1.662-.998-2.62-2.754-2.62h-3.684v8.911h1.138zm0-1.013v-3.113h2.367c1.09 0 1.742.576 1.742 1.556 0 .983-.654 1.557-1.742 1.557zm15.827 1.53h-2.54v-2.541h-.858v2.54h-2.527v.857h2.527v2.527h.857v-2.527h2.54zm6.25-.516h2.807c.685 0 1.246-.218 1.716-.638.545-.484.78-1.06.78-1.889 0-1.662-.998-2.62-2.767-2.62h-3.671v8.911h1.137zm0-1.013v-3.112h2.368c1.09 0 1.742.576 1.742 1.556 0 .983-.654 1.556-1.742 1.556zm10.64-1.623-1.755 4.988-1.649-4.988h-1.076l2.155 6.438-.39 1.013c-.156.452-.388.624-.81.624-.156 0-.327-.032-.545-.079v.92c.218.11.42.156.686.156.327 0 .685-.109.95-.311.328-.234.514-.499.702-1.013l2.846-7.741zm4.47 0h-1.044v-1.755h-1.014v1.755h-.872v.826h.872v4.841c0 .655.436 1.014 1.232 1.014.248 0 .482-.03.826-.079v-.856c-.125.03-.297.046-.485.046-.436 0-.56-.125-.56-.577v-4.389h1.045zm1.153-2.513v8.91h1.013v-3.537c0-1.294.685-2.155 1.73-2.155.326 0 .67.11.904.28.296.219.42.514.42.966v4.443h1.013v-4.828c0-1.075-.763-1.756-2.008-1.756-.903 0-1.463.28-2.061 1.076V65.92zm7.767 2.513h-1.014v6.41h1.014zm0-2.513h-1.03v1.294h1.03zm7.408 8.325c-.11.015-.156.015-.218.015-.343 0-.545-.186-.545-.499v-3.75c0-1.137-.826-1.756-2.394-1.756-.935 0-1.703.28-2.128.748-.297.328-.406.702-.437 1.343h1.028c.079-.78.546-1.137 1.49-1.137.92 0 1.436.343 1.436.95v.265c0 .437-.248.608-1.06.717-1.45.172-1.662.234-2.061.39-.748.296-1.121.872-1.121 1.716 0 1.153.81 1.888 2.101 1.888.81 0 1.45-.28 2.168-.935.077.639.388.935 1.059.935.203 0 .359-.03.686-.109zm-1.782-1.423c0 .343-.093.546-.406.826a2.2 2.2 0 0 1-1.516.577c-.795 0-1.264-.39-1.264-1.028 0-.67.453-1.013 1.543-1.169 1.075-.157 1.293-.203 1.636-.359z"/><path d="M65.702 71.23h19.152" fill="none" stroke="#f63" stroke-miterlimit="10" stroke-width=".60382"/><path d="M95.361 82.402v6.264c0 1.2-.872 1.929-2.3 1.929-.655 0-1.186-.156-1.624-.468-.436-.344-.638-.794-.638-1.463v-6.265h-1.138v6.265c0 1.808 1.294 2.926 3.391 2.926 2.088 0 3.445-1.153 3.445-2.926v-6.265zm2.926 2.514v6.41h1.03v-3.538c0-1.294.686-2.154 1.728-2.154.81 0 1.325.484 1.325 1.247v4.443h1.014v-4.828c0-1.076-.796-1.756-2.022-1.756-.951 0-1.57.374-2.141 1.262v-1.076zm9.084 0h-1.06v-.998c0-.436.249-.654.717-.654.077 0 .108 0 .343.016v-.842a2.528 2.528 0 0 0-.577-.063c-.935 0-1.49.546-1.49 1.45v1.09h-.858v.828h.858v5.586h1.014v-5.586h1.06zm3.564-.187c-1.795 0-2.886 1.293-2.886 3.445 0 2.155 1.076 3.432 2.9 3.432 1.795 0 2.899-1.279 2.899-3.379 0-2.207-1.06-3.484-2.913-3.484zm.016.951c1.153 0 1.835.935 1.835 2.527 0 1.517-.717 2.461-1.835 2.461-1.139 0-1.836-.951-1.836-2.5 0-1.543.701-2.5 1.836-2.5zm5.307-3.271h-1.029v8.91h1.029zm6.902 0h-1.012v3.325c-.421-.655-1.106-.998-1.968-.998-1.663 0-2.753 1.343-2.753 3.378 0 2.168 1.076 3.485 2.793 3.485.888 0 1.49-.327 2.035-1.123v.842h.903zm-2.806 3.285c1.09 0 1.795.967 1.795 2.5 0 1.476-.702 2.46-1.782 2.46-1.138 0-1.875-.997-1.875-2.473 0-1.49.731-2.474 1.849-2.474zm9.815 2.78c0-.982-.078-1.57-.248-2.049-.422-1.06-1.41-1.702-2.594-1.702-1.795 0-2.94 1.37-2.94 3.471s1.123 3.405 2.914 3.405c1.463 0 2.473-.826 2.74-2.234h-1.029c-.28.841-.858 1.294-1.689 1.294-.638 0-1.2-.297-1.53-.842-.25-.36-.342-.733-.342-1.357zm-4.695-.842c.093-1.184.81-1.942 1.836-1.942.997 0 1.755.826 1.755 1.888v.062zm11.266-5.214h-1.013v3.325c-.421-.654-1.106-.998-1.968-.998-1.662 0-2.753 1.344-2.753 3.379 0 2.168 1.076 3.484 2.793 3.484.888 0 1.49-.327 2.048-1.122v.842h.903zm-2.807 3.285c1.09 0 1.796.967 1.796 2.5 0 1.477-.702 2.461-1.782 2.461-1.139 0-1.876-.998-1.876-2.474 0-1.49.732-2.474 1.849-2.474zm12.994-3.285h-1.013v3.325c-.422-.654-1.107-.998-1.968-.998-1.663 0-2.754 1.344-2.754 3.379 0 2.168 1.076 3.484 2.793 3.484.889 0 1.49-.327 2.049-1.122v.842h.904zm-2.806 3.285c1.092 0 1.796.967 1.796 2.5 0 1.477-.701 2.461-1.783 2.461-1.138 0-1.875-.998-1.875-2.474 0-1.49.732-2.474 1.849-2.474zm10.081 5.04c-.109.015-.155.015-.218.015-.343 0-.545-.186-.545-.498v-3.751c0-1.137-.826-1.756-2.394-1.756-.935 0-1.702.281-2.128.748-.297.327-.406.702-.436 1.343h1.028c.078-.78.545-1.137 1.49-1.137.92 0 1.436.342 1.436.95v.266c0 .436-.249.607-1.06.717-1.45.171-1.663.234-2.062.39-.748.294-1.122.872-1.122 1.715 0 1.153.81 1.889 2.101 1.889.81 0 1.45-.281 2.168-.935.077.638.39.935 1.06.935.202 0 .358-.032.685-.11zm-1.782-1.422c0 .343-.093.545-.404.826a2.21 2.21 0 0 1-1.516.577c-.796 0-1.262-.39-1.262-1.03 0-.67.452-1.012 1.542-1.169 1.075-.155 1.293-.202 1.636-.357zm5.134-4.39h-1.044v-1.755h-1.013v1.756h-.873v.827h.873V90.6c0 .654.436 1.014 1.231 1.014.249 0 .483-.032.826-.079v-.856c-.125.03-.297.046-.484.046-.436 0-.56-.125-.56-.577v-4.39h1.044zm6.823 5.813c-.11.014-.156.014-.218.014-.342 0-.545-.186-.545-.498v-3.751c0-1.137-.826-1.756-2.394-1.756-.937 0-1.703.281-2.142.748-.296.327-.405.702-.436 1.343h1.028c.079-.78.547-1.137 1.49-1.137.92 0 1.436.342 1.436.95v.266c0 .436-.25.607-1.06.717-1.45.171-1.662.234-2.061.39-.75.294-1.123.872-1.123 1.715 0 1.153.81 1.889 2.101 1.889.81 0 1.45-.281 2.168-.935.079.638.39.935 1.06.935.203 0 .358-.032.685-.11zm-1.782-1.423c0 .343-.095.545-.406.826a2.21 2.21 0 0 1-1.516.577c-.794 0-1.262-.39-1.262-1.03 0-.67.452-1.012 1.543-1.169 1.076-.155 1.294-.202 1.635-.357zM73.15 87.722c0-2.846 4.283-2.846 4.283 0s-4.283 2.846-4.283 0M106.799 102.219c-.016-1.53-1.06-2.42-2.846-2.42-1.716 0-2.78.872-2.78 2.274 0 .965.499 1.556 1.53 1.822l1.928.513c.982.25 1.437.656 1.437 1.264 0 .42-.219.84-.546 1.074-.312.218-.811.343-1.436.343-.858 0-1.437-.218-1.809-.654-.28-.343-.406-.717-.406-1.2h-.935c.016.716.157 1.184.453 1.608.545.733 1.436 1.123 2.62 1.123.935 0 1.702-.218 2.194-.608.53-.406.858-1.106.858-1.782 0-.966-.593-1.663-1.65-1.968l-1.968-.515c-.935-.265-1.278-.561-1.278-1.153 0-.796.687-1.325 1.743-1.325 1.23 0 1.928.576 1.928 1.596zm3.471-.093h-.919v-1.543h-.888v1.543h-.749v.717h.749v4.242c0 .562.39.889 1.09.889.203 0 .42-.03.717-.077v-.749c-.109.032-.25.047-.42.047-.39 0-.499-.11-.499-.514v-3.83h.92zm5.972 5.067c-.094.032-.14.032-.186.032-.313 0-.484-.171-.484-.436v-3.299c0-.981-.733-1.529-2.102-1.529-.81 0-1.49.234-1.875.654-.25.297-.36.608-.374 1.17h.889c.077-.687.482-.998 1.324-.998.794 0 1.247.296 1.247.842v.233c0 .375-.234.53-.935.607-1.263.172-1.45.204-1.796.344-.656.28-.983.779-.983 1.49 0 1.029.702 1.662 1.836 1.662.7 0 1.262-.25 1.902-.826.062.56.343.826.919.826.187 0 .312-.031.607-.094zm-1.556-1.231c0 .296-.093.484-.358.718-.359.342-.795.513-1.325.513-.686 0-1.106-.343-1.106-.903 0-.593.404-.888 1.356-1.03.935-.124 1.139-.17 1.437-.31zm4.495-3.83h-.919v-1.544h-.888v1.543h-.749v.717h.749v4.243c0 .561.39.888 1.09.888.203 0 .422-.03.717-.077v-.749c-.109.032-.248.047-.42.047-.39 0-.499-.11-.499-.514v-3.83h.92zm2.301 4.495h-1.106v1.106h1.106zm22.477-5.812h2.554v-.874h-6.132v.874h2.567v6.916h.998zm5.653 1.153c-1.57 0-2.527 1.122-2.527 3.005 0 1.889.935 3.006 2.527 3.006 1.57 0 2.54-1.122 2.54-2.966 0-1.928-.935-3.059-2.54-3.059zm0 .826c1.012 0 1.609.825 1.609 2.207 0 1.31-.624 2.155-1.61 2.155-.997 0-1.609-.826-1.609-2.181 0-1.344.608-2.181 1.61-2.181zm5.745-.655h-.919v-1.543h-.888v1.543h-.749v.717h.749v4.243c0 .561.39.888 1.09.888.203 0 .422-.03.717-.077v-.749c-.109.032-.248.047-.42.047-.39 0-.499-.11-.499-.514v-3.83h.92zm5.985 5.068c-.093.031-.14.031-.186.031-.312 0-.484-.171-.484-.436v-3.298c0-.982-.732-1.53-2.101-1.53-.81 0-1.49.234-1.876.655-.248.296-.357.607-.373 1.169h.888c.077-.687.483-.998 1.325-.998.795 0 1.246.297 1.246.842v.233c0 .375-.233.53-.935.608-1.262.171-1.45.203-1.796.343-.655.28-.982.78-.982 1.49 0 1.029.702 1.662 1.835 1.662.7 0 1.262-.249 1.902-.826.062.561.343.826.919.826.187 0 .312-.03.608-.093zm-1.556-1.232c0 .297-.093.484-.358.718-.359.342-.795.514-1.324.514-.687 0-1.107-.344-1.107-.904 0-.593.405-.888 1.357-1.029.935-.125 1.138-.172 1.436-.311zm3.405-6.038h-.888v7.794h.888z"/><g fill="none" stroke="#000" stroke-miterlimit="10"><path d="M88.711 109.8h6.504M88.711 98.362h6.504" stroke-width="1.20631"/><path d="M91.903 98.362v11.372M135.261 98.362v11.372" stroke-width=".60382"/></g></svg>