<?xml version="1.0" encoding="UTF-8" standalone="no"?>
<svg
   version="1.1"
   viewBox="0 0 344 296"
   id="svg461"
   sodipodi:docname="TOP-13-001.svg"
   inkscape:version="1.3.2 (1:1.3.2+202311252150+091e20ef0f)"
   xmlns:inkscape="http://www.inkscape.org/namespaces/inkscape"
   xmlns:sodipodi="http://sodipodi.sourceforge.net/DTD/sodipodi-0.dtd"
   xmlns="http://www.w3.org/2000/svg"
   xmlns:svg="http://www.w3.org/2000/svg">
  <defs
     id="defs461" />
  <sodipodi:namedview
     id="namedview461"
     pagecolor="#ffffff"
     bordercolor="#000000"
     borderopacity="0.25"
     inkscape:showpageshadow="2"
     inkscape:pageopacity="0.0"
     inkscape:pagecheckerboard="0"
     inkscape:deskcolor="#d1d1d1"
     inkscape:zoom="1.3443251"
     inkscape:cx="83.313181"
     inkscape:cy="207.16715"
     inkscape:window-width="1920"
     inkscape:window-height="1043"
     inkscape:window-x="0"
     inkscape:window-y="0"
     inkscape:window-maximized="1"
     inkscape:current-layer="svg461" />
  <g
     fill="none"
     stroke="#000"
     stroke-miterlimit="10"
     id="g5">
    <g
       stroke-width=".876"
       id="g4">
      <path
         transform="matrix(.133 0 0 -.133 0 296)"
         d="m360 272h2173v1795h-2173z"
         id="path1" />
      <path
         transform="matrix(.133 0 0 -.133 0 296)"
         d="m360 272h2173v1795h-2173z"
         id="path2" />
      <path
         transform="matrix(.133 0 0 -.133 0 296)"
         d="m360 272h2173v1795h-2173z"
         id="path3" />
      <path
         transform="matrix(.133 0 0 -.133 0 296)"
         d="m360 272h2173v1795h-2173z"
         id="path4" />
    </g>
    <path
       transform="matrix(.133 0 0 -.133 0 296)"
       d="m360 272h2173"
       stroke-width="2.27"
       id="path5" />
  </g>
  <g
     id="g8">
    <path
       transform="matrix(.133 0 0 -.133 0 296)"
       d="m2507 138 0.59-13.2-12.5 4.57-2.23-7.03 12.8-3.52-8.2-10.4 5.98-4.22 7.38 10.9 7.27-10.9 5.97 4.22-8.2 10.4 12.7 3.52-2.23 7.03-12.4-4.57 0.58 13.2z"
       id="path6" />
    <path
       transform="matrix(.133 0 0 -.133 0 296)"
       d="m2537 94.1h-10.5l0.11-43.4c-4.21-6.09-8.2-8.67-13.1-8.67-6.8 0-10.8 4.81-10.8 13.1v38.9h-10.4v-56.5c0-2.46-0.47-5.39-1.29-8.91-1.99-7.26-2.11-7.97-2.11-10.8 0-4.92 2.46-8.44 5.86-8.44s5.86 3.52 5.86 8.67c0 2.58-0.35 4.11-2.35 10.9-1.17 4.22-1.4 5.39-1.4 8.67v1.41c5.04-4.1 7.73-5.39 11.7-5.39 5.86 0 11.8 3.63 18 10.9 0.94-3.75 1.53-5.16 2.82-6.92 1.75-2.46 4.92-3.98 8.32-3.98 7.26 0 12.3 5.16 13.9 14.2l-3.16 0.121c-0.47-4.46-2.93-7.97-5.63-7.97-3.51 0-5.86 4.22-5.86 10.7zm-78.4 39.1c-4.57 0-9.25-1.87-13.6-5.51-8.09-6.56-12.4-19.2-12.4-35.7 0-15.3 3.87-27.5 10.9-34.2 4.57-4.33 10.1-6.79 15.1-6.79 4.57 0 9.14 1.87 13.7 5.5 7.85 6.45 12.3 19.1 12.3 34.9 0 16.2-3.75 28.1-10.8 35-4.69 4.33-10.1 6.79-15.2 6.79zm14-44.1c-0.23-13.4-1.76-21-5.16-27.3-2.11-3.64-5.86-6.33-8.79-6.33-3.04 0-6.79 2.81-8.78 6.33-3.4 6.32-4.81 13.9-5.04 27.3zm-27.8 6.56c0.23 12.9 1.75 20.6 5.04 26.7 1.99 3.52 5.85 6.45 8.78 6.45s6.8-2.93 8.79-6.45c3.28-6.09 4.93-13.8 5.16-26.7z"
       id="path7" />
    <path
       transform="matrix(.133 0 0 -.133 0 296)"
       d="m1804 138v-60.2c0-11.6-8.32-18.6-22.2-18.6-6.32 0-11.5 1.53-15.6 4.46-4.22 3.28-6.21 7.73-6.21 14.2v60.2h-11v-60.2c0-17.5 12.5-28.2 32.8-28.2 20.2 0 33.2 11 33.2 28.2v60.2zm28.2-24.1v-61.6h9.97v34c0 12.7 6.56 20.9 16.6 20.9 7.73 0 12.8-4.68 12.8-12.2v-42.7h9.73v46.6c0 10.2-7.62 16.8-19.6 16.8-9.14 0-15-3.52-20.4-12.1v10.3zm87.6 0h-10.2v9.61c0 4.22 2.34 6.33 6.79 6.33 0.82 0 1.18 0 3.4-0.121v8.09c-2.22 0.469-3.51 0.578-5.5 0.578-9.03 0-14.5-5.15-14.5-14.1v-10.4h-8.2v-7.97h8.2v-53.7h9.85v53.7h10.2zm34.3 1.76c-17.3 0-27.8-12.3-27.8-33 0-20.7 10.3-33.1 27.9-33.1 17.3 0 27.9 12.3 27.9 32.6 0 21.3-10.2 33.5-28 33.5zm0.12-9.02c11 0 17.7-9.03 17.7-24.4 0-14.4-6.91-23.7-17.7-23.7-10.9 0-17.7 9.14-17.7 24 0 14.9 6.8 24 17.7 24zm51.2 31.4h-9.97v-85.8h9.97zm66.4 0h-9.73v-31.9c-4.1 6.21-10.8 9.49-19 9.49-16 0-26.5-12.8-26.5-32.5 0-20.9 10.2-33.6 26.8-33.6 8.44 0 14.4 3.17 19.7 10.8v-8.09h8.67zm-27.1-31.5c10.6 0 17.3-9.38 17.3-24.1 0-14.2-6.91-23.7-17.2-23.7-10.8 0-18 9.6-18 23.9 0 14.4 7.27 23.9 17.9 23.9zm94.6-26.7c0 9.37-0.7 15-2.46 19.7-3.99 10.1-13.4 16.2-25 16.2-17.1 0-28.2-13.1-28.2-33.4 0-20.3 10.8-32.7 28-32.7 14.2 0 23.9 7.97 26.4 21.4h-9.84c-2.7-8.2-8.32-12.4-16.2-12.4-6.22 0-11.5 2.81-14.8 7.97-2.34 3.63-3.16 7.15-3.28 13.2zm-45.1 7.97c0.82 11.5 7.74 18.9 17.6 18.9 9.61 0 17.1-7.97 17.1-18.2 0-0.23 0-0.473-0.12-0.699zm108 50.3h-9.73v-31.9c-4.1 6.21-10.8 9.49-19 9.49-16 0-26.5-12.8-26.5-32.5 0-20.9 10.2-33.6 26.8-33.6 8.44 0 14.4 3.17 19.7 10.8v-8.09h8.67zm-27.1-31.5c10.6 0 17.3-9.38 17.3-24.1 0-14.2-6.91-23.7-17.2-23.7-10.8 0-18 9.6-18 23.9 0 14.4 7.27 23.9 17.9 23.9zm122-13.4c-0.47 6.09-1.75 9.96-4.1 13.4-4.22 5.74-11.7 9.14-20.3 9.14-16.6 0-27.4-13.1-27.4-33.6 0-19.9 10.5-32.5 27.3-32.5 14.8 0 24 8.79 25.2 23.9h-9.85c-1.64-9.96-6.79-14.9-15.1-14.9-10.8 0-17.4 8.9-17.4 23.4 0 15.5 6.45 24.6 17.1 24.6 8.2 0 13.5-4.81 14.6-13.5zm35.4 22.5c-17.3 0-27.8-12.3-27.8-33 0-20.7 10.3-33.1 27.9-33.1 17.3 0 27.9 12.3 27.9 32.6 0 21.3-10.2 33.5-28 33.5zm0.12-9.02c11 0 17.7-9.03 17.7-24.4 0-14.4-6.92-23.7-17.7-23.7-10.9 0-17.7 9.14-17.7 24 0 14.9 6.79 24 17.7 24zm84.9-9.85c-0.11 12.1-8.2 18.9-22.4 18.9-14.3 0-23.7-7.38-23.7-18.7 0-9.73 4.92-14.3 19.6-17.8l9.14-2.23c6.8-1.64 9.49-4.1 9.49-8.56 0-5.85-5.74-9.72-14.3-9.72-5.28 0-9.73 1.52-12.2 4.1-1.53 1.76-2.23 3.52-2.93 7.97h-10.3c0.46-14.3 8.43-21.1 24.6-21.1 15.5 0 25.4 7.62 25.4 19.6 0 9.14-5.15 14.2-17.5 17.1l-9.37 2.23c-7.97 1.88-11.4 4.45-11.4 8.91 0 5.62 5.04 9.26 13 9.26 7.85 0 12.1-3.4 12.3-9.85z"
       id="path8" />
  </g>
  <g
     fill="none"
     stroke="#000"
     stroke-miterlimit="10"
     stroke-width="2.27"
     id="g50">
    <path
       transform="matrix(.133 0 0 -.133 0 296)"
       d="m360 329v-56.1"
       id="path9" />
    <path
       transform="matrix(.133 0 0 -.133 0 296)"
       d="m414 301v-28.1"
       id="path10" />
    <path
       transform="matrix(.133 0 0 -.133 0 296)"
       d="m469 301v-28.1"
       id="path11" />
    <path
       transform="matrix(.133 0 0 -.133 0 296)"
       d="m523 301v-28.1"
       id="path12" />
    <path
       transform="matrix(.133 0 0 -.133 0 296)"
       d="m577 329v-56.1"
       id="path13" />
    <path
       transform="matrix(.133 0 0 -.133 0 296)"
       d="m632 301v-28.1"
       id="path14" />
    <path
       transform="matrix(.133 0 0 -.133 0 296)"
       d="m686 301v-28.1"
       id="path15" />
    <path
       transform="matrix(.133 0 0 -.133 0 296)"
       d="m740 301v-28.1"
       id="path16" />
    <path
       transform="matrix(.133 0 0 -.133 0 296)"
       d="m795 329v-56.1"
       id="path17" />
    <path
       transform="matrix(.133 0 0 -.133 0 296)"
       d="m849 301v-28.1"
       id="path18" />
    <path
       transform="matrix(.133 0 0 -.133 0 296)"
       d="m903 301v-28.1"
       id="path19" />
    <path
       transform="matrix(.133 0 0 -.133 0 296)"
       d="m958 301v-28.1"
       id="path20" />
    <path
       transform="matrix(.133 0 0 -.133 0 296)"
       d="m1012 329v-56.1"
       id="path21" />
    <path
       transform="matrix(.133 0 0 -.133 0 296)"
       d="m1066 301v-28.1"
       id="path22" />
    <path
       transform="matrix(.133 0 0 -.133 0 296)"
       d="m1121 301v-28.1"
       id="path23" />
    <path
       transform="matrix(.133 0 0 -.133 0 296)"
       d="m1175 301v-28.1"
       id="path24" />
    <path
       transform="matrix(.133 0 0 -.133 0 296)"
       d="m1229 329v-56.1"
       id="path25" />
    <path
       transform="matrix(.133 0 0 -.133 0 296)"
       d="m1283 301v-28.1"
       id="path26" />
    <path
       transform="matrix(.133 0 0 -.133 0 296)"
       d="m1338 301v-28.1"
       id="path27" />
    <path
       transform="matrix(.133 0 0 -.133 0 296)"
       d="m1392 301v-28.1"
       id="path28" />
    <path
       transform="matrix(.133 0 0 -.133 0 296)"
       d="m1446 329v-56.1"
       id="path29" />
    <path
       transform="matrix(.133 0 0 -.133 0 296)"
       d="m1501 301v-28.1"
       id="path30" />
    <path
       transform="matrix(.133 0 0 -.133 0 296)"
       d="m1555 301v-28.1"
       id="path31" />
    <path
       transform="matrix(.133 0 0 -.133 0 296)"
       d="m1609 301v-28.1"
       id="path32" />
    <path
       transform="matrix(.133 0 0 -.133 0 296)"
       d="m1664 329v-56.1"
       id="path33" />
    <path
       transform="matrix(.133 0 0 -.133 0 296)"
       d="m1718 301v-28.1"
       id="path34" />
    <path
       transform="matrix(.133 0 0 -.133 0 296)"
       d="m1772 301v-28.1"
       id="path35" />
    <path
       transform="matrix(.133 0 0 -.133 0 296)"
       d="m1827 301v-28.1"
       id="path36" />
    <path
       transform="matrix(.133 0 0 -.133 0 296)"
       d="m1881 329v-56.1"
       id="path37" />
    <path
       transform="matrix(.133 0 0 -.133 0 296)"
       d="m1935 301v-28.1"
       id="path38" />
    <path
       transform="matrix(.133 0 0 -.133 0 296)"
       d="m1990 301v-28.1"
       id="path39" />
    <path
       transform="matrix(.133 0 0 -.133 0 296)"
       d="m2044 301v-28.1"
       id="path40" />
    <path
       transform="matrix(.133 0 0 -.133 0 296)"
       d="m2098 329v-56.1"
       id="path41" />
    <path
       transform="matrix(.133 0 0 -.133 0 296)"
       d="m2153 301v-28.1"
       id="path42" />
    <path
       transform="matrix(.133 0 0 -.133 0 296)"
       d="m2207 301v-28.1"
       id="path43" />
    <path
       transform="matrix(.133 0 0 -.133 0 296)"
       d="m2261 301v-28.1"
       id="path44" />
    <path
       transform="matrix(.133 0 0 -.133 0 296)"
       d="m2316 329v-56.1"
       id="path45" />
    <path
       transform="matrix(.133 0 0 -.133 0 296)"
       d="m2370 301v-28.1"
       id="path46" />
    <path
       transform="matrix(.133 0 0 -.133 0 296)"
       d="m2424 301v-28.1"
       id="path47" />
    <path
       transform="matrix(.133 0 0 -.133 0 296)"
       d="m2479 301v-28.1"
       id="path48" />
    <path
       transform="matrix(.133 0 0 -.133 0 296)"
       d="m2533 329v-56.1"
       id="path49" />
    <path
       transform="matrix(.133 0 0 -.133 0 296)"
       d="m360 329v-56.1"
       id="path50" />
  </g>
  <path
     transform="matrix(.133 0 0 -.133 0 296)"
     d="m353 205h-21.9v-6.68h21.9zm28.2 17.7v-46.4h8.09v65.2h-5.27c-2.93-10.1-4.69-11.4-17.2-13v-5.75zm144-17.7h-21.9v-6.68h21.9zm29.8 36.4c-6.09 0-11.6-2.69-15-7.14-4.22-5.75-6.32-14.4-6.32-26.5 0-21.9 7.26-33.6 21.3-33.6 13.7 0 21.2 11.7 21.2 33.1 0 12.6-1.99 21.2-6.32 27.1-3.4 4.57-8.79 7.14-14.9 7.14zm0-7.14c8.68 0 13-8.91 13-26.4 0-18.4-4.22-27.1-13.2-27.1-8.56 0-12.9 9.02-12.9 26.8 0 17.8 4.33 26.6 13.1 26.6zm43.3-48.4h-9.61v-9.61h9.61zm43.9 24.6c6.68 4.1 8.91 7.38 8.91 13.6 0 10.2-8.09 17.3-19.6 17.3-11.5 0-19.6-7.14-19.6-17.3 0-6.09 2.11-9.37 8.78-13.6-7.5-3.52-11.1-8.91-11.1-16.2 0-11.8 9.03-20.2 21.9-20.2 12.8 0 21.8 8.32 21.8 20.2 0 7.26-3.63 12.7-11.1 16.2zm-10.7 23.8c6.79 0 11.2-4.11 11.2-10.4 0-6.1-4.46-10.1-11.2-10.1-6.8 0-11.4 3.98-11.4 10.2s4.57 10.3 11.4 10.3zm0-27.3c8.08 0 13.6-5.15 13.6-12.8 0-7.74-5.51-12.9-13.8-12.9-7.85 0-13.4 5.27-13.4 12.9 0 7.62 5.51 12.8 13.6 12.8zm109-1.99h-21.9v-6.68h21.9zm29.7 36.4c-6.09 0-11.6-2.69-15-7.14-4.22-5.75-6.33-14.4-6.33-26.5 0-21.9 7.27-33.6 21.3-33.6 13.7 0 21.2 11.7 21.2 33.1 0 12.6-1.99 21.2-6.33 27.1-3.4 4.57-8.79 7.14-14.9 7.14zm0-7.14c8.67 0 13-8.91 13-26.4 0-18.4-4.22-27.1-13.2-27.1-8.55 0-12.9 9.02-12.9 26.8 0 17.8 4.34 26.6 13.1 26.6zm43.4-48.4h-9.61v-9.61h9.61zm53.7 38.5c-1.52 10.7-8.44 17-18.4 17-7.15 0-13.6-3.51-17.5-9.25-4.1-6.33-5.86-14.4-5.86-26.2 0-10.9 1.64-17.9 5.51-23.7 3.51-5.28 9.14-8.09 16.3-8.09 12.4 0 21.3 9.14 21.3 21.9 0 12.2-8.21 20.8-19.9 20.8-6.44 0-11.5-2.47-15-7.27 0.122 15.8 5.28 24.7 14.5 24.7 5.74 0 9.6-3.64 10.9-9.85zm-19.6-14.8c7.85 0 12.8-5.51 12.8-14.2 0-8.21-5.5-14.2-13-14.2s-13.2 6.21-13.2 14.6c0 8.08 5.51 13.7 13.5 13.7zm111-4.69h-21.9v-6.68h21.9zm29.8 36.4c-6.09 0-11.6-2.69-15-7.14-4.21-5.75-6.32-14.4-6.32-26.5 0-21.9 7.26-33.6 21.3-33.6 13.7 0 21.2 11.7 21.2 33.1 0 12.6-1.99 21.2-6.32 27.1-3.4 4.57-8.79 7.14-14.9 7.14zm0-7.14c8.68 0 13-8.91 13-26.4 0-18.4-4.22-27.1-13.2-27.1-8.56 0-12.9 9.02-12.9 26.8 0 17.8 4.33 26.6 13.1 26.6zm43.3-48.4h-9.61v-9.61h9.61zm38 5.97v-15.6h8.09v15.6h9.73v7.27h-9.73v42.3h-5.98l-29.5-41v-8.56zm0 7.27h-20.4l20.4 28.5zm107 5.86h-21.9v-6.68h21.9zm29.8 36.4c-6.1 0-11.6-2.69-15-7.14-4.22-5.75-6.33-14.4-6.33-26.5 0-21.9 7.27-33.6 21.3-33.6 13.7 0 21.2 11.7 21.2 33.1 0 12.6-1.99 21.2-6.33 27.1-3.4 4.57-8.79 7.14-14.9 7.14zm0-7.14c8.67 0 13-8.91 13-26.4 0-18.4-4.22-27.1-13.2-27.1-8.55 0-12.9 9.02-12.9 26.8 0 17.8 4.34 26.6 13.1 26.6zm43.3-48.4h-9.61v-9.61h9.61zm54.4-1.64h-34.3c0.82 5.39 3.75 8.79 11.8 13.5l9.14 4.93c9.14 4.92 13.8 11.7 13.8 19.7 0 5.39-2.23 10.4-6.09 13.9-3.87 3.51-8.67 5.15-14.8 5.15-8.32 0-14.4-2.93-18-8.43-2.34-3.52-3.28-7.62-3.51-14.2h8.08c0.36 4.45 0.83 7.03 2 9.14 2.11 3.98 6.33 6.33 11.1 6.33 7.38 0 12.9-5.16 12.9-12.2 0-5.16-3.05-9.49-8.79-12.9l-8.44-4.69c-13.6-7.73-17.6-13.9-18.3-28.2h43.4zm141 57.2c-6.1 0-11.6-2.69-15-7.14-4.22-5.75-6.33-14.4-6.33-26.5 0-21.9 7.27-33.6 21.3-33.6 13.7 0 21.2 11.7 21.2 33.1 0 12.6-1.99 21.2-6.33 27.1-3.4 4.57-8.79 7.14-14.9 7.14zm0-7.14c8.67 0 13-8.91 13-26.4 0-18.4-4.22-27.1-13.2-27.1-8.55 0-12.9 9.02-12.9 26.8 0 17.8 4.34 26.6 13.1 26.6zm178 7.14c-6.1 0-11.6-2.69-15-7.14-4.22-5.75-6.33-14.4-6.33-26.5 0-21.9 7.27-33.6 21.3-33.6 13.7 0 21.2 11.7 21.2 33.1 0 12.6-1.99 21.2-6.33 27.1-3.4 4.57-8.79 7.14-14.9 7.14zm0-7.14c8.67 0 13-8.91 13-26.4 0-18.4-4.22-27.1-13.2-27.1-8.55 0-12.9 9.02-12.9 26.8 0 17.8 4.34 26.6 13.1 26.6zm43.4-48.4h-9.61v-9.61h9.61zm54.4-1.64h-34.3c0.82 5.39 3.75 8.79 11.8 13.5l9.14 4.93c9.14 4.92 13.8 11.7 13.8 19.7 0 5.39-2.23 10.4-6.09 13.9-3.87 3.51-8.68 5.15-14.8 5.15-8.32 0-14.4-2.93-18-8.43-2.34-3.52-3.28-7.62-3.51-14.2h8.08c0.35 4.45 0.82 7.03 2 9.14 2.11 3.98 6.32 6.33 11.1 6.33 7.38 0 12.9-5.16 12.9-12.2 0-5.16-3.05-9.49-8.79-12.9l-8.44-4.69c-13.6-7.73-17.6-13.9-18.3-28.2h43.4zm120 57.2c-6.09 0-11.6-2.69-15-7.14-4.22-5.75-6.33-14.4-6.33-26.5 0-21.9 7.27-33.6 21.3-33.6 13.7 0 21.2 11.7 21.2 33.1 0 12.6-1.99 21.2-6.32 27.1-3.4 4.57-8.79 7.14-14.9 7.14zm0-7.14c8.67 0 13-8.91 13-26.4 0-18.4-4.22-27.1-13.2-27.1-8.56 0-12.9 9.02-12.9 26.8 0 17.8 4.33 26.6 13.1 26.6zm43.3-48.4h-9.61v-9.61h9.61zm38 5.97v-15.6h8.09v15.6h9.72v7.27h-9.72v42.3h-5.98l-29.5-41v-8.56zm0 7.27h-20.4l20.4 28.5zm137 42.3c-6.1 0-11.6-2.69-15-7.14-4.22-5.75-6.33-14.4-6.33-26.5 0-21.9 7.27-33.6 21.3-33.6 13.7 0 21.2 11.7 21.2 33.1 0 12.6-1.99 21.2-6.33 27.1-3.4 4.57-8.79 7.14-14.9 7.14zm0-7.14c8.67 0 13-8.91 13-26.4 0-18.4-4.22-27.1-13.2-27.1-8.55 0-12.9 9.02-12.9 26.8 0 17.8 4.34 26.6 13.1 26.6zm43.3-48.4h-9.61v-9.61h9.61zm53.6 38.5c-1.52 10.7-8.44 17-18.4 17-7.15 0-13.6-3.51-17.5-9.25-4.1-6.33-5.86-14.4-5.86-26.2 0-10.9 1.64-17.9 5.51-23.7 3.52-5.28 9.14-8.09 16.3-8.09 12.4 0 21.3 9.14 21.3 21.9 0 12.2-8.21 20.8-19.9 20.8-6.45 0-11.5-2.47-15-7.27 0.11 15.8 5.27 24.7 14.5 24.7 5.74 0 9.61-3.64 10.9-9.85zm-19.6-14.8c7.85 0 12.8-5.51 12.8-14.2 0-8.21-5.5-14.2-13-14.2s-13.2 6.21-13.2 14.6c0 8.08 5.51 13.7 13.5 13.7zm138 31.8c-6.09 0-11.6-2.69-15-7.14-4.22-5.75-6.33-14.4-6.33-26.5 0-21.9 7.27-33.6 21.3-33.6 13.7 0 21.2 11.7 21.2 33.1 0 12.6-1.99 21.2-6.32 27.1-3.4 4.57-8.79 7.14-14.9 7.14zm0-7.14c8.67 0 13-8.91 13-26.4 0-18.4-4.22-27.1-13.2-27.1-8.56 0-12.9 9.02-12.9 26.8 0 17.8 4.33 26.6 13.1 26.6zm43.3-48.4h-9.61v-9.61h9.61zm44 24.6c6.68 4.1 8.9 7.38 8.9 13.6 0 10.2-8.08 17.3-19.6 17.3-11.5 0-19.6-7.14-19.6-17.3 0-6.09 2.11-9.37 8.79-13.6-7.5-3.52-11.1-8.91-11.1-16.2 0-11.8 9.02-20.2 21.9-20.2 12.8 0 21.8 8.32 21.8 20.2 0 7.26-3.63 12.7-11.1 16.2zm-10.7 23.8c6.8 0 11.2-4.11 11.2-10.4 0-6.1-4.45-10.1-11.2-10.1-6.79 0-11.4 3.98-11.4 10.2s4.57 10.3 11.4 10.3zm0-27.3c8.09 0 13.6-5.15 13.6-12.8 0-7.74-5.51-12.9-13.8-12.9-7.85 0-13.4 5.27-13.4 12.9 0 7.62 5.51 12.8 13.6 12.8zm186 15.7v-46.4h8.09v65.2h-5.28c-2.92-10.1-4.68-11.4-17.2-13v-5.75z"
     id="path51" />
  <g
     fill="none"
     stroke="#000"
     stroke-miterlimit="10"
     stroke-width="2.27"
     id="g95">
    <path
       transform="matrix(.133 0 0 -.133 0 296)"
       d="m360 2067h2173"
       id="path52" />
    <path
       transform="matrix(.133 0 0 -.133 0 296)"
       d="m360 2011v56.1"
       id="path53" />
    <path
       transform="matrix(.133 0 0 -.133 0 296)"
       d="m414 2039v28.1"
       id="path54" />
    <path
       transform="matrix(.133 0 0 -.133 0 296)"
       d="m469 2039v28.1"
       id="path55" />
    <path
       transform="matrix(.133 0 0 -.133 0 296)"
       d="m523 2039v28.1"
       id="path56" />
    <path
       transform="matrix(.133 0 0 -.133 0 296)"
       d="m577 2011v56.1"
       id="path57" />
    <path
       transform="matrix(.133 0 0 -.133 0 296)"
       d="m632 2039v28.1"
       id="path58" />
    <path
       transform="matrix(.133 0 0 -.133 0 296)"
       d="m686 2039v28.1"
       id="path59" />
    <path
       transform="matrix(.133 0 0 -.133 0 296)"
       d="m740 2039v28.1"
       id="path60" />
    <path
       transform="matrix(.133 0 0 -.133 0 296)"
       d="m795 2011v56.1"
       id="path61" />
    <path
       transform="matrix(.133 0 0 -.133 0 296)"
       d="m849 2039v28.1"
       id="path62" />
    <path
       transform="matrix(.133 0 0 -.133 0 296)"
       d="m903 2039v28.1"
       id="path63" />
    <path
       transform="matrix(.133 0 0 -.133 0 296)"
       d="m958 2039v28.1"
       id="path64" />
    <path
       transform="matrix(.133 0 0 -.133 0 296)"
       d="m1012 2011v56.1"
       id="path65" />
    <path
       transform="matrix(.133 0 0 -.133 0 296)"
       d="m1066 2039v28.1"
       id="path66" />
    <path
       transform="matrix(.133 0 0 -.133 0 296)"
       d="m1121 2039v28.1"
       id="path67" />
    <path
       transform="matrix(.133 0 0 -.133 0 296)"
       d="m1175 2039v28.1"
       id="path68" />
    <path
       transform="matrix(.133 0 0 -.133 0 296)"
       d="m1229 2011v56.1"
       id="path69" />
    <path
       transform="matrix(.133 0 0 -.133 0 296)"
       d="m1283 2039v28.1"
       id="path70" />
    <path
       transform="matrix(.133 0 0 -.133 0 296)"
       d="m1338 2039v28.1"
       id="path71" />
    <path
       transform="matrix(.133 0 0 -.133 0 296)"
       d="m1392 2039v28.1"
       id="path72" />
    <path
       transform="matrix(.133 0 0 -.133 0 296)"
       d="m1446 2011v56.1"
       id="path73" />
    <path
       transform="matrix(.133 0 0 -.133 0 296)"
       d="m1501 2039v28.1"
       id="path74" />
    <path
       transform="matrix(.133 0 0 -.133 0 296)"
       d="m1555 2039v28.1"
       id="path75" />
    <path
       transform="matrix(.133 0 0 -.133 0 296)"
       d="m1609 2039v28.1"
       id="path76" />
    <path
       transform="matrix(.133 0 0 -.133 0 296)"
       d="m1664 2011v56.1"
       id="path77" />
    <path
       transform="matrix(.133 0 0 -.133 0 296)"
       d="m1718 2039v28.1"
       id="path78" />
    <path
       transform="matrix(.133 0 0 -.133 0 296)"
       d="m1772 2039v28.1"
       id="path79" />
    <path
       transform="matrix(.133 0 0 -.133 0 296)"
       d="m1827 2039v28.1"
       id="path80" />
    <path
       transform="matrix(.133 0 0 -.133 0 296)"
       d="m1881 2011v56.1"
       id="path81" />
    <path
       transform="matrix(.133 0 0 -.133 0 296)"
       d="m1935 2039v28.1"
       id="path82" />
    <path
       transform="matrix(.133 0 0 -.133 0 296)"
       d="m1990 2039v28.1"
       id="path83" />
    <path
       transform="matrix(.133 0 0 -.133 0 296)"
       d="m2044 2039v28.1"
       id="path84" />
    <path
       transform="matrix(.133 0 0 -.133 0 296)"
       d="m2098 2011v56.1"
       id="path85" />
    <path
       transform="matrix(.133 0 0 -.133 0 296)"
       d="m2153 2039v28.1"
       id="path86" />
    <path
       transform="matrix(.133 0 0 -.133 0 296)"
       d="m2207 2039v28.1"
       id="path87" />
    <path
       transform="matrix(.133 0 0 -.133 0 296)"
       d="m2261 2039v28.1"
       id="path88" />
    <path
       transform="matrix(.133 0 0 -.133 0 296)"
       d="m2316 2011v56.1"
       id="path89" />
    <path
       transform="matrix(.133 0 0 -.133 0 296)"
       d="m2370 2039v28.1"
       id="path90" />
    <path
       transform="matrix(.133 0 0 -.133 0 296)"
       d="m2424 2039v28.1"
       id="path91" />
    <path
       transform="matrix(.133 0 0 -.133 0 296)"
       d="m2479 2039v28.1"
       id="path92" />
    <path
       transform="matrix(.133 0 0 -.133 0 296)"
       d="m2533 2011v56.1"
       id="path93" />
    <path
       transform="matrix(.133 0 0 -.133 0 296)"
       d="m360 2011v56.1"
       id="path94" />
    <path
       transform="matrix(.133 0 0 -.133 0 296)"
       d="m360 272v1795"
       id="path95" />
  </g>
  <g
     id="g105">
    <path
       transform="matrix(.133 0 0 -.133 0 296)"
       d="m67.5 2045v-10.6l43.4 0.12c6.09-4.22 8.67-8.2 8.67-13.1 0-6.8-4.8-10.8-13.1-10.8h-38.9v-10.4h56.5c2.46 0 5.39-0.46 8.9-1.28 7.27-2 7.97-2.11 10.8-2.11 4.92 0 8.44 2.46 8.44 5.86 0 3.39-3.52 5.85-8.67 5.85-2.58 0-4.1-0.35-10.9-2.34-4.22-1.17-5.39-1.4-8.67-1.4h-1.41c4.1 5.03 5.39 7.73 5.39 11.7 0 5.86-3.63 11.8-10.9 18 3.75 0.94 5.16 1.52 6.92 2.81 2.46 1.76 3.98 4.93 3.98 8.32 0 7.27-5.15 12.3-14.2 14l-0.109-3.17c4.45-0.46 7.96-2.93 7.96-5.62 0-3.52-4.21-5.86-10.7-5.86zm-39.1-78.4c0-4.57 1.88-9.26 5.51-13.6 6.56-8.09 19.2-12.4 35.7-12.4 15.4 0 27.5 3.86 34.2 10.9 4.33 4.57 6.8 10.1 6.8 15.1 0 4.57-1.88 9.14-5.51 13.7-6.45 7.85-19.1 12.3-34.9 12.3-16.2 0-28.1-3.75-35-10.8-4.34-4.69-6.8-10.1-6.8-15.2zm44.1 14c13.4-0.24 21-1.76 27.3-5.16 3.63-2.11 6.33-5.86 6.33-8.79 0-3.05-2.82-6.8-6.33-8.79-6.33-3.4-14-4.8-27.3-5.04zm-6.56-27.8c-12.9 0.24-20.6 1.76-26.7 5.04-3.51 1.99-6.44 5.86-6.44 8.79s2.93 6.8 6.44 8.79c6.1 3.28 13.8 4.92 26.7 5.16z"
       id="path96" />
    <path
       transform="matrix(.133 0 0 -.133 0 296)"
       d="m23.3 2011 13.2 0.58-4.57-12.5 7.03-2.22 3.52 12.8 10.4-8.2 4.22 5.97-10.9 7.39 10.9 7.26-4.22 5.98-10.4-8.2-3.52 12.6-7.03-2.23 4.57-12.4-13.2 0.59z"
       id="path97" />
    <path
       d="m17.9 19.1c-2.06-1.58-4.91-2.56-7.37-2.56-2.48 0-5.33 0.984-7.39 2.56v0.859c2.25-1.39 4.87-2.16 7.39-2.16 2.5 0 5.14 0.765 7.37 2.16z"
       id="path98" />
    <path
       transform="matrix(.133 0 0 -.133 0 296)"
       d="m20.4 1704v-9.73h31.9c-6.22-4.1-9.5-10.8-9.5-19 0-16 12.8-26.5 32.5-26.5 20.9 0 33.6 10.2 33.6 26.8 0 8.43-3.17 14.4-10.8 19.7h8.08v8.68zm31.5-27.1c0 10.5 9.38 17.3 24.1 17.3 14.2 0 23.7-6.91 23.7-17.2 0-10.8-9.61-18-23.9-18-14.4 0-23.9 7.26-23.9 17.9zm-31.5 62c15.5-11.7 36.8-19.2 55.3-19.2 18.6 0 40 7.5 55.4 19.2v6.44c-16.9-10.3-36.6-16-55.4-16-18.8 0-38.6 5.74-55.3 16zm44.9 66.8c-6.09-0.47-9.96-1.76-13.4-4.1-5.74-4.22-9.14-11.7-9.14-20.3 0-16.6 13.1-27.4 33.6-27.4 19.9 0 32.5 10.5 32.5 27.3 0 14.8-8.79 24-23.9 25.2v-9.85c9.96-1.64 14.9-6.79 14.9-15.1 0-10.8-8.9-17.3-23.4-17.3-15.5 0-24.6 6.45-24.6 17.1 0 8.2 4.8 13.5 13.5 14.6zm-22.5 35.4c0-17.3 12.3-27.8 33.1-27.8 20.7 0 33.1 10.3 33.1 27.9 0 17.3-12.3 27.9-32.6 27.9-21.3 0-33.5-10.2-33.5-28zm9.03 0.12c0 11 9.02 17.7 24.4 17.7 14.4 0 23.7-6.92 23.7-17.7 0-10.9-9.14-17.7-24-17.7s-24 6.8-24 17.7zm9.84 84.9c-12.1-0.11-18.9-8.2-18.9-22.4 0-14.3 7.39-23.7 18.8-23.7 9.73 0 14.3 4.92 17.8 19.6l2.22 9.14c1.64 6.8 4.1 9.49 8.56 9.49 5.86 0 9.72-5.74 9.72-14.3 0-5.27-1.52-9.72-4.1-12.2-1.76-1.53-3.51-2.23-7.97-2.93v-10.3c14.3 0.47 21.1 8.44 21.1 24.6 0 15.5-7.62 25.4-19.6 25.4-9.14 0-14.2-5.15-17.1-17.5l-2.23-9.37c-1.87-7.97-4.45-11.4-8.91-11.4-5.62 0-9.25 5.04-9.25 13 0 7.85 3.4 12.1 9.84 12.3z"
       id="path99" />
    <path
       transform="matrix(.133 0 0 -.133 0 296)"
       d="m106 1561v5.74l-79.2 55.4v-5.86z"
       id="path100" />
    <path
       transform="matrix(.133 0 0 -.133 0 296)"
       d="m57.5 1539h-10.2v-26.7c0-9.26 1.06-15.6 3.4-21 5.16-11.5 14.4-17.9 25.3-17.9 7.62 0 15.5 2.93 21.6 8.32 7.03 6.21 10.1 12.9 10.1 22.2 0 7.97-2.47 14.9-7.27 20.3-4.81 5.28-11.6 8.44-17.9 8.44-8.91 0-17.7-6.8-25-19.3zm0-31.3c10.6 10.2 15 12.4 24.6 12.4 12.3 0 20.5-5.86 20.5-14.6 0-10.8-12-19.7-26.4-19.7-11.2 0-18.8 7.27-18.8 18.3z"
       id="path101" />
    <path
       transform="matrix(.133 0 0 -.133 0 296)"
       d="m20.4 1469v-9.73h31.9c-6.22-4.1-9.5-10.8-9.5-19 0-16 12.8-26.5 32.5-26.5 20.9 0 33.6 10.2 33.6 26.8 0 8.43-3.17 14.4-10.8 19.7h8.08v8.68zm31.5-27.1c0 10.5 9.38 17.3 24.1 17.3 14.2 0 23.7-6.91 23.7-17.2 0-10.8-9.61-18-23.9-18-14.4 0-23.9 7.26-23.9 17.9z"
       id="path102" />
    <path
       transform="matrix(.133 0 0 -.133 0 296)"
       d="m74.8 1343 25.9-25.8 4.46 4.57-25.8 25.8 25.8 25.8-4.46 4.57-25.9-25.8-25.8 25.8-4.57-4.57 25.9-25.8-25.9-25.8 4.57-4.57z"
       id="path103" />
    <path
       transform="matrix(.133 0 0 -.133 0 296)"
       d="m57.5 1272h-10.2v-26.7c0-9.26 1.06-15.6 3.4-21 5.16-11.5 14.4-17.9 25.3-17.9 7.62 0 15.5 2.93 21.6 8.32 7.03 6.21 10.1 12.9 10.1 22.1 0 7.97-2.47 14.9-7.27 20.3-4.81 5.27-11.6 8.44-17.9 8.44-8.91 0-17.7-6.8-25-19.3zm0-31.3c10.6 10.2 15 12.4 24.6 12.4 12.3 0 20.5-5.86 20.5-14.6 0-10.8-12-19.7-26.4-19.7-11.2 0-18.8 7.26-18.8 18.3zm48.6-122v5.75l-79.2 55.4v-5.86z"
       id="path104" />
    <path
       transform="matrix(.133 0 0 -.133 0 296)"
       d="m46.8 1087h59.4v10.3h-83.4v-6.79c12.9-3.64 14.6-5.98 16.6-22h7.38z"
       id="path105" />
  </g>
  <g
     fill="none"
     stroke="#000"
     stroke-miterlimit="10"
     stroke-width="2.27"
     id="g159">
    <path
       transform="matrix(.133 0 0 -.133 0 296)"
       d="m422 272h-62.5"
       id="path106" />
    <path
       transform="matrix(.133 0 0 -.133 0 296)"
       d="m391 307h-31.2"
       id="path107" />
    <path
       transform="matrix(.133 0 0 -.133 0 296)"
       d="m391 341h-31.2"
       id="path108" />
    <path
       transform="matrix(.133 0 0 -.133 0 296)"
       d="m391 375h-31.2"
       id="path109" />
    <path
       transform="matrix(.133 0 0 -.133 0 296)"
       d="m391 409h-31.2"
       id="path110" />
    <path
       transform="matrix(.133 0 0 -.133 0 296)"
       d="m422 443h-62.5"
       id="path111" />
    <path
       transform="matrix(.133 0 0 -.133 0 296)"
       d="m391 478h-31.2"
       id="path112" />
    <path
       transform="matrix(.133 0 0 -.133 0 296)"
       d="m391 512h-31.2"
       id="path113" />
    <path
       transform="matrix(.133 0 0 -.133 0 296)"
       d="m391 546h-31.2"
       id="path114" />
    <path
       transform="matrix(.133 0 0 -.133 0 296)"
       d="m391 580h-31.2"
       id="path115" />
    <path
       transform="matrix(.133 0 0 -.133 0 296)"
       d="m422 614h-62.5"
       id="path116" />
    <path
       transform="matrix(.133 0 0 -.133 0 296)"
       d="m391 648h-31.2"
       id="path117" />
    <path
       transform="matrix(.133 0 0 -.133 0 296)"
       d="m391 683h-31.2"
       id="path118" />
    <path
       transform="matrix(.133 0 0 -.133 0 296)"
       d="m391 717h-31.2"
       id="path119" />
    <path
       transform="matrix(.133 0 0 -.133 0 296)"
       d="m391 751h-31.2"
       id="path120" />
    <path
       transform="matrix(.133 0 0 -.133 0 296)"
       d="m422 785h-62.5"
       id="path121" />
    <path
       transform="matrix(.133 0 0 -.133 0 296)"
       d="m391 819h-31.2"
       id="path122" />
    <path
       transform="matrix(.133 0 0 -.133 0 296)"
       d="m391 854h-31.2"
       id="path123" />
    <path
       transform="matrix(.133 0 0 -.133 0 296)"
       d="m391 888h-31.2"
       id="path124" />
    <path
       transform="matrix(.133 0 0 -.133 0 296)"
       d="m391 922h-31.2"
       id="path125" />
    <path
       transform="matrix(.133 0 0 -.133 0 296)"
       d="m422 956h-62.5"
       id="path126" />
    <path
       transform="matrix(.133 0 0 -.133 0 296)"
       d="m391 990h-31.2"
       id="path127" />
    <path
       transform="matrix(.133 0 0 -.133 0 296)"
       d="m391 1024h-31.2"
       id="path128" />
    <path
       transform="matrix(.133 0 0 -.133 0 296)"
       d="m391 1059h-31.2"
       id="path129" />
    <path
       transform="matrix(.133 0 0 -.133 0 296)"
       d="m391 1093h-31.2"
       id="path130" />
    <path
       transform="matrix(.133 0 0 -.133 0 296)"
       d="m422 1127h-62.5"
       id="path131" />
    <path
       transform="matrix(.133 0 0 -.133 0 296)"
       d="m391 1161h-31.2"
       id="path132" />
    <path
       transform="matrix(.133 0 0 -.133 0 296)"
       d="m391 1195h-31.2"
       id="path133" />
    <path
       transform="matrix(.133 0 0 -.133 0 296)"
       d="m391 1230h-31.2"
       id="path134" />
    <path
       transform="matrix(.133 0 0 -.133 0 296)"
       d="m391 1264h-31.2"
       id="path135" />
    <path
       transform="matrix(.133 0 0 -.133 0 296)"
       d="m422 1298h-62.5"
       id="path136" />
    <path
       transform="matrix(.133 0 0 -.133 0 296)"
       d="m391 1332h-31.2"
       id="path137" />
    <path
       transform="matrix(.133 0 0 -.133 0 296)"
       d="m391 1366h-31.2"
       id="path138" />
    <path
       transform="matrix(.133 0 0 -.133 0 296)"
       d="m391 1400h-31.2"
       id="path139" />
    <path
       transform="matrix(.133 0 0 -.133 0 296)"
       d="m391 1435h-31.2"
       id="path140" />
    <path
       transform="matrix(.133 0 0 -.133 0 296)"
       d="m422 1469h-62.5"
       id="path141" />
    <path
       transform="matrix(.133 0 0 -.133 0 296)"
       d="m391 1503h-31.2"
       id="path142" />
    <path
       transform="matrix(.133 0 0 -.133 0 296)"
       d="m391 1537h-31.2"
       id="path143" />
    <path
       transform="matrix(.133 0 0 -.133 0 296)"
       d="m391 1571h-31.2"
       id="path144" />
    <path
       transform="matrix(.133 0 0 -.133 0 296)"
       d="m391 1606h-31.2"
       id="path145" />
    <path
       transform="matrix(.133 0 0 -.133 0 296)"
       d="m422 1640h-62.5"
       id="path146" />
    <path
       transform="matrix(.133 0 0 -.133 0 296)"
       d="m391 1674h-31.2"
       id="path147" />
    <path
       transform="matrix(.133 0 0 -.133 0 296)"
       d="m391 1708h-31.2"
       id="path148" />
    <path
       transform="matrix(.133 0 0 -.133 0 296)"
       d="m391 1742h-31.2"
       id="path149" />
    <path
       transform="matrix(.133 0 0 -.133 0 296)"
       d="m391 1776h-31.2"
       id="path150" />
    <path
       transform="matrix(.133 0 0 -.133 0 296)"
       d="m422 1811h-62.5"
       id="path151" />
    <path
       transform="matrix(.133 0 0 -.133 0 296)"
       d="m391 1845h-31.2"
       id="path152" />
    <path
       transform="matrix(.133 0 0 -.133 0 296)"
       d="m391 1879h-31.2"
       id="path153" />
    <path
       transform="matrix(.133 0 0 -.133 0 296)"
       d="m391 1913h-31.2"
       id="path154" />
    <path
       transform="matrix(.133 0 0 -.133 0 296)"
       d="m391 1947h-31.2"
       id="path155" />
    <path
       transform="matrix(.133 0 0 -.133 0 296)"
       d="m422 1982h-62.5"
       id="path156" />
    <path
       transform="matrix(.133 0 0 -.133 0 296)"
       d="m422 1982h-62.5"
       id="path157" />
    <path
       transform="matrix(.133 0 0 -.133 0 296)"
       d="m391 2016h-31.2"
       id="path158" />
    <path
       transform="matrix(.133 0 0 -.133 0 296)"
       d="m391 2050h-31.2"
       id="path159" />
  </g>
  <path
     transform="matrix(.133 0 0 -.133 0 296)"
     d="m315 304c-6.1 0-11.6-2.7-15-7.15-4.22-5.74-6.33-14.4-6.33-26.5 0-21.9 7.26-33.6 21.3-33.6 13.7 0 21.2 11.7 21.2 33.1 0 12.7-2 21.2-6.33 27.1-3.4 4.57-8.79 7.15-14.9 7.15zm0-7.15c8.67 0 13-8.91 13-26.4 0-18.4-4.22-27.1-13.2-27.1-8.55 0-12.9 9.03-12.9 26.8 0 17.8 4.34 26.6 13.1 26.6zm-60.3 179c-6.09 0-11.6-2.7-15-7.15-4.22-5.74-6.33-14.4-6.33-26.5 0-21.9 7.27-33.6 21.3-33.6 13.7 0 21.2 11.7 21.2 33 0 12.6-1.99 21.2-6.32 27.1-3.4 4.57-8.79 7.15-14.9 7.15zm0-7.15c8.67 0 13-8.91 13-26.4 0-18.4-4.22-27.1-13.2-27.1-8.56 0-12.9 9.02-12.9 26.8 0 17.8 4.33 26.6 13.1 26.6zm43.3-48.4h-9.61v-9.61h9.61zm31.8 36.8v-46.4h8.09v65.2h-5.28c-2.93-10.1-4.68-11.4-17.2-13v-5.74zm-92.3 188c-6.1 0-11.6-2.69-15-7.15-4.22-5.74-6.33-14.4-6.33-26.5 0-21.9 7.26-33.6 21.3-33.6 13.7 0 21.2 11.7 21.2 33 0 12.7-2 21.2-6.33 27.1-3.4 4.57-8.79 7.15-14.9 7.15zm0-7.15c8.67 0 13-8.9 13-26.4 0-18.4-4.22-27.1-13.2-27.1-8.55 0-12.9 9.02-12.9 26.8 0 17.8 4.34 26.6 13.1 26.6zm43.3-48.4h-9.61v-9.61h9.61zm54.4-1.65h-34.3c0.82 5.4 3.75 8.79 11.8 13.5l9.14 4.92c9.14 4.93 13.8 11.7 13.8 19.7 0 5.39-2.23 10.4-6.1 13.9-3.86 3.51-8.67 5.15-14.8 5.15-8.32 0-14.4-2.93-18-8.44-2.34-3.51-3.28-7.61-3.51-14.2h8.08c0.347 4.46 0.82 7.04 1.99 9.15 2.11 3.98 6.33 6.32 11.1 6.32 7.38 0 12.9-5.15 12.9-12.2 0-5.16-3.05-9.5-8.79-12.9l-8.44-4.69c-13.6-7.74-17.6-13.9-18.3-28.2h43.4zm-94.9 229c-6.1 0-11.6-2.69-15-7.15-4.22-5.74-6.33-14.4-6.33-26.5 0-21.9 7.26-33.6 21.3-33.6 13.7 0 21.2 11.7 21.2 33.1 0 12.7-1.99 21.2-6.33 27.1-3.4 4.57-8.79 7.15-14.9 7.15zm0-7.15c8.67 0 13-8.9 13-26.4 0-18.4-4.21-27.1-13.2-27.1-8.55 0-12.9 9.03-12.9 26.8 0 17.8 4.34 26.6 13.1 26.6zm43.4-48.4h-9.61v-9.61h9.61zm28.2 20.3h1.05l3.4 0.109c8.91 0 13.5-4.1 13.5-11.9 0-8.08-5.04-13-13.5-13-8.79 0-13.1 4.46-13.7 13.9h-8.08c0.351-5.27 1.28-8.67 2.81-11.6 3.4-6.33 9.72-9.5 18.8-9.5 13.4 0 22 7.97 22 20.3 0 8.32-3.28 12.9-11 15.6 5.98 2.35 9.03 6.92 9.03 13.5 0 11.2-7.39 17.9-19.8 17.9-13.1 0-20.1-7.15-20.4-21.1h8.09c0.117 3.98 0.468 6.21 1.4 8.2 1.88 3.63 5.98 5.74 11 5.74 7.15 0 11.5-4.22 11.5-11 0-4.69-1.64-7.39-5.27-8.91-2.23-0.82-5.04-1.29-10.8-1.29zm-74.4 205c-6.1 0-11.6-2.7-15-7.15-4.22-5.74-6.33-14.4-6.33-26.5 0-21.9 7.26-33.6 21.3-33.6 13.7 0 21.2 11.7 21.2 33.1 0 12.6-2 21.2-6.33 27.1-3.4 4.57-8.79 7.15-14.9 7.15zm0-7.15c8.67 0 13-8.91 13-26.4 0-18.4-4.22-27.1-13.2-27.1-8.55 0-12.9 9.02-12.9 26.8 0 17.8 4.34 26.6 13.1 26.6zm43.3-48.4h-9.61v-9.61h9.61zm37.9 5.98v-15.6h8.08v15.6h9.73v7.26h-9.73v42.3h-5.98l-29.5-41v-8.55zm0 7.26h-20.4l20.4 28.5zm-81.2 214c-6.1 0-11.6-2.69-15-7.14-4.22-5.75-6.33-14.4-6.33-26.5 0-21.9 7.26-33.6 21.3-33.6 13.7 0 21.2 11.7 21.2 33 0 12.6-2 21.2-6.33 27.1-3.4 4.57-8.79 7.14-14.9 7.14zm0-7.14c8.67 0 13-8.91 13-26.4 0-18.4-4.22-27.1-13.2-27.1-8.55 0-12.9 9.02-12.9 26.8 0 17.8 4.34 26.6 13.1 26.6zm43.3-48.4h-9.61v-9.61h9.61zm51.6 55.5h-33.6l-4.8-35.5h7.38c3.75 4.57 6.92 6.09 11.9 6.09 8.79 0 14.3-5.98 14.3-15.6 0-9.37-5.51-15.1-14.3-15.1-7.03 0-11.4 3.63-13.4 10.9h-8.09c1.17-5.28 2.11-7.86 3.98-10.2 3.75-5.04 10.3-7.85 17.7-7.85 13.1 0 22.3 9.61 22.3 23.3 0 12.9-8.55 21.7-21 21.7-4.69 0-8.32-1.17-12.1-3.99l2.58 18.3h27.1zm-95 169c-6.1 0-11.6-2.7-15-7.15-4.22-5.74-6.33-14.4-6.33-26.5 0-21.9 7.26-33.6 21.3-33.6 13.7 0 21.2 11.7 21.2 33 0 12.7-2 21.2-6.33 27.1-3.4 4.57-8.79 7.15-14.9 7.15zm0-7.15c8.67 0 13-8.9 13-26.4 0-18.4-4.22-27.1-13.2-27.1-8.55 0-12.9 9.03-12.9 26.8s4.34 26.6 13.1 26.6zm43.3-48.4h-9.61v-9.61h9.61zm53.6 38.6c-1.53 10.7-8.44 17-18.4 17-7.15 0-13.6-3.52-17.5-9.26-4.1-6.33-5.86-14.4-5.86-26.2 0-10.9 1.64-17.9 5.51-23.7 3.51-5.27 9.14-8.09 16.3-8.09 12.4 0 21.3 9.14 21.3 21.9 0 12.2-8.2 20.7-19.9 20.7-6.44 0-11.5-2.46-15-7.26 0.121 15.8 5.28 24.7 14.5 24.7 5.75 0 9.61-3.63 10.9-9.84zm-19.6-14.8c7.85 0 12.8-5.51 12.8-14.2 0-8.2-5.51-14.2-13-14.2s-13.2 6.21-13.2 14.6c0 8.09 5.51 13.7 13.5 13.7zm-77.4 204c-6.1 0-11.6-2.7-15-7.15-4.22-5.74-6.33-14.4-6.33-26.5 0-21.9 7.26-33.6 21.3-33.6 13.7 0 21.2 11.7 21.2 33 0 12.7-2 21.2-6.33 27.1-3.4 4.57-8.79 7.15-14.9 7.15zm0-7.15c8.67 0 13-8.91 13-26.4 0-18.4-4.22-27.1-13.2-27.1-8.55 0-12.9 9.03-12.9 26.8s4.34 26.6 13.1 26.6zm43.3-48.4h-9.61v-9.61h9.61zm55.7 55.6h-43.6v-7.97h35.2c-15.5-22.2-21.8-35.7-26.7-57.2h8.67c3.52 20.9 11.7 38.8 26.5 58.4zm-99.1 172c-6.1 0-11.6-2.69-15-7.14-4.22-5.75-6.33-14.4-6.33-26.5 0-21.9 7.26-33.6 21.3-33.6 13.7 0 21.2 11.7 21.2 33 0 12.6-2 21.2-6.33 27.1-3.4 4.57-8.79 7.14-14.9 7.14zm0-7.14c8.67 0 13-8.91 13-26.4 0-18.4-4.22-27.1-13.2-27.1-8.55 0-12.9 9.02-12.9 26.8 0 17.8 4.34 26.6 13.1 26.6zm43.3-48.4h-9.61v-9.61h9.61zm43.9 24.6c6.68 4.1 8.91 7.38 8.91 13.6 0 10.2-8.09 17.3-19.6 17.3-11.5 0-19.6-7.14-19.6-17.3 0-6.09 2.11-9.37 8.79-13.6-7.5-3.52-11.1-8.91-11.1-16.2 0-11.8 9.03-20.2 21.9-20.2 12.8 0 21.8 8.32 21.8 20.2 0 7.26-3.63 12.6-11.1 16.2zm-10.7 23.8c6.79 0 11.2-4.1 11.2-10.4 0-6.1-4.46-10.1-11.2-10.1-6.8 0-11.4 3.98-11.4 10.2 0 6.22 4.57 10.3 11.4 10.3zm0-27.3c8.08 0 13.6-5.15 13.6-12.8 0-7.74-5.51-12.9-13.8-12.9-7.85 0-13.4 5.27-13.4 12.9s5.51 12.8 13.6 12.8zm-73.7 204c-6.1 0-11.6-2.69-15-7.15-4.22-5.74-6.33-14.4-6.33-26.5 0-21.9 7.26-33.6 21.3-33.6 13.7 0 21.2 11.7 21.2 33 0 12.7-1.99 21.2-6.33 27.1-3.4 4.57-8.79 7.15-14.9 7.15zm0-7.15c8.67 0 13-8.9 13-26.4 0-18.4-4.21-27.1-13.2-27.1-8.55 0-12.9 9.02-12.9 26.8s4.34 26.6 13.1 26.6zm43.4-48.4h-9.61v-9.61h9.61zm12.9 5.28c1.52-10.7 8.44-17 18.4-17 7.14 0 13.7 3.51 17.5 9.25 4.1 6.33 5.97 14.3 5.97 26.2 0 10.9-1.64 17.8-5.5 23.7-3.64 5.27-9.26 8.08-16.4 8.08-12.4 0-21.3-9.26-21.3-22 0-12.1 8.2-20.6 20-20.6 6.09 0 10.7 2.23 14.9 7.27-0.11-15.9-5.27-24.7-14.5-24.7-5.74 0-9.61 3.64-10.9 9.85zm19.8 43.1c7.5 0 13.2-6.21 13.2-14.6 0-7.96-5.62-13.7-13.5-13.7-7.85 0-12.8 5.39-12.8 14.2 0 8.32 5.51 14.2 13 14.2zm11.4 161v-46.4h8.08v65.2h-5.27c-2.93-10.1-4.69-11.4-17.2-13v-5.74z"
     id="path160" />
  <g
     fill="none"
     stroke-miterlimit="10"
     id="g243">
    <g
       stroke="#000"
       stroke-width="2.27"
       id="g215">
      <path
         transform="matrix(.133 0 0 -.133 0 296)"
         d="m2533 272v1795"
         id="path161" />
      <path
         transform="matrix(.133 0 0 -.133 0 296)"
         d="m2470 272h62.5"
         id="path162" />
      <path
         transform="matrix(.133 0 0 -.133 0 296)"
         d="m2502 307h31.2"
         id="path163" />
      <path
         transform="matrix(.133 0 0 -.133 0 296)"
         d="m2502 341h31.2"
         id="path164" />
      <path
         transform="matrix(.133 0 0 -.133 0 296)"
         d="m2502 375h31.2"
         id="path165" />
      <path
         transform="matrix(.133 0 0 -.133 0 296)"
         d="m2502 409h31.2"
         id="path166" />
      <path
         transform="matrix(.133 0 0 -.133 0 296)"
         d="m2470 443h62.5"
         id="path167" />
      <path
         transform="matrix(.133 0 0 -.133 0 296)"
         d="m2502 478h31.2"
         id="path168" />
      <path
         transform="matrix(.133 0 0 -.133 0 296)"
         d="m2502 512h31.2"
         id="path169" />
      <path
         transform="matrix(.133 0 0 -.133 0 296)"
         d="m2502 546h31.2"
         id="path170" />
      <path
         transform="matrix(.133 0 0 -.133 0 296)"
         d="m2502 580h31.2"
         id="path171" />
      <path
         transform="matrix(.133 0 0 -.133 0 296)"
         d="m2470 614h62.5"
         id="path172" />
      <path
         transform="matrix(.133 0 0 -.133 0 296)"
         d="m2502 648h31.2"
         id="path173" />
      <path
         transform="matrix(.133 0 0 -.133 0 296)"
         d="m2502 683h31.2"
         id="path174" />
      <path
         transform="matrix(.133 0 0 -.133 0 296)"
         d="m2502 717h31.2"
         id="path175" />
      <path
         transform="matrix(.133 0 0 -.133 0 296)"
         d="m2502 751h31.2"
         id="path176" />
      <path
         transform="matrix(.133 0 0 -.133 0 296)"
         d="m2470 785h62.5"
         id="path177" />
      <path
         transform="matrix(.133 0 0 -.133 0 296)"
         d="m2502 819h31.2"
         id="path178" />
      <path
         transform="matrix(.133 0 0 -.133 0 296)"
         d="m2502 854h31.2"
         id="path179" />
      <path
         transform="matrix(.133 0 0 -.133 0 296)"
         d="m2502 888h31.2"
         id="path180" />
      <path
         transform="matrix(.133 0 0 -.133 0 296)"
         d="m2502 922h31.2"
         id="path181" />
      <path
         transform="matrix(.133 0 0 -.133 0 296)"
         d="m2470 956h62.5"
         id="path182" />
      <path
         transform="matrix(.133 0 0 -.133 0 296)"
         d="m2502 990h31.2"
         id="path183" />
      <path
         transform="matrix(.133 0 0 -.133 0 296)"
         d="m2502 1024h31.2"
         id="path184" />
      <path
         transform="matrix(.133 0 0 -.133 0 296)"
         d="m2502 1059h31.2"
         id="path185" />
      <path
         transform="matrix(.133 0 0 -.133 0 296)"
         d="m2502 1093h31.2"
         id="path186" />
      <path
         transform="matrix(.133 0 0 -.133 0 296)"
         d="m2470 1127h62.5"
         id="path187" />
      <path
         transform="matrix(.133 0 0 -.133 0 296)"
         d="m2502 1161h31.2"
         id="path188" />
      <path
         transform="matrix(.133 0 0 -.133 0 296)"
         d="m2502 1195h31.2"
         id="path189" />
      <path
         transform="matrix(.133 0 0 -.133 0 296)"
         d="m2502 1230h31.2"
         id="path190" />
      <path
         transform="matrix(.133 0 0 -.133 0 296)"
         d="m2502 1264h31.2"
         id="path191" />
      <path
         transform="matrix(.133 0 0 -.133 0 296)"
         d="m2470 1298h62.5"
         id="path192" />
      <path
         transform="matrix(.133 0 0 -.133 0 296)"
         d="m2502 1332h31.2"
         id="path193" />
      <path
         transform="matrix(.133 0 0 -.133 0 296)"
         d="m2502 1366h31.2"
         id="path194" />
      <path
         transform="matrix(.133 0 0 -.133 0 296)"
         d="m2502 1400h31.2"
         id="path195" />
      <path
         transform="matrix(.133 0 0 -.133 0 296)"
         d="m2502 1435h31.2"
         id="path196" />
      <path
         transform="matrix(.133 0 0 -.133 0 296)"
         d="m2470 1469h62.5"
         id="path197" />
      <path
         transform="matrix(.133 0 0 -.133 0 296)"
         d="m2502 1503h31.2"
         id="path198" />
      <path
         transform="matrix(.133 0 0 -.133 0 296)"
         d="m2502 1537h31.2"
         id="path199" />
      <path
         transform="matrix(.133 0 0 -.133 0 296)"
         d="m2502 1571h31.2"
         id="path200" />
      <path
         transform="matrix(.133 0 0 -.133 0 296)"
         d="m2502 1606h31.2"
         id="path201" />
      <path
         transform="matrix(.133 0 0 -.133 0 296)"
         d="m2470 1640h62.5"
         id="path202" />
      <path
         transform="matrix(.133 0 0 -.133 0 296)"
         d="m2502 1674h31.2"
         id="path203" />
      <path
         transform="matrix(.133 0 0 -.133 0 296)"
         d="m2502 1708h31.2"
         id="path204" />
      <path
         transform="matrix(.133 0 0 -.133 0 296)"
         d="m2502 1742h31.2"
         id="path205" />
      <path
         transform="matrix(.133 0 0 -.133 0 296)"
         d="m2502 1776h31.2"
         id="path206" />
      <path
         transform="matrix(.133 0 0 -.133 0 296)"
         d="m2470 1811h62.5"
         id="path207" />
      <path
         transform="matrix(.133 0 0 -.133 0 296)"
         d="m2502 1845h31.2"
         id="path208" />
      <path
         transform="matrix(.133 0 0 -.133 0 296)"
         d="m2502 1879h31.2"
         id="path209" />
      <path
         transform="matrix(.133 0 0 -.133 0 296)"
         d="m2502 1913h31.2"
         id="path210" />
      <path
         transform="matrix(.133 0 0 -.133 0 296)"
         d="m2502 1947h31.2"
         id="path211" />
      <path
         transform="matrix(.133 0 0 -.133 0 296)"
         d="m2470 1982h62.5"
         id="path212" />
      <path
         transform="matrix(.133 0 0 -.133 0 296)"
         d="m2470 1982h62.5"
         id="path213" />
      <path
         transform="matrix(.133 0 0 -.133 0 296)"
         d="m2502 2016h31.2"
         id="path214" />
      <path
         transform="matrix(.133 0 0 -.133 0 296)"
         d="m2502 2050h31.2"
         id="path215" />
    </g>
    <path
       transform="matrix(.133 0 0 -.133 0 296)"
       d="m360 504h362v249h362v249h362v248h362v251h362v254h362"
       stroke="#039"
       stroke-width="6.8"
       id="path216" />
    <path
       transform="matrix(.133 0 0 -.133 0 296)"
       d="m360 492h362v251h362v256h362v253h362v254h362v269h362"
       stroke="#f63"
       stroke-width="4.54"
       id="path217" />
    <path
       transform="matrix(.133 0 0 -.133 0 296)"
       d="m360 500h362v251h362v250h362v249h362v254h362v256h362"
       stroke="#666"
       stroke-dasharray="13.6071, 13.6071"
       stroke-width="11.3"
       id="path218" />
    <g
       stroke="#000"
       id="g242">
      <path
         transform="matrix(.133 0 0 -.133 0 296)"
         d="m541 517v516"
         stroke-width="4.54"
         id="path219" />
      <path
         transform="matrix(.133 0 0 -.133 0 296)"
         d="m508 854h65.2"
         stroke-width="9.07"
         id="path220" />
      <path
         transform="matrix(.133 0 0 -.133 0 296)"
         d="m508 693h65.2"
         stroke-width="9.07"
         id="path221" />
      <path
         transform="matrix(.133 0 0 -.133 0 296)"
         d="m541 693v161"
         stroke-width="4.54"
         id="path222" />
      <path
         transform="matrix(.133 0 0 -.133 0 296)"
         d="m903 770v353"
         stroke-width="4.54"
         id="path223" />
      <path
         transform="matrix(.133 0 0 -.133 0 296)"
         d="m871 999h65.2"
         stroke-width="9.07"
         id="path224" />
      <path
         transform="matrix(.133 0 0 -.133 0 296)"
         d="m871 893h65.2"
         stroke-width="9.07"
         id="path225" />
      <path
         transform="matrix(.133 0 0 -.133 0 296)"
         d="m903 893v106"
         stroke-width="4.54"
         id="path226" />
      <path
         transform="matrix(.133 0 0 -.133 0 296)"
         d="m1265 842v266"
         stroke-width="4.54"
         id="path227" />
      <path
         transform="matrix(.133 0 0 -.133 0 296)"
         d="m1233 1025h65.2"
         stroke-width="9.07"
         id="path228" />
      <path
         transform="matrix(.133 0 0 -.133 0 296)"
         d="m1233 926h65.2"
         stroke-width="9.07"
         id="path229" />
      <path
         transform="matrix(.133 0 0 -.133 0 296)"
         d="m1265 926v98.6"
         stroke-width="4.54"
         id="path230" />
      <path
         transform="matrix(.133 0 0 -.133 0 296)"
         d="m1628 1083v238"
         stroke-width="4.54"
         id="path231" />
      <path
         transform="matrix(.133 0 0 -.133 0 296)"
         d="m1595 1248h65.2"
         stroke-width="9.07"
         id="path232" />
      <path
         transform="matrix(.133 0 0 -.133 0 296)"
         d="m1595 1155h65.2"
         stroke-width="9.07"
         id="path233" />
      <path
         transform="matrix(.133 0 0 -.133 0 296)"
         d="m1628 1155v92.9"
         stroke-width="4.54"
         id="path234" />
      <path
         transform="matrix(.133 0 0 -.133 0 296)"
         d="m1990 1182v287"
         stroke-width="4.54"
         id="path235" />
      <path
         transform="matrix(.133 0 0 -.133 0 296)"
         d="m1957 1370h65.2"
         stroke-width="9.07"
         id="path236" />
      <path
         transform="matrix(.133 0 0 -.133 0 296)"
         d="m1957 1279h65.2"
         stroke-width="9.07"
         id="path237" />
      <path
         transform="matrix(.133 0 0 -.133 0 296)"
         d="m1990 1279v91.6"
         stroke-width="4.54"
         id="path238" />
      <path
         transform="matrix(.133 0 0 -.133 0 296)"
         d="m2352 1257v564"
         stroke-width="4.54"
         id="path239" />
      <path
         transform="matrix(.133 0 0 -.133 0 296)"
         d="m2319 1619h65.2"
         stroke-width="9.07"
         id="path240" />
      <path
         transform="matrix(.133 0 0 -.133 0 296)"
         d="m2319 1464h65.2"
         stroke-width="9.07"
         id="path241" />
      <path
         transform="matrix(.133 0 0 -.133 0 296)"
         d="m2352 1464v155"
         stroke-width="4.54"
         id="path242" />
    </g>
  </g>
  <path
     transform="matrix(.133 0 0 -.133 0 296)"
     d="m525 773c0 21.4 32.1 21.4 32.1 0 0-21.4-32.1-21.4-32.1 0zm362 173c0 21.4 32.2 21.4 32.2 0 0-21.4-32.2-21.4-32.2 0zm362 29.9c0 21.5 32.1 21.5 32.1 0 0-21.4-32.1-21.4-32.1 0zm362 226c0 21.4 32.1 21.4 32.1 0 0-21.4-32.1-21.4-32.1 0zm362 123c0 21.4 32.2 21.4 32.2 0 0-21.4-32.2-21.4-32.2 0zm362 217c0 21.4 32.2 21.4 32.2 0 0-21.4-32.2-21.4-32.2 0"
     id="path243" />
  <path
     transform="matrix(.133 0 0 -.133 0 296)"
     d="m1286 2045h1282v133h-1282z"
     fill="#fff"
     fill-rule="evenodd"
     id="path244" />
  <g
     id="g247">
    <path
       transform="matrix(.133 0 0 -.133 0 296)"
       d="m2486 2103c9.96 13.2 16.3 31.5 16.3 47.2 0 15.9-6.33 34.1-16.3 47.3h-5.5c8.79-14.4 13.7-31.3 13.7-47.3 0-15.9-4.92-32.9-13.7-47.2zm-237 47.4c7.39 4.33 9.73 7.96 9.73 14.8 0 11.1-8.67 19-21.3 19-12.5 0-21.4-7.86-21.4-19 0-6.68 2.46-10.3 9.6-14.8-8.08-3.99-12.1-9.85-12.1-17.7 0-13.1 9.85-22.2 23.9-22.2s23.9 9.03 23.9 22c0 7.97-4.1 13.8-12.3 17.8zm-11.6 25.9c7.5 0 12.3-4.45 12.3-11.4 0-6.68-4.93-11-12.3-11-7.5 0-12.4 4.34-12.4 11.1 0 6.8 4.92 11.2 12.4 11.2zm0-29.9c8.79 0 14.9-5.62 14.9-13.9 0-8.44-6.09-14.1-15.1-14.1-8.68 0-14.6 5.75-14.6 14.1s5.97 13.9 14.9 13.9zm91.6 31.4h24v8.32h-57.4v-8.32h24.1v-64.9h9.26zm77.4-41.4c0 7.97-0.7 12.8-2.11 16.8-3.39 8.55-11.5 13.8-21.3 13.8-14.6 0-24.1-11.2-24.1-28.5 0-17.3 9.14-28 23.9-28 12.1 0 20.4 6.92 22.5 18.3h-8.44c-2.22-6.91-7.03-10.5-13.7-10.5-5.39 0-9.84 2.46-12.6 6.91-2 2.93-2.7 5.98-2.82 11.2zm-38.6 6.8c0.7 9.72 6.56 16 15 16 8.2 0 14.5-6.79 14.5-15.5v-0.58zm82.2-30.4 25.4 73.2h-9.96l-20.3-62-21.6 62h-9.96l26.2-73.2zm-245 84.7c-9.97-13.2-16.3-31.4-16.3-47.2s6.32-34.1 16.3-47.4h5.5c-8.79 14.4-13.7 31.3-13.7 47.4 0 15.9 4.92 32.9 13.7 47.2z"
       id="path245" />
    <path
       transform="matrix(.133 0 0 -.133 0 296)"
       d="m2117 2180h-16.4v-4.92h16.4zm21.2 13.4v-34.8h6.1v48.9h-3.99c-2.11-7.5-3.51-8.55-12.9-9.73v-4.33z"
       id="path246" />
    <path
       transform="matrix(.133 0 0 -.133 0 296)"
       d="m1745 2123v-10.4h5.97v-1.76c0-7.03-1.28-9.02-5.97-9.14v-3.87c7.03 0 10.5 4.57 10.5 13.1v12.1zm73 40.3v-50.7h8.79v71.2h-5.74c-3.16-11-5.15-12.5-18.9-14.2v-6.33zm35.2-34.4c1.76-11.7 9.38-18.6 20.3-18.6 7.86 0 14.9 3.87 19.1 10.2 4.45 6.91 6.44 15.7 6.44 28.6 0 12-1.76 19.6-5.98 25.9-3.98 5.74-10.2 8.91-18 8.91-13.5 0-23.2-10.1-23.2-24 0-13.2 9.02-22.6 21.8-22.6 6.8 0 11.7 2.46 16.3 7.96-0.12-17.5-5.74-27.1-15.8-27.1-6.21 0-10.6 3.99-12 10.8zm21.8 47.2c8.2 0 14.4-6.91 14.4-16 0-8.79-6.09-15-14.8-15-8.56 0-13.8 5.86-13.8 15.5 0 9.02 5.98 15.6 14.2 15.6zm48-53.1h-10.4v-10.4h10.4zm61 60.8h-47.7v-8.79h38.6c-17-24.1-23.9-39-29.3-62.5h9.49c3.87 22.8 12.9 42.4 28.9 63.8zm57.4-18.6h-8.68v8.21c0 3.51 2 5.39 5.75 5.39 0.7 0 1.05 0 2.93-0.12v6.91c-1.88 0.36-3.05 0.47-4.69 0.47-7.74 0-12.4-4.33-12.4-12v-8.91h-7.03v-6.79h7.03v-45.8h8.43v45.8h8.68zm7.46 20.6v-73.2h7.61v6.68c3.99-6.1 9.26-9.03 16.6-9.03 13.8 0 22.9 11.4 22.9 28.8 0 17.1-8.56 27.7-22.5 27.7-7.15 0-12.3-2.7-16.3-8.67v27.8zm23.1-27c9.26 0 15.4-8.09 15.4-20.6 0-12-6.21-20.2-15.4-20.2-8.9 0-14.8 8.09-14.8 20.4 0 12.4 5.86 20.4 14.8 20.4zm-339 6.32h-8.67v14.4h-8.32v-14.4h-7.15v-6.79h7.15v-39.8c0-5.27 3.64-8.32 10.1-8.32 2.11 0 4.1 0.24 6.91 0.71v7.03c-1.17-0.24-2.46-0.35-4.1-0.35-3.51 0-4.57 0.93-4.57 4.68v36.1h8.67z"
       id="path247" />
  </g>
  <path
     transform="matrix(.133 0 0 -.133 0 296)"
     d="m1708 2191h28.7"
     fill="none"
     stroke="#000"
     stroke-miterlimit="10"
     stroke-width="4.54"
     id="path248" />
  <g
     id="g251">
    <path
       transform="matrix(.133 0 0 -.133 0 296)"
       d="m1319 2140h-20.9v20.7h-7.04v-20.7h-20.7v-7.03h20.7v-20.9h7.04v20.9h20.9zm40 25.8v-60.2c0-5.27-1.76-6.91-6.8-6.91-0.35 0-0.35 0-1.99 0.11v-7.15c0.93-0.23 1.4-0.35 2.81-0.35 9.38 0 14.3 3.87 14.3 11v63.5zm8.32 20.6h-8.32v-10.6h8.32zm58.5-49.7c0 7.97-0.7 12.8-2.11 16.8-3.4 8.55-11.5 13.8-21.3 13.8-14.6 0-24.2-11.2-24.2-28.5 0-17.3 9.15-28 23.9-28 12.1 0 20.4 6.92 22.5 18.3h-8.44c-2.22-6.91-7.03-10.5-13.7-10.5-5.39 0-9.84 2.46-12.6 6.91-2 2.93-2.7 5.98-2.82 11.2zm-38.6 6.8c0.7 9.72 6.56 16 15 16 8.2 0 14.5-6.79 14.5-15.5v-0.58zm68.4 22.3h-8.67v14.4h-8.33v-14.4h-7.14v-6.79h7.14v-39.8c0-5.27 3.64-8.32 10.1-8.32 2.11 0 4.1 0.24 6.92 0.71v7.03c-1.17-0.24-2.46-0.35-4.1-0.35-3.52 0-4.57 0.93-4.57 4.68v36.1h8.67zm46.3-14.6c0 10.3-6.92 16.2-19 16.2-12.3 0-20.3-6.33-20.3-16.1 0-8.2 4.22-12.2 16.8-15.2l7.73-1.88c5.86-1.4 8.2-3.51 8.2-7.26 0-4.92-4.92-8.32-12.3-8.32-4.46 0-8.32 1.29-10.4 3.51-1.29 1.53-1.88 3.05-2.35 6.8h-8.9c0.47-12.2 7.26-18 21-18 13.2 0 21.7 6.57 21.7 16.8 0 7.74-4.33 12.1-14.8 14.6l-8.09 1.87c-6.79 1.64-9.72 3.87-9.72 7.5 0 4.81 4.33 7.97 11.1 7.97 6.68 0 10.3-2.93 10.6-8.43zm15-27.5v-10.4h5.98v-1.76c0-7.03-1.29-9.02-5.98-9.14v-3.87c7.04 0 10.6 4.57 10.6 13.1v12.1zm72.7 42.2h-8.67v14.4h-8.32v-14.4h-7.15v-6.79h7.15v-39.8c0-5.27 3.63-8.32 10.1-8.32 2.11 0 4.1 0.24 6.91 0.71v7.03c-1.17-0.24-2.46-0.35-4.1-0.35-3.52 0-4.57 0.93-4.57 4.68v36.1h8.67zm84-25.8h-20.9v20.7h-7.03v-20.7h-20.8v-7.03h20.8v-20.9h7.03v20.9h20.9z"
       id="path249" />
    <path
       transform="matrix(.133 0 0 -.133 0 296)"
       d="m1224 2163h-8.91v-37c-3.52-5.04-7.03-7.26-11.2-7.26-5.74 0-9.14 4.1-9.14 11.1v33.2h-8.91v-48.2c0-2.11-0.35-4.57-1.05-7.62-1.76-6.21-1.88-6.8-1.88-9.14 0-4.22 2.11-7.26 5.04-7.26s4.92 3.04 4.92 7.5c0 2.1-0.23 3.39-1.87 9.25-1.06 3.52-1.17 4.57-1.17 7.39v1.17c4.22-3.52 6.44-4.57 9.84-4.57 5.04 0 10.2 3.04 15.5 9.37 0.82-3.28 1.41-4.45 2.34-5.97 1.53-2.11 4.22-3.4 7.15-3.4 6.21 0 10.6 4.45 12 12.2h-2.69c-0.47-3.75-2.58-6.8-4.81-6.8-3.04 0-5.03 3.63-5.03 9.02z"
       id="path250" />
    <path
       transform="matrix(.133 0 0 -.133 0 296)"
       d="m431 2164c-0.582 6.68-1.87 10.9-5.15 15.2-5.98 7.85-15.6 12.2-27.2 12.2-21.8 0-35.4-15.6-35.4-40.7 0-24.8 13.5-40.4 35-40.4 19.2 0 32 11.1 33 28.9h-15.6c-0.941-9.96-7.15-15.6-17.1-15.6-12.3 0-19.4 9.96-19.4 27s7.5 27.2 20 27.2c5.51 0 10.1-1.88 13-5.63 1.76-2.11 2.58-4.1 3.52-8.2zm27.2 9.14 13.8-60.4h15.9l13.7 60.4v-60.4h15.9v77.3h-24l-13.6-61.5-13.9 61.5h-23.8v-77.3h15.9zm130-6.56c0 7.14-1.64 11.8-5.39 16-5.27 5.74-13.8 8.79-25 8.79-18.6 0-29.3-8.67-29.3-23.8 0-12 5.98-17.8 21.8-20.7l10.8-2.11c10.7-2.11 14.5-5.04 14.5-11.2 0-6.56-5.98-10.4-15.6-10.4-10.9 0-16.9 4.57-17.5 12.9h-15.5c0.929-16.6 12.3-25.7 32.1-25.7 19.9 0 31.8 9.37 31.8 25.1 0 12.2-6.21 18.6-20.5 21.3l-12.2 2.35c-11.4 2.22-14.7 4.45-14.7 10.1 0 5.86 5.27 9.61 13.4 9.61 10.2 0 15.8-4.33 16.3-12.2z"
       id="path251" />
  </g>
  <g
     fill="none"
     stroke="#000"
     stroke-miterlimit="10"
     stroke-width="2.27"
     id="g447">
    <path
       transform="matrix(.133 0 0 -.133 0 296)"
       d="m360 272h2173"
       id="path252" />
    <path
       transform="matrix(.133 0 0 -.133 0 296)"
       d="m360 329v-56.1"
       id="path253" />
    <path
       transform="matrix(.133 0 0 -.133 0 296)"
       d="m414 301v-28.1"
       id="path254" />
    <path
       transform="matrix(.133 0 0 -.133 0 296)"
       d="m469 301v-28.1"
       id="path255" />
    <path
       transform="matrix(.133 0 0 -.133 0 296)"
       d="m523 301v-28.1"
       id="path256" />
    <path
       transform="matrix(.133 0 0 -.133 0 296)"
       d="m577 329v-56.1"
       id="path257" />
    <path
       transform="matrix(.133 0 0 -.133 0 296)"
       d="m632 301v-28.1"
       id="path258" />
    <path
       transform="matrix(.133 0 0 -.133 0 296)"
       d="m686 301v-28.1"
       id="path259" />
    <path
       transform="matrix(.133 0 0 -.133 0 296)"
       d="m740 301v-28.1"
       id="path260" />
    <path
       transform="matrix(.133 0 0 -.133 0 296)"
       d="m795 329v-56.1"
       id="path261" />
    <path
       transform="matrix(.133 0 0 -.133 0 296)"
       d="m849 301v-28.1"
       id="path262" />
    <path
       transform="matrix(.133 0 0 -.133 0 296)"
       d="m903 301v-28.1"
       id="path263" />
    <path
       transform="matrix(.133 0 0 -.133 0 296)"
       d="m958 301v-28.1"
       id="path264" />
    <path
       transform="matrix(.133 0 0 -.133 0 296)"
       d="m1012 329v-56.1"
       id="path265" />
    <path
       transform="matrix(.133 0 0 -.133 0 296)"
       d="m1066 301v-28.1"
       id="path266" />
    <path
       transform="matrix(.133 0 0 -.133 0 296)"
       d="m1121 301v-28.1"
       id="path267" />
    <path
       transform="matrix(.133 0 0 -.133 0 296)"
       d="m1175 301v-28.1"
       id="path268" />
    <path
       transform="matrix(.133 0 0 -.133 0 296)"
       d="m1229 329v-56.1"
       id="path269" />
    <path
       transform="matrix(.133 0 0 -.133 0 296)"
       d="m1283 301v-28.1"
       id="path270" />
    <path
       transform="matrix(.133 0 0 -.133 0 296)"
       d="m1338 301v-28.1"
       id="path271" />
    <path
       transform="matrix(.133 0 0 -.133 0 296)"
       d="m1392 301v-28.1"
       id="path272" />
    <path
       transform="matrix(.133 0 0 -.133 0 296)"
       d="m1446 329v-56.1"
       id="path273" />
    <path
       transform="matrix(.133 0 0 -.133 0 296)"
       d="m1501 301v-28.1"
       id="path274" />
    <path
       transform="matrix(.133 0 0 -.133 0 296)"
       d="m1555 301v-28.1"
       id="path275" />
    <path
       transform="matrix(.133 0 0 -.133 0 296)"
       d="m1609 301v-28.1"
       id="path276" />
    <path
       transform="matrix(.133 0 0 -.133 0 296)"
       d="m1664 329v-56.1"
       id="path277" />
    <path
       transform="matrix(.133 0 0 -.133 0 296)"
       d="m1718 301v-28.1"
       id="path278" />
    <path
       transform="matrix(.133 0 0 -.133 0 296)"
       d="m1772 301v-28.1"
       id="path279" />
    <path
       transform="matrix(.133 0 0 -.133 0 296)"
       d="m1827 301v-28.1"
       id="path280" />
    <path
       transform="matrix(.133 0 0 -.133 0 296)"
       d="m1881 329v-56.1"
       id="path281" />
    <path
       transform="matrix(.133 0 0 -.133 0 296)"
       d="m1935 301v-28.1"
       id="path282" />
    <path
       transform="matrix(.133 0 0 -.133 0 296)"
       d="m1990 301v-28.1"
       id="path283" />
    <path
       transform="matrix(.133 0 0 -.133 0 296)"
       d="m2044 301v-28.1"
       id="path284" />
    <path
       transform="matrix(.133 0 0 -.133 0 296)"
       d="m2098 329v-56.1"
       id="path285" />
    <path
       transform="matrix(.133 0 0 -.133 0 296)"
       d="m2153 301v-28.1"
       id="path286" />
    <path
       transform="matrix(.133 0 0 -.133 0 296)"
       d="m2207 301v-28.1"
       id="path287" />
    <path
       transform="matrix(.133 0 0 -.133 0 296)"
       d="m2261 301v-28.1"
       id="path288" />
    <path
       transform="matrix(.133 0 0 -.133 0 296)"
       d="m2316 329v-56.1"
       id="path289" />
    <path
       transform="matrix(.133 0 0 -.133 0 296)"
       d="m2370 301v-28.1"
       id="path290" />
    <path
       transform="matrix(.133 0 0 -.133 0 296)"
       d="m2424 301v-28.1"
       id="path291" />
    <path
       transform="matrix(.133 0 0 -.133 0 296)"
       d="m2479 301v-28.1"
       id="path292" />
    <path
       transform="matrix(.133 0 0 -.133 0 296)"
       d="m2533 329v-56.1"
       id="path293" />
    <path
       transform="matrix(.133 0 0 -.133 0 296)"
       d="m360 329v-56.1"
       id="path294" />
    <path
       transform="matrix(.133 0 0 -.133 0 296)"
       d="m360 2067h2173"
       id="path295" />
    <path
       transform="matrix(.133 0 0 -.133 0 296)"
       d="m360 2011v56.1"
       id="path296" />
    <path
       transform="matrix(.133 0 0 -.133 0 296)"
       d="m414 2039v28.1"
       id="path297" />
    <path
       transform="matrix(.133 0 0 -.133 0 296)"
       d="m469 2039v28.1"
       id="path298" />
    <path
       transform="matrix(.133 0 0 -.133 0 296)"
       d="m523 2039v28.1"
       id="path299" />
    <path
       transform="matrix(.133 0 0 -.133 0 296)"
       d="m577 2011v56.1"
       id="path300" />
    <path
       transform="matrix(.133 0 0 -.133 0 296)"
       d="m632 2039v28.1"
       id="path301" />
    <path
       transform="matrix(.133 0 0 -.133 0 296)"
       d="m686 2039v28.1"
       id="path302" />
    <path
       transform="matrix(.133 0 0 -.133 0 296)"
       d="m740 2039v28.1"
       id="path303" />
    <path
       transform="matrix(.133 0 0 -.133 0 296)"
       d="m795 2011v56.1"
       id="path304" />
    <path
       transform="matrix(.133 0 0 -.133 0 296)"
       d="m849 2039v28.1"
       id="path305" />
    <path
       transform="matrix(.133 0 0 -.133 0 296)"
       d="m903 2039v28.1"
       id="path306" />
    <path
       transform="matrix(.133 0 0 -.133 0 296)"
       d="m958 2039v28.1"
       id="path307" />
    <path
       transform="matrix(.133 0 0 -.133 0 296)"
       d="m1012 2011v56.1"
       id="path308" />
    <path
       transform="matrix(.133 0 0 -.133 0 296)"
       d="m1066 2039v28.1"
       id="path309" />
    <path
       transform="matrix(.133 0 0 -.133 0 296)"
       d="m1121 2039v28.1"
       id="path310" />
    <path
       transform="matrix(.133 0 0 -.133 0 296)"
       d="m1175 2039v28.1"
       id="path311" />
    <path
       transform="matrix(.133 0 0 -.133 0 296)"
       d="m1229 2011v56.1"
       id="path312" />
    <path
       transform="matrix(.133 0 0 -.133 0 296)"
       d="m1283 2039v28.1"
       id="path313" />
    <path
       transform="matrix(.133 0 0 -.133 0 296)"
       d="m1338 2039v28.1"
       id="path314" />
    <path
       transform="matrix(.133 0 0 -.133 0 296)"
       d="m1392 2039v28.1"
       id="path315" />
    <path
       transform="matrix(.133 0 0 -.133 0 296)"
       d="m1446 2011v56.1"
       id="path316" />
    <path
       transform="matrix(.133 0 0 -.133 0 296)"
       d="m1501 2039v28.1"
       id="path317" />
    <path
       transform="matrix(.133 0 0 -.133 0 296)"
       d="m1555 2039v28.1"
       id="path318" />
    <path
       transform="matrix(.133 0 0 -.133 0 296)"
       d="m1609 2039v28.1"
       id="path319" />
    <path
       transform="matrix(.133 0 0 -.133 0 296)"
       d="m1664 2011v56.1"
       id="path320" />
    <path
       transform="matrix(.133 0 0 -.133 0 296)"
       d="m1718 2039v28.1"
       id="path321" />
    <path
       transform="matrix(.133 0 0 -.133 0 296)"
       d="m1772 2039v28.1"
       id="path322" />
    <path
       transform="matrix(.133 0 0 -.133 0 296)"
       d="m1827 2039v28.1"
       id="path323" />
    <path
       transform="matrix(.133 0 0 -.133 0 296)"
       d="m1881 2011v56.1"
       id="path324" />
    <path
       transform="matrix(.133 0 0 -.133 0 296)"
       d="m1935 2039v28.1"
       id="path325" />
    <path
       transform="matrix(.133 0 0 -.133 0 296)"
       d="m1990 2039v28.1"
       id="path326" />
    <path
       transform="matrix(.133 0 0 -.133 0 296)"
       d="m2044 2039v28.1"
       id="path327" />
    <path
       transform="matrix(.133 0 0 -.133 0 296)"
       d="m2098 2011v56.1"
       id="path328" />
    <path
       transform="matrix(.133 0 0 -.133 0 296)"
       d="m2153 2039v28.1"
       id="path329" />
    <path
       transform="matrix(.133 0 0 -.133 0 296)"
       d="m2207 2039v28.1"
       id="path330" />
    <path
       transform="matrix(.133 0 0 -.133 0 296)"
       d="m2261 2039v28.1"
       id="path331" />
    <path
       transform="matrix(.133 0 0 -.133 0 296)"
       d="m2316 2011v56.1"
       id="path332" />
    <path
       transform="matrix(.133 0 0 -.133 0 296)"
       d="m2370 2039v28.1"
       id="path333" />
    <path
       transform="matrix(.133 0 0 -.133 0 296)"
       d="m2424 2039v28.1"
       id="path334" />
    <path
       transform="matrix(.133 0 0 -.133 0 296)"
       d="m2479 2039v28.1"
       id="path335" />
    <path
       transform="matrix(.133 0 0 -.133 0 296)"
       d="m2533 2011v56.1"
       id="path336" />
    <path
       transform="matrix(.133 0 0 -.133 0 296)"
       d="m360 2011v56.1"
       id="path337" />
    <path
       transform="matrix(.133 0 0 -.133 0 296)"
       d="m360 272v1795"
       id="path338" />
    <path
       transform="matrix(.133 0 0 -.133 0 296)"
       d="m422 272h-62.5"
       id="path339" />
    <path
       transform="matrix(.133 0 0 -.133 0 296)"
       d="m391 307h-31.2"
       id="path340" />
    <path
       transform="matrix(.133 0 0 -.133 0 296)"
       d="m391 341h-31.2"
       id="path341" />
    <path
       transform="matrix(.133 0 0 -.133 0 296)"
       d="m391 375h-31.2"
       id="path342" />
    <path
       transform="matrix(.133 0 0 -.133 0 296)"
       d="m391 409h-31.2"
       id="path343" />
    <path
       transform="matrix(.133 0 0 -.133 0 296)"
       d="m422 443h-62.5"
       id="path344" />
    <path
       transform="matrix(.133 0 0 -.133 0 296)"
       d="m391 478h-31.2"
       id="path345" />
    <path
       transform="matrix(.133 0 0 -.133 0 296)"
       d="m391 512h-31.2"
       id="path346" />
    <path
       transform="matrix(.133 0 0 -.133 0 296)"
       d="m391 546h-31.2"
       id="path347" />
    <path
       transform="matrix(.133 0 0 -.133 0 296)"
       d="m391 580h-31.2"
       id="path348" />
    <path
       transform="matrix(.133 0 0 -.133 0 296)"
       d="m422 614h-62.5"
       id="path349" />
    <path
       transform="matrix(.133 0 0 -.133 0 296)"
       d="m391 648h-31.2"
       id="path350" />
    <path
       transform="matrix(.133 0 0 -.133 0 296)"
       d="m391 683h-31.2"
       id="path351" />
    <path
       transform="matrix(.133 0 0 -.133 0 296)"
       d="m391 717h-31.2"
       id="path352" />
    <path
       transform="matrix(.133 0 0 -.133 0 296)"
       d="m391 751h-31.2"
       id="path353" />
    <path
       transform="matrix(.133 0 0 -.133 0 296)"
       d="m422 785h-62.5"
       id="path354" />
    <path
       transform="matrix(.133 0 0 -.133 0 296)"
       d="m391 819h-31.2"
       id="path355" />
    <path
       transform="matrix(.133 0 0 -.133 0 296)"
       d="m391 854h-31.2"
       id="path356" />
    <path
       transform="matrix(.133 0 0 -.133 0 296)"
       d="m391 888h-31.2"
       id="path357" />
    <path
       transform="matrix(.133 0 0 -.133 0 296)"
       d="m391 922h-31.2"
       id="path358" />
    <path
       transform="matrix(.133 0 0 -.133 0 296)"
       d="m422 956h-62.5"
       id="path359" />
    <path
       transform="matrix(.133 0 0 -.133 0 296)"
       d="m391 990h-31.2"
       id="path360" />
    <path
       transform="matrix(.133 0 0 -.133 0 296)"
       d="m391 1024h-31.2"
       id="path361" />
    <path
       transform="matrix(.133 0 0 -.133 0 296)"
       d="m391 1059h-31.2"
       id="path362" />
    <path
       transform="matrix(.133 0 0 -.133 0 296)"
       d="m391 1093h-31.2"
       id="path363" />
    <path
       transform="matrix(.133 0 0 -.133 0 296)"
       d="m422 1127h-62.5"
       id="path364" />
    <path
       transform="matrix(.133 0 0 -.133 0 296)"
       d="m391 1161h-31.2"
       id="path365" />
    <path
       transform="matrix(.133 0 0 -.133 0 296)"
       d="m391 1195h-31.2"
       id="path366" />
    <path
       transform="matrix(.133 0 0 -.133 0 296)"
       d="m391 1230h-31.2"
       id="path367" />
    <path
       transform="matrix(.133 0 0 -.133 0 296)"
       d="m391 1264h-31.2"
       id="path368" />
    <path
       transform="matrix(.133 0 0 -.133 0 296)"
       d="m422 1298h-62.5"
       id="path369" />
    <path
       transform="matrix(.133 0 0 -.133 0 296)"
       d="m391 1332h-31.2"
       id="path370" />
    <path
       transform="matrix(.133 0 0 -.133 0 296)"
       d="m391 1366h-31.2"
       id="path371" />
    <path
       transform="matrix(.133 0 0 -.133 0 296)"
       d="m391 1400h-31.2"
       id="path372" />
    <path
       transform="matrix(.133 0 0 -.133 0 296)"
       d="m391 1435h-31.2"
       id="path373" />
    <path
       transform="matrix(.133 0 0 -.133 0 296)"
       d="m422 1469h-62.5"
       id="path374" />
    <path
       transform="matrix(.133 0 0 -.133 0 296)"
       d="m391 1503h-31.2"
       id="path375" />
    <path
       transform="matrix(.133 0 0 -.133 0 296)"
       d="m391 1537h-31.2"
       id="path376" />
    <path
       transform="matrix(.133 0 0 -.133 0 296)"
       d="m391 1571h-31.2"
       id="path377" />
    <path
       transform="matrix(.133 0 0 -.133 0 296)"
       d="m391 1606h-31.2"
       id="path378" />
    <path
       transform="matrix(.133 0 0 -.133 0 296)"
       d="m422 1640h-62.5"
       id="path379" />
    <path
       transform="matrix(.133 0 0 -.133 0 296)"
       d="m391 1674h-31.2"
       id="path380" />
    <path
       transform="matrix(.133 0 0 -.133 0 296)"
       d="m391 1708h-31.2"
       id="path381" />
    <path
       transform="matrix(.133 0 0 -.133 0 296)"
       d="m391 1742h-31.2"
       id="path382" />
    <path
       transform="matrix(.133 0 0 -.133 0 296)"
       d="m391 1776h-31.2"
       id="path383" />
    <path
       transform="matrix(.133 0 0 -.133 0 296)"
       d="m422 1811h-62.5"
       id="path384" />
    <path
       transform="matrix(.133 0 0 -.133 0 296)"
       d="m391 1845h-31.2"
       id="path385" />
    <path
       transform="matrix(.133 0 0 -.133 0 296)"
       d="m391 1879h-31.2"
       id="path386" />
    <path
       transform="matrix(.133 0 0 -.133 0 296)"
       d="m391 1913h-31.2"
       id="path387" />
    <path
       transform="matrix(.133 0 0 -.133 0 296)"
       d="m391 1947h-31.2"
       id="path388" />
    <path
       transform="matrix(.133 0 0 -.133 0 296)"
       d="m422 1982h-62.5"
       id="path389" />
    <path
       transform="matrix(.133 0 0 -.133 0 296)"
       d="m422 1982h-62.5"
       id="path390" />
    <path
       transform="matrix(.133 0 0 -.133 0 296)"
       d="m391 2016h-31.2"
       id="path391" />
    <path
       transform="matrix(.133 0 0 -.133 0 296)"
       d="m391 2050h-31.2"
       id="path392" />
    <path
       transform="matrix(.133 0 0 -.133 0 296)"
       d="m2533 272v1795"
       id="path393" />
    <path
       transform="matrix(.133 0 0 -.133 0 296)"
       d="m2470 272h62.5"
       id="path394" />
    <path
       transform="matrix(.133 0 0 -.133 0 296)"
       d="m2502 307h31.2"
       id="path395" />
    <path
       transform="matrix(.133 0 0 -.133 0 296)"
       d="m2502 341h31.2"
       id="path396" />
    <path
       transform="matrix(.133 0 0 -.133 0 296)"
       d="m2502 375h31.2"
       id="path397" />
    <path
       transform="matrix(.133 0 0 -.133 0 296)"
       d="m2502 409h31.2"
       id="path398" />
    <path
       transform="matrix(.133 0 0 -.133 0 296)"
       d="m2470 443h62.5"
       id="path399" />
    <path
       transform="matrix(.133 0 0 -.133 0 296)"
       d="m2502 478h31.2"
       id="path400" />
    <path
       transform="matrix(.133 0 0 -.133 0 296)"
       d="m2502 512h31.2"
       id="path401" />
    <path
       transform="matrix(.133 0 0 -.133 0 296)"
       d="m2502 546h31.2"
       id="path402" />
    <path
       transform="matrix(.133 0 0 -.133 0 296)"
       d="m2502 580h31.2"
       id="path403" />
    <path
       transform="matrix(.133 0 0 -.133 0 296)"
       d="m2470 614h62.5"
       id="path404" />
    <path
       transform="matrix(.133 0 0 -.133 0 296)"
       d="m2502 648h31.2"
       id="path405" />
    <path
       transform="matrix(.133 0 0 -.133 0 296)"
       d="m2502 683h31.2"
       id="path406" />
    <path
       transform="matrix(.133 0 0 -.133 0 296)"
       d="m2502 717h31.2"
       id="path407" />
    <path
       transform="matrix(.133 0 0 -.133 0 296)"
       d="m2502 751h31.2"
       id="path408" />
    <path
       transform="matrix(.133 0 0 -.133 0 296)"
       d="m2470 785h62.5"
       id="path409" />
    <path
       transform="matrix(.133 0 0 -.133 0 296)"
       d="m2502 819h31.2"
       id="path410" />
    <path
       transform="matrix(.133 0 0 -.133 0 296)"
       d="m2502 854h31.2"
       id="path411" />
    <path
       transform="matrix(.133 0 0 -.133 0 296)"
       d="m2502 888h31.2"
       id="path412" />
    <path
       transform="matrix(.133 0 0 -.133 0 296)"
       d="m2502 922h31.2"
       id="path413" />
    <path
       transform="matrix(.133 0 0 -.133 0 296)"
       d="m2470 956h62.5"
       id="path414" />
    <path
       transform="matrix(.133 0 0 -.133 0 296)"
       d="m2502 990h31.2"
       id="path415" />
    <path
       transform="matrix(.133 0 0 -.133 0 296)"
       d="m2502 1024h31.2"
       id="path416" />
    <path
       transform="matrix(.133 0 0 -.133 0 296)"
       d="m2502 1059h31.2"
       id="path417" />
    <path
       transform="matrix(.133 0 0 -.133 0 296)"
       d="m2502 1093h31.2"
       id="path418" />
    <path
       transform="matrix(.133 0 0 -.133 0 296)"
       d="m2470 1127h62.5"
       id="path419" />
    <path
       transform="matrix(.133 0 0 -.133 0 296)"
       d="m2502 1161h31.2"
       id="path420" />
    <path
       transform="matrix(.133 0 0 -.133 0 296)"
       d="m2502 1195h31.2"
       id="path421" />
    <path
       transform="matrix(.133 0 0 -.133 0 296)"
       d="m2502 1230h31.2"
       id="path422" />
    <path
       transform="matrix(.133 0 0 -.133 0 296)"
       d="m2502 1264h31.2"
       id="path423" />
    <path
       transform="matrix(.133 0 0 -.133 0 296)"
       d="m2470 1298h62.5"
       id="path424" />
    <path
       transform="matrix(.133 0 0 -.133 0 296)"
       d="m2502 1332h31.2"
       id="path425" />
    <path
       transform="matrix(.133 0 0 -.133 0 296)"
       d="m2502 1366h31.2"
       id="path426" />
    <path
       transform="matrix(.133 0 0 -.133 0 296)"
       d="m2502 1400h31.2"
       id="path427" />
    <path
       transform="matrix(.133 0 0 -.133 0 296)"
       d="m2502 1435h31.2"
       id="path428" />
    <path
       transform="matrix(.133 0 0 -.133 0 296)"
       d="m2470 1469h62.5"
       id="path429" />
    <path
       transform="matrix(.133 0 0 -.133 0 296)"
       d="m2502 1503h31.2"
       id="path430" />
    <path
       transform="matrix(.133 0 0 -.133 0 296)"
       d="m2502 1537h31.2"
       id="path431" />
    <path
       transform="matrix(.133 0 0 -.133 0 296)"
       d="m2502 1571h31.2"
       id="path432" />
    <path
       transform="matrix(.133 0 0 -.133 0 296)"
       d="m2502 1606h31.2"
       id="path433" />
    <path
       transform="matrix(.133 0 0 -.133 0 296)"
       d="m2470 1640h62.5"
       id="path434" />
    <path
       transform="matrix(.133 0 0 -.133 0 296)"
       d="m2502 1674h31.2"
       id="path435" />
    <path
       transform="matrix(.133 0 0 -.133 0 296)"
       d="m2502 1708h31.2"
       id="path436" />
    <path
       transform="matrix(.133 0 0 -.133 0 296)"
       d="m2502 1742h31.2"
       id="path437" />
    <path
       transform="matrix(.133 0 0 -.133 0 296)"
       d="m2502 1776h31.2"
       id="path438" />
    <path
       transform="matrix(.133 0 0 -.133 0 296)"
       d="m2470 1811h62.5"
       id="path439" />
    <path
       transform="matrix(.133 0 0 -.133 0 296)"
       d="m2502 1845h31.2"
       id="path440" />
    <path
       transform="matrix(.133 0 0 -.133 0 296)"
       d="m2502 1879h31.2"
       id="path441" />
    <path
       transform="matrix(.133 0 0 -.133 0 296)"
       d="m2502 1913h31.2"
       id="path442" />
    <path
       transform="matrix(.133 0 0 -.133 0 296)"
       d="m2502 1947h31.2"
       id="path443" />
    <path
       transform="matrix(.133 0 0 -.133 0 296)"
       d="m2470 1982h62.5"
       id="path444" />
    <path
       transform="matrix(.133 0 0 -.133 0 296)"
       d="m2470 1982h62.5"
       id="path445" />
    <path
       transform="matrix(.133 0 0 -.133 0 296)"
       d="m2502 2016h31.2"
       id="path446" />
    <path
       transform="matrix(.133 0 0 -.133 0 296)"
       d="m2502 2050h31.2"
       id="path447" />
  </g>
  <path
     transform="matrix(.133 0 0 -.133 0 296)"
     d="m1773 1960c-1.52 10.7-8.44 17-18.4 17-7.15 0-13.6-3.51-17.5-9.25-4.1-6.33-5.86-14.4-5.86-26.2 0-10.9 1.64-17.9 5.51-23.7 3.51-5.27 9.14-8.08 16.3-8.08 12.4 0 21.3 9.14 21.3 21.9 0 12.2-8.21 20.7-19.9 20.7-6.44 0-11.5-2.46-15-7.26 0.12 15.8 5.28 24.7 14.5 24.7 5.74 0 9.6-3.64 10.9-9.85zm-19.6-14.8c7.85 0 12.8-5.51 12.8-14.2 0-8.21-5.51-14.2-13-14.2s-13.2 6.21-13.2 14.6c0 8.08 5.51 13.7 13.5 13.7zm-535-2.93h32v7.61h-32v21.3h36.4v7.62h-44.9v-67h8.44zm94.1 16.9c-0.12 13.1-9.02 20.7-24.5 20.7-14.8 0-23.8-7.5-23.8-19.7 0-8.21 4.34-13.4 13.1-15.6l16.6-4.45c8.44-2.23 12.3-5.63 12.3-10.8 0-3.64-1.99-7.27-4.81-9.26-2.69-1.88-6.91-2.93-12.3-2.93-7.27 0-12.2 1.76-15.5 5.62-2.46 2.93-3.51 6.21-3.4 10.3h-8.08c0-6.22 1.29-10.2 3.86-13.8 4.69-6.33 12.3-9.61 22.5-9.61 8.09 0 14.5 1.87 18.9 5.15 4.57 3.52 7.38 9.5 7.38 15.4 0 8.2-5.15 14.3-14.3 16.8l-16.8 4.57c-8.09 2.23-11 4.69-11 9.85 0 6.79 5.98 11.4 15 11.4 10.7 0 16.5-4.92 16.6-13.6zm15.1-66.8c9.14 12 15 28.7 15 43.1 0 14.5-5.86 31.3-15 43.4h-5.04c8.09-13.2 12.5-28.6 12.5-43.4 0-14.5-4.45-30.1-12.5-43.1zm96.7 44h-19.1v19.1h-6.45v-19.1h-19v-6.45h19v-19h6.45v19h19.1zm46.9 3.87h21.1c5.15 0 9.37 1.64 12.9 4.8 4.1 3.63 5.86 7.97 5.86 14.2 0 12.5-7.5 19.7-20.8 19.7h-27.6v-67h8.55zm0 7.61v23.4h17.8c8.21 0 13.1-4.33 13.1-11.7 0-7.38-4.92-11.7-13.1-11.7zm80 12.2-13.2-37.5-12.4 37.5h-8.09l16.2-48.4-2.93-7.61c-1.17-3.4-2.93-4.69-6.09-4.69-1.17 0-2.46 0.23-4.1 0.58v-6.91c1.64-0.82 3.16-1.17 5.16-1.17 2.46 0 5.15 0.82 7.14 2.34 2.46 1.76 3.87 3.75 5.28 7.62l21.4 58.2zm33.6 0h-7.85v13.2h-7.61v-13.2h-6.57v-6.21h6.57v-36.4c0-4.93 3.28-7.62 9.25-7.62 1.88 0 3.64 0.23 6.21 0.58v6.45c-0.93-0.23-2.22-0.35-3.63-0.35-3.28 0-4.22 0.94-4.22 4.33v33h7.85zm8.68 18.9v-67h7.61v26.6c0 9.73 5.16 16.2 13 16.2 2.46 0 5.04-0.82 6.8-2.11 2.23-1.64 3.16-3.87 3.16-7.26v-33.4h7.62v36.3c0 8.08-5.74 13.2-15.1 13.2-6.79 0-11-2.11-15.5-8.09v25.6zm58.4-18.9h-7.62v-48.2h7.62zm0 18.9h-7.74v-9.73h7.74zm55.7-62.6c-0.82-0.12-1.17-0.12-1.64-0.12-2.58 0-4.1 1.41-4.1 3.75v28.2c0 8.55-6.21 13.2-18 13.2-7.03 0-12.8-2.11-16-5.63-2.23-2.46-3.05-5.27-3.29-10.1h7.74c0.58 5.86 4.1 8.56 11.2 8.56 6.91 0 10.8-2.58 10.8-7.15v-1.99c0-3.28-1.88-4.57-7.97-5.39-10.9-1.29-12.5-1.76-15.5-2.93-5.62-2.23-8.44-6.56-8.44-12.9 0-8.67 6.1-14.2 15.8-14.2 6.09 0 10.9 2.11 16.3 7.03 0.59-4.81 2.93-7.03 7.97-7.03 1.53 0 2.7 0.23 5.16 0.82zm-13.4 10.7c0-2.57-0.7-4.1-3.05-6.21-3.16-2.81-6.91-4.33-11.4-4.33-5.98 0-9.5 2.93-9.5 7.73 0 5.04 3.4 7.62 11.6 8.79 8.08 1.17 9.72 1.52 12.3 2.7zm-1012 13.2h21.1c5.16 0 9.37 1.64 12.9 4.8 4.1 3.63 5.86 7.97 5.86 14.2 0 12.5-7.5 19.7-20.7 19.7h-27.7v-67h8.56zm0 7.61v23.4h17.8c8.2 0 13.1-4.33 13.1-11.7 0-7.38-4.92-11.7-13.1-11.7zm80.1 32.1c-19.2 0-32.2-14.2-32.2-35.2 0-20.9 13-35 32.3-35 8.09 0 15.4 2.46 20.7 7.03 7.27 6.21 11.6 16.5 11.6 27.5 0 21.6-12.8 35.6-32.5 35.6zm0-7.5c14.5 0 23.9-11 23.9-28 0-16.2-9.73-27.2-23.8-27.2-14.3 0-23.8 11-23.8 27.5 0 16.6 9.49 27.6 23.7 27.6zm104-60.6 17 67h-9.49l-12.3-54.5-15.2 54.5h-9.26l-14.9-54.5-12.5 54.5h-9.61l17.2-67h9.38l15 55.1 15.4-55.1zm69 30.5v-30.5h8.56v67h-8.56v-29h-34.4v29h-8.56v-67h8.67v30.5zm32.5 0h36.6v7.61h-36.6v21.3h37.8v7.62h-46.3v-67h48v7.5h-39.6zm110 4.92h-27.9v-7.5h20.4v-1.88c0-12-8.91-20.6-21.1-20.6-6.8 0-13 2.46-16.9 6.8-4.45 4.8-7.15 12.8-7.15 21.1 0 16.4 9.38 27.3 23.6 27.3 10.2 0 17.6-5.27 19.4-13.9h8.67c-2.34 13.6-12.6 21.4-28 21.4-8.2 0-14.8-2.11-20-6.44-7.74-6.45-12.2-16.8-12.2-28.8 0-20.6 12.6-34.9 30.7-34.9 9.14 0 16.4 3.4 23 10.7l2.11-8.9h5.39zm53.5 31.6c-9.14-12.1-15-28.8-15-43.2 0-14.5 5.86-31.3 15-43.2h5.04c-8.09 13.1-12.5 28.6-12.5 43.2 0 14.6 4.45 30.1 12.5 43.2zm52.6-1.88h-33.6l-4.8-35.5h7.38c3.75 4.57 6.91 6.09 12 6.09 8.79 0 14.3-5.98 14.3-15.6 0-9.37-5.51-15.1-14.3-15.1-7.03 0-11.4 3.63-13.4 10.9h-8.08c1.17-5.27 2.11-7.85 3.98-10.2 3.75-5.04 10.3-7.85 17.7-7.85 13.1 0 22.3 9.61 22.3 23.3 0 12.9-8.55 21.7-21 21.7-4.69 0-8.33-1.17-12.1-3.99l2.57 18.3h27.1z"
     id="path449" />
  <path
     transform="matrix(.133 0 0 -.133 0 296)"
     d="m494 1939h144"
     fill="none"
     stroke="#039"
     stroke-miterlimit="10"
     stroke-width="6.8"
     id="path450" />
  <path
     transform="matrix(.133 0 0 -.133 0 296)"
     d="m1824 1823c6.68 4.1 8.9 7.38 8.9 13.6 0 10.2-8.08 17.4-19.6 17.4-11.5 0-19.6-7.15-19.6-17.4 0-6.09 2.11-9.37 8.79-13.6-7.5-3.52-11.1-8.91-11.1-16.2 0-11.8 9.02-20.2 21.9-20.2 12.8 0 21.8 8.32 21.8 20.2 0 7.26-3.63 12.6-11.1 16.2zm-10.7 23.8c6.8 0 11.2-4.1 11.2-10.4 0-6.1-4.45-10.1-11.2-10.1-6.79 0-11.4 3.98-11.4 10.2 0 6.22 4.57 10.3 11.4 10.3zm0-27.3c8.09 0 13.6-5.15 13.6-12.8 0-7.74-5.51-12.9-13.8-12.9-7.85 0-13.4 5.27-13.4 12.9s5.51 12.8 13.6 12.8zm-534-0.23h32v7.62h-32v21.3h36.4v7.62h-44.9v-67h8.44zm94.1 16.9c-0.11 13.1-9.02 20.8-24.5 20.8-14.8 0-23.8-7.5-23.8-19.7 0-8.21 4.34-13.4 13.1-15.6l16.6-4.45c8.44-2.23 12.3-5.63 12.3-10.8 0-3.64-1.99-7.27-4.8-9.26-2.7-1.88-6.92-2.93-12.3-2.93-7.26 0-12.2 1.76-15.5 5.62-2.46 2.93-3.51 6.22-3.39 10.3h-8.09c0-6.21 1.29-10.2 3.87-13.8 4.69-6.33 12.3-9.61 22.5-9.61 8.08 0 14.5 1.87 18.9 5.16 4.57 3.51 7.39 9.49 7.39 15.4 0 8.2-5.16 14.3-14.3 16.8l-16.8 4.57c-8.08 2.22-11 4.68-11 9.84 0 6.8 5.97 11.4 15 11.4 10.7 0 16.5-4.93 16.6-13.6zm15.1-66.8c9.14 12 15 28.7 15 43.1 0 14.5-5.86 31.3-15 43.4h-5.04c8.09-13.2 12.5-28.6 12.5-43.4 0-14.5-4.45-30.1-12.5-43.1zm96.6 43.9h-19.1v19.1h-6.44v-19.1h-19v-6.44h19v-19h6.44v19h19.1zm47 3.87h21.1c5.16 0 9.37 1.64 12.9 4.8 4.1 3.64 5.86 7.97 5.86 14.2 0 12.5-7.5 19.7-20.7 19.7h-27.7v-67h8.56zm0 7.62v23.4h17.8c8.2 0 13.1-4.33 13.1-11.7 0-7.38-4.92-11.7-13.1-11.7zm80 12.2-13.2-37.5-12.4 37.5h-8.08l16.2-48.4-2.93-7.61c-1.17-3.4-2.93-4.69-6.1-4.69-1.17 0-2.46 0.23-4.1 0.59v-6.92c1.64-0.82 3.17-1.17 5.16-1.17 2.46 0 5.16 0.82 7.15 2.34 2.46 1.76 3.86 3.75 5.27 7.62l21.4 58.2zm33.6 0h-7.85v13.2h-7.62v-13.2h-6.56v-6.21h6.56v-36.4c0-4.92 3.28-7.62 9.26-7.62 1.87 0 3.63 0.23 6.21 0.59v6.44c-0.94-0.23-2.23-0.35-3.63-0.35-3.28 0-4.22 0.94-4.22 4.34v33h7.85zm8.67 18.9v-67h7.62v26.6c0 9.73 5.15 16.2 13 16.2 2.46 0 5.04-0.82 6.79-2.11 2.23-1.64 3.17-3.86 3.17-7.26v-33.4h7.61v36.3c0 8.08-5.74 13.2-15.1 13.2-6.8 0-11-2.11-15.5-8.09v25.6zm58.5-18.9h-7.62v-48.2h7.62zm0 18.9h-7.74v-9.73h7.74zm55.7-62.6c-0.82-0.12-1.17-0.12-1.64-0.12-2.58 0-4.1 1.41-4.1 3.76v28.2c0 8.55-6.21 13.2-18 13.2-7.03 0-12.8-2.11-16-5.63-2.23-2.46-3.05-5.27-3.28-10.1h7.73c0.59 5.86 4.1 8.55 11.2 8.55 6.92 0 10.8-2.58 10.8-7.15v-1.99c0-3.28-1.87-4.57-7.97-5.39-10.9-1.29-12.5-1.76-15.5-2.93-5.63-2.23-8.44-6.56-8.44-12.9 0-8.67 6.09-14.2 15.8-14.2 6.09 0 10.9 2.11 16.3 7.03 0.58-4.8 2.93-7.03 7.97-7.03 1.52 0 2.69 0.23 5.15 0.82zm-13.4 10.7c0-2.58-0.7-4.11-3.04-6.21-3.17-2.82-6.92-4.34-11.4-4.34-5.98 0-9.49 2.93-9.49 7.73 0 5.04 3.39 7.62 11.6 8.79 8.08 1.17 9.72 1.53 12.3 2.7zm-1040-10.7c-0.82-0.12-1.17-0.12-1.64-0.12-2.58 0-4.1 1.41-4.1 3.76v28.2c0 8.55-6.21 13.2-18.1 13.2-7.03 0-12.8-2.11-16.1-5.63-2.23-2.46-3.05-5.27-3.28-10.1h7.73c0.59 5.86 4.1 8.55 11.2 8.55 6.92 0 10.8-2.58 10.8-7.15v-1.99c0-3.28-1.87-4.57-7.97-5.39-10.9-1.29-12.5-1.76-15.5-2.93-5.62-2.23-8.43-6.56-8.43-12.9 0-8.67 6.09-14.2 15.8-14.2 6.09 0 10.9 2.11 16.3 7.03 0.578-4.8 2.93-7.03 7.97-7.03 1.52 0 2.69 0.23 5.15 0.82zm-13.4 10.7c0-2.58-0.7-4.11-3.04-6.21-3.17-2.82-6.92-4.34-11.4-4.34-5.98 0-9.49 2.93-9.49 7.73 0 5.04 3.39 7.62 11.6 8.79 8.08 1.17 9.72 1.53 12.3 2.7zm58.3-15.1 18.9 56.1v-56.1h8.09v67h-12l-19.4-58.4-19.8 58.4h-11.8v-67h8.09v56.1l19-56.1zm94.3 46.2c-2.7 14.8-11.1 21.9-25.8 21.9-9.02 0-16.3-2.82-21.2-8.33-6.1-6.67-9.38-16.2-9.38-27.1 0-11 3.4-20.5 9.73-27 5.16-5.39 11.7-7.85 20.5-7.85 16.3 0 25.5 8.79 27.5 26.6h-8.79c-0.821-4.69-1.76-7.73-3.05-10.4-2.81-5.51-8.44-8.67-15.7-8.67-13.2 0-21.7 10.7-21.7 27.4 0 17.1 8.08 27.8 21 27.8 5.39 0 10.4-1.65 13.2-4.22 2.46-2.35 3.86-5.16 4.92-10.2zm66.6-0.12-1.99-6.09c-2.23 5.27-6.09 7.97-11.2 7.97-12.3 0-23.6-12.1-23.6-25.4 0-9.49 6.44-16.8 15-16.8 4.8 0 8.78 1.99 13 6.56 0.821-4.68 4.34-7.03 10.1-7.03 6.8 0 12.4 2.58 17.1 8.09 5.04 5.97 7.97 13.4 7.97 20.5 0 18.6-17.8 34.2-39.1 34.2-11 0-22.5-4.46-30.6-11.8-9.02-8.2-14.5-20.5-14.5-32.6 0-20.4 18.5-36.7 41.7-36.7 6.8 0 14.2 1.29 20.9 3.87l-2.58 6.09c-7.62-2.11-12.8-2.93-17.8-2.93-19.4 0-34.4 13.5-34.4 31.1 0 19.3 16.8 36 36.1 36 17.6 0 32.3-12.9 32.3-28.2 0-10.8-7.61-21.1-15.3-21.1-2.58 0-4.69 1.76-4.69 3.98 0 0.82 0.469 2.46 1.18 4.57l8.2 25.8zm-13.7-3.98c5.16 0 8.91-3.87 8.56-8.79-0.121-4.57-2.58-12.3-4.93-15.7-2.57-3.75-5.97-5.98-9.37-5.98-5.04 0-9.02 4.81-9.02 10.8 0 10.3 7.03 19.7 14.8 19.7zm105 25h-8.09v-54.8l-34.9 54.8h-9.26v-67h8.09v54.3l34.6-54.3h9.61zm23 0h-8.56v-67h41.6v7.5h-33zm70.8 1.06c-19.2 0-32.2-14.2-32.2-35.2 0-20.9 13-35 32.3-35 8.09 0 15.4 2.46 20.8 7.03 7.26 6.21 11.6 16.5 11.6 27.5 0 21.6-12.8 35.6-32.5 35.6zm0-7.5c14.5 0 23.9-11 23.9-28 0-16.2-9.72-27.2-23.8-27.2-14.3 0-23.8 11-23.8 27.5 0 16.6 9.5 27.7 23.7 27.7zm83 6.44c-9.15-12.1-15-28.8-15-43.2 0-14.5 5.85-31.3 15-43.2h5.03c-8.08 13.1-12.5 28.6-12.5 43.2s4.45 30.1 12.5 43.2zm38.9-51.4v-15.6h8.09v15.6h9.72v7.26h-9.72v42.3h-5.98l-29.5-41v-8.55zm0 7.26h-20.4l20.4 28.5z"
     id="path451" />
  <path
     transform="matrix(.133 0 0 -.133 0 296)"
     d="m494 1814h144"
     fill="none"
     stroke="#666"
     stroke-dasharray="13.6071, 13.6071"
     stroke-miterlimit="10"
     stroke-width="11.3"
     id="path452" />
  <path
     transform="matrix(.133 0 0 -.133 0 296)"
     d="m1518 1711c-1.52 10.7-8.44 17-18.4 17-7.15 0-13.6-3.52-17.5-9.26-4.1-6.33-5.86-14.4-5.86-26.2 0-10.9 1.64-17.9 5.51-23.7 3.51-5.28 9.14-8.09 16.3-8.09 12.4 0 21.3 9.14 21.3 21.9 0 12.2-8.21 20.8-19.9 20.8-6.44 0-11.5-2.46-15-7.27 0.12 15.8 5.28 24.7 14.5 24.7 5.75 0 9.61-3.63 10.9-9.85zm-19.6-14.8c7.85 0 12.8-5.51 12.8-14.2 0-8.2-5.51-14.2-13-14.2s-13.2 6.21-13.2 14.6c0 8.08 5.51 13.7 13.5 13.7zm-772 12.8c-2.69 14.8-11.1 21.9-25.8 21.9-9.02 0-16.3-2.82-21.2-8.32-6.1-6.68-9.38-16.2-9.38-27.1 0-11 3.4-20.5 9.73-27 5.16-5.39 11.7-7.85 20.5-7.85 16.3 0 25.5 8.79 27.5 26.6h-8.79c-0.821-4.69-1.76-7.73-3.05-10.4-2.81-5.51-8.44-8.67-15.7-8.67-13.2 0-21.7 10.7-21.7 27.4 0 17.1 8.08 27.8 21 27.8 5.4 0 10.4-1.64 13.2-4.22 2.46-2.35 3.86-5.16 4.92-10.2zm30.4 3.4c-13.5 0-21.7-9.73-21.7-25.9s8.09-25.8 21.8-25.8c13.5 0 21.8 9.61 21.8 25.4 0 16.6-7.96 26.2-21.9 26.2zm0.121-7.15c8.67 0 13.8-7.03 13.8-19 0-11.4-5.4-18.5-13.8-18.5-8.56 0-13.8 7.15-13.8 18.8s5.27 18.8 13.8 18.8zm32.4 5.74v-48.2h7.73v30.2c0 7.04 5.04 12.5 11.2 12.5 5.75 0 8.91-3.39 8.91-9.61v-33.2h7.73v30.2c0 7.04 5.04 12.5 11.4 12.5 5.51 0 8.91-3.51 8.91-9.61v-33.2h7.61v36.1c0 8.68-4.92 13.5-13.9 13.5-6.45 0-10.3-1.99-14.8-7.38-2.81 5.15-6.68 7.38-13 7.38-6.33 0-10.6-2.46-14.8-8.2v6.79zm75-68.2h7.73v25.1c4.11-4.92 8.56-7.15 14.8-7.15 12.4 0 20.6 9.96 20.6 25.3 0 16.2-7.85 26.4-20.6 26.4-6.56 0-11.8-3.05-15.3-8.67v7.26h-7.15zm21.2 62.3c8.44 0 14-7.38 14-18.9 0-10.9-5.63-18.4-14-18.4-8.09 0-13.5 7.38-13.5 18.6 0 11.4 5.39 18.6 13.5 18.6zm75.6-11.8v-30.5h8.55v67h-8.55v-28.9h-34.5v28.9h-8.55v-67h8.67v30.5zm32.5 0h36.6v7.62h-36.6v21.3h37.9v7.62h-46.3v-67h48v7.5h-39.6zm61.4-2.11h21.1c5.16 0 9.37 1.64 12.9 4.8 4.1 3.64 5.86 7.97 5.86 14.2 0 12.5-7.5 19.7-20.7 19.7h-27.7v-67h8.56zm0 7.62v23.4h17.8c8.2 0 13.1-4.33 13.1-11.7 0-7.39-4.92-11.7-13.1-11.7zm119-11.5h-19.1v19.1h-6.45v-19.1h-19v-6.44h19v-19h6.45v19h19.1zm47 3.87h21.1c5.15 0 9.37 1.64 12.9 4.8 4.1 3.64 5.86 7.97 5.86 14.2 0 12.5-7.5 19.7-20.8 19.7h-27.6v-67h8.55zm0 7.62v23.4h17.8c8.2 0 13.1-4.33 13.1-11.7 0-7.39-4.92-11.7-13.1-11.7zm80 12.2-13.2-37.5-12.4 37.5h-8.09l16.2-48.4-2.93-7.62c-1.17-3.4-2.92-4.69-6.09-4.69-1.17 0-2.46 0.24-4.1 0.59v-6.92c1.64-0.82 3.16-1.17 5.16-1.17 2.46 0 5.15 0.82 7.14 2.34 2.47 1.76 3.87 3.75 5.28 7.62l21.4 58.2zm33.6 0h-7.85v13.2h-7.62v-13.2h-6.56v-6.21h6.56v-36.4c0-4.92 3.28-7.62 9.26-7.62 1.87 0 3.63 0.23 6.21 0.59v6.44c-0.94-0.23-2.23-0.35-3.64-0.35-3.28 0-4.21 0.94-4.21 4.34v33h7.85zm8.67 18.9v-67h7.62v26.6c0 9.73 5.15 16.2 13 16.2 2.46 0 5.04-0.82 6.8-2.11 2.23-1.64 3.16-3.86 3.16-7.26v-33.4h7.62v36.3c0 8.08-5.74 13.2-15.1 13.2-6.79 0-11-2.11-15.5-8.09v25.6zm58.4-18.9h-7.62v-48.2h7.62zm0 18.9h-7.74v-9.73h7.74zm55.7-62.6c-0.82-0.11-1.17-0.11-1.64-0.11-2.58 0-4.1 1.4-4.1 3.75v28.2c0 8.55-6.21 13.2-18 13.2-7.03 0-12.8-2.11-16-5.62-2.23-2.47-3.05-5.28-3.28-10.1h7.73c0.59 5.86 4.1 8.55 11.2 8.55 6.91 0 10.8-2.58 10.8-7.15v-1.99c0-3.28-1.87-4.57-7.97-5.39-10.9-1.29-12.5-1.76-15.5-2.93-5.62-2.23-8.43-6.56-8.43-12.9 0-8.67 6.09-14.2 15.8-14.2 6.09 0 10.9 2.11 16.3 7.03 0.58-4.8 2.92-7.03 7.96-7.03 1.53 0 2.7 0.23 5.16 0.82zm-13.4 10.7c0-2.58-0.7-4.1-3.05-6.21-3.16-2.82-6.91-4.34-11.4-4.34-5.98 0-9.5 2.93-9.5 7.73 0 5.04 3.4 7.62 11.6 8.79 8.08 1.18 9.72 1.53 12.3 2.7z"
     id="path453" />
  <path
     transform="matrix(.133 0 0 -.133 0 296)"
     d="m494 1690h144"
     fill="none"
     stroke="#f63"
     stroke-miterlimit="10"
     stroke-width="4.54"
     id="path454" />
  <g
     id="g457">
    <path
       transform="matrix(.133 0 0 -.133 0 296)"
       d="m717 1606v-47.1c0-9.02-6.56-14.5-17.3-14.5-4.92 0-8.91 1.17-12.2 3.52-3.28 2.58-4.8 5.97-4.8 11v47.1h-8.56v-47.1c0-13.6 9.73-22 25.5-22 15.7 0 25.9 8.67 25.9 22v47.1zm22-18.9v-48.2h7.74v26.6c0 9.73 5.16 16.2 13 16.2 6.09 0 9.96-3.64 9.96-9.38v-33.4h7.62v36.3c0 8.09-5.98 13.2-15.2 13.2-7.15 0-11.8-2.81-16.1-9.49v8.09zm68.3 0h-7.97v7.5c0 3.28 1.87 4.92 5.39 4.92 0.578 0 0.816 0 2.58-0.12v6.33c-1.76 0.35-2.7 0.47-4.34 0.47-7.03 0-11.2-4.1-11.2-10.9v-8.2h-6.45v-6.22h6.45v-42h7.62v42h7.97zm26.8 1.4c-13.5 0-21.7-9.72-21.7-25.9 0-16.2 8.09-25.8 21.8-25.8 13.5 0 21.8 9.61 21.8 25.4 0 16.6-7.97 26.2-21.9 26.2zm0.117-7.15c8.67 0 13.8-7.03 13.8-19 0-11.4-5.39-18.5-13.8-18.5-8.56 0-13.8 7.15-13.8 18.8 0 11.6 5.27 18.8 13.8 18.8zm39.9 24.6h-7.73v-67h7.73zm51.9 0h-7.61v-25c-3.17 4.92-8.32 7.5-14.8 7.5-12.5 0-20.7-10.1-20.7-25.4 0-16.3 8.09-26.2 21-26.2 6.68 0 11.2 2.46 15.3 8.44v-6.33h6.79zm-21.1-24.7c8.2 0 13.5-7.27 13.5-18.8 0-11.1-5.28-18.5-13.4-18.5-8.56 0-14.1 7.5-14.1 18.6 0 11.2 5.5 18.6 13.9 18.6zm73.8-20.9c0 7.38-0.59 11.8-1.87 15.4-3.17 7.97-10.6 12.8-19.5 12.8-13.5 0-22.1-10.3-22.1-26.1s8.44-25.6 21.9-25.6c11 0 18.6 6.21 20.6 16.8h-7.73c-2.11-6.33-6.45-9.73-12.7-9.73-4.8 0-9.02 2.23-11.5 6.33-1.88 2.7-2.58 5.51-2.58 10.2zm-35.3 6.33c0.699 8.9 6.09 14.6 13.8 14.6 7.5 0 13.2-6.21 13.2-14.2v-0.46zm84.7 39.2h-7.61v-25c-3.17 4.92-8.32 7.5-14.8 7.5-12.5 0-20.7-10.1-20.7-25.4 0-16.3 8.09-26.2 21-26.2 6.68 0 11.2 2.46 15.4 8.44v-6.33h6.79zm-21.1-24.7c8.2 0 13.5-7.27 13.5-18.8 0-11.1-5.28-18.5-13.4-18.5-8.56 0-14.1 7.5-14.1 18.6 0 11.2 5.5 18.6 13.9 18.6zm97.7 24.7h-7.62v-25c-3.17 4.92-8.32 7.5-14.8 7.5-12.5 0-20.7-10.1-20.7-25.4 0-16.3 8.09-26.2 21-26.2 6.68 0 11.2 2.46 15.4 8.44v-6.33h6.8zm-21.1-24.7c8.21 0 13.5-7.27 13.5-18.8 0-11.1-5.27-18.5-13.4-18.5-8.56 0-14.1 7.5-14.1 18.6 0 11.2 5.5 18.6 13.9 18.6zm75.8-37.9c-0.82-0.11-1.17-0.11-1.64-0.11-2.58 0-4.1 1.4-4.1 3.75v28.2c0 8.55-6.21 13.2-18 13.2-7.03 0-12.8-2.11-16-5.62-2.23-2.46-3.05-5.28-3.28-10.1h7.73c0.59 5.86 4.1 8.55 11.2 8.55 6.92 0 10.8-2.57 10.8-7.14v-2c0-3.28-1.87-4.57-7.97-5.39-10.9-1.29-12.5-1.76-15.5-2.93-5.63-2.22-8.44-6.56-8.44-12.9 0-8.67 6.09-14.2 15.8-14.2 6.09 0 10.9 2.11 16.3 7.03 0.58-4.8 2.93-7.03 7.97-7.03 1.52 0 2.69 0.24 5.15 0.82zm-13.4 10.7c0-2.58-0.7-4.1-3.04-6.21-3.17-2.81-6.92-4.34-11.4-4.34-5.98 0-9.49 2.93-9.49 7.74 0 5.04 3.4 7.61 11.6 8.79 8.08 1.17 9.72 1.52 12.3 2.69zm38.6 33h-7.85v13.2h-7.62v-13.2h-6.56v-6.22h6.56v-36.4c0-4.92 3.28-7.62 9.26-7.62 1.87 0 3.63 0.24 6.21 0.59v6.44c-0.94-0.23-2.23-0.35-3.64-0.35-3.28 0-4.21 0.94-4.21 4.34v33h7.85zm51.3-43.7c-0.82-0.11-1.17-0.11-1.64-0.11-2.57 0-4.1 1.4-4.1 3.75v28.2c0 8.55-6.21 13.2-18 13.2-7.04 0-12.8-2.11-16.1-5.62-2.23-2.46-3.05-5.28-3.28-10.1h7.73c0.59 5.86 4.11 8.55 11.2 8.55 6.92 0 10.8-2.57 10.8-7.14v-2c0-3.28-1.88-4.57-7.97-5.39-10.9-1.29-12.5-1.76-15.5-2.93-5.63-2.22-8.44-6.56-8.44-12.9 0-8.67 6.09-14.2 15.8-14.2 6.09 0 10.9 2.11 16.3 7.03 0.59-4.8 2.93-7.03 7.97-7.03 1.52 0 2.69 0.24 5.15 0.82zm-13.4 10.7c0-2.58-0.71-4.1-3.05-6.21-3.17-2.81-6.92-4.34-11.4-4.34-5.97 0-9.49 2.93-9.49 7.74 0 5.04 3.4 7.61 11.6 8.79 8.09 1.17 9.73 1.52 12.3 2.69z"
       id="path455" />
    <path
       transform="matrix(.133 0 0 -.133 0 296)"
       d="m550 1566c0 21.4 32.2 21.4 32.2 0 0-21.4-32.2-21.4-32.2 0"
       id="path456" />
    <path
       transform="matrix(.133 0 0 -.133 0 296)"
       d="m803 1457c-0.121 11.5-7.97 18.2-21.4 18.2-12.9 0-20.9-6.56-20.9-17.1 0-7.26 3.75-11.7 11.5-13.7l14.5-3.86c7.38-1.88 10.8-4.93 10.8-9.5 0-3.16-1.64-6.32-4.1-8.08-2.35-1.64-6.1-2.58-10.8-2.58-6.45 0-10.8 1.64-13.6 4.92-2.11 2.58-3.05 5.39-3.05 9.03h-7.03c0.121-5.39 1.18-8.91 3.4-12.1 4.1-5.51 10.8-8.44 19.7-8.44 7.03 0 12.8 1.64 16.5 4.57 3.99 3.05 6.45 8.32 6.45 13.4 0 7.26-4.46 12.5-12.4 14.8l-14.8 3.87c-7.03 1.99-9.61 4.22-9.61 8.67 0 5.98 5.16 9.96 13.1 9.96 9.25 0 14.5-4.33 14.5-12zm26.1 0.7h-6.91v11.6h-6.68v-11.6h-5.63v-5.39h5.63v-31.9c0-4.22 2.93-6.68 8.2-6.68 1.52 0 3.16 0.23 5.39 0.58v5.63c-0.821-0.24-1.88-0.35-3.16-0.35-2.93 0-3.75 0.82-3.75 3.86v28.8h6.91zm44.9-38.1c-0.704-0.24-1.05-0.24-1.4-0.24-2.35 0-3.64 1.29-3.64 3.28v24.8c0 7.38-5.51 11.5-15.8 11.5-6.09 0-11.2-1.76-14.1-4.92-1.88-2.23-2.7-4.57-2.81-8.79h6.68c0.578 5.16 3.63 7.5 9.96 7.5 5.97 0 9.37-2.23 9.37-6.33v-1.75c0-2.82-1.76-3.99-7.03-4.57-9.49-1.29-10.9-1.53-13.5-2.58-4.93-2.11-7.39-5.86-7.39-11.2 0-7.74 5.28-12.5 13.8-12.5 5.27 0 9.49 1.87 14.3 6.21 0.469-4.22 2.58-6.21 6.91-6.21 1.41 0 2.35 0.23 4.57 0.7zm-11.7 9.26c0-2.23-0.699-3.64-2.69-5.4-2.7-2.57-5.98-3.86-9.96-3.86-5.16 0-8.32 2.58-8.32 6.79 0 4.46 3.04 6.68 10.2 7.74 7.03 0.94 8.56 1.29 10.8 2.34zm33.8 28.8h-6.91v11.6h-6.68v-11.6h-5.63v-5.39h5.63v-31.9c0-4.22 2.93-6.68 8.2-6.68 1.52 0 3.17 0.23 5.39 0.58v5.63c-0.82-0.24-1.87-0.35-3.16-0.35-2.93 0-3.75 0.82-3.75 3.86v28.8h6.91zm17.3-33.8h-8.32v-8.32h8.32zm169 43.7h19.2v6.57h-46.1v-6.57h19.3v-52h7.5zm42.5-8.67c-11.8 0-19-8.44-19-22.6 0-14.2 7.03-22.6 19-22.6 11.8 0 19.1 8.44 19.1 22.3 0 14.5-7.03 23-19.1 23zm0-6.21c7.61 0 12.1-6.21 12.1-16.6 0-9.84-4.69-16.2-12.1-16.2-7.5 0-12.1 6.21-12.1 16.4 0 10.1 4.57 16.4 12.1 16.4zm43.2 4.92h-6.91v11.6h-6.68v-11.6h-5.63v-5.39h5.63v-31.9c0-4.22 2.93-6.68 8.2-6.68 1.52 0 3.17 0.23 5.39 0.58v5.63c-0.82-0.24-1.87-0.35-3.16-0.35-2.93 0-3.75 0.82-3.75 3.86v28.8h6.91zm45-38.1c-0.7-0.24-1.05-0.24-1.4-0.24-2.35 0-3.64 1.29-3.64 3.28v24.8c0 7.38-5.5 11.5-15.8 11.5-6.09 0-11.2-1.76-14.1-4.92-1.87-2.23-2.69-4.57-2.81-8.79h6.68c0.58 5.16 3.63 7.5 9.96 7.5 5.98 0 9.37-2.23 9.37-6.33v-1.75c0-2.82-1.75-3.99-7.03-4.57-9.49-1.29-10.9-1.53-13.5-2.58-4.93-2.11-7.39-5.86-7.39-11.2 0-7.74 5.28-12.5 13.8-12.5 5.27 0 9.49 1.87 14.3 6.21 0.47-4.22 2.58-6.21 6.91-6.21 1.41 0 2.35 0.23 4.57 0.7zm-11.7 9.26c0-2.23-0.7-3.64-2.69-5.4-2.7-2.57-5.98-3.86-9.96-3.86-5.16 0-8.32 2.58-8.32 6.79 0 4.46 3.04 6.68 10.2 7.74 7.03 0.94 8.56 1.29 10.8 2.34zm25.6 45.4h-6.68v-58.6h6.68z"
       id="path457" />
  </g>
  <g
     fill="none"
     stroke="#000"
     stroke-miterlimit="10"
     id="g461">
    <path
       transform="matrix(.133 0 0 -.133 0 296)"
       d="m667 1400h48.9"
       stroke-width="9.07"
       id="path458" />
    <path
       transform="matrix(.133 0 0 -.133 0 296)"
       d="m667 1486h48.9"
       stroke-width="9.07"
       id="path459" />
    <path
       transform="matrix(.133 0 0 -.133 0 296)"
       d="m691 1486v-85.5"
       stroke-width="4.54"
       id="path460" />
    <path
       transform="matrix(.133 0 0 -.133 0 296)"
       d="m1017 1486v-85.5"
       stroke-width="4.54"
       id="path461" />
  </g>
</svg>
