<svg viewBox="0 0 378 345" xmlns="http://www.w3.org/2000/svg"><defs><clipPath id="a"><path d="M673-609h877V407H673z"/></clipPath><clipPath id="b"><path transform="matrix(1 0 0 -1 -179 3.7)" d="M0 0h295v267H0z"/></clipPath><clipPath id="c"><path transform="matrix(1 0 0 -1 -44.8 20)" d="M0 0h295v267H0z"/></clipPath><clipPath id="d"><path transform="matrix(1 0 0 -1 -38.5 20)" d="M0 0h295v267H0z"/></clipPath><clipPath id="e"><path transform="matrix(1 0 0 -1 -98.5 20)" d="M0 0h295v267H0z"/></clipPath><clipPath id="f"><path transform="matrix(1 0 0 -1 -92.2 20)" d="M0 0h295v267H0z"/></clipPath><clipPath id="g"><path transform="matrix(1 0 0 -1 -160 20)" d="M0 0h295v267H0z"/></clipPath><clipPath id="h"><path transform="matrix(1 0 0 -1 -215 20)" d="M0 0h295v267H0z"/></clipPath><clipPath id="i"><path transform="matrix(1 0 0 -1 -281 20)" d="M0 0h295v267H0z"/></clipPath><clipPath id="j"><path transform="matrix(0 1 1 0 -40 -11.5)" d="M0 0h295v267H0z"/></clipPath><clipPath id="k"><path transform="matrix(1 0 0 -1 -25.6 27.8)" d="M0 0h295v267H0z"/></clipPath><clipPath id="l"><path transform="matrix(1 0 0 -1 -25.6 43.3)" d="M0 0h295v267H0z"/></clipPath><clipPath id="m"><path transform="matrix(1 0 0 -1 -37.4 58.5)" d="M0 0h295v267H0z"/></clipPath><clipPath id="n"><path transform="matrix(1 0 0 -1 -25.6 74.1)" d="M0 0h295v267H0z"/></clipPath><clipPath id="o"><path transform="matrix(0 1 1 0 -176 -11.1)" d="M0 0h295v267H0z"/></clipPath><clipPath id="p"><path transform="matrix(1 0 0 -1 -35.6 89.3)" d="M0 0h295v267H0z"/></clipPath><clipPath id="q"><path transform="matrix(1 0 0 -1 -22.6 114)" d="M0 0h295v267H0z"/></clipPath><clipPath id="r"><path transform="matrix(1 0 0 -1 -15.9 138)" d="M0 0h295v267H0z"/></clipPath><clipPath id="s"><path transform="matrix(1 0 0 -1 -15.9 162)" d="M0 0h295v267H0z"/></clipPath><clipPath id="t"><path transform="matrix(1 0 0 -1 -15.9 186)" d="M0 0h295v267H0z"/></clipPath><clipPath id="u"><path transform="matrix(1 0 0 -1 -15.9 211)" d="M0 0h295v267H0z"/></clipPath><clipPath id="v"><path transform="matrix(1 0 0 -1 -15.9 235)" d="M0 0h295v267H0z"/></clipPath><clipPath id="w"><path transform="matrix(1 0 0 -1 -44.1 251)" d="M0 0h295v267H0z"/></clipPath><clipPath id="x"><path transform="matrix(1 0 0 -1 -72.2 251)" d="M0 0h295v267H0z"/></clipPath><clipPath id="y"><path transform="matrix(1 0 0 -1 -88.9 230)" d="M0 0h295v267H0z"/></clipPath><clipPath id="z"><path transform="matrix(1 0 0 -1 -60.7 230)" d="M0 0h295v267H0z"/></clipPath><clipPath id="A"><path transform="matrix(1 0 0 -1 -53 230)" d="M0 0h295v267H0z"/></clipPath><clipPath id="B"><path transform="matrix(1 0 0 -1 -107 215)" d="M0 0h295v267H0z"/></clipPath><clipPath id="C"><path transform="matrix(1 0 0 -1 -94.1 215)" d="M0 0h295v267H0z"/></clipPath><clipPath id="D"><path transform="matrix(1 0 0 -1 -85.6 215)" d="M0 0h295v267H0z"/></clipPath><clipPath id="E"><path transform="matrix(1 0 0 -1 -66.7 215)" d="M0 0h295v267H0z"/></clipPath><clipPath id="F"><path transform="matrix(1 0 0 -1 -62.2 213)" d="M0 0h295v267H0z"/></clipPath><clipPath id="G"><path transform="matrix(1 0 0 -1 -53 215)" d="M0 0h295v267H0z"/></clipPath><clipPath id="H"><path transform="matrix(1 0 0 -1 -257 251)" d="M0 0h295v267H0z"/></clipPath><clipPath id="I"><path transform="matrix(1 0 0 -1 -238 251)" d="M0 0h295v267H0z"/></clipPath><clipPath id="J"><path transform="matrix(1 0 0 -1 -229 256)" d="M0 0h295v267H0z"/></clipPath><clipPath id="K"><path transform="matrix(1 0 0 -1 -219 251)" d="M0 0h295v267H0z"/></clipPath><clipPath id="L"><path transform="matrix(1 0 0 -1 -200 251)" d="M0 0h295v267H0z"/></clipPath><clipPath id="M"><path transform="matrix(1 0 0 -1 -226 230)" d="M0 0h295v267H0z"/></clipPath><clipPath id="N"><path transform="matrix(1 0 0 -1 -230 215)" d="M0 0h295v267H0z"/></clipPath><clipPath id="O"><path transform="matrix(1 0 0 -1 -226 215)" d="M0 0h295v267H0z"/></clipPath><clipPath id="P"><path transform="matrix(1 0 0 -1 -232 200)" d="M0 0h295v267H0z"/></clipPath><clipPath id="Q"><path transform="matrix(1 0 0 -1 -229 205)" d="M0 0h295v267H0z"/></clipPath><clipPath id="R"><path transform="matrix(1 0 0 -1 -226 200)" d="M0 0h295v267H0z"/></clipPath><clipPath id="S"><path transform="matrix(1 0 0 -1 -226 185)" d="M0 0h295v267H0z"/></clipPath><clipPath id="T"><path transform="matrix(1 0 0 -1 -226 170)" d="M0 0h295v267H0z"/></clipPath><clipPath id="U"><path transform="matrix(1 0 0 -1 -226 156)" d="M0 0h295v267H0z"/></clipPath></defs><g transform="translate(-675 602)" clip-path="url(#a)"><g fill="none" stroke="#000" stroke-miterlimit="10" stroke-width=".5"><path d="M731.786-295.693h317.87v-81.795h-317.87z" stroke-width=".665"/><path d="M731.786-295.693h317.87v-81.795h-317.87z" stroke-width=".665"/><path d="M731.786-295.693h317.87v-81.795h-317.87z" stroke-width=".665"/><path d="M731.786-295.693h317.87v-81.795h-317.87zM731.786-295.693h317.87" stroke-width=".665"/></g><path transform="matrix(1.33 0 0 1.33 912 -258)" d="M4.74-5.67q.843 0 1.31-.234.736-.368.736-1.32 0-.964-.783-1.3-.442-.187-1.31-.187h-2.38v3.04zm.448 4.54q1.22 0 1.75-.709.328-.448.328-1.08 0-1.07-.957-1.46-.509-.207-1.34-.207h-2.64v3.46zm-4.18-8.69h4.22q1.73 0 2.46 1.03.428.609.428 1.41 0 .93-.529 1.53-.274.314-.79.575.756.288 1.13.649.662.642.662 1.77 0 .95-.596 1.72-.89 1.15-2.83 1.15h-4.16zm12.9 8.69q.676 0 1.11-.141.776-.261 1.27-1 .395-.596.569-1.53.1-.555.1-1.03 0-1.83-.729-2.84-.723-1.01-2.34-1.01h-2.36v7.55zm-3.71-8.69h3.98q2.03 0 3.14 1.44.997 1.3.997 3.33 0 1.57-.589 2.83-1.04 2.23-3.57 2.23h-3.97zm17 0v1.17h-3.31V.01h-1.35v-8.66h-3.31v-1.17zm5.63 6.33q0 1.15.488 1.93.488.776 1.57.776.836 0 1.37-.716.542-.723.542-2.07 0-1.36-.555-2.01-.555-.656-1.37-.656-.91 0-1.48.696-.562.696-.562 2.05zm1.81-3.79q.823 0 1.38.348.321.201.729.703v-3.62h1.16v9.86h-1.08v-.997q-.422.662-.997.957-.575.294-1.32.294-1.2 0-2.07-1-.877-1.01-.877-2.68 0-1.57.796-2.71.803-1.15 2.29-1.15zm5.04.161h1.22v7.13h-1.22zm0-2.7h1.22v1.36h-1.22zm3.76 7.58q.053.602.301.923.455.582 1.58.582.669 0 1.18-.288.509-.294.509-.903 0-.462-.408-.703-.261-.147-1.03-.341l-.957-.241q-.917-.227-1.35-.509-.776-.488-.776-1.35 0-1.02.729-1.65.736-.629 1.97-.629 1.62 0 2.34.95.448.602.435 1.3h-1.14q-.034-.408-.288-.743-.415-.475-1.44-.475-.682 0-1.04.261-.348.261-.348.689 0 .468.462.749.268.167.79.294l.796.194q1.3.314 1.74.609.703.462.703 1.45 0 .957-.729 1.65-.723.696-2.21.696-1.6 0-2.27-.723-.662-.729-.709-1.8zm8.9-5.124q1.21 0 1.97.59.763.588.917 2.03h-1.17q-.107-.663-.488-1.1-.381-.443-1.22-.443-1.15 0-1.65 1.12-.321.73-.321 1.8 0 1.08.455 1.81.455.736 1.43.736.749 0 1.18-.455.442-.462.609-1.26h1.17q-.201 1.43-1 2.09-.803.656-2.05.656-1.41 0-2.24-1.02-.836-1.03-.836-2.57 0-1.89.917-2.94t2.34-1.05zM56.461-7.155h1.14v1.24q.141-.361.689-.877.549-.522 1.26-.522.034 0 .114.007.08.006.274.026v1.27q-.107-.02-.201-.026-.087-.007-.194-.007-.91 0-1.4.589-.488.582-.488 1.34v4.12h-1.2zm4.53.034h1.22v7.13h-1.22zm0-2.7h1.22v1.36h-1.22zm3.04 2.66h1.19v1.02q.428-.53.776-.77.596-.408 1.35-.408.856 0 1.38.422.294.241.535.71.401-.576.943-.85.542-.282 1.22-.282 1.45 0 1.97 1.04.281.562.281 1.51v4.77h-1.25v-4.98q0-.716-.361-.984-.355-.268-.87-.268-.709 0-1.22.475-.509.475-.509 1.59v4.17h-1.22v-4.68q0-.729-.174-1.06-.274-.502-1.02-.502-.682 0-1.24.53-.555.528-.555 1.91v3.8h-1.2zm11.4.033h1.22v7.13h-1.22zm0-2.7h1.22v1.36h-1.22zm3.04 2.66h1.14v1.02q.509-.629 1.08-.903.569-.274 1.26-.274 1.53 0 2.06 1.06.294.582.294 1.67v4.6h-1.22v-4.52q0-.656-.194-1.06-.321-.669-1.16-.669-.428 0-.703.087-.495.147-.87.589-.301.355-.395.736-.087.375-.087 1.08v3.75h-1.2zM87.011-1.912q0 .522.381.823.381.301.903.301.636 0 1.23-.294 1-.488 1-1.6v-.97q-.221.141-.569.234-.348.094-.682.134l-.729.094q-.656.087-.984.274-.555.314-.555 1zm2.92-2.44q.415-.053.555-.348.08-.161.08-.462 0-.616-.442-.89-.435-.281-1.25-.281-.943 0-1.34.509-.22.281-.288.836h-1.12q.034-1.32.856-1.84.83-.522 1.92-.522 1.26 0 2.05.482.783.482.783 1.5v4.13q0 .187.074.301.08.114.328.114.08 0 .18-.007.1-.013.215-.033v.89q-.281.08-.428.1-.147.02-.401.02-.622 0-.903-.442-.147-.234-.207-.662-.368.482-1.06.836t-1.52.355q-.997 0-1.63-.602-.63-.61-.63-1.52 0-.997.623-1.55.622-.55 1.63-.676zM93.714-7.178h1.14v1.02q.509-.629 1.08-.903.569-.274 1.26-.274 1.53 0 2.06 1.06.294.582.294 1.67v4.6h-1.22v-4.52q0-.656-.194-1.06-.321-.669-1.16-.669-.428 0-.703.087-.495.147-.87.589-.301.355-.395.736-.087.375-.087 1.08v3.75h-1.2zm7.86-2.004h1.22v2h1.14v.984h-1.14v4.68q0 .375.254.502.141.074.468.074h.187q.1-.007.234-.02v.95q-.207.06-.435.086-.221.027-.482.027-.843 0-1.14-.428-.301-.435-.301-1.12v-4.74h-.97v-.984h.97z" clip-path="url(#b)" aria-label="BDT discriminant"/><g fill="none" stroke="#000" stroke-miterlimit="10" stroke-width=".5"><path d="M731.786-304.604v8.884M739.766-300.082v4.442M747.746-300.082v4.442M755.593-300.082v4.442M763.573-300.082v4.442M771.553-300.082v4.442M779.4-300.082v4.442M787.38-300.082v4.442M795.36-300.082v4.442M803.207-300.082v4.442M811.32-304.604v8.884M819.3-300.082v4.442M827.28-300.082v4.442M835.26-300.082v4.442M843.24-300.082v4.442M851.22-300.082v4.442M859.2-300.082v4.442M867.18-300.082v4.442M875.16-300.082v4.442M883.14-300.082v4.442M891.12-304.604v8.884M899.1-300.082v4.442M907.08-300.082v4.442M915.06-300.082v4.442M921.71-300.082v4.442M929.69-300.082v4.442M937.67-300.082v4.442M945.65-300.082v4.442M953.63-300.082v4.442M961.61-300.082v4.442M969.59-304.604v8.884M977.57-300.082v4.442M985.55-300.082v4.442M993.53-300.082v4.442M1001.51-300.082v4.442M1009.49-300.082v4.442M1017.47-300.082v4.442M1025.45-300.082v4.442M1033.43-300.082v4.442M1041.41-300.082v4.442M1049.39-304.604v8.884" stroke-width=".665"/></g><path transform="matrix(1.33 0 0 1.33 733 -280)" d="M1.13-5.87v-.799q1.13-.11 1.57-.365.446-.26.665-1.22h.822v8.25h-1.11v-5.87z" clip-path="url(#c)" aria-label="1"/><path transform="matrix(1.33 0 0 1.33 725 -280)" d="M.211-3.33h6.07v.574H.211z" clip-path="url(#d)" aria-label="−"/><path transform="matrix(1.33 0 0 1.33 805 -280)" d="M3.21-8.29q1.61 0 2.33 1.33.556 1.02.556 2.81 0 1.69-.503 2.8Q4.864.24 3.213.24q-1.49 0-2.22-1.3-.608-1.08-.608-2.9 0-1.41.365-2.42.683-1.89 2.47-1.89zM3.198-.73q.81 0 1.29-.718t.48-2.67q0-1.41-.347-2.32-.347-.914-1.35-.914-.92 0-1.35.868-.422.862-.422 2.55 0 1.27.272 2.04.417 1.17 1.42 1.17zm4.41-.538h1.21v1.26h-1.21zm3.75-.851q.104.891.828 1.23.37.174.856.174.926 0 1.37-.59.446-.59.446-1.31 0-.868-.532-1.34-.527-.475-1.27-.475-.538 0-.926.208-.382.208-.654.579l-.903-.052.631-4.46h4.31v1.01h-3.52l-.353 2.3q.29-.22.55-.33.463-.191 1.07-.191 1.14 0 1.93.735.793.735.793 1.86 0 1.17-.729 2.07-.723.897-2.31.897-1.01 0-1.79-.567-.775-.573-.868-1.75z" clip-path="url(#e)" aria-label=".5"/><path transform="matrix(1.33 0 0 1.33 796 -280)" d="M.21-3.33h6.07v.574H.21z" clip-path="url(#f)" aria-label="−"/><path transform="matrix(1.33 0 0 1.33 887 -280)" d="M3.21-8.29q1.61 0 2.33 1.33.556 1.02.556 2.81 0 1.69-.503 2.8Q4.864.24 3.213.24q-1.49 0-2.22-1.3-.608-1.08-.608-2.9 0-1.41.365-2.42.683-1.89 2.47-1.89zM3.198-.73q.81 0 1.29-.718t.48-2.67q0-1.41-.347-2.32-.347-.914-1.35-.914-.92 0-1.35.868-.422.862-.422 2.55 0 1.27.272 2.04.417 1.17 1.42 1.17z" clip-path="url(#g)" aria-label="0"/><path transform="matrix(1.33 0 0 1.33 960 -280)" d="M3.21-8.29q1.61 0 2.33 1.33.556 1.02.556 2.81 0 1.69-.503 2.8Q4.864.24 3.213.24q-1.49 0-2.22-1.3-.608-1.08-.608-2.9 0-1.41.365-2.42.683-1.89 2.47-1.89zM3.198-.73q.81 0 1.29-.718t.48-2.67q0-1.41-.347-2.32-.347-.914-1.35-.914-.92 0-1.35.868-.422.862-.422 2.55 0 1.27.272 2.04.417 1.17 1.42 1.17zm4.41-.538h1.21v1.26h-1.21zm3.75-.851q.104.891.828 1.23.37.174.856.174.926 0 1.37-.59.446-.59.446-1.31 0-.868-.532-1.34-.527-.475-1.27-.475-.538 0-.926.208-.382.208-.654.579l-.903-.052.631-4.46h4.31v1.01h-3.52l-.353 2.3q.29-.22.55-.33.463-.191 1.07-.191 1.14 0 1.93.735.793.735.793 1.86 0 1.17-.729 2.07-.723.897-2.31.897-1.01 0-1.79-.567-.775-.573-.868-1.75z" clip-path="url(#h)" aria-label=".5"/><path transform="matrix(1.33 0 0 1.33 1048 -280)" d="M1.13-5.87v-.799q1.13-.11 1.57-.365.446-.26.665-1.22h.822v8.25h-1.11v-5.87z" clip-path="url(#i)" aria-label="1"/><g fill="none" stroke="#000" stroke-miterlimit="10" stroke-width=".5"><path d="M731.786-377.488h317.87M731.786-368.577v-8.884M739.766-372.966v-4.442M747.746-372.966v-4.442M755.593-372.966v-4.442M763.573-372.966v-4.442M771.553-372.966v-4.442M779.4-372.966v-4.442M787.38-372.966v-4.442M795.36-372.966v-4.442M803.207-372.966v-4.442M811.32-368.577v-8.884M819.3-372.966v-4.442M827.28-372.966v-4.442M835.26-372.966v-4.442M843.24-372.966v-4.442M851.22-372.966v-4.442M859.2-372.966v-4.442M867.18-372.966v-4.442M875.16-372.966v-4.442M883.14-372.966v-4.442M891.12-368.577v-8.884M899.1-372.966v-4.442M907.08-372.966v-4.442M915.06-372.966v-4.442M921.71-372.966v-4.442M929.69-372.966v-4.442M937.67-372.966v-4.442M945.65-372.966v-4.442M953.63-372.966v-4.442M961.61-372.966v-4.442M969.59-368.577v-8.884M977.57-372.966v-4.442M985.55-372.966v-4.442M993.53-372.966v-4.442M1001.51-372.966v-4.442M1009.49-372.966v-4.442M1017.47-372.966v-4.442M1025.45-372.966v-4.442M1033.43-372.966v-4.442M1041.41-372.966v-4.442M1049.39-368.577v-8.884M731.786-295.693v-81.795" stroke-width=".665"/></g><path transform="matrix(0 -1.33 1.33 0 689 -307)" d="M4.82-1.14q.676 0 1.11-.141.776-.261 1.27-1 .395-.596.569-1.53.1-.555.1-1.03 0-1.83-.729-2.84-.723-1.01-2.34-1.01H2.44v7.55zM1.11-9.83h3.98q2.03 0 3.14 1.44.997 1.3.997 3.33 0 1.57-.589 2.83Q7.598 0 5.068 0h-3.97zm10.6 7.92q0 .522.381.823.381.301.903.301.636 0 1.23-.294 1-.488 1-1.6v-.97q-.221.141-.569.234-.348.094-.682.134l-.729.094q-.656.087-.984.274-.555.314-.555 1zm2.92-2.44q.415-.053.555-.348.08-.161.08-.462 0-.616-.442-.89-.435-.281-1.25-.281-.943 0-1.34.509-.22.281-.288.836h-1.12q.034-1.32.856-1.84.83-.522 1.92-.522 1.26 0 2.05.482.783.482.783 1.5v4.13q0 .187.074.301.08.114.328.114.08 0 .18-.007.1-.013.215-.033v.89q-.281.08-.428.1-.147.02-.401.02-.622 0-.903-.442-.147-.234-.207-.662-.368.482-1.06.836-.69.355-1.52.355-.997 0-1.63-.602-.63-.61-.63-1.52 0-.997.623-1.55.622-.55 1.63-.676zm4.023-4.83h1.22v2h1.14v.984h-1.14v4.68q0 .375.254.502.141.074.468.074h.187q.1-.007.234-.02v.95q-.207.06-.435.086-.221.027-.482.027-.843 0-1.14-.428-.301-.435-.301-1.12v-4.74h-.97v-.984h.97zm4.49 7.26q0 .522.381.823.381.301.903.301.636 0 1.23-.294 1-.488 1-1.6v-.97q-.221.141-.569.234-.348.094-.682.134l-.729.094q-.656.087-.984.274-.555.314-.555 1zm2.92-2.44q.415-.053.555-.348.08-.161.08-.462 0-.616-.442-.89-.435-.281-1.25-.281-.943 0-1.34.509-.22.281-.288.836h-1.12q.034-1.32.856-1.84.83-.522 1.92-.522 1.26 0 2.05.482.783.482.783 1.5v4.13q0 .187.074.301.08.114.328.114.08 0 .18-.007.1-.013.215-.033v.89q-.281.08-.428.1-.147.02-.401.02-.622 0-.903-.442-.147-.234-.207-.662-.368.482-1.06.836t-1.52.355q-.997 0-1.63-.602-.63-.61-.63-1.52 0-.997.623-1.55.622-.55 1.63-.676zm6.013-5.49h1.02l-3.12 9.83h-1.02zm1.7 0h1.91l2.82 8.31 2.8-8.31h1.89v9.83h-1.26v-5.8q0-.301.013-.997.014-.696.014-1.49l-2.8 8.29h-1.32l-2.82-8.29v.301q0 .361.013 1.1.02.736.02 1.08v5.8h-1.27zm15.6-.268q1.87 0 2.9.984 1.03.984 1.14 2.23h-1.3q-.221-.95-.883-1.51-.656-.555-1.85-.555-1.45 0-2.35 1.02-.89 1.02-.89 3.12 0 1.73.803 2.8.81 1.07 2.41 1.07 1.47 0 2.24-1.13.408-.596.609-1.57h1.3q-.174 1.55-1.15 2.6-1.17 1.26-3.16 1.26-1.71 0-2.88-1.04-1.53-1.37-1.53-4.24 0-2.17 1.15-3.57 1.24-1.51 3.43-1.51z" clip-path="url(#j)" aria-label="Data/MC"/><g fill="none" stroke="#000" stroke-miterlimit="10" stroke-width=".5"><path d="M737.638-295.693h-5.879M734.712-300.747h-2.94M734.712-305.934h-2.94M734.712-310.988h-2.94M737.638-316.175h-5.879M734.712-321.229h-2.94M734.712-326.416h-2.94M734.712-331.47h-2.94M737.638-336.524h-5.879M734.712-341.711h-2.94M734.712-346.765h-2.94M734.712-351.952h-2.94M737.638-357.006h-5.879M734.712-362.193h-2.94M734.712-367.247h-2.94M734.712-372.301h-2.94M737.638-377.488h-5.879M737.638-295.693h-5.879M737.638-377.488h-5.879" stroke-width=".665"/></g><path transform="matrix(1.33 0 0 1.33 707 -290)" d="M3.21-8.29q1.61 0 2.33 1.33.556 1.02.556 2.81 0 1.69-.503 2.8Q4.864.24 3.213.24q-1.49 0-2.22-1.3-.608-1.08-.608-2.9 0-1.41.365-2.42.683-1.89 2.47-1.89zM3.198-.73q.81 0 1.29-.718t.48-2.67q0-1.41-.347-2.32-.347-.914-1.35-.914-.92 0-1.35.868-.422.862-.422 2.55 0 1.27.272 2.04.417 1.17 1.42 1.17zm4.41-.538h1.21v1.26h-1.21zm5.75-7.06q1.39 0 1.93.723.55.718.55 1.48h-1.03q-.092-.492-.295-.77-.376-.521-1.14-.521-.874 0-1.39.81-.515.804-.573 2.31.36-.527.903-.787.498-.231 1.11-.231 1.04 0 1.82.665.775.665.775 1.98 0 1.13-.735 2-.735.868-2.09.868-1.16 0-2.01-.88-.845-.885-.845-2.97 0-1.55.376-2.62.723-2.06 2.64-2.06zm-.075 7.61q.822 0 1.23-.55.411-.556.411-1.31 0-.637-.365-1.21-.365-.579-1.33-.579-.67 0-1.18.446-.503.446-.503 1.34 0 .787.457 1.33.463.532 1.28.532z" clip-path="url(#k)" aria-label=".6"/><path transform="matrix(1.33 0 0 1.33 707 -311)" d="M3.21-8.29q1.61 0 2.33 1.33.556 1.02.556 2.81 0 1.69-.503 2.8Q4.864.24 3.213.24q-1.49 0-2.22-1.3-.608-1.08-.608-2.9 0-1.41.365-2.42.683-1.89 2.47-1.89zM3.198-.73q.81 0 1.29-.718t.48-2.67q0-1.41-.347-2.32-.347-.914-1.35-.914-.92 0-1.35.868-.422.862-.422 2.55 0 1.27.272 2.04.417 1.17 1.42 1.17zm4.41-.538h1.21v1.26h-1.21zm5.51-3.55q.69 0 1.08-.382.388-.388.388-.92 0-.463-.37-.851-.37-.388-1.13-.388-.752 0-1.09.388t-.336.909q0 .584.434.914.434.33 1.02.33zm.064 4.1q.723 0 1.2-.388.48-.394.48-1.17 0-.804-.492-1.22-.492-.417-1.26-.417-.746 0-1.22.428-.469.422-.469 1.17 0 .648.428 1.12.434.469 1.34.469zm-1.48-3.7q-.434-.185-.677-.434-.457-.463-.457-1.2 0-.926.671-1.59t1.9-.665q1.19 0 1.87.631.677.625.677 1.46 0 .775-.394 1.26-.22.272-.683.532.515.237.81.544.55.579.55 1.5 0 1.09-.735 1.86-.735.758-2.08.758-1.21 0-2.05-.654-.833-.66-.833-1.91 0-.735.36-1.27.358-.538 1.06-.822z" clip-path="url(#l)" aria-label=".8"/><path transform="matrix(1.33 0 0 1.33 723 -331)" d="M1.13-5.87v-.799q1.13-.11 1.57-.365.446-.26.665-1.22h.822v8.25h-1.11v-5.87z" clip-path="url(#m)" aria-label="1"/><path transform="matrix(1.33 0 0 1.33 707 -352)" d="M1.13-5.87v-.799q1.13-.11 1.57-.365.446-.26.665-1.22h.822v8.25h-1.11v-5.87zM7.6-1.26h1.21V0H7.6zM10.25 0q.058-1.07.44-1.86.388-.793 1.5-1.44l1.11-.642q.746-.434 1.05-.741.475-.48.475-1.1 0-.723-.434-1.15-.434-.428-1.16-.428-1.07 0-1.48.81-.22.434-.243 1.2h-1.06q.017-1.08.399-1.76.677-1.2 2.39-1.2 1.42 0 2.08.77.66.77.66 1.71 0 .995-.7 1.7-.405.411-1.45.995l-.793.44q-.567.312-.891.596-.579.503-.729 1.12h4.53v.984z" clip-path="url(#n)" aria-label="1.2"/><g fill="none" stroke-miterlimit="10"><g stroke="#000" stroke-width=".5"><path d="M1049.39-295.693v-81.795M1044.07-295.693h5.879M1046.73-300.747h2.94M1046.73-305.934h2.94M1046.73-310.988h2.94M1044.07-316.175h5.879M1046.73-321.229h2.94M1046.73-326.416h2.94M1046.73-331.47h2.94M1044.07-336.524h5.879M1046.73-341.711h2.94M1046.73-346.765h2.94M1046.73-351.952h2.94M1044.07-357.006h5.879M1046.73-362.193h2.94M1046.73-367.247h2.94M1046.73-372.301h2.94M1044.07-377.488h5.879M1044.07-295.693h5.879M1044.07-377.488h5.879" stroke-width=".665"/></g><g stroke="#ccc" stroke-width=".5"><path d="m747.48-342.243.255.255M743.49-342.243l4.243 4.243M739.5-342.243l8.246 8.246M735.51-342.243l11.105 11.105M731.786-341.844l10.76 10.76M731.786-337.854l6.77 6.77M731.786-333.864l2.78 2.78" stroke-width=".665"/></g><path d="M731.786-331.204h15.827v-11.105h-15.827z" stroke="#a6a6a6" stroke-width="1.33"/><path d="M731.786-331.204h15.827v-11.105h-15.827z" stroke="#a6a6a6" stroke-width="1.33"/><g stroke="#ccc" stroke-width=".5"><path d="m760.78-340.913 2.766 2.766M756.79-340.913l6.756 6.756M752.8-340.913l8.738 8.738M748.81-340.913l8.738 8.738M747.746-337.987l5.879 5.879M747.746-333.997l1.875 1.875" stroke-width=".665"/></g><path d="M747.746-332.135h15.827v-8.738h-15.827z" stroke="#a6a6a6" stroke-width="1.33"/><path d="M747.746-332.135h15.827v-8.738h-15.827z" stroke="#a6a6a6" stroke-width="1.33"/><g stroke="#ccc" stroke-width=".5"><path d="m776.607-341.046 2.82 2.82M772.617-341.046l6.823 6.823M768.627-341.046l9.27 9.27M764.637-341.046l9.27 9.27M763.573-338.12l6.357 6.357M763.573-334.13l2.367 2.367" stroke-width=".665"/></g><path d="M763.573-331.736H779.4v-9.27h-15.827z" stroke="#a6a6a6" stroke-width="1.33"/><path d="M763.573-331.736H779.4v-9.27h-15.827z" stroke="#a6a6a6" stroke-width="1.33"/><g stroke="#ccc" stroke-width=".5"><path d="m792.434-341.179 2.913 2.913M788.444-341.179l6.903 6.903M784.454-341.179l9.988 9.988M780.464-341.179l9.988 9.988M779.4-338.12l6.996 6.996M779.4-334.13l2.993 2.993" stroke-width=".665"/></g><path d="M779.4-331.204h15.827v-9.988H779.4z" stroke="#a6a6a6" stroke-width="1.33"/><path d="M779.4-331.204h15.827v-9.988H779.4z" stroke="#a6a6a6" stroke-width="1.33"/><g stroke="#ccc" stroke-width=".5"><path d="m808.66-341.445 3.046 3.046M804.138-341.445l7.036 7.036M800.148-341.445l9.789 9.789M796.158-341.445l9.789 9.789M795.36-338.253l6.663 6.663M795.36-334.263l2.66 2.66" stroke-width=".665"/></g><path d="M795.36-331.603h15.827v-9.789H795.36z" stroke="#a6a6a6" stroke-width="1.33"/><path d="M795.36-331.603h15.827v-9.789H795.36z" stroke="#a6a6a6" stroke-width="1.33"/><g stroke="#ccc" stroke-width=".5"><path d="m824.62-341.312 2.873 2.86M820.63-341.312l6.863 6.863M816.64-341.312l9.67 9.67M812.65-341.312l9.67 9.67M811.32-338.386l6.716 6.716M811.32-334.396l2.726 2.726" stroke-width=".665"/></g><path d="M811.32-331.603h15.827v-9.67H811.32z" stroke="#a6a6a6" stroke-width="1.33"/><path d="M811.32-331.603h15.827v-9.67H811.32z" stroke="#a6a6a6" stroke-width="1.33"/><g stroke="#ccc" stroke-width=".5"><path d="m840.58-341.312 2.753 2.753M836.59-341.312l6.743 6.743M832.6-341.312l9.802 9.802M828.61-341.312l9.802 9.802M827.28-338.386l6.956 6.956M827.28-334.396l2.966 2.966" stroke-width=".665"/></g><path d="M827.28-331.47h15.827v-9.802H827.28z" stroke="#a6a6a6" stroke-width="1.33"/><path d="M827.28-331.47h15.827v-9.802H827.28z" stroke="#a6a6a6" stroke-width="1.33"/><g stroke="#ccc" stroke-width=".5"><path d="m856.54-341.312 2.66 2.66M852.55-341.312l6.65 6.65M848.56-341.312l9.842 9.842M844.57-341.312l9.842 9.842M843.24-338.519l7.089 7.089M843.24-334.529l3.099 3.099" stroke-width=".665"/></g><path d="M843.24-331.47h15.827v-9.842H843.24z" stroke="#a6a6a6" stroke-width="1.33"/><path d="M843.24-331.47h15.827v-9.842H843.24z" stroke="#a6a6a6" stroke-width="1.33"/><g stroke="#ccc" stroke-width=".5"><path d="m872.5-340.913 2.128 2.128M868.51-340.913l6.131 6.131M864.52-340.913l9.39 9.39M860.53-340.913l9.39 9.39M859.2-338.652l7.169 7.169M859.2-334.662l3.165 3.179" stroke-width=".665"/></g><path d="M859.2-331.47h15.827v-9.39H859.2z" stroke="#a6a6a6" stroke-width="1.33"/><path d="M859.2-331.47h15.827v-9.39H859.2z" stroke="#a6a6a6" stroke-width="1.33"/><g stroke="#ccc" stroke-width=".5"><path d="m887.13-342.243 3.485 3.485M883.14-342.243l7.475 7.475M879.15-342.243l11.385 11.385M875.16-342.243l11.385 11.385M875.16-338.785l7.82 7.82M875.16-334.795l3.83 3.83" stroke-width=".665"/></g><path d="M875.16-330.938h15.827v-11.385H875.16z" stroke="#a6a6a6" stroke-width="1.33"/><path d="M875.16-330.938h15.827v-11.385H875.16z" stroke="#a6a6a6" stroke-width="1.33"/><g stroke="#ccc" stroke-width=".5"><path d="m904.42-340.647 1.796 1.796M900.43-340.647l5.786 5.785M896.44-340.647l8.22 8.22M892.45-340.647l8.22 8.22M891.12-338.785l6.344 6.344M891.12-334.795l2.34 2.34" stroke-width=".665"/></g><path d="M891.12-332.534h15.827v-8.22H891.12z" stroke="#a6a6a6" stroke-width="1.33"/><path d="M891.12-332.534h15.827v-8.22H891.12z" stroke="#a6a6a6" stroke-width="1.33"/><g stroke="#ccc" stroke-width=".5"><path d="m919.05-341.977 2.94 2.94M915.06-341.977l6.943 6.943M911.07-341.977l10.347 10.347M907.08-341.977l10.347 10.347M907.08-338.918l7.315 7.302M907.08-334.928l3.312 3.312" stroke-width=".665"/></g><path d="M907.08-331.603h15.827v-10.347H907.08z" stroke="#a6a6a6" stroke-width="1.33"/><path d="M907.08-331.603h15.827v-10.347H907.08z" stroke="#a6a6a6" stroke-width="1.33"/><g stroke="#ccc" stroke-width=".5"><path d="m935.01-342.509 3.458 3.458M931.02-342.509l7.448 7.448M927.03-342.509l11.438 11.438M923.04-342.509l12.781 12.781M921.71-339.051l9.244 9.244M921.71-335.061l5.24 5.253M921.71-331.071l1.254 1.256" stroke-width=".665"/></g><path d="M921.71-329.741h15.827v-12.781H921.71z" stroke="#a6a6a6" stroke-width="1.33"/><path d="M921.71-329.741h15.827v-12.781H921.71z" stroke="#a6a6a6" stroke-width="1.33"/><g stroke="#ccc" stroke-width=".5"><path d="m950.97-341.711 2.58 2.567M946.98-341.711l6.57 6.57M942.99-341.711l10.52 10.52M939-341.711l10.52 10.52M937.67-339.051l7.86 7.86M937.67-335.061l3.87 3.87" stroke-width=".665"/></g><path d="M937.67-331.204h15.827v-10.52H937.67z" stroke="#a6a6a6" stroke-width="1.33"/><path d="M937.67-331.204h15.827v-10.52H937.67z" stroke="#a6a6a6" stroke-width="1.33"/><g stroke="#ccc" stroke-width=".5"><path d="m966.93-342.775 3.578 3.578M962.94-342.775l7.568 7.568M958.95-342.775l11.558 11.558M954.96-342.775l12.037 12.037M953.63-339.184l8.366 8.366M953.63-335.194l4.376 4.376M953.63-331.204l.382.382" stroke-width=".665"/></g><path d="M953.63-330.805h15.827v-12.037H953.63z" stroke="#a6a6a6" stroke-width="1.33"/><path d="M953.63-330.805h15.827v-12.037H953.63z" stroke="#a6a6a6" stroke-width="1.33"/><g stroke="#ccc" stroke-width=".5"><path d="m982.89-342.376 3.02 3.02M978.9-342.376l7.01 7.01M974.91-342.376l11.012 11.012M970.92-342.376l11.983 11.983M969.59-339.317l8.871 8.871M969.59-335.327l4.881 4.881M969.59-331.337l.888.888" stroke-width=".665"/></g><path d="M969.59-330.406h15.827v-11.983H969.59z" stroke="#a6a6a6" stroke-width="1.33"/><path d="M969.59-330.406h15.827v-11.983H969.59z" stroke="#a6a6a6" stroke-width="1.33"/><g stroke="#ccc" stroke-width=".5"><path d="m998.85-342.243 2.806 2.806M994.86-342.243l6.796 6.796M990.87-342.243l10.786 10.786M986.88-342.243l11.93 11.93M985.55-339.317l9.03 9.03M985.55-335.327l5.04 5.04M985.55-331.337l1.047 1.047" stroke-width=".665"/></g><path d="M985.55-330.273h15.827v-11.93H985.55z" stroke="#a6a6a6" stroke-width="1.33"/><path d="M985.55-330.273h15.827v-11.93H985.55z" stroke="#a6a6a6" stroke-width="1.33"/><g stroke="#ccc" stroke-width=".5"><path d="m1016.14-344.504.95.95M1012.15-344.504l4.948 4.948M1008.16-344.504l8.938 8.938M1004.17-344.504l12.928 12.928M1001.51-343.44l13.965 13.965M1001.51-339.45l10.015 10.015M1001.51-335.46l6.025 6.025M1001.51-331.47l2.035 2.035" stroke-width=".665"/></g><path d="M1001.51-329.475h15.827v-15.029h-15.827z" stroke="#a6a6a6" stroke-width="1.33"/><path d="M1001.51-329.475h15.827v-15.029h-15.827z" stroke="#a6a6a6" stroke-width="1.33"/><g stroke="#ccc" stroke-width=".5"><path d="m1030.77-346.1 2.54 2.54M1026.78-346.1l6.53 6.53M1022.79-346.1l10.52 10.52M1018.8-346.1l14.497 14.497M1017.47-343.573l15.827 15.827M1017.47-339.583l12.276 12.276M1017.47-335.593l8.286 8.286M1017.47-331.603l4.296 4.296M1017.47-327.613l.305.305" stroke-width=".665"/></g><path d="M1017.47-327.214h15.827V-346.1h-15.827z" stroke="#a6a6a6" stroke-width="1.33"/><path d="M1017.47-327.214h15.827V-346.1h-15.827z" stroke="#a6a6a6" stroke-width="1.33"/><g stroke="#ccc" stroke-width=".5"><path d="m1049.39-355.942.317.317M1045.4-355.942l4.31 4.31M1041.41-355.942l8.3 8.3M1037.42-355.942l12.29 12.29M1033.43-355.543l15.827 15.827M1033.43-351.553l15.827 15.827M1033.43-347.563l15.827 15.827M1033.43-343.573l15.827 15.827M1033.43-339.583l15.827 15.827M1033.43-335.593l15.827 15.827M1033.43-331.603l14.364 14.364M1033.43-327.613l10.414 10.414M1033.43-323.623l6.424 6.424M1033.43-319.633l2.42 2.42" stroke-width=".665"/></g><path d="M1033.43-317.239h15.827v-38.703h-15.827z" stroke="#a6a6a6" stroke-width="1.33"/><path d="M1033.43-317.239h15.827v-38.703h-15.827z" stroke="#a6a6a6" stroke-width="1.33"/><path d="M739.766-332.8v-.519M739.766-338.253v-.519" stroke="#000" stroke-width=".665"/></g><path d="M736.973-335.726c0-3.684 5.52-3.684 5.52 0s-5.52 3.684-5.52 0zM752.933-333.731c0-3.684 5.52-3.684 5.52 0s-5.52 3.684-5.52 0zM768.76-335.726c0-3.684 5.52-3.684 5.52 0s-5.52 3.684-5.52 0z"/><path d="M787.38-331.869v-.186M787.38-336.923v-.186" fill="none" stroke="#000" stroke-miterlimit="10" stroke-width=".665"/><path d="M784.587-334.529c0-3.684 5.52-3.684 5.52 0s-5.52 3.684-5.52 0z"/><path d="M803.207-328.145v-.153M803.207-333.199v-.153" fill="none" stroke="#000" stroke-miterlimit="10" stroke-width=".665"/><path d="M800.547-330.805c0-3.684 5.52-3.684 5.52 0s-5.52 3.684-5.52 0z"/><path d="M819.3-333.465v-.112M819.3-338.519v-.112" fill="none" stroke="#000" stroke-miterlimit="10" stroke-width=".665"/><path d="M816.64-336.125c0-3.684 5.52-3.684 5.52 0s-5.52 3.684-5.52 0z"/><path d="M835.26-332.135v-.033M835.26-337.056v-.033" fill="none" stroke="#000" stroke-miterlimit="10" stroke-width=".665"/><path d="M832.6-334.662c0-3.684 5.52-3.684 5.52 0s-5.52 3.684-5.52 0zM848.56-332.8c0-3.684 5.52-3.684 5.52 0s-5.52 3.684-5.52 0zM864.52-330.938c0-3.684 5.52-3.684 5.52 0s-5.52 3.684-5.52 0z"/><path d="M883.14-328.677v-.001M883.14-333.598v-.001" fill="none" stroke="#000" stroke-miterlimit="10" stroke-width=".665"/><path d="M880.48-331.071c0-3.684 5.52-3.684 5.52 0s-5.52 3.684-5.52 0z"/><path d="M899.1-331.736v-.033M899.1-336.657v-.033" fill="none" stroke="#000" stroke-miterlimit="10" stroke-width=".665"/><path d="M896.44-334.263c0-3.684 5.52-3.684 5.52 0s-5.52 3.684-5.52 0z"/><path d="M915.06-338.652v-.193M915.06-343.839v-.193" fill="none" stroke="#000" stroke-miterlimit="10" stroke-width=".665"/><path d="M911.07-341.312c0-3.684 5.52-3.684 5.52 0s-5.52 3.684-5.52 0z"/><path d="M929.69-330.938v-.269M929.69-336.258v-.267" fill="none" stroke="#000" stroke-miterlimit="10" stroke-width=".665"/><path d="M927.03-333.731c0-3.684 5.52-3.684 5.52 0s-5.52 3.684-5.52 0z"/><path d="M945.65-338.253v-.817M945.65-343.972v-.817" fill="none" stroke="#000" stroke-miterlimit="10" stroke-width=".665"/><path d="M942.99-341.445c0-3.684 5.52-3.684 5.52 0s-5.52 3.684-5.52 0z"/><path d="M961.61-335.859v-1.14M961.61-341.977v-1.14" fill="none" stroke="#000" stroke-miterlimit="10" stroke-width=".665"/><path d="M958.95-339.45c0-3.684 5.52-3.684 5.52 0s-5.52 3.684-5.52 0z"/><path d="M977.57-331.869v-1.282M977.57-338.12v-1.282" fill="none" stroke="#000" stroke-miterlimit="10" stroke-width=".665"/><path d="M974.91-335.593c0-3.684 5.52-3.684 5.52 0s-5.52 3.684-5.52 0z"/><path d="M993.53-333.465v-1.596M993.53-339.982v-1.596" fill="none" stroke="#000" stroke-miterlimit="10" stroke-width=".665"/><path d="M990.87-337.455c0-3.684 5.52-3.684 5.52 0s-5.52 3.684-5.52 0z"/><path d="M1009.49-333.332v-2.328M1009.49-340.647v-2.328" fill="none" stroke="#000" stroke-miterlimit="10" stroke-width=".665"/><path d="M1006.83-338.12c0-3.684 5.52-3.684 5.52 0s-5.52 3.684-5.52 0z"/><path d="M1025.45-341.179v-3.737M1025.45-349.824v-3.737" fill="none" stroke="#000" stroke-miterlimit="10" stroke-width=".665"/><path d="M1022.79-347.43c0-3.684 5.52-3.684 5.52 0s-5.52 3.684-5.52 0z"/><path d="M1041.41-339.317v-20.482M1041.41-364.72v-12.768" fill="none" stroke="#000" stroke-miterlimit="10" stroke-width=".665"/><path d="M1038.75-362.193c0-3.684 5.52-3.684 5.52 0s-5.52 3.684-5.52 0z"/><g fill="none" stroke="#000" stroke-miterlimit="10" stroke-width=".5"><path d="M733.382-336.524h155.61M888.46-336.524h155.61M1044.07-336.524h3.179M731.786-295.693h317.87M731.786-304.604v8.884M739.766-300.082v4.442M747.746-300.082v4.442M755.593-300.082v4.442M763.573-300.082v4.442M771.553-300.082v4.442M779.4-300.082v4.442M787.38-300.082v4.442M795.36-300.082v4.442M803.207-300.082v4.442M811.32-304.604v8.884M819.3-300.082v4.442M827.28-300.082v4.442M835.26-300.082v4.442M843.24-300.082v4.442M851.22-300.082v4.442M859.2-300.082v4.442M867.18-300.082v4.442M875.16-300.082v4.442M883.14-300.082v4.442M891.12-304.604v8.884M899.1-300.082v4.442M907.08-300.082v4.442M915.06-300.082v4.442M921.71-300.082v4.442M929.69-300.082v4.442M937.67-300.082v4.442M945.65-300.082v4.442M953.63-300.082v4.442M961.61-300.082v4.442M969.59-304.604v8.884M977.57-300.082v4.442M985.55-300.082v4.442M993.53-300.082v4.442M1001.51-300.082v4.442M1009.49-300.082v4.442M1017.47-300.082v4.442M1025.45-300.082v4.442M1033.43-300.082v4.442M1041.41-300.082v4.442M1049.39-304.604v8.884M731.786-377.488h317.87M731.786-368.577v-8.884M739.766-372.966v-4.442M747.746-372.966v-4.442M755.593-372.966v-4.442M763.573-372.966v-4.442M771.553-372.966v-4.442M779.4-372.966v-4.442M787.38-372.966v-4.442M795.36-372.966v-4.442M803.207-372.966v-4.442M811.32-368.577v-8.884M819.3-372.966v-4.442M827.28-372.966v-4.442M835.26-372.966v-4.442M843.24-372.966v-4.442M851.22-372.966v-4.442M859.2-372.966v-4.442M867.18-372.966v-4.442M875.16-372.966v-4.442M883.14-372.966v-4.442M891.12-368.577v-8.884M899.1-372.966v-4.442M907.08-372.966v-4.442M915.06-372.966v-4.442M921.71-372.966v-4.442M929.69-372.966v-4.442M937.67-372.966v-4.442M945.65-372.966v-4.442M953.63-372.966v-4.442M961.61-372.966v-4.442M969.59-368.577v-8.884M977.57-372.966v-4.442M985.55-372.966v-4.442M993.53-372.966v-4.442M1001.51-372.966v-4.442M1009.49-372.966v-4.442M1017.47-372.966v-4.442M1025.45-372.966v-4.442M1033.43-372.966v-4.442M1041.41-372.966v-4.442M1049.39-368.577v-8.884M731.786-295.693v-81.795M737.638-295.693h-5.879M734.712-300.747h-2.94M734.712-305.934h-2.94M734.712-310.988h-2.94M737.638-316.175h-5.879M734.712-321.229h-2.94M734.712-326.416h-2.94M734.712-331.47h-2.94M737.638-336.524h-5.879M734.712-341.711h-2.94M734.712-346.765h-2.94M734.712-351.952h-2.94M737.638-357.006h-5.879M734.712-362.193h-2.94M734.712-367.247h-2.94M734.712-372.301h-2.94M737.638-377.488h-5.879M737.638-295.693h-5.879M737.638-377.488h-5.879M1049.39-295.693v-81.795M1044.07-295.693h5.879M1046.73-300.747h2.94M1046.73-305.934h2.94M1046.73-310.988h2.94M1044.07-316.175h5.879M1046.73-321.229h2.94M1046.73-326.416h2.94M1046.73-331.47h2.94M1044.07-336.524h5.879M1046.73-341.711h2.94M1046.73-346.765h2.94M1046.73-351.952h2.94M1044.07-357.006h5.879M1046.73-362.193h2.94M1046.73-367.247h2.94M1046.73-372.301h2.94M1044.07-377.488h5.879M1044.07-295.693h5.879M1044.07-377.488h5.879M731.786-377.488h317.87v-202.16h-317.87z" stroke-width=".665"/><path d="M731.786-377.488h317.87v-202.16h-317.87z" stroke-width=".665"/><path d="M731.786-377.488h317.87v-202.16h-317.87z" stroke-width=".665"/><path d="M731.786-377.488h317.87v-202.16h-317.87zM731.786-377.488h317.87M731.786-382.808v5.333M739.766-380.148v2.673M747.746-380.148v2.673M755.593-380.148v2.673M763.573-380.148v2.673M771.553-380.148v2.673M779.4-380.148v2.673M787.38-380.148v2.673M795.36-380.148v2.673M803.207-380.148v2.673M811.32-382.808v5.333M819.3-380.148v2.673M827.28-380.148v2.673M835.26-380.148v2.673M843.24-380.148v2.673M851.22-380.148v2.673M859.2-380.148v2.673M867.18-380.148v2.673M875.16-380.148v2.673M883.14-380.148v2.673M891.12-382.808v5.333M899.1-380.148v2.673M907.08-380.148v2.673M915.06-380.148v2.673M921.71-380.148v2.673M929.69-380.148v2.673M937.67-380.148v2.673M945.65-380.148v2.673M953.63-380.148v2.673M961.61-380.148v2.673M969.59-382.808v5.333M977.57-380.148v2.673M985.55-380.148v2.673M993.53-380.148v2.673M1001.51-380.148v2.673M1009.49-380.148v2.673M1017.47-380.148v2.673M1025.45-380.148v2.673M1033.43-380.148v2.673M1041.41-380.148v2.673M1049.39-382.808v5.333M731.786-580.18h317.87M731.786-574.86v-5.333M739.766-577.52v-2.66M747.746-577.52v-2.66M755.593-577.52v-2.66M763.573-577.52v-2.66M771.553-577.52v-2.66M779.4-577.52v-2.66M787.38-577.52v-2.66M795.36-577.52v-2.66M803.207-577.52v-2.66M811.32-574.86v-5.333M819.3-577.52v-2.66M827.28-577.52v-2.66M835.26-577.52v-2.66M843.24-577.52v-2.66M851.22-577.52v-2.66M859.2-577.52v-2.66M867.18-577.52v-2.66M875.16-577.52v-2.66M883.14-577.52v-2.66M891.12-574.86v-5.333M899.1-577.52v-2.66M907.08-577.52v-2.66M915.06-577.52v-2.66M921.71-577.52v-2.66M929.69-577.52v-2.66M937.67-577.52v-2.66M945.65-577.52v-2.66M953.63-577.52v-2.66M961.61-577.52v-2.66M969.59-574.86v-5.333M977.57-577.52v-2.66M985.55-577.52v-2.66M993.53-577.52v-2.66M1001.51-577.52v-2.66M1009.49-577.52v-2.66M1017.47-577.52v-2.66M1025.45-577.52v-2.66M1033.43-577.52v-2.66M1041.41-577.52v-2.66M1049.39-574.86v-5.333M731.786-377.488v-202.16" stroke-width=".665"/></g><path transform="matrix(0 -1.33 1.33 0 688 -487)" d="M1.17-9.83h7.17v1.2H2.47v2.98H7.9v1.14H2.47v3.33h5.97v1.17H1.17zm9.44 2.66 1.91 5.83 2-5.83h1.32L13.14 0h-1.28L9.22-7.17zm9.25-.161q.763 0 1.48.361.716.355 1.09.923.361.542.482 1.26.107.495.107 1.58h-5.25q.034 1.09.515 1.75.482.656 1.49.656.943 0 1.51-.622.321-.361.455-.836h1.18q-.047.395-.314.883-.261.482-.589.79-.549.535-1.36.723-.435.107-.984.107-1.34 0-2.27-.97-.93-.977-.93-2.73 0-1.73.937-2.8.937-1.08 2.45-1.08zm1.92 3.17q-.074-.783-.341-1.25-.495-.87-1.65-.87-.83 0-1.39.602-.562.596-.596 1.52zM24.5-7.167h1.14v1.02q.509-.629 1.08-.903.569-.274 1.26-.274 1.53 0 2.06 1.06.294.582.294 1.67v4.6h-1.22v-4.52q0-.656-.194-1.06-.321-.669-1.16-.669-.428 0-.703.087-.495.147-.87.589-.301.355-.395.736-.087.375-.087 1.08v3.75h-1.2zm7.86-2.004h1.22v2h1.14v.984h-1.14v4.68q0 .375.254.502.141.074.468.074h.187q.1-.007.234-.02v.95q-.207.06-.435.087-.221.026-.482.026-.843 0-1.14-.428-.301-.435-.301-1.12v-4.74h-.97v-.984h.97zm4.28 6.92q.053.602.301.923.455.582 1.58.582.669 0 1.18-.288.509-.294.509-.903 0-.462-.408-.703-.261-.147-1.03-.341l-.957-.241q-.917-.227-1.35-.509-.776-.488-.776-1.35 0-1.02.729-1.65.736-.629 1.97-.629 1.62 0 2.34.95.448.602.435 1.3h-1.14q-.034-.408-.288-.743-.415-.475-1.44-.475-.682 0-1.04.261-.348.261-.348.689 0 .468.462.749.268.167.79.294l.796.194q1.3.314 1.74.609.703.462.703 1.45 0 .957-.729 1.65-.723.696-2.21.696-1.6 0-2.27-.723-.662-.729-.709-1.8zm12.18-7.58h1.02l-3.12 9.83H45.7zm5.29-.034h1.17v3.57q.395-.514.943-.782.549-.274 1.19-.274 1.34 0 2.17.923.836.917.836 2.71 0 1.7-.823 2.82-.823 1.12-2.28 1.12-.816 0-1.38-.395-.335-.234-.716-.75v.918h-1.11zm3.13 9.03q.977 0 1.46-.776.488-.776.488-2.05 0-1.13-.488-1.87-.482-.743-1.43-.743-.823 0-1.45.61-.616.608-.616 2.01 0 1.01.254 1.64.475 1.18 1.77 1.18zm4.58-6.3h1.22v7.13h-1.22zm0-2.7h1.22v1.36h-1.22zm3.04 2.66H66v1.02q.509-.629 1.08-.903.569-.274 1.26-.274 1.53 0 2.06 1.06.294.582.294 1.67v4.6h-1.22v-4.52q0-.656-.194-1.06-.321-.669-1.16-.669-.428 0-.703.087-.495.147-.87.59-.301.354-.395.735-.087.375-.087 1.08v3.75h-1.2z" clip-path="url(#o)" aria-label="Events / bin"/><g fill="none" stroke="#000" stroke-miterlimit="10" stroke-width=".5"><path d="M737.638-377.488h-5.879M734.712-383.872h-2.94M734.712-389.99h-2.94M734.712-396.64h-2.94M734.712-403.29h-2.94M737.638-409.94h-5.879M734.712-416.59h-2.94M734.712-423.24h-2.94M734.712-428.56h-2.94M734.712-435.21h-2.94M737.638-441.86h-5.879M734.712-448.51h-2.94M734.712-455.16h-2.94M734.712-461.81h-2.94M734.712-468.46h-2.94M737.638-473.78h-5.879M734.712-480.43h-2.94M734.712-487.08h-2.94M734.712-493.73h-2.94M734.712-500.38h-2.94M737.638-507.03h-5.879M734.712-513.68h-2.94M734.712-519h-2.94M734.712-525.65h-2.94M734.712-532.3h-2.94M737.638-538.95h-5.879M734.712-545.6h-2.94M734.712-552.25h-2.94M734.712-557.57h-2.94M734.712-564.22h-2.94M737.638-570.87h-5.879M737.638-570.87h-5.879M734.712-577.52h-2.94" stroke-width=".665"/></g><path transform="matrix(1.33 0 0 1.33 721 -372)" d="M3.21-8.29q1.61 0 2.33 1.33.556 1.02.556 2.81 0 1.69-.503 2.8Q4.864.24 3.213.24q-1.49 0-2.22-1.3-.608-1.08-.608-2.9 0-1.41.365-2.42.683-1.89 2.47-1.89zM3.198-.73q.81 0 1.29-.718t.48-2.67q0-1.41-.347-2.32-.347-.914-1.35-.914-.92 0-1.35.868-.422.862-.422 2.55 0 1.27.272 2.04.417 1.17 1.42 1.17z" clip-path="url(#p)" aria-label="0"/><path transform="matrix(1.33 0 0 1.33 703 -405)" d="M1.46-2.11q.104.891.828 1.23.37.174.856.174.926 0 1.37-.59.446-.59.446-1.31 0-.868-.532-1.34-.527-.475-1.27-.475-.538 0-.926.208-.382.208-.654.579l-.903-.052.631-4.46h4.31v1.01h-3.52l-.353 2.3q.289-.22.55-.33.463-.191 1.07-.191 1.14 0 1.93.735.793.735.793 1.86 0 1.17-.729 2.07-.723.897-2.31.897-1.01 0-1.79-.567-.775-.573-.868-1.75zm8.33-6.17q1.61 0 2.33 1.33.556 1.02.556 2.81 0 1.69-.503 2.8Q11.444.25 9.793.25q-1.49 0-2.22-1.3-.608-1.08-.608-2.9 0-1.41.365-2.42.683-1.89 2.47-1.89zM9.778-.72q.81 0 1.29-.718t.48-2.67q0-1.41-.347-2.32-.347-.914-1.35-.914-.92 0-1.35.868-.422.862-.422 2.55 0 1.27.272 2.04.417 1.17 1.42 1.17zm6.6-7.56q1.61 0 2.33 1.33.556 1.02.556 2.81 0 1.69-.503 2.8-.729 1.59-2.38 1.59-1.49 0-2.22-1.3-.608-1.08-.608-2.9 0-1.41.365-2.42.683-1.89 2.47-1.89zm-.011 7.56q.81 0 1.29-.718t.48-2.67q0-1.41-.347-2.32-.347-.914-1.35-.914-.92 0-1.35.868-.422.862-.422 2.55 0 1.27.272 2.04.417 1.17 1.42 1.17z" clip-path="url(#q)" aria-label="500"/><path transform="matrix(1.33 0 0 1.33 694 -437)" d="M1.13-5.87v-.799q1.13-.11 1.57-.365.446-.26.665-1.22h.822v8.25h-1.11v-5.87zm8.66-2.42q1.61 0 2.33 1.33.556 1.02.556 2.81 0 1.69-.503 2.8Q11.444.24 9.793.24q-1.49 0-2.22-1.3-.608-1.08-.608-2.9 0-1.41.365-2.42.683-1.89 2.47-1.89zM9.778-.73q.81 0 1.29-.718t.48-2.67q0-1.41-.347-2.32-.347-.914-1.35-.914-.92 0-1.35.868-.422.862-.422 2.55 0 1.27.272 2.04.417 1.17 1.42 1.17zm6.6-7.56q1.61 0 2.33 1.33.556 1.02.556 2.81 0 1.69-.503 2.8-.729 1.59-2.38 1.59-1.49 0-2.22-1.3-.608-1.08-.608-2.9 0-1.41.365-2.42.683-1.89 2.47-1.89zm-.011 7.56q.81 0 1.29-.718t.48-2.67q0-1.41-.347-2.32-.347-.914-1.35-.914-.92 0-1.35.868-.422.862-.422 2.55 0 1.27.272 2.04.417 1.17 1.42 1.17zm6.6-7.56q1.61 0 2.33 1.33.556 1.02.556 2.81 0 1.69-.503 2.8Q24.62.24 22.97.24q-1.49 0-2.22-1.3-.608-1.08-.608-2.9 0-1.41.365-2.42.683-1.89 2.47-1.89zm-.012 7.56q.81 0 1.29-.718t.48-2.67q0-1.41-.347-2.32-.347-.914-1.35-.914-.92 0-1.35.868-.422.862-.422 2.55 0 1.27.272 2.04.417 1.17 1.42 1.17z" clip-path="url(#r)" aria-label="1000"/><path transform="matrix(1.33 0 0 1.33 694 -470)" d="M1.13-5.87v-.799q1.13-.11 1.57-.365.446-.26.665-1.22h.822v8.25h-1.11v-5.87zm6.92 3.76q.104.891.828 1.23.37.174.856.174.926 0 1.37-.59.446-.59.446-1.31 0-.868-.532-1.34-.527-.475-1.27-.475-.538 0-.926.208-.382.208-.654.579l-.903-.052.631-4.46h4.31v1.01h-3.52l-.353 2.3q.289-.22.55-.33.463-.191 1.07-.191 1.14 0 1.93.735.793.735.793 1.86 0 1.17-.729 2.07-.723.897-2.31.897-1.01 0-1.79-.567-.775-.573-.868-1.75zm8.33-6.17q1.61 0 2.33 1.33.556 1.02.556 2.81 0 1.69-.503 2.8-.729 1.59-2.38 1.59-1.49 0-2.22-1.3-.608-1.08-.608-2.9 0-1.41.365-2.42.683-1.89 2.47-1.89zm-.012 7.56q.81 0 1.29-.718t.48-2.67q0-1.41-.347-2.32-.347-.914-1.35-.914-.92 0-1.35.868-.422.862-.422 2.55 0 1.27.272 2.04.417 1.17 1.42 1.17zm6.6-7.56q1.61 0 2.33 1.33.556 1.02.556 2.81 0 1.69-.503 2.8-.729 1.59-2.38 1.59-1.49 0-2.22-1.3-.608-1.08-.608-2.9 0-1.41.365-2.42.683-1.89 2.47-1.89zm-.011 7.56q.81 0 1.29-.718t.48-2.67q0-1.41-.347-2.32-.347-.914-1.35-.914-.92 0-1.35.868-.422.862-.422 2.55 0 1.27.272 2.04.417 1.17 1.42 1.17z" clip-path="url(#s)" aria-label="1500"/><path transform="matrix(1.33 0 0 1.33 694 -502)" d="M.37 0q.058-1.07.44-1.86.388-.793 1.5-1.44l1.11-.642q.746-.434 1.05-.741.475-.48.475-1.1 0-.723-.434-1.15-.434-.428-1.16-.428-1.07 0-1.48.81-.22.434-.243 1.2H.568q.017-1.08.399-1.76.677-1.2 2.39-1.2 1.42 0 2.08.77.66.77.66 1.71 0 .995-.7 1.7-.405.411-1.45.995l-.793.44q-.567.312-.891.596-.579.503-.729 1.12h4.53v.984zm9.42-8.29q1.61 0 2.33 1.33.556 1.02.556 2.81 0 1.69-.503 2.8Q11.444.24 9.793.24q-1.49 0-2.22-1.3-.608-1.08-.608-2.9 0-1.41.365-2.42.683-1.89 2.47-1.89zM9.778-.73q.81 0 1.29-.718t.48-2.67q0-1.41-.347-2.32-.347-.914-1.35-.914-.92 0-1.35.868-.422.862-.422 2.55 0 1.27.272 2.04.417 1.17 1.42 1.17zm6.6-7.56q1.61 0 2.33 1.33.556 1.02.556 2.81 0 1.69-.503 2.8-.729 1.59-2.38 1.59-1.49 0-2.22-1.3-.608-1.08-.608-2.9 0-1.41.365-2.42.683-1.89 2.47-1.89zm-.011 7.56q.81 0 1.29-.718t.48-2.67q0-1.41-.347-2.32-.347-.914-1.35-.914-.92 0-1.35.868-.422.862-.422 2.55 0 1.27.272 2.04.417 1.17 1.42 1.17zm6.6-7.56q1.61 0 2.33 1.33.556 1.02.556 2.81 0 1.69-.503 2.8Q24.62.24 22.97.24q-1.49 0-2.22-1.3-.608-1.08-.608-2.9 0-1.41.365-2.42.683-1.89 2.47-1.89zm-.012 7.56q.81 0 1.29-.718t.48-2.67q0-1.41-.347-2.32-.347-.914-1.35-.914-.92 0-1.35.868-.422.862-.422 2.55 0 1.27.272 2.04.417 1.17 1.42 1.17z" clip-path="url(#t)" aria-label="2000"/><path transform="matrix(1.33 0 0 1.33 694 -534)" d="M.37 0q.058-1.07.44-1.86.388-.793 1.5-1.44l1.11-.642q.746-.434 1.05-.741.475-.48.475-1.1 0-.723-.434-1.15-.434-.428-1.16-.428-1.07 0-1.48.81-.22.434-.243 1.2H.568q.017-1.08.399-1.76.677-1.2 2.39-1.2 1.42 0 2.08.77.66.77.66 1.71 0 .995-.7 1.7-.405.411-1.45.995l-.793.44q-.567.312-.891.596-.579.503-.729 1.12h4.53v.984zm7.68-2.11q.104.891.828 1.23.37.174.856.174.926 0 1.37-.59.446-.59.446-1.31 0-.868-.532-1.34-.527-.475-1.27-.475-.538 0-.926.208-.382.208-.654.579l-.903-.052.631-4.46h4.31v1.01h-3.52l-.353 2.3q.289-.22.55-.33.463-.191 1.07-.191 1.14 0 1.93.735.793.735.793 1.86 0 1.17-.729 2.07-.723.897-2.31.897-1.01 0-1.79-.567-.775-.573-.868-1.75zm8.33-6.17q1.61 0 2.33 1.33.556 1.02.556 2.81 0 1.69-.503 2.8-.729 1.59-2.38 1.59-1.49 0-2.22-1.3-.608-1.08-.608-2.9 0-1.41.365-2.42.683-1.89 2.47-1.89zm-.012 7.56q.81 0 1.29-.718t.48-2.67q0-1.41-.347-2.32-.347-.914-1.35-.914-.92 0-1.35.868-.422.862-.422 2.55 0 1.27.272 2.04.417 1.17 1.42 1.17zm6.6-7.56q1.61 0 2.33 1.33.556 1.02.556 2.81 0 1.69-.503 2.8-.729 1.59-2.38 1.59-1.49 0-2.22-1.3-.608-1.08-.608-2.9 0-1.41.365-2.42.683-1.89 2.47-1.89zm-.011 7.56q.81 0 1.29-.718t.48-2.67q0-1.41-.347-2.32-.347-.914-1.35-.914-.92 0-1.35.868-.422.862-.422 2.55 0 1.27.272 2.04.417 1.17 1.42 1.17z" clip-path="url(#u)" aria-label="2500"/><path transform="matrix(1.33 0 0 1.33 694 -566)" d="M3.08.226Q1.61.226.94-.578q-.66-.81-.66-1.97h1.09q.07.804.301 1.17.405.654 1.46.654.822 0 1.32-.44.498-.44.498-1.13 0-.856-.527-1.2-.521-.341-1.45-.341-.104 0-.214.006-.104 0-.214.006v-.92q.162.017.272.023.11.005.237.005.584 0 .961-.185.66-.324.66-1.16 0-.619-.44-.955-.44-.336-1.02-.336-1.04 0-1.44.694-.22.382-.249 1.09H.495q0-.926.37-1.57.637-1.16 2.24-1.16 1.27 0 1.96.567.694.561.694 1.63 0 .764-.411 1.24-.255.295-.66.463.654.18 1.02.694.37.51.37 1.25 0 1.19-.781 1.93-.781.746-2.22.746zm6.72-8.51q1.61 0 2.33 1.33.556 1.02.556 2.81 0 1.69-.503 2.8-.729 1.59-2.38 1.59-1.49 0-2.22-1.3-.608-1.08-.608-2.9 0-1.41.365-2.42.683-1.89 2.47-1.89zm-.012 7.56q.81 0 1.29-.718t.48-2.67q0-1.41-.347-2.32-.347-.914-1.35-.914-.92 0-1.35.868-.422.862-.422 2.55 0 1.27.272 2.04.417 1.17 1.42 1.17zm6.6-7.56q1.61 0 2.33 1.33.556 1.02.556 2.81 0 1.69-.503 2.8-.729 1.59-2.38 1.59-1.49 0-2.22-1.3-.608-1.08-.608-2.9 0-1.41.365-2.42.683-1.89 2.47-1.89zm-.011 7.56q.81 0 1.29-.718t.48-2.67q0-1.41-.347-2.32-.347-.914-1.35-.914-.92 0-1.35.868-.422.862-.422 2.55 0 1.27.272 2.04.417 1.17 1.42 1.17zm6.6-7.56q1.61 0 2.33 1.33.556 1.02.556 2.81 0 1.69-.503 2.8-.73 1.59-2.38 1.59-1.49 0-2.22-1.3-.608-1.08-.608-2.9 0-1.41.365-2.42.683-1.89 2.47-1.89zm-.012 7.56q.81 0 1.29-.718t.48-2.67q0-1.41-.347-2.32-.347-.914-1.35-.914-.92 0-1.35.868-.422.862-.422 2.55 0 1.27.272 2.04.417 1.17 1.42 1.17z" clip-path="url(#v)" aria-label="3000"/><g fill="none" stroke="#000" stroke-miterlimit="10" stroke-width=".5"><path d="M1049.39-377.488v-202.16M1044.07-377.488h5.879M1046.73-383.872h2.94M1046.73-389.99h2.94M1046.73-396.64h2.94M1046.73-403.29h2.94M1044.07-409.94h5.879M1046.73-416.59h2.94M1046.73-423.24h2.94M1046.73-428.56h2.94M1046.73-435.21h2.94M1044.07-441.86h5.879M1046.73-448.51h2.94M1046.73-455.16h2.94M1046.73-461.81h2.94M1046.73-468.46h2.94M1044.07-473.78h5.879M1046.73-480.43h2.94M1046.73-487.08h2.94M1046.73-493.73h2.94M1046.73-500.38h2.94M1044.07-507.03h5.879M1046.73-513.68h2.94M1046.73-519h2.94M1046.73-525.65h2.94M1046.73-532.3h2.94M1044.07-538.95h5.879M1046.73-545.6h2.94M1046.73-552.25h2.94M1046.73-557.57h2.94M1046.73-564.22h2.94M1044.07-570.87h5.879M1044.07-570.87h5.879M1046.73-577.52h2.94" stroke-width=".665"/></g><path d="M731.786-377.488v-75.278h15.827v-63.707h15.827v21.679h15.827v23.009h15.827v1.303h15.827v-8.339h15.827v-4.96h15.827v-1.597h15.827v1.176h15.827v1.476h15.827v-.66h15.827v5.68h15.827v12.223h15.827v22.21h15.827v12.303h15.827v5.786h15.827v6.224h15.827v11.518h15.827v10.56h15.827v17.822h15.827v1.596" fill="#d40d00" fill-rule="evenodd"/><path d="M731.786-452.5h15.827v-63.707h15.827v21.679h15.827v23.009h15.827v1.303h15.827v-8.339h15.827v-4.96h15.827v-1.597h15.827v1.176h15.827v1.476h15.827v-.66h15.827v5.68h15.827v12.223h15.827v22.21h15.827v12.303h15.827v5.786h15.827v6.224h15.827v11.518h15.827v10.56h15.827v17.822h15.827" fill="none" stroke="#7f0800" stroke-miterlimit="10" stroke-width="1.33"/><path d="M731.786-377.488V-452.5h15.827v-62.51h15.827v22.61h15.827v23.275h15.827v1.822h15.827v-7.102h15.827v-3.937h15.827v-.794h15.827v2.234h15.827v1.942h15.827v.844h15.827v7.088h15.827v12.742h15.827v22.21h15.827v13.3h15.827v7.462h15.827v7.7h15.827v11.785h15.827v8.419h15.827v5.878h15.827v.228" fill="#fff" fill-rule="evenodd"/><path d="M731.786-452.5h15.827v-62.51h15.827v22.61h15.827v23.275h15.827v1.822h15.827v-7.102h15.827v-3.937h15.827v-.794h15.827v2.234h15.827v1.942h15.827v.844h15.827v7.088h15.827v12.742h15.827v22.21h15.827v13.3h15.827v7.462h15.827v7.7h15.827v11.785h15.827v8.419h15.827v5.878h15.827" fill="none" stroke="#995c00" stroke-miterlimit="10" stroke-width="1.33"/><path d="M731.786-452.5h15.827v-62.51h15.827v22.61h15.827v23.275h15.827v1.822h15.827v-7.102h15.827v-3.937h15.827v-.794h15.827v2.234h15.827v1.942h15.827v.844h15.827v7.088h15.827v12.742h15.827v22.21h15.827v13.3h15.827v7.462h15.827v7.7h15.827v11.785h15.827v8.419h15.827v5.878h15.827" fill="none" stroke="#995c00" stroke-miterlimit="10" stroke-width="1.33"/><path d="M731.786-377.488V-452.5h15.827v-62.51h15.827v22.61h15.827v23.275h15.827v1.822h15.827v-7.102h15.827v-3.937h15.827v-.794h15.827v2.234h15.827v1.942h15.827v.844h15.827v7.088h15.827v12.742h15.827v22.21h15.827v13.3h15.827v7.462h15.827v7.7h15.827v11.785h15.827v8.419h15.827v5.878h15.827v.228" fill="#f90" fill-rule="evenodd"/><path d="M731.786-452.5h15.827v-62.51h15.827v22.61h15.827v23.275h15.827v1.822h15.827v-7.102h15.827v-3.937h15.827v-.794h15.827v2.234h15.827v1.942h15.827v.844h15.827v7.088h15.827v12.742h15.827v22.21h15.827v13.3h15.827v7.462h15.827v7.7h15.827v11.785h15.827v8.419h15.827v5.878h15.827" fill="none" stroke="#995c00" stroke-miterlimit="10" stroke-width="1.33"/><path d="M731.786-377.488v-24.339h15.827v-24.871h15.827v4.881h15.827v9.097h15.827v1.822h15.827v-.56h15.827v-.142h15.827v-.82h15.827v2.249h15.827v1.622h15.827v2.846h15.827v3.285h15.827v.712h15.827v6.078h15.827v3.192h15.827v1.543h15.827v1.49h15.827v5.719h15.827v3.59h15.827v2.634h15.827v.004" fill="#fff" fill-rule="evenodd"/><path d="M731.786-401.96h15.827v-24.871h15.827v4.881h15.827v9.097h15.827v1.822h15.827v-.56h15.827v-.142h15.827v-.82h15.827v2.249h15.827v1.622h15.827v2.846h15.827v3.285h15.827v.712h15.827v6.078h15.827v3.192h15.827v1.543h15.827v1.49h15.827v5.719h15.827v3.59h15.827v2.634h15.827" fill="none" stroke="#1f7a1f" stroke-miterlimit="10" stroke-width="1.33"/><path d="M731.786-401.96h15.827v-24.871h15.827v4.881h15.827v9.097h15.827v1.822h15.827v-.56h15.827v-.142h15.827v-.82h15.827v2.249h15.827v1.622h15.827v2.846h15.827v3.285h15.827v.712h15.827v6.078h15.827v3.192h15.827v1.543h15.827v1.49h15.827v5.719h15.827v3.59h15.827v2.634h15.827" fill="none" stroke="#1f7a1f" stroke-miterlimit="10" stroke-width="1.33"/><path d="M731.786-377.488v-24.339h15.827v-24.871h15.827v4.881h15.827v9.097h15.827v1.822h15.827v-.56h15.827v-.142h15.827v-.82h15.827v2.249h15.827v1.622h15.827v2.846h15.827v3.285h15.827v.712h15.827v6.078h15.827v3.192h15.827v1.543h15.827v1.49h15.827v5.719h15.827v3.59h15.827v2.634h15.827v.004" fill="#3c3" fill-rule="evenodd"/><path d="M731.786-401.96h15.827v-24.871h15.827v4.881h15.827v9.097h15.827v1.822h15.827v-.56h15.827v-.142h15.827v-.82h15.827v2.249h15.827v1.622h15.827v2.846h15.827v3.285h15.827v.712h15.827v6.078h15.827v3.192h15.827v1.543h15.827v1.49h15.827v5.719h15.827v3.59h15.827v2.634h15.827" fill="none" stroke="#1f7a1f" stroke-miterlimit="10" stroke-width="1.33"/><path d="M731.786-377.488v-.597h15.827v-.885h15.827v-.18h15.827v-.04h15.827v-1.038h15.827v.106h15.827v.48h15.827v-.114h15.827v-.309h15.827v.06h15.827v-.135h15.827v.416h15.827v-.094h15.827v.246h15.827v-.375h15.827v.799h15.827v.077h15.827v.99h15.827v.26h15.827v.332h15.827" fill="#fff" fill-rule="evenodd"/><path d="M731.786-378.02h15.827v-.884h15.827v-.18h15.827v-.04h15.827v-1.039h15.827v.107h15.827v.48h15.827v-.115h15.827V-380h15.827v.06h15.827v-.135h15.827v.416h15.827v-.094h15.827v.246h15.827v-.375h15.827v.8h15.827v.077h15.827v.99h15.827v.26h15.827v.331h15.827" fill="none" stroke="#7a7a7a" stroke-miterlimit="10" stroke-width="1.33"/><path d="M731.786-378.02h15.827v-.884h15.827v-.18h15.827v-.04h15.827v-1.039h15.827v.107h15.827v.48h15.827v-.115h15.827V-380h15.827v.06h15.827v-.135h15.827v.416h15.827v-.094h15.827v.246h15.827v-.375h15.827v.8h15.827v.077h15.827v.99h15.827v.26h15.827v.331h15.827" fill="none" stroke="#7a7a7a" stroke-miterlimit="10" stroke-width="1.33"/><path d="M731.786-377.488v-.597h15.827v-.885h15.827v-.18h15.827v-.04h15.827v-1.038h15.827v.106h15.827v.48h15.827v-.114h15.827v-.309h15.827v.06h15.827v-.135h15.827v.416h15.827v-.094h15.827v.246h15.827v-.375h15.827v.799h15.827v.077h15.827v.99h15.827v.26h15.827v.332h15.827" fill="#ccc" fill-rule="evenodd"/><g fill="none" stroke-miterlimit="10"><path d="M731.786-378.02h15.827v-.884h15.827v-.18h15.827v-.04h15.827v-1.039h15.827v.107h15.827v.48h15.827v-.115h15.827V-380h15.827v.06h15.827v-.135h15.827v.416h15.827v-.094h15.827v.246h15.827v-.375h15.827v.8h15.827v.077h15.827v.99h15.827v.26h15.827v.331h15.827" stroke="#7a7a7a" stroke-width="1.33"/><g stroke="#000" stroke-width=".5"><path d="M731.786-377.488h317.87M731.786-382.808v5.333M739.766-380.148v2.673M747.746-380.148v2.673M755.593-380.148v2.673M763.573-380.148v2.673M771.553-380.148v2.673M779.4-380.148v2.673M787.38-380.148v2.673M795.36-380.148v2.673M803.207-380.148v2.673M811.32-382.808v5.333M819.3-380.148v2.673M827.28-380.148v2.673M835.26-380.148v2.673M843.24-380.148v2.673M851.22-380.148v2.673M859.2-380.148v2.673M867.18-380.148v2.673M875.16-380.148v2.673M883.14-380.148v2.673M891.12-382.808v5.333M899.1-380.148v2.673M907.08-380.148v2.673M915.06-380.148v2.673M921.71-380.148v2.673M929.69-380.148v2.673M937.67-380.148v2.673M945.65-380.148v2.673M953.63-380.148v2.673M961.61-380.148v2.673M969.59-382.808v5.333M977.57-380.148v2.673M985.55-380.148v2.673M993.53-380.148v2.673M1001.51-380.148v2.673M1009.49-380.148v2.673M1017.47-380.148v2.673M1025.45-380.148v2.673M1033.43-380.148v2.673M1041.41-380.148v2.673M1049.39-382.808v5.333M731.786-580.18h317.87M731.786-574.86v-5.333M739.766-577.52v-2.66M747.746-577.52v-2.66M755.593-577.52v-2.66M763.573-577.52v-2.66M771.553-577.52v-2.66M779.4-577.52v-2.66M787.38-577.52v-2.66M795.36-577.52v-2.66M803.207-577.52v-2.66M811.32-574.86v-5.333M819.3-577.52v-2.66M827.28-577.52v-2.66M835.26-577.52v-2.66M843.24-577.52v-2.66M851.22-577.52v-2.66M859.2-577.52v-2.66M867.18-577.52v-2.66M875.16-577.52v-2.66M883.14-577.52v-2.66M891.12-574.86v-5.333M899.1-577.52v-2.66M907.08-577.52v-2.66M915.06-577.52v-2.66M921.71-577.52v-2.66M929.69-577.52v-2.66M937.67-577.52v-2.66M945.65-577.52v-2.66M953.63-577.52v-2.66M961.61-577.52v-2.66M969.59-574.86v-5.333M977.57-577.52v-2.66M985.55-577.52v-2.66M993.53-577.52v-2.66M1001.51-577.52v-2.66M1009.49-577.52v-2.66M1017.47-577.52v-2.66M1025.45-577.52v-2.66M1033.43-577.52v-2.66M1041.41-577.52v-2.66M1049.39-574.86v-5.333M731.786-377.488v-202.16M737.638-377.488h-5.879M734.712-383.872h-2.94M734.712-389.99h-2.94M734.712-396.64h-2.94M734.712-403.29h-2.94M737.638-409.94h-5.879M734.712-416.59h-2.94M734.712-423.24h-2.94M734.712-428.56h-2.94M734.712-435.21h-2.94M737.638-441.86h-5.879M734.712-448.51h-2.94M734.712-455.16h-2.94M734.712-461.81h-2.94M734.712-468.46h-2.94M737.638-473.78h-5.879M734.712-480.43h-2.94M734.712-487.08h-2.94M734.712-493.73h-2.94M734.712-500.38h-2.94M737.638-507.03h-5.879M734.712-513.68h-2.94M734.712-519h-2.94M734.712-525.65h-2.94M734.712-532.3h-2.94M737.638-538.95h-5.879M734.712-545.6h-2.94M734.712-552.25h-2.94M734.712-557.57h-2.94M734.712-564.22h-2.94M737.638-570.87h-5.879M737.638-570.87h-5.879M734.712-577.52h-2.94M1049.39-377.488v-202.16M1044.07-377.488h5.879M1046.73-383.872h2.94M1046.73-389.99h2.94M1046.73-396.64h2.94M1046.73-403.29h2.94M1044.07-409.94h5.879M1046.73-416.59h2.94M1046.73-423.24h2.94M1046.73-428.56h2.94M1046.73-435.21h2.94M1044.07-441.86h5.879M1046.73-448.51h2.94M1046.73-455.16h2.94M1046.73-461.81h2.94M1046.73-468.46h2.94M1044.07-473.78h5.879M1046.73-480.43h2.94M1046.73-487.08h2.94M1046.73-493.73h2.94M1046.73-500.38h2.94M1044.07-507.03h5.879M1046.73-513.68h2.94M1046.73-519h2.94M1046.73-525.65h2.94M1046.73-532.3h2.94M1044.07-538.95h5.879M1046.73-545.6h2.94M1046.73-552.25h2.94M1046.73-557.57h2.94M1046.73-564.22h2.94M1044.07-570.87h5.879M1044.07-570.87h5.879M1046.73-577.52h2.94" stroke-width=".665"/></g></g><path transform="matrix(1.33 0 0 1.33 732 -589)" d="M.549-4.33q0-2.3 1.24-3.55 1.07-1.09 2.73-1.09 2.22 0 3.25 1.46.567.818.609 1.64h-1.84q-.179-.633-.46-.955-.501-.573-1.49-.573-1 0-1.58.812-.579.806-.579 2.29 0 1.48.609 2.22.615.734 1.56.734.967 0 1.47-.633.28-.34.465-1.02h1.82q-.239 1.44-1.22 2.34-.979.901-2.51.901-1.9 0-2.98-1.22-1.09-1.22-1.09-3.35zm15.01-4.471h2.64v8.8h-1.71v-5.95q0-.257.006-.716.006-.465.006-.716l-1.67 7.38h-1.78l-1.65-7.38q0 .251.006.716.006.46.006.716v5.95h-1.71v-8.8h2.67l1.6 6.92zm5.68 6.08q.084.603.328.901.448.543 1.53.543.65 0 1.06-.143.77-.275.77-1.02 0-.436-.382-.674-.382-.233-1.2-.412l-.931-.209q-1.37-.31-1.9-.674-.889-.609-.889-1.9 0-1.18.859-1.96t2.52-.782q1.39 0 2.37.74.985.734 1.03 2.14h-1.77q-.048-.794-.692-1.13-.43-.221-1.07-.221-.71 0-1.13.286-.424.286-.424.8 0 .471.418.704.269.155 1.15.364l1.52.364q.997.239 1.5.639.788.621.788 1.8 0 1.21-.925 2.01-.919.794-2.6.794-1.72 0-2.7-.782-.985-.788-.985-2.16z" clip-path="url(#w)" aria-label="CMS"/><path transform="matrix(1.33 0 0 1.33 769 -589)" d="M2.91-8.77h3.94q1.17 0 1.74.662.579.656.322 1.85-.215 1.03-1.02 1.79-.8.758-2.12.758h-2.76L2.23 0H1.04zm4.37 1.21q-.358-.185-1.04-.185H3.88l-.645 3.04h2.36q.8 0 1.37-.34.573-.34.758-1.2.203-.967-.436-1.31zm3.04 1.17h1.02l-.233 1.1q.191-.322.776-.782.591-.465 1.23-.465.03 0 .101.006t.239.024l-.239 1.13q-.096-.018-.173-.024-.078-.006-.173-.006-.812 0-1.36.525-.543.519-.692 1.2l-.776 3.68H8.97zm8.78 1q.221.483.191 1.13.006.442-.203 1.41h-4.68q-.179.973.125 1.56.31.585 1.21.585.841 0 1.46-.555.358-.322.567-.746h1.06q-.119.352-.448.788-.322.43-.674.704-.591.477-1.35.645-.412.096-.901.096-1.19 0-1.84-.865-.645-.871-.31-2.43.328-1.54 1.37-2.5 1.04-.962 2.39-.962.68 0 1.25.322.573.316.794.824zm-.937 1.68q.084-.698-.066-1.12-.275-.776-1.31-.776-.74 0-1.35.537-.615.531-.824 1.35zm3.53-5.06h1.07L20.903 0h-1.07zm2.17 2.4h1.09l-1.35 6.36h-1.09zm.513-2.4h1.09l-.263 1.22h-1.09zm2.21 2.38h1.06l-.191.907q.483-.471.835-.686.609-.364 1.28-.364.764 0 1.15.376.215.215.34.633.471-.513 1-.758.537-.251 1.14-.251 1.29 0 1.56.931.143.501-.036 1.35l-.9 4.25h-1.12l.942-4.44q.131-.639-.137-.877t-.728-.239q-.633 0-1.18.424-.543.424-.752 1.41l-.788 3.72h-1.09l.883-4.17q.137-.65.048-.949-.15-.448-.818-.448-.61 0-1.21.471-.597.471-.86 1.71L26.3 0h-1.07zm10.2.03h1.09L36.526 0h-1.09zm.513-2.4h1.09l-.263 1.22h-1.09zm2.21 2.38h1.02l-.191.907q.573-.561 1.13-.806.561-.245 1.18-.245 1.36 0 1.64.949.155.519-.048 1.49l-.87 4.1h-1.09l.852-4.03q.125-.585.03-.943-.16-.597-.913-.597-.382 0-.645.077-.47.131-.889.525-.334.316-.489.656-.149.334-.28.961l-.71 3.35h-1.07zm7.55 5.69q.567 0 1.16-.263.985-.436 1.2-1.43l.179-.865q-.221.125-.549.209-.328.083-.633.119l-.668.083q-.603.078-.931.245-.555.28-.686.895-.101.465.179.734.286.27.752.27zm2.13-3.17q.382-.048.567-.31.101-.143.155-.412.119-.55-.221-.794-.34-.251-1.07-.251-.841 0-1.29.454-.251.25-.412.746h-1q.28-1.18 1.12-1.64.835-.465 1.81-.465 1.13 0 1.74.43t.418 1.34l-.782 3.68q-.036.167.006.269.048.1.269.1.072 0 .161-.005.096-.012.203-.03l-.173.794q-.263.072-.4.09-.131.017-.358.017-.555 0-.722-.394-.09-.209-.06-.59-.424.43-1.1.745-.68.316-1.42.316-.889 0-1.34-.537-.448-.543-.275-1.35.191-.889.847-1.38.662-.489 1.59-.603zm3.94-2.52h1.02l-.233 1.1q.191-.322.776-.782.591-.465 1.23-.465.03 0 .101.006.072.006.239.024l-.239 1.13q-.096-.018-.173-.024-.078-.006-.173-.006-.812 0-1.36.525-.543.519-.692 1.2l-.776 3.68h-1.07zm8.03 0h1.19q-.358.615-1.61 2.8-.931 1.65-1.55 2.69-1.46 2.45-1.95 2.98-.495.537-1.43.537-.227 0-.346-.018-.119-.018-.286-.066l.209-.979q.263.078.382.096.125.018.221.018.298 0 .46-.101.161-.096.286-.24.042-.047.316-.488.28-.442.412-.656l-.967-6.58h1.22l.609 5.2z" clip-path="url(#x)" aria-label="Preliminary"/><path transform="matrix(1.33 0 0 1.33 792 -560)" d="M3.79-5.84q1.13 0 1.76.813.64.813.64 2.1 0 1.33-.629 2.21-.629.876-1.76.876-.708 0-1.14-.283-.257-.168-.556-.587v.718H.645v-7.72h1.49v2.75q.283-.399.624-.608.404-.262 1.03-.262zm-.383 4.76q.577 0 .897-.467.32-.467.32-1.23 0-.608-.157-1.01-.299-.755-1.1-.755-.813 0-1.12.739-.157.393-.157 1.02 0 .734.325 1.22t.991.482zm3.41-2.62h3.01v1.42h-3.01zm3.44-.897v-1.06h.797v-1.59h1.48v1.59h.928v1.06h-.928v3.02q0 .351.09.441.088.084.544.084h.142l.152-.01v1.12l-.708.026q-1.06.036-1.45-.367-.252-.257-.252-.792v-3.52zm7.32 1.82q-.142.09-.288.147-.142.052-.393.1l-.336.062q-.472.084-.677.205-.346.205-.346.635 0 .383.21.556.215.168.519.168.482 0 .886-.283.409-.283.425-1.03zm-.907-.697q.414-.052.593-.131.32-.136.32-.425 0-.351-.246-.482-.241-.136-.713-.136-.53 0-.75.262-.157.194-.21.524h-1.44q.047-.75.42-1.23.593-.755 2.03-.755.939 0 1.67.372t.729 1.41v2.62q0 .273.01.661.016.294.09.399t.22.173v.22h-1.63q-.068-.173-.095-.325-.026-.152-.042-.346-.309.336-.713.572-.482.278-1.09.278-.776 0-1.28-.441-.503-.446-.503-1.26 0-1.05.813-1.53.446-.257 1.31-.367zM22.849-1.224q.524 0 .886-.393.362-.399.362-1.26 0-.813-.346-1.24-.341-.425-.918-.425-.787 0-1.09.739-.157.393-.157.97 0 .498.168.886.304.724 1.09.724zm-.372-4.63q.43 0 .75.131.545.226.88.829v-.823h1.45v5.42q0 1.11-.371 1.67-.64.965-2.45.965-1.1 0-1.79-.43-.692-.43-.766-1.28h1.63q.063.262.205.378.24.205.813.205.808 0 1.08-.54.178-.346.178-1.16v-.367q-.215.367-.461.551-.446.341-1.16.341-1.1 0-1.76-.771-.656-.776-.656-2.1 0-1.27.635-2.14.635-.871 1.8-.871z" clip-path="url(#y)" aria-label="b-tag"/><path transform="matrix(1.33 0 0 1.33 754 -560)" d="M2.26-6.4H.77v-1.38h1.49zM.05 1.09q.126.01.178.01.052.006.094.006.22 0 .33-.11Q.767.89.767.582v-6.28h1.49v6.3q0 .865-.34 1.28t-1.34.414q-.069 0-.206-.006-.13-.005-.33-.01zm5.89-5.73q-.519 0-.808.325-.283.325-.357.881h2.32q-.037-.593-.362-.897-.32-.309-.797-.309zm0-1.23q.713 0 1.28.267.572.267.944.844.336.509.435 1.18.058.393.047 1.13h-3.91q.032.86.54 1.21.31.215.745.215.461 0 .75-.262.157-.142.278-.393h1.53q-.058.509-.53 1.03-.734.834-2.06.834-1.09 0-1.92-.703-.834-.703-.834-2.29 0-1.48.75-2.28.755-.792 1.96-.792zM9.065-4.6v-1.06h.797v-1.59h1.48v1.59h.928v1.06h-.928v3.02q0 .351.09.441.088.084.544.084h.142l.152-.01v1.12l-.708.026q-1.06.036-1.45-.367-.252-.257-.252-.792v-3.52zm5.33 2.77q.047.399.205.566.278.299 1.03.299.441 0 .697-.131.262-.131.262-.393 0-.252-.21-.383t-1.56-.451q-.97-.241-1.37-.603-.399-.357-.399-1.03 0-.792.619-1.36.624-.572 1.75-.572 1.07 0 1.74.43.677.425.776 1.47h-1.49q-.032-.288-.163-.456-.246-.304-.839-.304-.488 0-.697.152-.205.152-.205.357 0 .257.22.372.22.121 1.56.414.892.21 1.34.635.441.43.441 1.08 0 .85-.635 1.39-.629.535-1.95.535-1.35 0-1.99-.566-.64-.572-.64-1.45zm7.84-3.416v-1.02q.708-.032.991-.094.451-.1.734-.4.194-.204.294-.544.058-.205.058-.304h1.24v7.6h-1.53v-5.24z" clip-path="url(#z)" aria-label="jets 1"/><path transform="matrix(1.33 0 0 1.33 744 -560)" d="M.336 0q.021-.818.351-1.49.32-.76 1.51-1.61 1.03-.739 1.34-1.06.467-.498.467-1.09 0-.482-.267-.802-.267-.32-.766-.32-.682 0-.928.509-.142.294-.168.933H.425Q.462-5.9.776-6.5q.598-1.14 2.12-1.14 1.21 0 1.92.671.713.666.713 1.77 0 .844-.503 1.5-.33.435-1.09.97l-.598.425q-.561.399-.771.577-.205.178-.346.414h3.32v1.32z" clip-path="url(#A)" aria-label="2"/><path transform="matrix(1.33 0 0 1.33 816 -540)" d="M4.15-7.9q1.09 0 1.88.42 1.15.603 1.41 2.11H6.41q-.189-.844-.781-1.23-.593-.388-1.49-.388-1.07 0-1.8.802-.729.802-.729 2.39 0 1.37.603 2.24.603.86 1.97.86 1.04 0 1.73-.603.687-.608.703-1.96h-2.41v-.865h3.38v4.12h-.671l-.252-.991q-.53.582-.939.808-.687.388-1.75.388-1.37 0-2.35-.886-1.08-1.11-1.08-3.05 0-1.94 1.05-3.08.996-1.09 2.58-1.09zm7.237 2.16q.598 0 1.16.282.561.278.855.724.283.425.378.991.084.388.084 1.24h-4.12q.026.855.404 1.37.378.514 1.17.514.739 0 1.18-.488.252-.283.357-.656h.928q-.037.31-.246.692-.205.378-.461.62-.43.42-1.06.565-.341.084-.771.084-1.05 0-1.78-.76-.73-.766-.73-2.14 0-1.35.735-2.2.734-.844 1.92-.844zm1.51 2.49q-.058-.615-.267-.982-.388-.682-1.3-.682-.65 0-1.09.472-.441.467-.467 1.19zm2.87-4.45 2.21 6.56 2.19-6.56h1.17L18.527 0h-1.11l-2.81-7.7z" clip-path="url(#B)" aria-label="GeV"/><path transform="matrix(1.33 0 0 1.33 799 -540)" d="M1.33-1.91q.094.808.75 1.12.336.157.776.157.839 0 1.24-.535.404-.535.404-1.19 0-.787-.482-1.22-.477-.43-1.15-.43-.488 0-.839.189-.346.189-.593.524l-.818-.047.572-4.04h3.9v.913H1.9l-.32 2.09q.262-.2.498-.3.42-.172.97-.172 1.03 0 1.75.666.718.666.718 1.69 0 1.06-.661 1.88-.656.813-2.1.813-.918 0-1.63-.514-.703-.52-.787-1.59zm7.55-5.6q1.46 0 2.11 1.2.503.928.503 2.54 0 1.53-.456 2.53Q10.376.2 8.877.2q-1.35 0-2.01-1.17-.551-.981-.551-2.63 0-1.28.33-2.2.619-1.71 2.24-1.71zM8.87-.66q.733 0 1.17-.65.434-.65.434-2.42 0-1.28-.315-2.1-.315-.829-1.22-.829-.834 0-1.22.787-.383.781-.383 2.31 0 1.15.246 1.85.378 1.06 1.29 1.06z" clip-path="url(#C)" aria-label="50"/><path transform="matrix(1.33 0 0 1.33 787 -540)" d="M6.28-2.3.15.1v-.944l5.01-1.9-5.01-1.89v-.944l6.13 2.4z" clip-path="url(#D)" aria-label="&gt;"/><path transform="matrix(1.33 0 0 1.33 762 -540)" d="M3.18-7.83q-.823 1.6-1.07 2.35-.372 1.15-.372 2.65 0 1.52.425 2.78.262.776 1.03 2.23h-.635Q1.792.98 1.609.65 1.425.32 1.21-.247q-.294-.776-.409-1.66-.058-.456-.058-.871 0-1.55.488-2.76.31-.771 1.29-2.31zm1.73.126 1.45 6.27 1.74-6.27h1.13l1.74 6.27 1.45-6.27h1.14l-2.02 7.7h-1.1l-1.78-6.39-1.79 6.39h-1.1l-2.01-7.7zm9.18 9.9q.834-1.63 1.08-2.37.367-1.13.367-2.64t-.425-2.77q-.262-.776-1.03-2.23h.635q.808 1.29.975 1.59.173.299.372.829.252.656.357 1.3.11.64.11 1.23 0 1.55-.493 2.77-.309.781-1.28 2.3z" clip-path="url(#E)" aria-label="(W)"/><path transform="matrix(1.33 0 0 1.33 756 -537)" d="M4.43-5.31v.633H2.64v4.68h-.731v-4.68H.119v-.633z" clip-path="url(#F)" aria-label="T"/><path transform="matrix(1.33 0 0 1.33 744 -540)" d="M1.88-5.62h.933l-.168.797q.425-.414.734-.603.535-.32 1.13-.32.671 0 1.01.33.189.189.299.556.414-.451.881-.666.472-.22 1-.22 1.13 0 1.37.818.126.441-.032 1.19L8.245.002h-.98l.829-3.9q.115-.561-.121-.771t-.64-.21q-.556 0-1.04.372-.477.372-.661 1.24L4.94.003h-.96l.776-3.67q.12-.572.042-.834-.131-.393-.718-.393-.535 0-1.06.414-.524.414-.755 1.5L1.635 0H.693z" clip-path="url(#G)" aria-label="m"/><path transform="matrix(1.33 0 0 1.33 1016 -589)" d="M7.31-8.77v1.04H4.36v7.72H3.15v-7.72H.2v-1.04zm3.61 2.23q.68 0 1.32.322.639.316.973.824.322.483.43 1.13.096.442.096 1.41h-4.68q.03.973.46 1.56.43.585 1.33.585.84 0 1.34-.555.286-.322.406-.746h1.06q-.042.352-.28.788-.233.43-.525.704-.49.477-1.21.645-.388.096-.877.096-1.19 0-2.02-.865-.83-.871-.83-2.43 0-1.54.835-2.5.835-.961 2.18-.961zm1.71 2.83q-.066-.698-.304-1.12-.442-.776-1.47-.776-.74 0-1.24.537-.501.531-.531 1.35zM15.89-8.77l2.52 7.47 2.49-7.47h1.33L19.03 0h-1.26l-3.19-8.77zm6.95 11.3q.949-1.85 1.22-2.7.418-1.28.418-3.01 0-1.72-.483-3.16-.298-.883-1.18-2.54h.722q.919 1.47 1.11 1.81.197.34.424.943.286.746.406 1.47.125.728.125 1.4 0 1.77-.561 3.15-.352.889-1.46 2.62z" clip-path="url(#H)" aria-label="TeV)"/><path transform="matrix(1.33 0 0 1.33 990 -589)" d="M3.62-8.91Q2.683-7.09 2.4-6.23q-.424 1.31-.424 3.02 0 1.73.483 3.16.298.883 1.18 2.54h-.722Q2.046 1.13 1.837.75 1.628.374 1.383-.27q-.334-.883-.465-1.89-.066-.519-.066-.991 0-1.77.555-3.14.352-.877 1.47-2.63zm1.62 2.86v-.824q1.16-.113 1.62-.376.46-.269.686-1.26h.847V0h-1.15v-6.05zm8.8 6.28q-1.52 0-2.2-.83-.68-.835-.68-2.03h1.12q.072.83.31 1.21.418.674 1.51.674.847 0 1.36-.454.513-.454.513-1.17 0-.883-.543-1.24-.537-.352-1.5-.352-.107 0-.221.006-.107 0-.221.006v-.95q.167.019.28.025.113.006.245.006.603 0 .991-.191.68-.334.68-1.19 0-.64-.454-.985-.454-.346-1.06-.346-1.07 0-1.49.716-.227.394-.257 1.12h-1.06q0-.955.382-1.62.656-1.19 2.31-1.19 1.31 0 2.02.585.716.579.716 1.68 0 .788-.424 1.28-.263.304-.68.477.674.185 1.05.716.382.525.382 1.29 0 1.22-.806 1.99t-2.29.77z" clip-path="url(#I)" aria-label="(13"/><path transform="matrix(1.33 0 0 1.33 978 -595)" d="M.354-2.76h2.09v.769H.354zm3.3-1.46v-.574q.811-.079 1.13-.262.32-.187.478-.878h.591v5.93h-.799v-4.22z" clip-path="url(#J)" aria-label="-1"/><path transform="matrix(1.33 0 0 1.33 965 -589)" d="M1.06-7.36q.024-.668.233-.979.376-.549 1.45-.549.101 0 .209.006.107.006.245.018v.979q-.167-.012-.245-.012-.072-.006-.137-.006-.489 0-.585.257-.095.251-.095 1.29h1.06v.847h-1.07v5.51h-1.06v-5.51h-.89v-.847h.89zm3.05-1.43h1.04v3.18q.352-.46.841-.698.489-.245 1.06-.245 1.19 0 1.93.824.746.818.746 2.42 0 1.52-.734 2.52t-2.03 1q-.728 0-1.23-.352-.298-.209-.639-.668v.818h-.991zM6.9-.74q.871 0 1.3-.692.436-.692.436-1.83 0-1.01-.436-1.67-.43-.662-1.27-.662-.734 0-1.29.543-.549.543-.549 1.79 0 .901.227 1.46.424 1.06 1.58 1.06z" clip-path="url(#K)" aria-label="fb"/><path transform="matrix(1.33 0 0 1.33 940 -589)" d="M.382 0q.06-1.1.454-1.92.4-.818 1.55-1.49l1.15-.662q.77-.448 1.08-.764.489-.495.489-1.13 0-.746-.448-1.18-.448-.442-1.19-.442-1.1 0-1.53.835-.227.448-.251 1.24H.596q.018-1.12.412-1.82.698-1.24 2.46-1.24 1.47 0 2.14.794.68.794.68 1.77 0 1.03-.722 1.75-.418.424-1.5 1.03l-.818.454q-.585.322-.919.615-.597.519-.752 1.15h4.67V0zm7.46-1.3h1.25V0h-1.25zm5.53 1.53q-1.52 0-2.2-.83-.68-.835-.68-2.03h1.12q.072.83.31 1.21.418.674 1.51.674.847 0 1.36-.454.513-.454.513-1.17 0-.883-.543-1.24-.537-.352-1.5-.352-.107 0-.221.006-.107 0-.221.006v-.95q.167.019.28.025.113.006.245.006.603 0 .991-.191.68-.334.68-1.19 0-.64-.454-.985-.454-.346-1.06-.346-1.07 0-1.49.716-.227.394-.257 1.12h-1.06q0-.955.382-1.62.656-1.19 2.31-1.19 1.31 0 2.02.585.716.579.716 1.68 0 .788-.424 1.28-.263.304-.68.477.674.185 1.05.716.382.525.382 1.29 0 1.22-.806 1.99t-2.29.77z" clip-path="url(#L)" aria-label="2.3"/><g fill="none" stroke="#a6a6a6" stroke-miterlimit="10" stroke-width=".5"><path d="m747.48-456.49.164.164M744.554-456.49l3.152 3.165M741.495-456.49l6.158 6.158M738.569-456.49l8.18 8.18M735.51-456.49l8.18 8.18M732.584-456.49l8.18 8.18M731.786-455.16l5.932 5.932M731.786-451.17l2.94 2.94M763.041-521.66l.527.528M760.115-521.66l3.525 3.524M757.056-521.66l6.517 6.517M753.997-521.66l9.51 9.51M751.071-521.66l11.864 11.864M748.012-521.66l11.864 11.864M747.746-519l9.257 9.257M747.746-516.34l6.264 6.264M747.746-513.68l3.272 3.272M747.746-511.02l.273.273M776.474-500.38l2.953 2.953M773.548-500.38l5.945 5.945M770.489-500.38l8.938 8.938M767.563-500.38l10.627 10.64M764.504-500.38l10.627 10.64M763.573-497.72l8.592 8.592M763.573-495.06l5.6 5.6M763.573-492.4l2.607 2.607M794.296-476.44l.978.979M791.37-476.44l3.977 3.977M788.311-476.44l6.97 6.97M785.385-476.44l9.217 9.217M782.326-476.44l9.217 9.217M779.4-476.44l9.15 9.15M779.4-472.45l6.145 6.145M779.4-469.79l3.152 3.152M779.4-467.13l.16.16M809.99-475.11l.72.72M807.33-475.11l3.71 3.71M804.537-475.11l6.703 6.703M801.478-475.11l8.898 8.898M798.552-475.11l8.898 8.898M795.493-475.11l8.898 8.898M795.36-472.45l6.091 6.091M795.36-468.46l3.099 3.099M795.36-465.8l.104.104M825.95-483.09l1.294 1.293M823.29-483.09l4.283 4.283M819.3-483.09l7.288 7.288M816.64-483.09l9.59 9.59M813.98-483.09l9.59 9.59M811.32-483.09l9.204 9.204M811.32-480.43l6.198 6.198M811.32-476.44l3.205 3.205M811.32-473.78l.217.217M841.91-488.41l1.383 1.383M839.25-488.41l4.376 4.376M835.26-488.41l7.368 7.368M832.6-488.41l10.188 10.188M829.94-488.41l10.188 10.188M827.28-488.41l9.722 9.722M827.28-485.75l6.73 6.73M827.28-481.76l3.724 3.737M827.28-479.1l.737.737M857.87-489.74l.968.967M855.21-489.74l3.963 3.963M852.55-489.74l6.956 6.956M848.56-489.74l9.948 9.948M845.9-489.74l10.387 10.387M843.24-489.74l10.32 10.32M843.24-487.08l7.328 7.328M843.24-484.42l4.336 4.336M843.24-481.76l1.343 1.343M875.16-488.41l.186.186M871.17-488.41l3.179 3.179M868.51-488.41l6.171 6.171M865.85-488.41l9.164 9.164M863.19-488.41l9.789 9.789M859.2-488.41l9.802 9.789M859.2-485.75l7.528 7.528M859.2-483.09l4.522 4.522M859.2-480.43l1.53 1.53M889.79-488.41l1.043 1.043M887.13-488.41l4.043 4.043M883.14-488.41l7.036 7.036M880.48-488.41l10.028 10.028M877.82-488.41l11.717 11.717M875.16-488.41l11.584 11.584M875.16-485.75l8.592 8.592M875.16-483.09l5.6 5.6M875.16-479.1l2.607 2.607M905.75-487.08l.992.99M903.09-487.08l3.99 3.99M899.1-487.08l6.982 6.982M896.44-487.08l8.512 8.512M893.78-487.08l8.512 8.512M891.12-487.08l8.432 8.432M891.12-484.42l5.44 5.44M891.12-481.76l2.447 2.447M921.71-483.09l.2.2M919.05-483.09l3.192 3.192M916.39-483.09l6.185 6.184M913.73-483.09l9.177 9.177M909.74-483.09l10.135 10.135M907.08-483.09l10.135 10.135M907.08-480.43l7.847 7.847M907.08-477.77l4.854 4.854M907.08-475.11l1.862 1.862M937.67-471.12l.74.74M935.01-471.12l3.737 3.737M931.02-471.12l6.73 6.73M928.36-471.12l9.722 9.722M925.7-471.12l11 11M923.04-471.12l11 11M921.71-467.13l8.166 8.18M921.71-464.47l5.174 5.174M921.71-461.81l2.181 2.181M952.3-447.18l1.596 1.596M949.64-447.18l4.589 4.589M946.98-447.18l6.77 6.77M942.99-447.18l6.77 6.77M940.33-447.18l6.77 6.77M937.67-445.85l6.091 6.091M937.67-443.19l3.086 3.086M937.67-440.53l.097.097M968.26-433.88l2.128 2.128M964.27-433.88l5.12 5.12M961.61-433.88l6.29 6.29M958.95-433.88l6.29 6.29M956.29-433.88l6.29 6.29M953.63-432.55l5.067 5.067M953.63-429.89l2.075 2.075M982.89-427.23l2.673 2.673M980.23-427.23l5.586 5.586M977.57-427.23l5.586 5.586M973.58-427.23l5.586 5.586M970.92-427.23l5.586 5.586M969.59-425.9l3.83 3.83M969.59-423.24l.833.831M998.85-420.58l2.94 2.94M996.19-420.58l4.841 4.841M992.2-420.58l4.841 4.841M989.54-420.58l4.841 4.841M986.88-420.58l4.841 4.841M985.55-419.25l2.806 2.806M1016.14-409.94l1.326 1.325M1013.48-409.94l4.322 4.322M1010.82-409.94l4.402 4.402M1006.83-409.94l4.402 4.402M1004.17-409.94l4.402 4.402M1001.51-409.94l3.99 3.99M1001.51-405.95l.996.995M1033.43-399.3l.16.16M1030.77-399.3l3.152 3.152M1026.78-399.3l3.591 3.578M1024.12-399.3l3.578 3.578M1021.46-399.3l3.591 3.578M1018.8-399.3l3.591 3.578M1017.47-396.64l1.33 1.33M1046.73-379.35l.606.606M1044.07-379.35l.606.606M1040.08-379.35l.606.606M1037.42-379.35l.606.606M1034.76-379.35l.606.606" stroke-width=".665"/></g><path d="M736.973-452.5c0-3.684 5.52-3.684 5.52 0 0 3.67-5.52 3.67-5.52 0z"/><path d="M755.593-509.69v-.49M755.593-515.01v-.49" fill="none" stroke="#000" stroke-miterlimit="10" stroke-width=".665"/><path d="M752.933-512.35c0-3.67 5.52-3.67 5.52 0s-5.52 3.67-5.52 0z"/><path d="M771.553-491.07v-.277M771.553-496.39v-.277" fill="none" stroke="#000" stroke-miterlimit="10" stroke-width=".665"/><path d="M768.76-493.73c0-3.67 5.52-3.67 5.52 0 0 3.684-5.52 3.684-5.52 0zM784.587-469.79c0-3.67 5.52-3.67 5.52 0s-5.52 3.67-5.52 0zM800.547-464.47c0-3.684 5.52-3.684 5.52 0 0 3.67-5.52 3.67-5.52 0z"/><path d="M819.3-475.11v-.088M819.3-480.43v-.09" fill="none" stroke="#000" stroke-miterlimit="10" stroke-width=".665"/><path d="M816.64-477.77c0-3.67 5.52-3.67 5.52 0 0 3.684-5.52 3.684-5.52 0z"/><path d="M835.26-479.1v-.132M835.26-484.42v-.13" fill="none" stroke="#000" stroke-miterlimit="10" stroke-width=".665"/><path d="M832.6-481.76c0-3.67 5.52-3.67 5.52 0 0 3.684-5.52 3.684-5.52 0z"/><path d="M851.22-479.1v-.126M851.22-484.42v-.126" fill="none" stroke="#000" stroke-miterlimit="10" stroke-width=".665"/><path d="M848.56-481.76c0-3.67 5.52-3.67 5.52 0 0 3.684-5.52 3.684-5.52 0z"/><path d="M867.18-475.11v-.088M867.18-480.43v-.09" fill="none" stroke="#000" stroke-miterlimit="10" stroke-width=".665"/><path d="M864.52-477.77c0-3.67 5.52-3.67 5.52 0 0 3.684-5.52 3.684-5.52 0z"/><path d="M883.14-475.11v-.073M883.14-479.1v-.073" fill="none" stroke="#000" stroke-miterlimit="10" stroke-width=".665"/><path d="M880.48-476.44c0-3.67 5.52-3.67 5.52 0 0 3.684-5.52 3.684-5.52 0z"/><path d="M899.1-477.77v-.122M899.1-483.09v-.121" fill="none" stroke="#000" stroke-miterlimit="10" stroke-width=".665"/><path d="M896.44-480.43c0-3.684 5.52-3.684 5.52 0 0 3.67-5.52 3.67-5.52 0z"/><path d="M915.06-479.1v-.138M915.06-484.42v-.138" fill="none" stroke="#000" stroke-miterlimit="10" stroke-width=".665"/><path d="M911.07-481.76c0-3.67 5.52-3.67 5.52 0s-5.52 3.67-5.52 0zM927.03-463.14c0-3.67 5.52-3.67 5.52 0 0 3.684-5.52 3.684-5.52 0zM942.99-445.85c0-3.684 5.52-3.684 5.52 0 0 3.67-5.52 3.67-5.52 0zM958.95-432.55c0-3.684 5.52-3.684 5.52 0 0 3.67-5.52 3.67-5.52 0zM974.91-424.57c0-3.67 5.52-3.67 5.52 0 0 3.684-5.52 3.684-5.52 0zM990.87-419.25c0-3.67 5.52-3.67 5.52 0s-5.52 3.67-5.52 0zM1006.83-407.28c0-3.67 5.52-3.67 5.52 0s-5.52 3.67-5.52 0zM1022.79-399.3c0-3.684 5.52-3.684 5.52 0 0 3.67-5.52 3.67-5.52 0zM1038.75-379.483c0-3.684 5.52-3.684 5.52 0s-5.52 3.684-5.52 0z"/><path transform="matrix(1.33 0 0 1.33 974 -560)" d="M3.65-.861q.511 0 .841-.106.587-.197.962-.76.299-.451.43-1.15.076-.42.076-.78 0-1.38-.552-2.15-.547-.765-1.77-.765h-1.79v5.71zM.84-7.441h3.01q1.53 0 2.38 1.09.754.982.754 2.52 0 1.18-.446 2.14-.785 1.69-2.7 1.69h-3zm8.02 6q0 .395.289.623.289.228.684.228.481 0 .932-.223.76-.37.76-1.21v-.734q-.167.106-.43.177-.263.07-.516.101l-.552.07q-.496.067-.744.209-.42.238-.42.76zm2.21-1.84q.314-.04.42-.263.06-.122.06-.349 0-.466-.333-.673-.33-.213-.947-.213-.714 0-1.01.385-.167.213-.218.633H8.19q.025-1 .648-1.39.628-.395 1.45-.395.957 0 1.55.365.592.365.592 1.13v3.12q0 .142.056.228.06.086.248.086.06 0 .137-.005.076-.01.162-.025v.673q-.213.06-.324.076-.111.015-.304.015-.471 0-.684-.334-.111-.177-.157-.501-.278.365-.8.633t-1.15.268q-.754 0-1.24-.456-.476-.461-.476-1.15 0-.754.47-1.17.472-.415 1.24-.511zm3.046-3.65h.922v1.51h.866v.744h-.866v3.54q0 .284.192.38.106.056.354.056h.142q.076-.005.177-.016v.72q-.157.045-.329.065-.167.02-.365.02-.638 0-.866-.323-.228-.33-.228-.851v-3.59h-.734v-.744h.734zm3.4 5.49q0 .395.289.623.289.228.684.228.481 0 .932-.223.76-.37.76-1.21v-.734q-.167.106-.43.177-.263.07-.516.101l-.552.07q-.496.067-.744.209-.42.238-.42.76zm2.21-1.84q.314-.04.42-.263.06-.122.06-.349 0-.466-.333-.673-.33-.213-.947-.213-.714 0-1.01.385-.167.213-.218.633h-.851q.025-1 .648-1.39.628-.395 1.45-.395.957 0 1.55.365.592.365.592 1.13v3.12q0 .142.056.228.06.086.248.086.06 0 .137-.005.076-.01.162-.025v.673q-.213.06-.324.076-.111.015-.304.015-.471 0-.684-.334-.111-.177-.157-.501-.278.365-.8.633t-1.15.268q-.754 0-1.24-.456-.476-.461-.476-1.15 0-.754.47-1.17.472-.415 1.24-.511z" clip-path="url(#M)" aria-label="Data"/><path d="M961.61-562.89c0-3.684 5.52-3.684 5.52 0 0 3.67-5.52 3.67-5.52 0z"/><path transform="matrix(1.33 0 0 1.33 980 -540)" d="M.43-3.36h2.54v.937H.43zm5.78-2.22q.916 0 1.49.446.577.446.694 1.53h-.886q-.081-.501-.37-.83-.289-.334-.927-.334-.871 0-1.25.851-.243.552-.243 1.36 0 .815.344 1.37.344.557 1.08.557.567 0 .896-.344.334-.349.461-.952h.886q-.152 1.08-.76 1.58-.608.496-1.55.496-1.06 0-1.7-.775-.633-.78-.633-1.94 0-1.43.694-2.22t1.77-.795zM9.308-7.465h.911v2.77q.324-.41.582-.577.441-.289 1.1-.289 1.18 0 1.6.825.228.451.228 1.25v3.48h-.937v-3.42q0-.597-.152-.876-.248-.446-.932-.446-.567 0-1.03.39-.461.39-.461 1.47v2.88h-.911zm6.46 6.02q0 .395.289.623.289.228.684.228.481 0 .932-.223.76-.37.76-1.21v-.734q-.167.106-.43.177t-.516.101l-.552.071q-.496.066-.744.208-.42.238-.42.76zm2.21-1.84q.314-.04.42-.263.06-.122.06-.349 0-.466-.333-.673-.33-.213-.947-.213-.714 0-1.01.385-.167.213-.218.633h-.851q.025-1 .648-1.39.628-.395 1.45-.395.957 0 1.55.365.592.365.592 1.13v3.12q0 .142.056.228.06.086.248.086.06 0 .137-.005.076-.01.162-.025v.673q-.213.06-.324.076-.111.015-.304.015-.471 0-.684-.334-.111-.177-.157-.5-.278.364-.8.632t-1.15.268q-.754 0-1.24-.456-.476-.46-.476-1.15 0-.754.47-1.17.472-.415 1.24-.51zm2.856-2.138h.866v.77q.385-.476.815-.684.43-.208.957-.208 1.15 0 1.56.805.223.441.223 1.26V0h-.927v-3.42q0-.496-.147-.8-.243-.506-.881-.506-.324 0-.532.066-.375.111-.658.446-.228.268-.299.557-.066.284-.066.815v2.84h-.91zm5.76 0h.866v.77q.385-.476.815-.684.43-.208.957-.208 1.15 0 1.56.805.223.441.223 1.26V0h-.927v-3.42q0-.496-.147-.8-.243-.506-.881-.506-.324 0-.532.066-.375.111-.658.446-.228.268-.299.557-.066.284-.066.815v2.84h-.91zM34.614-5.545q.577 0 1.12.273.542.268.825.7.273.41.365.956.081.375.081 1.19h-3.97q.025.825.39 1.33.365.496 1.13.496.714 0 1.14-.47.243-.274.344-.634h.896q-.035.3-.238.668-.197.365-.446.597-.415.405-1.03.547-.329.081-.744.081-1.01 0-1.72-.734-.704-.739-.704-2.07 0-1.31.709-2.12.709-.815 1.85-.815zm1.45 2.4q-.056-.592-.258-.947-.375-.658-1.25-.658-.628 0-1.05.456-.425.451-.451 1.15zm2.08-4.29h.911v7.44h-.911z" clip-path="url(#N)" aria-label="-channel"/><path transform="matrix(1.33 0 0 1.33 974 -540)" d="M2.32-6.94h.922l-.324 1.51h.866l-.157.744h-.866l-.754 3.54q-.06.284.111.38.096.056.344.056h.142q.076-.005.182-.016l-.152.72q-.167.045-.344.065-.172.02-.37.02-.638 0-.8-.323-.157-.33-.046-.851l.765-3.59h-.734l.157-.744h.734z" clip-path="url(#O)" aria-label="t"/><path d="M957.62-536.29h13.034v-13.965H957.62" fill="#d40d00" fill-rule="evenodd"/><g fill="none" stroke="#7f0800" stroke-miterlimit="10"><path d="M957.62-549.59h13.034M957.62-536.29h13.034M970.92-536.29v-13.965M957.62-536.29v-13.965" stroke-width="1.33"/></g><path transform="matrix(1.33 0 0 1.33 982 -520)" d="M2.36-7.44h.77L.77 0H0zm1.37.501h.922v1.51h.866v.744h-.866v3.54q0 .284.192.38.106.056.354.056h.142q.076-.005.177-.016v.72Q5.36.04 5.188.06q-.167.02-.365.02-.638 0-.866-.323-.228-.33-.228-.851v-3.59h-.734v-.744h.734zm3.31-.501 1.4 6.05 1.68-6.05h1.09l1.68 6.05 1.4-6.05h1.1L13.44 0h-1.06l-1.72-6.17L8.93 0H7.87L5.93-7.44z" clip-path="url(#P)" aria-label="/tW"/><path transform="matrix(1.33 0 0 1.33 978 -527)" d="M.43-3.36h2.54v.937H.43z" clip-path="url(#Q)" aria-label="-"/><path transform="matrix(1.33 0 0 1.33 974 -520)" d="M.851-6.94h.922v1.51h.866v.744h-.866v3.54q0 .284.192.38.106.056.354.056h.142q.076-.005.177-.016v.72q-.157.045-.329.065-.167.02-.365.02-.638 0-.866-.323Q.85-.574.85-1.095v-3.59H.116v-.744H.85zm2.88 0h.922v1.51h.866v.744h-.866v3.54q0 .284.192.38.106.056.354.056h.142q.076-.005.177-.016v.72q-.157.045-.329.065-.167.02-.365.02-.638 0-.866-.323-.228-.33-.228-.851v-3.59h-.734v-.744h.734z" clip-path="url(#R)" aria-label="tt"/><path d="M957.62-516.34h13.034v-13.832H957.62" fill="#f90" fill-rule="evenodd"/><g fill="none" stroke="#995c00" stroke-miterlimit="10"><path d="M957.62-530.97h13.034M957.62-516.34h13.034M970.92-516.34v-13.832M957.62-516.34v-13.832" stroke-width="1.33"/></g><path transform="matrix(1.33 0 0 1.33 974 -500)" d="m1.28-7.44 1.4 6.05 1.68-6.05h1.09l1.68 6.05 1.4-6.05h1.1L7.68 0H6.62L4.9-6.17 3.17 0H2.11L.17-7.44zm10.9 0h.77L10.59 0h-.77zm.761 6.6 4.56-5.72h-4.23v-.886h5.52v.866l-4.59 5.69h4.59v.886h-5.86zm6.57-1.38v-.851h2.21v-2.22h.866v2.22h2.21v.851h-2.21V0h-.866v-2.22zm7.17-4.17h-.911v-1.05h.911zm-1.77 7.76q.613-.02.734-.111.127-.086.127-.552v-6.11h.911v6.2q0 .592-.192.886-.319.496-1.21.496-.066 0-.142-.005-.07-.005-.228-.02zm5.42-6.92q.577 0 1.12.273.542.268.825.699.273.41.365.957.081.375.081 1.19h-3.97q.025.825.39 1.33.365.496 1.13.496.714 0 1.14-.471.243-.273.344-.633h.896q-.035.299-.238.668-.197.365-.446.597-.415.405-1.03.547-.329.081-.744.081-1.01 0-1.72-.734-.704-.739-.704-2.07 0-1.31.709-2.12.709-.815 1.85-.815zm1.45 2.4q-.056-.592-.258-.947-.375-.658-1.25-.658-.628 0-1.05.456-.425.451-.451 1.15zM34.021-6.94h.922v1.51h.866v.744h-.866v3.54q0 .284.192.38.106.056.354.056h.142q.076-.005.177-.016v.72q-.157.045-.329.065-.167.02-.365.02-.638 0-.866-.323-.228-.33-.228-.851v-3.59h-.734v-.744h.734zm3.24 5.24q.04.456.228.699.344.441 1.19.441.506 0 .891-.218.385-.223.385-.684 0-.349-.309-.532-.197-.111-.78-.258l-.724-.182q-.694-.172-1.02-.385-.587-.37-.587-1.02 0-.77.552-1.25.557-.476 1.49-.476 1.23 0 1.77.719.339.456.329.982h-.861q-.025-.309-.218-.562-.314-.36-1.09-.36-.516 0-.785.197-.263.197-.263.522 0 .354.349.567.203.127.597.223l.603.147q.982.238 1.32.461.532.349.532 1.1 0 .724-.552 1.25-.547.527-1.67.527-1.21 0-1.72-.547-.501-.552-.537-1.36z" clip-path="url(#S)" aria-label="W/Z+jets"/><path d="M957.62-496.39h13.034v-13.965H957.62" fill="#3c3" fill-rule="evenodd"/><g fill="none" stroke="#1f7a1f" stroke-miterlimit="10"><path d="M957.62-511.02h13.034M957.62-496.39h13.034M970.92-496.39v-13.965M957.62-496.39v-13.965" stroke-width="1.33"/></g><path transform="matrix(1.33 0 0 1.33 974 -480)" d="M.765-7.44h1.44l2.14 6.29 2.12-6.29h1.43V0h-.957v-4.39q0-.228.01-.754.01-.527.01-1.13l-2.12 6.27H3.84L1.7-6.274v.228q0 .273.01.835.016.557.016.82v4.39H.764zm9.45 2.02v3.6q0 .415.132.679.243.486.906.486.952 0 1.3-.851.187-.456.187-1.25v-2.66h.911v5.42h-.861l.01-.8q-.177.309-.44.522-.523.425-1.27.425-1.16 0-1.58-.775-.229-.415-.229-1.11v-3.69zm4.88-2.012h.911v7.44h-.911zm2.46.501h.922v1.51h.866v.744h-.866v3.54q0 .284.192.38.106.056.354.056h.142q.076-.005.177-.015v.719q-.157.045-.329.065-.167.02-.365.02-.638 0-.866-.323-.228-.33-.228-.851v-3.59h-.734v-.744h.734zm2.7 1.54h.927v5.4h-.927zm0-2.04h.927v1.03h-.927zm3.21 1.05h-.911v-1.05h.911zm-1.77 7.76q.613-.02.734-.111.127-.086.127-.552v-6.11h.911v6.2q0 .592-.192.886-.319.496-1.21.496-.066 0-.142-.005-.07-.005-.228-.02zm5.42-6.92q.577 0 1.12.273.542.268.825.699.273.41.365.957.081.375.081 1.19h-3.97q.025.825.39 1.33.365.496 1.13.496.714 0 1.14-.471.243-.273.344-.633h.896q-.035.299-.238.668-.197.365-.446.597-.415.405-1.03.547-.329.081-.744.081-1.01 0-1.72-.734-.704-.739-.704-2.07 0-1.31.709-2.12.709-.815 1.85-.815zm1.45 2.4q-.056-.592-.258-.947-.375-.658-1.25-.658-.628 0-1.05.456-.425.451-.451 1.15zM30.805-6.931h.922v1.51h.866v.744h-.866v3.54q0 .284.192.38.106.056.354.056h.142q.076-.005.177-.016v.72q-.157.045-.329.065-.167.02-.365.02-.638 0-.866-.323-.228-.33-.228-.851v-3.59h-.734v-.744h.734z" clip-path="url(#T)" aria-label="Multijet"/><path d="M957.62-476.44h13.034v-13.965H957.62" fill="#ccc" fill-rule="evenodd"/><g fill="none" stroke-miterlimit="10"><g stroke="#7a7a7a"><path d="M957.62-491.07h13.034M957.62-476.44h13.034M970.92-476.44v-13.965M957.62-476.44v-13.965" stroke-width="1.33"/></g><g stroke="#ccc" stroke-width=".5"><path d="m969.59-471.12.931.931M966.93-471.12l3.924 3.924M964.27-471.12l6.916 6.916M961.61-471.12l9.909 9.909" stroke-width=".665"/></g></g><path transform="matrix(1.33 0 0 1.33 974 -461)" d="M6.2-7.44v.886H3.69v6.55H2.67v-6.55H.16v-.886zM9.15-.59q.906 0 1.24-.684.339-.689.339-1.53 0-.76-.243-1.24-.385-.749-1.33-.749-.835 0-1.22.638-.38.638-.38 1.54 0 .866.38 1.44.38.577 1.21.577zm.035-4.99q1.05 0 1.77.699.724.699.724 2.06 0 1.31-.638 2.17-.638.856-1.98.856-1.12 0-1.78-.754-.658-.76-.658-2.04 0-1.37.694-2.18t1.86-.81zM12.945-6.935h.922v1.51h.866v.744h-.866v3.54q0 .284.192.38.106.056.354.056h.142q.076-.005.177-.015v.719q-.157.045-.329.066-.167.02-.365.02-.638 0-.866-.324-.228-.33-.228-.851v-3.59h-.734v-.744h.734zm3.4 5.49q0 .395.289.623.289.228.684.228.481 0 .932-.223.76-.37.76-1.21v-.734q-.167.106-.43.177t-.516.101l-.552.071q-.496.066-.744.208-.42.238-.42.76zm2.21-1.84q.314-.04.42-.263.06-.122.06-.349 0-.466-.333-.673-.33-.213-.947-.213-.714 0-1.01.385-.167.213-.218.633h-.851q.025-1 .648-1.39.628-.395 1.45-.395.957 0 1.55.365.592.365.592 1.13v3.12q0 .142.056.228.06.086.248.086.06 0 .137-.005.076-.01.162-.025v.673q-.213.06-.324.076-.111.015-.304.015-.471 0-.684-.334-.111-.177-.157-.5-.278.364-.8.632T17.1.18q-.754 0-1.24-.456-.476-.46-.476-1.15 0-.754.47-1.17.472-.415 1.24-.51zm2.886-4.15h.911v7.44h-.911zm5.7 5.74q.04.456.228.7.344.44 1.19.44.506 0 .891-.218.385-.223.385-.684 0-.349-.309-.532-.197-.11-.78-.258l-.724-.182q-.694-.172-1.02-.385-.587-.37-.587-1.02 0-.77.552-1.25.557-.476 1.49-.476 1.23 0 1.77.72.339.455.329.981h-.861q-.025-.309-.218-.562-.314-.36-1.09-.36-.516 0-.785.197-.263.197-.263.522 0 .354.349.567.203.127.597.223l.603.147q.982.238 1.32.461.532.35.532 1.1 0 .724-.552 1.25-.547.527-1.67.527-1.21 0-1.72-.547-.501-.552-.537-1.36zm8.03-3.718h1.01q-.192.522-.856 2.38-.496 1.4-.83 2.28-.79 2.08-1.11 2.53-.324.456-1.11.456-.192 0-.299-.015-.101-.015-.253-.056v-.83q.238.066.344.081.106.016.187.016.253 0 .37-.087.122-.08.203-.203.025-.04.182-.415t.228-.557l-2.01-5.58h1.03l1.45 4.42zm2.34 3.718q.04.456.228.7.344.44 1.19.44.506 0 .891-.218.385-.223.385-.684 0-.349-.309-.532-.197-.11-.78-.258l-.724-.182q-.694-.172-1.02-.385-.587-.37-.587-1.02 0-.77.552-1.25.557-.476 1.49-.476 1.23 0 1.77.72.339.455.329.981h-.861q-.025-.309-.218-.562-.314-.36-1.09-.36-.516 0-.785.197-.263.197-.263.522 0 .354.349.567.203.127.597.223l.603.147q.982.238 1.32.461.532.35.532 1.1 0 .724-.552 1.25-.547.527-1.67.527-1.21 0-1.72-.547-.501-.552-.537-1.36zm4.83-5.23h.922v1.51h.866v.744h-.866v3.54q0 .284.192.38.106.056.354.056h.142q.076-.005.177-.015v.719q-.157.045-.329.066-.167.02-.365.02-.638 0-.866-.324-.228-.33-.228-.851v-3.59h-.734v-.744h.734zm2.92 5.83h1.06v1.1h-1.06z" clip-path="url(#U)" aria-label="Total syst."/><g fill="none" stroke-miterlimit="10"><g stroke="#ccc" stroke-width=".5"><path d="m957.62-471.12 12.901 12.901M957.62-468.46l11.039 11.039M957.62-464.47l8.033 8.033M957.62-461.81l5.04 5.04M957.62-459.15l2.048 2.048" stroke-width=".665"/></g><g stroke="#a6a6a6"><path d="M957.62-471.12h13.034M957.62-456.49h13.034M970.92-456.49v-13.832M957.62-456.49v-13.832" stroke-width="1.33"/></g></g></g></svg>